<svg xmlns="http://www.w3.org/2000/svg" viewBox="0 0 90 60"><defs><style>.cls-1{fill:#c6c7c8;}.cls-2{fill:#e41e20;}</style></defs><title>albania</title><g id="Back"><rect class="cls-1" width="90" height="60"/></g><g id="Flags"><rect class="cls-2" width="90" height="60"/><path d="M62.47,37c-.57-.66-1.2-.71-2,.14l-2.23.07c.45-.38.68-.66,1.13-1,.68.22,1.35.14,1.64-.62a1.23,1.23,0,0,1,1-.43A1.13,1.13,0,0,0,60.63,35c-1.05-.47-1.13.2-1.32.63-.7.47-1.27.86-2,1.32-1.44-.42-2.6-.65-4-1.07l.93-.94c.09-.27-.06-.41-.29-.46-2.33-.47-3.65-1.38-4.46-3.71-.34-1,.39-1.27.64-.67a4.86,4.86,0,0,0,1.77,2.44c.36.24,1.43.05.8-.55a2.83,2.83,0,0,1-1.26-2c0-.66.68-.95,1.06-.33a5.79,5.79,0,0,0,1.17,2.66,3,3,0,0,0,1.64,1c.65,0,1.3-.7.44-1.19a2.8,2.8,0,0,1-1.92-1.83c-.21-1.13,0-1.67.71-1.12,1,1.1,2.88,3.15,3.86,4.1a2.61,2.61,0,0,0,3.39,0c.58-.65.38-1.35-.53-1.2-2,.17-3.59-.82-5.29-3.51-.34-.61-.43-1.47.31-.83a7.57,7.57,0,0,0,3.23,2.49c1.15.4,2.21.26,2.47-.18.43-.73.33-1.53-.44-1.26a3.74,3.74,0,0,1-2.46-.08,7.26,7.26,0,0,1-2.92-2.42c-.35-.73-.23-1.35.48-1,1.68,1.39,3.84,2.52,5,1.84.82-.5.83-1.77-.2-1.69-2.08.28-2.87-.18-4.87-1.9-.46-.33-.43-1.17.3-.64,1.68,1.06,4,1.48,4.88.92s.69-2-.68-1.47c-1.09.65-2.3.63-4.72-1.06-.61-.5-.15-1.15.35-.87,1.94,1.09,4.78,1.55,5.52-.65.28-.85-.23-1.34-1-.75a3.54,3.54,0,0,1-4.62,0c-.28,0-.87-1.07.11-.9,2.54.56,5,.07,5.5-1.68.26-.57-.26-1.58-1.18-.73-1.22,1.17-2.51,1.21-4.13,1.2-.82-.17-.83-1.06-.14-1.19a7.26,7.26,0,0,0,3.55-1.08,3.91,3.91,0,0,0,2.07-2.41c.16-1-.79-2-1.37-1a6.69,6.69,0,0,1-4.81,3.16c-.1-.18-.38-.63-.72-.5a36,36,0,0,0-4.31,2c-.31.17,0,1,.12,1.29a2.1,2.1,0,0,1-.43,1.6,1.57,1.57,0,0,1-1.32.38c-.77-.2-1.19-.87-1.06-2.06a2.84,2.84,0,0,1,.7-1.44,4.88,4.88,0,0,1,1.47-1.24,12.88,12.88,0,0,1,3-.87c.78-.15,1.18-.45,1.22-.76a4.16,4.16,0,0,1-1.38.33,1.88,1.88,0,0,1-.77-.38,9.67,9.67,0,0,1,1.31,0,7.47,7.47,0,0,0,1.19-.15,1.69,1.69,0,0,0,1.34-.88c.12-.59-.27-.69-.63-.32a5.58,5.58,0,0,1-.57.59,2.15,2.15,0,0,1-.77.31,3.56,3.56,0,0,1-1.57,0,2.57,2.57,0,0,1,.64-.55,1,1,0,0,1,.72-.19.86.86,0,0,1,.53.41c.1-.64-.08-1.35-1.82-1.06,0-.48-1-.69-1.64-.67h0a5.34,5.34,0,0,0-1.61.46,11.09,11.09,0,0,1-2.61.5,13.71,13.71,0,0,0,1.23.9,4,4,0,0,0-1.8,1.36,5.06,5.06,0,0,1,1.23.08,4,4,0,0,0-2,1,4.91,4.91,0,0,1,.6.14c.13,0,.08.11,0,.2S45.27,16.22,45,16.47c-.27-.25-1.17-1.31-1.41-1.46s-.14-.16,0-.2a4.91,4.91,0,0,1,.6-.14,4,4,0,0,0-2-1,5.06,5.06,0,0,1,1.23-.08,4,4,0,0,0-1.8-1.36,13.71,13.71,0,0,0,1.23-.9,11.09,11.09,0,0,1-2.61-.5,5.34,5.34,0,0,0-1.61-.46h0c-.62,0-1.66.19-1.64.67-1.74-.29-1.92.42-1.82,1.06a.86.86,0,0,1,.53-.41,1,1,0,0,1,.72.19,2.57,2.57,0,0,1,.64.55,3.56,3.56,0,0,1-1.57,0,2.15,2.15,0,0,1-.77-.31,5.58,5.58,0,0,1-.57-.59c-.36-.37-.75-.27-.63.32a1.69,1.69,0,0,0,1.34.88,7.47,7.47,0,0,0,1.19.15,9.67,9.67,0,0,1,1.31,0,1.88,1.88,0,0,1-.77.38,4.16,4.16,0,0,1-1.38-.33c0,.31.44.61,1.22.76a12.88,12.88,0,0,1,3,.87,4.88,4.88,0,0,1,1.47,1.24,2.84,2.84,0,0,1,.7,1.44c.13,1.19-.29,1.86-1.06,2.06a1.57,1.57,0,0,1-1.32-.38,2.1,2.1,0,0,1-.43-1.6c.07-.31.43-1.12.12-1.29a36,36,0,0,0-4.31-2c-.34-.13-.62.32-.72.5a6.69,6.69,0,0,1-4.81-3.16c-.58-1-1.53,0-1.37,1a3.91,3.91,0,0,0,2.07,2.41,7.26,7.26,0,0,0,3.55,1.08c.69.13.68,1-.14,1.19-1.62,0-2.91,0-4.13-1.2-.92-.85-1.44.16-1.18.73.46,1.75,3,2.24,5.5,1.68,1-.17.39.88.11.9a3.54,3.54,0,0,1-4.62,0c-.77-.59-1.28-.1-1,.75.74,2.2,3.58,1.74,5.52.65.5-.28,1,.37.35.87C31.3,23,30.09,23,29,22.37c-1.37-.54-1.49,1-.68,1.47s3.2.14,4.88-.92c.73-.53.76.31.3.64-2,1.72-2.79,2.18-4.87,1.9-1-.08-1,1.19-.2,1.69,1.11.68,3.27-.45,5-1.84.71-.38.83.24.48,1a7.26,7.26,0,0,1-2.92,2.42,3.74,3.74,0,0,1-2.46.08c-.77-.27-.87.53-.44,1.26.26.44,1.32.58,2.47.18a7.57,7.57,0,0,0,3.23-2.49c.74-.64.65.22.31.83-1.7,2.69-3.25,3.68-5.29,3.51-.91-.15-1.11.55-.53,1.2a2.61,2.61,0,0,0,3.39,0c1-.95,2.87-3,3.86-4.1.69-.55.92,0,.71,1.12a2.8,2.8,0,0,1-1.92,1.83c-.86.49-.21,1.17.44,1.19a3,3,0,0,0,1.64-1,5.79,5.79,0,0,0,1.17-2.66c.38-.62,1.06-.33,1.06.33a2.83,2.83,0,0,1-1.26,2c-.63.6.44.79.8.55a4.86,4.86,0,0,0,1.77-2.44c.25-.6,1-.31.64.67-.81,2.33-2.13,3.24-4.46,3.71-.23,0-.38.19-.29.46l.93.94c-1.44.42-2.6.65-4,1.07-.71-.46-1.28-.85-2-1.32-.19-.43-.27-1.1-1.32-.63a1.13,1.13,0,0,0-1.42.12,1.23,1.23,0,0,1,1,.43c.29.76,1,.84,1.64.62.45.38.68.66,1.13,1l-2.23-.07c-.79-.85-1.42-.8-2-.14a1,1,0,0,0-.91.6c.47-.19.76-.25,1,0,.84.49,1.39.38,1.8,0l2.35.15c-.29.25-.7.38-1,.64-1.22-.35-1.85.12-2.07,1.11a2.31,2.31,0,0,0-.17,1.24,1.59,1.59,0,0,1,.66-.94c1.08.28,1.49-.16,1.55-.81.52-.43,1.31-.52,1.83-1,.61.19.91.31,1.52.51.22.66.71.92,1.52.75,1,0,.78.42.86.74a.87.87,0,0,0-.34-1.29.85.85,0,0,0-1.31-.51c-.59-.17-.74-.4-1.32-.57,1.47-.47,2.52-.58,4-1,.37.34.66.59,1,.9.2.12.39.15.5,0a27.84,27.84,0,0,1,2.2-3.39,2.89,2.89,0,0,1,1.2-1,.69.69,0,0,1,.69.18,1.35,1.35,0,0,1,.26,1.09,3.6,3.6,0,0,1-.49,1.48A5.42,5.42,0,0,1,42.08,37a6.11,6.11,0,0,1-1.69,1.4c-.85.56-1.21.31-1.87.28-.85.09-1.08.51-.38,1.08a2.61,2.61,0,0,0,1.71.3c.41-.08.89-.61,1.23-.89.39-.44,1,.08.59.6a3.41,3.41,0,0,1-2.55,1.54c-1,.14-.83.71-.15,1,1.22.51,2.32-.44,2.88-1.06.43-.47.74-.49.66.24-.43,1.33-1,1.84-2,1.91-.78-.07-.78.52-.22.93,1.3.9,2.23-.63,2.67-1.55s.79-.44.84.25a3.31,3.31,0,0,1-1.51,2.6c.84,1.35,1.83,2.72,2.68,4.08h0c.85-1.36,1.84-2.73,2.68-4.08A3.31,3.31,0,0,1,46.17,43c0-.69.53-1.08.84-.25s1.37,2.45,2.67,1.55c.56-.41.56-1-.22-.93-1-.07-1.54-.58-2-1.91-.08-.73.23-.71.66-.24.56.62,1.66,1.57,2.88,1.06.68-.28.87-.85-.15-1a3.41,3.41,0,0,1-2.55-1.54c-.43-.52.2-1,.59-.6.34.28.82.81,1.23.89a2.61,2.61,0,0,0,1.71-.3c.7-.57.47-1-.38-1.08-.66,0-1,.28-1.87-.28A6.11,6.11,0,0,1,47.92,37a5.42,5.42,0,0,1-.76-1.11,3.6,3.6,0,0,1-.49-1.48,1.35,1.35,0,0,1,.26-1.09.69.69,0,0,1,.69-.18,2.89,2.89,0,0,1,1.2,1A27.84,27.84,0,0,1,51,37.46c.11.15.3.12.5,0,.37-.31.66-.56,1-.9,1.47.46,2.52.57,4,1-.58.17-.73.4-1.32.57a.85.85,0,0,0-1.31.51A.87.87,0,0,0,53.57,40c.08-.32-.09-.71.86-.74.81.17,1.3-.09,1.52-.75.61-.2.91-.32,1.52-.51.52.43,1.31.52,1.83,1,.06.65.47,1.09,1.55.81a1.59,1.59,0,0,1,.66.94,2.31,2.31,0,0,0-.17-1.24c-.22-1-.85-1.46-2.07-1.11-.3-.26-.71-.39-1-.64l2.35-.15c.41.38,1,.49,1.8,0,.2-.21.49-.15,1,0A1,1,0,0,0,62.47,37ZM51.32,11.48c.51,0,.83.15.83.37s-.32.4-.83.4-.82-.17-.82-.39S50.82,11.48,51.32,11.48Zm-12.64.77c-.51,0-.83-.19-.83-.4s.32-.37.83-.37.82.17.82.38S39.18,12.25,38.68,12.25Z"/></g></svg>