<svg xmlns="http://www.w3.org/2000/svg" viewBox="0 0 90 60"><defs><style>.cls-1{fill:#fff;}.cls-2{fill:#74acdf;}.cls-3{fill:#f6b40e;}.cls-4{fill:#85340a;}.cls-5{fill:#843511;}</style></defs><title>argentina</title><g id="Flags"><rect class="cls-1" y="20" width="90" height="20"/><rect class="cls-2" y="40" width="90" height="20"/><rect class="cls-2" width="90" height="20"/><path class="cls-3" d="M53.18,29.9l-5-.19v0c.84-.12,1.42-.61,2.27-.53a3.64,3.64,0,0,0,2-.59c.39-.13.62.14.68,0s-.25-.37-.81-.29-.73.51-2,.41-1.44.37-2.28.38v0L52.6,27s.14-.05.1-.15-.18,0-.18,0L47.87,28.5v0c.73-.44,1.07-1.1,1.89-1.36a3.55,3.55,0,0,0,1.6-1.3c.31-.27.63-.12.64-.24s-.37-.25-.86,0-.47.75-1.65,1.13-1.2.89-2,1.22l0,0,3.37-3.63s.11-.11,0-.18-.18,0-.18,0l-3.63,3.37,0,0c.51-.69.57-1.44,1.23-2a3.64,3.64,0,0,0,1-1.81c.19-.37.54-.35.5-.47s-.44-.08-.78.37-.15.87-1.1,1.67-.75,1.29-1.34,1.89l0,0,1.73-4.65s.05-.14,0-.18-.15.1-.15.1L46,26.9h0c.21-.82,0-1.54.38-2.3a3.59,3.59,0,0,0,.21-2.05c0-.42.37-.53.28-.63s-.44.1-.57.65.19.86-.38,2-.21,1.47-.52,2.25h0l-.19-4.95s0-.15-.1-.15-.1.15-.1.15l-.19,4.95h0c-.12-.84-.61-1.42-.53-2.27a3.64,3.64,0,0,0-.59-2c-.13-.39.14-.62,0-.68s-.37.25-.29.81.51.73.41,2,.37,1.44.38,2.28h0L42,22.4s-.05-.14-.15-.1,0,.18,0,.18l1.72,4.65h0c-.44-.73-1.1-1.07-1.36-1.89a3.55,3.55,0,0,0-1.3-1.6c-.27-.31-.12-.63-.24-.64s-.25.37,0,.86.75.47,1.13,1.65.89,1.2,1.22,2l0,0-3.63-3.37s-.11-.11-.18,0,0,.18,0,.18l3.37,3.63,0,0c-.69-.51-1.44-.57-2-1.23a3.64,3.64,0,0,0-1.81-1c-.37-.19-.35-.54-.47-.5s-.08.44.37.78.87.15,1.67,1.1,1.29.75,1.89,1.34l0,0-4.65-1.73s-.14-.05-.18,0,.1.15.1.15L41.9,29v0c-.82-.21-1.54,0-2.3-.38a3.59,3.59,0,0,0-2.05-.21c-.42,0-.53-.37-.63-.28s.1.44.65.57.86-.19,2,.38,1.47.21,2.25.52v0l-5,.19s-.15,0-.15.1.15.1.15.1l5,.19v0c-.84.12-1.42.61-2.27.53a3.64,3.64,0,0,0-2,.59c-.39.13-.62-.14-.68,0s.25.37.81.29.73-.51,2-.41,1.44-.37,2.28-.38v0L37.4,33s-.14.05-.1.15.18,0,.18,0l4.65-1.72v0c-.73.44-1.07,1.1-1.89,1.36a3.55,3.55,0,0,0-1.6,1.3c-.31.27-.63.12-.64.24s.37.25.86,0,.47-.75,1.65-1.13,1.2-.89,2-1.22l0,0-3.37,3.63s-.11.11,0,.18.18,0,.18,0l3.63-3.37,0,0c-.51.69-.57,1.44-1.23,2a3.64,3.64,0,0,0-1,1.81c-.19.37-.54.35-.5.47s.44.08.78-.37.15-.87,1.1-1.67.75-1.29,1.34-1.89l0,0-1.73,4.65s-.05.14,0,.18.15-.1.15-.1L44,33.1h0c-.21.82,0,1.54-.38,2.3a3.59,3.59,0,0,0-.21,2.05c0,.42-.37.53-.28.63s.44-.1.57-.65-.19-.86.38-2,.21-1.47.52-2.25h0l.19,5s0,.15.1.15.1-.15.1-.15l.19-5h0c.12.84.61,1.42.53,2.27a3.64,3.64,0,0,0,.59,2c.13.39-.14.62,0,.68s.37-.25.29-.81-.51-.73-.41-2-.37-1.44-.38-2.28h0L48,37.6s.05.14.15.1,0-.18,0-.18L46.5,32.87h0c.44.73,1.1,1.07,1.36,1.89a3.55,3.55,0,0,0,1.3,1.6c.27.31.12.63.24.64s.25-.37,0-.86-.75-.47-1.13-1.65-.89-1.2-1.22-2l0,0,3.63,3.37s.11.11.18,0,0-.18,0-.18l-3.37-3.63,0,0c.69.51,1.44.57,2,1.23a3.64,3.64,0,0,0,1.81,1c.37.19.35.54.47.5s.08-.44-.37-.78-.87-.15-1.67-1.1-1.29-.75-1.89-1.34l0,0,4.65,1.73s.14.05.18,0-.1-.15-.1-.15L48.1,31v0c.82.21,1.54,0,2.3.38a3.59,3.59,0,0,0,2.05.21c.42,0,.53.37.63.28s-.1-.44-.65-.57-.86.19-2-.38-1.47-.21-2.25-.52v0l5-.19s.15,0,.15-.1S53.18,29.9,53.18,29.9Z"/><path class="cls-4" d="M53.28,29.85a.27.27,0,0,0-.1,0l-4.57-.17.57-.19a2.79,2.79,0,0,1,1.32-.26,2.76,2.76,0,0,0,1.65-.43,2.19,2.19,0,0,1,.35-.17.75.75,0,0,1,.48,0c.08,0,.19.07.24,0a.17.17,0,0,0,0-.17.9.9,0,0,0-.85-.21,1.91,1.91,0,0,0-.51.17,2.4,2.4,0,0,1-1.44.23,3.17,3.17,0,0,0-1.38.2,3.36,3.36,0,0,1-.66.17l4.27-2a.43.43,0,0,0,.09-.06.15.15,0,0,0,0-.18.14.14,0,0,0-.08-.09.34.34,0,0,0-.19,0L48.21,28.3l.45-.39a2.87,2.87,0,0,1,1.11-.75,2.65,2.65,0,0,0,1.37-1,1.94,1.94,0,0,1,.25-.29.64.64,0,0,1,.46-.16c.09,0,.2,0,.21-.13a.19.19,0,0,0-.09-.15.93.93,0,0,0-.87.14,1.58,1.58,0,0,0-.41.35,2.44,2.44,0,0,1-1.23.77,3.09,3.09,0,0,0-1.21.71,3.78,3.78,0,0,1-.54.4l3.19-3.44a.2.2,0,0,0,0-.28.15.15,0,0,0-.11,0,.29.29,0,0,0-.16.07L47.31,27.2a4.53,4.53,0,0,0,.27-.54,3,3,0,0,1,.74-1.11,2.66,2.66,0,0,0,.87-1.47,1.84,1.84,0,0,1,.13-.36.76.76,0,0,1,.35-.33c.09,0,.19-.09.15-.19a.15.15,0,0,0-.14-.1.91.91,0,0,0-.75.45,1.8,1.8,0,0,0-.24.48,2.37,2.37,0,0,1-.85,1.18A3.19,3.19,0,0,0,47,26.33a3.27,3.27,0,0,1-.35.59l1.64-4.41a.19.19,0,0,0-.08-.27.15.15,0,0,0-.18.05.16.16,0,0,0-.05.09l-1.91,4.15c0-.2,0-.4,0-.6a2.77,2.77,0,0,1,.26-1.31,2.71,2.71,0,0,0,.24-1.69,3,3,0,0,1,0-.39.7.7,0,0,1,.21-.43c.06-.07.14-.16.06-.24a.17.17,0,0,0-.17,0,.93.93,0,0,0-.52.71,1.67,1.67,0,0,0,0,.54,2.42,2.42,0,0,1-.34,1.41,3.21,3.21,0,0,0-.34,1.36,4.18,4.18,0,0,1-.1.67l-.18-4.7c0-.11-.05-.22-.17-.22h0a.15.15,0,0,0-.15.12.3.3,0,0,0,0,.1l-.17,4.57c-.06-.2-.13-.39-.19-.57a2.79,2.79,0,0,1-.26-1.32,2.76,2.76,0,0,0-.43-1.65,2.19,2.19,0,0,1-.17-.35.75.75,0,0,1,0-.48c0-.08.07-.19,0-.24a.17.17,0,0,0-.17,0,.9.9,0,0,0-.21.85,1.91,1.91,0,0,0,.17.51,2.4,2.4,0,0,1,.23,1.44,3.17,3.17,0,0,0,.2,1.38,3.36,3.36,0,0,1,.17.66l-2-4.27c0-.1-.14-.19-.24-.14a.17.17,0,0,0-.1.17.41.41,0,0,0,0,.1l1.59,4.28q-.19-.24-.39-.45a2.87,2.87,0,0,1-.75-1.11,2.65,2.65,0,0,0-1-1.37,1.94,1.94,0,0,1-.29-.25.64.64,0,0,1-.16-.46c0-.09,0-.2-.13-.21a.19.19,0,0,0-.15.09.93.93,0,0,0,.14.87,1.58,1.58,0,0,0,.35.41,2.44,2.44,0,0,1,.77,1.23,3.09,3.09,0,0,0,.71,1.21,3.78,3.78,0,0,1,.4.54L39.34,24.1a.2.2,0,0,0-.28,0,.15.15,0,0,0,0,.19.26.26,0,0,0,.05.08l3.11,3.36a4.53,4.53,0,0,0-.54-.27,3,3,0,0,1-1.11-.74,2.66,2.66,0,0,0-1.47-.87,1.84,1.84,0,0,1-.36-.13.76.76,0,0,1-.33-.35c0-.09-.09-.19-.19-.15a.15.15,0,0,0-.1.14.91.91,0,0,0,.45.75,1.8,1.8,0,0,0,.48.24,2.37,2.37,0,0,1,1.18.85,3.19,3.19,0,0,0,1.12.84,3.27,3.27,0,0,1,.59.35l-4.41-1.64a.19.19,0,0,0-.27.08.11.11,0,0,0,0,.11.23.23,0,0,0,.14.12l4.15,1.91-.6,0a2.77,2.77,0,0,1-1.31-.26,2.71,2.71,0,0,0-1.69-.24l-.39,0a.7.7,0,0,1-.43-.21c-.07-.06-.16-.14-.24-.06a.17.17,0,0,0,0,.17.93.93,0,0,0,.71.52,1.67,1.67,0,0,0,.54,0,2.42,2.42,0,0,1,1.41.34,3.21,3.21,0,0,0,1.36.34,4.18,4.18,0,0,1,.67.1l-4.7.18h0c-.11,0-.22.05-.22.17a.15.15,0,0,0,.12.15.3.3,0,0,0,.1,0l4.57.17-.57.19a2.79,2.79,0,0,1-1.32.26,2.76,2.76,0,0,0-1.65.43,2.19,2.19,0,0,1-.35.17.75.75,0,0,1-.48,0c-.08,0-.19-.07-.24,0a.17.17,0,0,0,0,.17.9.9,0,0,0,.85.21,1.91,1.91,0,0,0,.51-.17,2.4,2.4,0,0,1,1.44-.23,3.17,3.17,0,0,0,1.38-.2,3.36,3.36,0,0,1,.66-.17l-4.27,2c-.1,0-.19.14-.14.24a.16.16,0,0,0,.17.1.41.41,0,0,0,.1,0l4.28-1.59-.45.39a2.87,2.87,0,0,1-1.11.75,2.65,2.65,0,0,0-1.37,1,1.94,1.94,0,0,1-.25.29.64.64,0,0,1-.46.16c-.09,0-.2,0-.21.13a.19.19,0,0,0,.09.15.93.93,0,0,0,.87-.14,1.58,1.58,0,0,0,.41-.35,2.44,2.44,0,0,1,1.23-.77,3.09,3.09,0,0,0,1.21-.71,3.78,3.78,0,0,1,.54-.4L39.1,35.66a.32.32,0,0,0-.06.08.16.16,0,0,0,0,.2.15.15,0,0,0,.19,0,.26.26,0,0,0,.08-.05l3.36-3.11a4.53,4.53,0,0,0-.27.54,3,3,0,0,1-.74,1.11,2.66,2.66,0,0,0-.87,1.47,1.84,1.84,0,0,1-.13.36.76.76,0,0,1-.35.33c-.09,0-.19.09-.15.19a.15.15,0,0,0,.14.1.91.91,0,0,0,.75-.45,1.8,1.8,0,0,0,.24-.48,2.37,2.37,0,0,1,.85-1.18A3.19,3.19,0,0,0,43,33.67a3.27,3.27,0,0,1,.35-.59l-1.64,4.41a.19.19,0,0,0,.08.27.15.15,0,0,0,.18,0,.16.16,0,0,0,.05-.09l1.91-4.15c0,.21,0,.4,0,.6a2.77,2.77,0,0,1-.26,1.31,2.71,2.71,0,0,0-.24,1.69,3,3,0,0,1,0,.39.7.7,0,0,1-.21.43c-.06.07-.14.16-.06.24a.17.17,0,0,0,.17,0,.93.93,0,0,0,.52-.71,1.67,1.67,0,0,0,0-.54,2.42,2.42,0,0,1,.34-1.41,3.21,3.21,0,0,0,.34-1.36,4.18,4.18,0,0,1,.1-.67l.18,4.7c0,.11.05.22.17.22a.15.15,0,0,0,.15-.12.3.3,0,0,0,0-.1l.17-4.57c.06.2.13.39.19.57a2.79,2.79,0,0,1,.26,1.32,2.76,2.76,0,0,0,.43,1.65,2.19,2.19,0,0,1,.17.35.75.75,0,0,1,0,.48c0,.08-.07.19,0,.24a.17.17,0,0,0,.17,0,.9.9,0,0,0,.21-.85,1.91,1.91,0,0,0-.17-.51,2.4,2.4,0,0,1-.23-1.44,3.17,3.17,0,0,0-.2-1.38,3.36,3.36,0,0,1-.17-.66l2,4.27a.43.43,0,0,0,.06.09.15.15,0,0,0,.18,0,.14.14,0,0,0,.09-.08.34.34,0,0,0,0-.19L46.7,33.21q.19.24.39.45a2.87,2.87,0,0,1,.75,1.11,2.65,2.65,0,0,0,1,1.37,1.94,1.94,0,0,1,.29.25.64.64,0,0,1,.16.46c0,.09,0,.2.13.21a.19.19,0,0,0,.15-.09.93.93,0,0,0-.14-.87,1.58,1.58,0,0,0-.35-.41,2.44,2.44,0,0,1-.77-1.23,3.09,3.09,0,0,0-.71-1.21,3.78,3.78,0,0,1-.4-.54l3.44,3.19a.2.2,0,0,0,.28,0,.15.15,0,0,0,0-.19.26.26,0,0,0-.05-.08L47.8,32.31a4.53,4.53,0,0,0,.54.27,3,3,0,0,1,1.11.74,2.66,2.66,0,0,0,1.47.87,1.84,1.84,0,0,1,.36.13.76.76,0,0,1,.33.35c0,.09.09.19.19.15a.15.15,0,0,0,.1-.14.91.91,0,0,0-.45-.75,1.8,1.8,0,0,0-.48-.24,2.37,2.37,0,0,1-1.18-.85A3.19,3.19,0,0,0,48.67,32a3.27,3.27,0,0,1-.59-.35l4.41,1.64a.19.19,0,0,0,.27-.08.15.15,0,0,0,0-.18.16.16,0,0,0-.09-.05l-4.15-1.91.6,0a2.77,2.77,0,0,1,1.31.26,2.71,2.71,0,0,0,1.69.24l.39,0a.7.7,0,0,1,.43.21c.07.06.16.14.24.06a.17.17,0,0,0,0-.17.93.93,0,0,0-.71-.52,1.67,1.67,0,0,0-.54,0,2.42,2.42,0,0,1-1.41-.34,3.21,3.21,0,0,0-1.36-.34,4.18,4.18,0,0,1-.67-.1l4.7-.18h0c.11,0,.22-.05.22-.17A.15.15,0,0,0,53.28,29.85ZM49.05,29a3,3,0,0,1,1.33-.19,2.55,2.55,0,0,0,1.5-.25,1.94,1.94,0,0,1,.48-.16.86.86,0,0,1,.71.14l0,0-.08,0a.84.84,0,0,0-.56,0,3.17,3.17,0,0,0-.38.18,2.52,2.52,0,0,1-1.57.41,3.08,3.08,0,0,0-1.37.27,4.54,4.54,0,0,1-.74.23,3.58,3.58,0,0,0-.09-.45A2.86,2.86,0,0,0,49.05,29Zm-.82.83a2.42,2.42,0,0,1,0,.44,1.09,1.09,0,0,1,0,.18h0a2.46,2.46,0,0,1-.1.47,1,1,0,0,1,0,.16h0a2.09,2.09,0,0,1-.17.41h0a.8.8,0,0,1-.08.16h0a3.51,3.51,0,0,1-.27.4h0l-.11.13h0a2.27,2.27,0,0,1-.31.31h0l-.14.12a3.94,3.94,0,0,1-.4.26h0l-.15.08a2.09,2.09,0,0,1-.41.17l-.17.06a3.55,3.55,0,0,1-.47.09H44.6a2.46,2.46,0,0,1-.47-.1h0l-.16,0a2.09,2.09,0,0,1-.41-.17.8.8,0,0,1-.16-.08h0a3.51,3.51,0,0,1-.4-.27h0l-.13-.11h0a2.27,2.27,0,0,1-.31-.31L42.44,32h0a3.94,3.94,0,0,1-.26-.4h0a1.09,1.09,0,0,1-.08-.15,2.09,2.09,0,0,1-.17-.41l-.06-.17a3.55,3.55,0,0,1-.09-.47.91.91,0,0,1,0-.17h0a2.42,2.42,0,0,1,0-.44,1.09,1.09,0,0,1,0-.18h0a2.46,2.46,0,0,1,.1-.47,1,1,0,0,1,0-.16,2.09,2.09,0,0,1,.17-.41.8.8,0,0,1,.08-.16h0a3.51,3.51,0,0,1,.27-.4l.11-.13h0a2.27,2.27,0,0,1,.31-.31l.14-.12a3.94,3.94,0,0,1,.4-.26h0l.15-.08a2.09,2.09,0,0,1,.41-.17l.17-.06h0a3.55,3.55,0,0,1,.47-.09h.79a2.46,2.46,0,0,1,.47.1l.16.05a2.09,2.09,0,0,1,.41.17.8.8,0,0,1,.16.08h0a3.51,3.51,0,0,1,.4.27l.13.11h0a2.27,2.27,0,0,1,.31.31h0l.12.14a3.94,3.94,0,0,1,.26.4,1.09,1.09,0,0,1,.08.15h0a2.09,2.09,0,0,1,.17.41l.06.17h0a3.55,3.55,0,0,1,.09.47h0A.91.91,0,0,1,48.23,29.78Zm4.31-2.94s.09,0,.1,0-.06.06-.07.06l-4.33,2a3.42,3.42,0,0,0-.17-.4Zm-4.2.64a3,3,0,0,1,1.16-.69,2.46,2.46,0,0,0,1.29-.8,1.65,1.65,0,0,1,.37-.33.83.83,0,0,1,.72-.14l0,0h-.08a.8.8,0,0,0-.53.2,1.76,1.76,0,0,0-.28.31,2.63,2.63,0,0,1-1.3,1,2.85,2.85,0,0,0-1.16.77,5.13,5.13,0,0,1-.6.5,2.49,2.49,0,0,0-.25-.38A3.81,3.81,0,0,0,48.34,27.48Zm2.42-3.29s.07-.06.09,0,0,.08,0,.09l-3.24,3.5-.31-.31Zm-3.64,2.2a3,3,0,0,1,.81-1.07,2.63,2.63,0,0,0,.89-1.24,1.7,1.7,0,0,1,.22-.45.79.79,0,0,1,.6-.4h0l-.07,0a.83.83,0,0,0-.42.39,2.8,2.8,0,0,0-.14.39,2.57,2.57,0,0,1-.82,1.4,2.94,2.94,0,0,0-.78,1.16,5.7,5.7,0,0,1-.36.69,3.19,3.19,0,0,0-.38-.26A3,3,0,0,0,47.12,26.39Zm1-4a.15.15,0,0,1,0-.05l0,0s0,.08,0,.1l-1.65,4.47a2.83,2.83,0,0,0-.4-.17Zm-2.19,2.12a2.5,2.5,0,0,0,.35-1.48,1.7,1.7,0,0,1,0-.5.85.85,0,0,1,.4-.6h.05l-.05.06a.81.81,0,0,0-.24.51,2.18,2.18,0,0,0,0,.42,2.59,2.59,0,0,1-.23,1.61A3,3,0,0,0,46,25.92a4.19,4.19,0,0,1-.07.78,3.12,3.12,0,0,0-.44-.09,3.53,3.53,0,0,0,.12-.75A3.13,3.13,0,0,1,45.91,24.55ZM45,21.82a.21.21,0,0,1,0-.06s0,0,0,0,0,.08,0,.09l.18,4.76h-.43ZM44,26a3,3,0,0,1-.19-1.33,2.53,2.53,0,0,0-.25-1.5,1.94,1.94,0,0,1-.16-.48.86.86,0,0,1,.14-.71l0,0a.24.24,0,0,1,0,.08.84.84,0,0,0,0,.56,3.17,3.17,0,0,0,.18.38,2.52,2.52,0,0,1,.41,1.57,3.08,3.08,0,0,0,.27,1.37,4.54,4.54,0,0,1,.23.74,3.58,3.58,0,0,0-.45.09A2.86,2.86,0,0,0,44,26Zm-2.11-3.49,0-.06s0,0,0,0,.06.06.06.07l2,4.33a3.42,3.42,0,0,0-.4.17Zm.64,4.2a3,3,0,0,1-.69-1.16,2.46,2.46,0,0,0-.8-1.29,1.51,1.51,0,0,1-.33-.38.81.81,0,0,1-.14-.71s0,0,0,0a.22.22,0,0,1,0,.08.8.8,0,0,0,.2.53,1.76,1.76,0,0,0,.31.28,2.63,2.63,0,0,1,1,1.3,2.85,2.85,0,0,0,.77,1.16,5.13,5.13,0,0,1,.5.6,2.49,2.49,0,0,0-.38.25A3.81,3.81,0,0,0,42.48,26.66Zm-3.29-2.42,0,0a.05.05,0,0,1,0-.05s.08,0,.09,0l3.5,3.24-.31.31Zm2.2,3.64a3,3,0,0,1-1.07-.81,2.63,2.63,0,0,0-1.24-.89,1.7,1.7,0,0,1-.45-.22.84.84,0,0,1-.4-.6.07.07,0,0,1,0-.05l0,.07a.83.83,0,0,0,.39.42,2.8,2.8,0,0,0,.39.14,2.57,2.57,0,0,1,1.4.82,2.94,2.94,0,0,0,1.16.78,4.56,4.56,0,0,1,.69.36,3.19,3.19,0,0,0-.26.38A3,3,0,0,0,41.39,27.88Zm-4-1a.12.12,0,0,1-.07,0h0s.08,0,.1,0l4.47,1.65a2.83,2.83,0,0,0-.17.4Zm3.43,2.52a3.13,3.13,0,0,1-1.31-.33,2.5,2.5,0,0,0-1.48-.35,1.7,1.7,0,0,1-.5,0,.85.85,0,0,1-.6-.4.13.13,0,0,1,0,0l.06,0a.81.81,0,0,0,.51.24,2.18,2.18,0,0,0,.42,0,2.59,2.59,0,0,1,1.61.23,3,3,0,0,0,1.36.28,4.19,4.19,0,0,1,.78.07,3.12,3.12,0,0,0-.09.44A3.53,3.53,0,0,0,40.86,29.42Zm-4,.62h-.06s0,0,0,0,.08,0,.09,0l4.76-.18v.43Zm4.13,1a3,3,0,0,1-1.33.19,2.45,2.45,0,0,0-1.5.25,1.94,1.94,0,0,1-.48.16.86.86,0,0,1-.71-.14l0,0,.08,0a.84.84,0,0,0,.56,0,3.17,3.17,0,0,0,.38-.18,2.52,2.52,0,0,1,1.57-.41,3.08,3.08,0,0,0,1.37-.27,4.54,4.54,0,0,1,.74-.23,3.58,3.58,0,0,0,.09.45A2.86,2.86,0,0,0,41,31.05Zm-3.49,2.11-.06,0s0,0,0,0,.06-.06.07-.06l4.33-2a3.42,3.42,0,0,0,.17.4Zm4.2-.64a3,3,0,0,1-1.16.69,2.46,2.46,0,0,0-1.29.8,1.51,1.51,0,0,1-.38.33.81.81,0,0,1-.71.14l0,0h.08a.8.8,0,0,0,.53-.2,1.76,1.76,0,0,0,.28-.31,2.63,2.63,0,0,1,1.3-1,2.85,2.85,0,0,0,1.16-.77,5.13,5.13,0,0,1,.6-.5,2.49,2.49,0,0,0,.25.38A3.81,3.81,0,0,0,41.66,32.52Zm-2.42,3.29s-.07.06-.09,0,0-.08,0-.09l3.24-3.5.31.31Zm3.64-2.2a3,3,0,0,1-.81,1.07,2.63,2.63,0,0,0-.89,1.24,1.7,1.7,0,0,1-.22.45.83.83,0,0,1-.59.4h-.06l.07,0a.83.83,0,0,0,.42-.39,2.8,2.8,0,0,0,.14-.39,2.57,2.57,0,0,1,.82-1.4,2.94,2.94,0,0,0,.78-1.16,4.56,4.56,0,0,1,.36-.69,3.19,3.19,0,0,0,.38.26A3,3,0,0,0,42.88,33.61Zm-1,4s0,.08-.06.07,0-.08,0-.1l1.65-4.47a2.83,2.83,0,0,0,.4.17Zm2.19-2.12a2.5,2.5,0,0,0-.35,1.48,1.7,1.7,0,0,1,0,.5.85.85,0,0,1-.4.6s0,0-.05,0l.05-.06a.81.81,0,0,0,.24-.51,2.18,2.18,0,0,0,0-.42,2.59,2.59,0,0,1,.23-1.61A3,3,0,0,0,44,34.08a4.19,4.19,0,0,1,.07-.78,3.12,3.12,0,0,0,.44.09,3.53,3.53,0,0,0-.12.75A3.13,3.13,0,0,1,44.09,35.45ZM45,38.18s0,.09,0,.09,0-.08,0-.09l-.18-4.76h.43Zm1-4.13a3,3,0,0,1,.19,1.33,2.53,2.53,0,0,0,.25,1.5,1.94,1.94,0,0,1,.16.48.86.86,0,0,1-.14.71l0,0a.24.24,0,0,1,0-.08.84.84,0,0,0,0-.56,3.17,3.17,0,0,0-.18-.38,2.52,2.52,0,0,1-.41-1.57,3.08,3.08,0,0,0-.27-1.37,4.54,4.54,0,0,1-.23-.74,3.58,3.58,0,0,0,.45-.09A3.34,3.34,0,0,0,46.05,34.05Zm2.11,3.49s0,.09,0,.1-.06-.06-.06-.07l-2-4.33a3.42,3.42,0,0,0,.4-.17Zm-.64-4.2a3,3,0,0,1,.69,1.16,2.46,2.46,0,0,0,.8,1.29,1.65,1.65,0,0,1,.33.37.83.83,0,0,1,.14.72s0,0,0,0a.22.22,0,0,1,0-.08.8.8,0,0,0-.2-.53,1.76,1.76,0,0,0-.31-.28,2.63,2.63,0,0,1-1-1.3,2.85,2.85,0,0,0-.77-1.16,5.13,5.13,0,0,1-.5-.6,2.49,2.49,0,0,0,.38-.25A3.81,3.81,0,0,0,47.52,33.34Zm3.29,2.42,0,0a.05.05,0,0,1,0,.05s-.08,0-.09,0l-3.5-3.24.31-.31Zm-2.2-3.64a3,3,0,0,1,1.07.81,2.63,2.63,0,0,0,1.24.89,1.7,1.7,0,0,1,.45.22.84.84,0,0,1,.4.6.07.07,0,0,1,0,0l0-.07a.83.83,0,0,0-.39-.42,2.8,2.8,0,0,0-.39-.14,2.57,2.57,0,0,1-1.4-.82,2.94,2.94,0,0,0-1.16-.78,5.7,5.7,0,0,1-.69-.36,3.19,3.19,0,0,0,.26-.38A3,3,0,0,0,48.61,32.12Zm4,1s.08,0,.07.06-.08,0-.1,0l-4.47-1.65a2.83,2.83,0,0,0,.17-.4Zm-3.43-2.52a3.13,3.13,0,0,1,1.31.33,2.5,2.5,0,0,0,1.48.35,1.7,1.7,0,0,1,.5,0,.85.85,0,0,1,.6.4.13.13,0,0,1,0,0l-.06,0a.81.81,0,0,0-.51-.24,2.18,2.18,0,0,0-.42,0,2.59,2.59,0,0,1-1.61-.23A3,3,0,0,0,49.08,31a4.19,4.19,0,0,1-.78-.07,3.12,3.12,0,0,0,.09-.44A3.53,3.53,0,0,0,49.14,30.58Zm4-.54-4.76.18v-.43l4.76.17h0s.09,0,.09,0S53.19,30,53.18,30Z"/><path id="loweyecontour" class="cls-5" d="M46.14,29.29a.68.68,0,0,0-.58.3,1,1,0,0,0,1.21,0,.92.92,0,0,0-.63-.27Zm0,.05c.22,0,.43.1.46.2a.67.67,0,0,1-.92.05.52.52,0,0,1,.46-.25Z"/><path id="uppalpebra" class="cls-4" d="M46.18,29.13a.7.7,0,0,0-.56.2.64.64,0,0,1-.26.13s0,.1,0,.08a2,2,0,0,0,.31-.21.67.67,0,0,1,.46-.12c.46,0,.72.38.77.35s-.26-.43-.77-.43Z"/><path id="eyebrow_nose" data-name="eyebrow nose" class="cls-4" d="M47.1,29.28a1.32,1.32,0,0,0-1.74-.2.92.92,0,0,0-.19.43,1.25,1.25,0,0,0,.27.93.18.18,0,0,0-.11,0,1.9,1.9,0,0,1-.21-1.17A2.45,2.45,0,0,1,45.2,29a1.22,1.22,0,0,1,1.9.25Z"/><circle id="pupil" class="cls-4" cx="46.13" cy="29.54" r="0.23"/><path id="lowpalpebra" class="cls-4" d="M46.8,29.69a1,1,0,0,1-1.13.16c-.26-.16-.26-.21-.21-.21s.1.05.31.16a1.25,1.25,0,0,0,1-.11Z"/><path class="cls-4" d="M44.49,30.46a.24.24,0,0,0-.19.23.23.23,0,0,0,.23.23.23.23,0,0,0,.19-.1.55.55,0,0,0,.28.08h0a.55.55,0,0,0,.28-.08.22.22,0,0,0,.18.1.23.23,0,0,0,0-.46.16.16,0,0,1,0,.3.16.16,0,0,1-.16-.15.37.37,0,0,1-.31.21.37.37,0,0,1-.32-.21.16.16,0,0,1-.16.15.16.16,0,0,1,0-.3Z"/><path class="cls-4" d="M44.74,31.14c-.26,0-.36.24-.59.39a3.25,3.25,0,0,0,.41-.26c.18-.1.33,0,.44,0h0c.1,0,.26-.13.43,0a3.26,3.26,0,0,0,.42.26c-.23-.15-.34-.39-.6-.39a.69.69,0,0,0-.25.08h0A.79.79,0,0,0,44.74,31.14Z"/><path class="cls-4" d="M44.65,31.45a1.41,1.41,0,0,0-.42.08c.46-.1.56,0,.77,0h0c.2,0,.31-.15.77,0a1.4,1.4,0,0,0-.77-.05h0a2.53,2.53,0,0,0-.35,0Z"/><path class="cls-4" d="M44.25,31.53h-.1c.54,0,.28.36.85.36h0c.56,0,.31-.31.85-.36-.57-.05-.39.28-.85.28h0c-.44,0-.3-.29-.75-.28Z"/><path id="eyebrow_nose-2" data-name="eyebrow nose" class="cls-4" d="M42.93,29.28a1.32,1.32,0,0,1,1.74-.2.92.92,0,0,1,.19.43,1.25,1.25,0,0,1-.27.93.18.18,0,0,1,.11,0,1.9,1.9,0,0,0,.21-1.17,2.45,2.45,0,0,0-.08-.29,1.22,1.22,0,0,0-1.9.25Z"/><path id="uppalpebra-2" data-name="uppalpebra" class="cls-4" d="M43.85,29.13a.7.7,0,0,1,.56.2.64.64,0,0,0,.26.13s0,.1-.05.08a2,2,0,0,1-.31-.21.67.67,0,0,0-.46-.12c-.46,0-.72.38-.77.35s.26-.43.77-.43Z"/><path id="loweyecontour-2" data-name="loweyecontour" class="cls-5" d="M43.83,29.29a.67.67,0,0,0-.57.3,1,1,0,0,0,1.21,0,.93.93,0,0,0-.64-.27Zm0,.05c.22,0,.43.1.46.2a.67.67,0,0,1-.92.05.52.52,0,0,1,.46-.25Z"/><circle id="pupil-2" data-name="pupil" class="cls-4" cx="43.86" cy="29.54" r="0.23"/><path id="lowpalpebra-2" data-name="lowpalpebra" class="cls-4" d="M43.23,29.69a1,1,0,0,0,1.13.16c.26-.16.26-.21.21-.21s-.1.05-.31.16a1.25,1.25,0,0,1-1-.11Z"/></g></svg>