<svg xmlns="http://www.w3.org/2000/svg" xmlns:xlink="http://www.w3.org/1999/xlink" viewBox="0 0 90 60"><defs><style>.cls-1{fill:none;}.cls-2{fill:#c6c7c8;}.cls-3{clip-path:url(#clip-path);}.cls-4{fill:#74acdf;}.cls-5{fill:#fff;}.cls-6,.cls-8{fill:#f6b40e;stroke:#85340a;}.cls-6{stroke-width:1.11px;}.cls-7{fill:#85340a;}.cls-8{stroke-width:1.5px;}.cls-9{fill:#843511;}</style><clipPath id="clip-path"><rect class="cls-1" width="90" height="60"/></clipPath></defs><title>argentina</title><g id="Back"><rect class="cls-2" width="90" height="60"/></g><g id="Boutons"><g class="cls-3"><rect class="cls-4" x="-3" width="96" height="60"/><rect class="cls-5" x="-3" y="20" width="96" height="20"/><g id="rays"><path id="ray1" class="cls-6" d="M44.62,30.16,48,37.6s.05.14.15.1,0-.18,0-.18l-2.84-7.68m-.08,2.9c0,1.13.65,1.75.56,2.76a3.64,3.64,0,0,0,.59,2c.13.39-.14.62,0,.68s.37-.25.29-.81-.51-.73-.41-2-.51-1.52-.36-2.65"/><path id="ray1-2" data-name="ray1" class="cls-6" d="M44.59,30l.31,8.18s0,.15.1.15.1-.15.1-.15L45.41,30m-1.18,2.64c-.47,1-.07,1.87-.54,2.77a3.59,3.59,0,0,0-.21,2.05c0,.42-.37.53-.28.63s.44-.1.57-.65-.19-.86.38-2,.11-1.6.68-2.58"/><path id="ray1-3" data-name="ray1" class="cls-6" d="M44.62,29.84l-2.85,7.68s-.05.14,0,.18.15-.1.15-.1l3.42-7.44m-2.11,2c-.82.77-.77,1.7-1.55,2.35a3.64,3.64,0,0,0-1,1.81c-.19.37-.54.35-.5.47s.44.08.78-.37.15-.87,1.1-1.67.71-1.44,1.61-2.13"/><path id="ray1-4" data-name="ray1" class="cls-6" d="M44.71,29.71l-5.57,6s-.11.11,0,.18.18,0,.18,0l6-5.57m-2.71,1c-1.06.4-1.37,1.28-2.33,1.58a3.55,3.55,0,0,0-1.6,1.3c-.31.27-.63.12-.64.24s.37.25.86,0,.47-.75,1.65-1.13,1.22-1.05,2.31-1.34"/><path id="ray2" class="cls-7" d="M45.52,32.93c0,1.09.67,1.57.55,2.56.26-.79-.38-1.39-.34-2.55m-.92-2.85,2.34,5.11-2-5.27"/><path id="ray2-2" data-name="ray2" class="cls-7" d="M44.36,32.9c-.37,1,0,1.71-.47,2.58.54-.62.18-1.43.66-2.48m.24-3L45,35.63,45.2,30"/><path id="ray2-3" data-name="ray2" class="cls-7" d="M43.29,32.44c-.73.8-.63,1.58-1.42,2.19.75-.36.72-1.24,1.57-2m1.36-2.66-2,5.27,2.34-5.11"/><path id="ray2-4" data-name="ray2" class="cls-7" d="M42.49,31.6c-1,.46-1.19,1.22-2.15,1.49.82-.06,1.14-.88,2.22-1.29m2.28-1.94L41,34l4.11-3.82"/></g><g id="rays-2" data-name="rays"><path id="ray1-5" data-name="ray1" class="cls-6" d="M44.84,29.62,37.4,33s-.14.05-.1.15.18,0,.18,0l7.68-2.84m-2.9-.08c-1.13,0-1.75.65-2.76.56a3.64,3.64,0,0,0-2,.59c-.39.13-.62-.14-.68,0s.25.37.81.29.73-.51,2-.41,1.52-.51,2.65-.36"/><path id="ray1-6" data-name="ray1" class="cls-6" d="M45,29.59l-8.18.31s-.15,0-.15.1.15.1.15.1l8.18.31m-2.64-1.18c-1-.47-1.87-.07-2.77-.54a3.59,3.59,0,0,0-2.05-.21c-.42,0-.53-.37-.63-.28s.1.44.65.57.86-.19,2,.38,1.6.11,2.58.68"/><path id="ray1-7" data-name="ray1" class="cls-6" d="M45.16,29.62l-7.68-2.85s-.14-.05-.18,0,.1.15.1.15l7.44,3.42m-2-2.11c-.77-.82-1.7-.77-2.35-1.55a3.64,3.64,0,0,0-1.81-1c-.37-.19-.35-.54-.47-.5s-.08.44.37.78.87.15,1.67,1.1,1.44.71,2.13,1.61"/><path id="ray1-8" data-name="ray1" class="cls-6" d="M45.29,29.71l-6-5.57s-.11-.11-.18,0,0,.18,0,.18l5.57,6m-1-2.71c-.4-1.06-1.28-1.37-1.58-2.33a3.55,3.55,0,0,0-1.3-1.6c-.27-.31-.12-.63-.24-.64s-.25.37,0,.86.75.47,1.13,1.65,1.05,1.22,1.34,2.31"/><path id="ray2-5" data-name="ray2" class="cls-7" d="M42.07,30.52c-1.09.05-1.57.67-2.56.55.79.26,1.39-.38,2.55-.34m2.85-.92L39.8,32.15l5.27-2"/><path id="ray2-6" data-name="ray2" class="cls-7" d="M42.1,29.36c-1-.37-1.71,0-2.58-.47.62.54,1.43.18,2.48.66m3,.24L39.37,30l5.62.2"/><path id="ray2-7" data-name="ray2" class="cls-7" d="M42.56,28.29c-.8-.73-1.58-.63-2.19-1.42.36.75,1.24.72,2,1.57m2.66,1.36-5.27-2,5.11,2.34"/><path id="ray2-8" data-name="ray2" class="cls-7" d="M43.4,27.49c-.46-1-1.22-1.19-1.49-2.15.06.82.88,1.14,1.29,2.22m1.94,2.28L41,26l3.82,4.11"/></g><g id="rays-3" data-name="rays"><path id="ray1-9" data-name="ray1" class="cls-6" d="M45.38,29.84,42,22.4s-.05-.14-.15-.1,0,.18,0,.18l2.84,7.68m.08-2.9c0-1.13-.65-1.75-.56-2.76a3.64,3.64,0,0,0-.59-2c-.13-.39.14-.62,0-.68s-.37.25-.29.81.51.73.41,2,.51,1.52.36,2.65"/><path id="ray1-10" data-name="ray1" class="cls-6" d="M45.41,30l-.31-8.18s0-.15-.1-.15-.1.15-.1.15L44.59,30m1.18-2.64c.47-1,.07-1.87.54-2.77a3.59,3.59,0,0,0,.21-2.05c0-.42.37-.53.28-.63s-.44.1-.57.65.19.86-.38,2-.11,1.6-.68,2.58"/><path id="ray1-11" data-name="ray1" class="cls-6" d="M45.38,30.16l2.85-7.68s.05-.14,0-.18-.15.1-.15.1l-3.42,7.44m2.11-2c.82-.77.77-1.7,1.55-2.35a3.64,3.64,0,0,0,1-1.81c.19-.37.54-.35.5-.47s-.44-.08-.78.37-.15.87-1.1,1.67-.71,1.44-1.61,2.13"/><path id="ray1-12" data-name="ray1" class="cls-6" d="M45.29,30.29l5.57-6s.11-.11,0-.18-.18,0-.18,0l-6,5.57m2.71-1c1.06-.4,1.37-1.28,2.33-1.58a3.55,3.55,0,0,0,1.6-1.3c.31-.27.63-.12.64-.24s-.37-.25-.86,0-.47.75-1.65,1.13-1.22,1.05-2.31,1.34"/><path id="ray2-9" data-name="ray2" class="cls-7" d="M44.48,27.07c0-1.09-.67-1.57-.55-2.56-.26.79.38,1.39.34,2.55m.92,2.85L42.85,24.8l2,5.27"/><path id="ray2-10" data-name="ray2" class="cls-7" d="M45.64,27.1c.37-1,0-1.71.47-2.58-.54.62-.18,1.43-.66,2.48m-.24,3L45,24.37,44.8,30"/><path id="ray2-11" data-name="ray2" class="cls-7" d="M46.71,27.56c.73-.8.63-1.58,1.42-2.19-.75.36-.72,1.24-1.57,2M45.2,30.07l2-5.27-2.34,5.11"/><path id="ray2-12" data-name="ray2" class="cls-7" d="M47.51,28.4c1-.46,1.19-1.22,2.15-1.49-.82.06-1.14.88-2.22,1.29m-2.28,1.94L49,26l-4.11,3.82"/></g><g id="rays-4" data-name="rays"><path id="ray1-13" data-name="ray1" class="cls-6" d="M45.16,30.38,52.6,27s.14-.05.1-.15-.18,0-.18,0l-7.68,2.84m2.9.08c1.13,0,1.75-.65,2.76-.56a3.64,3.64,0,0,0,2-.59c.39-.13.62.14.68,0s-.25-.37-.81-.29-.73.51-2,.41-1.52.51-2.65.36"/><path id="ray1-14" data-name="ray1" class="cls-6" d="M45,30.41l8.18-.31s.15,0,.15-.1-.15-.1-.15-.1L45,29.59m2.64,1.18c1,.47,1.87.07,2.77.54a3.59,3.59,0,0,0,2.05.21c.42,0,.53.37.63.28s-.1-.44-.65-.57-.86.19-2-.38-1.6-.11-2.58-.68"/><path id="ray1-15" data-name="ray1" class="cls-6" d="M44.84,30.38l7.68,2.85s.14.05.18,0-.1-.15-.1-.15l-7.44-3.42m2,2.11c.77.82,1.7.77,2.35,1.55a3.64,3.64,0,0,0,1.81,1c.37.19.35.54.47.5s.08-.44-.37-.78-.87-.15-1.67-1.1-1.44-.71-2.13-1.61"/><path id="ray1-16" data-name="ray1" class="cls-6" d="M44.71,30.29l6,5.57s.11.11.18,0,0-.18,0-.18l-5.57-6m1,2.71c.4,1.06,1.28,1.37,1.58,2.33a3.55,3.55,0,0,0,1.3,1.6c.27.31.12.63.24.64s.25-.37,0-.86-.75-.47-1.13-1.65-1.05-1.22-1.34-2.31"/><path id="ray2-13" data-name="ray2" class="cls-7" d="M47.93,29.48c1.09-.05,1.57-.67,2.56-.55-.79-.26-1.39.38-2.55.34m-2.85.92,5.11-2.34-5.27,2"/><path id="ray2-14" data-name="ray2" class="cls-7" d="M47.9,30.64c1,.37,1.71,0,2.58.47-.62-.54-1.43-.18-2.48-.66m-3-.24L50.63,30,45,29.8"/><path id="ray2-15" data-name="ray2" class="cls-7" d="M47.44,31.71c.8.73,1.58.63,2.19,1.42-.36-.75-1.24-.72-2-1.57M44.93,30.2l5.27,2-5.11-2.34"/><path id="ray2-16" data-name="ray2" class="cls-7" d="M46.6,32.51c.46,1,1.22,1.19,1.49,2.15-.06-.82-.88-1.14-1.29-2.22m-1.94-2.28L49,34l-3.82-4.11"/></g><circle class="cls-8" cx="45" cy="30" r="3.33"/><path id="loweyecontour" class="cls-9" d="M46.14,29.29a.68.68,0,0,0-.58.3,1,1,0,0,0,1.21,0,.92.92,0,0,0-.63-.27Zm0,.05c.22,0,.43.1.46.2a.67.67,0,0,1-.92.05.52.52,0,0,1,.46-.25Z"/><path id="uppalpebra" class="cls-7" d="M46.18,29.13a.7.7,0,0,0-.56.2.64.64,0,0,1-.26.13s0,.1,0,.08a2,2,0,0,0,.31-.21.67.67,0,0,1,.46-.12c.46,0,.72.38.77.35s-.26-.43-.77-.43Z"/><path id="eyebrow_nose" data-name="eyebrow nose" class="cls-7" d="M47.1,29.28a1.32,1.32,0,0,0-1.74-.2.92.92,0,0,0-.19.43,1.25,1.25,0,0,0,.27.93.18.18,0,0,0-.11,0,1.9,1.9,0,0,1-.21-1.17A2.45,2.45,0,0,1,45.2,29a1.22,1.22,0,0,1,1.9.25Z"/><circle id="pupil" class="cls-7" cx="46.13" cy="29.54" r="0.23"/><path id="lowpalpebra" class="cls-7" d="M46.8,29.69a1,1,0,0,1-1.13.16c-.26-.16-.26-.21-.21-.21s.1.05.31.16a1.25,1.25,0,0,0,1-.11Z"/><path class="cls-7" d="M44.49,30.46a.24.24,0,0,0-.19.23.23.23,0,0,0,.23.23.23.23,0,0,0,.19-.1.55.55,0,0,0,.28.08h0a.55.55,0,0,0,.28-.08.22.22,0,0,0,.18.1.23.23,0,0,0,0-.46.16.16,0,0,1,0,.3.16.16,0,0,1-.16-.15.37.37,0,0,1-.31.21.37.37,0,0,1-.32-.21.16.16,0,0,1-.16.15.16.16,0,0,1,0-.3Z"/><path class="cls-7" d="M44.74,31.14c-.26,0-.36.24-.59.39a3.25,3.25,0,0,0,.41-.26c.18-.1.33,0,.44,0h0c.1,0,.26-.13.43,0a3.26,3.26,0,0,0,.42.26c-.23-.15-.34-.39-.6-.39a.69.69,0,0,0-.25.08h0A.79.79,0,0,0,44.74,31.14Z"/><path class="cls-7" d="M44.65,31.45a1.41,1.41,0,0,0-.42.08c.46-.1.56,0,.77,0h0c.2,0,.31-.15.77,0a1.4,1.4,0,0,0-.77-.05h0a2.53,2.53,0,0,0-.35,0Z"/><path class="cls-7" d="M44.25,31.53h-.1c.54,0,.28.36.85.36h0c.56,0,.31-.31.85-.36-.57-.05-.39.28-.85.28h0c-.44,0-.3-.29-.75-.28Z"/><path class="cls-7" d="M45.46,32.36A.45.45,0,0,0,45,31.9a.46.46,0,0,0-.46.46.47.47,0,0,1,.92,0Z"/><path id="eyebrow_nose-2" data-name="eyebrow nose" class="cls-7" d="M42.93,29.28a1.32,1.32,0,0,1,1.74-.2.92.92,0,0,1,.19.43,1.25,1.25,0,0,1-.27.93.18.18,0,0,1,.11,0,1.9,1.9,0,0,0,.21-1.17,2.45,2.45,0,0,0-.08-.29,1.22,1.22,0,0,0-1.9.25Z"/><path id="uppalpebra-2" data-name="uppalpebra" class="cls-7" d="M43.85,29.13a.7.7,0,0,1,.56.2.64.64,0,0,0,.26.13s0,.1-.05.08a2,2,0,0,1-.31-.21.67.67,0,0,0-.46-.12c-.46,0-.72.38-.77.35s.26-.43.77-.43Z"/><path id="loweyecontour-2" data-name="loweyecontour" class="cls-9" d="M43.83,29.29a.67.67,0,0,0-.57.3,1,1,0,0,0,1.21,0,.93.93,0,0,0-.64-.27Zm0,.05c.22,0,.43.1.46.2a.67.67,0,0,1-.92.05.52.52,0,0,1,.46-.25Z"/><circle id="pupil-2" data-name="pupil" class="cls-7" cx="43.86" cy="29.54" r="0.23"/><path id="lowpalpebra-2" data-name="lowpalpebra" class="cls-7" d="M43.23,29.69a1,1,0,0,0,1.13.16c.26-.16.26-.21.21-.21s-.1.05-.31.16a1.25,1.25,0,0,1-1-.11Z"/></g></g></svg>