<svg xmlns="http://www.w3.org/2000/svg" viewBox="0 0 90 60"><defs><style>.cls-1{fill:#c6c7c8;}.cls-2{fill:#012169;}.cls-3{fill:#fff;}.cls-4{fill:#e4002b;}.cls-5{fill:red;}</style></defs><title>australia</title><g id="Back"><rect class="cls-1" width="90" height="60"/></g><g id="Boutons"><path id="path1534" class="cls-2" d="M0,0H90V60H0Z"/><g id="Star_Alpha_Crucis" data-name="Star Alpha Crucis"><polygon id="Star7" class="cls-3" points="68 45.71 68.83 48.28 71.35 47.33 69.86 49.58 72.18 50.95 69.49 51.19 69.86 53.86 68 51.91 66.14 53.86 66.51 51.19 63.82 50.95 66.14 49.58 64.65 47.33 67.17 48.28 68 45.71"/></g><g id="Star_Beta_Crucis" data-name="Star Beta Crucis"><polygon id="Star7-2" data-name="Star7" class="cls-3" points="53 21.96 53.83 24.53 56.35 23.58 54.86 25.83 57.18 27.2 54.49 27.44 54.86 30.11 53 28.16 51.14 30.11 51.51 27.44 48.82 27.2 51.14 25.83 49.65 23.58 52.17 24.53 53 21.96"/></g><g id="Star_Gamma_Crucis" data-name="Star Gamma Crucis"><polygon id="Star7-3" data-name="Star7" class="cls-3" points="68 5.71 68.83 8.28 71.35 7.33 69.86 9.58 72.18 10.95 69.49 11.19 69.86 13.86 68 11.9 66.14 13.86 66.51 11.19 63.82 10.95 66.14 9.58 64.65 7.33 67.17 8.28 68 5.71"/></g><g id="Star_Delta_Crucis" data-name="Star Delta Crucis"><polygon id="Star7-4" data-name="Star7" class="cls-3" points="81.33 17.96 82.16 20.53 84.68 19.58 83.19 21.83 85.51 23.2 82.82 23.44 83.19 26.11 81.33 24.16 79.47 26.11 79.84 23.44 77.16 23.2 79.48 21.83 77.98 19.58 80.51 20.53 81.33 17.96"/></g><g id="Star_Epsilon_Crucis" data-name="Star Epsilon Crucis"><polygon id="Star5" class="cls-3" points="74 30 74.65 31.6 76.38 31.73 75.06 32.84 75.47 34.52 74 33.61 72.53 34.52 72.94 32.84 71.62 31.73 73.35 31.6 74 30"/></g><path id="White_Cross" data-name="White Cross" class="cls-3" d="M18.75,0h7.5V10H45V20H26.25V30h-7.5V20H0V10H18.75Z"/><path id="White_Diagonal" data-name="White Diagonal" class="cls-3" d="M0,0H5L45,26.65V30H40L0,3.35Z"/><g id="White_Diagonal_Flipped" data-name="White Diagonal Flipped"><path id="White_Diagonal-2" data-name="White Diagonal" class="cls-3" d="M45,0H40L0,26.65V30H5L45,3.35Z"/></g><path id="Red_Cross" data-name="Red Cross" class="cls-4" d="M20.25,0h4.5V12H45v6H24.75V30h-4.5V18H0V12H20.25Z"/><path id="Red_Diagonals" data-name="Red Diagonals" class="cls-5" d="M0,0,15,10H11.65L0,2.24ZM45,0H41.65l-15,10H30Z"/><g id="Red_Diagonals_Rotated" data-name="Red Diagonals Rotated"><path id="Red_Diagonals-2" data-name="Red Diagonals" class="cls-5" d="M45,30,30,20h3.35L45,27.76ZM0,30H3.35l15-10H15Z"/></g><path id="path1640" class="cls-4" d="M37.53,25l-7.34-4.9H33.4l5.78,3.85L45,27.76v1.06a5.39,5.39,0,0,1-.05,1.06S41.57,27.67,37.53,25Z"/><path id="path1642" class="cls-4" d="M34.16,5,41.56.08H44.8L37.4,5,30,10H26.76Z"/><path id="path1644" class="cls-4" d="M5.85,6.1.06,2.23V.07L7.44,5c4.06,2.71,7.4,4.94,7.41,5s-.7,0-1.59,0H11.65Z"/><path id="path1646" class="cls-4" d="M7.55,25,15,20.07h3.24L10.79,25,3.39,30H.15Z"/><g id="Commonwealth_Star" data-name="Commonwealth Star"><polygon id="Star7-5" data-name="Star7" class="cls-3" points="22.5 36 24.24 41.4 29.54 39.39 26.4 44.11 31.27 47 25.63 47.49 26.41 53.11 22.5 49 18.59 53.11 19.37 47.49 13.73 47 18.6 44.11 15.46 39.39 20.76 41.4 22.5 36"/></g></g></svg>