<svg xmlns="http://www.w3.org/2000/svg" viewBox="0 0 90 60"><defs><style>.cls-1{fill:#009b3a;}.cls-2{fill:#fedf00;}.cls-3{fill:#002776;}.cls-4{fill:#fff;}</style></defs><title>brazil</title><g id="Flags"><rect class="cls-1" width="90" height="60"/><polygon class="cls-2" points="45 7.29 9.43 30 45 52.71 80.57 30 45 7.29"/><path class="cls-3" d="M36.43,23.57A36.28,36.28,0,0,1,59.85,32.1,14.52,14.52,0,0,0,60,30a15,15,0,0,0-28.72-6.06A36.4,36.4,0,0,1,36.43,23.57Z"/><path class="cls-3" d="M36.43,25.71a34.29,34.29,0,0,0-5.95.52,15,15,0,0,0,28.84,8.25A34.15,34.15,0,0,0,36.43,25.71Z"/><path class="cls-4" d="M31.28,23.94a13.79,13.79,0,0,0-.8,2.29,34.27,34.27,0,0,1,28.84,8.25,14.41,14.41,0,0,0,.53-2.38,36.35,36.35,0,0,0-28.57-8.16Z"/></g></svg>