<svg xmlns="http://www.w3.org/2000/svg" viewBox="0 0 90 60"><defs><style>.cls-1{fill:#c6c7c8;}.cls-2{fill:#171796;}.cls-3,.cls-6{fill:#fff;}.cls-4{fill:red;}.cls-5{fill:#0093dd;}.cls-6{stroke:#000;stroke-width:0.1px;}.cls-7{fill:#f7db17;}</style></defs><title>croatia</title><g id="Back"><rect class="cls-1" width="90" height="60"/></g><g id="Boutons"><rect class="cls-2" width="90" height="60"/><rect class="cls-3" width="90" height="40"/><rect class="cls-4" width="90" height="20"/><path class="cls-4" d="M45,45.52h0A11.7,11.7,0,0,0,56.67,33.85V20H33.34V33.85A11.7,11.7,0,0,0,45,45.52Z"/><path class="cls-3" d="M45,45.33h0A11.47,11.47,0,0,0,56.44,33.89V20.22H33.56V33.89A11.48,11.48,0,0,0,45,45.33Z"/><path class="cls-4" d="M38.39,20.65H34v4.84h4.4Z"/><path class="cls-4" d="M38.39,30.32h4.4V25.49h-4.4Z"/><path class="cls-4" d="M34,33.86a11.07,11.07,0,0,0,.08,1.3h4.32V30.32H34Z"/><path class="cls-4" d="M47.2,30.32H42.79v4.84H47.2Z"/><path class="cls-4" d="M47.2,40h4.4V35.16H47.2Z"/><path class="cls-4" d="M51.6,42.65A11.08,11.08,0,0,0,54.11,40H51.6Z"/><path class="cls-4" d="M38.39,40h4.4V35.16h-4.4Z"/><path class="cls-4" d="M35.87,40a11.13,11.13,0,0,0,2.52,2.65V40Z"/><path class="cls-4" d="M45.76,44.84a11.34,11.34,0,0,0,1.44-.2V40H42.79v4.64a11.44,11.44,0,0,0,1.43.2,13.19,13.19,0,0,0,1.54,0Z"/><path class="cls-4" d="M55.92,35.16a11.2,11.2,0,0,0,.08-1.3V30.33H51.6v4.83Z"/><path class="cls-4" d="M47.2,30.32h4.4V25.49H47.2Z"/><path class="cls-4" d="M47.2,20.65H42.79v4.84H47.2Z"/><path class="cls-4" d="M56,25.49V20.65H51.6v4.84Z"/><path class="cls-3" d="M56.25,19.85,59,13.66,56.9,10.31l-3.45,1.27L51,8.82l-3.19,1.82L45,8.32l-2.84,2.32L39,8.82l-2.42,2.76L33.1,10.31,31,13.67l2.73,6.19a27.31,27.31,0,0,1,22.5,0Z"/><path class="cls-5" d="M36.63,11.86h0L33.2,10.6l-1.91,3.08L32,15.35l1.86,4.21a27.89,27.89,0,0,1,4.32-1.49l-1.57-6.21Z"/><path class="cls-6" d="M36.43,14.91a1.66,1.66,0,0,1,.19.77,1.67,1.67,0,0,1-3.31.32,1.68,1.68,0,0,0,3.14-.82,2.45,2.45,0,0,0,0-.27Z"/><polygon points="34.9 12.6 34.89 12.63 34.78 13.22 35.24 13.63 35.26 13.64 35.23 13.65 34.65 13.85 34.53 14.45 34.53 14.48 34.51 14.46 34.05 14.06 33.47 14.26 33.44 14.27 33.45 14.24 33.56 13.64 33.1 13.24 33.08 13.22 33.11 13.21 33.69 13.01 33.81 12.41 33.81 12.38 33.83 12.4 34.29 12.8 34.87 12.61 34.9 12.6"/><path class="cls-7" d="M34.2,13.45l.44.37.54-.18Z"/><path class="cls-7" d="M34.21,13.43l1,.19-.43-.38Z"/><path class="cls-7" d="M33.17,13.23l1,.19L33.71,13Z"/><path class="cls-7" d="M34.13,13.43l-1-.19.43.38Z"/><path class="cls-7" d="M34.19,13.4l.65-.75-.54.19Z"/><path class="cls-7" d="M33.49,14.2l.65-.75-.54.19Z"/><path class="cls-7" d="M34.15,13.47l-.65.74L34,14Z"/><path class="cls-7" d="M34.85,12.67l-.65.74.54-.18Z"/><path class="cls-7" d="M34.15,13.4l-.32-.93-.11.56Z"/><path class="cls-7" d="M34.49,14.41l-.32-.94-.11.56Z"/><path class="cls-7" d="M34.19,13.46l.32.94.11-.56Z"/><path class="cls-7" d="M33.85,12.46l.32.93.11-.56Z"/><path class="cls-2" d="M42.19,10.93h0L39,9.12l-2.39,2.74,1.57,6.21a26.83,26.83,0,0,1,4.52-.76l-.53-6.38Z"/><path class="cls-4" d="M37.81,16.52a28.9,28.9,0,0,1,4.78-.79l-.14-1.62a32.13,32.13,0,0,0-5,.84l.4,1.57Z"/><path class="cls-4" d="M37,13.4a33.12,33.12,0,0,1,5.3-.88l-.13-1.59a34,34,0,0,0-5.56.93Z"/><path class="cls-5" d="M47.83,10.93h0L45,8.62l-2.81,2.31.53,6.38q1.13-.09,2.28-.09c.77,0,1.54,0,2.29.09l.54-6.38Z"/><g id="lion"><path d="M45,13.8h0c0,.08-.1.14-.16.22s-.07.05-.05.1-.08.06-.09.13q-.11-.18-.24-.09c0-.07,0-.1-.13-.12a.28.28,0,0,1-.13,0s0,0-.05,0-.06,0,0,0l.24.38s0,0,0,.06l0,.12v0a.71.71,0,0,0-.2,0,.14.14,0,0,1-.11,0s0,0,0,0a.6.6,0,0,0,.17.44H44s0,0,0,0a.36.36,0,0,0,.24.22.23.23,0,0,0-.11.16.14.14,0,0,1-.06.13s0,0,0,0a.32.32,0,0,0,.27,0,.37.37,0,0,0-.06.25.28.28,0,0,0,.18,0,.28.28,0,0,0,0,.1.22.22,0,0,1,0,.1s0,0,0,0a.48.48,0,0,0,.27,0,.78.78,0,0,0,0,.22s0,0,0,0a.46.46,0,0,1,.15-.16.18.18,0,0,0,0,.07s0,.05,0,.1a0,0,0,0,0,0,0s.15-.12.17-.18a.33.33,0,0,1,.13.13s0,0,0,0a.82.82,0,0,0,0-.22.48.48,0,0,0,.27,0s0,0,0,0a.26.26,0,0,1,0-.11.64.64,0,0,0,0-.09.31.31,0,0,0,.19,0,.45.45,0,0,0-.07-.25.31.31,0,0,0,.27,0s0,0,0,0a.17.17,0,0,1-.07-.13.21.21,0,0,0-.1-.16A.38.38,0,0,0,46,15s0,0,0,0H45.8a.63.63,0,0,0,.18-.44s0,0,0,0a.11.11,0,0,1-.1,0,.71.71,0,0,0-.2,0v0l0-.12a0,0,0,0,0,0-.06L46,14s0-.05-.05,0l-.06,0a.21.21,0,0,1-.12,0c-.08,0-.13,0-.13.12s-.17,0-.24.09c0-.07,0-.14-.09-.13a.08.08,0,0,0,0-.11c-.06-.07-.14-.13-.2-.21Z"/><path class="cls-7" d="M45.74,14.21s0,0,0,0a0,0,0,0,0,0,.06,0,0,0,0,0,0,0h0s0,0,0-.06Z"/><path class="cls-7" d="M44.26,14.21s0,0,.05,0,0,0,0,.06a.05.05,0,0,1,0,0s0,0,0-.06Z"/><path class="cls-7" d="M45.6,14.48v0h0Z"/><path class="cls-7" d="M44.41,14.48l0,0h0A0,0,0,0,0,44.41,14.48Z"/><path class="cls-7" d="M45.68,14.39a4.92,4.92,0,0,0-.67,0l-.67,0s0,0,0,0l.67,0,.66,0s0,0,0,0Z"/><path class="cls-7" d="M44.33,14.36l.68,0a4.92,4.92,0,0,1,.67,0l0-.06h0s0,0,0-.08,0-.05.07,0a.05.05,0,0,1,0,0L45.9,14a.51.51,0,0,1-.17.07c-.08,0-.12,0-.11.09s0,0-.06,0-.16,0-.19.1,0,.06,0,0v-.06c0-.07,0-.09-.07-.07s0,0,0,0,0,0,0-.07,0,0,0,0l-.2-.21-.16.21a0,0,0,0,0,0,0,.09.09,0,0,0,0,.06s0,0,0,0-.06,0-.06.07a.13.13,0,0,0,0,.06c0,.06,0,.06-.05,0s-.1-.15-.2-.1-.06,0-.05,0,0-.08-.11-.09a.48.48,0,0,1-.18-.07l.13.2a0,0,0,0,1,0,0,.06.06,0,0,1,.07,0s0,.07,0,.08h0l0,0Z"/><path class="cls-7" d="M45.63,14.63h0s0,0,0,0l-.06.06h0a.17.17,0,0,0,.06-.06l0,0h-.09l-.06,0,0,0h0a.1.1,0,0,1,0,0l0,0h-.1s0,0,0,0l0,0h0l0,0h-.07a0,0,0,0,0,0,0l0,0h0s0,0,0,0v0h-.12s0,0,0,0h0s0,0,0,0h-.2l0,0h0l0,0h-.11v0h0s0,0,0,0a0,0,0,0,0,0,0h-.08l0,0s0,0,0,0h0s0,0,0,0,0,0,0,0h-.1a.05.05,0,0,1,0,0,.1.1,0,0,1,.05,0h0s0,0,0,0l-.07,0h-.08l0,0,.06.06s0,0,0,0h0l-.06-.06,0,0-.17,0a.59.59,0,0,1-.14,0l0,.06.06,0h0a.22.22,0,0,0,.05.12.1.1,0,0,0,0,0l0-.07a.3.3,0,0,1,0-.13h0a.23.23,0,0,0,0,.11.28.28,0,0,0,.09.1s0,0,0,0a.24.24,0,0,1-.12-.07.33.33,0,0,1,0-.12s-.05,0-.06,0a.09.09,0,0,1,0-.06.54.54,0,0,0,.14.34.14.14,0,0,0,.07.06s0,0,0,0h0a.09.09,0,0,1,.07,0s.07,0,.07.08h0s0-.05-.06-.07a.34.34,0,0,0-.12,0h-.13l0,0a.34.34,0,0,0,.1,0l.07,0,.05.05s0,0,0,0h0l0,0-.07,0-.1,0L44,15a.4.4,0,0,0,.25.21h0l.08,0h-.08a.14.14,0,0,0-.13.15h0a.24.24,0,0,1,.08-.06.14.14,0,0,1,.11,0h0a.14.14,0,0,0-.09,0,.39.39,0,0,0-.1.08.14.14,0,0,1-.06.11s0,0,0,0l.08,0h.08l-.08,0-.06,0a.36.36,0,0,0,.2,0h0l.05,0,0,0h0l-.06,0s0,0,0,0l0,0a.41.41,0,0,0,0,.09.14.14,0,0,0,0,.06.24.24,0,0,1,.06-.09.27.27,0,0,1,.1-.08h0s0,0,0,0a.39.39,0,0,0-.1.08.21.21,0,0,0-.06.1s0,0,0,0l.1-.09a.19.19,0,0,1,.12,0h0a.19.19,0,0,0-.11,0l-.11.1a.29.29,0,0,0,.16,0,.21.21,0,0,0,.07-.05l0,0,0,0a0,0,0,0,1,0,0s0,0,0,0l0,0,0,0h0a.18.18,0,0,0-.05.07,1,1,0,0,1,0,.17l.06,0,0-.07a.22.22,0,0,1,0-.08l.08-.05h0s0,0,0,0l-.07,0a.22.22,0,0,0-.05.08.16.16,0,0,1,0,.07l0,0h0l.08,0,0-.06h0s0,0,0,0a.18.18,0,0,1-.05.07l-.06,0a.32.32,0,0,0,.14,0s0-.05,0-.06l0,0s0,0,.05,0h0s0,0,0,0a.08.08,0,0,0,0,0l0,0s0,.07,0,.09a.55.55,0,0,0,0,.18l0-.06h0s0-.06,0-.1V16s0,0,0,0h0a.38.38,0,0,1,0,.1.25.25,0,0,0,0,.08l0,0a.14.14,0,0,0,0-.07V16s0,0,0,0h0a.17.17,0,0,1,0,.07.14.14,0,0,1,0,.06l.06,0s0,0,0-.07V16h0s0,0,0,0v.12a.08.08,0,0,0,0,.07.14.14,0,0,1,0,.08.24.24,0,0,0,0-.12A.2.2,0,0,0,45,16h0a.27.27,0,0,1,0,.12.38.38,0,0,1,0,.15.21.21,0,0,0,.1-.18s0,0,0,0h0s0,0,0,0a0,0,0,0,1,0,0v0h0l0,0a.43.43,0,0,0,0-.05.22.22,0,0,1,0-.08h0v0a.13.13,0,0,0,0,.06.14.14,0,0,0,0,.07h0l0,0a.17.17,0,0,0,0-.07.41.41,0,0,1,0-.11h0a.28.28,0,0,0,0,.09s0,.07,0,.1h0l0,.06a.55.55,0,0,0,0-.18s0-.07,0-.09l0,0,0,0a0,0,0,0,1,0,0h0s0,0,0,0l0,0s0,.05,0,.06a.31.31,0,0,0,.13,0l-.06,0,0-.07v0h0a.15.15,0,0,0,.05.06.21.21,0,0,0,.12,0l0,0a.16.16,0,0,1,0-.07.22.22,0,0,0,0-.08l-.07,0s0,0,0,0h0a.18.18,0,0,1,.07.05.14.14,0,0,1,.05.08.43.43,0,0,0,0,.07l0,0c0-.06,0-.11,0-.17s-.07-.09-.06-.1,0,0,.07,0a.31.31,0,0,0,.16,0,.47.47,0,0,0-.1-.1.17.17,0,0,0-.11,0h0a.19.19,0,0,1,.12,0l.09.09v0l-.06-.1a.39.39,0,0,0-.1-.08s0,0,0,0h0a.39.39,0,0,1,.1.08l.06.09a.14.14,0,0,0,0-.06.24.24,0,0,0-.06-.09s-.06,0-.06-.05h0l0,0,.06,0a.34.34,0,0,0,.2,0l-.07,0-.08,0h.09l.08,0s0,0,0,0a.24.24,0,0,1-.06-.11h0l-.09-.08a.14.14,0,0,0-.09,0h0a.15.15,0,0,1,.11,0s0,0,.08.06h0a.14.14,0,0,0-.13-.15s0,0,0,0,0,0,.07,0A.36.36,0,0,0,46,15l-.05,0-.11,0-.06,0-.05,0h0s0,0,0,0,0,0,0-.05l.07,0,.1,0,0,0h-.14l-.12,0s-.05,0-.05.07h0s0-.06.06-.08a.11.11,0,0,1,.07,0h0s0,0,0,0l.07-.06a.69.69,0,0,0,.14-.33l0,.05a.13.13,0,0,1-.06,0,.23.23,0,0,1-.06.12.21.21,0,0,1-.11.07s0,0,0,0a.28.28,0,0,0,.09-.1.23.23,0,0,0,0-.11h0a.31.31,0,0,1,0,.13l-.05.07.06,0a.33.33,0,0,0,0-.12h0a.18.18,0,0,0,.07,0l0-.06a.3.3,0,0,1-.13,0l-.17,0Z"/><path class="cls-7" d="M45.62,14.58c-.2,0-.41,0-.61,0l-.61,0v0h0l.57,0a4,4,0,0,1,.6,0s0,0,0,0Z"/><path class="cls-7" d="M44.41,14.56q.3,0,.6,0a4,4,0,0,1,.6,0v0h0a0,0,0,0,1,0,0s0,0,0,0l0,0,0-.05c-.22,0-.43,0-.65,0l-.65,0,0,.05,0,0a0,0,0,0,1,0,0s0,0,0,0h0v0Zm.91-.12s0,0,0,0a0,0,0,0,0,0,0s0,0,0,0A0,0,0,0,0,45.32,14.44Zm0,0h0l0,0,0,0Zm-.32,0a0,0,0,0,0,0,0s0,0,0,0a0,0,0,0,0,0,0S45,14.43,45,14.43Zm0,0,0,0h0S45,14.45,45,14.45Zm-.32,0a0,0,0,0,0,0,0s0,0,0,0a0,0,0,0,0,0,0S44.7,14.44,44.68,14.44Zm0,0h0l0,0,0,0Z"/><path d="M45,14.21a.05.05,0,0,0,0-.05s0,0,0,0,0,0,0,0a.07.07,0,0,0,0,0L45,14h0a.09.09,0,0,0,0,.06.1.1,0,0,0,.05,0s0,0,0,0a.05.05,0,0,0,0,0l0,.07Zm0,0s0,0,0,0l0,0s0,0,0,0l0,0s0,0,0,0l0,0,0,0Z"/><path d="M45.26,15.69l-.16.06s0,0,0,0h0l.15-.06h0S45.26,15.69,45.26,15.69Zm0-.1-.17.1h0s0,0,0,0l.17-.1h0Zm-.54,0,.18.1s0,0,0,0h0l-.18-.1s0,0,0,0Zm0,.1.15.06h0s0,0,0,0l-.15-.06h0Zm.07.13h.1s0,0,.06-.05v-.14h-.09a.09.09,0,0,1-.06-.06.14.14,0,0,1,0-.09s0,0,0,0a0,0,0,0,1,0,0,.14.14,0,0,0,0,.09s0,0,0,0l.1,0,.09,0a.09.09,0,0,0,.05,0,.06.06,0,0,0,0-.05s0,0,0,0H45s0,0,0,0h.12l0,0a.08.08,0,0,1,0,.07.18.18,0,0,1-.07,0H45v.14h0a.09.09,0,0,0,.06,0h0s0,0-.06,0l-.06,0h-.11Zm.1.06h.13s0,0,0,0h-.12a0,0,0,0,1,0,0Z"/><path d="M45.1,15l.12-.09.11,0h0l-.1,0-.12.08h0s0,0,0,0Zm-.18,0-.13-.09-.11,0h0s0,0,0,0l.12,0a.57.57,0,0,1,.13.1s0,0,0,0Zm-.07.3,0-.06.06,0h0s0,0,0,0l-.05.05,0,.06h0Zm.11-.51,0,.06a.28.28,0,0,1,0,.09V15L45,15a.1.1,0,0,1,0,0h0a.12.12,0,0,1,0,.1h0l0,0h0l-.07,0,0,0h0a.13.13,0,0,1,0-.05v0l-.06,0a.1.1,0,0,1-.05,0s0,0,0,0,0,0,0,0l0,0,.06,0a.23.23,0,0,1,.11,0l.09.06h.06l0,0s0,0,0-.06V14.9h0s0-.06,0-.08l0-.06s0,0,0,0Zm-.11.31L44.76,15l-.09,0v0l0,0h0l0,0,.07,0h0l0,0s0-.06,0-.08Zm.23-.3,0,.06s0,0,0,.08h0V15s0,0,0,.06l0,0h.06l.09-.06a.23.23,0,0,1,.11,0l.06,0,0,0s0,0,0,0,0,0,0,0a.1.1,0,0,1-.05,0l-.06,0v0l0,.05h0l0,0-.07,0h0l0,0h0a.12.12,0,0,1,0-.1h0a.1.1,0,0,1-.05,0s0,0,0-.07V14.9a.28.28,0,0,1,0-.09.21.21,0,0,1,0-.06h0s0,0,0,0Zm.28.21-.09,0-.09.06h0s0,0,0,.08l0,0h0l.07,0,0,0h0l0,0v0Z"/><path d="M45.26,15a.06.06,0,0,0-.06.06.07.07,0,0,0,.06.07.07.07,0,0,0,.07-.07A.07.07,0,0,0,45.26,15Zm0,0a0,0,0,0,0,0,0,0,0,0,0,0,0,0,0,0,0,0,0,.05,0A0,0,0,0,0,45.26,15Zm0,0a0,0,0,0,0,0,0s0,0,0,0a0,0,0,0,0,0,0S45.28,15,45.26,15Zm-.5,0a.07.07,0,0,1,.07.06.07.07,0,0,1-.07.07.07.07,0,0,1-.06-.07A.06.06,0,0,1,44.76,15Zm0,0a0,0,0,0,1,.05,0,0,0,0,0,1-.05,0,0,0,0,0,1,0,0A0,0,0,0,1,44.76,15Zm0,0s0,0,0,0a0,0,0,0,1,0,0s0,0,0,0A0,0,0,0,1,44.76,15Z"/></g><g id="lion-2" data-name="lion"><path d="M43.71,10.92l0,0-.16.22c-.05,0-.07.05,0,.1s-.09.06-.09.13c-.07-.11-.16-.13-.24-.08s-.06-.1-.13-.11a.29.29,0,0,1-.14,0l0,0s-.06,0-.05,0l.26.37a0,0,0,0,0,0,.06l0,.12v0a.46.46,0,0,0-.2,0,.14.14,0,0,1-.11,0s0,0,0,0a.59.59,0,0,0,.19.43l-.2,0s0,0,0,0a.37.37,0,0,0,.25.22.18.18,0,0,0-.1.15c0,.07,0,.12-.06.14s0,0,0,0a.29.29,0,0,0,.26,0,.43.43,0,0,0-.05.25.37.37,0,0,0,.18,0s0,0,0,.09a.19.19,0,0,1,0,.1s0,0,0,0a.41.41,0,0,0,.27,0,.51.51,0,0,0,0,.21s0,0,0,0a.46.46,0,0,1,.15-.16.09.09,0,0,0,0,.06.11.11,0,0,1,.05.1,0,0,0,0,0,0,0c.05,0,.15-.12.17-.18a.34.34,0,0,1,.14.13s0,0,0,0a1.62,1.62,0,0,0,0-.22.41.41,0,0,0,.27,0s0,0,0,0a.3.3,0,0,1,0-.11.2.2,0,0,0,0-.09.31.31,0,0,0,.19,0,.49.49,0,0,0-.08-.25.31.31,0,0,0,.27,0s0,0,0,0a.14.14,0,0,1-.06-.13.2.2,0,0,0-.12-.15.38.38,0,0,0,.24-.24s0,0,0,0h-.21a.66.66,0,0,0,.16-.45s0,0,0,0,0,0-.1.05a.41.41,0,0,0-.19,0l0,0,0-.12a.07.07,0,0,0,0-.06l.22-.4s0,0-.06,0,0,0,0,0l-.13.05q-.12,0-.12.12c-.09,0-.17,0-.24.1,0-.07,0-.14-.1-.13s0-.08,0-.1l-.2-.2,0,0Z"/><path class="cls-7" d="M44.47,11.31s0,0,0,0a.06.06,0,0,0,0,.06l0,0h0s0,0,0,0Z"/><path class="cls-7" d="M43,11.36a.07.07,0,0,1,0,0,.06.06,0,0,1,0,.06s0,0,0,0,0-.05,0-.06Z"/><path class="cls-7" d="M44.34,11.58s0,0,0,0,0,0,0,0l0,0Z"/><path class="cls-7" d="M43.15,11.63h0l0,0,0,0Z"/><path class="cls-7" d="M44.42,11.49c-.23,0-.45,0-.67,0s-.45,0-.67.06c0,0,0,0,0,0,.22,0,.45-.05.67-.06a4.85,4.85,0,0,1,.66,0s0,0,0,0Z"/><path class="cls-7" d="M43.07,11.51c.23,0,.45,0,.68-.06s.44,0,.67,0l0-.06h0a.06.06,0,0,1,0-.08.06.06,0,0,1,.07,0s0,0,0,0l.12-.22a.45.45,0,0,1-.17.08c-.08,0-.12,0-.1.09s0,0-.06,0-.16,0-.19.11-.05.06-.05,0v-.06c0-.06,0-.08-.07-.06s0,0,0,0a.07.07,0,0,0,0-.06s0,0,0,0l-.2-.21c-.05.08-.11.15-.16.22s0,0,0,0,0,0,0,.07,0,0,0,0-.05,0-.05.07a.13.13,0,0,0,0,.06c0,.06,0,.06,0,0s-.11-.15-.2-.1-.06,0,0,0,0-.08-.12-.09a.36.36,0,0,1-.17-.07l.13.2v0s.06,0,.07,0,0,.07,0,.08h0l0,0Z"/><path class="cls-7" d="M44.38,11.73h0l0,0-.06.05h0s0,0,0,0l.06-.06,0,0h-.08l-.07,0s0,0,0,0h0s0,0,0,0l0,0h-.06l0,0,0,0h0s0,0,0,0l0,0H44l0,0v0h0v0s0,0,0,0h-.09l0,0,0,0h0s0,0,0,0v0h-.2l0,0h0v0l0,0h-.1l0,0h0v0l0,0h-.07l0,0v0h0v0h-.12l0,0a.1.1,0,0,1,0,0s0,0,0,0h0a.1.1,0,0,0,0,0l-.07,0h-.08l0,0,.06,0s0,0,0,0,0,0,0,0a.1.1,0,0,1-.06,0l0,0-.17,0a.3.3,0,0,1-.13,0,.16.16,0,0,0,0,.07.07.07,0,0,0,.06,0h0A.19.19,0,0,0,43,12l.06,0a.2.2,0,0,1-.06-.07.17.17,0,0,1,0-.12s0,0,0,0,0,0,0,0a.23.23,0,0,0,0,.11.28.28,0,0,0,.09.1s0,0,0,0A.19.19,0,0,1,43,12a.2.2,0,0,1-.06-.11.18.18,0,0,1-.07,0,.15.15,0,0,1,0-.06.63.63,0,0,0,.15.33.18.18,0,0,0,.08.07s0,0,0,0h0l.07,0s.07,0,.07.07h0s0,0,0-.07l-.13,0h-.13l0,0,.1,0,.07,0,.06,0h0l-.05,0-.06,0-.11,0-.06,0a.35.35,0,0,0,.26.2h0l.08,0h-.09a.15.15,0,0,0-.12.15h0L43,12.5a.14.14,0,0,1,.11,0s0,0,0,0h0a.16.16,0,0,0-.09,0l-.09.07a.17.17,0,0,1-.06.12s0,0,.05,0l.08,0,.08,0h0l-.08,0-.06,0a.34.34,0,0,0,.2,0h0l0,0,.06,0h0l-.06,0,0,0,0,0a.26.26,0,0,0,0,.09s0,0,0,.06l.06-.09a.39.39,0,0,1,.1-.08h0s0,0,0,0a.16.16,0,0,0-.09.07.41.41,0,0,0-.07.11s0,0,0,0a.43.43,0,0,1,.1-.09.18.18,0,0,1,.12,0v0h0a.21.21,0,0,0-.11,0l-.11.11a.29.29,0,0,0,.16,0l.07,0,0,0,0,0h0s0,0,0,0l0,0,0,0h0l-.05.07a.51.51,0,0,1,0,.17.1.1,0,0,0,.05,0,.16.16,0,0,0,0-.07.2.2,0,0,1,0-.08.24.24,0,0,1,.08-.06h0a.18.18,0,0,0-.07.05.22.22,0,0,0-.05.08l0,.07,0,0h0a.15.15,0,0,0,.08,0,.21.21,0,0,0,0-.06h0a.13.13,0,0,1,0,.07.09.09,0,0,1-.06,0,.35.35,0,0,0,.14,0s0-.05,0-.06a.08.08,0,0,1,0-.05l0,0h0s0,0,0,0,0,0,0,0l0,0s0,.07,0,.09a.58.58,0,0,0,0,.19s0,0,0-.06h0s0-.06,0-.1a.28.28,0,0,0,0-.09h0s0,.07,0,.1a.25.25,0,0,0,0,.08l0,0a.19.19,0,0,0,0-.07.2.2,0,0,0,0-.07h0a.17.17,0,0,1,0,.07.14.14,0,0,1,0,.06l.06,0a.19.19,0,0,1,0-.12h0v.13a.13.13,0,0,0,0,.07.11.11,0,0,1,.06.07.37.37,0,0,0,0-.11.18.18,0,0,0,0-.11s0,0,0,0h0a.21.21,0,0,1,0,.11.76.76,0,0,1,0,.15s.1-.08.09-.18,0,0,0,0v0h0a0,0,0,0,1,0,0v0h0a.08.08,0,0,1,0-.05V13.1h0v.07a.19.19,0,0,0,0,.07h0s0,0,0-.07v-.1h0v.1s0,.06,0,.1h0l0,.05a1.09,1.09,0,0,0,0-.18s0-.06,0-.09l0,0s0,0,0,0,0,0,0,0h0l0,0,0,0s0,0,0,.06a.28.28,0,0,0,.13,0l-.06,0a.15.15,0,0,1,0-.06s0,0,0,0,0,0,0,0l.05.06a.27.27,0,0,0,.12,0l0,0a.43.43,0,0,1,0-.07.18.18,0,0,0-.05-.07.1.1,0,0,0-.07,0v0h0a.15.15,0,0,1,.07,0,.13.13,0,0,1,.06.07.16.16,0,0,0,0,.07.1.1,0,0,0,.05,0,1,1,0,0,1,0-.17s-.07-.08-.06-.09,0,0,.07,0a.31.31,0,0,0,.16,0,.35.35,0,0,0-.11-.1.1.1,0,0,0-.1,0h0a.14.14,0,0,1,.12,0l.1.09v0a.61.61,0,0,0-.07-.1l-.1-.07s0,0,0,0h0a.23.23,0,0,1,.1.07l.07.09,0-.07a.21.21,0,0,0-.06-.08l-.06,0h-.07l.06,0h0l.06,0a.44.44,0,0,0,.2,0l-.07,0h-.08a0,0,0,0,1,0,0h0l.09,0,.08,0,0,0a.24.24,0,0,1-.06-.11h0l-.1-.07a.1.1,0,0,0-.09,0h0s0,0,0,0a.11.11,0,0,1,.11,0l.08.06h0a.13.13,0,0,0-.13-.14h-.06s0,0,.07,0a.36.36,0,0,0,.24-.21l0,0-.11,0-.06,0,0,0h0s0,0,0,0a.12.12,0,0,1,.05-.05l.07,0,.1,0,0,0h-.14l-.12.05s0,0,0,.07h0s0-.06.06-.09l.07,0h0s0,0,0,0a.18.18,0,0,0,.08-.07.66.66,0,0,0,.12-.34.16.16,0,0,1,0,.06.2.2,0,0,1-.07.06.22.22,0,0,1-.05.11.2.2,0,0,1-.1.08s0,0,0,0a.35.35,0,0,0,.08-.1.25.25,0,0,0,0-.12h0a.17.17,0,0,1,0,.12.14.14,0,0,1-.05.08s0,0,.06,0a.21.21,0,0,0,0-.11h0a.1.1,0,0,0,.06,0l0-.06a.34.34,0,0,1-.14,0l-.16.05Z"/><path class="cls-7" d="M44.36,11.68a4.12,4.12,0,0,0-.61,0q-.3,0-.6.06h0a5.48,5.48,0,0,1,.57-.05,4,4,0,0,1,.6,0s0,0,0,0Z"/><path class="cls-7" d="M43.15,11.71q.3,0,.6-.06a4,4,0,0,1,.6,0v0h0s0,0,0,0,0,0,0,0l0,0v-.05a4.56,4.56,0,0,0-.64,0c-.22,0-.43,0-.65.06l0,0h0s0,0,0,0a0,0,0,0,1,0,0h0v0Zm.9-.16s0,0,0,0,0,0,0,0a0,0,0,0,0,0,0A0,0,0,0,0,44.05,11.55Zm0,0a0,0,0,0,0,0,0h0S44.07,11.57,44.06,11.57Zm-.33,0s0,0,0,0a0,0,0,0,0,0,0s0,0,0,0A0,0,0,0,0,43.73,11.55Zm0,0v0a0,0,0,0,0,0,0s0,0,0,0A0,0,0,0,0,43.73,11.57Zm-.31,0a0,0,0,0,0,0,0s0,0,0,0a0,0,0,1,0,0-.08Zm0,0a0,0,0,0,0,0,0,0,0,0,0,0,0,0l0,0Z"/><path d="M43.74,11.33l0-.05-.06,0s0,0,0,0a.08.08,0,0,0,0,0,.11.11,0,0,0,0-.08h0s0,0,0,.06l.06,0s0,0,0,0,0,0,0,0a.09.09,0,0,0,0,.06Zm0,0s0,0,0-.05l0,0,0,0,0,0s0,0,0,.05l0,0,0,0Z"/><path d="M44,12.8l-.15.07s0,0,0,0,0,0,0,0l.15-.07h0S44.05,12.8,44,12.8Zm0-.09-.18.1h0s0,0,0,0l.17-.1h0S44.06,12.7,44.06,12.71Zm-.55,0,.19.09s0,0,0,0h0l-.19-.09a0,0,0,0,1,0,0S43.51,12.71,43.51,12.71Zm0,.09.16.06s0,0,0,0,0,0,0,0l-.15-.06h0Zm.07.13h.11a.07.07,0,0,0,.06,0v-.15h-.09a.06.06,0,0,1-.06-.05.31.31,0,0,1,0-.09h0a.11.11,0,0,0,0,.08s0,0,0,0h.09l.09,0a.09.09,0,0,0,0,0,.14.14,0,0,0,0-.06l0,0H43.8s0,0,0,0h.12s0,0,0,0a.1.1,0,0,1,0,.07.18.18,0,0,1-.07.05h-.08v.14h0a.09.09,0,0,0,.06,0H44s0,0,0,0h-.12a.08.08,0,0,1-.06,0,.07.07,0,0,1-.06,0,.24.24,0,0,1-.12,0h0Zm.11.06h0Z"/><path d="M43.85,12.07,44,12a.19.19,0,0,1,.11,0h0s0,0,0,0L44,12l-.12.09h0s0,0,0,0Zm-.18,0a.51.51,0,0,0-.13-.09.15.15,0,0,0-.11,0h0a.19.19,0,0,1,.12,0l.14.09s0,0,0,0Zm-.05.3,0-.07s0,0,.05-.05h0s0,0,0,0l0,.05a.21.21,0,0,0,0,.06h0Zm.09-.52a.16.16,0,0,1,0,.07.19.19,0,0,1,0,.08.09.09,0,0,1,0,.07.24.24,0,0,1,0,.08.05.05,0,0,1-.05,0,0,0,0,0,1,0,0,.14.14,0,0,1,0,.09s0,0,0,0l0,0h0l-.08,0,0,0h0l0,0a.43.43,0,0,1,0-.05l-.06,0,0,0h0l0,0,.06,0,.11,0,.09.06h.07l0,0a.19.19,0,0,0,0-.07s0-.05,0-.07h0a.15.15,0,0,0,0-.07l0-.06s0,0,0,0Zm-.1.32-.09-.06-.09,0v0s0,0,0,0h0l0,0,.06,0h.07a.09.09,0,0,0,0-.07Zm.22-.31,0,.06V12h0v.07s0,0,0,.06l0,0h.06L44,12.1l.11,0,0,0a.1.1,0,0,0,0,0h0s0,0,0,0l0,0-.06,0v.05l0,0h0l0,0-.07,0h0l0,0,0,0h0a.14.14,0,0,1,0-.09h0l0,0a.13.13,0,0,1,0-.08.17.17,0,0,1,0-.07s0-.06,0-.08l0-.07h0s0,0,0,0Zm.29.2-.09,0-.09.06h0s0,.06,0,.08h0l0,0h0l.07,0s0,0,0,0h0l0,0v0Z"/><path d="M44,12.1a.07.07,0,1,0,.07.06A.07.07,0,0,0,44,12.1Zm0,0a0,0,0,0,0,0,.09,0,0,0,0,0,0-.09A0,0,0,0,0,44,12.12Zm0,0s0,0,0,0,0,0,0,0l0,0A0,0,0,0,0,44,12.14Zm-.5,0a.07.07,0,1,1-.06.07A.07.07,0,0,1,43.52,12.12Zm0,0a0,0,0,0,1,0,0,0,0,0,0,1,0,0,0,0,0,0,1,0,0A0,0,0,0,1,43.52,12.14Zm0,0a0,0,0,0,1,0,0s0,0,0,0a0,0,0,0,1,0,0S43.51,12.16,43.52,12.16Z"/></g><g id="lion-3" data-name="lion"><path d="M46.29,10.92l0,0-.16.2c-.06,0-.08,0-.06.1s-.09.06-.09.13c-.07-.12-.15-.15-.24-.1s-.05-.1-.13-.12a.33.33,0,0,1-.12-.05l-.05,0s-.07,0,0,0,.14.26.22.39,0,0,0,.06l0,.12v0a.48.48,0,0,0-.2,0s-.08,0-.1-.05,0,0,0,0a.6.6,0,0,0,.16.44h-.2s0,0,0,0a.43.43,0,0,0,.24.24.17.17,0,0,0-.11.15.17.17,0,0,1-.07.13s0,0,0,0a.29.29,0,0,0,.26,0,.47.47,0,0,0-.07.25.41.41,0,0,0,.19,0,.17.17,0,0,0,0,.09l0,.1s0,0,0,0a.44.44,0,0,0,.28,0,.54.54,0,0,0,0,.22s0,0,0,0a.46.46,0,0,1,.16-.15.16.16,0,0,0,0,.07s0,0,0,.1a0,0,0,0,0,0,0s.16-.11.18-.17.08.07.13.14,0,0,0,0a.75.75,0,0,0,0-.21.41.41,0,0,0,.27,0s0,0,0,0a.2.2,0,0,1,0-.11.17.17,0,0,0,0-.08A.37.37,0,0,0,47,13a.43.43,0,0,0,0-.25.32.32,0,0,0,.27,0s0,0,0,0-.06-.07-.06-.14a.16.16,0,0,0-.1-.15.37.37,0,0,0,.25-.22s0,0,0,0l-.21,0a.62.62,0,0,0,.2-.43s0,0,0,0a.11.11,0,0,1-.1,0,.46.46,0,0,0-.2,0v0l0-.12a0,0,0,0,0,0-.06c.09-.12.16-.25.25-.37s0-.05,0,0l0,0a.28.28,0,0,1-.13,0c-.08,0-.13,0-.13.11s-.17,0-.25.08c0-.07,0-.13-.08-.13s0-.08,0-.1-.13-.15-.18-.22l0,0Z"/><path class="cls-7" d="M47,11.36a.05.05,0,0,0-.05,0,.06.06,0,0,0,0,.06,0,0,0,0,0,0,0h0a.06.06,0,0,0,0-.06Z"/><path class="cls-7" d="M45.54,11.31s0,0,0,0,0,.05,0,.05,0,0,0,0,0,0,0,0Z"/><path class="cls-7" d="M46.87,11.63h0l0,0a0,0,0,0,0,0,0Z"/><path class="cls-7" d="M45.68,11.58l0,0v0l0,0S45.69,11.58,45.68,11.58Z"/><path class="cls-7" d="M47,11.54a4.9,4.9,0,0,0-.67-.07h-.67s0,0,0,0c.23,0,.45,0,.67,0s.44,0,.66.06c0,0,0,0,0,0Z"/><path class="cls-7" d="M45.61,11.46h.67a4.9,4.9,0,0,1,.67.07l0,0h0a.06.06,0,0,1,0-.08s0-.05.07,0,0,0,0,0l.14-.22a.36.36,0,0,1-.17.07c-.08,0-.12,0-.11.09s0,0-.06,0-.16,0-.2.1,0,.05,0,0v-.05c0-.07,0-.09-.06-.07s-.05,0,0,0,0,0,0-.07,0,0,0,0-.14-.15-.19-.22l-.17.21a.05.05,0,0,0,0,0s0,0,0,.06,0,0-.05,0,0,0-.06.06a.13.13,0,0,1,0,.06c0,.06,0,.06,0,0s-.1-.16-.2-.11-.06,0,0,0,0-.08-.11-.09a.45.45,0,0,1-.17-.08l.11.2h0s0,0,.07,0a.06.06,0,0,1,0,.08h0l0,.05Z"/><path class="cls-7" d="M46.89,11.78h0a.08.08,0,0,0,0,0,.18.18,0,0,1-.07,0s0,0,0,0,0,0,0,0l.06,0,0,0h-.09l-.06,0-.05,0h0s0,0,0,0a.1.1,0,0,1,.05,0l0,0h-.11l0,0h0v0l0,0h-.07l0,0v0h0s0,0,0,0v0h-.1l0,0v0h0l0,0h-.2v0s0,0,0,0h0l0,0v0H46v0h0v0h-.08l0,0s0,0,0,0h0l0,0,0,0h-.1l0,0,0,0s0,0,0,0h0a.08.08,0,0,0,0,0l-.07,0h-.08l0,0,.06.06s0,0,0,0h0l-.06-.05,0,0a.48.48,0,0,0-.17-.05.19.19,0,0,1-.13,0,.15.15,0,0,0,0,.07.1.1,0,0,0,.06,0h0a.21.21,0,0,0,0,.11s0,0,.06,0a.18.18,0,0,1,0-.08.17.17,0,0,1,0-.12h0a.17.17,0,0,0,0,.12.24.24,0,0,0,.08.1s0,0,0,0a.19.19,0,0,1-.11-.08.22.22,0,0,1,0-.11.2.2,0,0,1-.07-.06l0-.06a.66.66,0,0,0,.12.34.18.18,0,0,0,.08.07s0,0,0,0h0l.07,0s.06,0,.06.09h0s0-.05-.05-.07l-.12-.05h-.14l0,0,.1,0,.07,0a.12.12,0,0,1,0,.05s0,0,0,0h0l0,0-.06,0-.11,0,0,0a.36.36,0,0,0,.24.21h0l.08,0h.08s0,0,0,0H45.6l-.05,0h0a.13.13,0,0,0-.13.14h0l.08-.06a.11.11,0,0,1,.11,0s0,0,0,0h0a.1.1,0,0,0-.09,0l-.1.07a.17.17,0,0,1-.06.11s0,0,0,0l.07,0,.09,0h0a0,0,0,0,1,0,0h-.08l-.07,0a.44.44,0,0,0,.2,0h0l.05,0h.06l-.07,0,0,0,0,0a.16.16,0,0,0-.06.08.19.19,0,0,0,0,.07.24.24,0,0,1,.06-.09.23.23,0,0,1,.1-.07h0l-.1.07a.61.61,0,0,0-.07.1v0a.81.81,0,0,1,.1-.09.14.14,0,0,1,.12,0h0a.13.13,0,0,0-.11,0,.35.35,0,0,0-.11.1.3.3,0,0,0,.16,0s0,0,.07,0l0,0,0,0h0s0,0,0,0l0,0,0,0h0l-.06.07a1,1,0,0,1,0,.17.1.1,0,0,0,0,0,.16.16,0,0,0,0-.07.2.2,0,0,1,.06-.07.14.14,0,0,1,.08,0h0v0a.13.13,0,0,0-.07,0,.18.18,0,0,0,0,.07.16.16,0,0,1,0,.07l-.05,0h0l.09,0,0-.06s0,0,0,0,0,0,0,0a.15.15,0,0,1-.05.06l-.06,0a.35.35,0,0,0,.14,0s0,0,0-.06l0,0L46,13h0s0,0,0,0,0,0,0,0l0,0s0,.07,0,.09a.37.37,0,0,0,0,.18.12.12,0,0,1,0-.05h0s0-.06,0-.09a.17.17,0,0,0,0-.1h0a.33.33,0,0,1,0,.1s0,.05,0,.08l0,0,0-.07a.15.15,0,0,0,0-.07h0a.09.09,0,0,1,0,.07.13.13,0,0,1,0,.06l.05,0v-.07s0,0,0-.06h0s0,0,0,0v.12a.08.08,0,0,0,0,.07.14.14,0,0,1,.05.08.45.45,0,0,0,0-.11.81.81,0,0,0,0-.11s0,0,0,0h0a.36.36,0,0,1,0,.11.76.76,0,0,1,0,.15.21.21,0,0,0,.11-.17s0,0,0,0h0a0,0,0,0,0,0,0v0h0l0,0a.11.11,0,0,1,0-.05v-.08h0s0,0,0,0,0,0,0,.06a.15.15,0,0,0,0,.07h0l0,0v-.07a.31.31,0,0,1,0-.1h0s0,0,0,0v.1a.28.28,0,0,0,0,.09h0l0,.06a.57.57,0,0,0,0-.18s0-.07,0-.09l0,0s0,0,0,0,0,0,0,0h0l0,0,0,.05s0,.05,0,.06a.28.28,0,0,0,.13,0,.09.09,0,0,1-.06,0,.13.13,0,0,1,0-.07h0l0,.06.12,0,0,0a.16.16,0,0,1,0-.07.22.22,0,0,0,0-.08l-.06-.05h0l.08.05a.2.2,0,0,1,0,.08.16.16,0,0,0,0,.07.1.1,0,0,0,0,0c0-.06,0-.11,0-.17s-.06-.08,0-.1,0,0,.07,0a.29.29,0,0,0,.16,0l-.11-.11a.18.18,0,0,0-.1,0h0a.15.15,0,0,1,.12,0l.08.09v0l-.06-.11-.1-.07s0,0,0,0h0a.39.39,0,0,1,.1.08l.06.09,0-.06a.26.26,0,0,0-.05-.09s-.06,0-.06-.06h0l0,0h0l.06,0,0,0,.06,0a.32.32,0,0,0,.19,0l-.06,0h-.08v0h0l.08,0,.08,0s0,0,0,0a.17.17,0,0,1-.06-.11h0L47,12.52l-.09,0h0s0,0,0,0a.14.14,0,0,1,.11,0l.08.07h0a.15.15,0,0,0-.12-.15s-.06,0-.06,0,0,0,.07,0a.35.35,0,0,0,.26-.2l-.06,0-.11,0-.06,0,0,0h0s0,0,0,0a.1.1,0,0,1,0,0l.07,0,.1,0,0,0h-.13l-.12,0s-.06,0-.06.07h0s0,0,.07-.07l.07,0h0s0,0,0,0a.24.24,0,0,0,.08-.06.71.71,0,0,0,.15-.33l0,.05a.18.18,0,0,1-.07,0A.2.2,0,0,1,47,12a.14.14,0,0,1-.11.07s0,0,0,0a.28.28,0,0,0,.09-.1.2.2,0,0,0,0-.11s0,0,0,0h0a.27.27,0,0,1,0,.12A.2.2,0,0,1,47,12,.13.13,0,0,0,47,12a.29.29,0,0,0,.06-.11h0a.1.1,0,0,0,.07,0l0-.06h-.14l-.17,0Z"/><path class="cls-7" d="M46.88,11.73q-.3,0-.6-.06c-.21,0-.41,0-.61,0,0,0,0,0,0,0h0a3.62,3.62,0,0,1,.57,0c.2,0,.4,0,.6.05,0,0,0,0,0,0Z"/><path class="cls-7" d="M45.67,11.66h.61a5.61,5.61,0,0,1,.59.06v0h0a0,0,0,0,1,0,0s0,0,0,0,0,0,0,0l0-.05c-.21,0-.42-.05-.64-.06s-.43,0-.65,0l0,.05s0,0,0,0,0,0,0,0,0,0,0,0h0v0Zm.91-.09s0,0,0,0,0,0,0,0a0,0,0,0,0,0-.08Zm0,0s0,0,0,0,0,0,0,0a0,0,0,0,0,0,0A0,0,0,0,0,46.58,11.63Zm-.32,0s0,0,0,0,0,0,0,0a0,0,0,0,0,0-.08Zm0,0s0,0,0,0,0,0,0,0a0,0,0,0,0,0,0A0,0,0,0,0,46.26,11.61Zm-.31,0s0,0,0,0a0,0,0,0,0,0,0,0,0,0,0,0,0,0S46,11.55,46,11.55Zm0,0h0a0,0,0,0,0,0,0h0Z"/><path d="M46.29,11.33l0-.05-.06,0s0,0,0,0a.09.09,0,0,0,0,0,.11.11,0,0,0,0-.08h0l0,.06a.12.12,0,0,0,.05.05s0,0,0,0a.05.05,0,0,0,0,0,.09.09,0,0,0,0,.07s0,0,0,0Zm0,0a.05.05,0,0,1,0,0l0,0,0,0s0,0,0,0,0,0,0,.05l0,0,0,0Z"/><path d="M46.48,12.82l-.16.06a0,0,0,0,1,0,0s0,0,0,0l.16-.06h0S46.48,12.82,46.48,12.82Zm0-.09-.19.09h0l.18-.09s0,0,0,0S46.5,12.72,46.5,12.73Zm-.54,0,.17.1s0,0,0,0h0l-.17-.1v0Zm0,.09.15.07s0,0,0,0h0L46,12.8a0,0,0,0,1,0,0Zm.06.13a.23.23,0,0,0,.11,0,.1.1,0,0,0,0,0v-.15l-.09,0a.1.1,0,0,1-.06-.05.17.17,0,0,1,0-.1h0v0a.11.11,0,0,0,0,.08s0,0,0,0l.09,0h.09l.06,0a.14.14,0,0,0,0-.06l0,0h0a.05.05,0,0,1,0,0,.09.09,0,0,1,0,.07s0,0-.07,0h-.08v.14h0a.07.07,0,0,0,.05,0h.11s0,0,0,0h0a.2.2,0,0,1-.11,0,.1.1,0,0,1-.07,0,.09.09,0,0,1-.06,0,.3.3,0,0,1-.12,0s0,0,0,0Zm.1.07h0Z"/><path d="M46.34,12.07l.13-.08.11,0s0,0,0,0h0a.13.13,0,0,0-.1,0l-.12.08h0s0,0,0,0Zm-.18,0A.47.47,0,0,0,46,12a.19.19,0,0,0-.11,0h0a.24.24,0,0,1,.12,0,.57.57,0,0,1,.13.1s0,0,0,0Zm-.07.3a.15.15,0,0,1,0-.06l.06-.05h0s0,0,0,0a.1.1,0,0,0-.05,0l0,.06h0S46.09,12.38,46.09,12.38Zm.13-.51,0,.07a.19.19,0,0,1,0,.08.17.17,0,0,1,0,.07.13.13,0,0,1,0,.08l0,0h-.05s0,.07,0,.09h0l0,0,0,0h0l-.07,0,0,0h0s0,0,0,0a.11.11,0,0,1,0-.05l0,0-.05,0s0,0,0,0h0a.08.08,0,0,0,0,0l.06,0,.11,0,.09.06h.06l0,0a.14.14,0,0,0,0-.06.17.17,0,0,0,0-.07h0a.22.22,0,0,0,0-.08l0-.06h0Zm-.12.31L46,12.12l-.1,0s0,0,0,0,0,0,0,.05h0l0,0,.06,0h0l0,0h0a.25.25,0,0,0,0-.08Zm.24-.29a.09.09,0,0,0,0,.06s0,0,0,.07h0v.07a.19.19,0,0,0,0,.07.05.05,0,0,0,0,0h.06l.1-.05a.2.2,0,0,1,.11,0l.06,0,0,0h0s0,0,0,0l-.05,0-.06,0a.13.13,0,0,1,0,.06.09.09,0,0,1,0,.05h0a.08.08,0,0,1,0,0l-.07,0h0l0,0s0,0,0,0a.1.1,0,0,1,0-.09,0,0,0,0,1,0,0s0,0-.05,0a.19.19,0,0,1,0-.08V12s0-.06,0-.08a.16.16,0,0,1,0-.07h0v0Zm.27.22-.1,0-.09,0h0a.19.19,0,0,0,0,.08l0,0h0l.07,0,0,0h0a.08.08,0,0,0,0,0v0Z"/><path d="M46.51,12.12a.09.09,0,0,0-.07.06.07.07,0,0,0,.07.07.06.06,0,0,0,.06-.06S46.55,12.12,46.51,12.12Zm0,0a.07.07,0,0,0,0,0,0,0,0,0,0,0,.05,0,0,0,0,0,0,0A0,0,0,0,0,46.51,12.14Zm0,0,0,0a0,0,0,0,0,0,0,0,0,0,0,0,0,0S46.52,12.16,46.51,12.16ZM46,12.1a.09.09,0,0,1,.06.07s0,.06-.07.06a.06.06,0,0,1-.06-.06A.07.07,0,0,1,46,12.1Zm0,0a.07.07,0,0,1,0,.05,0,0,0,0,1,0,0,0,0,0,0,1,0,0A0,0,0,0,1,46,12.12Zm0,0s0,0,0,0,0,0,0,0l0,0A0,0,0,0,1,46,12.14Z"/></g><path class="cls-2" d="M53.39,11.86h0L51,9.12l-3.15,1.81-.54,6.38a27.88,27.88,0,0,1,4.52.76l1.58-6.21Z"/><path d="M48.45,12.25a.44.44,0,0,1,.32,0,.21.21,0,0,1,.1.08l.15-.1a.59.59,0,0,1,.23-.13.83.83,0,0,1,.34-.1A1.45,1.45,0,0,1,50,12a.71.71,0,0,1,.28.09l.25.12a1.66,1.66,0,0,0,.27.13,1.11,1.11,0,0,0,.37.07.58.58,0,0,0,.19,0c.06,0,.09,0,0,.06-.41.25-.74,0-1-.08a1.23,1.23,0,0,1,.27.22,1.59,1.59,0,0,0,.43.3,1.19,1.19,0,0,0,.44.1h.2s.05,0,.05,0,0,0,0,.05a.57.57,0,0,1-.32.1,1.15,1.15,0,0,1-.66-.17,4.85,4.85,0,0,1-.41-.29.84.84,0,0,0-.37-.18.67.67,0,0,0-.37,0,.09.09,0,0,1,.08,0,.64.64,0,0,0,.24.06c.06,0,0,.05-.05.09a.2.2,0,0,1-.2.09c-.13.09-.17,0-.21,0l0,.1a0,0,0,0,1,0,0,.12.12,0,0,1,0,.1.09.09,0,0,0,0,.05.12.12,0,0,1,0,.08.09.09,0,0,0,0,.05l.08.07a.2.2,0,0,1,.12.16.14.14,0,0,1,.09.11s.06,0,.07,0h.33a.39.39,0,0,1,.25.15h.15a.42.42,0,0,1,.16,0,.7.7,0,0,1,.29,0,.24.24,0,0,1,.15.09.2.2,0,0,0,.23,0,.3.3,0,0,1,.29,0,.23.23,0,0,1,.14,0,.23.23,0,0,1,.12-.06c.07,0,.12,0,.11.1a.09.09,0,0,1,0,.06.15.15,0,0,1-.17.08.14.14,0,0,1-.06.1c0,.11,0,.16-.08.15s0,.05-.08.05a.14.14,0,0,1-.11.06l0,.08c0,.08,0,.11-.1.11a.49.49,0,0,1,0,.17c.08,0,.09.09,0,.14a.13.13,0,0,1-.07.21.18.18,0,0,1,0,.13s-.06,0,0,.06,0,.14,0,.15,0,0,0,0v0a.86.86,0,0,0-.2.13h0a1.23,1.23,0,0,1-.21.29.19.19,0,0,1-.12.14.07.07,0,0,1,0,.05s0,.08,0,.12a.36.36,0,0,1-.16.11c-.13,0-.2,0-.25,0s0-.08,0-.09-.1,0-.09-.09,0,0,0,0a.28.28,0,0,0,.12,0,.12.12,0,0,1,.06-.06.21.21,0,0,1,.14-.17.43.43,0,0,0,.18-.16l.1-.18a.16.16,0,0,1,0-.09.16.16,0,0,1-.07-.07c-.06,0-.08,0-.09-.06h0a.19.19,0,0,1-.08,0l-.14.11a.11.11,0,0,1-.09.07c-.11,0-.18.15-.24.21a.19.19,0,0,0,0,.09c0,.07,0,.13-.06.13h-.09a.09.09,0,0,1,0,.12.22.22,0,0,1-.11.05.6.6,0,0,1-.2,0c-.06,0-.07-.06-.06-.09s-.05,0-.05-.06a0,0,0,0,1,.06,0l.07,0a.73.73,0,0,1,.23-.18l.09-.08a.27.27,0,0,1,.11-.17.13.13,0,0,1,0-.08s0,0,0,0a.15.15,0,0,1,0-.14.17.17,0,0,1,0-.07c-.13.08-.17,0-.19,0s-.1.06-.13,0a.17.17,0,0,1-.14,0,.29.29,0,0,1-.1,0,.16.16,0,0,1-.06.08.38.38,0,0,1-.06.19,1.07,1.07,0,0,1-.09.19.13.13,0,0,1,0,.06.11.11,0,0,1-.06.13.2.2,0,0,1,0,.09v0a.11.11,0,0,1,0,.13l-.11.07a.13.13,0,0,1-.12,0c-.07,0-.07,0-.06-.07h-.06l0,0s0-.05,0-.06a.41.41,0,0,0,.11-.07.1.1,0,0,1,0-.06s0-.08.08-.09a1.42,1.42,0,0,1,.08-.18.14.14,0,0,0,0-.06.06.06,0,0,1,0,0s0,0,0,0a.14.14,0,0,1,0-.14c0-.05.07-.18,0-.24s0-.08,0-.11h0s-.05,0-.07,0S49,15,49,15a.28.28,0,0,1-.12.2.32.32,0,0,0,0,.14c0,.05,0,.09,0,.09a.09.09,0,0,0-.06.06.09.09,0,0,0,0,0s0,.08,0,.11a.26.26,0,0,1-.28,0c-.07,0-.09-.06-.08-.09s-.09-.09,0-.12a.38.38,0,0,0,.23-.17c0-.1,0-.17.09-.18a.34.34,0,0,1,0-.17.31.31,0,0,0,0-.17c-.06,0-.06-.07,0-.11s0,0,0,0,0,0,0-.07a0,0,0,0,0,0,0c-.07,0-.06,0,0-.08s0,0,0-.05,0,0,0-.05a.08.08,0,0,1,0-.11.18.18,0,0,1,0-.1c-.09,0-.12-.05-.07-.12l.07-.08a.1.1,0,0,0,0-.1c0-.06,0-.11.12-.16a.11.11,0,0,1,0,0,.07.07,0,0,1,0-.11s0,0,0,0-.09,0-.05-.14,0-.09.07-.18a.09.09,0,0,1,0-.05l-.13,0a.11.11,0,0,1-.12,0,.12.12,0,0,0,0-.05.09.09,0,0,1,0-.08c-.11,0-.13-.08-.06-.13a.23.23,0,0,0,.07-.1.51.51,0,0,1,.17-.19.2.2,0,0,1,0-.07.16.16,0,0,0-.09,0s0-.07-.08-.08,0,0,0-.06,0-.09,0-.12Z"/><path class="cls-7" d="M50.55,15.24h0l-.1.09s-.07,0,0,0l0,0s0,.05-.06.06h0v0a.13.13,0,0,1,0-.06h0a7463281273945.87,7463281273945.87,0,0,1,0,.1.58.58,0,0,0-.22.22.17.17,0,0,0-.06.1s0,.11,0,.11h0a0,0,0,0,0,0,0h-.13s0,0,.08,0a0,0,0,0,1,0,.06c0,.08-.23.06-.29,0s0,0,0-.06h0l.07,0s0,0,0,0,0,0,0,0l0,0h-.07a0,0,0,0,1,0,0h0l.09,0a.56.56,0,0,1,.23-.18.43.43,0,0,1,.1-.09.29.29,0,0,1,.11-.18.13.13,0,0,1,0-.08v-.05a.15.15,0,0,1,0-.13.14.14,0,0,1,0-.09v0l0,0,.05,0a.34.34,0,0,0,0,.1h0l0,0s0,0,0,0h0v0l0,0h0a.18.18,0,0,0,.09,0l.08-.09v.14l-.07.08h0a.16.16,0,0,1,.06-.08h0l.1-.05a.21.21,0,0,0,0,.11.17.17,0,0,0,.06.11Z"/><path class="cls-7" d="M48.62,14.12l0,0h0l0-.08.06-.07h0L48.7,14a.25.25,0,0,0,0,.07v0a.12.12,0,0,0,0,.09h0l0-.05.06-.05a.08.08,0,0,0,0,0,.05.05,0,0,0,0,0h0s0,0,0,0a.08.08,0,0,1,0,0s0,0,0,0h0l-.06.05a.05.05,0,0,0,0,0s0,0,0,0-.06.07,0,.1a.09.09,0,0,0,0,.06.08.08,0,0,1,0,.09s0,0,0,0h0l0,0,0-.05,0-.06a.14.14,0,0,0,0-.06h0a.25.25,0,0,1,0,.07l0,.06,0,.05,0,0s0,.05,0,.09h0l0,0,0-.05h0l0,.05,0,0h0a0,0,0,0,1,0,.07s0,.05,0,.08a.2.2,0,0,1,0,.11h0V15h0v0h0v0a.57.57,0,0,0-.07.22c-.08,0-.07.09-.08.16a.43.43,0,0,1-.23.19s-.07,0-.07,0a0,0,0,0,0,0,0c0-.06.08,0,0,0s0,0,0,0a.27.27,0,0,0,.26,0s.08-.07,0-.11,0-.13.09-.15a.06.06,0,0,0,0-.06,1,1,0,0,1,0-.16h0a.24.24,0,0,0,.09-.16A.07.07,0,0,0,49,15s0,0,0,0l0,0s.06-.07.11,0l0-.11a.59.59,0,0,1,0-.13h0l0-.09,0-.09h0l0,.1,0,.09h0a.25.25,0,0,0,0,.12l0,.12h0s0,0,0,0V15c0,.08,0,.21,0,.28a.18.18,0,0,0,0,.1s0,.05,0,.07v0a.19.19,0,0,1,0,.07l-.09.19c-.05,0-.06,0-.08.09s0,0,0,0l-.11.07s0,0,0,.05,0,0,.07-.05,0,0,0,0a.47.47,0,0,0,0,.09s.08,0,.09,0,.11-.05.15-.07a.09.09,0,0,0,0-.11H49l-.07,0h0l.07,0h.06v0l.06-.1s0-.06,0-.12,0,0,0-.06l.09-.2a.3.3,0,0,0,.06-.18s0,0,0,0l0-.06h0a.06.06,0,0,1,0,0l0,0a.11.11,0,0,0,0-.05s0,0,0-.06l0,0a0,0,0,0,1,0,0h0s0,0,0,0h0a.14.14,0,0,1,0,.06.15.15,0,0,1,0,.07h0l0,0v0h0a.16.16,0,0,0,.09,0h0l0,0,0-.07h0l0,.07,0,0a.28.28,0,0,0,.13,0v-.15a.3.3,0,0,1,0-.1h0s0,0,0,0a.19.19,0,0,0,0,.09.53.53,0,0,0,0,.14h0s0,.06.06,0l.05,0h0L50,14.9l.12-.08h0s0,0,0,0l-.11.08-.09.09v0c0,.05,0,.07.07.05L50,15l0,0,.06,0,.06,0a.64.64,0,0,0,0-.07.6.6,0,0,1,.09-.15h0a.2.2,0,0,0,.09-.06.35.35,0,0,0,.05-.08h0a.41.41,0,0,1,0,.09.2.2,0,0,1-.09.06.51.51,0,0,0-.09.16s0,0,0,.06h0a.17.17,0,0,0,0,.1.09.09,0,0,0,.08,0l.09-.09h0l0-.06s0,0,0,0h0s0,0,0,0l-.05,0a.14.14,0,0,0,0,.07v.13h0A.23.23,0,0,1,50.5,15s0,0,0,0a.48.48,0,0,0,0,.12.18.18,0,0,0,.06.1.09.09,0,0,1,0-.06v0h0l0,0,0,0,0,0h0l0,0,0,0h0l0,0v.06h.07s0,.06.06.06v-.06s0,0,0-.06h0a.11.11,0,0,0,0,.06.07.07,0,0,0,0,0h0a.16.16,0,0,0,.08.08.14.14,0,0,0,0-.06.13.13,0,0,0,0-.06h0s0,0,0,.07l0,.06h0a.11.11,0,0,0,0,.06s0,0,0,0l0,0h0l0,0,0,0,0,0c-.08.13-.16.31-.31.37a.17.17,0,0,0-.12.15.27.27,0,0,0-.07.08.42.42,0,0,1-.15,0s0,.05,0,.05l.09,0s0,.06-.06.1,0,0,0,0,.17,0,.24,0a.38.38,0,0,0,.16-.12s0,0,0-.07-.08-.08,0,0,0,0,0,0a.17.17,0,0,0,.12-.14,1.57,1.57,0,0,0,.2-.25.19.19,0,0,0,0-.07.08.08,0,0,0,0,0,.13.13,0,0,0,0-.06h0a.13.13,0,0,1,0,.06.09.09,0,0,1,0,0,0,0,0,0,0,0,0,.8.8,0,0,1,.19-.13s0,0,.05,0,0,0,0,0,0-.07,0-.1,0-.06,0-.09,0-.09,0-.12h0v0l0,0h0s0,0,0,0v0s.07,0,.08-.07a.14.14,0,0,0,0-.11h0l-.05,0h0s0,0,0,0l.05,0,0,0,0,0s0-.06-.06-.08h0l-.1-.08h0l.09.07a.71.71,0,0,0,0-.14s0,0,0,0h0a.09.09,0,0,1-.06,0,.14.14,0,0,1,0-.07h0a.13.13,0,0,0,0,.06.1.1,0,0,0,0,0,.13.13,0,0,0,.12,0s0-.07,0-.1,0,0,0-.06h0l0,0h0l0,0,0,0h0a.17.17,0,0,0,.1-.06l0,0-.05-.05h0l.06.05s0,0,0,0h0s0,0,.06,0a.14.14,0,0,0,0-.06l0,0h0s0,0,0,0a.1.1,0,0,1,0,0l0,.05h0s0-.09,0-.12h0s0,0,0,0h0l0,0h0a.16.16,0,0,0,0-.07s0,0,.06,0A.13.13,0,0,0,52,13.9l0,0s0-.06,0-.06a.14.14,0,0,0-.14,0l0,0h0l0,0a.39.39,0,0,0-.15,0h0l0,0,0,.05h0a.11.11,0,0,0,0-.05l0-.05h0a.25.25,0,0,0-.12,0l0,0,0,0h0l0,0,0,0h0l-.11,0s0,0-.07,0a.09.09,0,0,1,0,.06l0,.07h0l0-.07,0-.06h-.07l0,0s0,0,0,0h0l0,0-.06,0a.22.22,0,0,1,0,.08.37.37,0,0,1,0,.11h0a.41.41,0,0,0,0-.11.29.29,0,0,0,0-.09,0,0,0,0,1,0,0l-.07-.06v0l0,.06s0,0,0,0h0a.14.14,0,0,0,0-.06v0l-.13,0,0,0,0,.06a.09.09,0,0,1,0,.06.13.13,0,0,1,0,.06h0s0,0,0-.06,0,0,0-.05h0l0-.06a.21.21,0,0,0,0-.06h0a0,0,0,0,1,0,0h0v0h-.1a.57.57,0,0,1,.08.13.88.88,0,0,1,0,.15h0a.42.42,0,0,0,0-.15l-.08-.13h-.08l0,0,0,0s0,0,0,0h0l0,0,0,0h-.06l.06.05.07.08h0a.27.27,0,0,0-.07-.08l-.07-.06h-.08a.42.42,0,0,1,0,.1.45.45,0,0,1,0,.11h0a.52.52,0,0,0,0-.11.69.69,0,0,0,0-.1h0a.29.29,0,0,1,0,.09.43.43,0,0,1,0,.11h0a.52.52,0,0,0,0-.11l0-.1a.51.51,0,0,0-.16-.13l0,.06a.19.19,0,0,1,0,.08h0a.11.11,0,0,0,0-.08.25.25,0,0,0,0-.07h-.17s.05,0,.05.09h0s0-.05-.06-.08H50l0,0s0,0,0,.05h0s0,.06,0,.08a.12.12,0,0,0,0,0s0,0,0,0h0a.18.18,0,0,1-.07,0,.24.24,0,0,1,0-.08.14.14,0,0,0,0-.06l0,0h-.08a.43.43,0,0,1,0,.11.49.49,0,0,1,0,.12h0a.49.49,0,0,0,0-.12.43.43,0,0,0,0-.11h0a.13.13,0,0,0-.06-.05h0l0,0h0v0h0a.11.11,0,0,0-.07-.1v0s0,0,0,.06h0l0-.05a.11.11,0,0,0,0,0h0a.16.16,0,0,0-.11-.15v0a.13.13,0,0,1,0,.06h0a.09.09,0,0,0,0-.05v0l-.07-.06a.12.12,0,0,1,0,.08.49.49,0,0,1,0,.11h0a.24.24,0,0,0,0-.1.34.34,0,0,0,0-.1l0,0h0v0h0s0,0,0,0v0h0s0,0,0-.06h0v0l0,0h0l0,0a0,0,0,0,1,0,0l0,0,0,0,0,0h0l0,0,0,0v0a.14.14,0,0,0,0-.09h0l-.05,0h0s0,0,0,0l.06,0h0v0a.33.33,0,0,1-.14,0,.16.16,0,0,1-.1,0h0l.09,0,.14,0h0a.19.19,0,0,0,0-.07h0v0s0,0,0,0l.05.05a.11.11,0,0,0,.11,0h0a.21.21,0,0,0,.17,0h-.12l-.08,0h0l.09,0h.13l.06,0a.71.71,0,0,1-.25-.06.14.14,0,0,0-.08-.05.33.33,0,0,0-.17,0s0,0,0,0h0l.07,0a1.7,1.7,0,0,1,.43-.07h0s0,0,0,0,0-.08,0-.11a.17.17,0,0,0-.09-.1h-.16l-.11,0,.08.05a.33.33,0,0,1,0,.12v0h0a.16.16,0,0,0,0-.11.14.14,0,0,0-.1-.05l-.15,0-.1,0a.14.14,0,0,1,.11,0,.13.13,0,0,1,.07.09s0,0,0,0h0a.13.13,0,0,0-.06-.08.28.28,0,0,0-.2,0l-.08.08h0s0,0,0,0a.3.3,0,0,1,.08-.08s.05,0,.08,0a.21.21,0,0,1,.13-.07l.16,0a.14.14,0,0,0-.06-.07h-.09a.69.69,0,0,0-.19.1h.07s0,0-.06,0H49l-.18.14h0a.12.12,0,0,0-.11,0s0,0,0,.07a.3.3,0,0,0,0,.1.59.59,0,0,0-.17.18.09.09,0,0,1,0,.06l0,0h0v0l0,0h0a.08.08,0,0,0,0,0,.13.13,0,0,0,0,.06h0l0,0h0l0,0s0,0,0,0,0,0,.06,0,0,.05.06.08,0,0,0,.05h.07c0-.05,0-.07,0-.07h0v0l0,0h0s0,0,0,0v.07a.5.5,0,0,1,.13,0c.08-.09.11-.07,0,0v0a.24.24,0,0,0,0,.08s-.13.1-.09.13,0,0,0,0,0,.08,0,.11,0,0,0,0h0l.08-.08a.86.86,0,0,0,.07-.1h0l0-.09a.36.36,0,0,1,0-.09h0l0,0h.06l0,0h0s0,0,0,0l0,0H49l0,0,0,.08,0,.09s0,0,0,0a.41.41,0,0,1-.07.11l-.07.07a.14.14,0,0,0,0,.06l.12-.12.1-.12h0l0,.07s0,0,0,0a.1.1,0,0,0,0,0,.22.22,0,0,0,0,.08h0v-.1l0,0-.12.12h0s-.07,0,0,.08l.05,0,0,0h0s0,0,0,0l0,0,0,0s0,0,0,0h0l.1-.07h0l-.1.07v0s-.15.09-.14.14h0l.08,0a.24.24,0,0,0,.08-.06h0s0,0,0,0a.24.24,0,0,1-.08.06h0v0h0v0h0l-.07,0a.2.2,0,0,1,0,.13s-.13.1-.08.13Z"/><path class="cls-7" d="M48.67,12.51a.19.19,0,0,0-.08,0,.16.16,0,0,0-.07-.07s0,0,0,0l0,0h.07l0,0h-.09a.06.06,0,0,1,0-.06h.07s0,0,0,0,0,0,0,0h0a.37.37,0,0,1,.27,0,.22.22,0,0,1,.09.07l0,0a.23.23,0,0,0-.13,0,.11.11,0,0,0,0,.08Z"/><path d="M50.61,15.22l0,0h0a.15.15,0,0,1,0-.06h0v.05Z"/><path d="M50.86,15.74l0,.06-.06,0h0l0,0,.05,0h0Z"/><path d="M51,15.55l0,0h0s0,0,0,0l0,0h0s0,0,0,0Z"/><path d="M50.93,15.54s0,0,0,.05a.1.1,0,0,1,0,0h0s0,0,0,0a.1.1,0,0,0,0,0,.08.08,0,0,0,0-.05h0Z"/><path d="M51.09,15.34l0,0a0,0,0,0,1,0,0h0v0l0,0h0s0,0,0,0Z"/><path d="M51.22,15.36l0,.05a.14.14,0,0,1,0,.06h0s0,0,0,0,0,0,0-.05,0,0,0-.06h0Z"/><path d="M51.16,14.6a.31.31,0,0,1,.05.18s0,0,0-.07h0a.11.11,0,0,0,0-.07.09.09,0,0,0,0-.07h0v.07a.3.3,0,0,1,0,.08.5.5,0,0,0,0,.12h0v0a.36.36,0,0,0-.05-.22h0Z"/><path d="M51.06,14.72v0h0v0Z"/><path d="M51,14.9s0,.06,0,.1,0,0,0,.07h0l0,0h0l0,0,0,0h0s0-.07,0-.1l0-.1h0Z"/><path d="M51.17,15a.22.22,0,0,1,0,.08s0,0,0,.07h0V15a.22.22,0,0,0,0-.08,0,0,0,0,1,0,0Z"/><path d="M51.29,14.94a.15.15,0,0,1,0,.07.14.14,0,0,1,0,.06.11.11,0,0,0,0,.08.19.19,0,0,0,0,.07s0,0,0,0h0a.24.24,0,0,1,0-.08.11.11,0,0,1,0-.08h0a.13.13,0,0,0,0-.06.16.16,0,0,0,0-.07h0Z"/><path d="M51.35,14.74v.08h0v-.07h0Z"/><path d="M51.29,14.42v0h0s0,0,0,0v0h0Z"/><path d="M51.32,14.17v.1l0,0a.11.11,0,0,0,0,.08h0a.11.11,0,0,1,0-.08.09.09,0,0,1,0-.05v-.09h0Z"/><path d="M51.08,14.08l.09.09a.2.2,0,0,1,0,.11h0l-.06,0a.51.51,0,0,1,0,.22.22.22,0,0,1-.12.13h0a.22.22,0,0,0,0-.11.17.17,0,0,0,0-.1h0a.37.37,0,0,1,0,.11s0,.06,0,.09a.18.18,0,0,0,.1-.11.44.44,0,0,0,0-.23h0l.07,0a.14.14,0,0,0,0-.09.76.76,0,0,0-.09-.09h0Z"/><path d="M51.72,14h0v0h0S51.72,14,51.72,14Z"/><path d="M51.57,14l0,0,0,0h0l0,0h0s0,0,0,0Z"/><path d="M51.34,14a.09.09,0,0,1,0,.06.22.22,0,0,1,0,.08h0a.22.22,0,0,0,0-.08.05.05,0,0,0,0-.05h0Z"/><path d="M50.59,14.09v.05h0v-.05h0Z"/><path d="M50.73,14v0h0v0h0Z"/><path d="M51,14.21v0h0v0Z"/><path d="M51.11,14v0s0,0,0,0h0v0h0Z"/><path d="M50.43,14v0l0,0s0,0,0,.05a.09.09,0,0,1,0,.05h0a.09.09,0,0,0,0-.05l0,0,0,0v0h0Z"/><path d="M50.7,14.21a.16.16,0,0,1,0,.09v.09a.13.13,0,0,0,0,.1l.08.08a.52.52,0,0,1,0-.11.21.21,0,0,1,0-.13l0-.05a.11.11,0,0,1,0,0h0s0,0,0,.06l0,.05a.19.19,0,0,0,0,.12.17.17,0,0,0,0,.12h0a.24.24,0,0,1-.1-.1.14.14,0,0,1,0-.11V14.3a.26.26,0,0,0,0-.08h0Z"/><path d="M50.59,14.38a.3.3,0,0,1,0,.1l0,.07h0l.05,0s0,0,0,0l0,0h0l0,0s0,0,0,0v.05h0v0l0,0-.06,0s0,0,0,0l.06-.09a.29.29,0,0,0,0-.09Z"/><path d="M50.46,14.37v0h0v0h0Z"/><path d="M50.37,14.21a.25.25,0,0,1,0,.12.54.54,0,0,1,0,.11h0l-.06.08a.14.14,0,0,1,0,.06l0,0,.07,0,.08,0,.06-.06h0s0,0,0,0l-.07.06-.08.06h0s0,0-.06,0l0,.06h0l0-.1a.27.27,0,0,1,.07-.08.21.21,0,0,0,0-.1.17.17,0,0,0,0-.12h0s0,0,0,0Z"/><path d="M50.65,14.65s0,0,0,0h0a.19.19,0,0,1,0,.1.37.37,0,0,1,0,.11h0a.31.31,0,0,0,0-.1.43.43,0,0,0-.1-.09h0l.1.09a.2.2,0,0,1,0,.08.19.19,0,0,0,0-.08.16.16,0,0,0,0-.09v0s0,0,0,0h0Z"/><path d="M50.77,14.64v0h0s0,0,0,0h0v0s0,0,0,0Z"/><path d="M50.91,14.69l0,.09,0,.08h0l0-.09,0-.08h0Z"/><path d="M51,15.17v0h0s0,0,0,0v0h0Z"/><path d="M50.91,15l0,.05v0s0,0,0,0h0V15h0Z"/><path d="M50.78,15h0s0,0,0,0h0Z"/><path d="M50.64,15v0h0s0,0,0,0v0h0a0,0,0,0,1,0,0Z"/><path d="M50.43,15.18s0,0,0,0v0h0a.08.08,0,0,1,0,0l0,0h0Z"/><path d="M49.83,15.77h0s0,0,0,0h0v0h0Z"/><path d="M49.93,15.72h0s0,0,0,0Z"/><path d="M50.05,15.64h0Z"/><path d="M50.24,15.16s0,0,0,.05a.11.11,0,0,0,0,0h0v0s0,0,0-.06h0Z"/><path d="M50.36,13.87a.08.08,0,0,1,0,0l0,0s0,0,0,0h0l0,0a0,0,0,0,0,0,0h0Z"/><path d="M50.23,13.75a.14.14,0,0,1,0,.06.13.13,0,0,1,0,.06,0,0,0,0,1,0,0h0a.13.13,0,0,0,0-.06l0-.05h0Z"/><path d="M50.06,14,50,13.91a.09.09,0,0,1,0-.05h0a.09.09,0,0,0,0,.05l0,0h0Z"/><path d="M50.25,14.29h0v0h0v0h0Z"/><path d="M50,14a.24.24,0,0,1,.07.13.31.31,0,0,1,0,.1h0a.07.07,0,0,0,0,0,.31.31,0,0,0,0-.11h0l0-.07s0,0,0-.07h0l.06.1,0,.11h0a.43.43,0,0,0,0-.11.56.56,0,0,1,0-.08.07.07,0,0,1,0,0,.09.09,0,0,1,0,.07.31.31,0,0,1,0,.11.1.1,0,0,1,0,.06h0v.05h0a.81.81,0,0,0,0-.16.25.25,0,0,0-.07-.12h0Z"/><path d="M50.15,14.65v.1h0v-.1h0Z"/><path d="M49.88,14.77v0h0v0h0Z"/><path d="M50.11,14.45a.24.24,0,0,1,0,.08.25.25,0,0,1,0,.07h0a.2.2,0,0,0,0,.08.25.25,0,0,0,0,.08h0a.28.28,0,0,1,0-.09.18.18,0,0,1,0-.09.16.16,0,0,0,0-.07.14.14,0,0,0,0-.07Z"/><path d="M50.05,14.36a.11.11,0,0,1,0,.08.23.23,0,0,1,0,.07h0l-.05.06,0,.06h0l0-.07,0-.06.05-.07a.15.15,0,0,0,0-.07h0Z"/><path d="M49.75,14.5a.18.18,0,0,1,0,.13.39.39,0,0,1-.08.1h0s0,0,0,0l.08-.09a.17.17,0,0,0,0-.12h0Z"/><path d="M49.37,14.72v0h0v0l0,0h0Z"/><path d="M49.21,14.72s0,.06,0,.09l0,.08h0a.14.14,0,0,1,0,.06s0,0,0,0a.21.21,0,0,0,0-.06.19.19,0,0,0,0-.07h0a.31.31,0,0,1,0,.08l-.05.07h0V15a.14.14,0,0,0,0-.06.2.2,0,0,1,0-.08.28.28,0,0,1,0-.09h0Z"/><path d="M49.23,15.24a.07.07,0,0,0,0-.05l0,0h0l0,0v0h0Z"/><path d="M49.22,15.39v-.06h0v.06Z"/><path d="M49.12,15.63l0,0,0,0h0l0,0a.05.05,0,0,1,0,0h0s0,0,0,0Z"/><path d="M49,14.81v0h0v0Z"/><path d="M48.73,15.38v0h0v0h0Z"/><path d="M49.34,14.38a.5.5,0,0,0,0,.12.1.1,0,0,0,0,.09.24.24,0,0,1,.06.08h0a.06.06,0,0,1,0,0v-.06s0,0,0,0h0v.06s0,0,0,.06h0v0a.12.12,0,0,0,0-.07.12.12,0,0,1,0-.1.69.69,0,0,1,0-.13h0Z"/><path d="M49.3,14.21v.1l0,.09a.19.19,0,0,0,0,.13.27.27,0,0,0,0,.12h0a.33.33,0,0,1,0-.13.51.51,0,0,1,0-.13.19.19,0,0,0,0-.09.31.31,0,0,0,0-.1h0Z"/><path d="M49,14.62a.06.06,0,0,0,0,.06.14.14,0,0,0,0,.06h0l0-.06a.17.17,0,0,1,0-.07h0s0,0,0,0Z"/><path d="M48.89,14.57v0a.06.06,0,0,1,0,0h0v0s0,0,0,0,0,0,0,0h0s0,0,0,0a.06.06,0,0,1,0,0v-.06h0Z"/><path d="M49.62,13.5a.14.14,0,0,0,0,.09l0,.09s0,0,0,0h0a.32.32,0,0,1,0-.09.34.34,0,0,1,0-.1h0Z"/><path d="M49.52,13.59a.41.41,0,0,1,0,.09.5.5,0,0,1,0,.12h0a.36.36,0,0,0,0-.11.3.3,0,0,0,0-.1h0Z"/><path d="M49.07,13.6a.29.29,0,0,0-.06.16.2.2,0,0,0,0,.11h0a.36.36,0,0,1,0,.1.3.3,0,0,1,0,.1h0s0,0,0,0a.36.36,0,0,0,0-.1.44.44,0,0,0,0-.1.21.21,0,0,1,0-.12.64.64,0,0,1,.07-.16h0s0,0,0,0Z"/><path d="M49.49,13.42a.06.06,0,0,1,0,.06l0,0a.07.07,0,0,0,0,.06.14.14,0,0,0,0,.09h0a.14.14,0,0,1,0-.09.1.1,0,0,1,0-.07l0,0v-.05Z"/><path d="M49.05,13.46a.11.11,0,0,1,0,.08.18.18,0,0,1,0,.08h0a.18.18,0,0,0,0,.07s0,.06,0,.09h0a.28.28,0,0,1,0-.09.22.22,0,0,1,.05-.08l0-.07v-.08h0s0,0,0,0Z"/><path d="M49.3,13.47v.06s0,0,0,0h0s0,0,0,0v0Z"/><path d="M49.29,13.41a.08.08,0,0,0,0,.05s0,0,0,.09h0a.14.14,0,0,1,0,.06.22.22,0,0,1,0,.08h0a.22.22,0,0,0,0-.08s0,0,0,0a.21.21,0,0,0-.07.15.26.26,0,0,0,.06.18h0a.32.32,0,0,1-.07-.19.23.23,0,0,1,.08-.16h0a.17.17,0,0,1,0-.1s0,0,.06-.06h0Z"/><path d="M49.22,13.31v0s0,.06,0,.08,0,0,0,0a.09.09,0,0,0,0,.05h0a.07.07,0,0,1,0-.05s0,0,0,0,0-.05,0-.08h0Z"/><path d="M49.93,14.07a.43.43,0,0,1,0,0,.07.07,0,0,1,0,.05h0a.09.09,0,0,0,0-.05s0,0,0,0h0Z"/><path d="M49.93,14.3v.08a.11.11,0,0,1,0,.08l0,.07h0l0-.07h0l0-.08V14.3s0,0,0,0A0,0,0,0,1,49.93,14.3Z"/><path d="M49.78,14.08a.37.37,0,0,1,.08.15.25.25,0,0,1,0,.17h0a.38.38,0,0,0,0-.15.37.37,0,0,0-.08-.15h0Z"/><path d="M49.77,14.34a.41.41,0,0,1-.05.09l-.06.08,0,.05,0,.07a0,0,0,0,1,0,0,.09.09,0,0,0,0,0,.14.14,0,0,0,0-.06h0a.12.12,0,0,1,0-.11.14.14,0,0,1,0-.1l0-.08s0,0,0-.07h0a.22.22,0,0,1,0,.08l0,.07h0a.12.12,0,0,0,0,.09.17.17,0,0,0,0,.1h0l0,.06v0l0,0,0-.06a.21.21,0,0,0,.06-.08l0-.08Z"/><path d="M49.38,14.22a.28.28,0,0,0,0,.09l0,.08s0,0,0,0h0a.32.32,0,0,1,0-.09.28.28,0,0,1,0-.09h0Z"/><path d="M49.16,14.34v0h0v0h0Z"/><path d="M49.23,14.14v.06a.21.21,0,0,1,0,.06h0s0,0,0-.05a.13.13,0,0,0,0-.06h0Z"/><path d="M49,14.53a.38.38,0,0,1,0-.22.31.31,0,0,1,.07-.14s0,0,.06-.07a.23.23,0,0,0,0-.12h0a.37.37,0,0,1,0,.12.16.16,0,0,1-.06.08.33.33,0,0,0-.07.13.43.43,0,0,0,0,.21h0Z"/><path d="M48.92,14.38s0,0,0,0a.09.09,0,0,0,0,.05s0,0,0,0h0s0,0,0,0a.07.07,0,0,1,0,0s0,0,0,0Z"/><path d="M49.48,14a.16.16,0,0,1,0,.1.17.17,0,0,1,0,.12h0s0,0,0,0a.2.2,0,0,0,0-.1.13.13,0,0,0,0-.1Z"/><path d="M49.66,13.84a.43.43,0,0,1,0,.11.34.34,0,0,1,0,.1h0s0-.06,0-.09l-.06-.06h0a.2.2,0,0,1,.06.07l0,0V14a.36.36,0,0,0,0-.1h0Z"/><path d="M49.76,13.7a.2.2,0,0,1,.05.09.28.28,0,0,1,0,.13h0V14s0,0,0,0h0s0,0,0,0a.14.14,0,0,1,0-.06v-.06h0a.41.41,0,0,0,0-.12.19.19,0,0,0,0-.09s0,0,0,0Z"/><path d="M49.49,13.67a.09.09,0,0,0,0,.07.11.11,0,0,0,0,.08h0a.11.11,0,0,1,0-.08.09.09,0,0,1,0-.07Z"/><path d="M48.94,14a.18.18,0,0,1,0,.13.22.22,0,0,1-.1.09h0a.34.34,0,0,0,.09-.08.2.2,0,0,0,0-.13h0Z"/><path d="M48.93,13.85v.06s0,0,0,.06h0l0-.06v-.05h0Z"/><path d="M49.3,13.83h0v.1h0a0,0,0,0,1,0,0h0v-.13h0Z"/><path d="M49.39,13.66a.12.12,0,0,0,0,.09.29.29,0,0,0,0,.09.28.28,0,0,1,0,.15.42.42,0,0,1,0,.15h0s0,0,0,0a.57.57,0,0,0,0-.14.25.25,0,0,0,0-.14h0a.3.3,0,0,1,0-.1.16.16,0,0,1,0-.1h0Z"/><path d="M48.82,12.65a.22.22,0,0,1,.13-.06.31.31,0,0,1,.13,0h.11s0,0,0,0h-.09a.29.29,0,0,1-.14.08.14.14,0,0,1-.11,0s0,0,0,0h0a.16.16,0,0,0,.1,0,.4.4,0,0,0,.12-.07.17.17,0,0,0-.12,0,.21.21,0,0,0-.12.05h0s0,0,0,0Z"/><path d="M48.94,12.62a0,0,0,0,1,0,0,0,0,0,0,1,0,0,0,0,0,0,1,0,0Z"/><path d="M49.17,12.82l.06,0,0,0h0s0,0,0,0l0,0,0,0h0s0,0,0,0Z"/><path d="M49.63,12.63a0,0,0,0,1,0,0l0,0s0,0,0,0h0l0,0h0s0,0,0,0Z"/><path d="M49.37,12.64a.07.07,0,0,1,0-.05.13.13,0,0,1,.09,0h0a.08.08,0,0,0-.07,0,.08.08,0,0,0,0,0h0S49.37,12.64,49.37,12.64Z"/><path d="M49.4,12.68a0,0,0,0,1,0,0l0,0h0v0h0Z"/><path d="M49,12.83l0,0a.08.08,0,0,0,0,0h0a.07.07,0,0,1,0-.05.08.08,0,0,1,0,0h0Z"/><path d="M49.08,12.88v0h0v0Z"/><path d="M49,12.74h0Z"/><path d="M49.08,12.51h0l0,0h0l0,0h0Z"/><path d="M49,12.52h0s0,0,0,0h0s0,0,0,0l0,0h0S49,12.52,49,12.52Z"/><path d="M48.87,12.52l0,0v0h0l0,0,0,0h0S48.87,12.52,48.87,12.52Z"/><path d="M48.77,12.61l0,0,0,0h0s0,0,0,0l0,0,0,0h0Z"/><path d="M48.78,12.72l0,0,0,0h0s0,0,0,0l0,0,0,0h0Z"/><path d="M48.67,12.75v0a0,0,0,0,1,0,0h0v0h0Z"/><path d="M48.81,12.93V13h0v-.06h0Z"/><path d="M48.73,12.87v0h0v0h0Z"/><path d="M48.65,12.31a.07.07,0,0,1,.06.06h0a0,0,0,0,1,0,0l0,0,0,0h0Z"/><path d="M49.3,13.15a.31.31,0,0,1,0,.08.29.29,0,0,1,0,.09h0a.19.19,0,0,0,0-.08s0-.05,0-.08h0Z"/><path d="M49.09,13.39a.2.2,0,0,1,0-.08.18.18,0,0,1,0-.07.36.36,0,0,0,0-.09.27.27,0,0,0,0-.09h0a.17.17,0,0,1,0,.1.36.36,0,0,1,0,.09.18.18,0,0,0,0,.07.2.2,0,0,0,0,.08h0Z"/><path d="M48.82,13.32l0,0,0,0h0s0,0,0,0l0,0h0Z"/><path d="M48.77,13.3l0,0,0,0h0l0,0s0,0,0,0h0s0,0,0,0Z"/><path d="M49.05,13h0s0,0,0,0Z"/><path d="M48.91,13h0v0h0s0,0,0,0Z"/><path d="M51.92,13.88l0,0v0h0v0h0S51.92,13.87,51.92,13.88Z"/><path d="M48.57,15.45l0,0h.05l-.06,0,0,0h0Z"/><path class="cls-4" d="M51.1,12.45h.21a.5.5,0,0,1-.24.09.05.05,0,0,0,0,0A0,0,0,0,0,51.1,12.45Z"/><path class="cls-4" d="M50.92,12.43l.15,0h0a0,0,0,0,1,0,0,.05.05,0,0,1,0,0s0,0,0,0H50.9a.05.05,0,0,0,0,0,.07.07,0,0,0,0-.05Z"/><path class="cls-4" d="M49.61,12.05h.26a.1.1,0,0,1,.06.05.16.16,0,0,1,0,.1h0s0,0,0,0a.2.2,0,0,0,0-.11l0,0h0a.84.84,0,0,1,.27.08h0a.07.07,0,0,1,0,.06.13.13,0,0,1,0,.07s0,0,0,0h0a.2.2,0,0,0,0-.08,0,0,0,0,0,0,0l.22.11h0a0,0,0,0,1,0,.05.09.09,0,0,1-.06,0s0,0,0,0,0,0,0,0a.12.12,0,0,0,.07,0,.07.07,0,0,0,0-.05l.15.07h0s0,0,0,.05a.07.07,0,0,1,0,0v0h0l.06-.06a.06.06,0,0,0,0,0l0,0,.16,0h0a0,0,0,0,1,0,0l0,0s0,0,0,0h0a2,2,0,0,1-.52-.18l-.06,0-.19-.08h0l-.18-.05h-.21a.16.16,0,0,0,0-.1s0,0-.06,0Z"/><path class="cls-4" d="M49.31,12.13a1.25,1.25,0,0,1,.26-.07.1.1,0,0,1,.08.06.08.08,0,0,1,0,.08h-.11l-.12,0a.1.1,0,0,0-.07-.08l0,0Z"/><path class="cls-4" d="M50.24,12.61l-.07,0a.8.8,0,0,0-.38-.1h0a.14.14,0,0,0,0-.13.18.18,0,0,0-.08-.09h.13a.7.7,0,0,1,.22.07.13.13,0,0,1,0,.1.15.15,0,0,1-.07.09h0a.15.15,0,0,0,.08-.1.17.17,0,0,0,0-.1.41.41,0,0,1,.13.08l.13.09a.11.11,0,0,1-.15.11h0Z"/><path class="cls-4" d="M50.5,12.8c-.08-.06-.16-.13-.24-.18a.22.22,0,0,0,.12,0,.11.11,0,0,0,0-.1l.14.12.07.06h0v.05s0,0,0,0l0,0h-.08s0,0,0,0Z"/><path class="cls-4" d="M50.76,13l-.08,0-.16-.12h.08l0,0s0,0,0,0v0l.16.12.1.06h0s0,0,0,0l-.12,0Z"/><path class="cls-4" d="M51.05,13.08a2,2,0,0,1-.26-.09l.11,0s.06,0,.05-.07l.16.07a0,0,0,0,1,0,0s0,0-.06.05,0,0,0,0Z"/><path class="cls-4" d="M51.64,13s0,0,0,0a.8.8,0,0,1-.61.06.17.17,0,0,0,.08-.06,0,0,0,0,0,0,0,.78.78,0,0,0,.21,0,.08.08,0,0,1,0,0l-.06,0s0,0,0,0h0s.06,0,.07,0a0,0,0,0,0,0,0,1.24,1.24,0,0,0,.27,0Z"/><path class="cls-4" d="M50.43,16l0,.05a.42.42,0,0,1-.15,0s0,.05,0,.05l.09,0s0,.06-.06.1,0,0,0,0,.17,0,.24,0a.38.38,0,0,0,.16-.12s0,0,0-.07-.07,0-.07,0A.5.5,0,0,0,50.43,16Z"/><path class="cls-4" d="M48.54,15.43l-.13.07s-.07,0-.07,0a0,0,0,0,0,0,0c0-.06.08,0,0,0s0,0,0,0a.27.27,0,0,0,.26,0s.08-.07,0-.11v0h-.08l0,0Z"/><path class="cls-4" d="M49.79,15.86h0s0,0,.08,0a0,0,0,0,1,0,.06c0,.08-.23.06-.29,0s0,0,0-.06h0l.07,0s0,0,0,0,0,0,0,0l0,0h-.07a0,0,0,0,1,0,0h0l.09,0v0l.16,0Z"/><path class="cls-4" d="M48.89,15.81a.05.05,0,0,0,0,0l-.11.07s0,0,0,.05,0,0,.07-.05,0,0,0,0a.47.47,0,0,0,0,.09s.08,0,.09,0a.31.31,0,0,0,.15-.08.08.08,0,0,0,0-.1H49l-.07,0h0l-.09,0Z"/><path class="cls-4" d="M49.24,12.51h0l.07,0a.74.74,0,0,1,.22,0,.5.5,0,0,1,.21,0h0s0,0,0,0,0-.08,0-.11a.17.17,0,0,0-.09-.1h-.16l-.11,0,.08.05a.33.33,0,0,1,0,.12v0h0a.23.23,0,0,0-.05-.11s-.08-.05-.1-.06l-.15,0-.1,0a.14.14,0,0,1,.11,0,.11.11,0,0,1,.07.09s0,0,0,0h0a.1.1,0,0,0-.06-.08.28.28,0,0,0-.2,0l-.08.07h0a1.1,1.1,0,0,1,.27,0Zm-.29,0s0,0,0,0a.2.2,0,0,1,.08-.08s.05,0,.08,0a.21.21,0,0,1,.13-.07l.16,0a.17.17,0,0,0-.06-.06h-.09a.69.69,0,0,0-.19.1h.07s0,0-.06,0H49l-.15.12Z"/><path class="cls-5" d="M56.12,19.56l2.59-5.88L56.8,10.6l-3.41,1.26-1.58,6.21a27.41,27.41,0,0,1,4.31,1.49Z"/><path class="cls-3" d="M52.81,14.12a32.17,32.17,0,0,1,4.95,1.72l-1,2.27a28.57,28.57,0,0,0-4.56-1.58Z"/><path class="cls-4" d="M56.92,17.74l.67-1.51a30.59,30.59,0,0,0-4.88-1.69l-.4,1.55a28.13,28.13,0,0,1,4.63,1.6Z"/><path d="M53.19,15.72a.22.22,0,0,1,.14,0,.28.28,0,0,1,.13,0s0,0,.07,0,0,0,0,0l0,0a.34.34,0,0,1-.13-.18.14.14,0,0,1-.07,0h-.06a.16.16,0,0,1-.16,0,.14.14,0,0,1-.08-.05l0-.05s0-.08,0-.07h.09a.14.14,0,0,1,.11,0s.07,0,.11-.07v0s0,0,0,0a.12.12,0,0,1,.11.06.18.18,0,0,1,.15.1c.08,0,.14,0,.15.06s0,.05-.06.08h0s0,0,0,.06a.39.39,0,0,1,.14.08,1.13,1.13,0,0,1,.59.25,2.38,2.38,0,0,1,.52.15h.1a1.05,1.05,0,0,1,.85.2.9.9,0,0,1,.28.08l.2,0a1,1,0,0,1,.33.09.46.46,0,0,1,.3.15c0,.06,0,.11,0,.14s-.12.08-.23,0-.17,0-.25-.11a1.3,1.3,0,0,1-.31-.16.4.4,0,0,0-.16-.08.17.17,0,0,0-.1,0s0,0,0,0a.21.21,0,0,1,.06.1v.13c0,.05,0,.08.08.11a.32.32,0,0,0,.13.05s0,0,0,0a1.29,1.29,0,0,0,.06.21s0,0,0,0,0,.12,0,.13a.38.38,0,0,1-.17.1s-.07,0-.08,0a.06.06,0,0,1-.06,0c-.06,0,0-.12.13-.08a0,0,0,0,1,0,0,.2.2,0,0,1,0-.11l0,0a.39.39,0,0,1-.14-.08,1.83,1.83,0,0,0-.29-.18.42.42,0,0,1-.22-.08h-.1a0,0,0,0,0-.06,0s-.06,0-.1,0H55.1l-.07,0a.14.14,0,0,0-.13,0,.07.07,0,0,1-.08,0l0,0-.07,0c-.06,0-.07,0-.07-.05s0-.08,0-.08l.17,0a.2.2,0,0,0,.15,0s0,0,.06-.06a.53.53,0,0,1-.22-.06c-.15-.09-.27-.12-.36,0a.06.06,0,0,1-.07,0,.09.09,0,0,0-.07,0,.3.3,0,0,1-.16,0,.44.44,0,0,1-.23,0c-.06,0-.11,0-.14,0l-.08-.05s-.06,0-.06,0-.06,0-.06,0,0-.05,0-.06a.11.11,0,0,1,.12,0l.07,0h.07s.07,0,.12,0a.15.15,0,0,1,.1,0v0A.18.18,0,0,1,54,16a.43.43,0,0,1-.2-.07l-.12,0h-.09a.28.28,0,0,1-.18,0h-.1a.09.09,0,0,1-.12,0,.14.14,0,0,0-.1-.07s0,0,0,0,0,0,0-.07a.2.2,0,0,1,.13,0l.06,0Z"/><path class="cls-3" d="M55.14,16.31s0,0,0,0a.87.87,0,0,1-.28,0,.49.49,0,0,0-.25-.1l.1-.05a.36.36,0,0,1,.18,0l.24.05a.36.36,0,0,1,.13.09h0l.07,0,0,0h-.09l-.09,0Z"/><path d="M55.35,11.84v0l.12.61-.47.4,0,0h0l.58.2.12.61v0h0l.47-.41.58.2h0v0l-.11-.6.46-.41h0l-.59-.2-.11-.61v0l0,0-.47.41-.58-.2Z"/><path class="cls-7" d="M55.07,12.87l.43-.38.55.19Z"/><path class="cls-7" d="M56.12,12.66l.44-.38.54.19Z"/><path class="cls-7" d="M57.1,12.49l-.43.38-.55-.19Z"/><path class="cls-7" d="M56.05,12.7l-.43.37-.55-.18Z"/><path class="cls-7" d="M55.42,11.89l.54.19.11.57Z"/><path class="cls-7" d="M56.12,12.7l.54.19.11.56Z"/><path class="cls-7" d="M56.76,13.47l-.55-.19-.11-.57Z"/><path class="cls-7" d="M56.06,12.66l-.55-.19-.11-.56Z"/><path class="cls-7" d="M56.43,11.7l.11.57-.43.38Z"/><path class="cls-7" d="M56.08,12.72l.11.56-.43.38Z"/><path class="cls-7" d="M55.74,13.65l-.11-.56.44-.38Z"/><path class="cls-7" d="M56.09,12.64,56,12.08l.43-.38Z"/></g></svg>