<svg xmlns="http://www.w3.org/2000/svg" viewBox="0 0 90 60"><defs><style>.cls-1{fill:#c6c7c8;}.cls-2{fill:#171796;}.cls-3{fill:red;}.cls-4{fill:#fff;}.cls-5{fill:#0093dd;}</style></defs><title>croatia</title><g id="Back"><rect class="cls-1" width="90" height="60"/></g><g id="Flags"><rect class="cls-2" y="40" width="90" height="20"/><rect class="cls-3" width="90" height="20"/><rect class="cls-4" y="20" width="90" height="20"/><path class="cls-3" d="M45,45.52h0A11.7,11.7,0,0,0,56.67,33.85V20H33.34V33.85A11.7,11.7,0,0,0,45,45.52Z"/><path class="cls-4" d="M45,45.33h0A11.47,11.47,0,0,0,56.44,33.89V20.22H33.56V33.89A11.48,11.48,0,0,0,45,45.33Z"/><path class="cls-3" d="M38.39,20.65H34v4.84h4.4Z"/><path class="cls-3" d="M38.39,30.32h4.4V25.49h-4.4Z"/><path class="cls-3" d="M34,33.86a11.07,11.07,0,0,0,.08,1.3h4.32V30.32H34Z"/><path class="cls-3" d="M47.2,30.32H42.79v4.84H47.2Z"/><path class="cls-3" d="M47.2,40h4.4V35.16H47.2Z"/><path class="cls-3" d="M51.6,42.65A11.08,11.08,0,0,0,54.11,40H51.6Z"/><path class="cls-3" d="M38.39,40h4.4V35.16h-4.4Z"/><path class="cls-3" d="M35.87,40a11.13,11.13,0,0,0,2.52,2.65V40Z"/><path class="cls-3" d="M45.76,44.84a11.34,11.34,0,0,0,1.44-.2V40H42.79v4.64a11.44,11.44,0,0,0,1.43.2,13.19,13.19,0,0,0,1.54,0Z"/><path class="cls-3" d="M55.92,35.16a11.2,11.2,0,0,0,.08-1.3V30.33H51.6v4.83Z"/><path class="cls-3" d="M47.2,30.32h4.4V25.49H47.2Z"/><path class="cls-3" d="M47.2,20.65H42.79v4.84H47.2Z"/><path class="cls-3" d="M56,25.49V20.65H51.6v4.84Z"/><path class="cls-4" d="M56.25,19.85,59,13.66,56.9,10.31l-3.45,1.27L51,8.82l-3.19,1.82L45,8.32l-2.84,2.32L39,8.82l-2.42,2.76L33.1,10.31,31,13.67l2.73,6.19a27.31,27.31,0,0,1,22.5,0Z"/><path class="cls-5" d="M56.12,19.56l2.59-5.88L56.8,10.6l-3.41,1.26-1.58,6.21a27.41,27.41,0,0,1,4.31,1.49Z"/><path class="cls-4" d="M52.81,14.12a32.17,32.17,0,0,1,4.95,1.72l-1,2.27a28.57,28.57,0,0,0-4.56-1.58Z"/><path class="cls-3" d="M56.92,17.74l.67-1.51a30.59,30.59,0,0,0-4.88-1.69l-.4,1.55a28.13,28.13,0,0,1,4.63,1.6Z"/><path class="cls-5" d="M36.63,11.86h0L33.2,10.6l-1.91,3.08L32,15.35l1.86,4.21a27.89,27.89,0,0,1,4.32-1.49l-1.57-6.21Z"/><path class="cls-2" d="M42.19,10.93h0L39,9.12l-2.39,2.74,1.57,6.21a26.83,26.83,0,0,1,4.52-.76l-.53-6.38Z"/><path class="cls-3" d="M37.81,16.52a28.9,28.9,0,0,1,4.78-.79l-.14-1.62a32.13,32.13,0,0,0-5,.84l.4,1.57Z"/><path class="cls-3" d="M37,13.4a33.12,33.12,0,0,1,5.3-.88l-.13-1.59a34,34,0,0,0-5.56.93Z"/><path class="cls-5" d="M47.83,10.93h0L45,8.62l-2.81,2.31.53,6.38q1.13-.09,2.28-.09c.77,0,1.54,0,2.29.09l.54-6.38Z"/><path class="cls-2" d="M53.39,11.86h0L51,9.12l-3.15,1.81-.54,6.38a27.88,27.88,0,0,1,4.52.76l1.58-6.21Z"/></g></svg>