<svg id="Boutons" xmlns="http://www.w3.org/2000/svg" viewBox="0 0 90 60"><defs><style>.cls-1{fill:#fff;}.cls-2{fill:#ce1126;}.cls-3{fill:#c09300;}</style></defs><title>egypt</title><rect width="90" height="60"/><rect class="cls-1" width="90" height="40"/><rect class="cls-2" width="90" height="20"/><path class="cls-1" d="M45.08,30.24l6.85,6.36-.49-11.55c-.07-1.75-1.59-1.35-2.69-.72a4.14,4.14,0,0,1-3.75.25,4.12,4.12,0,0,1-3.74-.25c-1.11-.63-2.63-1-2.7.72L38.07,36.6l7-6.36Z"/><path class="cls-3" d="M51.93,36.66s0,0,0,0l-6.81-6.31-7,6.31a.06.06,0,0,1-.07,0,.09.09,0,0,1,0-.06l.49-11.55a1.31,1.31,0,0,1,.56-1.19c.69-.38,1.79.17,2.23.42a4.06,4.06,0,0,0,3.69.24h0a4.06,4.06,0,0,0,3.69-.24c.44-.25,1.54-.8,2.23-.42a1.34,1.34,0,0,1,.57,1.19L52,36.6a.09.09,0,0,1,0,.06Zm-12.3-12.8a1,1,0,0,0-.51.12,1.17,1.17,0,0,0-.5,1.07l-.48,11.4L45,30.19a.06.06,0,0,1,.08,0l6.74,6.26-.48-11.4a1.17,1.17,0,0,0-.5-1.07c-.63-.35-1.68.17-2.1.41a4.19,4.19,0,0,1-3.78.25,4.19,4.19,0,0,1-3.78-.25A3.55,3.55,0,0,0,39.63,23.86Z"/><g id="w"><path class="cls-3" d="M39.35,24.65l-.48,11.23-.8.72.49-11.55a2.34,2.34,0,0,1,.79-.4Z"/><path class="cls-3" d="M40.31,25.45l-.4,9.4-.81.82.49-10.85c.16.16.63.55.72.63Z"/><path class="cls-3" d="M41.18,26.17,40.87,34l-.65.63.4-8.94c.16.15.48.38.56.47Z"/><path class="cls-3" d="M42.13,26.57l-.31,6.68-.64.51.32-7.43a2.33,2.33,0,0,0,.63.24Z"/><path class="cls-3" d="M43,26.57l-.23,5.57-.65.63.24-6.13a1.77,1.77,0,0,0,.64-.07Z"/></g><g id="w-2" data-name="w"><path class="cls-3" d="M50.65,24.65l.48,11.23.8.72-.49-11.55a2.34,2.34,0,0,0-.79-.4Z"/><path class="cls-3" d="M49.69,25.45l.4,9.4.81.82-.49-10.85c-.16.16-.63.55-.72.63Z"/><path class="cls-3" d="M48.82,26.17,49.13,34l.65.63-.4-8.94c-.16.15-.48.38-.56.47Z"/><path class="cls-3" d="M47.87,26.57l.31,6.68.64.51-.32-7.43a2.33,2.33,0,0,1-.63.24Z"/><path class="cls-3" d="M47,26.57l.23,5.57.65.63-.24-6.13a1.77,1.77,0,0,1-.64-.07Z"/></g><path class="cls-3" d="M45.32,31.51l1,4.37L46,36.2,45.63,36l-.54-3.9.23,3.9-.32.4-.32-.4.23-3.9L44.37,36,44,36.2l-.32-.32,1-4.37Z"/><path class="cls-3" d="M45,36.44,44.63,36l.15-2.58L44.42,36l-.39.29-.37-.37,1-4.45h.72l1,4.45-.37.37L45.58,36l-.36-2.59L45.37,36Zm-.26-.5.26.33.26-.33L45,32.05h.11l.54,3.88.28.21.26-.27-.95-4.3h-.54l-.95,4.3.26.27.28-.21L44.86,32H45Z"/><g id="b"><path class="cls-1" d="M42.85,29.58l-1.91,6.77,2.63.41,1.11-5.1-1.83-2.08Z"/><path class="cls-3" d="M43.57,36.82h0l-2.63-.41,0,0a.11.11,0,0,1,0,0l1.91-6.77s0,0,0,0a.06.06,0,0,1,.06,0l1.84,2.08a.07.07,0,0,1,0,.06l-1.12,5.09A.05.05,0,0,1,43.57,36.82ZM41,36.31l2.5.38,1.1-5-1.74-2Z"/><path class="cls-3" d="M42.45,32.52h0a.08.08,0,0,1,0,0l-.23-.56.12-.05.19.47,1.17-1.12.09.09L42.49,32.5Z"/><path class="cls-3" d="M43.34,33h0s0,0,0-.06L43,30.5h.13l.24,2.27.69-.9.11.07-.79,1Z"/><rect class="cls-3" x="43.96" y="32.26" width="0.13" height="1.55" transform="translate(-7.46 13.56) rotate(-16.16)"/><path class="cls-3" d="M43.75,35.89l-.25-1.17-.51.79s0,0-.06,0a.07.07,0,0,1-.06,0l-.27-.83-.5.83a.07.07,0,0,1-.06,0,.1.1,0,0,1-.06-.05L41.57,34a.07.07,0,0,1,0-.06l.82-.84a.08.08,0,0,1,.11,0l.22.79.51-.69a0,0,0,0,1,.06,0s0,0,.05.05l.22,1.19.79-1.2.1.07-.86,1.31.27,1.29Zm-1.13-1.43h0a.07.07,0,0,1,0,0l.27.83.51-.79-.21-1.16-.5.67a0,0,0,0,1-.06,0,.07.07,0,0,1,0,0l-.23-.81L41.7,34l.37,1.34.49-.81A.09.09,0,0,1,42.62,34.46Z"/><path class="cls-3" d="M43.1,36.78,42.83,36l-.4.68a.07.07,0,0,1-.06,0,.07.07,0,0,1-.06,0l-.3-1-.46.63-.1-.07.53-.74a.07.07,0,0,1,.06,0,.07.07,0,0,1,.05,0l.3,1,.4-.68.06,0a.06.06,0,0,1,.06.05l.31,1Z"/></g><g id="b-2" data-name="b"><path class="cls-1" d="M47.15,29.58l1.91,6.77-2.63.41-1.11-5.1,1.83-2.08Z"/><path class="cls-3" d="M46.43,36.82a.05.05,0,0,1,0,0l-1.12-5.09a.07.07,0,0,1,0-.06l1.84-2.08a.06.06,0,0,1,.06,0s0,0,0,0l1.91,6.77a.11.11,0,0,1,0,0l0,0-2.63.41Zm-1-5.14,1.1,5,2.5-.38-1.86-6.6Z"/><path class="cls-3" d="M47.55,32.52l0,0-1.24-1.19.09-.09,1.17,1.12.19-.47.12.05-.23.56a.08.08,0,0,1,0,0Z"/><path class="cls-3" d="M46.66,33l0,0-.79-1,.11-.07.69.9.24-2.27H47l-.26,2.43s0,0,0,.06Z"/><rect class="cls-3" x="45.2" y="32.98" width="1.55" height="0.13" transform="translate(1.45 68.01) rotate(-73.85)"/><path class="cls-3" d="M46.25,35.89l-.12,0,.27-1.29-.86-1.31.1-.07.79,1.2.22-1.19s0-.05.05-.05a0,0,0,0,1,.06,0l.51.69.22-.79a.08.08,0,0,1,.11,0l.82.84a.07.07,0,0,1,0,.06L48,35.48a.1.1,0,0,1-.06.05.07.07,0,0,1-.06,0l-.5-.83-.27.83a.07.07,0,0,1-.06,0s0,0-.06,0l-.51-.79Zm.29-1.35.51.79.27-.83a.07.07,0,0,1,0,0s.05,0,.07,0l.49.81L48.3,34l-.72-.74-.22.81a.07.07,0,0,1,0,0,0,0,0,0,1-.06,0l-.5-.67Z"/><path class="cls-3" d="M46.9,36.78l-.12,0,.31-1a.06.06,0,0,1,.06-.05l.06,0,.4.68.3-1a.07.07,0,0,1,.05,0,.07.07,0,0,1,.06,0l.53.74-.1.07L48,35.6l-.3,1a.07.07,0,0,1-.06,0,.07.07,0,0,1-.06,0l-.4-.68Z"/></g><path class="cls-1" d="M45,39.38a21.48,21.48,0,0,0,5-.47c.47-.09.47-.33.47-.65.48-.16.23-.71.56-.71-.33.08-.4-.56-.8-.48,0-.56-.56-.63-1-.47A16.17,16.17,0,0,1,45,37a20.68,20.68,0,0,1-4.22-.39c-.47-.16-1-.09-1,.47-.4-.08-.47.56-.8.48.33,0,.08.55.56.71,0,.32,0,.56.48.65a21.33,21.33,0,0,0,5,.47Z"/><path class="cls-3" d="M45,39.5A20.28,20.28,0,0,1,40,39c-.54-.09-.58-.38-.58-.68a.65.65,0,0,1-.34-.5c0-.11,0-.15-.07-.17h-.06a.12.12,0,0,1,0-.23H39s.11-.07.19-.18a.65.65,0,0,1,.43-.3.57.57,0,0,1,.24-.41,1,1,0,0,1,.94,0,14.5,14.5,0,0,0,3.33.34l.86,0a15.38,15.38,0,0,0,4.17-.38,1,1,0,0,1,.94,0,.57.57,0,0,1,.24.41.65.65,0,0,1,.43.3c.08.11.14.17.19.18h.07a.12.12,0,0,1,0,.23H51s0,.06-.07.17a.65.65,0,0,1-.34.5.58.58,0,0,1-.56.68A20.63,20.63,0,0,1,45,39.5Zm-5.78-1.9a.64.64,0,0,1,.06.18c0,.17.07.31.26.37a.12.12,0,0,1,.08.11c0,.32,0,.46.39.53h0a20.37,20.37,0,0,0,5,.47,20.67,20.67,0,0,0,5-.47h0c.38-.07.38-.21.38-.53a.12.12,0,0,1,.08-.11c.19-.06.22-.2.26-.37a1.27,1.27,0,0,1,.06-.18,1.12,1.12,0,0,1-.18-.2c-.13-.16-.2-.24-.32-.21a.09.09,0,0,1-.1,0,.11.11,0,0,1,0-.09.43.43,0,0,0-.14-.34.86.86,0,0,0-.73,0A15.19,15.19,0,0,1,45,37.1l-.86,0a14.13,14.13,0,0,1-3.4-.36.83.83,0,0,0-.72,0,.41.41,0,0,0-.15.34.11.11,0,0,1,0,.09.09.09,0,0,1-.1,0c-.12,0-.19.05-.32.21A1.12,1.12,0,0,1,39.22,37.6Z"/><path class="cls-1" d="M42.29,36.35a7.91,7.91,0,0,0,1.92.09c.32,0,.55.55-.08.63A8,8,0,0,1,42.22,37c-.4-.08-1.28-.23-1.84-.39s-.16-.72.16-.65a9.83,9.83,0,0,0,1.75.4Z"/><path class="cls-3" d="M43.58,37.16a8.42,8.42,0,0,1-1.37-.11c-.35-.06-1.27-.23-1.85-.39-.38-.17-.33-.41-.31-.48a.45.45,0,0,1,.5-.29,9.89,9.89,0,0,0,1.75.4h0a8.13,8.13,0,0,0,1.9.09h0a.4.4,0,0,1,.39.35c0,.08,0,.34-.46.4A3.14,3.14,0,0,1,43.58,37.16ZM40.47,36a.31.31,0,0,0-.29.21c0,.12,0,.24.23.32.56.16,1.47.32,1.82.38a7.63,7.63,0,0,0,1.89.09c.23,0,.35-.13.34-.27a.28.28,0,0,0-.25-.24,7.85,7.85,0,0,1-1.93-.08h0A10.58,10.58,0,0,1,40.52,36Z"/><path class="cls-1" d="M47.71,36.35a7.85,7.85,0,0,1-1.91.09c-.33,0-.56.55.08.63a7.87,7.87,0,0,0,1.9-.08c.41-.08,1.28-.23,1.84-.39s.16-.72-.16-.65a9.83,9.83,0,0,1-1.75.4Z"/><path class="cls-3" d="M46.42,37.16a3.14,3.14,0,0,1-.55,0c-.44-.06-.46-.32-.46-.39a.41.41,0,0,1,.39-.36,8.1,8.1,0,0,0,1.9-.09,9.52,9.52,0,0,0,1.74-.4.47.47,0,0,1,.51.29c0,.07.07.31-.3.48-.59.16-1.51.33-1.86.39A8.42,8.42,0,0,1,46.42,37.16Zm-.62-.66a.28.28,0,0,0-.26.25c0,.13.12.23.34.26a7.63,7.63,0,0,0,1.89-.09c.35-.06,1.26-.22,1.83-.38.18-.08.27-.2.23-.32a.33.33,0,0,0-.35-.21,10.58,10.58,0,0,1-1.76.41h0A7.79,7.79,0,0,1,45.8,36.5Zm1.91-.15Z"/><path class="cls-1" d="M40.31,36a.55.55,0,0,0-.56.79c.07-.16.4-.16.47-.32s-.07-.24.09-.47Z"/><path class="cls-3" d="M39.75,36.89a.07.07,0,0,1-.06,0,.68.68,0,0,1,.08-.67.55.55,0,0,1,.55-.21.05.05,0,0,1,0,0,.06.06,0,0,1,0,.06.29.29,0,0,0-.06.21.38.38,0,0,1,0,.25.43.43,0,0,1-.27.2c-.09,0-.18.07-.2.12a.05.05,0,0,1-.06,0Zm.45-.8a.44.44,0,0,0-.33.18.56.56,0,0,0-.1.43,1.63,1.63,0,0,1,.19-.09.42.42,0,0,0,.21-.12.32.32,0,0,0,0-.19A.32.32,0,0,1,40.2,36.09Z"/><path class="cls-1" d="M42.22,37.51c0-.32.31-.28.31-.6,0-.15-.08-.4-.24-.4a.34.34,0,0,0-.32.32C41.9,37.14,42.22,37.19,42.22,37.51Z"/><path class="cls-3" d="M42.22,37.57a.07.07,0,0,1-.07-.06.45.45,0,0,0-.12-.29.44.44,0,0,1-.12-.4.4.4,0,0,1,.38-.37c.2,0,.31.27.31.46a.43.43,0,0,1-.18.35.28.28,0,0,0-.14.25A.06.06,0,0,1,42.22,37.57Zm.07-1a.28.28,0,0,0-.25.25h0c0,.14,0,.21.09.31a.6.6,0,0,1,.09.13l.11-.12a.28.28,0,0,0,.14-.25C42.47,36.78,42.39,36.58,42.29,36.58Z"/><path class="cls-1" d="M44.49,36.6c.47,0,.42.63.19.94,0-.22-.4-.31-.4-.47s.37-.24.21-.47Z"/><path class="cls-3" d="M44.68,37.61h0a.08.08,0,0,1,0-.06c0-.1-.1-.17-.2-.24s-.2-.13-.2-.24a.33.33,0,0,1,.16-.27c.09-.07.11-.09.06-.17a0,0,0,0,1,0-.06.07.07,0,0,1,.06,0,.39.39,0,0,1,.37.22.91.91,0,0,1-.12.83A.09.09,0,0,1,44.68,37.61Zm.07-.06Zm-.16-.88c0,.11-.07.18-.13.23s-.11.1-.11.17.07.09.14.14a.91.91,0,0,1,.21.18.69.69,0,0,0,0-.59A.28.28,0,0,0,44.59,36.67Z"/><path class="cls-1" d="M49.69,36a.55.55,0,0,1,.56.79c-.07-.16-.4-.16-.47-.32s.07-.24-.09-.47Z"/><path class="cls-3" d="M50.25,36.89h0a.05.05,0,0,1-.06,0c0-.05-.11-.09-.2-.12a.45.45,0,0,1-.27-.19.41.41,0,0,1,0-.26c0-.06,0-.1-.06-.2a.09.09,0,0,1,0-.07.05.05,0,0,1,0,0,.55.55,0,0,1,.55.21.68.68,0,0,1,.08.67A.07.07,0,0,1,50.25,36.89Zm-.45-.8a.32.32,0,0,1,0,.21.27.27,0,0,0,0,.19s.11.09.2.12a1.63,1.63,0,0,1,.19.09.56.56,0,0,0-.1-.43A.44.44,0,0,0,49.8,36.09Z"/><path class="cls-1" d="M47.78,37.51c0-.32-.31-.28-.31-.6,0-.15.08-.4.24-.4a.34.34,0,0,1,.32.32c.07.31-.25.36-.25.68Z"/><path class="cls-3" d="M47.78,37.57a.06.06,0,0,1-.06-.06.28.28,0,0,0-.14-.25.43.43,0,0,1-.18-.35c0-.19.11-.46.31-.46a.4.4,0,0,1,.38.37.43.43,0,0,1-.12.4.45.45,0,0,0-.12.29A.07.07,0,0,1,47.78,37.57Zm-.07-1c-.1,0-.18.2-.18.33a.28.28,0,0,0,.14.25l.11.12a.6.6,0,0,1,.09-.13.35.35,0,0,0,.1-.31h0A.28.28,0,0,0,47.71,36.58Z"/><path class="cls-1" d="M45.51,36.6c-.47,0-.42.63-.19.94,0-.22.4-.31.4-.47S45.35,36.83,45.51,36.6Z"/><path class="cls-3" d="M45.32,37.61a.09.09,0,0,1-.06,0,.91.91,0,0,1-.12-.83.39.39,0,0,1,.37-.22.07.07,0,0,1,.06,0,0,0,0,0,1,0,.06c-.05.08,0,.1.06.17a.33.33,0,0,1,.16.27c0,.11-.1.17-.2.24s-.2.14-.2.24a.07.07,0,0,1-.05.06Zm.09-.94a.34.34,0,0,0-.16.13.73.73,0,0,0,0,.59.91.91,0,0,1,.21-.18c.07-.05.14-.1.14-.14s0-.11-.11-.17S45.39,36.78,45.41,36.67Z"/><path class="cls-1" d="M40.47,36.2a.82.82,0,0,1,.47.15l-.47-.15Z"/><path class="cls-3" d="M40.94,36.4h0l-.47-.16h0s0,0,0,0,0,0,0,0a.78.78,0,0,1,.5.18s0,0,0,.05Z"/><path class="cls-1" d="M41.25,36.44a1.61,1.61,0,0,1,.56.16l-.56-.16Z"/><path class="cls-3" d="M41.81,36.64h0l-.55-.15,0,0h0a0,0,0,0,1,0,0s0,0,0,0a1.7,1.7,0,0,1,.58.16s0,0,0,.06Z"/><path class="cls-1" d="M44.12,36.76a1.32,1.32,0,0,0-.55.07l.55-.07Z"/><path class="cls-3" d="M43.57,36.87l0,0a.07.07,0,0,1,0-.06,1.25,1.25,0,0,1,.58-.08h0l0,0a0,0,0,0,1,0,.05l0,0-.55.07Z"/><path class="cls-1" d="M43.25,36.76a.61.61,0,0,0-.56,0Z"/><path class="cls-3" d="M43.25,36.8h-.56s0,0,0,0a0,0,0,0,1,0-.05.69.69,0,0,1,.61,0s0,0,0,.05S43.27,36.8,43.25,36.8Z"/><path class="cls-1" d="M49.53,36.2a.87.87,0,0,0-.47.15Z"/><path class="cls-3" d="M49.06,36.4l0,0a0,0,0,0,1,0-.06.86.86,0,0,1,.5-.17s0,0,0,0a.05.05,0,0,1,0,.05l-.48.16Z"/><path class="cls-1" d="M48.75,36.44a1.61,1.61,0,0,0-.56.16l.56-.16Z"/><path class="cls-3" d="M48.19,36.64l0,0s0,0,0-.06a1.7,1.7,0,0,1,.58-.16s0,0,0,0a0,0,0,0,1,0,0h0l-.55.16Z"/><path class="cls-1" d="M45.88,36.76a1.32,1.32,0,0,1,.55.07l-.56-.07Z"/><path class="cls-3" d="M46.43,36.87h0l-.55-.07h0a.11.11,0,0,1,0,0,.05.05,0,0,1,.05,0h0a1.25,1.25,0,0,1,.58.08.07.07,0,0,1,0,.06Z"/><path class="cls-1" d="M46.75,36.76a.61.61,0,0,1,.56,0Z"/><path class="cls-3" d="M47.31,36.8h-.56a0,0,0,0,1,0,0,.05.05,0,0,1,0,0,.69.69,0,0,1,.61,0,0,0,0,0,1,0,.05S47.33,36.8,47.31,36.8Z"/><path class="cls-3" d="M40.33,37.46a.07.07,0,0,1-.06-.1c0-.07.06-.1.11-.08s.08.06.08.08,0,.08,0,.08h-.09Z"/><path class="cls-3" d="M45.83,37.85a.12.12,0,0,1,0-.07.12.12,0,0,1,.09-.1l.08,0a.08.08,0,0,1,0,.12.14.14,0,0,1-.11,0Z"/><path class="cls-3" d="M45.86,38.1A.1.1,0,0,1,45.8,38c0-.05,0-.06.05-.09l0,0,0,0S46,38,46,38a.1.1,0,0,1-.07.09s0,0-.07,0Z"/><path class="cls-3" d="M40.77,37a.19.19,0,0,0-.1.05c-.07,0-.14,0-.21,0s-.14,0-.15.07a.11.11,0,0,0,.16.06c0-.05.15-.09.17,0s0,.16-.08.23a.5.5,0,0,1-.05.13.22.22,0,0,0-.14,0,.21.21,0,0,0-.16.08.48.48,0,0,0-.09.19c0,.07.1.09.16.1l.2.06.32.09c.16.05.32.07.48.11h0c.07,0,.1-.05.11-.11l.09-.35c0-.05,0-.15,0-.13s-.1.08-.16.08,0,.1,0,.14a.29.29,0,0,1-.06.17c-.05,0-.11,0-.17,0s-.17,0-.12-.1,0-.13.05-.18a.65.65,0,0,0,0-.2c0-.07-.09,0-.14,0s-.16,0-.1.09,0,.12,0,.18a.11.11,0,0,1-.15.07c-.06,0-.15-.05-.1-.11a1.21,1.21,0,0,0,0-.18,1.59,1.59,0,0,1,.07-.2.64.64,0,0,1,.06-.18c0-.07,0-.12,0-.19s0-.05,0-.05Zm-.35.72h0s0,0,0,0l0,0s-.06,0-.06,0,0,0,0,0l0,0Z"/><path class="cls-3" d="M40.31,38.24c-.05-.05,0-.08,0-.14s0,0,.09,0,.06.08,0,.13l-.06,0a.1.1,0,0,1-.07,0Z"/><path class="cls-3" d="M40.62,38.33a.09.09,0,0,1-.07-.11s0,0,.09,0,.08,0,.08.08,0,0,0,.06l-.08,0Z"/><path class="cls-3" d="M49.53,38.34a.07.07,0,0,1,0-.06s0-.07.08-.09.09,0,.12,0,0,.08,0,.12,0,0-.08,0-.06,0-.08,0Z"/><path class="cls-3" d="M41,38.45a.08.08,0,0,1-.05-.08s0,0,0-.06l.06,0h.06s.06.08,0,.12-.06,0-.12,0Z"/><path class="cls-3" d="M43.21,38.55l0,0a.41.41,0,0,1,0-.16.78.78,0,0,1,0-.16c0-.1,0-.19,0-.28a.32.32,0,0,1,0-.14,1.5,1.5,0,0,1,0-.22s0-.1.06-.06a.67.67,0,0,0,.14.15s0,.07,0,.08,0,.06,0,.1,0,.08,0,.12,0,.13,0,.19a1.21,1.21,0,0,0,0,.19s0,.08,0,.12a.14.14,0,0,1,0,.11.09.09,0,0,1-.11,0Z"/><path class="cls-3" d="M46.18,37.57l-.13.12c-.06.05.05.07.06.11a.55.55,0,0,1,0,.18.35.35,0,0,1,0,.17c0,.07-.08.05-.12.09s-.07.07-.11.1a.45.45,0,0,0,0,.16s0,.1,0,.14v0s0,0,.05,0a.37.37,0,0,0,.15,0,2.31,2.31,0,0,1,.37,0l.22,0c.06,0,.09-.05.08-.1s0-.14,0-.21a1.49,1.49,0,0,1,0-.21.06.06,0,0,0-.11,0s-.09.05-.11.09.06.06.07.1a.39.39,0,0,1,0,.15c0,.06-.05.06-.09.07s-.13,0-.16,0a.39.39,0,0,1,0-.15,2.48,2.48,0,0,1,0-.27c0-.11,0-.22,0-.32s0-.12-.08-.11Zm-.06.82h0v.07h-.1s0,0,0-.07l0,0Z"/><path class="cls-3" d="M43.12,37.47s-.08.07-.12.06-.08.1,0,.13,0,.06,0,.08,0,.15,0,.23,0,.17,0,.26a1.26,1.26,0,0,0,0,.27c0,.08-.07,0-.12,0s0-.07,0-.1,0-.11-.11-.12-.1-.05-.08-.11.1,0,.15,0,.09-.12,0-.16-.12-.09-.14-.16a.24.24,0,0,0-.12-.21.24.24,0,0,0-.23.18l-.14,0c-.07,0-.17.14-.07.19s.22.05.14.13a.15.15,0,0,1-.19,0c-.07,0-.15,0-.15-.12a.85.85,0,0,0,0-.23c0-.08-.11-.06-.12,0a.13.13,0,0,0,0,.2.31.31,0,0,1,0,.23c0,.08-.12.09-.19.11s-.16,0-.11.07a.39.39,0,0,0,.24,0,.27.27,0,0,0,.19-.14c.06,0,.15,0,.23,0s.15,0,.23,0,.12-.15.15,0,.07.13.15.12.05.06.05.12a.23.23,0,0,0,.15.18h.08c.07,0,.15-.06.18-.14a1.74,1.74,0,0,0,.05-.22,2,2,0,0,0,0-.34,3.11,3.11,0,0,0,0-.32,1,1,0,0,0,0-.23s0,0-.05,0Zm-.67.41s0,0,0,0a.08.08,0,0,0,.05.08s0,0,0,0a.1.1,0,0,1-.07,0,.17.17,0,0,1-.12-.05l0,0,0,0,.05,0s0,0,.07,0Z"/><path class="cls-3" d="M49.05,37.09l-.17,0a.08.08,0,0,0-.05.16c.06.15.15,0,.25,0s.15.18.18.3a1.3,1.3,0,0,0,.07.33c.1.11-.07.18-.14.09s-.19-.14-.27,0-.09.16-.17.19-.13-.11-.2-.17-.17-.09-.26-.12,0-.24-.11-.3-.21.17-.1.24,0,.14-.1.21a.5.5,0,0,0-.09.29c-.13.07-.15-.08-.17-.17s-.1-.08-.17,0-.14.13-.21.2,0,.14,0,.21.12,0,.18,0,.14.07.06.13-.22,0-.21.14h.17a.29.29,0,0,0,.23-.23c0-.11.17-.09.25-.11s.23,0,.26.09.22.16.3.06a.24.24,0,0,0,.11-.23c0-.08.13-.08.17,0s.21.06.29,0,.1-.17.22-.17.36-.09.54-.15,0-.12-.06-.18-.2.17-.32.06-.09-.21-.12-.31a.7.7,0,0,0-.12-.4.32.32,0,0,0-.25-.09Zm-.68.95.05,0a.12.12,0,0,1,.07.1s0,0,0,0l-.05,0s-.07,0-.07-.05,0,0,0,0,0,0,0-.06Zm.65,0a.06.06,0,0,1,.08,0s0,.06,0,.08l-.05,0,0,0s0,0,0,0S49,38.08,49,38.08Zm-.89,0,0,0a.07.07,0,0,1,0,.06v.06s0,0-.06,0-.07,0-.06-.06,0,0,0-.07S48.12,38.09,48.13,38.08Zm-.55.15a0,0,0,0,1,0,0,0,0,0,0,1,0,.06s-.08,0-.09,0l0,0s0,0,0,0h0a0,0,0,0,1,0,0s0,0,.06,0Zm.92.12h0s0,0,0,.06h-.11v0s0,0,0,0Z"/><path class="cls-3" d="M46.79,38.83s0,0,0,0,0,0,.08-.06a.36.36,0,0,0,.14-.11s0,0,0-.08a.76.76,0,0,0,0-.15.18.18,0,0,0-.08-.09s-.07,0-.08-.06,0-.06,0-.1L47,38s.07,0,.08,0a.41.41,0,0,1,.05.09.34.34,0,0,1,.06.12.18.18,0,0,1,0,.1s0,.07,0,.12a.44.44,0,0,1,0,.16s0,.05-.06.08a.23.23,0,0,1-.1.07s0,0-.09,0H46.8s0,0,0,0Z"/><path class="cls-3" d="M46.1,38.87a.07.07,0,0,1,0-.06s0,0,0-.05.06,0,.14,0,.1,0,.1,0a.11.11,0,0,1,.09,0l.06,0s0,0,0,.07,0,.05,0,.08a.08.08,0,0,1-.07,0,.1.1,0,0,1-.08-.06s0,0,0,0h0l-.08,0h0s0,0-.07,0Z"/><path class="cls-3" d="M44.12,38a.16.16,0,0,0-.15.13c0,.07.08.14,0,.22s-.08.14-.15.09a1.14,1.14,0,0,0-.13-.3c-.08,0-.11.11-.17.15s.11.15.12.24a.23.23,0,0,1-.11.24c-.07.07-.17,0-.25.06s.07.08.12.08a.34.34,0,0,0,.29-.08c.08,0,.07-.17.16-.18a3.87,3.87,0,0,1,.48,0c.08,0,.22,0,.27.05s.1.18.19.22.1,0,.15-.06.07-.15.13-.2h.49s0-.05.07-.07,0-.12,0-.19,0-.18,0-.25-.16.05-.24.06a.3.3,0,0,0-.18.23c0,.09-.14,0-.11-.09a.34.34,0,0,0,0-.1c0-.06-.14,0-.21,0l-.3,0a1.2,1.2,0,0,1-.27,0c-.11,0-.09-.11-.11-.18l-.06,0Zm.2.37h.23c.1,0,.2,0,.29,0a.1.1,0,0,1,.07,0v.2s0,.06,0,.08l0,0a.13.13,0,0,1-.07,0,.4.4,0,0,1,0-.11v0a.11.11,0,0,0-.07,0h-.25a.79.79,0,0,1-.22,0s-.06,0-.08,0,0-.06,0-.07l.1,0Zm1.13,0s0,0,0,0a.43.43,0,0,0,0,.05s0,0,0,0a.12.12,0,0,1-.12,0s0,0,0-.06l.08,0Z"/><path class="cls-1" d="M45,32.72a7.61,7.61,0,0,0,3-6.19,1.07,1.07,0,0,1-.25,0,4.81,4.81,0,0,1-2.7-.89,5.58,5.58,0,0,1-2.76.89,1.07,1.07,0,0,1-.25,0,7.58,7.58,0,0,0,3,6.19Z"/><path class="cls-3" d="M45,32.8l0,0a7.72,7.72,0,0,1-3-6.24v-.07l.06,0,.24,0A5.51,5.51,0,0,0,45,25.63l0-.05,0,.06a4.86,4.86,0,0,0,2.65.86,1,1,0,0,0,.24,0H48v.06a7.75,7.75,0,0,1-3,6.24Zm-2.93-6.2a7.65,7.65,0,0,0,2.93,6,7.65,7.65,0,0,0,2.93-6l-.2,0a5.17,5.17,0,0,1-2.7-.86,6,6,0,0,1-2.76.86Z"/><path class="cls-1" d="M47.72,26.8h-.08A5.34,5.34,0,0,1,45,26a6.06,6.06,0,0,1-2.66.8h-.08c0,.14,0,.28,0,.41a7.31,7.31,0,0,0,.25,1.46A7.06,7.06,0,0,0,45,32.38a7.11,7.11,0,0,0,2.46-3.72,7.85,7.85,0,0,0,.25-1.45c0-.13,0-.27,0-.41Z"/><path class="cls-3" d="M45,32.44l0,0a7.2,7.2,0,0,1-2.47-3.74,6.87,6.87,0,0,1-.25-1.46c0-.11,0-.27,0-.42v-.06h.13A5.94,5.94,0,0,0,45,26l0,0,0,0a5.32,5.32,0,0,0,2.59.78h.13v0c0,.15,0,.3,0,.41a6.85,6.85,0,0,1-.25,1.47A7.2,7.2,0,0,1,45,32.42Zm-2.68-5.59a3.53,3.53,0,0,0,0,.36,7.32,7.32,0,0,0,.24,1.45A7,7,0,0,0,45,32.32a7,7,0,0,0,2.41-3.67,6.59,6.59,0,0,0,.25-1.44c0-.1,0-.23,0-.36h0A5.38,5.38,0,0,1,45,26.07a6.2,6.2,0,0,1-2.66.78Z"/><path class="cls-3" d="M43.94,26.5a6,6,0,0,1-1.58.31h-.08c0,.14,0,.28,0,.41a8.11,8.11,0,0,0,.25,1.46,7.05,7.05,0,0,0,1.4,2.67V26.5Z"/><path class="cls-3" d="M46,26.49v4.93a7.13,7.13,0,0,0,1.46-2.76,7.85,7.85,0,0,0,.25-1.45c0-.13,0-.27,0-.41h-.08A6,6,0,0,1,46,26.49Z"/><path class="cls-1" d="M46.23,25.31c.07,0-.09-.36-.09-.36a2,2,0,0,0,.84.23c-.4-.18-.8-1.51-.75-2.58s-.15-1.48-.31-1.64a2.48,2.48,0,0,0-1.27-.4c-.23,0-.2.18-.2.18a1.59,1.59,0,0,0-1.08,0c-.19.12-.23.75-.09.64.33-.27.62,0,.82.27A2.61,2.61,0,0,1,44,23.45a6.07,6.07,0,0,1-1,1.77,2.38,2.38,0,0,0,.95-.35l-.13.55a3.64,3.64,0,0,0,.75-.51l.4.42a3.44,3.44,0,0,1,.4-.42,1.45,1.45,0,0,0,.84.4Z"/><path class="cls-3" d="M43.75,25.53l.13-.54a2.09,2.09,0,0,1-.86.29h-.13l.08-.1a6.14,6.14,0,0,0,1-1.75,2.6,2.6,0,0,0,.1-1.77.7.7,0,0,0-.44-.35.4.4,0,0,0-.29.1.12.12,0,0,1-.11,0s-.06-.07-.07-.15a.75.75,0,0,1,.2-.61,1.66,1.66,0,0,1,1.06,0,.14.14,0,0,1,0-.09.29.29,0,0,1,.22-.07,2.47,2.47,0,0,1,1.3.42c.18.17.38.61.33,1.69A3.48,3.48,0,0,0,47,25.12l0,.12a3.41,3.41,0,0,1-.72-.14c.07.18,0,.22,0,.24a.07.07,0,0,1-.06,0h0a1.49,1.49,0,0,1-.84-.38,3.35,3.35,0,0,0-.35.38l0,.05L44.58,25a2.89,2.89,0,0,1-.72.48Zm.31-.8-.13.57a3.32,3.32,0,0,0,.62-.44l0,0,.39.42a4.65,4.65,0,0,1,.37-.38l0,0,0,.05a1.45,1.45,0,0,0,.75.37,1.49,1.49,0,0,0-.1-.26l.1-.07a1.22,1.22,0,0,0,.61.18,4.29,4.29,0,0,1-.62-2.49c0-1.09-.16-1.47-.29-1.6a2.56,2.56,0,0,0-1.23-.38.17.17,0,0,0-.12,0,.17.17,0,0,0,0,.08l0,.09-.09,0a1.52,1.52,0,0,0-1,0,.48.48,0,0,0-.13.28,1.15,1.15,0,0,0,0,.25.49.49,0,0,1,.37-.11.82.82,0,0,1,.52.4,2.69,2.69,0,0,1-.08,1.87,5.64,5.64,0,0,1-.92,1.69,2.71,2.71,0,0,0,.79-.34Z"/><path class="cls-3" d="M44,24.91l-.1-.09a5.91,5.91,0,0,0,.63-2.07l.12,0A5.83,5.83,0,0,1,44,24.91Z"/><path class="cls-3" d="M44.64,24.94l-.11-.06a8.17,8.17,0,0,0,.37-2.17H45A8.09,8.09,0,0,1,44.64,24.94Z"/><path class="cls-3" d="M45.33,24.93a15.93,15.93,0,0,1-.12-2.15h.13a14.37,14.37,0,0,0,.11,2.11Z"/><path class="cls-3" d="M46.09,25a5.83,5.83,0,0,1-.48-2.12h.13a5.9,5.9,0,0,0,.45,2.05Z"/><path class="cls-3" d="M44.21,22a.79.79,0,0,0-.11-.33c-.2-.29-.49-.54-.82-.27,0,0,.11-.35.36-.36s.61.14,1,.78c0,0-.28-.06-.35,0s-.07.18-.07.18Z"/><path class="cls-3" d="M44.19,22a.24.24,0,0,1,0-.07.71.71,0,0,0-.09-.26.77.77,0,0,0-.47-.37.43.43,0,0,0-.33.1l0,0,0-.05s.12-.37.37-.38.63.14,1,.79l0,0h0a.54.54,0,0,0-.33,0c0,.05-.07.08-.07.11a.13.13,0,0,0,0,.06Zm-.62-.74h.06a.85.85,0,0,1,.49.39.79.79,0,0,1,.08.22l.07-.08c.06-.05.24,0,.32,0-.46-.77-.93-.75-1-.75-.17,0-.28.2-.32.3A.46.46,0,0,1,43.57,21.23Z"/><path class="cls-3" d="M43.24,20.93a.36.36,0,0,1,.13-.21,1.61,1.61,0,0,1,1.09,0s0-.19.2-.18a2.47,2.47,0,0,1,1.26.4.83.83,0,0,1,.15.24h0c-.1-.14-.37-.13-.44-.12a2,2,0,0,0-.31,0,.9.9,0,0,0-.23.08s-.08.17-.14.17-.1,0-.13-.06-.05-.11-.09-.11-.28-.06-.51-.24a.67.67,0,0,0-.6-.2.44.44,0,0,0-.37.19v0Z"/><path class="cls-3" d="M44.94,21.38c-.09,0-.11,0-.13-.05h0l0-.05s0-.05-.05-.05-.29-.06-.52-.24a.65.65,0,0,0-.59-.2.45.45,0,0,0-.36.17h0v0a.46.46,0,0,1,.13-.22,1.67,1.67,0,0,1,1.08,0,.15.15,0,0,1,0-.12.25.25,0,0,1,.19-.06,2.58,2.58,0,0,1,1.27.41.78.78,0,0,1,.16.24v0h-.05c-.09-.12-.35-.12-.43-.11h-.08a1.24,1.24,0,0,0-.23,0h0a1.18,1.18,0,0,0-.2.07l0,.07S45,21.38,44.94,21.38Zm-.22-.19s.06,0,.08.06l0,.05h0s0,0,.1,0,.06-.05.08-.09,0-.06,0-.07a.49.49,0,0,1,.21-.08h0l.24,0h.08a.65.65,0,0,1,.4.08.71.71,0,0,0-.11-.17,2.5,2.5,0,0,0-1.26-.39.17.17,0,0,0-.15.05.14.14,0,0,0,0,.11v0h0a1.61,1.61,0,0,0-1.07,0,.34.34,0,0,0-.1.13.71.71,0,0,1,.33-.12.69.69,0,0,1,.61.21c.23.17.4.26.5.24Z"/><circle class="cls-1" cx="44.88" cy="21.07" r="0.12"/></svg>