<svg xmlns="http://www.w3.org/2000/svg" viewBox="0 0 90 60"><defs><style>.cls-1{fill:#003897;}.cls-2{fill:#d72828;}.cls-3{fill:#fff;}</style></defs><title>iceland</title><g id="Flags"><rect class="cls-1" y="37" width="25" height="23"/><rect class="cls-1" width="25" height="23"/><rect class="cls-1" x="39" width="51" height="23"/><rect class="cls-1" x="39" y="37" width="51" height="23"/><polygon class="cls-2" points="90 26 36 26 36 0 28 0 28 26 0 26 0 34 28 34 28 60 36 60 36 34 90 34 90 26"/><polygon class="cls-3" points="0 34 0 37 25 37 25 60 28 60 28 34 0 34"/><polygon class="cls-3" points="28 0 25 0 25 23 0 23 0 26 28 26 28 0"/><polygon class="cls-3" points="36 60 39 60 39 37 90 37 90 34 36 34 36 60"/><polygon class="cls-3" points="39 23 39 0 36 0 36 26 90 26 90 23 39 23"/></g></svg>