<svg xmlns="http://www.w3.org/2000/svg" viewBox="0 0 90 60"><defs><style>.cls-1{fill:#c6c7c8;}.cls-2{fill:#da0000;}.cls-3{fill:#fff;}.cls-4{fill:#239f40;}</style></defs><title>iran</title><g id="Back"><rect class="cls-1" width="90" height="60"/></g><g id="Boutons"><rect class="cls-2" width="90" height="60"/><rect class="cls-3" width="90" height="40"/><rect class="cls-4" width="90" height="20"/><polygon class="cls-3" points="0.5 18.07 0.5 19 2.7 19 2.7 16.73 2.37 16.73 2.37 18.67 1.77 18.67 1.77 16.73 1.43 16.73 1.43 18.67 0.83 18.67 0.83 16.73 0.5 16.73 0.5 17.73 0 17.73 0 18.07 0.5 18.07"/><rect class="cls-3" y="19.83" width="2.77" height="0.33"/><rect class="cls-3" y="39.83" width="2.77" height="0.33"/><polygon class="cls-3" points="0.5 42.27 0.5 43.2 2.7 43.2 2.7 40.93 2.37 40.93 2.37 42.87 1.77 42.87 1.77 40.93 1.43 40.93 1.43 42.87 0.83 42.87 0.83 40.93 0.5 40.93 0.5 41.93 0 41.93 0 42.27 0.5 42.27"/><rect class="cls-3" x="3.23" y="16.8" width="6.07" height="0.33"/><polygon class="cls-3" points="7.97 19 9.3 19 9.3 18.67 8.3 18.67 8.3 18.07 9.83 18.07 9.83 19 12.03 19 12.03 16.73 11.7 16.73 11.7 18.67 11.1 18.67 11.1 16.73 10.77 16.73 10.77 18.67 10.17 18.67 10.17 16.73 9.83 16.73 9.83 17.73 7.97 17.73 7.97 19"/><polygon class="cls-3" points="7.37 19 7.37 17.73 6.03 17.73 6.03 18.07 7.03 18.07 7.03 18.67 5.5 18.67 5.5 17.73 3.3 17.73 3.3 19.07 3.63 19.07 3.63 18.07 5.17 18.07 5.17 19 7.37 19"/><rect class="cls-3" x="4.17" y="18.67" width="0.47" height="0.33"/><rect class="cls-3" x="3.23" y="19.83" width="4.2" height="0.33"/><rect class="cls-3" x="7.9" y="19.83" width="4.2" height="0.33"/><rect class="cls-3" x="7.9" y="39.83" width="4.2" height="0.33"/><rect class="cls-3" x="3.23" y="39.83" width="4.2" height="0.33"/><rect class="cls-3" x="4.17" y="42.87" width="0.47" height="0.33"/><polygon class="cls-3" points="6.03 42.27 7.03 42.27 7.03 42.87 5.5 42.87 5.5 41.93 3.3 41.93 3.3 43.27 3.63 43.27 3.63 42.27 5.17 42.27 5.17 43.2 7.37 43.2 7.37 41.93 6.03 41.93 6.03 42.27"/><rect class="cls-3" x="3.23" y="41" width="6.07" height="0.33"/><polygon class="cls-3" points="11.7 42.87 11.1 42.87 11.1 40.93 10.77 40.93 10.77 42.87 10.17 42.87 10.17 40.93 9.83 40.93 9.83 41.93 7.97 41.93 7.97 43.2 9.3 43.2 9.3 42.87 8.3 42.87 8.3 42.27 9.83 42.27 9.83 43.2 12.03 43.2 12.03 40.93 11.7 40.93 11.7 42.87"/><polygon class="cls-3" points="16.7 19 16.7 17.73 15.37 17.73 15.37 18.07 16.37 18.07 16.37 18.67 14.83 18.67 14.83 17.73 12.63 17.73 12.63 19.07 12.97 19.07 12.97 18.07 14.5 18.07 14.5 19 16.7 19"/><rect class="cls-3" x="12.57" y="16.8" width="6.07" height="0.33"/><rect class="cls-3" x="13.5" y="18.67" width="0.47" height="0.33"/><polygon class="cls-3" points="17.3 19 18.63 19 18.63 18.67 17.63 18.67 17.63 18.07 19.17 18.07 19.17 19 21.37 19 21.37 16.73 21.03 16.73 21.03 18.67 20.43 18.67 20.43 16.73 20.1 16.73 20.1 18.67 19.5 18.67 19.5 16.73 19.17 16.73 19.17 17.73 17.3 17.73 17.3 19"/><rect class="cls-3" x="12.57" y="19.83" width="4.2" height="0.33"/><rect class="cls-3" x="17.23" y="19.83" width="4.2" height="0.33"/><rect class="cls-3" x="17.23" y="39.83" width="4.2" height="0.33"/><rect class="cls-3" x="12.57" y="39.83" width="4.2" height="0.33"/><polygon class="cls-3" points="21.03 42.87 20.43 42.87 20.43 40.93 20.1 40.93 20.1 42.87 19.5 42.87 19.5 40.93 19.17 40.93 19.17 41.93 17.3 41.93 17.3 43.2 18.63 43.2 18.63 42.87 17.63 42.87 17.63 42.27 19.17 42.27 19.17 43.2 21.37 43.2 21.37 40.93 21.03 40.93 21.03 42.87"/><polygon class="cls-3" points="15.37 42.27 16.37 42.27 16.37 42.87 14.83 42.87 14.83 41.93 12.63 41.93 12.63 43.27 12.97 43.27 12.97 42.27 14.5 42.27 14.5 43.2 16.7 43.2 16.7 41.93 15.37 41.93 15.37 42.27"/><rect class="cls-3" x="12.57" y="41" width="6.07" height="0.33"/><rect class="cls-3" x="13.5" y="42.87" width="0.47" height="0.33"/><rect class="cls-3" x="21.9" y="16.8" width="6.07" height="0.33"/><polygon class="cls-3" points="26.63 19 27.97 19 27.97 18.67 26.97 18.67 26.97 18.07 28.5 18.07 28.5 19 30.7 19 30.7 16.73 30.37 16.73 30.37 18.67 29.77 18.67 29.77 16.73 29.43 16.73 29.43 18.67 28.83 18.67 28.83 16.73 28.5 16.73 28.5 17.73 26.63 17.73 26.63 19"/><polygon class="cls-3" points="26.03 19 26.03 17.73 24.7 17.73 24.7 18.07 25.7 18.07 25.7 18.67 24.17 18.67 24.17 17.73 21.97 17.73 21.97 19.07 22.3 19.07 22.3 18.07 23.83 18.07 23.83 19 26.03 19"/><rect class="cls-3" x="22.83" y="18.67" width="0.47" height="0.33"/><rect class="cls-3" x="26.57" y="19.83" width="4.2" height="0.33"/><rect class="cls-3" x="21.9" y="19.83" width="4.2" height="0.33"/><rect class="cls-3" x="26.57" y="39.83" width="4.2" height="0.33"/><rect class="cls-3" x="21.9" y="39.83" width="4.2" height="0.33"/><rect class="cls-3" x="21.9" y="41" width="6.07" height="0.33"/><rect class="cls-3" x="22.83" y="42.87" width="0.47" height="0.33"/><polygon class="cls-3" points="30.37 42.87 29.77 42.87 29.77 40.93 29.43 40.93 29.43 42.87 28.83 42.87 28.83 40.93 28.5 40.93 28.5 41.93 26.63 41.93 26.63 43.2 27.97 43.2 27.97 42.87 26.97 42.87 26.97 42.27 28.5 42.27 28.5 43.2 30.7 43.2 30.7 40.93 30.37 40.93 30.37 42.87"/><polygon class="cls-3" points="24.7 42.27 25.7 42.27 25.7 42.87 24.17 42.87 24.17 41.93 21.97 41.93 21.97 43.27 22.3 43.27 22.3 42.27 23.83 42.27 23.83 43.2 26.03 43.2 26.03 41.93 24.7 41.93 24.7 42.27"/><rect class="cls-3" x="31.23" y="16.8" width="6.07" height="0.33"/><polygon class="cls-3" points="35.97 19 37.3 19 37.3 18.67 36.3 18.67 36.3 18.07 37.83 18.07 37.83 19 40.03 19 40.03 16.73 39.7 16.73 39.7 18.67 39.1 18.67 39.1 16.73 38.77 16.73 38.77 18.67 38.17 18.67 38.17 16.73 37.83 16.73 37.83 17.73 35.97 17.73 35.97 19"/><polygon class="cls-3" points="35.37 19 35.37 17.73 34.03 17.73 34.03 18.07 35.03 18.07 35.03 18.67 33.5 18.67 33.5 17.73 31.3 17.73 31.3 19.07 31.63 19.07 31.63 18.07 33.17 18.07 33.17 19 35.37 19"/><rect class="cls-3" x="32.17" y="18.67" width="0.47" height="0.33"/><rect class="cls-3" x="31.23" y="19.83" width="4.2" height="0.33"/><rect class="cls-3" x="35.9" y="19.83" width="4.2" height="0.33"/><rect class="cls-3" x="35.9" y="39.83" width="4.2" height="0.33"/><rect class="cls-3" x="31.23" y="39.83" width="4.2" height="0.33"/><polygon class="cls-3" points="34.03 42.27 35.03 42.27 35.03 42.87 33.5 42.87 33.5 41.93 31.3 41.93 31.3 43.27 31.63 43.27 31.63 42.27 33.17 42.27 33.17 43.2 35.37 43.2 35.37 41.93 34.03 41.93 34.03 42.27"/><polygon class="cls-3" points="39.7 42.87 39.1 42.87 39.1 40.93 38.77 40.93 38.77 42.87 38.17 42.87 38.17 40.93 37.83 40.93 37.83 41.93 35.97 41.93 35.97 43.2 37.3 43.2 37.3 42.87 36.3 42.87 36.3 42.27 37.83 42.27 37.83 43.2 40.03 43.2 40.03 40.93 39.7 40.93 39.7 42.87"/><rect class="cls-3" x="31.23" y="41" width="6.07" height="0.33"/><rect class="cls-3" x="32.17" y="42.87" width="0.47" height="0.33"/><rect class="cls-3" x="41.5" y="18.67" width="0.47" height="0.33"/><polygon class="cls-3" points="44.7 19 44.7 17.73 43.37 17.73 43.37 18.07 44.37 18.07 44.37 18.67 42.83 18.67 42.83 17.73 40.63 17.73 40.63 19.07 40.97 19.07 40.97 18.07 42.5 18.07 42.5 19 44.7 19"/><rect class="cls-3" x="40.57" y="16.8" width="6.07" height="0.33"/><polygon class="cls-3" points="45.3 19 46.63 19 46.63 18.67 45.63 18.67 45.63 18.07 47.17 18.07 47.17 19 49.37 19 49.37 16.73 49.03 16.73 49.03 18.67 48.43 18.67 48.43 16.73 48.1 16.73 48.1 18.67 47.5 18.67 47.5 16.73 47.17 16.73 47.17 17.73 45.3 17.73 45.3 19"/><rect class="cls-3" x="40.57" y="19.83" width="4.2" height="0.33"/><rect class="cls-3" x="45.23" y="19.83" width="4.2" height="0.33"/><rect class="cls-3" x="45.23" y="39.83" width="4.2" height="0.33"/><rect class="cls-3" x="40.57" y="39.83" width="4.2" height="0.33"/><rect class="cls-3" x="41.5" y="42.87" width="0.47" height="0.33"/><rect class="cls-3" x="40.57" y="41" width="6.07" height="0.33"/><polygon class="cls-3" points="43.37 42.27 44.37 42.27 44.37 42.87 42.83 42.87 42.83 41.93 40.63 41.93 40.63 43.27 40.97 43.27 40.97 42.27 42.5 42.27 42.5 43.2 44.7 43.2 44.7 41.93 43.37 41.93 43.37 42.27"/><polygon class="cls-3" points="49.03 42.87 48.43 42.87 48.43 40.93 48.1 40.93 48.1 42.87 47.5 42.87 47.5 40.93 47.17 40.93 47.17 41.93 45.3 41.93 45.3 43.2 46.63 43.2 46.63 42.87 45.63 42.87 45.63 42.27 47.17 42.27 47.17 43.2 49.37 43.2 49.37 40.93 49.03 40.93 49.03 42.87"/><polygon class="cls-3" points="54.03 19 54.03 17.73 52.7 17.73 52.7 18.07 53.7 18.07 53.7 18.67 52.17 18.67 52.17 17.73 49.97 17.73 49.97 19.07 50.3 19.07 50.3 18.07 51.83 18.07 51.83 19 54.03 19"/><rect class="cls-3" x="50.83" y="18.67" width="0.47" height="0.33"/><rect class="cls-3" x="49.9" y="16.8" width="6.07" height="0.33"/><polygon class="cls-3" points="54.63 19 55.97 19 55.97 18.67 54.97 18.67 54.97 18.07 56.5 18.07 56.5 19 58.7 19 58.7 16.73 58.37 16.73 58.37 18.67 57.77 18.67 57.77 16.73 57.43 16.73 57.43 18.67 56.83 18.67 56.83 16.73 56.5 16.73 56.5 17.73 54.63 17.73 54.63 19"/><rect class="cls-3" x="54.57" y="19.83" width="4.2" height="0.33"/><rect class="cls-3" x="49.9" y="19.83" width="4.2" height="0.33"/><rect class="cls-3" x="54.57" y="39.83" width="4.2" height="0.33"/><rect class="cls-3" x="49.9" y="39.83" width="4.2" height="0.33"/><rect class="cls-3" x="50.83" y="42.87" width="0.47" height="0.33"/><polygon class="cls-3" points="52.7 42.27 53.7 42.27 53.7 42.87 52.17 42.87 52.17 41.93 49.97 41.93 49.97 43.27 50.3 43.27 50.3 42.27 51.83 42.27 51.83 43.2 54.03 43.2 54.03 41.93 52.7 41.93 52.7 42.27"/><polygon class="cls-3" points="58.37 42.87 57.77 42.87 57.77 40.93 57.43 40.93 57.43 42.87 56.83 42.87 56.83 40.93 56.5 40.93 56.5 41.93 54.63 41.93 54.63 43.2 55.97 43.2 55.97 42.87 54.97 42.87 54.97 42.27 56.5 42.27 56.5 43.2 58.7 43.2 58.7 40.93 58.37 40.93 58.37 42.87"/><rect class="cls-3" x="49.9" y="41" width="6.07" height="0.33"/><polygon class="cls-3" points="63.37 19 63.37 17.73 62.03 17.73 62.03 18.07 63.03 18.07 63.03 18.67 61.5 18.67 61.5 17.73 59.3 17.73 59.3 19.07 59.63 19.07 59.63 18.07 61.17 18.07 61.17 19 63.37 19"/><polygon class="cls-3" points="63.97 19 65.3 19 65.3 18.67 64.3 18.67 64.3 18.07 65.83 18.07 65.83 19 68.03 19 68.03 16.73 67.7 16.73 67.7 18.67 67.1 18.67 67.1 16.73 66.77 16.73 66.77 18.67 66.17 18.67 66.17 16.73 65.83 16.73 65.83 17.73 63.97 17.73 63.97 19"/><rect class="cls-3" x="59.23" y="16.8" width="6.07" height="0.33"/><rect class="cls-3" x="60.17" y="18.67" width="0.47" height="0.33"/><rect class="cls-3" x="63.9" y="19.83" width="4.2" height="0.33"/><rect class="cls-3" x="59.23" y="19.83" width="4.2" height="0.33"/><rect class="cls-3" x="59.23" y="39.83" width="4.2" height="0.33"/><rect class="cls-3" x="63.9" y="39.83" width="4.2" height="0.33"/><rect class="cls-3" x="59.23" y="41" width="6.07" height="0.33"/><polygon class="cls-3" points="62.03 42.27 63.03 42.27 63.03 42.87 61.5 42.87 61.5 41.93 59.3 41.93 59.3 43.27 59.63 43.27 59.63 42.27 61.17 42.27 61.17 43.2 63.37 43.2 63.37 41.93 62.03 41.93 62.03 42.27"/><rect class="cls-3" x="60.17" y="42.87" width="0.47" height="0.33"/><polygon class="cls-3" points="67.7 42.87 67.1 42.87 67.1 40.93 66.77 40.93 66.77 42.87 66.17 42.87 66.17 40.93 65.83 40.93 65.83 41.93 63.97 41.93 63.97 43.2 65.3 43.2 65.3 42.87 64.3 42.87 64.3 42.27 65.83 42.27 65.83 43.2 68.03 43.2 68.03 40.93 67.7 40.93 67.7 42.87"/><polygon class="cls-3" points="73.3 19 74.63 19 74.63 18.67 73.63 18.67 73.63 18.07 75.17 18.07 75.17 19 77.37 19 77.37 16.73 77.03 16.73 77.03 18.67 76.43 18.67 76.43 16.73 76.1 16.73 76.1 18.67 75.5 18.67 75.5 16.73 75.17 16.73 75.17 17.73 73.3 17.73 73.3 19"/><rect class="cls-3" x="69.5" y="18.67" width="0.47" height="0.33"/><polygon class="cls-3" points="72.7 19 72.7 17.73 71.37 17.73 71.37 18.07 72.37 18.07 72.37 18.67 70.83 18.67 70.83 17.73 68.63 17.73 68.63 19.07 68.97 19.07 68.97 18.07 70.5 18.07 70.5 19 72.7 19"/><rect class="cls-3" x="68.57" y="16.8" width="6.07" height="0.33"/><rect class="cls-3" x="68.57" y="19.83" width="4.2" height="0.33"/><rect class="cls-3" x="73.23" y="19.83" width="4.2" height="0.33"/><rect class="cls-3" x="73.23" y="39.83" width="4.2" height="0.33"/><rect class="cls-3" x="68.57" y="39.83" width="4.2" height="0.33"/><rect class="cls-3" x="68.57" y="41" width="6.07" height="0.33"/><rect class="cls-3" x="69.5" y="42.87" width="0.47" height="0.33"/><polygon class="cls-3" points="71.37 42.27 72.37 42.27 72.37 42.87 70.83 42.87 70.83 41.93 68.63 41.93 68.63 43.27 68.97 43.27 68.97 42.27 70.5 42.27 70.5 43.2 72.7 43.2 72.7 41.93 71.37 41.93 71.37 42.27"/><polygon class="cls-3" points="77.03 42.87 76.43 42.87 76.43 40.93 76.1 40.93 76.1 42.87 75.5 42.87 75.5 40.93 75.17 40.93 75.17 41.93 73.3 41.93 73.3 43.2 74.63 43.2 74.63 42.87 73.63 42.87 73.63 42.27 75.17 42.27 75.17 43.2 77.37 43.2 77.37 40.93 77.03 40.93 77.03 42.87"/><polygon class="cls-3" points="82.63 19 83.97 19 83.97 18.67 82.97 18.67 82.97 18.07 84.5 18.07 84.5 19 86.7 19 86.7 16.73 86.37 16.73 86.37 18.67 85.77 18.67 85.77 16.73 85.43 16.73 85.43 18.67 84.83 18.67 84.83 16.73 84.5 16.73 84.5 17.73 82.63 17.73 82.63 19"/><rect class="cls-3" x="77.9" y="16.8" width="6.07" height="0.33"/><rect class="cls-3" x="78.83" y="18.67" width="0.47" height="0.33"/><polygon class="cls-3" points="82.03 19 82.03 17.73 80.7 17.73 80.7 18.07 81.7 18.07 81.7 18.67 80.17 18.67 80.17 17.73 77.97 17.73 77.97 19.07 78.3 19.07 78.3 18.07 79.83 18.07 79.83 19 82.03 19"/><rect class="cls-3" x="77.9" y="19.83" width="4.2" height="0.33"/><rect class="cls-3" x="82.57" y="19.83" width="4.2" height="0.33"/><rect class="cls-3" x="77.9" y="39.83" width="4.2" height="0.33"/><rect class="cls-3" x="82.57" y="39.83" width="4.2" height="0.33"/><polygon class="cls-3" points="86.37 42.87 85.77 42.87 85.77 40.93 85.43 40.93 85.43 42.87 84.83 42.87 84.83 40.93 84.5 40.93 84.5 41.93 82.63 41.93 82.63 43.2 83.97 43.2 83.97 42.87 82.97 42.87 82.97 42.27 84.5 42.27 84.5 43.2 86.7 43.2 86.7 40.93 86.37 40.93 86.37 42.87"/><polygon class="cls-3" points="80.7 42.27 81.7 42.27 81.7 42.87 80.17 42.87 80.17 41.93 77.97 41.93 77.97 43.27 78.3 43.27 78.3 42.27 79.83 42.27 79.83 43.2 82.03 43.2 82.03 41.93 80.7 41.93 80.7 42.27"/><rect class="cls-3" x="78.83" y="42.87" width="0.47" height="0.33"/><rect class="cls-3" x="77.9" y="41" width="6.07" height="0.33"/><polygon class="cls-3" points="89.5 17.73 87.3 17.73 87.3 19.07 87.63 19.07 87.63 18.07 89.17 18.07 89.17 19 90 19 90 18.67 89.5 18.67 89.5 17.73"/><rect class="cls-3" x="87.23" y="16.8" width="2.77" height="0.33"/><rect class="cls-3" x="88.17" y="18.67" width="0.47" height="0.33"/><rect class="cls-3" x="87.23" y="19.83" width="2.77" height="0.33"/><rect class="cls-3" x="87.23" y="39.83" width="2.77" height="0.33"/><polygon class="cls-3" points="89.5 41.93 87.3 41.93 87.3 43.27 87.63 43.27 87.63 42.27 89.17 42.27 89.17 43.2 90 43.2 90 42.87 89.5 42.87 89.5 41.93"/><rect class="cls-3" x="88.17" y="42.87" width="0.47" height="0.33"/><rect class="cls-3" x="87.23" y="41" width="2.77" height="0.33"/><path class="cls-2" d="M43.8,35.81a7.38,7.38,0,0,1-2.91.46,6.72,6.72,0,0,0,3.52.19l0-.37Z"/><path class="cls-2" d="M47.46,24.58a7.5,7.5,0,0,1-1.8,10.26l0,.76c.18.08.38.14.57.21a6.83,6.83,0,0,0,1.26-11.23Z"/><path class="cls-2" d="M51.73,27.13a5.75,5.75,0,0,0-3.57-2.69,7.5,7.5,0,0,1,1.49,10.5v0A5.73,5.73,0,0,0,51.73,27.13Z"/><path class="cls-2" d="M45,37.5l.58-.8v-.24l-.53-.13Z"/><path class="cls-2" d="M45.12,35.18c.11-.06.22-.11.33-.18l.21-.16.23-5.59V24.84A2.38,2.38,0,0,1,45,24.1l.38,5.9Z"/><path class="cls-2" d="M45.7,23.56a1.05,1.05,0,0,1-.7-.49l.15.55-.15.15a1.1,1.1,0,0,0,1.51.26,1.08,1.08,0,0,0,.38-1.29A1,1,0,0,1,45.7,23.56Z"/><path class="cls-2" d="M44.34,34.84a7.5,7.5,0,0,1-1.8-10.26A6.83,6.83,0,0,0,43.8,35.81c.19-.07.39-.13.57-.21Z"/><path class="cls-2" d="M45.59,36.46a6.72,6.72,0,0,0,3.52-.19,7.38,7.38,0,0,1-2.91-.46l-.59.28Z"/><path class="cls-2" d="M45.06,36.28a5.1,5.1,0,0,0,.55-.19l0-.49a5.29,5.29,0,0,1-.52-.29Z"/><path class="cls-2" d="M41.84,24.44A5.73,5.73,0,0,0,40.36,35v0A7.5,7.5,0,0,1,41.84,24.44Z"/><path class="cls-2" d="M44.88,35.18,44.62,30,45,24.1a2.38,2.38,0,0,1-.89.74v4.41l.23,5.59.21.16C44.66,35.07,44.77,35.12,44.88,35.18Z"/><path class="cls-2" d="M44.41,36.46v.24l.58.8-.06-1.17Z"/><path class="cls-2" d="M44.94,36.33l.06,0-.06,0Z"/><path class="cls-2" d="M45.12,35.18l-.12.07.11.06Z"/><path class="cls-2" d="M44.37,35.6l0,.49a5.1,5.1,0,0,0,.55.19l0-1A5.29,5.29,0,0,1,44.37,35.6Z"/><path class="cls-2" d="M45.06,36.33v0l-.06,0Z"/><path class="cls-2" d="M44.88,35.18v.13l.11-.06Z"/><path class="cls-2" d="M45,23.07a1.05,1.05,0,0,1-.7.49,1,1,0,0,1-1.19-.82A1.08,1.08,0,0,0,43.49,24,1.1,1.1,0,0,0,45,23.77l-.15-.15Z"/></g></svg>