<svg xmlns="http://www.w3.org/2000/svg" viewBox="0 0 90 60"><defs><style>.cls-1{fill:#239f40;}.cls-2{fill:#fff;}.cls-3{fill:#da0000;}</style></defs><title>iran</title><g id="Flags"><rect class="cls-1" width="90" height="20" transform="translate(90 20) rotate(180)"/><rect class="cls-2" y="20" width="90" height="20" transform="translate(90 60) rotate(180)"/><rect class="cls-3" y="40" width="90" height="20" transform="translate(90 100) rotate(180)"/><path class="cls-3" d="M43.8,35.81a7.38,7.38,0,0,1-2.91.46,6.72,6.72,0,0,0,3.52.19l0-.37Z"/><path class="cls-3" d="M47.46,24.58a7.5,7.5,0,0,1-1.8,10.26l0,.76c.18.08.38.14.57.21a6.83,6.83,0,0,0,1.26-11.23Z"/><path class="cls-3" d="M51.73,27.13a5.75,5.75,0,0,0-3.57-2.69,7.5,7.5,0,0,1,1.49,10.5v0A5.73,5.73,0,0,0,51.73,27.13Z"/><path class="cls-3" d="M45,37.5l.58-.8v-.24l-.53-.13Z"/><path class="cls-3" d="M45.12,35.18c.11-.06.22-.11.33-.18l.21-.16.23-5.59V24.84A2.38,2.38,0,0,1,45,24.1l.38,5.9Z"/><path class="cls-3" d="M45.7,23.56a1.05,1.05,0,0,1-.7-.49l.15.55-.15.15a1.1,1.1,0,0,0,1.51.26,1.08,1.08,0,0,0,.38-1.29A1,1,0,0,1,45.7,23.56Z"/><path class="cls-3" d="M44.34,34.84a7.5,7.5,0,0,1-1.8-10.26A6.83,6.83,0,0,0,43.8,35.81c.19-.07.39-.13.57-.21Z"/><path class="cls-3" d="M45.59,36.46a6.72,6.72,0,0,0,3.52-.19,7.38,7.38,0,0,1-2.91-.46l-.59.28Z"/><path class="cls-3" d="M45.06,36.28a5.1,5.1,0,0,0,.55-.19l0-.49a5.29,5.29,0,0,1-.52-.29Z"/><path class="cls-3" d="M41.84,24.44A5.73,5.73,0,0,0,40.36,35v0A7.5,7.5,0,0,1,41.84,24.44Z"/><path class="cls-3" d="M44.88,35.18,44.62,30,45,24.1a2.38,2.38,0,0,1-.89.74v4.41l.23,5.59.21.16C44.66,35.07,44.77,35.12,44.88,35.18Z"/><path class="cls-3" d="M44.41,36.46v.24l.58.8-.06-1.17Z"/><path class="cls-3" d="M44.94,36.33l.06,0-.06,0Z"/><path class="cls-3" d="M45.12,35.18l-.12.07.11.06Z"/><path class="cls-3" d="M44.37,35.6l0,.49a5.1,5.1,0,0,0,.55.19l0-1A5.29,5.29,0,0,1,44.37,35.6Z"/><path class="cls-3" d="M45.06,36.33v0l-.06,0Z"/><path class="cls-3" d="M44.88,35.18v.13l.11-.06Z"/><path class="cls-3" d="M45,23.07a1.05,1.05,0,0,1-.7.49,1,1,0,0,1-1.19-.82A1.08,1.08,0,0,0,43.49,24,1.1,1.1,0,0,0,45,23.77l-.15-.15Z"/></g></svg>