<svg xmlns="http://www.w3.org/2000/svg" viewBox="0 0 90 60"><defs><style>.cls-1{fill:#c6c7c8;}.cls-2{fill:#fff;}.cls-3{fill:#c00;}.cls-4{fill:#ebeae3;}.cls-5{fill:#161111;}.cls-6{fill:#b02320;}.cls-7{fill:#fc0;}.cls-8{fill:#121116;}.cls-9{fill:#f6ca1f;}.cls-10{fill:#eee;}.cls-11{fill:#1e1e1e;}.cls-12{fill:#a3afb8;}.cls-13{fill:#b3a192;}.cls-14{fill:#f0ddcb;}.cls-15{fill:#916c68;}.cls-16{fill:#4d3126;}.cls-17{fill:#cca715;}.cls-18{fill:#0f6545;}.cls-19{fill:#cecfc1;}.cls-20{fill:#1f2d86;}.cls-21{fill:#707c8b;}.cls-22{fill:#9f1209;}.cls-23{fill:#8f322f;}.cls-24{fill:#e2a494;}.cls-25{fill:#aa675d;}.cls-26{fill:#f5d8bc;}</style></defs><title>northern-ireland</title><g id="Back"><rect class="cls-1" width="90" height="60"/></g><g id="Boutons"><rect class="cls-2" width="90" height="60"/><polygon class="cls-3" points="0 25 90 25 90 25 90 35 90 35 0 35 0 35 0 25 0 25"/><polygon class="cls-3" points="50 0 50 60 50 60 40 60 40 60 40 0 40 0 50 0 50 0"/><path class="cls-4" d="M48.3,21.24c.29-.45.12-.74-.32-.83a12,12,0,0,1-2.9.5,14.68,14.68,0,0,1-3.29-.38c-.32.2-.25.68-.09,1a9.85,9.85,0,0,0,6.2-.05C48.25,21.35,48.3,21.25,48.3,21.24Z"/><path d="M44.83,22a11.25,11.25,0,0,1-3.13-.48h0c-.15-.29-.25-.8.09-1h0a14.33,14.33,0,0,0,3.29.38A12.6,12.6,0,0,0,48,20.39h0a.6.6,0,0,1,.46.3.65.65,0,0,1-.12.57h0s-.11.13-.41.22a10.61,10.61,0,0,1-2.84.52Zm-3.11-.53a10.7,10.7,0,0,0,3.35.47,10.48,10.48,0,0,0,2.82-.51.88.88,0,0,0,.39-.2h0a.57.57,0,0,0,.11-.52.49.49,0,0,0-.41-.27,12.6,12.6,0,0,1-2.9.49,14.26,14.26,0,0,1-3.29-.38C41.49,20.75,41.58,21.22,41.72,21.48Z"/><path class="cls-2" d="M45,41l-2.89-6-6.65.5L39.21,30l-3.75-5.51,6.65.5L45,19l2.89,6,6.65-.5L50.79,30l3.75,5.51L47.89,35Z"/><path class="cls-5" d="M45,41.22l-3-6.12-6.77.51L39.11,30l-3.83-5.61,6.77.51,3-6.12,3,6.12,6.77-.51L50.89,30l3.83,5.61L48,35.1Zm-2.84-6.3L45,40.82l2.84-5.9,6.53.49L50.68,30l3.69-5.41-6.53.49L45,19.18l-2.84,5.9-6.53-.49L39.32,30l-3.69,5.41Z"/><path class="cls-6" d="M45,19c3.63.6,3.5.77,3.5.77l.95-2.84a1.32,1.32,0,0,0-.16-.9c-.26-.34-1-.15-1-.15s-.1-.46-.42-.57a6.37,6.37,0,0,0-1.87.55,2.58,2.58,0,0,1-1.08.23,5.1,5.1,0,0,1-1.62-.56,1.36,1.36,0,0,0-.65-.17.78.78,0,0,0-.59.23.67.67,0,0,0-.12.36,1,1,0,0,0-.49-.12.71.71,0,0,0-.61.2,3,3,0,0,0-.32.61l.34.77,0,1.06.71,1.12Z"/><path d="M48.51,19.76l-.11-.05a.07.07,0,0,0,0,.05s-.3-.22-3.45-.74l-3.43.6-.74-1.17,0-1.07-.34-.78v0a2.56,2.56,0,0,1,.33-.63.78.78,0,0,1,.65-.22,1.08,1.08,0,0,1,.44.09.61.61,0,0,1,.12-.3.84.84,0,0,1,.64-.26,1.43,1.43,0,0,1,.68.18,5.1,5.1,0,0,0,1.59.55,1.94,1.94,0,0,0,.84-.15l.22-.07.38-.15a3.47,3.47,0,0,1,1.53-.4c.28.09.4.42.45.55.18,0,.75-.13,1,.19a1.39,1.39,0,0,1,.17.94l-.94,2.82h0ZM45,18.9h0a20.75,20.75,0,0,1,3.46.73l.92-2.76h0A1.25,1.25,0,0,0,49.2,16c-.23-.3-.92-.13-.92-.13l-.06,0,0-.06s-.1-.43-.38-.53a4.39,4.39,0,0,0-1.44.4l-.4.15-.2.07a2.15,2.15,0,0,1-.89.16,5.43,5.43,0,0,1-1.65-.56,1.27,1.27,0,0,0-.62-.16.72.72,0,0,0-.54.2.58.58,0,0,0-.11.32V16l-.09,0a.83.83,0,0,0-.46-.11c-.3,0-.44,0-.56.17a3.18,3.18,0,0,0-.3.57l.33.77,0,1,.68,1.07Z"/><path class="cls-4" d="M48.34,20.56s.19.22.18.3a.31.31,0,0,1-.08.14.2.2,0,0,1,0,.14c0,.09-.13.1-.13.1a.1.1,0,0,1-.05.11c-.07,0-.36.1-.36.1a12,12,0,0,0-2.91-.4,14.89,14.89,0,0,0-3.28.48s-.18-.06-.19-.18a.58.58,0,0,1,0-.21.11.11,0,0,1-.13-.07.33.33,0,0,1,0-.22s-.07,0,0-.14a.31.31,0,0,1,.14-.16A11.08,11.08,0,0,1,45,20,10.15,10.15,0,0,1,48.34,20.56Z"/><path d="M41.75,21.56h0s-.2-.08-.2-.21a.46.46,0,0,1,0-.18.15.15,0,0,1-.12-.1.33.33,0,0,1,0-.2h0s0-.08,0-.16a.4.4,0,0,1,.16-.18A11.83,11.83,0,0,1,45,20h0a10.12,10.12,0,0,1,3.34.59h0c0,.05.18.23.17.31a.3.3,0,0,1-.07.15.17.17,0,0,1,0,.14.15.15,0,0,1-.12.11.12.12,0,0,1-.07.11,2,2,0,0,1-.36.1h0a12.54,12.54,0,0,0-2.91-.4,14.2,14.2,0,0,0-3.27.49Zm-.13-.44,0,0a.91.91,0,0,0,0,.2c0,.09.14.14.17.16A14.44,14.44,0,0,1,45,21a12.06,12.06,0,0,1,2.91.4l.35-.09a.09.09,0,0,0,0-.09v0h0s.09,0,.1-.07a.13.13,0,0,0,0-.12l0,0h0a.31.31,0,0,0,.08-.14,1,1,0,0,0-.17-.27A10.21,10.21,0,0,0,45,20a11.5,11.5,0,0,0-3.37.57h0a.34.34,0,0,0-.12.15.41.41,0,0,0,0,.11l.06,0,0,.05a.26.26,0,0,0,0,.2.09.09,0,0,0,.1.06Z"/><path d="M40.84,17a.54.54,0,0,1,.09-.43.44.44,0,0,1,.51-.15.23.23,0,0,1,.08.09.1.1,0,0,0,.06.05.13.13,0,0,0,.12,0l.08.07a.22.22,0,0,1-.22.06.16.16,0,0,1-.13-.1.08.08,0,0,0,0,0,.35.35,0,0,0-.38.11A.44.44,0,0,0,41,17Z"/><path class="cls-7" d="M49.67,17.49l-.54,1.13-.22,0a.91.91,0,0,0-.5-.05.74.74,0,0,0-.35.08l.49-1.12a1.79,1.79,0,0,0,.09.38,1,1,0,0,0,.34.35,1.2,1.2,0,0,0,0-.48,5,5,0,0,0-.27-.68Z"/><path d="M47.92,18.87l.65-1.5,0,.19a2.51,2.51,0,0,0,.09.37.78.78,0,0,0,.24.27,1,1,0,0,0,0-.36,3.48,3.48,0,0,0-.26-.67l-.05-.12,1.17.41-.59,1.21-.26,0h0a1,1,0,0,0-.47-.05.6.6,0,0,0-.31.08Zm.63-.32a1,1,0,0,1,.37.05l.17,0,.5-1-.8-.29a4.6,4.6,0,0,1,.21.57,1.21,1.21,0,0,1,0,.5l0,.08-.07,0a1,1,0,0,1-.36-.38,1.29,1.29,0,0,1-.07-.21l-.35.83a1,1,0,0,1,.23,0Z"/><rect class="cls-8" x="44.67" y="13.98" width="0.61" height="2.6"/><path class="cls-8" d="M45.28,16.63h-.61a0,0,0,0,1-.05-.05V14a0,0,0,0,1,.05-.05h.61a.06.06,0,0,1,.06.05v2.6A.06.06,0,0,1,45.28,16.63Zm-.55-.1h.5V14h-.5Z"/><path class="cls-9" d="M40.93,18.77l.39.84A11.05,11.05,0,0,1,45,19c3,0,3.8.61,3.8.61l.43-1-.32.2-.34.21-.39.14-.46,0-.41-.3-.21-.43-.35.32-.61.13-.6-.15L45,18s-.39.74-.89.79a1.53,1.53,0,0,1-1.15-.35s-.26.6-.71.71A1.62,1.62,0,0,1,40.93,18.77Z"/><path d="M41.3,19.67l-.45-.94h.08s0,0,0,0a1.53,1.53,0,0,0,1.24.31c.42-.11.68-.68.68-.69l0-.06,0,.05a1.48,1.48,0,0,0,1.1.33c.47,0,.85-.75.86-.76l0-.06.57.71.57.14.59-.13.38-.35.24.48.39.29.44,0,.37-.14.33-.2.45-.27-.51,1.23-.05,0S47.86,19,45,19a11.31,11.31,0,0,0-3.62.63ZM41,18.91l.3.64A11,11,0,0,1,45,18.93c2.59,0,3.56.46,3.77.59l.37-.87-.21.13-.34.2-.4.16-.49,0-.43-.33L47,18.39l-.31.29-.63.14-.63-.16L45,18c-.11.19-.46.71-.9.75A1.53,1.53,0,0,1,43,18.46a1.31,1.31,0,0,1-.72.69A1.56,1.56,0,0,1,41,18.91Z"/><path class="cls-10" d="M47.67,13.65a.32.32,0,0,1-.32.32.31.31,0,0,1-.31-.31.32.32,0,1,1,.63,0"/><path class="cls-11" d="M47.35,14.14a.49.49,0,0,1,0-1h0a.49.49,0,0,1,.49.48H47.5a.15.15,0,1,0-.3,0,.16.16,0,0,0,.15.16.16.16,0,0,0,.15-.16h.34a.49.49,0,0,1-.49.49Z"/><path class="cls-12" d="M47.2,13.82s.26,0,.29-.11a.63.63,0,0,0,0-.24s.12.14.08.24-.06.13-.15.15A.28.28,0,0,1,47.2,13.82Z"/><path class="cls-10" d="M46.9,14a.32.32,0,1,1-.63,0,.32.32,0,0,1,.31-.32.32.32,0,0,1,.32.32"/><path class="cls-11" d="M46.58,14.5A.49.49,0,0,1,46.1,14a.5.5,0,0,1,.48-.49h0a.49.49,0,0,1,.49.49h-.34a.15.15,0,0,0-.15-.15.15.15,0,0,0-.14.15.14.14,0,0,0,.14.15h0a.14.14,0,0,0,.14-.15h.34a.49.49,0,0,1-.48.49Z"/><path class="cls-12" d="M46.44,14.18s.25,0,.28-.11a.63.63,0,0,0,0-.24s.12.14.09.24-.07.13-.16.15A.31.31,0,0,1,46.44,14.18Z"/><path class="cls-10" d="M48.56,13.44a.32.32,0,0,1-.32.32.31.31,0,0,1-.31-.31.32.32,0,1,1,.63,0"/><path class="cls-11" d="M48.24,13.93a.49.49,0,0,1,0-1h0a.47.47,0,0,1,.48.48h-.33a.15.15,0,0,0-.15-.15h0a.15.15,0,0,0-.15.15.15.15,0,1,0,.3,0h.33a.48.48,0,0,1-.48.49Z"/><path class="cls-12" d="M48.09,13.61s.26,0,.29-.11a.63.63,0,0,0,0-.24s.12.14.08.24-.06.13-.15.15A.28.28,0,0,1,48.09,13.61Z"/><path class="cls-10" d="M49.56,13.65a.32.32,0,1,1-.63,0,.32.32,0,0,1,.63,0"/><path class="cls-11" d="M49.24,14.13a.49.49,0,1,1,.49-.49h-.34a.15.15,0,0,0-.15-.15h0a.15.15,0,0,0-.14.16.15.15,0,0,0,.14.15h0a.15.15,0,0,0,.15-.15h.34a.49.49,0,0,1-.49.48Z"/><path class="cls-12" d="M49.1,13.81s.25,0,.28-.11a.63.63,0,0,0,0-.24s.12.14.09.24-.07.13-.16.15A.25.25,0,0,1,49.1,13.81Z"/><path class="cls-10" d="M50.32,14.28a.33.33,0,0,1-.31.32.32.32,0,0,1-.32-.32A.32.32,0,0,1,50,14a.31.31,0,0,1,.31.31"/><path class="cls-11" d="M50,14.76a.49.49,0,1,1,0-1h0a.48.48,0,0,1,.48.48h-.34a.15.15,0,0,0-.14-.15h0a.16.16,0,0,0-.15.16.15.15,0,0,0,.15.15h0a.15.15,0,0,0,.14-.15h.34a.49.49,0,0,1-.48.48Z"/><path class="cls-12" d="M49.86,14.44s.26,0,.28-.11a.47.47,0,0,0,0-.24s.13.14.09.24-.07.13-.15.15A.28.28,0,0,1,49.86,14.44Z"/><path class="cls-10" d="M50.65,15.31a.32.32,0,0,1-.31.32.32.32,0,1,1,.31-.32"/><path class="cls-11" d="M50.34,15.8a.5.5,0,0,1-.49-.49.49.49,0,0,1,.48-.49h0a.49.49,0,0,1,.48.48h-.33a.15.15,0,0,0-.15-.15h0a.15.15,0,1,0,0,.3h0a.15.15,0,0,0,.15-.15h.33a.49.49,0,0,1-.48.49Z"/><path class="cls-12" d="M50.19,15.47s.26,0,.28-.11a.42.42,0,0,0,0-.23s.13.13.09.23-.07.14-.15.16A.29.29,0,0,1,50.19,15.47Z"/><path class="cls-10" d="M50.53,16.35a.32.32,0,1,1-.63,0,.32.32,0,0,1,.31-.32.32.32,0,0,1,.32.32"/><path class="cls-11" d="M50.22,16.84a.49.49,0,1,1,0-1,.48.48,0,0,1,.49.48h-.34a.15.15,0,0,0-.15-.15.15.15,0,0,0-.14.15.15.15,0,0,0,.15.16h0a.15.15,0,0,0,.14-.16h.34a.49.49,0,0,1-.48.49Z"/><path class="cls-12" d="M50.07,16.52s.25,0,.28-.11a.47.47,0,0,0,0-.24s.12.14.09.24-.07.13-.16.15A.26.26,0,0,1,50.07,16.52Z"/><path class="cls-10" d="M50.07,17.27a.32.32,0,1,1-.32-.32.32.32,0,0,1,.32.32"/><path class="cls-11" d="M49.75,17.76a.49.49,0,0,1-.48-.49.48.48,0,0,1,.48-.49h0a.48.48,0,0,1,.48.49H49.9a.15.15,0,0,0-.15-.15h0a.15.15,0,0,0,0,.3h0a.15.15,0,0,0,.15-.15h.33a.48.48,0,0,1-.48.49Z"/><path class="cls-12" d="M49.6,17.43s.26,0,.28-.1a.5.5,0,0,0,0-.24s.12.13.08.24-.06.13-.15.15A.29.29,0,0,1,49.6,17.43Z"/><path class="cls-10" d="M46.15,14.29a.32.32,0,1,1-.63,0,.32.32,0,1,1,.63,0"/><path class="cls-11" d="M45.84,14.78a.48.48,0,0,1-.48-.49.48.48,0,0,1,.48-.49h0a.49.49,0,0,1,.48.48H46a.15.15,0,0,0-.15-.15h0a.15.15,0,0,0-.15.15.15.15,0,0,0,.15.15h0a.15.15,0,0,0,.15-.15h.33a.48.48,0,0,1-.48.49Z"/><path class="cls-12" d="M45.69,14.45s.26,0,.28-.11a.47.47,0,0,0,0-.23s.12.13.08.23a.19.19,0,0,1-.15.16A.29.29,0,0,1,45.69,14.45Z"/><path class="cls-10" d="M45.2,14.21a.27.27,0,0,1-.53,0,.27.27,0,0,1,.27-.27.26.26,0,0,1,.26.26"/><path class="cls-11" d="M44.94,14.67a.46.46,0,0,1-.47-.46.47.47,0,0,1,.46-.47.46.46,0,0,1,.47.46H45a.07.07,0,0,0-.06-.07h0s-.06,0-.06.07a.06.06,0,0,0,.06.06h0a.06.06,0,0,0,.06-.06h.4a.47.47,0,0,1-.46.46Z"/><path class="cls-12" d="M44.81,14.34s.22,0,.24-.09a.51.51,0,0,0,0-.2s.1.12.07.2-.06.11-.13.13A.25.25,0,0,1,44.81,14.34Z"/><path class="cls-10" d="M45.2,14.54a.26.26,0,0,1-.26.27.27.27,0,0,1-.26-.27.26.26,0,0,1,.26-.27.27.27,0,0,1,.26.27"/><path class="cls-11" d="M44.94,15a.47.47,0,0,1-.46-.47.45.45,0,0,1,.46-.47h0a.47.47,0,0,1,.47.46H45s0-.07-.06-.07h0a.07.07,0,0,0-.06.07.06.06,0,0,0,.06.06h0a.06.06,0,0,0,.06-.06h.41a.47.47,0,0,1-.47.47Z"/><path class="cls-12" d="M44.82,14.68s.21,0,.23-.09a.49.49,0,0,0,0-.2s.1.11.07.2a.16.16,0,0,1-.13.12A.29.29,0,0,1,44.82,14.68Z"/><path class="cls-10" d="M45.22,15a.26.26,0,0,1-.26.26A.25.25,0,0,1,44.7,15a.25.25,0,0,1,.26-.27.27.27,0,0,1,.26.27"/><path class="cls-11" d="M45,15.5a.48.48,0,0,1-.47-.47.47.47,0,0,1,.47-.47h0a.47.47,0,0,1,.46.46H45A.07.07,0,0,0,45,15h0s-.06,0-.06.07a.06.06,0,0,0,.06.06h0A.06.06,0,0,0,45,15h.4a.46.46,0,0,1-.46.47Z"/><path class="cls-12" d="M44.84,15.16s.21,0,.23-.09a.46.46,0,0,0,0-.19s.1.11.07.19-.06.11-.13.13A.23.23,0,0,1,44.84,15.16Z"/><path class="cls-10" d="M45.25,15.55a.29.29,0,1,1-.29-.29.28.28,0,0,1,.29.28"/><path class="cls-11" d="M45,16a.48.48,0,0,1,0-.95.48.48,0,0,1,.48.47h-.38a.1.1,0,0,0-.1-.11h0a.1.1,0,0,0-.09.11.1.1,0,0,0,.09.1h0a.1.1,0,0,0,.09-.1h.38A.47.47,0,0,1,45,16Z"/><path class="cls-12" d="M44.83,15.7s.23,0,.26-.1a.51.51,0,0,0,0-.22s.11.12.08.22-.06.12-.14.13A.23.23,0,0,1,44.83,15.7Z"/><path class="cls-10" d="M45.28,16.24a.32.32,0,1,1-.63,0,.32.32,0,0,1,.31-.32.32.32,0,0,1,.32.32"/><path class="cls-11" d="M45,16.73a.49.49,0,0,1,0-1h0a.48.48,0,0,1,.48.48h-.34a.15.15,0,0,0-.14-.15h0a.15.15,0,0,0-.14.15.15.15,0,0,0,.15.16h0a.15.15,0,0,0,.14-.16h.34a.49.49,0,0,1-.48.49Z"/><path class="cls-12" d="M44.82,16.41s.25,0,.28-.11a.47.47,0,0,0,0-.24s.12.14.09.24-.07.13-.16.15A.26.26,0,0,1,44.82,16.41Z"/><path class="cls-10" d="M45.25,17.67a.3.3,0,1,1-.59,0,.3.3,0,0,1,.29-.3.31.31,0,0,1,.3.3"/><path class="cls-11" d="M45,18.15a.47.47,0,0,1-.47-.47.49.49,0,0,1,.47-.49h0a.49.49,0,0,1,.48.48h-.36a.12.12,0,0,0-.12-.12.12.12,0,0,0-.11.12.11.11,0,0,0,.11.12h0a.12.12,0,0,0,.12-.12h.36a.47.47,0,0,1-.48.48Z"/><path class="cls-12" d="M44.81,17.83s.24,0,.27-.1a.57.57,0,0,0,0-.23s.12.13.08.23-.06.12-.14.14A.31.31,0,0,1,44.81,17.83Z"/><path class="cls-10" d="M44.4,14.28a.32.32,0,0,1-.32.32.33.33,0,0,1-.32-.32.32.32,0,0,1,.32-.32.33.33,0,0,1,.32.32"/><path class="cls-11" d="M44.08,14.77a.49.49,0,1,1,.48-.49h-.33a.15.15,0,0,0-.15-.15h0a.15.15,0,0,0,0,.3h0a.15.15,0,0,0,.15-.15h.33a.48.48,0,0,1-.48.49Z"/><path class="cls-12" d="M43.93,14.44s.26,0,.28-.1a.5.5,0,0,0,0-.24s.12.13.08.24a.18.18,0,0,1-.15.15A.29.29,0,0,1,43.93,14.44Z"/><path class="cls-10" d="M43.61,14A.32.32,0,1,1,43,14a.32.32,0,0,1,.32-.32.31.31,0,0,1,.31.32"/><path class="cls-11" d="M43.3,14.46a.5.5,0,0,1-.49-.49.49.49,0,0,1,.48-.49h0a.49.49,0,0,1,.48.49h-.33a.16.16,0,0,0-.15-.15h0a.15.15,0,1,0,0,.3h0a.15.15,0,0,0,.15-.15h.33a.49.49,0,0,1-.48.49Z"/><path class="cls-12" d="M43.15,14.13s.26,0,.28-.1a.45.45,0,0,0,0-.24s.13.13.09.24a.18.18,0,0,1-.15.15A.29.29,0,0,1,43.15,14.13Z"/><path class="cls-10" d="M42.86,13.62a.32.32,0,1,1-.63,0,.32.32,0,1,1,.63,0"/><path class="cls-11" d="M42.55,14.11a.5.5,0,0,1-.49-.49.49.49,0,1,1,1,0H42.7a.15.15,0,0,0-.15-.15h0a.15.15,0,0,0,0,.3h0a.15.15,0,0,0,.15-.15H43a.48.48,0,0,1-.48.49Z"/><path class="cls-12" d="M42.4,13.78s.26,0,.28-.11a.47.47,0,0,0,0-.23s.12.13.08.23a.19.19,0,0,1-.15.16A.29.29,0,0,1,42.4,13.78Z"/><path class="cls-10" d="M42,13.43a.31.31,0,0,1-.31.32.32.32,0,0,1,0-.64.31.31,0,0,1,.31.32"/><path class="cls-11" d="M41.69,13.92a.48.48,0,0,1-.48-.49.48.48,0,0,1,.48-.49h0a.49.49,0,0,1,.48.49h-.33a.15.15,0,0,0-.15-.15h0a.15.15,0,0,0,0,.3h0a.15.15,0,0,0,.15-.15h.33a.48.48,0,0,1-.48.49Z"/><path class="cls-12" d="M41.54,13.6s.26,0,.28-.11a.5.5,0,0,0,0-.24s.12.13.08.24a.18.18,0,0,1-.15.15A.34.34,0,0,1,41.54,13.6Z"/><path class="cls-10" d="M41,13.67a.32.32,0,1,1-.63,0,.32.32,0,0,1,.31-.32.32.32,0,0,1,.32.32"/><path class="cls-11" d="M40.68,14.16a.49.49,0,0,1,0-1h0a.48.48,0,0,1,.48.48h-.34a.15.15,0,0,0-.14-.15h0a.15.15,0,0,0-.15.15.14.14,0,0,0,.15.15h0a.14.14,0,0,0,.14-.15h.34a.49.49,0,0,1-.48.49Z"/><path class="cls-12" d="M40.53,13.84s.25,0,.28-.11a.47.47,0,0,0,0-.24s.12.14.09.24-.07.13-.16.15A.31.31,0,0,1,40.53,13.84Z"/><path class="cls-10" d="M40.28,14.39a.32.32,0,0,1-.64,0,.32.32,0,0,1,.32-.32.33.33,0,0,1,.32.32"/><path class="cls-11" d="M40,14.88a.48.48,0,0,1-.48-.49A.48.48,0,0,1,40,13.9h0a.49.49,0,0,1,.48.49h-.33a.15.15,0,0,0-.15-.15h0a.15.15,0,1,0,0,.3h0a.15.15,0,0,0,.15-.15h.33a.48.48,0,0,1-.48.49Z"/><path class="cls-12" d="M39.81,14.55s.26,0,.28-.1a.5.5,0,0,0,0-.24s.12.13.08.24a.18.18,0,0,1-.15.15A.29.29,0,0,1,39.81,14.55Z"/><path class="cls-10" d="M40,15.39a.32.32,0,1,1-.63,0,.32.32,0,1,1,.63,0"/><path class="cls-11" d="M39.66,15.88a.49.49,0,0,1-.48-.49.5.5,0,0,1,.48-.49h0a.5.5,0,0,1,.49.49h-.34a.15.15,0,0,0-.15-.15h0a.15.15,0,0,0,0,.3h0a.15.15,0,0,0,.15-.15h.34a.49.49,0,0,1-.49.49Z"/><path class="cls-12" d="M39.52,15.56s.25,0,.28-.11a.6.6,0,0,0,0-.24s.12.13.09.24-.07.13-.16.15A.3.3,0,0,1,39.52,15.56Z"/><path class="cls-10" d="M40.11,16.44a.32.32,0,0,1-.31.32.32.32,0,1,1,.31-.32"/><path class="cls-11" d="M39.79,16.93a.49.49,0,0,1,0-1h0a.49.49,0,0,1,.49.48h-.34a.14.14,0,0,0-.15-.15h0a.15.15,0,0,0,0,.3h0a.15.15,0,0,0,.15-.15h.34a.49.49,0,0,1-.48.49Z"/><path class="cls-12" d="M39.65,16.6s.25,0,.28-.11a.57.57,0,0,0,0-.23s.12.13.09.23-.07.14-.16.16A.26.26,0,0,1,39.65,16.6Z"/><path class="cls-10" d="M40.59,17.39a.32.32,0,0,1-.31.32.33.33,0,0,1-.32-.32.32.32,0,0,1,.32-.32.31.31,0,0,1,.31.31"/><path class="cls-11" d="M40.28,17.87a.49.49,0,0,1,0-1,.48.48,0,0,1,.48.48h-.33a.15.15,0,0,0-.15-.15h0a.16.16,0,0,0-.15.16.15.15,0,0,0,.15.15h0a.15.15,0,0,0,.15-.15h.33a.48.48,0,0,1-.48.48Z"/><path class="cls-12" d="M40.13,17.55s.26,0,.28-.11a.52.52,0,0,0,0-.24s.12.14.08.24-.07.13-.15.15A.28.28,0,0,1,40.13,17.55Z"/><path class="cls-10" d="M41.14,18.58c0,.17,0,.33-.11.36s-.22-.09-.27-.26,0-.33.11-.36.23.09.27.26"/><path class="cls-11" d="M41,19.16a.39.39,0,0,1-.27-.12.59.59,0,0,1-.17-.3.47.47,0,0,1,.25-.62.32.32,0,0,1,.27,0,.57.57,0,0,1,.27.36l-.39.11h0l.38-.11c.08.3,0,.56-.26.62Z"/><path class="cls-12" d="M40.9,18.81s.16,0,.15-.15a.67.67,0,0,0-.08-.22.45.45,0,0,1,.12.21c0,.11,0,.14-.06.17A.11.11,0,0,1,40.9,18.81Z"/><path class="cls-10" d="M49.29,18.64c0,.17-.16.29-.27.26s-.16-.18-.11-.35.16-.29.26-.27.16.19.12.36"/><path class="cls-11" d="M49.05,19.12H49a.48.48,0,0,1-.27-.61c.07-.3.3-.48.52-.42a.41.41,0,0,1,.23.16.61.61,0,0,1,0,.45l-.39-.09h0l.39.09A.51.51,0,0,1,49.05,19.12Z"/><path class="cls-12" d="M49,18.73s.16,0,.2-.06a.77.77,0,0,0,0-.24.48.48,0,0,1,0,.25c-.05.09-.07.11-.13.12S49,18.77,49,18.73Z"/><path class="cls-13" d="M44.69,12.54l0,.54a2.68,2.68,0,0,0-.66.11c-.13.28.14.65.14.65a1.35,1.35,0,0,1,.75-.16,1.89,1.89,0,0,1,.78.13,1,1,0,0,0,.13-.38,1.23,1.23,0,0,0,0-.32l-.34,0h-.23l0-.55Z"/><path d="M44.19,13.92l0-.05s-.29-.4-.15-.7c0,0,0-.08.65-.14l0-.54h.63l0,.54h.18l.34,0h0v0a1.27,1.27,0,0,1,.06.34.94.94,0,0,1-.15.41l0,0,0,0a1.94,1.94,0,0,0-.75-.12,1.37,1.37,0,0,0-.71.14Zm-.09-.69a.72.72,0,0,0,.12.54,1.55,1.55,0,0,1,.73-.14,2.08,2.08,0,0,1,.75.11.71.71,0,0,0,.11-.31,1.42,1.42,0,0,0,0-.27l-.3,0h-.28l0-.54h-.41l0,.53h-.05A3.91,3.91,0,0,0,44.1,13.23Z"/><path class="cls-14" d="M45.6,13.37a.11.11,0,0,1-.12.11.11.11,0,0,1-.11-.11.1.1,0,0,1,.11-.1.11.11,0,0,1,.12.1"/><path class="cls-8" d="M45.48,13.51a.14.14,0,0,1-.14-.14.14.14,0,0,1,.28,0h0a.09.09,0,0,0-.09-.08h0a.09.09,0,0,0-.08.08.08.08,0,0,0,.08.08h0a.08.08,0,0,0,.09-.08h0a.14.14,0,0,1-.14.14Z"/><path class="cls-14" d="M45.86,13.43a.13.13,0,0,1-.12.12.12.12,0,0,1-.12-.12.11.11,0,0,1,.12-.11.12.12,0,0,1,.12.11"/><path class="cls-8" d="M45.74,13.57a.14.14,0,1,1,0-.28h0a.15.15,0,0,1,.15.14h-.06a.08.08,0,0,0-.09-.08h0a.09.09,0,0,0-.09.08.09.09,0,0,0,.09.09h0a.09.09,0,0,0,.09-.09h.06a.15.15,0,0,1-.15.14Z"/><path class="cls-14" d="M45.33,13.37a.11.11,0,1,1-.11-.11.11.11,0,0,1,.11.11"/><path class="cls-8" d="M45.22,13.51a.14.14,0,1,1,0-.28h0a.14.14,0,0,1,.14.14h0a.08.08,0,0,0-.09-.08h0a.08.08,0,1,0,0,.16h0a.09.09,0,0,0,.09-.08h0a.14.14,0,0,1-.14.14Z"/><path class="cls-14" d="M44.81,13.38a.11.11,0,0,1-.12.11.13.13,0,0,1-.12-.11.12.12,0,0,1,.12-.12.11.11,0,0,1,.12.11"/><path class="cls-8" d="M44.69,13.52a.14.14,0,0,1-.14-.14.15.15,0,0,1,.14-.15h0a.15.15,0,0,1,.15.14h-.06a.09.09,0,0,0-.09-.08h0a.09.09,0,0,0-.09.09.09.09,0,0,0,.09.08h0l.07,0a.14.14,0,0,0,0-.06h.06a.14.14,0,0,1-.15.14Z"/><path class="cls-14" d="M44.52,13.39a.12.12,0,0,1-.12.12.12.12,0,0,1-.12-.11.12.12,0,0,1,.12-.12.11.11,0,0,1,.12.11"/><path class="cls-8" d="M44.4,13.54a.14.14,0,0,1-.14-.14.15.15,0,0,1,.14-.15h0a.15.15,0,0,1,.15.14h-.06a.09.09,0,0,0-.09-.08h0a.09.09,0,0,0-.09.09.09.09,0,0,0,.09.08h0a.09.09,0,0,0,.09-.09h.06a.15.15,0,0,1-.15.15Z"/><path class="cls-14" d="M45.05,13.07a.09.09,0,0,1-.1.09.1.1,0,0,1-.1-.09A.11.11,0,0,1,45,13a.09.09,0,0,1,.1.1"/><path class="cls-8" d="M45,13.19a.12.12,0,0,1-.12-.12.12.12,0,0,1,.12-.13h0a.13.13,0,0,1,.13.13h0A.08.08,0,0,0,45,13h0a.07.07,0,0,0,0,.14h0a.09.09,0,0,0,.08-.07h0a.12.12,0,0,1-.13.12Z"/><path class="cls-14" d="M45.05,12.62a.09.09,0,0,1-.1.1.1.1,0,0,1-.1-.1.1.1,0,0,1,.1-.09.09.09,0,0,1,.1.09"/><path class="cls-8" d="M45,12.75a.12.12,0,0,1-.12-.13A.12.12,0,0,1,45,12.5h0a.13.13,0,0,1,.13.12h0s0-.06-.08-.06h0a.07.07,0,0,0-.07.06.07.07,0,0,0,.07.07h0a.08.08,0,0,0,.08-.07h0a.13.13,0,0,1-.13.13Z"/><path class="cls-14" d="M45.05,12.86a.09.09,0,0,1-.1.1.1.1,0,0,1-.1-.1.1.1,0,0,1,.1-.09.09.09,0,0,1,.1.09"/><path class="cls-8" d="M45,13a.12.12,0,0,1-.12-.13.11.11,0,0,1,0-.08.12.12,0,0,1,.09,0h0a.12.12,0,0,1,.13.12h0s0-.06-.08-.06h0a.06.06,0,0,0-.05,0l0,0a.07.07,0,0,0,.07.07h0a.08.08,0,0,0,.08-.07h0A.13.13,0,0,1,45,13Z"/><path class="cls-14" d="M44.23,13.47a.12.12,0,0,1-.12.11.11.11,0,0,1-.11-.11.12.12,0,0,1,.11-.11.13.13,0,0,1,.12.11"/><path class="cls-8" d="M44.11,13.61a.14.14,0,0,1-.14-.14.13.13,0,0,1,.14-.13h0a.13.13,0,0,1,.14.13h0a.09.09,0,0,0-.09-.08h0a.08.08,0,0,0-.08.08.08.08,0,0,0,.08.09h0a.09.09,0,0,0,.09-.09h0a.14.14,0,0,1-.14.14Z"/><path class="cls-15" d="M45.08,13.35a.13.13,0,0,1-.13.12.13.13,0,0,1-.12-.12.12.12,0,0,1,.12-.12.12.12,0,0,1,.13.12"/><path class="cls-16" d="M45,13.49a.15.15,0,0,1-.15-.14A.15.15,0,0,1,45,13.2h0a.15.15,0,0,1,.16.15h-.06a.1.1,0,0,0-.1-.1h0a.11.11,0,0,0-.09.1.09.09,0,0,0,.09.09h0a.09.09,0,0,0,.1-.09h.06a.15.15,0,0,1-.16.14Z"/><path class="cls-10" d="M45.19,11.76a.23.23,0,1,1-.23-.24.23.23,0,0,1,.23.24"/><path class="cls-11" d="M45,12.22a.46.46,0,1,1,0-.92h0a.46.46,0,0,1,.46.46h0a.46.46,0,0,1-.46.46Z"/><path class="cls-12" d="M44.85,11.88s.19,0,.21-.08a.37.37,0,0,0,0-.17s.09.1.06.17,0,.1-.11.11A.2.2,0,0,1,44.85,11.88Z"/><path class="cls-7" d="M41.25,19.7a1,1,0,0,1,.26.37,6.15,6.15,0,0,1,.14.64,14.86,14.86,0,0,1,3.25-.56,32,32,0,0,1,3.53.59s0-.26.09-.54a1.84,1.84,0,0,1,.25-.58A14.43,14.43,0,0,0,44.93,19a11.34,11.34,0,0,0-2.56.33C42,19.39,41.23,19.71,41.25,19.7Z"/><path d="M48.45,20.77h0a29.46,29.46,0,0,0-3.53-.59,14.66,14.66,0,0,0-3.24.55h0v0s-.09-.46-.14-.63a1,1,0,0,0-.26-.36h0l0,0h0c.18-.09,1.09-.41,1.1-.41a11.25,11.25,0,0,1,2.57-.33,15,15,0,0,1,3.85.66h0l0,0a2,2,0,0,0-.24.57c0,.28-.09.54-.09.55Zm-3.68-.65h.13a31.59,31.59,0,0,1,3.51.58c0-.07.05-.29.09-.51a1.75,1.75,0,0,1,.24-.57,14.71,14.71,0,0,0-3.8-.66,10.75,10.75,0,0,0-2.56.34c-.29.09-.93.34-1.09.4a1,1,0,0,1,.24.35c0,.15.12.51.14.62A15.32,15.32,0,0,1,44.77,20.12Z"/><path class="cls-7" d="M44.5,10.88h.94a.87.87,0,0,0-.28.31,1.32,1.32,0,0,0,0,.35.69.69,0,0,0,.37-.1l.35-.26v1.19a2.73,2.73,0,0,0-.37-.3,1.72,1.72,0,0,0-.33-.12.63.63,0,0,0,.08.31l.39.55-1.34,0a3.75,3.75,0,0,0,.45-.58.5.5,0,0,0,.05-.33.75.75,0,0,0-.34.08,2.7,2.7,0,0,0-.31.32V11.2a.62.62,0,0,0,.27.31.58.58,0,0,0,.37,0,.78.78,0,0,0,0-.37A3.49,3.49,0,0,0,44.5,10.88Z"/><path d="M44.15,12.92l.09-.1a2.71,2.71,0,0,0,.44-.57.38.38,0,0,0,0-.24.63.63,0,0,0-.26.07,2,2,0,0,0-.3.31l-.09.11V11.2l.1,0a.51.51,0,0,0,.25.28.46.46,0,0,0,.29,0,.63.63,0,0,0,0-.29,1.35,1.35,0,0,0-.19-.25c0-.05-.06-.07,0-.11l0,0h1.13l-.14.1a.93.93,0,0,0-.26.29,1.31,1.31,0,0,0,0,.27.51.51,0,0,0,.28-.08c.12-.1.35-.26.36-.27l.09-.06V12.5l-.1-.09a2.24,2.24,0,0,0-.35-.29l-.25-.1a.42.42,0,0,0,.06.21l.4.54.06.09Zm.63-1h0v0a.64.64,0,0,1-.06.36,2.82,2.82,0,0,1-.37.5l1.11,0-.34-.47a.66.66,0,0,1-.09-.34v-.06h.07a1.3,1.3,0,0,1,.35.12,2,2,0,0,1,.29.22v-1l-.26.2a.73.73,0,0,1-.41.11h-.05v-.05a1,1,0,0,1,0-.36.59.59,0,0,1,.17-.25h-.66l.16.22a.81.81,0,0,1,0,.41v0h0a.6.6,0,0,1-.4,0,.64.64,0,0,1-.2-.16v.81a1.17,1.17,0,0,1,.23-.22A.77.77,0,0,1,44.78,11.9Z"/><path class="cls-7" d="M44.43,14.67a2.81,2.81,0,0,1-1.24-.35,2.5,2.5,0,0,0-2-.49,1.74,1.74,0,0,0-1.09,1.23,2.44,2.44,0,0,0,.23,1.75,5.17,5.17,0,0,0,.53.7l.34-.23a2.26,2.26,0,0,1-.77-1.71c.11-1,.59-1.19.59-1.19a1.27,1.27,0,0,1,1.39,0A7.16,7.16,0,0,0,44,15s.74.17.8.17S44.41,14.66,44.43,14.67Z"/><path class="cls-8" d="M40.85,17.58l0,0a5.21,5.21,0,0,1-.53-.71,2.51,2.51,0,0,1-.24-1.8,1.76,1.76,0,0,1,1.13-1.26,2.51,2.51,0,0,1,2,.48h0a2.63,2.63,0,0,0,1.18.34h0l0,0v0l0,0,.06.08c.3.36.33.41.31.46l0,0h0a8.1,8.1,0,0,1-.82-.17,7.48,7.48,0,0,1-1.59-.65,1.21,1.21,0,0,0-1.33,0s-.47.24-.56,1.15a2.15,2.15,0,0,0,.75,1.66l0,.05Zm.82-3.75a2.58,2.58,0,0,0-.46.05,1.71,1.71,0,0,0-1.06,1.2,2.44,2.44,0,0,0,.23,1.71,4.64,4.64,0,0,0,.49.65l.25-.17a2.16,2.16,0,0,1-.74-1.71c.1-1,.59-1.22.61-1.23h0a1.35,1.35,0,0,1,1.45,0,7.28,7.28,0,0,0,1.56.63l.69.16a2.79,2.79,0,0,0-.24-.31l-.05-.07a2.82,2.82,0,0,1-1.24-.35l0,0A2.8,2.8,0,0,0,41.67,13.83Z"/><path class="cls-7" d="M40.74,18.28l-.36-.69,1.06-.42a2.17,2.17,0,0,0-.31.59,1.62,1.62,0,0,0-.05.55A.92.92,0,0,0,41.3,18a4.81,4.81,0,0,0,.24-.68L42,18.88a1.35,1.35,0,0,0-.42-.27,1.33,1.33,0,0,0-.44,0l-.28.09Z"/><path d="M42,19l0,0a1.11,1.11,0,0,0-.39-.26,1.18,1.18,0,0,0-.41,0l-.33.1-.17-.48-.38-.75,1.31-.51-.12.16a2.16,2.16,0,0,0-.31.56,1.74,1.74,0,0,0,0,.41,1.56,1.56,0,0,0,.12-.17,4.41,4.41,0,0,0,.24-.67l0-.18.54,1.74Zm-.55-.42h.14a.88.88,0,0,1,.3.16l-.37-1.16a3,3,0,0,1-.19.52.92.92,0,0,1-.24.28l-.08.06v-.09a2.09,2.09,0,0,1,0-.57,2,2,0,0,1,.22-.46l-.83.33.33.65.13.39.23-.07A.94.94,0,0,1,41.47,18.54Z"/><path class="cls-7" d="M45.63,14.65a2.72,2.72,0,0,0,1.24-.34,2.47,2.47,0,0,1,2-.49A1.74,1.74,0,0,1,50,15.05a2.44,2.44,0,0,1-.23,1.75c-.2.35-.34.55-.34.55L49,17.2a2.1,2.1,0,0,0,.65-1.65c-.1-1-.58-1.18-.58-1.18a1.28,1.28,0,0,0-1.39,0,7.61,7.61,0,0,1-1.58.64s-.73.18-.8.17S45.64,14.65,45.63,14.65Z"/><path class="cls-8" d="M49.4,17.42l-.54-.2.07-.06a2.08,2.08,0,0,0,.64-1.6c-.1-.92-.55-1.14-.56-1.15a1.23,1.23,0,0,0-1.34,0,7.48,7.48,0,0,1-1.59.65,8,8,0,0,1-.81.17h0l0,0c0-.05,0-.1.3-.47l.06-.07,0,0v0l0,0h0a2.84,2.84,0,0,0,1.19-.34l0,0a2.48,2.48,0,0,1,2-.47A1.76,1.76,0,0,1,50,15a2.57,2.57,0,0,1-.24,1.8c-.2.34-.34.55-.34.55Zm-.33-.24.29.1c0-.07.16-.25.31-.51a2.43,2.43,0,0,0,.23-1.71,1.68,1.68,0,0,0-1-1.19,2.39,2.39,0,0,0-1.92.47l0,0a2.94,2.94,0,0,1-1.23.35.34.34,0,0,1-.06.06l-.24.32.7-.16a7.23,7.23,0,0,0,1.56-.64,1.37,1.37,0,0,1,1.45,0s.5.24.61,1.23A2.13,2.13,0,0,1,49.07,17.18Z"/><rect class="cls-7" x="45.28" y="13.99" width="0.28" height="2.6"/><path class="cls-8" d="M45.56,16.65h-.28a.06.06,0,0,1-.05-.06V14a0,0,0,0,1,.05-.05h.28a.06.06,0,0,1,.06.05v2.6A.06.06,0,0,1,45.56,16.65Zm-.22-.11h.17V14.05h-.17Z"/><rect class="cls-7" x="44.35" y="13.98" width="0.33" height="2.6"/><path class="cls-8" d="M44.68,16.64h-.33a.06.06,0,0,1-.06-.06V14a.06.06,0,0,1,.06-.05h.33a0,0,0,0,1,0,.05v2.6A.06.06,0,0,1,44.68,16.64Zm-.28-.11h.22V14H44.4Z"/><path class="cls-7" d="M45.86,13.38a.87.87,0,0,1-.9.84.84.84,0,1,1,0-1.68.87.87,0,0,1,.91.83"/><path class="cls-8" d="M45,14.27a.89.89,0,1,1,0-1.78h0a.94.94,0,0,1,1,.88h-.11A.83.83,0,0,0,45,12.6h0a.78.78,0,1,0,0,1.56h0a.82.82,0,0,0,.85-.78h.11a.93.93,0,0,1-1,.89Z"/><path class="cls-7" d="M44.15,16.57h1.56a1.13,1.13,0,0,0-.34.39.74.74,0,0,0-.13.45.79.79,0,0,0,.4-.12,2.09,2.09,0,0,0,.35-.35v1.44a1,1,0,0,0-.3-.29,1,1,0,0,0-.45-.11H44.7a.93.93,0,0,0-.35.08,4.57,4.57,0,0,0-.35.3L44,17a.57.57,0,0,0,.33.34,1.06,1.06,0,0,0,.39.08.85.85,0,0,0-.13-.46A4.16,4.16,0,0,0,44.15,16.57Z"/><path d="M46,18.53,46,18.39a.81.81,0,0,0-.71-.38H44.7a1.07,1.07,0,0,0-.32.08,2,2,0,0,0-.34.3l-.08.07,0-1.47H44a.55.55,0,0,0,.3.3,1,1,0,0,0,.33.08.73.73,0,0,0-.12-.38,2.16,2.16,0,0,0-.36-.33c-.07,0-.07-.06-.07-.08v-.05h1.78l-.14.09a1,1,0,0,0-.33.37,1.09,1.09,0,0,0-.13.38.61.61,0,0,0,.33-.11A2.84,2.84,0,0,0,46,16.9l.08-.1Zm-2-1.36,0,1.07.27-.23a1.13,1.13,0,0,1,.38-.09h.54a1,1,0,0,1,.47.12.75.75,0,0,1,.23.19V17.05a2.42,2.42,0,0,1-.28.27.93.93,0,0,1-.43.13h-.05v0a.91.91,0,0,1,.14-.49,1.31,1.31,0,0,1,.25-.32l-1.3,0a2.3,2.3,0,0,1,.33.3,1,1,0,0,1,.13.49v0h0a1.07,1.07,0,0,1-.41-.09A.55.55,0,0,1,44,17.17Z"/><path class="cls-9" d="M45,17.7a2.7,2.7,0,0,0,.49.77,1.27,1.27,0,0,0,.83.19,1.71,1.71,0,0,0,.8-.5.86.86,0,0,0,.28.64.84.84,0,0,0,.78.22,5.52,5.52,0,0,0,.94-.58l.14.13a3.82,3.82,0,0,1-.81.59A1.52,1.52,0,0,1,47.39,19a1.4,1.4,0,0,1-.34-.57.76.76,0,0,1-.41.35,1.86,1.86,0,0,1-1,0,1.45,1.45,0,0,1-.61-.51.23.23,0,0,1,0-.17,1.19,1.19,0,0,1-.54.64,1.74,1.74,0,0,1-1.08,0c-.34-.09-.36-.28-.36-.28s0,.53-.76.68a1.64,1.64,0,0,1-1.32-.39l.1-.15a1.35,1.35,0,0,0,1.05.42c.63,0,.84-.85.84-.85a1.24,1.24,0,0,0,1,.43c.74,0,1-1,1-1Z"/><path d="M42,19.26a1.73,1.73,0,0,1-1.08-.43l0,0,.15-.23,0,0a1.36,1.36,0,0,0,1,.41c.6,0,.81-.82.81-.82l0-.1,0,.08a1.18,1.18,0,0,0,1,.42h0c.69,0,.9-.92.9-.93v0l.2,0v0a2.68,2.68,0,0,0,.48.76,1.22,1.22,0,0,0,.79.18,1.74,1.74,0,0,0,.78-.49l.08-.1v.13a.82.82,0,0,0,.26.61.8.8,0,0,0,.74.21,4.81,4.81,0,0,0,.92-.58l0,0,.21.18,0,0a3.81,3.81,0,0,1-.82.6,1.55,1.55,0,0,1-1.13-.13,1.31,1.31,0,0,1-.32-.51.78.78,0,0,1-.39.29,1.76,1.76,0,0,1-1,0,1.52,1.52,0,0,1-.64-.53l0,0a1.08,1.08,0,0,1-.51.53,1.72,1.72,0,0,1-1.1,0,.66.66,0,0,1-.34-.2.9.9,0,0,1-.76.6Zm-1-.47a1.56,1.56,0,0,0,1.26.36c.69-.14.72-.63.72-.65H43s0,.16.33.25a1.71,1.71,0,0,0,1,0c.34-.13.51-.61.52-.62l.08,0h0a.23.23,0,0,0,0,.14,1.38,1.38,0,0,0,.58.48,1.71,1.71,0,0,0,1,0,.78.78,0,0,0,.38-.33l.05-.1,0,.1a1.45,1.45,0,0,0,.32.56,1.52,1.52,0,0,0,1,.12,4.22,4.22,0,0,0,.77-.55l-.08-.08a4.9,4.9,0,0,1-.93.57.85.85,0,0,1-.81-.22.86.86,0,0,1-.3-.58,1.71,1.71,0,0,1-.74.44,1.29,1.29,0,0,1-.88-.2,2.54,2.54,0,0,1-.49-.76h-.07c-.05.19-.31,1-1,1h0a1.35,1.35,0,0,1-1-.38c-.07.21-.32.77-.86.81a1.44,1.44,0,0,1-1.05-.4Z"/><path class="cls-7" d="M43.18,18a.84.84,0,0,1,.07-.33.21.21,0,0,1,.24-.1c.06,0,.13.08.12.26s-.06.26,0,.33.06.12.16.1.15-.05.13-.14-.06,0-.08-.08.1-.42.08-.64-.1-.38-.26-.42a.43.43,0,0,0-.42.07,1.7,1.7,0,0,0-.31.42v.7l.28,0Z"/><path d="M43.74,18.44a.26.26,0,0,1-.24-.14l0,0a.33.33,0,0,1,0-.3s0-.09,0-.14a.28.28,0,0,0,0-.1.08.08,0,0,0-.06,0,1,1,0,0,0,0,.24v.31l-.62,0v-.91l0,0a1.88,1.88,0,0,1,.35-.48.65.65,0,0,1,.57-.09.59.59,0,0,1,.38.57,2,2,0,0,1-.06.47.36.36,0,0,1,0,.1.26.26,0,0,1,.07.12.27.27,0,0,1,0,.22.34.34,0,0,1-.24.13Zm-.66-.92v.13l0-.07a.38.38,0,0,1,.42-.16.29.29,0,0,1,.2.16.86.86,0,0,0,0-.15c0-.08,0-.25-.14-.28a.3.3,0,0,0-.28,0A1.13,1.13,0,0,0,43.08,17.52Z"/><path class="cls-7" d="M42.66,18.2s-.11-.24-.19-.28a.23.23,0,0,0-.27,0c-.05,0-.09.13,0,.29s.17.22.14.31,0,.13-.11.15-.15,0-.17-.08.05,0,0-.1a4.9,4.9,0,0,1-.33-.55c-.07-.21-.06-.39.07-.49a.43.43,0,0,1,.41-.11,1.59,1.59,0,0,1,.45.26l.28.64-.26.1Z"/><path d="M42.15,18.85a.28.28,0,0,1-.15,0,.25.25,0,0,1-.11-.19.18.18,0,0,1,0-.14l-.06-.08A1.69,1.69,0,0,1,41.6,18a.57.57,0,0,1,.12-.67.62.62,0,0,1,.56-.14,1.84,1.84,0,0,1,.52.29l0,0,.37.83-.59.22-.11-.29a1.52,1.52,0,0,0-.12-.21s-.07,0-.07,0a.18.18,0,0,0,0,.08c0,.05,0,.09.07.13a.31.31,0,0,1,.08.3v0a.28.28,0,0,1-.22.24Zm0-1.36a.3.3,0,0,0-.2.09c-.09.06,0,.23,0,.3L42,18a.36.36,0,0,1,.12-.23.4.4,0,0,1,.45,0l.06.05,0-.11a1.27,1.27,0,0,0-.36-.21Z"/><path class="cls-7" d="M42.6,16.14a1.51,1.51,0,0,0-.21.82,6.6,6.6,0,0,0,.43,1.12v.1l.2,0L43,18.05a6.69,6.69,0,0,0,0-1.2A2.59,2.59,0,0,0,42.6,16.14Z"/><path d="M42.66,18.36v-.24A6.42,6.42,0,0,1,42.22,17a1.69,1.69,0,0,1,.24-.93l.11-.18.15.15a2.89,2.89,0,0,1,.45.79,6.06,6.06,0,0,1,0,1.22l.12.27Zm0-1.9a1,1,0,0,0-.08.47,4.18,4.18,0,0,0,.29.8,4.92,4.92,0,0,0,0-.85A2.16,2.16,0,0,0,42.63,16.46Z"/><path class="cls-7" d="M43,18.26a1.17,1.17,0,0,0,.3.24c.18.09.26.09.33,0s0-.21,0-.26-.13,0-.14,0,0,.07-.1,0l-.27-.16Z"/><path d="M43.57,18.74a.62.62,0,0,1-.3-.09,1,1,0,0,1-.35-.29l-.11-.13.31-.24.1.06.18.11.09-.05a.28.28,0,0,1,.25,0,.39.39,0,0,1,.13.29.29.29,0,0,1-.1.23A.35.35,0,0,1,43.57,18.74Zm0-.34Z"/><path class="cls-7" d="M42.83,18.3a1.08,1.08,0,0,1-.18.34c-.12.16-.19.19-.28.17a.22.22,0,0,1-.08-.24c0-.07.11-.08.14,0s.07,0,.11,0l.18-.26Z"/><path d="M42.41,19h-.08a.3.3,0,0,1-.18-.17.34.34,0,0,1,0-.31.25.25,0,0,1,.21-.15.16.16,0,0,1,.1,0l.12-.18.07-.1.38.1,0,.16a1.25,1.25,0,0,1-.21.41A.51.51,0,0,1,42.41,19Zm0-.36Z"/><path class="cls-7" d="M43.35,18.13c0,.06-.17.14-.4.18s-.44,0-.45,0,.17-.14.41-.18.43,0,.44,0"/><path d="M42.71,18.5c-.19,0-.34-.05-.37-.2a.2.2,0,0,1,0-.15.87.87,0,0,1,.51-.22c.27-.05.59-.05.64.17l-.19,0,.19,0c0,.24-.33.34-.55.37A1.15,1.15,0,0,1,42.71,18.5Z"/><path class="cls-7" d="M47.4,18.12a1,1,0,0,1,.18-.3.24.24,0,0,1,.26,0c.06.05.1.13,0,.29s-.15.23-.13.31,0,.13.12.16.16,0,.17-.1-.05,0,0-.09.24-.37.3-.57,0-.39-.1-.49a.47.47,0,0,0-.41-.09,1.69,1.69,0,0,0-.44.29l-.25.65.27.09Z"/><path d="M47.93,18.74h-.1a.29.29,0,0,1-.24-.23v0a.38.38,0,0,1,.07-.3l.07-.13a.13.13,0,0,0,0-.09h0a.06.06,0,0,0,0,0,1.21,1.21,0,0,0-.11.21l-.09.3-.6-.19.33-.85,0,0a1.71,1.71,0,0,1,.5-.33.63.63,0,0,1,.56.12.57.57,0,0,1,.16.66,1.68,1.68,0,0,1-.22.42.41.41,0,0,0,0,.09.2.2,0,0,1,0,.13.26.26,0,0,1-.1.2A.25.25,0,0,1,47.93,18.74Zm-.21-1.13a.38.38,0,0,1,.22.07.34.34,0,0,1,.13.22.53.53,0,0,0,.06-.14c0-.07.06-.24,0-.31a.3.3,0,0,0-.28-.06,1.38,1.38,0,0,0-.35.23l0,.11.06,0A.38.38,0,0,1,47.72,17.61Z"/><path class="cls-7" d="M46.84,18.11a1,1,0,0,0-.08-.34.22.22,0,0,0-.24-.08c-.07,0-.14.08-.11.26s.07.27,0,.34,0,.12-.16.11-.15,0-.13-.14,0,0,.07-.08a5.35,5.35,0,0,1-.12-.64c0-.21.08-.38.24-.43a.47.47,0,0,1,.43,0,1.68,1.68,0,0,1,.33.41l0,.7h-.29Z"/><path d="M46.3,18.56h0a.3.3,0,0,1-.24-.11.24.24,0,0,1,0-.22.19.19,0,0,1,.05-.12.36.36,0,0,1,0-.1,1.55,1.55,0,0,1-.08-.47.58.58,0,0,1,.35-.59.66.66,0,0,1,.57.06,1.94,1.94,0,0,1,.38.47l0,0,0,.91h-.62v-.31a.8.8,0,0,0,0-.24.08.08,0,0,0-.06,0,.23.23,0,0,0,0,.09,1.15,1.15,0,0,1,0,.14.34.34,0,0,1,0,.31l0,0A.28.28,0,0,1,46.3,18.56Zm.28-1a.38.38,0,0,1,.31.16l0,.06v-.12a1.88,1.88,0,0,0-.25-.32.29.29,0,0,0-.29,0c-.1,0-.12.21-.12.28a.81.81,0,0,0,0,.15.34.34,0,0,1,.2-.17Z"/><path class="cls-7" d="M47.52,16.15a1.52,1.52,0,0,0-.49.7,6.28,6.28,0,0,0,0,1.2l0,.1.2.05v-.12A6.31,6.31,0,0,0,47.65,17,3.56,3.56,0,0,0,47.52,16.15Z"/><path d="M47.37,18.41l-.58-.15.08-.23a6.06,6.06,0,0,1,0-1.21,1.54,1.54,0,0,1,.54-.79l.17-.14.09.2a3.11,3.11,0,0,1,.14.9,6.19,6.19,0,0,1-.45,1.13Zm.06-1.94a1,1,0,0,0-.24.41,3.92,3.92,0,0,0,0,.85,4.8,4.8,0,0,0,.31-.79A1.92,1.92,0,0,0,47.43,16.47Z"/><path class="cls-7" d="M47.18,18.3a1.26,1.26,0,0,0,.2.33c.14.15.21.17.29.15s.11-.18.07-.25-.12-.06-.14,0-.07.06-.11,0l-.2-.25Z"/><path d="M47.62,19a.53.53,0,0,1-.36-.2,1.37,1.37,0,0,1-.23-.4L47,18.19l.38-.12.07.09.14.17.09,0a.28.28,0,0,1,.23.13.4.4,0,0,1,0,.32.28.28,0,0,1-.17.18Z"/><path class="cls-7" d="M47,18.26a1.2,1.2,0,0,1-.28.26c-.18.1-.25.11-.33.06a.25.25,0,0,1,0-.26.09.09,0,0,1,.15,0c0,.07,0,.06.1,0l.26-.18Z"/><path d="M46.46,18.77a.35.35,0,0,1-.19-.06.29.29,0,0,1-.11-.22.37.37,0,0,1,.11-.29.24.24,0,0,1,.25-.06l.08,0,.18-.12.1-.07.33.23-.11.13a1.09,1.09,0,0,1-.33.31A.61.61,0,0,1,46.46,18.77Zm-.1-.39h0Z"/><path class="cls-7" d="M47.52,18.28c0,.06-.21.08-.44,0s-.42-.13-.41-.19.21-.07.45,0,.41.13.4.19"/><path d="M47.33,18.5a1.2,1.2,0,0,1-.28,0c-.27,0-.58-.16-.54-.38A.2.2,0,0,1,46.6,18a.86.86,0,0,1,.55,0c.26.05.57.16.53.38l-.19,0,.19,0C47.66,18.46,47.5,18.5,47.33,18.5Z"/><path class="cls-17" d="M41.16,19.68s.05.19.16.09a8.84,8.84,0,0,1,3.74-.7,10,10,0,0,1,3.61.62c.08,0,.11.09.19,0s-.08-.21-.08-.21a11.49,11.49,0,0,0-7.59.05S41.09,19.6,41.16,19.68Z"/><path d="M41.26,19.82h0c-.06,0-.09-.11-.1-.13a.16.16,0,0,1,0-.08.17.17,0,0,1,.07-.1A10.5,10.5,0,0,1,45,18.84h0a10.61,10.61,0,0,1,3.74.62h0s.1.08.1.16a.11.11,0,0,1,0,.08c-.07.08-.12.05-.18,0l0,0a9.67,9.67,0,0,0-3.6-.62,9.05,9.05,0,0,0-3.72.68A.12.12,0,0,1,41.26,19.82Zm3.79-.93h0a10.79,10.79,0,0,0-3.8.66s0,0,0,.06,0,0,0,.05h0s0,.09.06.1a.06.06,0,0,0,0,0,9,9,0,0,1,3.76-.7,9.88,9.88,0,0,1,3.61.62l0,0c.05,0,.07,0,.12,0a.06.06,0,0,0,0,0c0-.05-.06-.11-.08-.14A10.68,10.68,0,0,0,45.05,18.89Z"/><path d="M43.86,20.56s.07-.19.19-.23a.45.45,0,0,1,.24.07.68.68,0,0,0-.24,0s-.06.12-.06.12,0-.07.17-.06h.16s-.24,0-.29.09.22.1.22.1a2.75,2.75,0,0,1-.47,0c-.06,0-.09-.11-.19-.08a.76.76,0,0,0-.19.11s.11-.18.18-.18a.3.3,0,0,1,.16,0Z"/><path d="M42.29,20.9s0-.2.14-.26a.43.43,0,0,1,.25,0,.7.7,0,0,0-.23.06.22.22,0,0,0,0,.13.19.19,0,0,1,.16-.1l.15,0s-.22.06-.26.14.23.05.23.05a4,4,0,0,1-.47.07c-.06,0-.11-.09-.2,0a.61.61,0,0,0-.16.14s.07-.19.14-.21a.43.43,0,0,1,.16,0Z"/><path d="M45.18,20.49s.08-.18.2-.21.24.07.24.07a.62.62,0,0,0-.23,0c-.06,0-.08.11-.08.11a.18.18,0,0,1,.18,0h.16s-.24,0-.3.07.22.11.22.11a3,3,0,0,1-.47-.05c-.06,0-.09-.12-.18-.1a.56.56,0,0,0-.2.1s.12-.17.19-.17a.3.3,0,0,1,.16,0Z"/><path d="M46.51,20.64s.1-.17.22-.19.23.11.23.11a.63.63,0,0,0-.23,0,.18.18,0,0,0-.09.1s0-.06.19,0l.15,0s-.24,0-.3,0,.2.13.2.13a4,4,0,0,1-.47-.1s-.07-.13-.16-.12a.58.58,0,0,0-.21.08s.14-.16.21-.15a.33.33,0,0,1,.16,0Z"/><path d="M47.83,20.88s.09-.14.19-.14.18.1.18.1a.61.61,0,0,0-.19,0s-.08.08-.08.08a.14.14,0,0,1,.15,0l.12,0s-.18,0-.24,0,.15.12.15.12a1.68,1.68,0,0,1-.36-.12s0-.1-.13-.1a.42.42,0,0,0-.17.05s.12-.12.17-.11a.25.25,0,0,1,.13.05Z"/><path class="cls-18" d="M43.6,19.66c0,.16-.16.33-.42.38s-.49,0-.52-.19.15-.33.41-.38S43.56,19.5,43.6,19.66Z"/><path d="M43,20.09a.52.52,0,0,1-.21,0,.29.29,0,0,1-.2-.19.27.27,0,0,1,.05-.19.59.59,0,0,1,.39-.23.62.62,0,0,1,.46.06.23.23,0,0,1,.11.15h0a.27.27,0,0,1-.11.26.6.6,0,0,1-.33.16Zm.19-.6h-.14a.54.54,0,0,0-.36.21.16.16,0,0,0,0,.13c0,.07.07.12.16.15a.6.6,0,0,0,.33,0,.83.83,0,0,0,.3-.14c.07-.07.1-.14.08-.2h0c0-.05,0-.08-.08-.11A.42.42,0,0,0,43.22,19.49Z"/><path class="cls-19" d="M43,19.64s0,.07-.09.09-.11,0-.12-.05,0-.08.09-.09S43,19.6,43,19.64Z"/><path class="cls-18" d="M47.26,19.85c0,.15-.29.21-.54.13s-.42-.26-.37-.42.29-.21.54-.13S47.31,19.7,47.26,19.85Z"/><path d="M46.94,20.05l-.23,0a.65.65,0,0,1-.37-.28.25.25,0,0,1,0-.19.27.27,0,0,1,.22-.17.64.64,0,0,1,.36,0,.78.78,0,0,1,.32.19.29.29,0,0,1,.07.27h0a.26.26,0,0,1-.21.18Zm-.27-.62h-.12a.22.22,0,0,0-.17.13.18.18,0,0,0,0,.14.53.53,0,0,0,.33.24.54.54,0,0,0,.33,0,.22.22,0,0,0,.17-.13h0a.21.21,0,0,0-.06-.2.65.65,0,0,0-.29-.18A.76.76,0,0,0,46.67,19.43Z"/><path class="cls-19" d="M46.76,19.55s-.07.05-.12,0-.09-.06-.08-.1.07-.05.12,0S46.77,19.51,46.76,19.55Z"/><rect class="cls-20" x="44.49" y="19.31" width="0.95" height="0.48"/><path d="M45.44,19.83h-.95a0,0,0,0,1,0,0v-.48a0,0,0,0,1,0,0h.95a0,0,0,0,1,.05,0v.48A0,0,0,0,1,45.44,19.83Zm-.9-.09h.86v-.39h-.86Z"/><path class="cls-21" d="M44.89,19.41s0,0-.09,0-.09,0-.09,0,0,0,.09,0S44.89,19.39,44.89,19.41Z"/><path class="cls-22" d="M41.81,19.79l.15.46-.29.16a.27.27,0,0,1-.26,0c-.14-.07-.22-.28-.14-.37A1.18,1.18,0,0,1,41.81,19.79Z"/><path d="M41.51,20.48l-.11,0a.37.37,0,0,1-.18-.25.18.18,0,0,1,0-.15,1.11,1.11,0,0,1,.57-.29h0l.16.48-.3.17A.43.43,0,0,1,41.51,20.48Zm.28-.67a1.27,1.27,0,0,0-.51.27s0,.06,0,.11a.35.35,0,0,0,.15.22.26.26,0,0,0,.24,0l.27-.15Z"/><path class="cls-23" d="M41.56,20.12a.13.13,0,1,1-.26,0,.13.13,0,1,1,.26,0Z"/><path class="cls-24" d="M41.44,20.06a.08.08,0,0,1,0,.07,0,0,0,0,1-.05,0,.05.05,0,0,1,0-.05.08.08,0,0,1,0-.07s0,0,0,0S41.43,20,41.44,20.06Z"/><path class="cls-22" d="M48.18,19.85l-.16.41.37.19a.24.24,0,0,0,.3-.36A1.72,1.72,0,0,0,48.18,19.85Z"/><path d="M48.52,20.51a.41.41,0,0,1-.14,0L48,20.27l.17-.44h0a2,2,0,0,1,.54.25.3.3,0,0,1,0,.38A.22.22,0,0,1,48.52,20.51Zm-.12-.08s.15.07.24,0a.27.27,0,0,0,0-.32,2.2,2.2,0,0,0-.49-.22l-.14.37.35.18Z"/><path class="cls-25" d="M48.62,20.18c0,.05,0,.09-.12.09s-.12,0-.12-.09.06-.09.12-.09.12,0,.12.09Z"/><path class="cls-24" d="M48.51,20.16a.06.06,0,0,1,0,.06,0,0,0,0,1-.06,0,.08.08,0,0,1,0-.06.14.14,0,0,1,0-.06.06.06,0,0,1,.06,0A.09.09,0,0,1,48.51,20.16Z"/><path class="cls-26" d="M45.8,19.35a.07.07,0,0,1-.07.06.06.06,0,0,1-.06-.06.07.07,0,0,1,.06-.07A.07.07,0,0,1,45.8,19.35Z"/><path class="cls-26" d="M46.21,19.37a.07.07,0,1,1-.14,0,.07.07,0,0,1,.14,0Z"/><path class="cls-26" d="M46,19.53a.09.09,0,0,1-.08.08.09.09,0,0,1-.09-.08.08.08,0,0,1,.09-.08A.08.08,0,0,1,46,19.53Z"/><path class="cls-26" d="M46.2,19.79a.07.07,0,0,1-.14,0,.07.07,0,0,1,.14,0Z"/><path class="cls-26" d="M45.81,19.74a.07.07,0,0,1-.14,0,.07.07,0,0,1,.14,0Z"/><path class="cls-26" d="M43.85,19.42a.06.06,0,0,1-.05.07.06.06,0,0,1-.08,0,.07.07,0,0,1,.13,0Z"/><path class="cls-26" d="M44.25,19.35a.07.07,0,0,1,0,.08.08.08,0,0,1-.08-.05.07.07,0,0,1,.13,0Z"/><path class="cls-26" d="M44.08,19.55a.08.08,0,0,1-.06.1.09.09,0,0,1-.1-.06.08.08,0,0,1,.06-.1A.08.08,0,0,1,44.08,19.55Z"/><path class="cls-26" d="M44.33,19.76a.06.06,0,0,1,0,.08.07.07,0,0,1-.08-.05.09.09,0,0,1,0-.08S44.33,19.73,44.33,19.76Z"/><path class="cls-26" d="M43.94,19.8a.07.07,0,0,1,0,.08.07.07,0,0,1,0-.13A.07.07,0,0,1,43.94,19.8Z"/><path class="cls-26" d="M42.14,19.79a.06.06,0,0,1,0,.08s-.08,0-.09,0a.06.06,0,1,1,.12,0Z"/><path class="cls-26" d="M42.53,19.66a.06.06,0,0,1,0,.08.06.06,0,0,1-.05-.11A.06.06,0,0,1,42.53,19.66Z"/><path class="cls-26" d="M42.4,19.88a.1.1,0,0,1,0,.11.09.09,0,0,1-.11,0,.07.07,0,0,1,0-.1A.08.08,0,0,1,42.4,19.88Z"/><path class="cls-26" d="M42.67,20.06a.05.05,0,0,1,0,.08.06.06,0,1,1,0-.08Z"/><path class="cls-26" d="M42.29,20.15a.06.06,0,0,1,0,.08.06.06,0,0,1-.08,0,.05.05,0,0,1,0-.08A.06.06,0,0,1,42.29,20.15Z"/><path class="cls-26" d="M47.56,19.6a.07.07,0,0,1-.09,0,.07.07,0,1,1,0-.13S47.57,19.56,47.56,19.6Z"/><path class="cls-26" d="M48,19.73a.08.08,0,0,1-.09.05.07.07,0,0,1,0-.09.06.06,0,0,1,.08-.05A.09.09,0,0,1,48,19.73Z"/><path class="cls-26" d="M47.72,19.84a.09.09,0,0,1-.18,0,.09.09,0,0,1,.18,0Z"/><path class="cls-26" d="M47.86,20.17a.08.08,0,0,1-.09,0,.07.07,0,0,1-.05-.09.06.06,0,0,1,.08-.05A.08.08,0,0,1,47.86,20.17Z"/><path class="cls-26" d="M47.46,20a.07.07,0,0,1-.09,0,.07.07,0,0,1,0-.08.07.07,0,0,1,.09-.05A.07.07,0,0,1,47.46,20Z"/><path d="M48,16.07a.76.76,0,0,1-.45-.14c-.1-.07-.06-.19,0-.28l.09.06s-.05.1,0,.12A.69.69,0,0,0,48,16a.63.63,0,0,0,.38-.16l.08.08A.75.75,0,0,1,48,16.07Z"/><path d="M43.45,16.48a.24.24,0,0,1-.12,0,.29.29,0,0,1-.12-.18.26.26,0,0,1,0-.21.37.37,0,0,1,.3-.15.21.21,0,0,1,.2.07l.1.06a4.4,4.4,0,0,0,.48.11v.1a4.07,4.07,0,0,1-.51-.11.36.36,0,0,1-.13-.09.11.11,0,0,0-.12,0,.36.36,0,0,0-.23.11.15.15,0,0,0,0,.13.23.23,0,0,0,.07.11.2.2,0,0,0,.15,0s0-.05,0-.07a.07.07,0,0,0-.09-.06h0a.09.09,0,0,0,0,.05l-.07.08s-.09-.1-.06-.17,0-.06.11-.07a.18.18,0,0,1,.2.15.15.15,0,0,1-.1.18Z"/><path d="M42.22,16.11a.37.37,0,0,1-.33-.15l.08-.05a.31.31,0,0,0,.3.09c.24,0,.31-.14.32-.17a.24.24,0,0,0,0-.17.43.43,0,0,0-.19-.06v-.1a.51.51,0,0,1,.25.09.35.35,0,0,1,.06.26c0,.09-.14.23-.41.25Z"/><path class="cls-3" d="M46.8,32.85a2.65,2.65,0,0,0,.82-1c.19-.51.28-1.46.46-1.94.24-.83.7-1.63.15-1.57s-.71.56-.91.94a2.77,2.77,0,0,0-.35.6c0-.28-.15-1.11-.18-1.95s0-1.6,0-1.9a5.36,5.36,0,0,0-.12-1.07.45.45,0,0,0-.35-.27.4.4,0,0,0-.37.36,1.7,1.7,0,0,0,0,.27c0,.22,0,.52,0,.77s0,.58,0,.84c0,.52-.07,1-.08,1.09,0-.19-.09-1.1-.12-2,0-.33,0-.65,0-.95a4.84,4.84,0,0,0,0-.68c0-.33-.14-.47-.38-.47s-.38.11-.45.47a2.93,2.93,0,0,0,0,.68c0,.24,0,.5,0,.76,0,1,0,2-.07,2.32a10.35,10.35,0,0,1-.13-1.3c0-.27,0-.59,0-.9s0-.65,0-.9-.06-.59-.35-.56-.31.09-.38.5c0,.22,0,.62,0,.92,0,.57,0,1.07,0,1.59,0,.31,0,.56,0,.72a4.19,4.19,0,0,1-.12-.69c0-.41-.08-.94-.08-.82,0-.21,0-.52,0-.79s0-.42-.22-.41-.37.1-.41.48,0,.79,0,1a12.74,12.74,0,0,1-.17,2c0,.23-.1.53-.14.86a6.11,6.11,0,0,0,.09,1.93c.18.67.66,1,.64,1.41s0,1.24,0,1.6.3.37.94.23c1-.22,1.61.23,2.47-.1a8.93,8.93,0,0,1,.1-1.93Z"/><path class="cls-5" d="M43.65,35.15a.55.55,0,0,1-.34-.09.38.38,0,0,1-.12-.3v-.4c0-.4,0-.88,0-1.2a1.12,1.12,0,0,0-.25-.62,2.52,2.52,0,0,1-.39-.77,6.8,6.8,0,0,1-.09-2c0-.16,0-.32.08-.46a3.77,3.77,0,0,0,.07-.4,14.33,14.33,0,0,0,.17-2v-.16c0-.25,0-.63,0-.84,0-.42.22-.52.48-.54a.24.24,0,0,1,.19,0,.46.46,0,0,1,.11.37v.06c0,.27,0,.59,0,.78s0,.11,0,.21h0c0-.21,0-.41,0-.62s0-.25,0-.38v-.16c0-.27,0-.58,0-.77.08-.52.32-.58.45-.56a.3.3,0,0,1,.23.07.85.85,0,0,1,.2.56c0,.09,0,.2,0,.31s0,.36,0,.58,0,.64,0,.91l0,.42c0-.42,0-.93,0-1.44,0-.19,0-.37,0-.55v-.2a2.72,2.72,0,0,1,0-.71c.08-.39.33-.53.52-.53.34,0,.42.29.46.54a3.47,3.47,0,0,1,0,.48v.21c0,.3,0,.62,0,.95s0,.62.05.91v-.05a2.54,2.54,0,0,0,0-.39c0-.14,0-.3,0-.44s0-.26,0-.39a2.54,2.54,0,0,1,0-.39v-.06a.39.39,0,0,1,0-.16V25a.48.48,0,0,1,.45-.42.51.51,0,0,1,.42.31,3.63,3.63,0,0,1,.11.84c0,.09,0,.17,0,.25s0,.4,0,.72,0,.77,0,1.19.08,1,.12,1.42a1.13,1.13,0,0,1,0,.25c.07-.11.14-.22.2-.3l0-.07a1.19,1.19,0,0,0,.08-.16c.18-.35.38-.76.88-.81a.33.33,0,0,1,.29.09c.13.17,0,.51-.16,1-.07.19-.14.39-.2.6a7.87,7.87,0,0,0-.22.92,7.16,7.16,0,0,1-.24,1,2.24,2.24,0,0,1-.7.93l-.12.12,0,.08a1.84,1.84,0,0,1,0,.43,5.11,5.11,0,0,0-.05,1.48v0l0,0a2.55,2.55,0,0,1-1.27.09,3.1,3.1,0,0,0-1.21,0A3.77,3.77,0,0,1,43.65,35.15Zm-.32-9.56h0c-.17,0-.29.05-.34.41,0,.2,0,.57,0,.82V27a14.08,14.08,0,0,1-.17,2,3.92,3.92,0,0,1-.07.41c0,.14-.06.29-.08.45a6.48,6.48,0,0,0,.09,1.91,2.55,2.55,0,0,0,.36.72,1.18,1.18,0,0,1,.28.7c0,.32,0,.8,0,1.19v.41a.2.2,0,0,0,.07.18c.13.1.49,0,.79,0a3.58,3.58,0,0,1,1.26,0,2.46,2.46,0,0,0,1.14-.06,5.8,5.8,0,0,1,.06-1.47,2.5,2.5,0,0,0,.05-.41l0-.15h0l.14-.14a2.23,2.23,0,0,0,.66-.87,8,8,0,0,0,.24-1,6.59,6.59,0,0,1,.22-.94c.06-.2.13-.41.2-.6.13-.36.26-.73.18-.84a.19.19,0,0,0-.16,0c-.41,0-.59.39-.75.73l-.09.17,0,.07a2.3,2.3,0,0,0-.29.52H46.9c0-.11,0-.29,0-.52-.05-.39-.11-.91-.13-1.44s0-.85,0-1.19,0-.57,0-.71,0-.17,0-.25a3.63,3.63,0,0,0-.1-.8.38.38,0,0,0-.28-.21A.32.32,0,0,0,46,25v.05a.71.71,0,0,0,0,.15v.06a2.41,2.41,0,0,0,0,.38c0,.13,0,.27,0,.4s0,.28,0,.43a2.67,2.67,0,0,1,0,.4c0,.49-.06,1-.08,1.1h-.15c0-.08,0-.27,0-.51s-.07-.92-.09-1.45c0-.32,0-.65,0-.95v-.21a3.17,3.17,0,0,0,0-.46c0-.34-.15-.41-.31-.41s-.32.11-.38.41a2.9,2.9,0,0,0,0,.67v.2c0,.18,0,.37,0,.56,0,1.06,0,2-.08,2.33h-.15a.5.5,0,0,0,0-.15,11.13,11.13,0,0,1-.11-1.15c0-.27,0-.6,0-.91s0-.41,0-.58,0-.22,0-.32a.64.64,0,0,0-.15-.44.11.11,0,0,0-.12,0h0c-.19,0-.26.27-.29.44s0,.48,0,.75v.16c0,.13,0,.26,0,.38,0,.42,0,.81,0,1.2,0,.23,0,.42,0,.58v.22h-.07s-.05,0-.08-.08h0a3,3,0,0,1-.13-.68c0-.21,0-.45-.05-.62s0-.18,0-.2h0c0-.2,0-.51,0-.78v-.06c0-.1,0-.22-.06-.26S43.37,25.59,43.33,25.59Z"/><path class="cls-3" d="M46.19,30.53a1.51,1.51,0,0,1,.75-1"/><path class="cls-5" d="M46.26,30.56l-.14,0a1.59,1.59,0,0,1,.79-1l.06.13A1.47,1.47,0,0,0,46.26,30.56Z"/><path class="cls-5" d="M43.85,30l-.06-.14.64-.22.36-.11.4-.13a4.5,4.5,0,0,1,.82-.22,4.63,4.63,0,0,1,.62-.09v.15a4.36,4.36,0,0,0-.6.09,5.22,5.22,0,0,0-.8.21l-.41.13-.35.12C44.27,29.84,44.05,29.91,43.85,30Z"/><path class="cls-5" d="M43.52,33.23a.47.47,0,0,1-.17,0l-.05,0h0L43.2,33a.17.17,0,0,1,.17,0h0a.47.47,0,0,0,.16,0H44A.6.6,0,0,0,44.3,33l.08.12a.68.68,0,0,1-.43.11h-.43Z"/><path class="cls-5" d="M45.61,33.3a.37.37,0,0,1-.21,0,.56.56,0,0,1-.17-.09l.1-.12a.33.33,0,0,0,.13.07c.06,0,.16,0,.65,0a1,1,0,0,0,.64-.31l.06,0,0,0a1.08,1.08,0,0,1-.75.36Z"/></g></svg>