<svg id="Boutons" xmlns="http://www.w3.org/2000/svg" viewBox="0 0 90 60"><defs><style>.cls-1{fill:red;}.cls-2{fill:#060;}.cls-3{fill:#ff0;}.cls-4{fill:#fff;}.cls-5{fill:#039;}</style></defs><title>portugal</title><rect class="cls-1" width="90" height="60"/><rect class="cls-2" width="36" height="60"/><path class="cls-3" d="M47.74,39.31C43.2,39.17,22.42,26.2,22.28,24.13l1.15-1.91c2.06,3,23.3,15.61,25.39,15.16l-1.08,1.93"/><path d="M47.74,39.35h0c-2.41-.07-9.26-3.75-14.39-6.87-2.93-1.79-5.66-3.59-7.68-5.09-1.54-1.13-3.38-2.62-3.42-3.25a0,0,0,0,1,0,0l1.14-1.91,0,0a0,0,0,0,1,0,0c1.05,1.53,7.12,5.55,12.67,8.85,6.54,3.9,11.75,6.49,12.67,6.29a.06.06,0,0,1,0,0,0,0,0,0,1,0,0l-1.08,1.92A.05.05,0,0,1,47.74,39.35ZM22.33,24.14c.1,1,4.74,4.42,11.06,8.27,5.1,3.1,11.9,6.75,14.32,6.85l1-1.83c-1.31.07-7.23-3.08-12.65-6.3S24.6,23.88,23.43,22.3Z"/><path class="cls-3" d="M23.19,22c-.41,1.09,5.42,4.7,12.43,9s13.06,6.9,13.51,6.53a3.71,3.71,0,0,0,.2-.38c-.08.12-.28.16-.6.07-1.9-.54-6.84-2.81-13-6.52S24.33,23.48,23.5,22a.83.83,0,0,1-.09-.43h0l-.18.31,0,.05ZM47.84,39.37c-.07.14-.22.14-.49.11-1.69-.19-6.84-2.69-12.92-6.33-7.09-4.24-12.93-8.1-12.3-9.11l.17-.31h0c-.57,1.71,11.54,8.64,12.25,9.08C41.6,37.16,47.51,39.7,48,39l-.19.33Z"/><path d="M47.56,39.54l-.21,0c-1.73-.19-6.93-2.74-13-6.33-8-4.81-12.07-7.71-12.34-8.86a.43.43,0,0,1,0-.32l.18-.3a0,0,0,0,1,.05,0h0l0,0v0c-.44,1.32,7.18,6,11.76,8.74l.48.28C41.53,37.07,47.49,39.65,48,39a.06.06,0,0,1,.06,0,0,0,0,0,1,0,.06l-.19.33h0A.32.32,0,0,1,47.56,39.54ZM22.27,23.87l-.1.19a.3.3,0,0,0,0,.25c.27,1.13,4.29,4,12.31,8.8,6,3.6,11.19,6.14,12.9,6.33.27,0,.39,0,.45-.09h0l.1-.18c-1.23.37-7.82-2.88-13.34-6.3l-.47-.28C26.25,28,22.28,25,22.27,23.87ZM49,37.52c-1.2,0-7.27-2.84-13.38-6.56C28.05,26.37,22.74,23,23.15,22h0l0-.05.18-.31a.05.05,0,0,1,0,0h.05s0,0,0,0a.76.76,0,0,0,.09.4c.87,1.54,7,5.39,12.25,8.57,5.76,3.49,10.87,5.92,13,6.52.28.08.48.06.56-.06h0s0,0,0,0,0,0-.18.39l0,0h0A.3.3,0,0,1,49,37.52ZM23.23,22c-.4,1.11,6.41,5.25,12.42,8.91,7.2,4.38,13,6.84,13.45,6.53l0,0a1.94,1.94,0,0,1,.1-.17.88.88,0,0,1-.5,0c-2.09-.6-7.21-3-13-6.53-10-6.06-11.82-7.78-12.29-8.6a1,1,0,0,1-.09-.33Z"/><path class="cls-3" d="M36,25.38c4.53,0,10.13-.62,13.35-1.9l-.7-1.13C46.78,23.41,41.15,24.1,36,24.2c-6.11-.05-10.43-.62-12.59-2.07l-.65,1.2c4,1.68,8,2,13.28,2.05"/><path d="M36,25.43h0c-5.25,0-9.3-.37-13.3-2.06,0,0,0,0,0,0a0,0,0,0,1,0,0l.65-1.2,0,0s0,0,0,0c2,1.35,6,2,12.56,2.07,6.66-.13,11.24-1.05,12.67-1.84a0,0,0,0,1,.06,0l.7,1.13v0a0,0,0,0,1,0,0c-2.22.89-6.9,1.86-13.36,1.91ZM22.81,23.31c4,1.67,8,2,13.21,2h0c6.4-.05,11-1,13.29-1.88l-.65-1.05c-1.48.8-6.06,1.7-12.68,1.84-6.54-.06-10.53-.72-12.57-2.06Z"/><path class="cls-3" d="M49.57,23.51a19.83,19.83,0,0,1-5.31,1.43,54.4,54.4,0,0,1-8.25.6,59.2,59.2,0,0,1-7.9-.5,23.11,23.11,0,0,1-5.55-1.47l.16-.31a23.8,23.8,0,0,0,5.44,1.44,56.7,56.7,0,0,0,7.84.5,54.72,54.72,0,0,0,8.19-.6c3.18-.52,4.91-1.17,5.15-1.48l.23.39ZM49,22.36a15.92,15.92,0,0,1-5.08,1.37,53.86,53.86,0,0,1-7.84.55,53.4,53.4,0,0,1-7.57-.49,21,21,0,0,1-5.28-1.33l.18-.3a18.05,18.05,0,0,0,5.14,1.31,53.23,53.23,0,0,0,7.53.46,53.09,53.09,0,0,0,7.79-.55A13.82,13.82,0,0,0,48.74,22l.22.36Z"/><path d="M36,25.58a59.11,59.11,0,0,1-7.85-.5,23.38,23.38,0,0,1-5.49-1.44l-.06,0s0,0,0,0v0l.07-.13.09-.18a0,0,0,0,1,.05,0,23.85,23.85,0,0,0,5.43,1.44,58.7,58.7,0,0,0,7.78.5H36a54.57,54.57,0,0,0,8.19-.61c3.13-.5,4.88-1.15,5.12-1.46h0l0,0,.22.38a0,0,0,0,1,0,.05h0A19.83,19.83,0,0,1,44.27,25a55.55,55.55,0,0,1-8.26.59Zm-13.33-2h0A22.93,22.93,0,0,0,28.11,25a59,59,0,0,0,7.84.5H36a56.6,56.6,0,0,0,8.24-.6,21.11,21.11,0,0,0,5.26-1.4l-.18-.31c-.34.31-1.95.94-5.13,1.45a56.16,56.16,0,0,1-8.2.61,59.78,59.78,0,0,1-7.85-.5,24.06,24.06,0,0,1-5.41-1.44l-.07.15ZM36,24.32a53.19,53.19,0,0,1-7.51-.49,20.31,20.31,0,0,1-5-1.24l-.25-.09,0,0a0,0,0,0,1,0,0c.05-.1.11-.2.17-.3s0,0,.06,0a17.71,17.71,0,0,0,5.12,1.3,52.8,52.8,0,0,0,7.46.47H36a53.92,53.92,0,0,0,7.78-.55A13.67,13.67,0,0,0,48.71,22h0l0,0,.22.37v0a.05.05,0,0,1,0,0c-.33.27-2,.88-5.09,1.37a54.34,54.34,0,0,1-7.85.55ZM23.26,22.44l.2.07a20.19,20.19,0,0,0,5,1.24,53.14,53.14,0,0,0,7.5.49H36a57.2,57.2,0,0,0,7.84-.55,16.6,16.6,0,0,0,5-1.34l-.18-.29a14.09,14.09,0,0,1-4.89,1.36A53.75,53.75,0,0,1,36,24H36a54.45,54.45,0,0,1-7.47-.47,18,18,0,0,1-5.11-1.3ZM49,22.36Z"/><path class="cls-3" d="M21.13,30.85c2.79,1.5,9,2.26,14.85,2.31,5.34,0,12.29-.83,14.9-2.21l-.08-1.5c-.81,1.27-8.26,2.49-14.88,2.44s-12.75-1.07-14.8-2.39v1.35"/><path d="M36.06,33.2H36c-7.92-.07-12.87-1.24-14.87-2.31l0,0V29.5a.05.05,0,0,1,0,0s0,0,0,0c2.07,1.34,8.28,2.34,14.78,2.39s14-1.17,14.85-2.42c0,0,0,0,0,0s0,0,0,0l.07,1.5a.05.05,0,0,1,0,0C48.28,32.38,41.32,33.2,36.06,33.2ZM21.17,30.82c2,1.07,6.93,2.22,14.81,2.29h.08c5.23,0,12.15-.81,14.77-2.18l-.06-1.36c-1.12,1.26-8.32,2.42-14.85,2.37s-12.61-1-14.76-2.36Z"/><path class="cls-3" d="M51,30.63V31c-.39.47-2.84,1.17-5.92,1.67a60.87,60.87,0,0,1-9.19.63,58,58,0,0,1-8.72-.6A21.56,21.56,0,0,1,21,31v-.42c1.36.91,5.05,1.57,6.29,1.77a57.34,57.34,0,0,0,8.67.6,60,60,0,0,0,9.14-.63c2.21-.32,5.35-1.15,6-1.7Zm0-1.27v.36c-.39.46-2.84,1.17-5.92,1.67a60.77,60.77,0,0,1-9.19.63,58.08,58.08,0,0,1-8.72-.6A21.89,21.89,0,0,1,21,29.73v-.41c1.37.9,5.05,1.56,6.29,1.77a57.54,57.54,0,0,0,8.67.59,61.56,61.56,0,0,0,9.14-.62c2.21-.32,5.35-1.15,6-1.7Z"/><path d="M35.91,33.33a58,58,0,0,1-8.73-.6,22,22,0,0,1-6.25-1.68l0,0v-.42a.08.08,0,0,1,0,0H21c1.36.9,5.14,1.57,6.27,1.76a58.36,58.36,0,0,0,8.66.59,61.67,61.67,0,0,0,9.14-.62C47.23,32,50.37,31.15,51,30.6h0s0,0,0,0V31a0,0,0,0,1,0,0c-.4.48-2.9,1.19-5.94,1.68A61.1,61.1,0,0,1,35.91,33.33ZM21,31a21.87,21.87,0,0,0,6.21,1.67,57.65,57.65,0,0,0,8.71.6,60.86,60.86,0,0,0,9.19-.63C48,32.14,50.56,31.44,51,31v-.26a20.1,20.1,0,0,1-5.92,1.65,60.41,60.41,0,0,1-9.15.63,57.24,57.24,0,0,1-8.68-.6c-1.11-.18-4.8-.84-6.23-1.73Zm14.92,1.08a57.79,57.79,0,0,1-8.72-.6,21.93,21.93,0,0,1-6.26-1.69.05.05,0,0,1,0,0v-.41a.05.05,0,0,1,0,0,0,0,0,0,1,.05,0c1.37.91,5.14,1.58,6.27,1.76a57,57,0,0,0,8.66.6A60.27,60.27,0,0,0,45.05,31c2.19-.31,5.33-1.13,5.94-1.68,0,0,0,0,0,0l0,0v.38s0,0,0,0c-.4.49-2.9,1.2-5.94,1.69A61,61,0,0,1,35.91,32.06ZM21,29.71a21.42,21.42,0,0,0,6.2,1.66,57.65,57.65,0,0,0,8.71.6,62.28,62.28,0,0,0,9.19-.62C48,30.87,50.56,30.16,51,29.7v-.25a20.74,20.74,0,0,1-5.92,1.65,60.31,60.31,0,0,1-9.15.63,57,57,0,0,1-8.67-.6C26.12,31,22.43,30.29,21,29.4Z"/><path class="cls-3" d="M36,39.05a51.49,51.49,0,0,1-13.08-2l.85,1.32a35.19,35.19,0,0,0,12.29,2c4.88-.15,9.14-.52,12.14-2L49,37c-2,1-9,2-13.07,2.06"/><path d="M35.28,40.4a35.24,35.24,0,0,1-11.56-2l0,0L22.86,37a0,0,0,0,1,0,0l0,0,.59.16A49.89,49.89,0,0,0,36,39C40.05,39,47,37.9,49,37h0a.06.06,0,0,1,0,.06l-.86,1.37h0c-3.13,1.53-7.7,1.86-12.16,2ZM23.77,38.31A35.09,35.09,0,0,0,36,40.3c4.45-.13,9-.45,12.11-2l.78-1.24c-2.17.94-8.94,2-13,2h0a49.07,49.07,0,0,1-12.5-1.88L23,37.08Z"/><path class="cls-3" d="M48.49,38.06c-.12.19-.25.39-.38.57a33.9,33.9,0,0,1-4.59,1.18A41.2,41.2,0,0,1,36,40.5a36,36,0,0,1-12.52-2.15l-.18-.3,0,0,.3.11A40.4,40.4,0,0,0,36,40.17a42.27,42.27,0,0,0,7.39-.68,22,22,0,0,0,5-1.37l.11-.06Zm.76-1.24h0l-.3.49a31.75,31.75,0,0,1-5.8,1.29,47.5,47.5,0,0,1-7.12.6,48.69,48.69,0,0,1-13.24-2l-.17-.32a56,56,0,0,0,13.41,2,49.72,49.72,0,0,0,7.08-.61A37,37,0,0,0,48.89,37s0,0,0,0l.38-.14Z"/><path d="M36,40.54a35.77,35.77,0,0,1-12.54-2.15h0l-.17-.31a0,0,0,0,1,0,0l0-.05a0,0,0,0,1,.05,0l.3.11A39.8,39.8,0,0,0,36,40.13h.11a42.58,42.58,0,0,0,7.27-.68,20,20,0,0,0,5-1.37l.1-.06a.07.07,0,0,1,.06,0,0,0,0,0,1,0,0c-.13.2-.26.4-.39.58h0a34,34,0,0,1-4.6,1.18A42,42,0,0,1,36,40.54ZM23.48,38.32c3.23,1.4,8.6,2.08,12.5,2.14a41.9,41.9,0,0,0,7.53-.69,35,35,0,0,0,4.57-1.17l.29-.42a22.66,22.66,0,0,1-5,1.35,43.26,43.26,0,0,1-7.4.68,39.71,39.71,0,0,1-12.42-2.05l-.26-.1ZM36,39.25a48.78,48.78,0,0,1-13.25-2l0,0-.17-.32a.09.09,0,0,1,0,0h0a55.7,55.7,0,0,0,13.4,2,48,48,0,0,0,6.45-.52l.62-.09A37,37,0,0,0,48.82,37h0a0,0,0,0,1,0,0l.37-.14a0,0,0,0,1,.05,0h0a0,0,0,0,1,0,.05l-.29.49,0,0a33.77,33.77,0,0,1-5.81,1.29l-.83.11A41.58,41.58,0,0,1,36,39.25Zm-13.21-2a49.16,49.16,0,0,0,13.21,2,41.25,41.25,0,0,0,6.28-.49l.84-.11a32.55,32.55,0,0,0,5.78-1.29c.08-.13.16-.26.23-.39l-.24.09v0s0,0,0,0l0,0a37.19,37.19,0,0,1-5.73,1.26l-.62.09a48,48,0,0,1-6.46.52,55.5,55.5,0,0,1-13.33-2Zm26.42-.38,0,0Z"/><path class="cls-3" d="M49.32,29.66a14.27,14.27,0,0,1-3.87,9.68,14,14,0,0,1-9.54,4,14.08,14.08,0,0,1-9.34-3.92,14.22,14.22,0,0,1-3.88-9.48,13.43,13.43,0,0,1,4.69-10,14,14,0,0,1,9-3.19,13.76,13.76,0,0,1,10,5c1.77,2.13,2.54,4.46,2.94,8ZM36,15.21A14.81,14.81,0,1,1,21.11,30,14.9,14.9,0,0,1,36,15.21"/><path d="M36,44.87A14.85,14.85,0,1,1,46.49,19.53a14.73,14.73,0,0,1,0,21A14.89,14.89,0,0,1,36,44.87Zm0-29.61A14.76,14.76,0,1,0,46.43,40.45a14.63,14.63,0,0,0,0-20.86A14.78,14.78,0,0,0,36,15.26Zm-.22,28.08a14.26,14.26,0,0,1-9.2-3.93,14.27,14.27,0,0,1-3.88-9.51,13.51,13.51,0,0,1,4.71-10,14.11,14.11,0,0,1,9-3.21,13.92,13.92,0,0,1,10,5c1.7,2.05,2.53,4.29,3,8h0a14.32,14.32,0,0,1-3.89,9.71,14,14,0,0,1-9.57,4Zm.38-26.62a14.09,14.09,0,0,0-8.7,3.19,13.48,13.48,0,0,0-4.67,10,14.12,14.12,0,0,0,3.86,9.45,14.09,14.09,0,0,0,9.13,3.91h.18a13.88,13.88,0,0,0,9.51-3.94,14.23,14.23,0,0,0,3.86-9.64c-.42-3.69-1.24-5.92-2.93-8a13.84,13.84,0,0,0-10-5Z"/><path class="cls-3" d="M36,15.16A14.86,14.86,0,1,1,21.13,30,14.88,14.88,0,0,1,36,15.16ZM21.46,30A14.53,14.53,0,1,0,36,15.49,14.59,14.59,0,0,0,21.46,30Z"/><path d="M36,44.91A14.9,14.9,0,1,1,50.88,30,14.91,14.91,0,0,1,36,44.91Zm0-29.7A14.81,14.81,0,1,0,50.8,30,14.82,14.82,0,0,0,36,15.21Zm0,29.37A14.61,14.61,0,1,1,46.27,40.3,14.45,14.45,0,0,1,36,44.58Zm0-29a14.54,14.54,0,1,0,10.22,4.26A14.34,14.34,0,0,0,36,15.53Z"/><path class="cls-3" d="M36,16.4A13.61,13.61,0,1,1,22.39,30,13.65,13.65,0,0,1,36,16.4ZM22.72,30A13.28,13.28,0,1,0,36,16.72,13.34,13.34,0,0,0,22.72,30Z"/><path d="M36,43.65a13.71,13.71,0,1,1,9.63-4A13.54,13.54,0,0,1,36,43.65Zm0-27.21a13.61,13.61,0,1,0,9.57,4A13.45,13.45,0,0,0,36,16.44Zm0,26.88a13.37,13.37,0,1,1,9.4-3.91A13.24,13.24,0,0,1,36,43.32Zm0-26.55a13.26,13.26,0,1,0,9.34,3.88A13.17,13.17,0,0,0,36,16.77Z"/><path class="cls-3" d="M36.6,15.1H35.32V45H36.6Z"/><path d="M36.6,45H35.33a0,0,0,0,1,0,0V15.07H36.6a0,0,0,0,1,0,0V45l0,0Zm-1.23-.09h1.19V15.15H35.37Z"/><path class="cls-3" d="M36.47,14.93h.32V45.12h-.33V14.93Zm-1.26,0h.32V45.12h-.32V14.93Z"/><path d="M35.53,45.16h-.32a0,0,0,0,1-.05,0V14.94h0a0,0,0,0,1,.05,0h.32a0,0,0,0,1,0,0V45.12s0,0,0,0Zm-.28-.08h.24V15h-.24Zm1.55.08h-.33a0,0,0,0,1,0,0V14.93a0,0,0,0,1,0,0h.35a0,0,0,0,1,.05,0V45.12s0,0,0,0Zm-.29-.08h.24V15h-.24Z"/><path class="cls-3" d="M50.85,30.59v-1.1l-.9-.84-5.1-1.35-7.35-.75L28.65,27l-6.3,1.5-1.27.94v1.11L24.3,29.1,32,27.9H39.3l5.4.6,3.75.9Z"/><path d="M50.85,30.63h0l-2.4-1.19-3.74-.9-5.39-.6H32l-7.64,1.2L21.1,30.58a0,0,0,0,1-.05,0,0,0,0,0,1,0,0V29.44a0,0,0,0,1,0,0l1.27-.94h0l6.3-1.5,8.86-.45,7.35.75L50,28.61h0l.9.84s0,0,0,0v1.1a.05.05,0,0,1,0,0ZM39.3,27.86l5.4.6,3.76.9,2.35,1.16v-1l-.88-.82-5.09-1.35-7.34-.75L28.65,27l-6.28,1.5-1.25.92v1l3.16-1.42h0l7.65-1.2Z"/><path class="cls-3" d="M36,27.72a51.7,51.7,0,0,1,9.61.85c2.79.56,4.75,1.26,5.42,2V31c-.81-1-3.45-1.69-5.48-2.1A51,51,0,0,0,36,28.05a53.89,53.89,0,0,0-9.75.87C24.13,29.34,21.3,30.18,21,31v-.4c.19-.57,2.3-1.43,5.25-2A52.68,52.68,0,0,1,36,27.72Zm0-1.28a51.64,51.64,0,0,1,9.61.86c2.79.56,4.75,1.25,5.42,2v.38c-.81-1-3.45-1.68-5.48-2.09A51,51,0,0,0,36,26.78a51.92,51.92,0,0,0-9.73.87c-2,.38-5,1.25-5.31,2.08v-.41c.19-.56,2.34-1.44,5.25-2A53.47,53.47,0,0,1,36,26.44Z"/><path d="M21,31h0s0,0,0,0v-.42c.21-.61,2.43-1.47,5.28-2a54.28,54.28,0,0,1,9.8-.87v0h.1a51.83,51.83,0,0,1,9.52.86c2.91.58,4.79,1.29,5.44,2a0,0,0,0,1,0,0V31a.05.05,0,0,1,0,0A.06.06,0,0,1,51,31c-.85-1-3.78-1.74-5.45-2.08A52,52,0,0,0,36,28.09a53.93,53.93,0,0,0-9.74.87C24,29.42,21.31,30.26,21,31Zm15.14-3a51.2,51.2,0,0,1,9.46.85c1.63.33,4.47,1,5.42,2v-.25c-.64-.75-2.5-1.44-5.38-2a50.76,50.76,0,0,0-9.5-.86H36a52.3,52.3,0,0,0-9.78.87c-2.36.47-5,1.32-5.22,2v.24c.63-.85,3.54-1.62,5.25-2A52.29,52.29,0,0,1,36,28ZM21,29.77h0s0,0,0,0v-.41h0c.21-.62,2.48-1.5,5.28-2A53.39,53.39,0,0,1,36,26.4h.1a51,51,0,0,1,9.52.86c2.91.58,4.79,1.29,5.44,2a0,0,0,0,1,0,0v.38s0,0,0,0,0,0,0,0c-.86-1-3.79-1.75-5.46-2.08A51.14,51.14,0,0,0,36,26.82a53,53,0,0,0-9.72.87c-2.34.44-5,1.31-5.28,2C21,29.76,21,29.77,21,29.77Zm15.15-3a51.14,51.14,0,0,1,9.45.86c1.63.32,4.47,1,5.43,2v-.26c-.65-.74-2.51-1.43-5.38-2A51.19,51.19,0,0,0,36,26.48h0a54,54,0,0,0-9.78.87c-3,.59-5,1.47-5.22,2v.23c.6-.81,3.42-1.6,5.26-2A54.1,54.1,0,0,1,36,26.73Z"/><path class="cls-3" d="M35.92,19.94c5.53,0,10.35.78,12.56,1.91l.8,1.39c-1.92-1-7.12-2.11-13.35-1.95-5.08,0-10.5.56-13.23,2l1-1.6c2.24-1.16,7.51-1.75,12.26-1.76"/><path d="M22.7,23.35l0,0a0,0,0,0,1,0,0l1-1.61h0c2.33-1.21,7.84-1.75,12.28-1.76h0c5.33,0,10.26.72,12.58,1.91v0l.81,1.39s0,0,0,.05a0,0,0,0,1-.05,0c-2-1.09-7.23-2.1-13.33-2-8.31.06-11.84,1.28-13.21,2Zm1-1.62-.87,1.47c1.46-.74,5-1.9,13.11-1.95,6-.16,11.13.82,13.24,1.88l-.72-1.25C46.14,20.7,41.23,20,35.93,20h0C31.5,20,26,20.53,23.69,21.73Z"/><path class="cls-3" d="M36,21.09a49.73,49.73,0,0,1,8.62.61,15.71,15.71,0,0,1,4.71,1.39l.24.42a17.43,17.43,0,0,0-5-1.49A48.36,48.36,0,0,0,36,21.43a50.41,50.41,0,0,0-8.7.59,15.2,15.2,0,0,0-4.67,1.46l.23-.45a16.1,16.1,0,0,1,4.38-1.34,52.11,52.11,0,0,1,8.77-.6Zm0-1.27a48.46,48.46,0,0,1,8.32.58,13.31,13.31,0,0,1,4.31,1.41l.35.55c-.6-.66-2.83-1.28-4.8-1.63A52,52,0,0,0,36,20.15a50.3,50.3,0,0,0-8.36.61A13.89,13.89,0,0,0,23.48,22l.3-.46a15.23,15.23,0,0,1,3.8-1.15A50.94,50.94,0,0,1,36,19.82Z"/><path d="M49.57,23.55h0a17.09,17.09,0,0,0-5-1.48,47,47,0,0,0-8.57-.6,50.28,50.28,0,0,0-8.69.59,15.42,15.42,0,0,0-4.66,1.45s0,0-.05,0,0,0,0-.05l.23-.45h0a15.64,15.64,0,0,1,4.39-1.35,50.53,50.53,0,0,1,8.78-.6h0a49.48,49.48,0,0,1,8.62.61c2.3.43,4.43,1.05,4.74,1.4l.25.43a0,0,0,0,1,0,.05ZM36.23,21.39a47.74,47.74,0,0,1,8.35.59,19,19,0,0,1,4.87,1.41l-.16-.28a16.14,16.14,0,0,0-4.68-1.37,50.56,50.56,0,0,0-8.61-.6h0a49.22,49.22,0,0,0-8.76.6,15.56,15.56,0,0,0-4.36,1.33l-.15.29A17.06,17.06,0,0,1,27.29,22a49.42,49.42,0,0,1,8.7-.59ZM49,22.4h0c-.61-.68-3-1.3-4.77-1.62A52.25,52.25,0,0,0,36,20.19a49,49,0,0,0-8.35.62,13.91,13.91,0,0,0-4.14,1.27s0,0-.05,0,0,0,0-.05l.31-.46s0,0,0,0a15.35,15.35,0,0,1,3.81-1.15A50.64,50.64,0,0,1,36,19.78h0a48.13,48.13,0,0,1,8.33.58,13.5,13.5,0,0,1,4.32,1.41h0l.35.56s0,0,0,.05ZM36,20.1a52.63,52.63,0,0,1,8.19.58,14.17,14.17,0,0,1,4.59,1.45l-.18-.29a13.4,13.4,0,0,0-4.29-1.4A47.88,47.88,0,0,0,36,19.86h0a49.19,49.19,0,0,0-8.4.62,14.89,14.89,0,0,0-3.78,1.13l-.19.3a15.42,15.42,0,0,1,4-1.19A50.29,50.29,0,0,1,36,20.1Z"/><path class="cls-3" d="M43.37,36.19A38.13,38.13,0,0,0,36,35.63c-9.21.11-12.19,1.89-12.55,2.43l-.69-1.12c2.35-1.7,7.36-2.66,13.29-2.56a47.11,47.11,0,0,1,8,.69l-.64,1.12"/><path d="M23.44,38.1h0l0,0L22.72,37a0,0,0,0,1,0-.06c2.35-1.7,7.33-2.66,13.31-2.56A46.49,46.49,0,0,1,44,35l0,0v0l-.64,1.12a0,0,0,0,1,0,0A38.69,38.69,0,0,0,36,35.67c-9,.11-12.12,1.82-12.51,2.41ZM22.81,37l.63,1a6.65,6.65,0,0,1,2.95-1.34A40.77,40.77,0,0,1,36,35.58a38.52,38.52,0,0,1,7.36.56l.59-1a47.88,47.88,0,0,0-7.9-.68C30.1,34.33,25.16,35.27,22.81,37Z"/><path class="cls-3" d="M35.94,35.47a44.06,44.06,0,0,1,7.5.6l-.17.31A39.12,39.12,0,0,0,36,35.81,35.7,35.7,0,0,0,26.11,37c-.94.27-2.5.87-2.66,1.38l-.18-.29c.05-.3,1-.92,2.76-1.41a35.67,35.67,0,0,1,9.91-1.17Zm.11-1.29a45.71,45.71,0,0,1,8.06.7l-.18.32a42.84,42.84,0,0,0-7.86-.68,37.76,37.76,0,0,0-10.32,1.2c-1.06.31-2.89,1-2.95,1.51l-.18-.31c0-.48,1.63-1.11,3.06-1.52a37.75,37.75,0,0,1,10.37-1.22Z"/><path d="M23.45,38.38l0,0-.17-.29a0,0,0,0,1,0,0c.06-.33,1.06-.95,2.79-1.44a35.22,35.22,0,0,1,9.92-1.17h0a43.69,43.69,0,0,1,7.51.6l0,0v0l-.18.31a.05.05,0,0,1,0,0A38.81,38.81,0,0,0,36,35.85,34.93,34.93,0,0,0,26.13,37c-1,.28-2.5.89-2.64,1.35l0,0ZM23.32,38l.12.21c.28-.5,1.76-1.07,2.66-1.33A35.25,35.25,0,0,1,36,35.77a39.43,39.43,0,0,1,7.29.56l.14-.23a44.93,44.93,0,0,0-7.44-.59h0a34.9,34.9,0,0,0-9.88,1.17C24.29,37.17,23.39,37.77,23.32,38Zm-.52-.77,0,0-.17-.31v0c.05-.63,2.37-1.36,3.08-1.56a37.13,37.13,0,0,1,10.39-1.22h0a46.57,46.57,0,0,1,8.07.7s0,0,0,0a0,0,0,0,1,0,0l-.18.32a0,0,0,0,1,0,0,42.73,42.73,0,0,0-7.85-.68,37.25,37.25,0,0,0-10.31,1.2c-1.37.4-2.87,1-2.92,1.48a0,0,0,0,1,0,0Zm-.14-.36.12.22c.3-.66,2.68-1.36,3-1.45a37,37,0,0,1,10.33-1.2,41.77,41.77,0,0,1,7.84.68l.14-.25a46.75,46.75,0,0,0-8-.69,36.85,36.85,0,0,0-10.36,1.22C23.9,36,22.72,36.53,22.66,36.91Z"/><path class="cls-3" d="M49.14,37.11,48,38.82,44.85,36,36.6,30.45l-9.3-5.1L22.47,23.7l1-1.91.35-.19,3,.75,9.9,5.1,5.7,3.6,4.8,3.45,2,2.25Z"/><path d="M48,38.87h0L44.82,36l-8.24-5.54-9.3-5.1-4.82-1.65s0,0,0,0v0l1-1.91,0,0,.35-.19h0l3,.75,9.91,5.1,5.7,3.6,4.81,3.46,1.95,2.25s0,0,0,0l-.06.35v0l-1.1,1.72,0,0Zm-25.5-15.2,4.78,1.64,9.31,5.1L44.87,36,48,38.76l1.08-1.67,0-.33-1.93-2.23-4.8-3.45-5.69-3.59-9.9-5.1-3-.74-.33.17ZM49.14,37.11Z"/><path class="cls-3" d="M22.3,23.74c.84-.57,7.07,2.2,13.58,6.13S48.58,38.26,48,39.09l-.18.29-.09.07s.11-.13,0-.44c-.27-.91-4.68-4.42-12-8.83-7.12-4.25-13.06-6.81-13.65-6.08l.19-.36ZM49.36,37.08C49.9,36,44.13,31.68,37,27.44c-7.32-4.15-12.6-6.59-13.56-5.86l-.22.39s0,0,0-.06a.91.91,0,0,1,.6-.15c1.66,0,6.4,2.21,13.05,6,2.92,1.7,12.31,7.72,12.28,9.42,0,.14,0,.17-.05.25l.24-.37Z"/><path d="M47.75,39.49l0,0s0,0,0-.06h0s.09-.1,0-.38c-.28-.94-4.94-4.57-12-8.82-7.47-4.45-13.06-6.74-13.6-6.08,0,0,0,0-.05,0a0,0,0,0,1,0-.06l.19-.36h0c.89-.6,7.13,2.2,13.63,6.12,5.85,3.55,11.91,7.79,12.19,9.05a.29.29,0,0,1,0,.23l-.19.29h0l-.08.07h0ZM22.51,23.94c1.64,0,7.15,2.55,13.27,6.2,7.14,4.31,11.71,7.89,12,8.86a.94.94,0,0,1,.06.28l.14-.21a.26.26,0,0,0,0-.18c-.27-1.21-6.46-5.54-12.15-9-6.34-3.83-12.65-6.69-13.53-6.14l-.11.21A.85.85,0,0,1,22.51,23.94ZM49.12,37.49h0s0,0,0-.06l0,0s0-.06,0-.14v0c0-1.69-9.54-7.8-12.25-9.38-6.62-3.8-11.37-6-13-6h0a.93.93,0,0,0-.54.14l0,0s0,0-.05,0,0,0,0-.05h0l.22-.39v0c1.16-.87,8,2.71,13.61,5.86,6.46,3.83,13,8.52,12.41,9.7h0l-.21.32,0,0A.05.05,0,0,1,49.12,37.49ZM23.84,21.72c1.67,0,6.44,2.22,13.07,6,1.92,1.12,12.34,7.61,12.3,9.46v0l.12-.18c.48-1-4.95-5.18-12.38-9.58C29.13,23.05,24.33,21,23.44,21.61l-.11.19a1.12,1.12,0,0,1,.48-.08ZM49.36,37.08Z"/><path class="cls-4" d="M27.09,31.65A9,9,0,0,0,36,40.55a8.93,8.93,0,0,0,8.92-8.89h0V19.78l-17.81,0V31.65Z"/><path d="M36,40.6A9,9,0,0,1,27,31.7h0v-12l17.91,0V31.66a9,9,0,0,1-9,8.94Zm-8.84-9v0a8.86,8.86,0,0,0,17.71.05V19.83l-17.71,0Z"/><path class="cls-1" d="M27.42,31.67h0a8.55,8.55,0,0,0,17.09,0h0V20.16H27.43V31.67m13.66-8.06v8.11h0a4.44,4.44,0,0,1,0,.63,5,5,0,0,1-1.46,3,5.11,5.11,0,0,1-8.68-3.62v-8.1l10.2,0Z"/><path d="M36,40.22a8.62,8.62,0,0,1-8.59-8.55h.08A8.54,8.54,0,0,0,36,40.14a8.47,8.47,0,0,0,6-2.48,8.38,8.38,0,0,0,2.49-5.95V20.2h-17V31.67h-.08l0-11.55H44.55V31.68A8.57,8.57,0,0,1,36,40.22Zm0-3.38a5.19,5.19,0,0,1-5.12-5.15V23.55h0l10.21,0,0,0v8.13a4.26,4.26,0,0,1,0,.63,5,5,0,0,1-1.47,3A5.11,5.11,0,0,1,36,36.84Zm-5-13.21v8.06a5.1,5.1,0,0,0,1.5,3.57A5,5,0,0,0,36,36.76a5.08,5.08,0,0,0,5-4.41c0-.19,0-.42,0-.63V23.64Z"/><path class="cls-3" d="M28.53,23.16a1,1,0,0,1,.61-1,1,1,0,0,1,.63,1H28.53"/><path class="cls-3" d="M28,22.15l-.1,1h.62a.86.86,0,0,1,.61-.92.92.92,0,0,1,.61.92h.63l-.12-1Z"/><path d="M28.58,23.14h-.7l.11-1v0h2.32l.12,1h-.7v0a.89.89,0,0,0-.58-.88.8.8,0,0,0-.57.88Zm1.22-.07h.55l-.11-.88h-1a.9.9,0,0,1,.24.16A1,1,0,0,1,29.8,23.07Zm-1.84,0h.54a1,1,0,0,1,.34-.76.72.72,0,0,1,.19-.12h-1Z"/><path class="cls-3" d="M27.88,23.11h2.54a.11.11,0,0,1,.1.12.11.11,0,0,1-.1.11H27.88a.1.1,0,0,1-.1-.11C27.78,23.16,27.82,23.11,27.88,23.11Z"/><path d="M30.42,23.38H27.88a.15.15,0,0,1-.14-.15.15.15,0,0,1,.14-.16h2.54a.15.15,0,0,1,.13.16A.14.14,0,0,1,30.42,23.38Zm-2.54-.23s-.06,0-.06.08,0,.08.06.08h2.54s.06,0,.06-.08,0-.08-.06-.08Z"/><path class="cls-3" d="M28.8,23.1a.65.65,0,0,1,.34-.63.66.66,0,0,1,.36.63h-.7"/><path d="M29.53,23.14H28.8v0h0a.76.76,0,0,1,.25-.59s.1-.08.14-.08h0a.69.69,0,0,1,.38.67Zm-.69-.07h.62a.64.64,0,0,0-.32-.56A.64.64,0,0,0,28.84,23.07Z"/><path class="cls-3" d="M27.93,21.76h2.44a.1.1,0,0,1,.09.1.1.1,0,0,1-.09.11H27.93a.1.1,0,0,1-.09-.11A.1.1,0,0,1,27.93,21.76Z"/><path d="M30.37,22H27.93a.14.14,0,0,1-.13-.15.13.13,0,0,1,.13-.14h2.44a.13.13,0,0,1,.13.14A.14.14,0,0,1,30.37,22Zm-2.44-.22s-.05,0-.05.07,0,.07.05.07h2.44s.05,0,.05-.07,0-.07-.05-.07Z"/><path class="cls-3" d="M28,22h2.33a.1.1,0,0,1,.09.11.1.1,0,0,1-.09.1H28a.1.1,0,0,1-.09-.1A.1.1,0,0,1,28,22Z"/><path d="M30.31,22.22H28a.13.13,0,0,1-.12-.14.14.14,0,0,1,.12-.15h2.33a.14.14,0,0,1,.13.15A.13.13,0,0,1,30.31,22.22ZM28,22s-.05,0-.05.07a.06.06,0,0,0,.05.06h2.33a.06.06,0,0,0,.05-.06s0-.07-.05-.07Z"/><path class="cls-3" d="M28.74,20.38h.18v.13h.13v-.13h.19v.13h.14v-.13h.19v.3a.08.08,0,0,1-.09.08h-.66a.09.09,0,0,1-.08-.08v-.3Z"/><path d="M29.48,20.8h-.66a.12.12,0,0,1-.12-.12v-.32l0,0H29v.14H29v-.14h.26v.14h.06v-.14h.26v.34A.12.12,0,0,1,29.48,20.8Zm-.71-.38v.26s0,0,.05,0h.66s.05,0,.05,0v-.26h-.12v.13H29.2v-.13h-.11v.13h-.21v-.13Z"/><path class="cls-3" d="M29.43,20.79l0,1h-.65l.05-1h.56"/><path d="M29.51,21.79h-.72l0-1h.63Zm-.65-.08h.57l0-.9H28.9Z"/><path class="cls-3" d="M28.64,21.23l0,.53H28l0-.53Z"/><path d="M28,21.79l0-.59h.66l0,.59Zm.1-.52,0,.45h.54l0-.45Z"/><g id="cp1"><path class="cls-3" d="M30.23,21.23l0,.53h-.62l0-.53Z"/><path d="M29.59,21.79l0-.59h.66l0,.59Zm.1-.52,0,.45h.54v-.45Z"/></g><path class="cls-3" d="M28,20.86h.17V21h.14v-.14h.18V21h.13v-.14h.19v.31a.08.08,0,0,1-.08.07H28a.08.08,0,0,1-.08-.08v-.29h0Z"/><path d="M28.68,21.27H28a.12.12,0,0,1-.12-.12v-.31l0,0h.23V21h.06v-.13h.26V21h.06v-.13h.25v.34A.11.11,0,0,1,28.68,21.27Zm-.7-.38v.26a0,0,0,0,0,.05.05h.65a0,0,0,0,0,0,0v-.27h-.11V21H28.4v-.13h-.11V21h-.2v-.13Z"/><g id="cp2"><path class="cls-3" d="M29.54,20.86h.18V21h.13v-.14H30V21h.13v-.14h.19v.31a.08.08,0,0,1-.08.07h-.65a.08.08,0,0,1-.08-.08v-.29Z"/><path d="M30.27,21.27h-.65a.12.12,0,0,1-.12-.12v-.31l0,0h.23V21h.06v-.13h.26V21h.06v-.13h.26v.34A.12.12,0,0,1,30.27,21.27Zm-.7-.38v.26a.05.05,0,0,0,.05.05h.65a0,0,0,0,0,0,0v-.27H30.2V21H30v-.13h-.1V21h-.21v-.13Z"/></g><path d="M29.08,21.09c0-.09.14-.09.13,0v.23h-.12v-.23"/><path d="M28.29,21.43c0-.09.12-.1.12,0v.17h-.12v-.17"/><g id="cp3"><path d="M29.88,21.43a.07.07,0,1,1,.13,0v.17h-.13v-.17"/></g><path class="cls-3" d="M28.53,30.11a1,1,0,0,1,.61-1,1,1,0,0,1,.63,1H28.53"/><path class="cls-3" d="M28,29.1l-.1.95h.62a.86.86,0,0,1,.61-.91.91.91,0,0,1,.61.91h.63l-.12-.95Z"/><path d="M28.58,30.09h-.7l.11-1v0h2.32l.12,1h-.7v0a.89.89,0,0,0-.58-.88.8.8,0,0,0-.57.87ZM29.8,30h.55l-.11-.89h-1a.9.9,0,0,1,.24.16A1,1,0,0,1,29.8,30ZM28,30h.54a1,1,0,0,1,.34-.77l.19-.11h-1Z"/><path class="cls-3" d="M27.88,30.06h2.54a.11.11,0,0,1,.1.11.11.11,0,0,1-.1.12H27.88c-.06,0-.1-.05-.1-.12A.1.1,0,0,1,27.88,30.06Z"/><path d="M30.42,30.33H27.88a.15.15,0,0,1-.14-.16.15.15,0,0,1,.14-.15h2.54a.14.14,0,0,1,.13.15A.15.15,0,0,1,30.42,30.33Zm-2.54-.24s-.06,0-.06.08,0,.08.06.08h2.54s.06,0,.06-.08,0-.08-.06-.08Z"/><path class="cls-3" d="M28.8,30.05a.63.63,0,0,1,.34-.63.66.66,0,0,1,.36.63h-.7"/><path d="M29.53,30.09H28.8v0h0a.8.8,0,0,1,.25-.6s.1-.08.14-.07h0a.69.69,0,0,1,.38.67ZM28.84,30h.62a.62.62,0,0,0-.32-.55A.64.64,0,0,0,28.84,30Z"/><path class="cls-3" d="M27.93,28.71h2.44a.09.09,0,0,1,.09.1.1.1,0,0,1-.09.11H27.93a.1.1,0,0,1-.09-.11A.09.09,0,0,1,27.93,28.71Z"/><path d="M30.37,29H27.93a.14.14,0,0,1,0-.28h2.44a.14.14,0,0,1,0,.28Zm-2.44-.21s-.05,0-.05.07,0,.07.05.07h2.44s.05,0,.05-.07,0-.07-.05-.07Z"/><path class="cls-3" d="M28,28.92h2.33a.1.1,0,0,1,.09.1.1.1,0,0,1-.09.11H28a.1.1,0,0,1-.09-.11A.1.1,0,0,1,28,28.92Z"/><path d="M30.31,29.17H28a.14.14,0,0,1-.12-.15.13.13,0,0,1,.12-.14h2.33a.14.14,0,0,1,.13.14A.14.14,0,0,1,30.31,29.17ZM28,29a.06.06,0,0,0-.05.06s0,.07.05.07h2.33s.05,0,.05-.07a.06.06,0,0,0-.05-.06Z"/><path class="cls-3" d="M28.74,27.33h.18v.13h.13v-.13h.19v.13h.14v-.13h.19v.3a.08.08,0,0,1-.09.08h-.66a.09.09,0,0,1-.08-.08v-.3Z"/><path d="M29.48,27.74h-.66a.11.11,0,0,1-.12-.11v-.32l0,0H29v.13H29v-.13h.26v.13h.06v-.13h.26v.34A.11.11,0,0,1,29.48,27.74Zm-.71-.37v.26s0,0,.05,0h.66s.05,0,.05,0v-.27h-.12v.14H29.2v-.13h-.11v.13h-.21v-.13Z"/><path class="cls-3" d="M29.43,27.73l0,1h-.65l.05-1h.56"/><path d="M29.51,28.74h-.72l0-1h.63Zm-.65-.08h.57l0-.89H28.9Z"/><g id="cp1-2" data-name="cp1"><path class="cls-3" d="M28.64,28.18l0,.52H28l0-.52Z"/><path d="M28,28.74l0-.6h.66l0,.6Zm.1-.52,0,.45h.54l0-.45Z"/></g><g id="cp1-3" data-name="cp1"><path class="cls-3" d="M30.23,28.18l0,.52h-.62l0-.52Z"/><path d="M29.59,28.74l0-.6h.66l0,.6Zm.1-.52,0,.45h.54v-.45Z"/></g><g id="cp2-2" data-name="cp2"><path class="cls-3" d="M28,27.8h.17v.14h.14V27.8h.18v.14h.13V27.8h.19v.3a.08.08,0,0,1-.08.08H28A.08.08,0,0,1,28,28.1v-.3h0Z"/><path d="M28.68,28.22H28a.12.12,0,0,1-.12-.12v-.32h.25v.13h.06v-.14h.26v.14h.06v-.14h.25v.34A.11.11,0,0,1,28.68,28.22Zm-.7-.38v.26a0,0,0,0,0,.05,0h.65a0,0,0,0,0,0,0v-.26h-.11V28H28.4v-.13h-.11V28h-.2v-.13Z"/></g><g id="cp2-3" data-name="cp2"><path class="cls-3" d="M29.54,27.8h.18v.14h.13V27.8H30v.14h.13V27.8h.19v.3a.08.08,0,0,1-.08.08h-.65a.08.08,0,0,1-.08-.08v-.3Z"/><path d="M30.27,28.22h-.65a.12.12,0,0,1-.12-.12v-.32h.25v.13h.06v-.14h.26v.14h.06v-.14h.26v.34A.12.12,0,0,1,30.27,28.22Zm-.7-.38v.26s0,0,.05,0h.65a0,0,0,0,0,0,0v-.26H30.2V28H30v-.13h-.1V28h-.21v-.13Z"/></g><path d="M29.08,28c0-.09.14-.1.13,0v.23h-.12V28"/><g id="cp3-2" data-name="cp3"><path d="M28.29,28.37a.06.06,0,1,1,.12,0v.18h-.12v-.18"/></g><g id="cp3-3" data-name="cp3"><path d="M29.88,28.37a.07.07,0,1,1,.13,0v.18h-.13v-.18"/></g><g id="castle"><path class="cls-3" d="M31.24,37.34a1,1,0,0,1-.3-1.15,1,1,0,0,1,1.18.28l-.88.87"/><path class="cls-3" d="M30.16,37l.61.75.43-.44A.84.84,0,0,1,31,36.22a.92.92,0,0,1,1.08.21l.44-.45-.76-.59L30.16,37Z"/><path d="M30.76,37.79,30.13,37v0h0l1.6-1.63.82.64-.49.5,0,0a.86.86,0,0,0-1-.2h0a.8.8,0,0,0,.22,1l0,0Zm-.55-.8.56.69.38-.39a1,1,0,0,1-.3-.77,1,1,0,0,1,0-.22Zm1.16-.9a1,1,0,0,1,.7.28l.38-.38-.7-.55-.7.7a1,1,0,0,1,.28,0Z"/><path class="cls-3" d="M30.74,37.77,32.53,36a.12.12,0,0,1,.17.17l-1.79,1.8a.12.12,0,0,1-.16,0A.11.11,0,0,1,30.74,37.77Z"/><path d="M30.84,38a.16.16,0,0,1-.11,0,.16.16,0,0,1,0-.21l1.79-1.8a.15.15,0,0,1,.11,0,.24.24,0,0,1,.1.05.15.15,0,0,1,0,.21L30.93,38A.13.13,0,0,1,30.84,38Zm-.07-.21a.07.07,0,0,0,0,.1s.08,0,.1,0l1.79-1.81a.08.08,0,0,0,0-.1l-.06,0s0,0,0,0Z"/><path class="cls-3" d="M31.39,37.11a.63.63,0,0,1-.21-.69.65.65,0,0,1,.7.2l-.49.49"/><path d="M31.39,37.16l0,0a.75.75,0,0,1-.25-.58.32.32,0,0,1,0-.17h0a.71.71,0,0,1,.74.21l0,0Zm-.19-.71a.62.62,0,0,0,.19.6l.43-.43A.62.62,0,0,0,31.2,36.45Z"/><path class="cls-3" d="M29.82,36.78l1.72-1.73s.1,0,.14,0a.11.11,0,0,1,0,.14L30,36.93a.11.11,0,0,1-.14,0S29.78,36.81,29.82,36.78Z"/><path d="M29.91,37a.16.16,0,0,1-.11-.05.14.14,0,0,1,0-.19L31.51,35a.12.12,0,0,1,.09,0h0a.13.13,0,0,1,.1,0,.13.13,0,0,1,0,.19L30,37A.12.12,0,0,1,29.91,37Zm-.06-.19s0,.06,0,.09a.06.06,0,0,0,.09,0l1.72-1.73a.06.06,0,0,0,0-.09l0,0h0Z"/><path class="cls-3" d="M30,36.89l1.64-1.65s.09,0,.14,0a.11.11,0,0,1,0,.14L30.16,37A.11.11,0,0,1,30,37,.1.1,0,0,1,30,36.89Z"/><path d="M30.1,37.1a.15.15,0,0,1-.11,0,.15.15,0,0,1,0-.2l1.64-1.65a.14.14,0,0,1,.19,0,.16.16,0,0,1,.05.11.09.09,0,0,1,0,.08l-1.64,1.66A.11.11,0,0,1,30.1,37.1Zm1.61-1.85h0L30,36.92A.06.06,0,0,0,30,37a.06.06,0,0,0,.09,0l1.64-1.65a0,0,0,0,0,0,0,.14.14,0,0,0,0-.06Z"/><path class="cls-3" d="M29.41,35.24l.13-.13.09.09.1-.1-.1-.09.13-.13.1.09.09-.1-.09-.09.13-.13.22.21a.08.08,0,0,1,0,.11l-.46.47a.09.09,0,0,1-.12,0l-.21-.21Z"/><path d="M29.67,35.51a.1.1,0,0,1-.08,0l-.23-.23,0,0,0,0,0,0,.16-.16.09.1,0,0L29.58,35l.18-.19.1.1,0-.05-.09-.09.18-.19.24.24a.12.12,0,0,1,0,.08.15.15,0,0,1,0,.09l-.47.47A.13.13,0,0,1,29.67,35.51Zm-.21-.27.19.18s0,0,.06,0l.47-.47a.06.06,0,0,0,0,0s0,0,0,0L30,34.7l-.08.08.1.09-.15.15-.1-.09-.08.08.1.09-.15.15-.09-.09Z"/><path class="cls-3" d="M30.18,35l.72.65-.46.46-.65-.71.39-.4"/><path d="M30.44,36.19l-.71-.76.45-.45.77.7Zm-.6-.76.6.65.41-.4-.67-.6Z"/><g id="cp1-4" data-name="cp1"><path class="cls-3" d="M30,35.9l.38.36-.43.44-.36-.38L30,35.9Z"/><path d="M29.89,36.75l-.4-.43.46-.47.44.41Zm-.3-.43.31.32.38-.38L30,36Z"/></g><g id="cp1-5" data-name="cp1"><path class="cls-3" d="M31.07,34.78l.38.35-.43.44-.36-.38.41-.41Z"/><path d="M31,35.62l-.41-.43.46-.47.44.41Zm-.31-.43.31.32.38-.38-.33-.3Z"/></g><g id="cp2-4" data-name="cp2"><path class="cls-3" d="M29.19,36.13l.13-.13.09.1.09-.1-.09-.09.13-.13.09.09.09-.09-.09-.1.13-.13.21.22a.07.07,0,0,1,0,.11l-.45.46a.09.09,0,0,1-.12,0l-.21-.21Z"/><path d="M29.45,36.4a.13.13,0,0,1-.08,0l-.23-.24,0,0,0,0,0,0,.16-.16.09.09,0,0-.1-.09.19-.18.09.09,0,0-.09-.1.18-.18.24.24a.12.12,0,0,1,0,.17l-.46.45A.1.1,0,0,1,29.45,36.4Zm-.21-.27.19.19a0,0,0,0,0,.06,0l.46-.46a0,0,0,0,0,0-.06l-.19-.18-.08.07.1.1-.15.15-.09-.1-.08.08.09.09-.14.15-.09-.09Z"/></g><g id="cp2-5" data-name="cp2"><path class="cls-3" d="M30.31,35l.13-.12.09.09.09-.1-.09-.09.13-.13.09.09.1-.09-.1-.09.13-.14.21.22a.07.07,0,0,1,0,.11l-.45.46a.09.09,0,0,1-.12,0L30.31,35Z"/><path d="M30.58,35.27a.11.11,0,0,1-.08,0L30.27,35v0l.17-.17.09.09,0,0-.1-.09.19-.18.09.09,0,0-.09-.09.18-.19.24.24a.12.12,0,0,1,0,.17l-.46.46A.11.11,0,0,1,30.58,35.27ZM30.36,35l.19.19a0,0,0,0,0,.06,0l.46-.46a0,0,0,0,0,0-.06l-.19-.18-.08.08.1.09-.15.15-.09-.1-.08.08.1.09-.15.15-.09-.09Z"/></g><path d="M30.16,35.49a.06.06,0,1,1,.09-.09l.16.16-.09.09-.16-.16"/><g id="cp3-4" data-name="cp3"><path d="M29.83,36.29a.06.06,0,1,1,.09-.09l.13.13-.09.09-.13-.13"/></g><g id="cp3-5" data-name="cp3"><path d="M31,35.16c-.07-.06,0-.16.08-.09l.13.13-.09.08L31,35.16"/></g></g><g id="castle-2" data-name="castle"><path class="cls-3" d="M35.39,23.16a1,1,0,0,1,.61-1,1,1,0,0,1,.63,1H35.39"/><path class="cls-3" d="M34.88,22.15l-.1,1h.62a.84.84,0,0,1,.61-.92.92.92,0,0,1,.61.92h.62l-.11-1Z"/><path d="M35.43,23.14h-.7l.11-1h2.33l.12,1h-.71v0a.87.87,0,0,0-.58-.88.81.81,0,0,0-.57.88Zm1.23-.07h.54l-.1-.88h-1a1.1,1.1,0,0,1,.24.16A1,1,0,0,1,36.66,23.07Zm-1.84,0h.54a.94.94,0,0,1,.34-.76.5.5,0,0,1,.19-.12h-1Z"/><path class="cls-3" d="M34.73,23.11h2.55s.09.05.09.12a.1.1,0,0,1-.09.11H34.73a.1.1,0,0,1-.09-.11C34.64,23.16,34.68,23.11,34.73,23.11Z"/><path d="M37.28,23.38H34.73a.14.14,0,0,1-.13-.15.15.15,0,0,1,.13-.16h2.55a.15.15,0,0,1,.13.16A.14.14,0,0,1,37.28,23.38Zm-2.55-.23s-.06,0-.06.08,0,.08.06.08h2.55s.06,0,.06-.08,0-.08-.06-.08Z"/><path class="cls-3" d="M35.66,23.1a.65.65,0,0,1,.34-.63.65.65,0,0,1,.35.63h-.69"/><path d="M36.39,23.14h-.73v0h0a.73.73,0,0,1,.25-.59s.1-.08.14-.08h0a.69.69,0,0,1,.38.67Zm-.69-.07h.62a.64.64,0,0,0-.32-.56A.6.6,0,0,0,35.7,23.07Z"/><path class="cls-3" d="M34.79,21.76h2.44a.1.1,0,0,1,.09.1.1.1,0,0,1-.09.11H34.79a.1.1,0,0,1-.09-.11A.1.1,0,0,1,34.79,21.76Z"/><path d="M37.23,22H34.79a.14.14,0,0,1-.13-.15.13.13,0,0,1,.13-.14h2.44a.13.13,0,0,1,.13.14A.14.14,0,0,1,37.23,22Zm-2.44-.22s-.06,0-.06.07a.07.07,0,0,0,.06.07h2.44s.05,0,.05-.07,0-.07-.05-.07Z"/><path class="cls-3" d="M34.84,22h2.33a.1.1,0,0,1,.09.11.1.1,0,0,1-.09.1H34.84a.1.1,0,0,1-.09-.1A.1.1,0,0,1,34.84,22Z"/><path d="M37.17,22.22H34.84a.13.13,0,0,1-.13-.14.14.14,0,0,1,.13-.15h2.33a.14.14,0,0,1,.13.15A.13.13,0,0,1,37.17,22.22ZM34.84,22s-.05,0-.05.07a.06.06,0,0,0,.05.06h2.33a.06.06,0,0,0,0-.06s0-.07,0-.07Z"/><path class="cls-3" d="M35.59,20.38h.19v.13h.13v-.13h.19v.13h.13v-.13h.19v.3a.08.08,0,0,1-.08.08h-.66a.09.09,0,0,1-.09-.08v-.3Z"/><path d="M36.34,20.8h-.66a.12.12,0,0,1-.12-.12v-.32l0,0h.23v.14h.06v-.14h.27v.14h.06v-.14h.26v.34A.12.12,0,0,1,36.34,20.8Zm-.71-.38v.26a0,0,0,0,0,0,0h.66a0,0,0,0,0,0,0v-.26h-.12v.13h-.21v-.13H36v.13h-.21v-.13Z"/><path class="cls-3" d="M36.29,20.79l0,1h-.65l0-1h.57"/><path d="M36.37,21.79h-.73l0-1h.63Zm-.65-.08h.57l0-.9h-.49Z"/><g id="cp1-6" data-name="cp1"><path class="cls-3" d="M35.5,21.23l0,.53H34.9l0-.53Z"/><path d="M34.86,21.79l0-.59h.65l0,.59Zm.09-.52v.45h.54l0-.45Z"/></g><g id="cp1-7" data-name="cp1"><path class="cls-3" d="M37.09,21.23l0,.53h-.62l0-.53Z"/><path d="M36.45,21.79l0-.59h.66l0,.59Zm.09-.52v.45h.54l0-.45Z"/></g><g id="cp2-6" data-name="cp2"><path class="cls-3" d="M34.8,20.86H35V21h.13v-.14h.19V21h.13v-.14h.18v.31a.07.07,0,0,1-.08.07h-.64a.08.08,0,0,1-.09-.08v-.29Z"/><path d="M35.53,21.27h-.64a.12.12,0,0,1-.13-.12v-.31l0,0H35V21h.06v-.13h.26V21h0v-.13h.26v.34A.11.11,0,0,1,35.53,21.27Zm-.69-.38v.26a0,0,0,0,0,0,.05h.64s0,0,0,0v-.27h-.11V21h-.21v-.13h-.11V21h-.21v-.13Z"/></g><g id="cp2-7" data-name="cp2"><path class="cls-3" d="M36.39,20.86h.18V21h.13v-.14h.19V21H37v-.14h.19v.31a.08.08,0,0,1-.08.07h-.65a.08.08,0,0,1-.09-.08v-.29Z"/><path d="M37.13,21.27h-.65a.12.12,0,0,1-.12-.12v-.31l0,0h.23V21h.06v-.13h.26V21h0v-.13h.26v.34A.11.11,0,0,1,37.13,21.27Zm-.7-.38v.26a0,0,0,0,0,0,.05h.65a0,0,0,0,0,0,0v-.27h-.11V21h-.21v-.13h-.11V21h-.2v-.13Z"/></g><path d="M35.94,21.09a.07.07,0,1,1,.13,0v.23h-.13v-.23"/><g id="cp3-6" data-name="cp3"><path d="M35.14,21.43a.07.07,0,1,1,.13,0v.17h-.13v-.17"/></g><g id="cp3-7" data-name="cp3"><path d="M36.74,21.43c0-.09.12-.1.12,0v.17h-.12v-.17"/></g></g><g id="castle-3" data-name="castle"><path class="cls-3" d="M43.44,23.16a1,1,0,0,0-.61-1,1,1,0,0,0-.63,1h1.24"/><path class="cls-3" d="M44,22.15l.1,1h-.62a.86.86,0,0,0-.61-.92.93.93,0,0,0-.62.92h-.62l.11-1Z"/><path d="M43.39,23.14v0a.8.8,0,0,0-.57-.88.89.89,0,0,0-.58.88v0h-.7l.12-1H44v0l.11,1Zm-1.77-.07h.55a1,1,0,0,1,.31-.72.77.77,0,0,1,.24-.16h-1Zm1.31-.88a.62.62,0,0,1,.2.12,1,1,0,0,1,.34.76H44l-.1-.88Z"/><path class="cls-3" d="M44.09,23.11H41.55a.11.11,0,0,0-.1.12.11.11,0,0,0,.1.11h2.54a.11.11,0,0,0,.1-.11A.11.11,0,0,0,44.09,23.11Z"/><path d="M44.09,23.38H41.55a.15.15,0,0,1-.14-.15.16.16,0,0,1,.14-.16h2.54a.15.15,0,0,1,.14.16A.15.15,0,0,1,44.09,23.38Zm-2.54-.23s-.06,0-.06.08,0,.08.06.08h2.54s.06,0,.06-.08,0-.08-.06-.08Z"/><path class="cls-3" d="M43.17,23.1a.67.67,0,0,0-.34-.63.65.65,0,0,0-.36.63h.7"/><path d="M43.2,23.14h-.77v0a.68.68,0,0,1,.4-.67,1.48,1.48,0,0,1,.13.08.73.73,0,0,1,.24.59Zm-.69-.07h.62a.62.62,0,0,0-.31-.56A.63.63,0,0,0,42.51,23.07Z"/><path class="cls-3" d="M44,21.76H41.6a.1.1,0,0,0-.09.1.1.1,0,0,0,.09.11H44a.1.1,0,0,0,.09-.11A.1.1,0,0,0,44,21.76Z"/><path d="M44,22H41.6a.14.14,0,0,1-.13-.15.13.13,0,0,1,.13-.14H44a.13.13,0,0,1,.13.14A.14.14,0,0,1,44,22Zm-2.44-.22s-.06,0-.06.07a.07.07,0,0,0,.06.07H44s.05,0,.05-.07,0-.07-.05-.07Z"/><path class="cls-3" d="M44,22H41.66a.1.1,0,0,0-.09.11.1.1,0,0,0,.09.1H44a.1.1,0,0,0,.09-.1A.1.1,0,0,0,44,22Z"/><path d="M44,22.22H41.66a.13.13,0,0,1-.13-.14.14.14,0,0,1,.13-.15H44a.14.14,0,0,1,.12.15A.13.13,0,0,1,44,22.22ZM41.66,22a.07.07,0,0,0-.06.07.06.06,0,0,0,.06.06H44a.06.06,0,0,0,0-.06A.07.07,0,0,0,44,22Z"/><path class="cls-3" d="M43.23,20.38h-.18v.13h-.13v-.13h-.19v.13h-.14v-.13H42.4v.3a.08.08,0,0,0,.09.08h.66a.09.09,0,0,0,.08-.08v-.3Z"/><path d="M43.15,20.8h-.66a.12.12,0,0,1-.12-.12v-.34h.26v.14h.06v-.14H43v.14H43v-.14h.23l0,0v.32A.13.13,0,0,1,43.15,20.8Zm-.71-.38v.26s0,0,.05,0h.66s.05,0,.05,0v-.26h-.11v.13h-.21v-.13h-.12v.13h-.21v-.13Z"/><path class="cls-3" d="M42.54,20.79l0,1h.64l0-1h-.56"/><path d="M42.46,21.79l0-1h.64l0,1Zm.12-1,0,.9h.57l0-.89Z"/><g id="cp1-8" data-name="cp1"><path class="cls-3" d="M43.33,21.23l0,.53h.62l0-.53Z"/><path d="M44,21.79h-.7l0-.59H44Zm-.62-.07h.54l0-.45h-.51Z"/></g><g id="cp1-9" data-name="cp1"><path class="cls-3" d="M41.74,21.23l0,.53h.62l0-.53Z"/><path d="M42.37,21.79h-.69l0-.59h.65Zm-.61-.07h.54l0-.45h-.51Z"/></g><g id="cp2-8" data-name="cp2"><path class="cls-3" d="M44,20.86h-.18V21h-.13v-.14h-.18V21H43.4v-.14h-.19v.31a.08.08,0,0,0,.08.07h.65a.08.08,0,0,0,.08-.08v-.29Z"/><path d="M43.94,21.27h-.65a.12.12,0,0,1-.12-.11v-.34h.26V21h.06v-.13h.26V21h.06v-.13H44l0,0v.31A.12.12,0,0,1,43.94,21.27Zm-.69-.38v.27a0,0,0,0,0,0,0h.65a.05.05,0,0,0,.05-.05v-.26h-.11V21h-.21v-.13h-.1V21h-.21v-.13Z"/></g><g id="cp2-9" data-name="cp2"><path class="cls-3" d="M42.43,20.86h-.18V21h-.13v-.14h-.18V21H41.8v-.14h-.18v.31a.08.08,0,0,0,.08.07h.65a.08.08,0,0,0,.08-.08v-.29Z"/><path d="M42.35,21.27H41.7a.11.11,0,0,1-.12-.11v-.34h.26V21h.06v-.13h.26V21h.06v-.13h.22l0,0v.31A.12.12,0,0,1,42.35,21.27Zm-.69-.38v.27a0,0,0,0,0,0,0h.65a0,0,0,0,0,0-.05v-.26h-.11V21h-.21v-.13H42V21h-.2v-.13Z"/></g><path d="M42.88,21.09c0-.09-.13-.09-.13,0v.23h.13v-.23"/><g id="cp3-8" data-name="cp3"><path d="M43.68,21.43c0-.09-.12-.1-.12,0v.17h.12v-.17"/></g><g id="cp3-9" data-name="cp3"><path d="M42.09,21.43a.07.07,0,1,0-.13,0v.17h.13v-.17"/></g></g><g id="castle-4" data-name="castle"><path class="cls-3" d="M43.44,30.11a1,1,0,0,0-.61-1,1,1,0,0,0-.63,1h1.24"/><path class="cls-3" d="M44,29.1l.1.95h-.62a.86.86,0,0,0-.61-.91.91.91,0,0,0-.62.91h-.62l.11-.95Z"/><path d="M43.39,30.09v0a.8.8,0,0,0-.57-.87.89.89,0,0,0-.58.88v0h-.7l.12-1H44v0l.11,1ZM41.62,30h.55a1,1,0,0,1,.31-.72.77.77,0,0,1,.24-.16h-1Zm1.31-.88a.81.81,0,0,1,.2.11,1,1,0,0,1,.34.77H44l-.1-.88Z"/><path class="cls-3" d="M44.09,30.06H41.55a.11.11,0,0,0-.1.11.11.11,0,0,0,.1.12h2.54a.11.11,0,0,0,.1-.12A.11.11,0,0,0,44.09,30.06Z"/><path d="M44.09,30.33H41.55a.16.16,0,0,1-.14-.16.15.15,0,0,1,.14-.15h2.54a.15.15,0,0,1,.14.15A.15.15,0,0,1,44.09,30.33Zm-2.54-.24s-.06,0-.06.08,0,.08.06.08h2.54s.06,0,.06-.08,0-.08-.06-.08Z"/><path class="cls-3" d="M43.17,30.05a.65.65,0,0,0-.34-.63.65.65,0,0,0-.36.63h.7"/><path d="M43.2,30.09h-.77v0a.68.68,0,0,1,.4-.67s.12.07.13.07a.77.77,0,0,1,.24.6ZM42.51,30h.62a.6.6,0,0,0-.31-.55A.62.62,0,0,0,42.51,30Z"/><path class="cls-3" d="M44,28.71H41.6a.09.09,0,0,0-.09.1.1.1,0,0,0,.09.11H44a.1.1,0,0,0,.09-.11A.09.09,0,0,0,44,28.71Z"/><path d="M44,29H41.6a.14.14,0,0,1,0-.28H44A.14.14,0,0,1,44,29Zm-2.44-.21a.07.07,0,0,0,0,.14H44s.05,0,.05-.07,0-.07-.05-.07Z"/><path class="cls-3" d="M44,28.92H41.66a.1.1,0,0,0-.09.1.1.1,0,0,0,.09.11H44a.1.1,0,0,0,.09-.11A.1.1,0,0,0,44,28.92Z"/><path d="M44,29.17H41.66a.14.14,0,0,1-.13-.15.14.14,0,0,1,.13-.14H44a.13.13,0,0,1,.12.14A.14.14,0,0,1,44,29.17ZM41.66,29a.06.06,0,0,0-.06.06.07.07,0,0,0,.06.07H44A.07.07,0,0,0,44,29,.06.06,0,0,0,44,29Z"/><path class="cls-3" d="M43.23,27.33h-.18v.13h-.13v-.13h-.19v.13h-.14v-.13H42.4v.3a.08.08,0,0,0,.09.08h.66a.09.09,0,0,0,.08-.08v-.3Z"/><path d="M43.15,27.74h-.66a.11.11,0,0,1-.12-.11v-.34h.26v.13h.06v-.13H43v.13H43v-.13h.23l0,0v.32A.12.12,0,0,1,43.15,27.74Zm-.71-.38v.27s0,0,.05,0h.66s.05,0,.05,0v-.26h-.11v.13h-.21v-.13h-.12v.13h-.21v-.14Z"/><path class="cls-3" d="M42.54,27.73l0,1h.64l0-1h-.56"/><path d="M42.46,28.74l0-1h.64l0,1Zm.12-1,0,.89h.57l0-.89Z"/><g id="cp1-10" data-name="cp1"><path class="cls-3" d="M43.33,28.18l0,.52h.62l0-.52Z"/><path d="M44,28.74h-.7l0-.6H44Zm-.62-.07h.54l0-.45h-.51Z"/></g><g id="cp1-11" data-name="cp1"><path class="cls-3" d="M41.74,28.18l0,.52h.62l0-.52Z"/><path d="M42.37,28.74h-.69l0-.6h.65Zm-.61-.07h.54l0-.45h-.51Z"/></g><g id="cp2-10" data-name="cp2"><path class="cls-3" d="M44,27.8h-.18v.14h-.13V27.8h-.18v.14H43.4V27.8h-.19v.3a.08.08,0,0,0,.08.08h.65A.08.08,0,0,0,44,28.1v-.3Z"/><path d="M43.94,28.22h-.65a.12.12,0,0,1-.12-.12v-.34h.26v.14h.06v-.14h.26v.14h.06v-.13h.25v.32A.12.12,0,0,1,43.94,28.22Zm-.69-.38v.26a0,0,0,0,0,0,0h.65s.05,0,.05,0v-.26h-.11V28h-.21v-.13h-.1V28h-.21v-.13Z"/></g><g id="cp2-11" data-name="cp2"><path class="cls-3" d="M42.43,27.8h-.18v.14h-.13V27.8h-.18v.14H41.8V27.8h-.18v.3a.08.08,0,0,0,.08.08h.65a.08.08,0,0,0,.08-.08v-.3Z"/><path d="M42.35,28.22H41.7a.12.12,0,0,1-.12-.12v-.34h.26v.14h.06v-.14h.26v.14h.06v-.13h.25v.32A.12.12,0,0,1,42.35,28.22Zm-.69-.38v.26a0,0,0,0,0,0,0h.65a0,0,0,0,0,0,0v-.26h-.11V28h-.21v-.13H42V28h-.2v-.13Z"/></g><path d="M42.88,28a.07.07,0,1,0-.13,0v.23h.13V28"/><g id="cp3-10" data-name="cp3"><path d="M43.68,28.37a.06.06,0,1,0-.12,0v.18h.12v-.18"/></g><g id="cp3-11" data-name="cp3"><path d="M42.09,28.37a.07.07,0,1,0-.13,0v.18h.13v-.18"/></g></g><g id="castle3"><g id="castle-5" data-name="castle"><path class="cls-3" d="M40.73,37.34a1,1,0,0,0,.3-1.15,1,1,0,0,0-1.18.28l.88.87"/><path class="cls-3" d="M41.81,37l-.61.75-.44-.44A.83.83,0,0,0,41,36.22a.92.92,0,0,0-1.08.21L39.46,36l.76-.59L41.81,37Z"/><path d="M41.21,37.79l-.5-.49,0,0a.82.82,0,0,0,.22-1h0a.9.9,0,0,0-1,.21l0,0-.49-.5.82-.64L41.86,37l0,0Zm-.39-.5.38.39.56-.69-.69-.69a1,1,0,0,1,0,.22A1,1,0,0,1,40.82,37.29ZM39.52,36l.38.38a1,1,0,0,1,1-.23l-.7-.7Z"/><path class="cls-3" d="M41.23,37.77,39.44,36a.11.11,0,0,0-.15,0,.1.1,0,0,0,0,.15l1.79,1.8a.11.11,0,0,0,.15,0C41.26,37.87,41.27,37.81,41.23,37.77Z"/><path d="M41.13,38A.13.13,0,0,1,41,38l-1.8-1.8a.16.16,0,0,1,0-.21.19.19,0,0,1,.1-.05.12.12,0,0,1,.1,0l1.8,1.8a.16.16,0,0,1,0,.21A.16.16,0,0,1,41.13,38Zm-1.75-2h0l-.06,0a.08.08,0,0,0,0,.1l1.79,1.81s.07,0,.1,0a.07.07,0,0,0,0-.1L39.41,36Z"/><path class="cls-3" d="M40.58,37.11a.66.66,0,0,0,.21-.69.65.65,0,0,0-.7.2l.49.49"/><path d="M40.58,37.16,40,36.61l0,0a.71.71,0,0,1,.74-.21h0a.47.47,0,0,1,0,.17.79.79,0,0,1-.25.58Zm-.43-.54.43.43a.61.61,0,0,0,.18-.6A.61.61,0,0,0,40.15,36.62Z"/><path class="cls-3" d="M42.15,36.78l-1.72-1.73s-.1,0-.14,0a.11.11,0,0,0,0,.14L42,36.93a.11.11,0,0,0,.14,0S42.19,36.81,42.15,36.78Z"/><path d="M42.06,37A.12.12,0,0,1,42,37l-1.71-1.73a.13.13,0,0,1,0-.19.12.12,0,0,1,.1,0h0a.12.12,0,0,1,.09,0l1.72,1.73a.14.14,0,0,1,0,.19A.16.16,0,0,1,42.06,37Zm-1.69-1.93,0,0a.06.06,0,0,0,0,.09L42,36.9a.05.05,0,0,0,.08,0,.06.06,0,0,0,0-.09l-1.71-1.73Z"/><path class="cls-3" d="M42,36.89l-1.64-1.65s-.1,0-.14,0a.11.11,0,0,0,0,.14L41.81,37A.11.11,0,0,0,42,37,.1.1,0,0,0,42,36.89Z"/><path d="M41.87,37.1a.11.11,0,0,1-.08,0l-1.65-1.66a.11.11,0,0,1,0-.08.16.16,0,0,1,0-.11.15.15,0,0,1,.09,0,.12.12,0,0,1,.1,0L42,36.86a.14.14,0,0,1,0,.19A.13.13,0,0,1,41.87,37.1Zm-1.61-1.85h0l0,0a.07.07,0,0,0,0,.06,0,0,0,0,0,0,0L41.84,37a.05.05,0,0,0,.08,0,.06.06,0,0,0,0-.08l-1.65-1.66Z"/><path class="cls-3" d="M42.56,35.24l-.13-.13-.09.09-.1-.1.1-.09-.14-.13-.09.09-.1-.1.1-.09L42,34.65l-.22.21a.07.07,0,0,0,0,.11l.46.47a.09.09,0,0,0,.12,0l.21-.21Z"/><path d="M42.29,35.51a.12.12,0,0,1-.08,0L41.74,35a.15.15,0,0,1,0-.09.09.09,0,0,1,0-.08l.24-.24.18.19-.09.09,0,.05.09-.1.19.19-.09.09,0,0,.09-.1.16.17,0,0-.24.23A.09.09,0,0,1,42.29,35.51ZM42,34.7l-.19.19s0,0,0,0a.06.06,0,0,0,0,0l.47.47s.05,0,.06,0l.19-.18-.08-.08-.09.09-.15-.15.09-.09-.08-.08-.09.09L42,34.87l.1-.09Z"/><path class="cls-3" d="M41.79,35l-.72.65.46.46.65-.71-.39-.4"/><path d="M41.53,36.19,41,35.68l.78-.7.44.45Zm-.41-.51.4.4.61-.65-.35-.35Z"/><g id="cp1-12" data-name="cp1"><path class="cls-3" d="M42,35.9l-.38.36.43.44.36-.38L42,35.9Z"/><path d="M42.07,36.75l-.49-.49.42-.38,0,0,0,0h0l0,0h0l.4.41Zm-.38-.49.38.38.31-.32L42,36Z"/></g><g id="cp1-13" data-name="cp1"><path class="cls-3" d="M40.9,34.78l-.38.35.43.44.36-.38-.41-.41Z"/><path d="M41,35.62l-.49-.49.44-.41.46.47Zm-.38-.49.38.38.31-.32-.36-.36Z"/></g><g id="cp2-12" data-name="cp2"><path class="cls-3" d="M42.78,36.13,42.65,36l-.09.1-.09-.1.09-.09-.13-.13-.09.09-.1-.09.1-.1-.13-.13-.21.22a.07.07,0,0,0,0,.11l.45.46a.09.09,0,0,0,.12,0l.21-.21Z"/><path d="M42.51,36.4a.09.09,0,0,1-.08,0L42,35.91a.12.12,0,0,1,0-.17l.24-.24.18.18-.09.1,0,0,.09-.09.19.18-.1.09,0,0,.09-.09.17.17v0l-.23.22A.11.11,0,0,1,42.51,36.4Zm-.3-.79-.19.18a0,0,0,0,0,0,.06l.46.46a0,0,0,0,0,.06,0l.19-.19-.08-.07-.09.09L42.41,36l.1-.09-.08-.08-.09.1-.15-.15.1-.1Z"/></g><g id="cp2-13" data-name="cp2"><path class="cls-3" d="M41.66,35l-.13-.12-.09.09-.09-.1.09-.09-.13-.13-.09.09-.1-.09.1-.09-.13-.14-.22.22a.08.08,0,0,0,0,.11l.45.46a.09.09,0,0,0,.12,0l.21-.21Z"/><path d="M41.39,35.27a.11.11,0,0,1-.08,0l-.46-.46a.12.12,0,0,1,0-.17l.24-.24.18.19-.09.09,0,0,.09-.09.18.18-.09.09,0,0,.09-.09.17.17v0l-.22.22A.11.11,0,0,1,41.39,35.27Zm-.3-.79-.19.18a0,0,0,0,0,0,.06l.46.46a0,0,0,0,0,.06,0l.19-.19-.08-.07-.09.09-.15-.15.1-.09-.08-.08-.09.1-.15-.15.1-.09Z"/></g><path d="M41.81,35.49a.06.06,0,1,0-.09-.09l-.17.16.1.09.16-.16"/><g id="cp3-12" data-name="cp3"><path d="M42.14,36.29a.06.06,0,1,0-.09-.09l-.13.13.09.09.13-.13"/></g><g id="cp3-13" data-name="cp3"><path d="M41,35.16a.06.06,0,1,0-.09-.09l-.12.13.08.08.13-.12"/></g></g></g><g id="quina"><path class="cls-5" d="M34.9,30.36h0a1.24,1.24,0,0,0,.33.86,1.06,1.06,0,0,0,.79.35,1.1,1.1,0,0,0,.8-.35,1.27,1.27,0,0,0,.33-.86V28.75H34.9v1.61"/><circle class="cls-4" cx="35.41" cy="29.36" r="0.22"/><circle class="cls-4" cx="36.66" cy="29.36" r="0.22"/><circle class="cls-4" cx="36.03" cy="29.96" r="0.22"/><circle class="cls-4" cx="35.41" cy="30.59" r="0.22"/><circle class="cls-4" cx="36.66" cy="30.59" r="0.22"/></g><g id="quina-2" data-name="quina"><path class="cls-5" d="M34.9,26.46h0a1.22,1.22,0,0,0,.33.85,1.07,1.07,0,0,0,.79.36,1.11,1.11,0,0,0,.8-.36,1.25,1.25,0,0,0,.33-.85V24.85H34.9v1.62"/><circle class="cls-4" cx="35.41" cy="25.46" r="0.22"/><circle class="cls-4" cx="36.66" cy="25.46" r="0.22"/><circle class="cls-4" cx="36.03" cy="26.06" r="0.22"/><circle class="cls-4" cx="35.41" cy="26.68" r="0.22"/><circle class="cls-4" cx="36.66" cy="26.68" r="0.22"/></g><g id="quina-3" data-name="quina"><path class="cls-5" d="M31.78,30.36h0a1.24,1.24,0,0,0,.33.86,1.06,1.06,0,0,0,.79.35,1.1,1.1,0,0,0,.8-.35,1.27,1.27,0,0,0,.33-.86V28.75H31.78v1.61"/><circle class="cls-4" cx="32.29" cy="29.36" r="0.22"/><circle class="cls-4" cx="33.54" cy="29.36" r="0.22"/><circle class="cls-4" cx="32.91" cy="29.96" r="0.22"/><circle class="cls-4" cx="32.29" cy="30.59" r="0.22"/><circle class="cls-4" cx="33.54" cy="30.59" r="0.22"/></g><g id="quina-4" data-name="quina"><path class="cls-5" d="M38,30.36h0a1.24,1.24,0,0,0,.33.86,1.08,1.08,0,0,0,1.59,0,1.27,1.27,0,0,0,.33-.86V28.75H38v1.61"/><circle class="cls-4" cx="38.52" cy="29.36" r="0.22"/><circle class="cls-4" cx="39.77" cy="29.36" r="0.22"/><circle class="cls-4" cx="39.15" cy="29.96" r="0.22"/><circle class="cls-4" cx="38.52" cy="30.59" r="0.22"/><circle class="cls-4" cx="39.77" cy="30.59" r="0.22"/></g><g id="quina-5" data-name="quina"><path class="cls-5" d="M34.9,34.23h0a1.22,1.22,0,0,0,.33.85,1.07,1.07,0,0,0,.79.36,1.11,1.11,0,0,0,.8-.36,1.25,1.25,0,0,0,.33-.85V32.62H34.9v1.62"/><circle class="cls-4" cx="35.41" cy="33.23" r="0.22"/><circle class="cls-4" cx="36.66" cy="33.23" r="0.22"/><circle class="cls-4" cx="36.03" cy="33.83" r="0.22"/><circle class="cls-4" cx="35.41" cy="34.46" r="0.22"/><circle class="cls-4" cx="36.66" cy="34.45" r="0.22"/></g></svg>