<svg id="Boutons" xmlns="http://www.w3.org/2000/svg" viewBox="0 0 90 60"><defs><style>.cls-1{fill:#006c35;}.cls-2{fill:#fff;}</style></defs><title>saudi-arabia</title><rect class="cls-1" width="90" height="60"/><path class="cls-2" d="M38.79,14.17a.63.63,0,0,0-.21.08,1.62,1.62,0,0,0-.67,1.12c0,.3-.07.3.13.48s.27.19.55,0a.57.57,0,0,0,.27-.4c.07-.33-.35.16-.4-.21s.17-.49.43-.82c0-.16,0-.29-.1-.29Zm4.09,0c-.08,0-.17.11-.31.36A1.51,1.51,0,0,0,42.36,16a4.15,4.15,0,0,1,.24,2.22,3.92,3.92,0,0,1-.43.6.71.71,0,0,1-.91.13,1,1,0,0,1-.54-.76,10.55,10.55,0,0,0-.08-2.46.44.44,0,0,0-.74-.15,5.68,5.68,0,0,0-1.35,2.77c-.2.67-.43.48-.58.2-.38-.35-.41-3.13-.86-2.67-.74,2.09.42,4.39,1.21,4.16.58.24,1-.85,1.18-2.06.16-.33.29-.37.37-.2,0,1.6.11,1.95.52,2.44a1.33,1.33,0,0,0,1.74,0l.71-.71a.42.42,0,0,1,.59,0c.22.2.19.54.66.77s1.23,0,1.42-.3.33-.6.45-.77.51-.14.51-.06-.22.28-.09.53.27.06.4,0c.47-.22.81-1.23.81-1.23,0-.38-.19-.35-.33-.27s-.18.14-.36.25-.67.19-.89-.15a14.26,14.26,0,0,1-.39-1.38s-.3-.64,0-.68c.13,0,.43.1.48-.15s-.31-.93-.63-1.28a.68.68,0,0,0-1,0c-.25.24-.21.5-.26.74a1.18,1.18,0,0,0,.23,1,3,3,0,0,1,.57,2,.82.82,0,0,1-.74.38c-.2,0-.52-.13-.69-1.38-.13-.95,0-2.29-.37-2.91-.09-.24-.17-.46-.3-.45Zm-1.29.1c-.12,0-.26.16-.37.43A7.23,7.23,0,0,0,41,16c-.08.33.34.47.53.05a4.06,4.06,0,0,0,.3-1.42c0-.25-.15-.37-.27-.36Zm4.77.09c-.12,0-.22.09-.26.27a3,3,0,0,0,0,1,4,4,0,0,0,.58.88c.83,1.11,1.63,2.23,2.39,3.38.13.86.21,1.7.27,2.54a50.71,50.71,0,0,1,0,6.05c.34,0,.89-.56,1.09-1.39.12-1.15-.05-3.5-.06-4.18,0-.28,0-.62,0-1,.89,1.46,1.76,3,2.61,4.71.31-.15.24-1.9.06-2.14-.68-1.47-1.62-2.92-1.92-3.48-.11-.2-.48-.76-.92-1.41-.08-.92-.17-1.7-.22-1.94-.14-1,.4.11.32-.46A6.14,6.14,0,0,0,49,14.75c-.2-.29-.2-.35-.52.07a2,2,0,0,0-.13,1.12A5,5,0,0,0,48,15.5l-1-.88a1.13,1.13,0,0,0-.63-.24Zm14.16.15c-.06,0-.12,0-.2.13a.86.86,0,0,0-.29.64c0,.52.13,1,.16,1.56,0,.07,0,.14,0,.21l-.13-.16c-1-1.05.46-.17-.19-1a8.52,8.52,0,0,0-1.19-1.17c-.24-.15-.38-.44-.46.06a9.76,9.76,0,0,0,0,1.31,1.85,1.85,0,0,0,.39.82c.67.82,1.36,1.69,2,2.61.15,1.86.19,3.56.33,5.43,0,.8-.26,1.86-.5,2a.53.53,0,0,1-.59,0A7.26,7.26,0,0,1,59,25.77a.53.53,0,0,0-.84,0,11.78,11.78,0,0,0-1.48,2.79c-.12.19-.46.36-.84,0a3.88,3.88,0,0,1-.52-2.71,3,3,0,0,0-.29,2.92A2.32,2.32,0,0,0,56.14,30a.75.75,0,0,0,1.11-.12c.5-.52.51-1.86.75-2.13a.44.44,0,0,1,.78-.19,2.05,2.05,0,0,0,.72.63,1.22,1.22,0,0,0,1.59.11,1.82,1.82,0,0,0,.85-1A36.32,36.32,0,0,0,62,21.39c.36.5.71,1,1.06,1.53a38.8,38.8,0,0,1,.17,4.78c0,.31,1.07-.91,1.06-1.49V24.82c.54.85,1.06,1.72,1.55,2.6.3-.16.2-1.88,0-2.12-.51-.86-1.17-1.79-1.68-2.51-.1-.91-.23-2-.3-2.31-.09-.51-.19-1.28-.34-1.89a6.19,6.19,0,0,1-.12-1.07c.06-.17.28,0,.4-.19a6.91,6.91,0,0,0-1-2.66c-.14-.25-.38-.16-.69.24s-.18.87-.07,1.44c.28,1.46.53,2.95.73,4.43l-1.25-1.84c0-.06-.06-.28-.06-.28s-.06-1.2-.11-1.48c0-.11,0-.14.08-.13a.76.76,0,0,0,.22.15c.13,0,.24-.19.16-.39l-1.17-2.18a.37.37,0,0,0-.17-.1ZM24,14.56c-.22,0-.46.13-.36.39-.06.15.42.63.51.89s-.08.8.08.85.34-.42.42-.86c0-.25,0-1.08-.56-1.25l-.09,0Zm41.63,0s-.11.08-.2.28a2.61,2.61,0,0,0-.21,1.59,88.53,88.53,0,0,1,1,10.35,3.12,3.12,0,0,1-.2.85,6.18,6.18,0,0,1-1,1.16c-.33.25-1,.48-1.26.66-.72.42-.73.9-.14.92a3.62,3.62,0,0,0,3-1.44,4.85,4.85,0,0,0,.49-1.88,43.29,43.29,0,0,0-.55-9.15,4.9,4.9,0,0,1-.1-.86c.07-.17.4,0,.52-.17s-.86-1.5-1.22-2.06c-.07-.14-.12-.26-.18-.25ZM55,14.63s-.1.07-.21.22a4.82,4.82,0,0,0-.28,2.25c.73,3.78,1.47,7.23,1.35,10.83.35,0,.74-.79.91-1.57A12.46,12.46,0,0,0,56.69,24c0-.63-.71-5.76-.85-6.24-.17-.9.67-.12.58-.64-.29-.67-1-1.63-1.24-2.21-.09-.15-.1-.3-.17-.28Zm-25.8.07a.27.27,0,0,0-.21.21c0,.08,0,.21,0,.25s-.2,0-.2-.21a.41.41,0,0,0-.08-.19s-.05,0-.11,0-.06,0-.1.08a.53.53,0,0,0,0,.18.12.12,0,0,1-.2.09s-.07-.05-.07-.1a.6.6,0,0,0,0-.2.24.24,0,0,0-.12-.07c-.27,0-.29.31-.27.43s0,.57.33.72,1.42.14,1.38-.66c0-.07,0-.3,0-.37a.21.21,0,0,0-.23-.14Zm6.62,0a1.08,1.08,0,0,0-.45.13A.85.85,0,0,0,35.24,16c.25.11.5.37.33.51-.71.75-2.55,2-2.65,2.25h0a5.31,5.31,0,0,0,1.38,0h0a18.74,18.74,0,0,0,2.28-2.29,3.11,3.11,0,0,0-.28-.23.16.16,0,0,1,0-.27.74.74,0,0,0,.07-1.14,1.35,1.35,0,0,0-.56-.12Zm17.31,0s-.11.08-.2.28a3.25,3.25,0,0,0-.36,1.59c.49,3.34.63,6.26,1,9.6a1.33,1.33,0,0,1-.24,1,9.39,9.39,0,0,1-3.18,2.32c-.14.15.33.79.94.79a3.56,3.56,0,0,0,2.72-2.18,3.86,3.86,0,0,0,.62-1.67,36.82,36.82,0,0,0-.68-8.48,1.45,1.45,0,0,1,0-.59c.06-.08.29,0,.4-.19s-.46-1.64-.82-2.2c-.07-.14-.11-.25-.18-.25Zm-26.81.1a.46.46,0,0,0-.34.28,10.13,10.13,0,0,0,0,1.57,16.25,16.25,0,0,1,.43,2.51c0,1.19-.68.51-.65-.07a5.46,5.46,0,0,0,0-2.28c-.12-.3-.26-.38-.54-.33s-.81.62-1,1.68a9.46,9.46,0,0,0-.2,1c-.08.54-.44.92-.69-.08-.21-.73-.35-2.52-.71-2.1-.1,1.4-.23,3.87,1,4.12,1.44.14.65-2.44,1.17-2.9.1-.23.28-.24.3.05v2.19a1,1,0,0,0,.81,1.07c.38,0,.63,0,.78.35l.18,3.78s.87.25.92-2.13c0-1.39-.28-2.56-.09-2.84,0-.26.34-.28.58-.15s.54.6,1.13.47c.89-.25,1.43-.68,1.44-1.37a5.92,5.92,0,0,0-.41-1.95c0-.11-.17-.42-.13-.54.16.25.4.23.46,0A1.92,1.92,0,0,0,30,16c-.32-.28-.78-.22-1,.36a3.13,3.13,0,0,0,.73,2.1,2,2,0,0,1,.18,1,.56.56,0,0,1-.73-.14s-.71-.53-.71-.65A2.58,2.58,0,0,0,28.47,17,2.16,2.16,0,0,0,28,16.1c-.18-.19-.42-.19-.53,0a3.17,3.17,0,0,0,.06,2.23c.16.48.41.78.3.78-.1.27-.3.21-.45-.1A7.79,7.79,0,0,1,27.13,17c-.06-.54-.13-1.69-.49-2a.36.36,0,0,0-.31-.16Zm5.05,0c-.07,0-.15,0-.24.07a.71.71,0,0,0-.5.88c.36,2.2.6,3.88,1,6.08,0,.26-.16.6-.44.56-.47-.32-.59-1-1.4-.94a1.57,1.57,0,0,0-1.33,1.26,2.92,2.92,0,0,0,0,1.44,1.17,1.17,0,0,0,1.33.33c.36-.15.65-.5.77-.42h0c.07.13,0,1.28-1.68,2.16-1,.46-1.83.57-2.27-.27-.27-.52,0-2.51-.65-2.05-2,5.1,4.63,5.81,5.37.21.05-.15.19-.31.3-.27a.25.25,0,0,1,.1.19c-.16,5.07-5.12,5.42-6,3.82a4.83,4.83,0,0,1-.29-1.71.94.94,0,0,0-.2-.55c-.2-.15-.47.24-.53.93a5.7,5.7,0,0,0-.06,1.23c.26,4,6.64,2.28,7.68-1,.52-1.71,0-3,.16-3.15h.05c.63.68,1.52.09,1.72-.15a.28.28,0,0,1,.43,0A1,1,0,0,0,36.26,23a14.34,14.34,0,0,0,.21-1.9,2,2,0,0,0-.69.29.41.41,0,0,0-.05.09c0,.18,0,.36-.08.54,0,0,0,0,0,0a.17.17,0,0,1-.06.06c-.12.06-.32,0-.33-.14-.15-.7-.78-.79-1.16.29-.26.21-.73.25-.78-.06.06-.72-.23-.82-.81-.48-.19-1.43-.38-2.8-.56-4.24.24,0,.46.17.69-.11a8.59,8.59,0,0,0-1-2.42h0l0,0,0,0h-.14Zm19.73,0c-.26,0-.54.15-.43.47-.06.17.54.76.64,1.08.18.49-.13,1,0,1s.4-.51.49-1.05a1.64,1.64,0,0,0-.65-1.52Zm-15.37.54a.37.37,0,0,1,.32.25c.08.16,0,.31-.08.34s-.27-.08-.34-.24,0-.32.08-.34Zm28.5.74a.37.37,0,0,0-.38.51c-.06.19.49.82.58,1.17s-.12,1,0,1.12.37-.55.45-1.14c0-.32-.2-1.44-.6-1.64l-.1,0Zm-15.76.39a1.36,1.36,0,0,1,.06.29c.05.2.09.41.13.61a6,6,0,0,0-.4-.52c-.41-.49,0-.32.21-.38Zm3.63,1.79a.27.27,0,0,0-.2.21c0,.08,0,.21,0,.25s-.2,0-.19-.21a.41.41,0,0,0-.08-.19.18.18,0,0,0-.11,0c-.07,0-.07,0-.11.08a.84.84,0,0,0,0,.18.12.12,0,0,1-.2.09s-.07-.05-.07-.11a1,1,0,0,0,0-.19.17.17,0,0,0-.12-.06c-.27,0-.29.3-.27.42s0,.57.33.73,1.42.13,1.38-.67c0-.07,0-.3,0-.37a.21.21,0,0,0-.24-.14Zm-16.57.16a.4.4,0,0,0-.23.07A1,1,0,0,0,35,19.87a.67.67,0,0,0,.71.23c.43,0,.68-.81.68-.81s0-.24-.49.22c-.21,0-.24,0-.3-.16a1.11,1.11,0,0,1,.07-.67c0-.13,0-.22-.1-.23ZM59,18.56a.56.56,0,0,0-.57.48c0,.19.09.3.07.48s-.12.16-.37,0c0,0-.17-.31-.17-.31-.19-.12-.45,0-.62.11a1,1,0,0,0-.05.76c.27.51,1.23,1.39,1.69,1.4,0-.47,0-1.08.08-1.47,0-.14,0-.3.18-.34s.38.14.38,0a1.91,1.91,0,0,0-.25-.94.48.48,0,0,0-.37-.2ZM39.58,20.18s0,0,0,0h0a2.15,2.15,0,0,1-.24.21,1.11,1.11,0,0,0-.24.91c0,.05.41,1.15.75,1.92a6.11,6.11,0,0,1,.28,2.59,6.37,6.37,0,0,1-2.62,2.74,1.4,1.4,0,0,1-1.1,0h0a.67.67,0,0,1-.29-.62h0a6.14,6.14,0,0,0,2.62-2.72,2.79,2.79,0,0,0,.08-1.95,1.82,1.82,0,0,0-.45-.91h0c.14-.07.53.21.59,0A2.84,2.84,0,0,0,38.19,21a.64.64,0,0,0-.92-.06c-.32.18-.39.81-.24,1.37s.63.49,1,1.34h0a1.54,1.54,0,0,1-.05.86,10.13,10.13,0,0,1-2,1.85h0a2.07,2.07,0,0,1,0-.26c0-.25.09-.83.08-.93h0c-.57.37-.76,1.49-.86,1.82-1.44,1-3.07,1.74-4,2.74-.49.77,3.37-.88,3.82-1.07h0c.09.09.09.42.35.71A2,2,0,0,0,37.4,30a6.6,6.6,0,0,0,3-2.5c.11-.17.3-.3.46-.17.57,1.25,2.18,2.15,4.28,2.24.48-.59.25-.88.05-1s-1-.42-1.19-.8.14-.67.6-.91a20.63,20.63,0,0,0,3.94-.75A3.58,3.58,0,0,1,49,24.79a.71.71,0,0,1,.22-.24h0v0L49,24.36H44.72l-.11-.06h0a.36.36,0,0,1,.13-.08c1-.14,2.85-.44,3-2.18a1.54,1.54,0,0,0-1.51-1.68A1.52,1.52,0,0,0,44.87,22c0,.23.08.69-.16.75-1.58.14-3.3,1.13-3.36,1.83h-.07a.41.41,0,0,1-.21-.43A8.45,8.45,0,0,0,40,20.5c-.22-.22-.32-.31-.38-.32h0Zm4.1.64a.28.28,0,0,0-.21.21c0,.08,0,.21,0,.25s-.2,0-.2-.2a.37.37,0,0,0-.08-.19.15.15,0,0,0-.1,0c-.07,0-.08,0-.11.08a.58.58,0,0,0,0,.18c0,.08,0,.11-.09.12s0,0-.11,0-.07,0-.07-.1a.6.6,0,0,0,0-.2.2.2,0,0,0-.12-.06c-.27,0-.29.31-.27.42s0,.58.33.73,1.67.1,1.39-.66c0-.07,0-.31,0-.37a.22.22,0,0,0-.23-.15Zm16.55.68h0s-2.28,1.63-2.34,1.69c-.23.2-.11.91,0,.83a9.19,9.19,0,0,0,2.42-1.68c.1,0,.15-.81,0-.84Zm-14.39.24a.55.55,0,0,1,.33.09c.17.1.28.25.27.36h0l0,0a.4.4,0,0,1-.45,0,.45.45,0,0,1-.26-.35h0s0,0,0,0v0h0l0,0,.11,0Zm-20,.41c-1.19,0-2.92,1.56-3,2.41,1.25-.6,2.48-1.18,3.75-1.8-.2-.31,0-.59-.78-.61Zm3.84.54a.3.3,0,0,1,.3.22.38.38,0,0,1-.06.38h0c-.05.06-.22,0-.35,0a.33.33,0,0,1-.31-.16c0-.13.09-.27.15-.37h0l0,0a.37.37,0,0,1,.2-.09Zm30.14.47a.39.39,0,0,0-.32.54c-.06.19.29.84.38,1.19s-.11.95.06,1,.56-.42.54-1c0-.32-.11-1.5-.51-1.7a.38.38,0,0,0-.15,0Zm-25.6,1.15c-.18,0-.35.12-.28.38s.53.42.56.86c.08.18-.11.76.05.82s.35-.4.43-.84c0-.23-.19-1.06-.57-1.2a.62.62,0,0,0-.19,0Zm7.66,1.05h0a12.86,12.86,0,0,0,1.79.2c.5,0,.75.43.28.59s-.9.28-.9.94c.06.33,0,.51,0,.59H43s0,0,0,0a.86.86,0,0,1-.38-.15,2.44,2.44,0,0,1-1.2-1.76.45.45,0,0,1,.45-.46Zm-18.71.81s-.09.09-.17.19c-.7,1.13-.77,2.8-.38,3.3a.83.83,0,0,0,.8.27,1.46,1.46,0,0,0,.53-1.42c-.14-.23-.26-.27-.41-.07-.31.63-.44.2-.47-.15a8.88,8.88,0,0,1,.09-1.78c0-.25,0-.34,0-.34Zm24,1.48a.27.27,0,0,0-.17,0,2.89,2.89,0,0,0-.66.57c-.1.07-.08.14-.06.26s.21.12.36,0,.3.11.29.35a.42.42,0,0,0,0,.43.33.33,0,0,0,.42.05,8.44,8.44,0,0,1,1.44-.51c.18,0,.17-.47-.11-.49a1.68,1.68,0,0,0-1.06.32c-.22.06-.26-.08-.31-.2-.06-.3.13-.52.09-.74a.52.52,0,0,0-.27-.11Zm15.38.57-.32,0c-.15,0-.2.09-.22.27s.17.26.34.36a.3.3,0,0,1,0,.45l-.43.37c-.08.13-.13.33.11.39.42.12,1.41-.52,1.41-.53a.33.33,0,0,0,.1-.35c-.1-.11-.31-.05-.45-.06s-.29,0-.18-.23a1.28,1.28,0,0,0,.18-.35c.06-.14,0-.24-.23-.32a1.16,1.16,0,0,0-.3,0Zm-6.43,13h0a.68.68,0,0,0-.23,1.25c-7.51,0-19-.13-21.51-.13-1.39,0-5.76-.16-5.84-.16.93,1.37,2.29,1.65,4.07,1.68l23.2,0a1.53,1.53,0,0,0,.27,1.62h.06c.29.07.42-.14.52-.3a31.49,31.49,0,0,0,3.37,0h0c.16.24.32.47.64.43.54-.12,1-.18,1-1.29,0,0-.06-1.9-1.3-1.78l-1.12.13c-1-.12-1.66-.13-2.74-.17.1-.12.28-.63.06-.82a.31.31,0,0,0-.25-.06h0l0,0h0a2.21,2.21,0,0,1-.12-.32h0Zm.51,2.71h0c1.09.05,2.12,0,3.22.06a.4.4,0,0,1,0,.55h0l-.91,0a.07.07,0,0,1,0-.05c-.09-.25-.7-.23-.84,0h0v.09a8.19,8.19,0,0,1-1.4,0c-.14-.18-.12-.49,0-.57Z"/></svg>