<svg xmlns="http://www.w3.org/2000/svg" viewBox="0 0 90 60"><defs><style>.cls-1{fill:#c6c7c8;}.cls-2{fill:#ee1c25;}.cls-3{fill:#0b4ea2;}.cls-4{fill:#fff;}</style></defs><title>serbia</title><g id="Back"><rect class="cls-1" width="90" height="60"/></g><g id="Boutons"><rect class="cls-2" width="90" height="60"/><rect class="cls-3" width="90" height="40"/><rect class="cls-4" width="90" height="20"/><path class="cls-4" d="M31.63,46.35c-5.38-2.59-13.08-7.73-13.08-17.9s.49-14.8.49-14.8H44.21s.49,4.63.49,14.8S37,43.76,31.63,46.35Z"/><path class="cls-2" d="M31.63,45c-4.94-2.38-12-7.09-12-16.43S20.08,15,20.08,15H43.17s.45,4.24.45,13.57-7.06,14-12,16.43Z"/><path class="cls-4" d="M32.68,26.13a19.38,19.38,0,0,0,6.26-.7s-.06.83-.06,1.79.06,1.8.06,1.8a20.14,20.14,0,0,0-6.26-.71v5.16H30.57V28.31a20.2,20.2,0,0,0-6.26.71s.06-.83.06-1.8-.06-1.79-.06-1.79a19.38,19.38,0,0,0,6.26.7V22.89a15,15,0,0,0-5,.71s.07-.83.07-1.8S25.61,20,25.61,20a15,15,0,0,0,5,.71,29.87,29.87,0,0,0-.66-4.64s1.22.1,1.72.1,1.72-.1,1.72-.1a28.59,28.59,0,0,0-.66,4.64,14.91,14.91,0,0,0,5-.71s-.06.83-.06,1.79.06,1.8.06,1.8a15,15,0,0,0-5-.71v3.24Z"/><path class="cls-3" d="M31.62,32.91c-2.48,0-3.81,3.45-3.81,3.45A3.05,3.05,0,0,0,25,34.72c-1.37,0-2.38,1.22-3,2.35,2.49,4,6.48,6.42,9.6,7.93,3.13-1.51,7.12-4,9.61-7.93-.64-1.13-1.65-2.35-3-2.35a3.05,3.05,0,0,0-2.77,1.64s-1.33-3.45-3.82-3.45Z"/></g></svg>