<svg xmlns="http://www.w3.org/2000/svg" viewBox="0 0 90 60"><defs><style>.cls-1{fill:#fff;}.cls-2{fill:#0047a0;}.cls-3{fill:#cd2e3a;}</style></defs><title>south-korea</title><g id="Flags"><path class="cls-1" d="M0,0V60H90V0ZM57.48,38.32a15,15,0,1,1-4.16-20.8A15,15,0,0,1,57.48,38.32Z"/><path d="M14.84,18.91,23.16,6.43M18,21,26.28,8.51m-5.2,14.56L29.4,10.59"/><path d="M21.16,23.12,21,23l8.32-12.48.16.11ZM18,21l-.16-.11L26.2,8.45l.16.11ZM14.92,19l-.17-.11L23.08,6.37l.16.11Z"/><path d="M60.6,49.41l8.32-12.48m-5.2,14.56L72,39m-5.2,14.56,8.32-12.48"/><path d="M66.92,53.63l-.16-.11L75.08,41l.17.11ZM63.8,51.55l-.16-.11L72,39l.16.11Zm-3.12-2.08-.16-.11,8.32-12.48L69,37Z"/><path d="M62.68,41.79l10.4,6.93"/><rect class="cls-1" x="67.83" y="39" width="0.1" height="12.5" transform="translate(-7.43 76.63) rotate(-56.31)"/><path class="cls-2" d="M32.52,21.68A7.5,7.5,0,0,0,45,30a7.5,7.5,0,1,1,12.48,8.32,15,15,0,0,1-25-16.64Z"/><path class="cls-3" d="M53.32,17.52a15,15,0,0,0-20.8,4.16A7.5,7.5,0,0,0,45,30a7.5,7.5,0,1,1,12.48,8.32A15,15,0,0,0,53.32,17.52Z"/><path d="M23.16,53.57,14.84,41.09m11.44,10.4L18,39M29.4,49.41,21.08,36.93"/><path d="M23.08,53.63,14.75,41.15l.17-.11,8.32,12.48Zm3.12-2.08L17.88,39.07,18,39l8.32,12.48Zm3.12-2.08L21,37l.16-.11,8.32,12.48Z"/><path d="M68.92,23.07,60.6,10.59M72,21,63.72,8.51m11.44,10.4L66.84,6.43"/><path d="M68.84,23.12,60.52,10.64l.16-.11L69,23ZM72,21,63.64,8.56l.16-.11,8.32,12.48ZM75.08,19,66.76,6.48l.16-.11,8.33,12.48Z"/><path d="M20.56,46.29l3.12-2.08m39-26,3.64-2.42m3.12-2.08,3.12-2.08"/><path class="cls-1" d="M20.59,46.34l-.06-.09,3.12-2.08.06.09ZM62.71,18.25l-.06-.08,3.64-2.43.06.09Zm6.76-4.5-.06-.09,3.12-2.08.06.09Z"/></g></svg>