<svg xmlns="http://www.w3.org/2000/svg" viewBox="0 0 90 60"><defs><style>.cls-1{fill:#c6c7c8;}.cls-2{fill:#e30a17;}.cls-3{fill:#fff;}</style></defs><title>turkey</title><g id="Back"><rect class="cls-1" width="90" height="60"/></g><g id="Flags"><path class="cls-2" d="M0,0V60H90V0ZM31.88,45A15,15,0,1,1,44.54,22a12,12,0,1,0,0,16A15,15,0,0,1,31.88,45ZM57.32,34.41l-5.18-1.69-3.21,4.41V31.68L43.75,30l5.18-1.68V22.87l3.21,4.41,5.18-1.69L54.11,30Z"/><path class="cls-3" d="M35.62,42a12,12,0,1,1,8.92-20,15,15,0,1,0,0,16A12,12,0,0,1,35.62,42Z"/><polygon class="cls-3" points="57.32 34.41 52.13 32.72 48.93 37.13 48.93 31.68 43.75 30 48.93 28.32 48.93 22.87 52.13 27.27 57.32 25.59 54.12 30 57.32 34.41"/></g></svg>