<svg xmlns="http://www.w3.org/2000/svg" viewBox="0 0 90 60"><defs><style>.cls-1{fill:#fff;}.cls-2{fill:#0038a8;}.cls-3{fill:#7b3f00;}.cls-4{fill:#fcd116;}</style></defs><title>uruguay</title><g id="Flags"><rect class="cls-1" y="53.33" width="90" height="6.67"/><rect class="cls-2" x="33.33" y="6.67" width="56.67" height="6.67"/><polygon class="cls-1" points="90 6.67 90 0 0 0 0 33.33 90 33.33 90 26.67 33.33 26.67 33.33 20 90 20 90 13.33 33.33 13.33 33.33 6.67 90 6.67"/><rect class="cls-2" x="33.33" y="20" width="56.67" height="6.67"/><rect class="cls-2" y="33.33" width="90" height="6.67"/><rect class="cls-1" y="40" width="90" height="6.67"/><rect class="cls-2" y="46.67" width="90" height="6.67"/><path class="cls-3" d="M21.84,16.67h6.93l-8.41-1.53,0-.09v0a11.51,11.51,0,0,0,4.57-2.26,5.94,5.94,0,0,1,1.38-.84,2,2,0,0,1,1-.12C25,11,25,13.62,20.32,13l4.9-4.9-7,4.85-.07-.05h0l0,0a11.5,11.5,0,0,0,1.63-4.83,5.72,5.72,0,0,1,.38-1.58,2.12,2.12,0,0,1,.59-.76c-2.23,1.07-.29,2.88-4,5.79V4.57l-1.53,8.37H15a11.68,11.68,0,0,0-2.26-4.55A5.94,5.94,0,0,1,11.91,7a2,2,0,0,1-.12-1C11,8.38,13.62,8.3,13,13l-4.9-4.9,4.84,7,0,.09,0,0a11.69,11.69,0,0,0-4.83-1.62,6.54,6.54,0,0,1-1.58-.38,2.27,2.27,0,0,1-.76-.6c1.07,2.23,2.88.3,5.79,4.06H4.57L13,18.19v.13a11.63,11.63,0,0,0-4.58,2.26A5.67,5.67,0,0,1,7,21.43a2,2,0,0,1-1,.11c2.33.83,2.25-1.82,7-1.22l-4.9,4.9,7-4.84.08.05,0,0a11.55,11.55,0,0,0-1.63,4.83,6.54,6.54,0,0,1-.38,1.58,2.18,2.18,0,0,1-.6.76c2.23-1.06.3-2.88,4.06-5.78v6.93l1.52-8.4h.13a11.64,11.64,0,0,0,2.26,4.57,5.67,5.67,0,0,1,.85,1.38,2,2,0,0,1,.11,1c.83-2.33-1.82-2.25-1.22-7l4.9,4.9-4.83-7,.06-.13a11.55,11.55,0,0,0,4.83,1.63,5.72,5.72,0,0,1,1.58.38,2,2,0,0,1,.76.59C26.56,18.49,24.74,20.43,21.84,16.67Z"/><path class="cls-4" d="M26.85,20.09a5.56,5.56,0,0,0-1.57-.38,11.66,11.66,0,0,1-4.75-1.58l8.23-1.5H20.69a4,4,0,0,0-.29-1.52h0l0,0,0,0,2.09.38c4.07-1.68,2.55-3.43,5.34-3.4-.2-.1-.39-.18-.57-.25a2.13,2.13,0,0,0-.95.12,5.72,5.72,0,0,0-1.39.85A11.65,11.65,0,0,1,20.45,15l4.77-6.89h0l-5.71,5.7a4.31,4.31,0,0,0-1.33-.89v0l1.75-1.22c1.69-4.06-.63-4.23,1.37-6.18a4,4,0,0,0-.57.23,2.09,2.09,0,0,0-.6.76A5.56,5.56,0,0,0,19.74,8a11.74,11.74,0,0,1-1.58,4.76l-1.5-8.24V12.6h0a4,4,0,0,0-1.52.29h0l-.05,0,0,0,.38-2.09C13.75,6.72,12,8.24,12,5.45c-.1.21-.18.39-.25.57a2.13,2.13,0,0,0,.12,1,5.72,5.72,0,0,0,.85,1.39A11.51,11.51,0,0,1,15,12.84L8.1,8.07l5.71,5.71a4,4,0,0,0-.87,1.28h0l0,0h0l-1.22-1.75C7.6,11.68,7.43,14,5.48,12a4,4,0,0,0,.23.57,2.18,2.18,0,0,0,.76.6A5.65,5.65,0,0,0,8,13.55a11.74,11.74,0,0,1,4.76,1.58l-8.24,1.5h8.07a4,4,0,0,0,.29,1.52h0s0,0,0,.05l0,0-2.1-.38c-4.07,1.68-2.55,3.43-5.34,3.4l.57.25a2.19,2.19,0,0,0,1-.12,5.87,5.87,0,0,0,1.38-.85,11.65,11.65,0,0,1,4.48-2.24L8.1,25.19l5.71-5.71a4,4,0,0,0,1.28.87h0l.05,0v0L13.4,21.63c-1.68,4.06.63,4.23-1.37,6.18a4,4,0,0,0,.57-.23,2.07,2.07,0,0,0,.6-.76,5.56,5.56,0,0,0,.38-1.57,11.74,11.74,0,0,1,1.58-4.76l1.5,8.24V20.66h0a4,4,0,0,0,1.52-.29h0l.05,0,0,0-.38,2.1c1.69,4.05,3.43,2.54,3.4,5.33.1-.21.18-.39.25-.57a2.19,2.19,0,0,0-.12-1,5.87,5.87,0,0,0-.85-1.38,11.65,11.65,0,0,1-2.24-4.48l6.89,4.77-5.71-5.71a4,4,0,0,0,.87-1.28h0l0-.05h.05l1.21,1.75c4.06,1.68,4.23-.63,6.18,1.37a4,4,0,0,0-.23-.57A2.09,2.09,0,0,0,26.85,20.09Z"/><path class="cls-3" d="M18.17,14.47c-.29,0-1.21.69-1.06.8s.29-.44,1.21-.44,1.06.52,1.32.22A2.57,2.57,0,0,0,18.17,14.47Z"/><path class="cls-3" d="M18.35,15.2c-.58,0-1,.07-1,.51v0a1.28,1.28,0,0,1,.44-.32c-.08.23.18.51.41.61-.41,0-.59-.44-.74-.22s.44.37.85.37,1-.62.77-.44l-.15.1a.3.3,0,0,0,0-.33c.21.1.35.23.5.23C19.2,15.64,18.94,15.2,18.35,15.2Zm.51.69a1.11,1.11,0,0,1-.35.13.44.44,0,0,0,.09-.61.79.79,0,0,1,.22.06A.44.44,0,0,1,18.86,15.89Z"/><path class="cls-3" d="M15.16,14.47a2.55,2.55,0,0,0-1.46.58c.25.3.4-.22,1.32-.22s1.06.55,1.21.44S15.46,14.5,15.16,14.47Z"/><path class="cls-3" d="M15,15.2c-.59,0-.84.44-1.06.55.15,0,.29-.13.5-.23a.32.32,0,0,0,0,.33l-.14-.1c-.26-.18.36.44.77.44s1-.22.84-.37-.33.22-.73.22c.22-.1.48-.38.4-.61a1.28,1.28,0,0,1,.44.32v0C15.93,15.27,15.57,15.2,15,15.2Zm-.46.27a.71.71,0,0,1,.22-.06.44.44,0,0,0,.08.61,1.33,1.33,0,0,1-.35-.13A.42.42,0,0,1,14.52,15.47Z"/><path class="cls-3" d="M18.6,18.45a1.91,1.91,0,0,1,.19.31c0-.26-.11-.37-.4-.59l.2.27-.15,0c-.4,0-.94-.29-1.19-.29s-.36.07-.58.07-.3-.07-.59-.07-.79.29-1.19.29l-.14,0,.19-.27a.77.77,0,0,0-.4.59,1.86,1.86,0,0,1,.2-.31c1.15.5,1,.67,1.93.67S17.44,19,18.6,18.45Zm-1.93.09c.71,0,1,.05,1.2.06a3.11,3.11,0,0,1-1.2.23,3.17,3.17,0,0,1-1.21-.23C15.67,18.59,16,18.54,16.67,18.54Z"/><path class="cls-3" d="M17.77,17.51c-.3,0-.19-.51-.52-.59,0,.15.11.11.15.33s-.33.19-.4,0c.07.3-.15.3-.33.3s-.41,0-.33-.3c-.08.19-.41.19-.41,0s.15-.18.15-.33c-.33.08-.22.55-.51.59a.56.56,0,0,0-.41.33,1.66,1.66,0,0,1,.88-.26c.3,0,.37.19.63.19s.33-.19.62-.19a1.63,1.63,0,0,1,.88.26A.53.53,0,0,0,17.77,17.51Z"/></g></svg>