<svg xmlns="http://www.w3.org/2000/svg" viewBox="0 0 90 60"><defs><style>.cls-1{fill:#00ab39;}.cls-2{fill:#fff;}.cls-3{fill:#d21034;}</style></defs><title>wales</title><g id="Flags"><rect class="cls-1" width="90" height="60"/><rect class="cls-2" width="90" height="30"/><path class="cls-3" d="M58.91,7h0Zm0,0A96.6,96.6,0,0,0,43.19,17.56c-2.39,2.09-1.72,3.75-1.81,5.63a3.9,3.9,0,0,1-1.05,3.14L35,27.4l-.51-1.47c.16-.75.79-1.12,2.1-.65.1-1-.68-1.36-1.59-1.7a1.21,1.21,0,0,1-.65-1.26c-.15-1.9,2.89.13,2.91.13s-.1-1.91-1.49-2.29a1.25,1.25,0,0,1-.8-1.67c.61-1.21,1.76.1,2.64.14a2.63,2.63,0,0,0-.95-2c-.36-.22-1.27-.39-1.29-.77s.85-.74,2-.59c-.25-.73-1.05-1.19-2.15-1.53l-.65-1.13c-.31-.58-.45-.59.27-1.67L37,9.52l-.71-.08c.1-.78.11-1,.29-2.32-.69.94-1.55.77-2.32,1.16,0,0-2.21.39-2.92,1.33l-5.54-.28c-1.18.16-2.18.49-2.38,1.64-2.69.27-5.5,0-7.55,2.6a21,21,0,0,1,4.18-.2,1.74,1.74,0,0,1,1.62,1.44c0,.06.45.06.45.06l.51.4.2-.54.45.31c.05-.2.1-.4.14-.59l.45.31,0-.71.6.42v-.93s2.19,0,2.85,1.39a50.79,50.79,0,0,1-12.1.62L17,14.7c-2.17-.44-4.22-.84-6.14-2.35.73,2.73,4.47,5.93,5.24,5.91,0,0-.74-1.32-.74-1.32l6.48.28c.24.71.13,1.52.71,2.15,0,0-.36,1.18.43,1.67,0,.05,1-2.41,1-2.41a10,10,0,0,0,.57,1.1,3.34,3.34,0,0,1,2.71-2.46s.48,1.11.48,1.14a1.93,1.93,0,0,0-1.13,2.37c-.48,0-1.34,1.43-1.07,2.21a2.53,2.53,0,0,0-1.16,2.63c-.8.17-1.27,1.63-1,3.17a2.84,2.84,0,0,0,.17,4.1,1.6,1.6,0,0,0-.74,1.22.83.83,0,0,0-1,.25c-.53-.54-1.29-1-1.83-.51A1.87,1.87,0,0,0,18,32.58a1.73,1.73,0,0,0-1.27-1.81s-.2-3.19-1.16-4.22c-.1-.57,0-1,.85-1.44s1-.75.9-1.95c.32-.8.55-1.62-.42-2.18a2.29,2.29,0,0,1-.65,1.84c-.46-.07-.63.47-.94.71-.43-.59.92-1.5-.08-2.81-.06,0-.7-1.7-2.29-1.66A2.17,2.17,0,0,1,14,21a5.83,5.83,0,0,0-.25,4.13c-.66-1-1-2.87-1.59-3.2-.47-.09-.71-1.23-2.57-.9a1.88,1.88,0,0,1,1.27,1.38c-.49.26-.24.93.12,1.39a2.08,2.08,0,0,0,1.55,2.12L12,30.37c-.39-.05-1,1.46-1.22,1.5-.38.24-1,.87-.28,1.05A1.62,1.62,0,0,1,8.9,34.39a1.81,1.81,0,0,0,2.34-.54c1.13,0,.76-1.38,1.31-2a3.75,3.75,0,0,0,.76-1.41,10.15,10.15,0,0,0,3.77,5.94C19.23,38.7,21,40.88,21,44a7.63,7.63,0,0,0,1.73-3.2A12.65,12.65,0,0,1,27,40.26c-.26.54-.54,1.05-.18,1.4-1,.36-1.26,1.11-.85,1.87-1.09.74-1.16,1.22-1.18,2.46-2,2.6-3.28,2.51-5.29,1.84-.66-.39-1.68-.95-2.15-.65-.87-.58-2.12-.67-2.32.65a1,1,0,0,1,1.55.08c-.1.27-.19.53.2.68l-.51.57c-.93-.15-2.19-.14-2.52,1.21a2.59,2.59,0,0,1,2.41-.11l.48.17.06.65s-1.28-.19-1.62,1.87c1.2-1.27,2-.94,2-.94.46.68,2.15.58,3.37-.53,1.71-1,2.21.42,3.31-.48a2,2,0,0,1,2.74.56c.86.33,1.76.59,2.46,0a1.38,1.38,0,0,1,1.73.34,1.51,1.51,0,0,0-1.67-1.55l-.28-.29a9.27,9.27,0,0,1-2.72-.56,8.29,8.29,0,0,1,2-3.8A41.12,41.12,0,0,0,32,41.51c-.06,1.22.87,2.57,1.36,3.8a8.49,8.49,0,0,0,1.13-2.86,8.07,8.07,0,0,0,1.76-1.16c1.09.67,2.87-.55,4-1.55a2.84,2.84,0,0,0,2.07,0c-.66,1.34.38,2.59,2,3.11.15,1.18,1.35,1.43,3.16,1.44.08.7,1.16.79,1.16.79-.68.32-1,.64-1,1.36-.7,0-1.23.18-1.42,1A5.68,5.68,0,0,0,43.5,48a4.86,4.86,0,0,1-2.66-1.22c-.36-.3-.45-.73-1.08-.9-.39-.47-.87-.37-1,.08a1.45,1.45,0,0,0-2.2,1c.72-.52,1.36-.72,1.81-.08-.24.44.6.7,1.33.87a2.2,2.2,0,0,1,1.72,1.31,2.83,2.83,0,0,1-2.34-.37,1.55,1.55,0,0,0-1.84-.12c-.61-.39-2.07.35-2.12,1.53.61-.56,1.17-.83,1.72-.48-.27.07-.17.09-.14.26l1.41.82c-.69.18-1.34.46-1,1.75a1.51,1.51,0,0,1,1.84-.71s.17.4.54.11a4.84,4.84,0,0,1,2.91-1,3.56,3.56,0,0,1,2.54.14,2,2,0,0,1,2.24,0c.93.29,1.6,1.37,2.77.88a1.42,1.42,0,0,1,2,.39c0-1-.77-1.38-1.87-1.61l-.76-.45a7,7,0,0,1-2.12-.31,13,13,0,0,0,8.12-6l1.75.62c.41,0,.45.17,1.3.43,0-1.26-.51-2.56-2.77-2.69l-3-1.13a2.24,2.24,0,0,1-.11-2.92c.78-.7.92-.61,1.44-1.47.63-.06,1.23.59,1.81.59a2.86,2.86,0,0,0,2.89,1.31A3.26,3.26,0,0,0,61.8,39a2.56,2.56,0,0,0,2.89.42,1.92,1.92,0,0,0,1.7.4A2.51,2.51,0,0,0,67.57,41c-.35.35-.13,1.84.23,2.38a2.39,2.39,0,0,0-.11,1.78c-.82.53-1,.92-.62,1.81-1.08,1.73-2.36,1.92-3.57,1.39l-1.3-.82-1.39-1.36c-.23-.22-.72-.29-.82.2,0,0-1.78-.4-1.92,1.1a1.47,1.47,0,0,1,1.78,0,.35.35,0,0,0-.06.48,21.4,21.4,0,0,1,2.42,1,7.18,7.18,0,0,1,1,.44l-1-.44a4.3,4.3,0,0,0-1.54-.41c-.63-.06-1.3-.14-1.61.33-.68.29-1.74.52-1.7,1.79.46-.76,1.09-.72,1.9-.65L59.2,50c.87.39.71-.11,1.52-.19a6.31,6.31,0,0,1,2.16.35c-.64.19-1.51.11-1.93.57-.07.15-.34.09-.22.45,0,0-1.25,0-1.59,1.7a4.31,4.31,0,0,1,2.27-.79l.39.08s1.53-1,1.56-1,1.48-.64,2.15.09a1.81,1.81,0,0,0,1.81-.06,3.34,3.34,0,0,1,3.4.17l1,.6.42-.29a2,2,0,0,1,1.94.68c-.34-1.72-1.57-1.78-1.57-1.78l-.29-.25-1.75-.68c-.25-.64-.89-1.14-.26-1.9.66-3.24,1.44-5.68.17-9,1.18.51,2.06,2.09,3.54,1.53,0-1.32-4.86-3.83-8.57-5.84,6.08-.31,13.39-4.8,10.58-10.51.44-1.38.89-2.75,1.33-4.13a5.64,5.64,0,0,0,3,2.63c-.94-1.79-1.48-7.26-.94-11a88.55,88.55,0,0,1-8,8.44,10.86,10.86,0,0,0,4-.07c-.39.79-.76,1.59-1.15,2.38C70.44,20,66.05,21.65,66,24.57c.13,3.41,4.34,3.89,6.77,2.71-.48,3.1-7.62,2-7.62,2-2.54-.87-5-.73-7.61-.71.55-1.7,3.63-3.21,6-2.54-3.28-3.68.46-8.25,5-9.65-4.92-1.62-.69-5.37,3-8.06,0,0-10.59,4.45-11.56,4.44-3-.23-2.19-3.79-1-5.71ZM25.67,11.29a3.84,3.84,0,0,1,.76.08c.48.12,1.06.18,1.05.33a1.63,1.63,0,0,1-1.29.79c-.54,0-.85-.35-1-1.15A1.56,1.56,0,0,1,25.67,11.29ZM70.24,23.86A3.16,3.16,0,0,1,72.58,25c-.39,1.13-3.78,1.7-4,0-.07-.51.65-1.17,1.66-1.18Z"/><path d="M15,53.25l.06-.32c.25-1.56,1.09-2,1.59-2h0l0-.48-.43-.15a2.43,2.43,0,0,0-2.3.1l-.23.19.07-.29c.26-1.08,1.11-1.51,2.58-1.3l.38-.43a.46.46,0,0,1-.19-.2.66.66,0,0,1,0-.48c-.44-.43-.77-.54-1.38,0l-.2.17,0-.26a1.23,1.23,0,0,1,.7-1,1.92,1.92,0,0,1,1.72.28c.5-.23,1.38.21,2.19.68,2,.68,3.19.72,5.15-1.78a2.36,2.36,0,0,1,1.16-2.46,1.32,1.32,0,0,1-.1-1.07,1.51,1.51,0,0,1,.91-.81c-.24-.36,0-.82.19-1.27a12.38,12.38,0,0,0-4.11.48A7.57,7.57,0,0,1,21.05,44l-.17.16V44c0-3.06-1.74-5.2-3.87-7.48a10.07,10.07,0,0,1-3.72-5.68,4.2,4.2,0,0,1-.64,1.12h0l0,0a1.81,1.81,0,0,0-.33.84c-.13.53-.26,1.13-1,1.17a1.88,1.88,0,0,1-2.43.52l-.24-.14.28,0A1.5,1.5,0,0,0,10.42,33c-.19-.07-.3-.17-.32-.31,0-.34.42-.73.67-.89h0a2.44,2.44,0,0,0,.38-.55c.31-.52.54-.89.77-.95L12.42,26a2.14,2.14,0,0,1-1.55-2.15,1.53,1.53,0,0,1-.37-1.11.59.59,0,0,1,.23-.35,1.73,1.73,0,0,0-1.18-1.25v-.19a2.2,2.2,0,0,1,2.25.64.82.82,0,0,0,.36.26h0a3.53,3.53,0,0,1,.87,1.59c.12.32.25.65.39,1A6.22,6.22,0,0,1,13.89,21a2.05,2.05,0,0,0-1-1.85l-.3-.17H13a2.65,2.65,0,0,1,2.28,1.64.15.15,0,0,1,0,.06h0a1.86,1.86,0,0,1,.16,2,1.12,1.12,0,0,0-.13.67,1.2,1.2,0,0,0,.17-.21c.17-.22.37-.47.7-.44A2.21,2.21,0,0,0,16.78,21v-.17l.15.09c1,.58.79,1.44.47,2.27.06,1.2-.13,1.58-1,2s-.88.81-.8,1.31c.89,1,1.13,3.71,1.16,4.18a1.83,1.83,0,0,1,1.28,1.79,2,2,0,0,1,1.85,1.2c.46-.3,1.11-.11,1.77.54a.93.93,0,0,1,.94-.25,1.72,1.72,0,0,1,.68-1.08,2.88,2.88,0,0,1-.91-2,2.69,2.69,0,0,1,.79-2.11c-.23-1.52.23-2.94,1-3.2a2.44,2.44,0,0,1,1-2.45l.17-.14a2.36,2.36,0,0,1,.47-1.72,1.37,1.37,0,0,1,.57-.53,1.64,1.64,0,0,1,.12-1.33,2,2,0,0,1,1-1c-.08-.2-.27-.63-.4-1a3.23,3.23,0,0,0-2.56,2.37l-.05.24-.13-.2a8.16,8.16,0,0,1-.48-.9c-.84,2.24-.87,2.24-.95,2.24h-.06l0,0c-.73-.46-.53-1.46-.47-1.71A2.68,2.68,0,0,1,21.89,18a4.81,4.81,0,0,0-.13-.66l-3.07-.13L15.52,17l.62,1.13h0v.18l-.07,0s0,0,0,0c-.9,0-4.6-3.31-5.31-6l-.08-.29.23.18a13.24,13.24,0,0,0,6,2.32l.37.07-.26.13-.86.42-.54.27a47,47,0,0,0,7.06-.06L22.11,15c-.46,0-.49-.07-.51-.12v0a1.64,1.64,0,0,0-1.52-1.36,10.81,10.81,0,0,0-2.81.07c-.44.05-.9.1-1.37.13h-.21l.13-.17c1.76-2.21,4.11-2.38,6.38-2.54l1.17-.09c.13-.68.56-1.39,2.44-1.65h0l5.5.28a6,6,0,0,1,2.92-1.33,4.38,4.38,0,0,1,.8-.26,2.22,2.22,0,0,0,1.48-.86l.17.07c-.12.87-.16,1.26-.21,1.67,0,.17,0,.35-.06.55l.88.11-.23.14L36,10.31,35,11c-.61.92-.57,1-.34,1.41a.64.64,0,0,1,.08.14l.63,1.1c1.25.39,1.94.89,2.18,1.57l.05.15-.16,0a2.59,2.59,0,0,0-1.81.24.29.29,0,0,0-.11.25c0,.2.42.35.75.48a3,3,0,0,1,.5.22h0a2.68,2.68,0,0,1,1,2.07v.11h-.11a2.75,2.75,0,0,1-1-.34c-.65-.31-1.21-.58-1.57.14a1,1,0,0,0,0,.84,1.27,1.27,0,0,0,.75.7c1.4.38,1.59,2.2,1.56,2.39v.08h-.09s0,0-.12-.06c-1.66-1-2.27-.94-2.49-.81s-.23.31-.2.63h0A1.05,1.05,0,0,0,35,23.43l.09.07c.89.33,1.75.74,1.63,1.79v.13l-.12-.05A1.9,1.9,0,0,0,35,25.29a.93.93,0,0,0-.44.64l.48,1.36,2.5-.51,2.7-.54a3.77,3.77,0,0,0,1-3,10.23,10.23,0,0,0,0-1.11,4.89,4.89,0,0,1,1.85-4.6A96.48,96.48,0,0,1,58.84,6.94v0h0l.29-.16L59,7.06c-.83,1.4-1.36,3.41-.77,4.57a2,2,0,0,0,1.74,1h0c.77,0,7.86-2.9,11.51-4.43l.09.17c-3.69,2.7-5.39,4.69-5.17,6.08.12.77.85,1.38,2.15,1.81l.29.09-.29.09c-3,.92-5.36,3.07-6,5.36a4.26,4.26,0,0,0,1.05,4.13l.23.25-.33-.09c-2.27-.65-5.16.78-5.8,2.36h.77a19.21,19.21,0,0,1,6.72.71c.23,0,4.83.72,6.73-.65a1.83,1.83,0,0,0,.73-1,6,6,0,0,1-5.15-.14,3.19,3.19,0,0,1-1.58-2.73,3.26,3.26,0,0,1,1.81-2.79,6.62,6.62,0,0,1,6.41.27c.17-.36.35-.72.52-1.09s.33-.69.5-1l-.31,0a9.68,9.68,0,0,1-3.56,0l-.18,0,.13-.12a89,89,0,0,0,8-8.44l.22-.27,0,.35c-.51,3.58,0,9.12.92,11l.12.23-.23-.09a5.83,5.83,0,0,1-3-2.47c-.2.61-.39,1.23-.59,1.85s-.44,1.35-.65,2a5.38,5.38,0,0,1-.17,5.26A10.22,10.22,0,0,1,71.45,33a15.92,15.92,0,0,1-5.77,1.58l.63.34c3.61,2,7.7,4.16,7.7,5.43v.07l-.06,0c-1,.39-1.8-.21-2.52-.8a8.29,8.29,0,0,0-.88-.62c1,2.81.53,5.07,0,7.67-.07.36-.15.74-.23,1.12v0h0c-.44.53-.22.9,0,1.34.08.14.16.27.23.42l.83.33.88.34h0l.14.13.12.11a2.06,2.06,0,0,1,1.63,1.85l-.17.09a1.84,1.84,0,0,0-1.83-.66l-.2.13-.21.15-.05,0-1-.62a3.2,3.2,0,0,0-3.3-.17,2,2,0,0,1-1.91.06h0v0c-.37-.39-1.08-.42-2-.07l0,0c-.1.05-1,.63-1.53,1l0,0h0l-.38-.08a4.3,4.3,0,0,0-2.2.77l-.2.12,0-.22a1.93,1.93,0,0,1,1.56-1.77.29.29,0,0,1,.18-.34.28.28,0,0,0,.08-.06v0a2,2,0,0,1,1.29-.47l.33-.05A5.31,5.31,0,0,0,60.73,50a1.25,1.25,0,0,0-.59.2c-.25.14-.44.22-1,0l-.08,0,0-.09,0,0c-.78-.06-1.29,0-1.69.62l-.16.27,0-.32c0-1.18.85-1.52,1.5-1.77l.23-.09c.34-.49,1-.42,1.64-.37h.08L59.83,48l-.06,0-.06-.09a.42.42,0,0,1,0-.51,1.33,1.33,0,0,0-1.57.1l-.19.19,0-.27a1.26,1.26,0,0,1,.5-1,2.07,2.07,0,0,1,1.45-.25.5.5,0,0,1,.32-.33.68.68,0,0,1,.64.17l.68.66.7.69.62.39.67.42q2,.89,3.41-1.31c-.35-.86-.2-1.3.61-1.84a2.49,2.49,0,0,1,.12-1.73A3.18,3.18,0,0,1,67.42,41a2.38,2.38,0,0,1-1-1l0,0a2.06,2.06,0,0,1-1.68-.39,2.65,2.65,0,0,1-2.89-.43,3.34,3.34,0,0,1-3.17-.43,3,3,0,0,1-2.93-1.31,2.16,2.16,0,0,1-.81-.3,1.87,1.87,0,0,0-.87-.29,3.1,3.1,0,0,1-.88,1l-.56.46a2.15,2.15,0,0,0,.1,2.76l2.94,1.12c2.41.15,2.88,1.6,2.85,2.79v.13l-.13,0a6,6,0,0,1-.78-.29,1.24,1.24,0,0,0-.5-.13h0l-.92-.32L55.34,44a13,13,0,0,1-7.85,5.86A4.07,4.07,0,0,0,48.6,50c.23,0,.47,0,.71,0h0l.38.23.37.22c1.16.25,1.94.63,1.93,1.7v.26l-.17-.19A1.34,1.34,0,0,0,50,51.9h0a1.94,1.94,0,0,1-2-.42,3.72,3.72,0,0,0-.85-.46h0a1.9,1.9,0,0,0-2.13,0l0,0-.05,0a2.74,2.74,0,0,0-2-.19l-.46.07a4.51,4.51,0,0,0-2.85,1h0a.51.51,0,0,1-.34.12.45.45,0,0,1-.3-.21h0a1.39,1.39,0,0,0-1.7.66l-.12.24L37,52.46c-.29-1.23.26-1.6.89-1.8l-1.26-.73v0l0-.08a.15.15,0,0,1,0-.16l0,0c-.4-.15-.84,0-1.43.56l-.17.16v-.24a1.86,1.86,0,0,1,1.06-1.51,1.28,1.28,0,0,1,1.15-.12,1.64,1.64,0,0,1,1.91.15,2.7,2.7,0,0,0,2.15.38,2.11,2.11,0,0,0-1.6-1.14h0c-.65-.16-1.28-.35-1.42-.68a.34.34,0,0,1,0-.28.74.74,0,0,0-.47-.31A1.69,1.69,0,0,0,36.6,47l-.2.14,0-.24a1.43,1.43,0,0,1,.9-1.17,1.77,1.77,0,0,1,1.36.06.62.62,0,0,1,.41-.34.79.79,0,0,1,.71.31,1.43,1.43,0,0,1,.8.6,2.14,2.14,0,0,0,.28.32,4.93,4.93,0,0,0,2.58,1.19,5.58,5.58,0,0,1,2.71-.56,1.3,1.3,0,0,1,1.4-1,1.3,1.3,0,0,1,.81-1.22,1.18,1.18,0,0,1-.94-.74c-1.77,0-3-.28-3.17-1.47a3.31,3.31,0,0,1-2.1-1.65,1.78,1.78,0,0,1,0-1.38,2.86,2.86,0,0,1-1.88,0c-1,.88-2.83,2.2-4,1.56a7.89,7.89,0,0,1-1.68,1.11,8.52,8.52,0,0,1-1.14,2.84l-.1.17-.07-.18c-.14-.36-.32-.72-.5-1.1a7,7,0,0,1-.86-2.46,24.18,24.18,0,0,1-2.52,2.73c-.4.38-.81.78-1.25,1.25a8,8,0,0,0-1.93,3.68,4.81,4.81,0,0,0,1.68.39,7.58,7.58,0,0,1,.94.13h0l.28.28a1.6,1.6,0,0,1,1.73,1.65v.24L30.7,52a1.3,1.3,0,0,0-1.6-.33c-.75.62-1.67.35-2.55,0h0v0a2,2,0,0,0-2.61-.55,1.46,1.46,0,0,1-1.46.25,2.19,2.19,0,0,0-1.85.23,3.57,3.57,0,0,1-2.63,1,1.26,1.26,0,0,1-.86-.42c-.14,0-.89-.16-1.91.92Zm45.75-1.93c-.09,0-1.07,0-1.43,1.39A4.38,4.38,0,0,1,61.41,52l.37.08a16.91,16.91,0,0,1,1.56-1h0c1-.37,1.77-.33,2.2.11a1.72,1.72,0,0,0,1.7-.06h0a3.43,3.43,0,0,1,3.49.18l.93.56a.91.91,0,0,0,.16-.11l.21-.14h0a2.1,2.1,0,0,1,1.79.44,1.71,1.71,0,0,0-1.4-1.35h0l0,0-.14-.12-.13-.12-.86-.33-.87-.34,0,0,0,0a3.48,3.48,0,0,0-.22-.43,1.16,1.16,0,0,1,0-1.54c.08-.38.16-.74.23-1.1.59-2.75,1-4.92-.06-7.79l-.08-.22.21.09a5.27,5.27,0,0,1,1.14.76c.7.56,1.36,1.09,2.26.79-.16-1.17-4.27-3.39-7.59-5.18l-.93-.51-.3-.16.34,0c4.92-.25,8.94-2.84,10.36-5.26A5.1,5.1,0,0,0,75.83,24V24l.66-2.06c.22-.69.44-1.38.67-2.07l.07-.23.11.22a5.56,5.56,0,0,0,2.74,2.49c-.88-2-1.3-7-.88-10.53a88.55,88.55,0,0,1-7.69,8.06,9.66,9.66,0,0,0,3.31,0l.5-.07.17,0-.07.16c-.2.4-.39.8-.58,1.2l-.57,1.18,0,.1-.09-.06A6.47,6.47,0,0,0,67.82,22a3.07,3.07,0,0,0-1.7,2.61,3,3,0,0,0,1.48,2.57,5.78,5.78,0,0,0,5.15.05l.16-.08,0,.18A2,2,0,0,1,72,28.64c-2,1.46-6.68.73-6.88.7h0a18.88,18.88,0,0,0-6.67-.71h-1l0-.13a4.17,4.17,0,0,1,2.36-2.22,5.74,5.74,0,0,1,3.43-.46,4.41,4.41,0,0,1-.9-4.08c.63-2.28,3-4.42,5.84-5.4-1.2-.45-1.87-1.08-2-1.87-.28-1.79,2.32-4.07,4.6-5.79-2.44,1-10,4.14-10.85,4.14h0a2.15,2.15,0,0,1-1.9-1.1,5.19,5.19,0,0,1,.6-4.45h0A96.66,96.66,0,0,0,43.25,17.63a4.69,4.69,0,0,0-1.78,4.44c0,.37,0,.74,0,1.12A4,4,0,0,1,40.4,26.4l0,0h0L37.62,27,35,27.5l-.08,0-.55-1.58v0a1.13,1.13,0,0,1,.53-.79,2,2,0,0,1,1.57,0c0-.75-.55-1.11-1.53-1.47l0,0-.1-.07a1.24,1.24,0,0,1-.59-1.27.79.79,0,0,1,.3-.8c.44-.28,1.32,0,2.61.76-.05-.47-.36-1.74-1.42-2a1.45,1.45,0,0,1-.87-.81,1.18,1.18,0,0,1,0-1c.45-.9,1.18-.54,1.82-.23a3.24,3.24,0,0,0,.79.3,2.49,2.49,0,0,0-.89-1.81l-.46-.2c-.42-.16-.86-.33-.88-.65a.57.57,0,0,1,.18-.41,2.53,2.53,0,0,1,1.8-.3,3.11,3.11,0,0,0-2-1.32h0l-.67-1.17-.08-.14c-.27-.49-.31-.63.35-1.63h0l1.07-.71.84-.56-.54-.07V9.43c0-.26.06-.45.08-.65,0-.36.08-.7.16-1.34a2.64,2.64,0,0,1-1.36.67,3.49,3.49,0,0,0-.77.26h0s-2.17.4-2.85,1.3l0,0h-.05l-5.54-.28c-1.07.15-2.09.45-2.28,1.56v.07h-.08l-1.25.1c-2.26.16-4.41.32-6.09,2.3l1.12-.11a11.18,11.18,0,0,1,2.86-.08,1.8,1.8,0,0,1,1.68,1.48l.37,0h0l.43.34.06-.15.09-.27.05-.12.44.31.14-.6.12.08.22.16.08.06v-.17c0-.12,0-.24,0-.37v-.18l.59.42v-.84h.1c.09,0,2.24,0,2.93,1.43l0,0,0,.06s0,.07-1.14.24c-.59.09-1.56.22-2.77.33a48.07,48.07,0,0,1-8.29.11l-.35,0,.31-.16.86-.42.61-.3A13.52,13.52,0,0,1,11,12.61a12.27,12.27,0,0,0,4.86,5.51c-.11-.19-.3-.53-.63-1.14l-.08-.15h.17L18.7,17l3.13.14h.07l0,.07a4.79,4.79,0,0,1,.17.75,2.39,2.39,0,0,0,.52,1.36l0,0,0,.06s-.3,1,.31,1.5c.15-.33.6-1.53.89-2.3l.09-.23.09.23s.21.47.44.88a3.51,3.51,0,0,1,2.74-2.3h.07l0,.07a8.71,8.71,0,0,1,.49,1.17v.08H27.7a1.68,1.68,0,0,0-1,1,1.36,1.36,0,0,0-.07,1.26l.08.15h-.17c-.13,0-.35.19-.55.47A2.11,2.11,0,0,0,25.57,23l0,.05,0,0-.22.19a2.27,2.27,0,0,0-.91,2.36v.09l-.09,0c-.74.15-1.18,1.58-.94,3.05v.05l0,0a2.52,2.52,0,0,0-.77,2,2.66,2.66,0,0,0,.93,2l.09.07-.09.08c-.47.43-.7.71-.7,1.15v.14l-.13,0a.73.73,0,0,0-.9.22l-.07.1-.09-.09c-.32-.33-1.13-1-1.7-.51l-.12.12,0-.17A1.77,1.77,0,0,0,18,32.68h-.12v-.12a1.64,1.64,0,0,0-1.2-1.71l-.06,0v-.07s-.2-3.16-1.13-4.15l0,0v0c-.11-.67.13-1.09.9-1.54s.91-.77.85-1.87v0c.3-.77.49-1.46-.23-2a2.31,2.31,0,0,1-.68,1.72l0,0h-.06c-.25,0-.39.16-.56.37a1.31,1.31,0,0,1-.3.32l-.08.06-.06-.08c-.2-.27-.07-.6.06-.95a1.64,1.64,0,0,0-.14-1.84l-.05-.1a2.53,2.53,0,0,0-1.82-1.52A2.29,2.29,0,0,1,14.09,21v0h0a5.82,5.82,0,0,0-.25,4.07l-.17.08a8.33,8.33,0,0,1-.77-1.67A4.06,4.06,0,0,0,12.12,22a1,1,0,0,1-.44-.31,1.93,1.93,0,0,0-1.7-.64,2.17,2.17,0,0,1,1,1.31l0,.08-.08,0a.36.36,0,0,0-.21.27,1.32,1.32,0,0,0,.35,1l0,0v0c-.06.94.42,1.58,1.5,2l.07,0-.5,4.61H12c-.17,0-.49.53-.69.86s-.35.59-.48.63c-.3.19-.6.51-.57.68s.16.16.27.18l.1,0,0,.1c-.22.76-.43,1.26-1.4,1.48a1.69,1.69,0,0,0,1.92-.64l0,0h0c.64,0,.74-.48.86-1a2,2,0,0,1,.38-.92l0-.05a4.25,4.25,0,0,0,.72-1.35l.13-.32.06.34a10.12,10.12,0,0,0,3.72,5.88h0c2.1,2.26,3.86,4.38,3.92,7.39a7.93,7.93,0,0,0,1.54-3l0,0,0,0a12.79,12.79,0,0,1,4.37-.5h.15l-.12.24c-.23.48-.43.9-.14,1.18l.12.11-.15,0a1.41,1.41,0,0,0-.92.75,1.13,1.13,0,0,0,.12,1l0,.08-.07,0c-1.07.72-1.13,1.18-1.14,2.38v0l0,0c-2,2.51-3.2,2.61-5.4,1.87h0c-.44-.25-1.6-.93-2-.65l-.05,0-.06,0a1.8,1.8,0,0,0-1.59-.3,1,1,0,0,0-.52.63c.61-.4,1-.21,1.47.26l0,0,0,.06a.54.54,0,0,0-.07.39.33.33,0,0,0,.21.16l.13,0-.64.71H16.3c-1.26-.19-2,.1-2.33.9a2.89,2.89,0,0,1,2.27,0l.53.19.07.84-.12,0s-1-.13-1.44,1.47c1.11-1,1.88-.74,1.92-.73h0l0,0a1,1,0,0,0,.74.36,3.32,3.32,0,0,0,2.48-.91l0,0a2.42,2.42,0,0,1,2-.25,1.27,1.27,0,0,0,1.29-.22,2.16,2.16,0,0,1,2.86.56c.82.31,1.68.56,2.34,0h0a1.46,1.46,0,0,1,1.67.19,1.43,1.43,0,0,0-1.56-1.23h0l-.29-.29c-.29-.06-.6-.09-.89-.12a4.74,4.74,0,0,1-1.83-.45l-.06,0,0-.07a8.12,8.12,0,0,1,2-3.83c.44-.48.86-.87,1.25-1.26a22.51,22.51,0,0,0,2.67-2.93l.2-.25,0,.31A6,6,0,0,0,33,44.16c.15.31.31.63.44.93a8.08,8.08,0,0,0,1-2.65v-.09h.06a7.25,7.25,0,0,0,1.71-1.13l.05-.06.07,0c1.13.71,3.1-.84,3.9-1.54l0,0,.06,0a2.7,2.7,0,0,0,2,0l.22-.06-.1.2a1.59,1.59,0,0,0-.06,1.41,3.12,3.12,0,0,0,2,1.56l.06,0v.07c.15,1.11,1.29,1.35,3.08,1.35h.08v.09c.07.61,1.06.71,1.07.71l.37,0-.33.15c-.65.3-1,.59-1,1.27v.1h-.1c-.67,0-1.15.16-1.32.91l0,.08h-.08a5.68,5.68,0,0,0-2.72.55l0,0h0a5.08,5.08,0,0,1-2.71-1.25,2,2,0,0,1-.31-.34,1.26,1.26,0,0,0-.72-.54h0l0,0a.59.59,0,0,0-.54-.26.41.41,0,0,0-.31.31l-.05.13L38.68,46a1.49,1.49,0,0,0-1.27-.1,1.18,1.18,0,0,0-.71.78,1.62,1.62,0,0,1,1.1-.34,1,1,0,0,1,.63.43l0,0,0,0a.2.2,0,0,0,0,.18c.12.28.95.48,1.28.56A2.29,2.29,0,0,1,41.5,49l0,.1-.1,0A2.9,2.9,0,0,1,39,48.75a1.45,1.45,0,0,0-1.72-.11l-.06,0,0,0a1.09,1.09,0,0,0-1,.09,1.74,1.74,0,0,0-.92,1.1,1.35,1.35,0,0,1,1.65-.31l.19.12-.22.06-.11,0h0l0,.06,1.58.92-.23.06c-.65.17-1.18.4-1,1.4a1.59,1.59,0,0,1,1.8-.55.14.14,0,0,1,.1.08s.1.13.17.14a.3.3,0,0,0,.19-.08,5,5,0,0,1,3-1l.45-.06a3,3,0,0,1,2.11.18,2.07,2.07,0,0,1,2.28,0,3.37,3.37,0,0,1,.87.48,1.81,1.81,0,0,0,1.81.4,1.47,1.47,0,0,1,2,.23c-.11-.76-.77-1.05-1.78-1.26h0l-.38-.23-.36-.22c-.23,0-.46,0-.68-.05a3.63,3.63,0,0,1-1.46-.27l-.24-.11.26-.07a12.9,12.9,0,0,0,8.07-5.92l0-.07.91.32.9.32a1.48,1.48,0,0,1,.54.15,6.75,6.75,0,0,0,.64.24c0-1.53-.91-2.35-2.68-2.45h0l-3-1.14v0a2.34,2.34,0,0,1-.11-3c.24-.21.42-.36.57-.47a3,3,0,0,0,.86-1l0,0h0a2,2,0,0,1,1,.32,1.93,1.93,0,0,0,.79.28h.07l0,.06a2.75,2.75,0,0,0,2.77,1.24h0l0,0a3.2,3.2,0,0,0,3.07.41l.06,0,0,0a2.48,2.48,0,0,0,2.78.4l.06,0,.05,0a1.81,1.81,0,0,0,1.61.37h0c.06,0,.09,0,.16.16a2.14,2.14,0,0,0,1.06,1l.15,0-.12.11c-.31.31-.11,1.74.24,2.25l0,0,0,0a2.28,2.28,0,0,0-.11,1.71l0,.07-.06,0c-.8.52-.92.87-.58,1.69l0,0,0,0c-1.23,2-2.69,1.87-3.69,1.43h0L62.78,48l-.63-.4h0l-.71-.7-.67-.66a.53.53,0,0,0-.45-.13.34.34,0,0,0-.21.28l0,.09-.1,0a2,2,0,0,0-1.38.2,1,1,0,0,0-.38.58,1.54,1.54,0,0,1,1.43-.05c.31.13.31.19.31.23s0,.06-.05.09a.25.25,0,0,0,0,.31,19.87,19.87,0,0,1,2.39.94,7.18,7.18,0,0,1,1,.44h0l-.08.18-1-.44a4.23,4.23,0,0,0-1.47-.41h-.09c-.59-.06-1.2-.12-1.47.3l0,0h0l-.27.11c-.59.23-1.25.48-1.36,1.27a1.9,1.9,0,0,1,1.79-.43h.13l0,.12,0,.08h0c.41.18.53.11.72,0a1.51,1.51,0,0,1,.67-.23,6.51,6.51,0,0,1,2.2.36l.29.1-.29.09a5.55,5.55,0,0,1-.71.13,2,2,0,0,0-1.17.4.36.36,0,0,1-.15.13c-.08,0-.11.07-.06.23l0,.13h-.14Zm-.95-4ZM12.63,31.92Zm10.26-17-.05.15-.1.27,0,.12a44.94,44.94,0,0,0,4.53-.56,3.32,3.32,0,0,0-2.62-1.22v1l-.6-.43v.19c0,.11,0,.23,0,.34v.18l-.14-.1-.23-.16-.11-.07-.14.59ZM70.22,26.17h-.31c-.82-.08-1.34-.49-1.43-1.11a.84.84,0,0,1,.24-.65,2.07,2.07,0,0,1,1.52-.64h0a3.24,3.24,0,0,1,2.41,1.17l0,.05V25C72.44,25.72,71.23,26.17,70.22,26.17Zm0-2.22a1.84,1.84,0,0,0-1.38.58.63.63,0,0,0-.2.49c.1.72.83.9,1.26.95A2.8,2.8,0,0,0,72.47,25,3.05,3.05,0,0,0,70.25,24Zm-44-11.36h-.05c-.59,0-.92-.39-1.11-1.22v-.07l.06,0a1.93,1.93,0,0,1,.55-.06,3.66,3.66,0,0,1,.79.09l.38.08c.47.1.75.15.74.34v.05A1.78,1.78,0,0,1,26.23,12.59Zm-.95-1.18c.17.67.44,1,.91,1a1.53,1.53,0,0,0,1.18-.69,2.83,2.83,0,0,0-.57-.15l-.39-.08a3.22,3.22,0,0,0-.74-.08h0Z"/><path d="M61.58,52.14l-.19,0c.08-.6-.64-.81-.67-.82l.05-.19A1,1,0,0,1,61.58,52.14Zm-44.38,0L17.05,52a.56.56,0,0,0,.14-.5c-.1-.22-.49-.29-.49-.29l0-.19a.88.88,0,0,1,.64.41A.7.7,0,0,1,17.2,52.09Zm32.47-.23a1,1,0,0,1,.2-1.38l.13.14a.82.82,0,0,0-.17,1.12ZM72,51.8a1,1,0,0,1,.35-1.3l.11.16s-.62.47-.29,1.05Zm-33,0-.18-.08a.53.53,0,0,0,0-.54c-.15-.26-.6-.33-.76-.34v-.2a1.25,1.25,0,0,1,.92.44A.74.74,0,0,1,39,51.78Zm-10.08-.12c-.36-.44,0-1.23,0-1.26s.06-.13.13-.13v.1l.07.06c-.06.1-.34.78-.07,1.11Zm9-1-.12-.15s1.29-1.1,1.92-.49c.43.42,2.23-.22,2.89-.5l.08.18c-.26.11-2.51,1-3.11.46S37.91,50.6,37.89,50.61Zm-21.14-.09-.12-.15c.06,0,1.43-1.17,2.21-.45a2.57,2.57,0,0,0,1,.19l0,.19a2.74,2.74,0,0,1-1.13-.2.05.05,0,0,1,0,0C18.07,49.45,16.77,50.51,16.75,50.52Zm-.51-.17-.11-.15a.7.7,0,0,0,.35-.52.58.58,0,0,0-.25-.38l.1-.17a.73.73,0,0,1,.34.54A.82.82,0,0,1,16.24,50.35ZM59.34,50l-.16-.12c.35-.45-.17-1-.19-1l.14-.13A1,1,0,0,1,59.34,50Zm-22.56-.31-.05-.18a.58.58,0,0,0,.4-.29.76.76,0,0,0-.06-.57l.17-.1a1,1,0,0,1,.07.75A.74.74,0,0,1,36.78,49.68Zm4.71-.54L41.4,49l2-1,.09.17ZM18.75,49h-.1a2.26,2.26,0,0,1-.87-.18,2.14,2.14,0,0,0-1-.17v-.19a2.23,2.23,0,0,1,1,.17,2.08,2.08,0,0,0,.82.17,6.66,6.66,0,0,0,2.08-.41l.85-.24.05.19-.84.24A7.34,7.34,0,0,1,18.75,49Zm28.79-.89a2.06,2.06,0,0,1-1.33-.64l.14-.14a1.78,1.78,0,0,0,1.32.58,1.41,1.41,0,0,0,1-.74,1,1,0,0,1-.65-.38l-.36-.32.12-.15a4.44,4.44,0,0,1,.37.33c.56.52.63.6,3.17-1.1a19.09,19.09,0,0,0-2.65-.4h0a.1.1,0,0,1,0-.12.09.09,0,0,1,.1-.06h0a2.62,2.62,0,0,0,2.39-1.89A7,7,0,0,1,49,42.78a.79.79,0,0,1-.15.52,3.71,3.71,0,0,1-1.29,1.09V44.3l0-.09c.08,0,1.07-.65,1.26-1.2a.37.37,0,0,0,0-.31h0a2.79,2.79,0,0,1-1.22-.91c-.55.74-2.28,1-3,1.13l-.22,0,0-.07-.08-.08s.05,0,.29-.08c.6-.1,2.43-.4,2.86-1.12l0-.06A3.15,3.15,0,0,1,47,39.68c-.22-.57-3.61-.67-3.92-.64a3.43,3.43,0,0,1-.76.8l-.11-.16a7.37,7.37,0,0,0,1.83-3,4.37,4.37,0,0,0-3.65-.87,6.71,6.71,0,0,1,.47,1.42,2.64,2.64,0,0,1-.55,2.56l-.13-.14c1.2-1.14.21-3.39,0-3.79a3.38,3.38,0,0,0-.61.25,1.68,1.68,0,0,0-1,1.67.1.1,0,0,1-.07.1.09.09,0,0,1-.11,0l0-.05,0,0a.56.56,0,0,1,0-.08,2.88,2.88,0,0,0-1.5-1.07c.08.74.33,3.79-.53,4.75l-.14-.13c.84-.94.55-4.2.48-4.67a3,3,0,0,0-.77-.06,2.91,2.91,0,0,0-.82.17c0,.41.07,2.41-.59,3.19s.17,2.47.18,2.49l-.18.08c0-.07-.88-1.81-.15-2.69.57-.69.56-2.48.55-3a1.41,1.41,0,0,0-.65.46c-.05.1-.11.12-.16.11-.12.17-.34.48-.55.72a.08.08,0,0,1-.06,0h-.14a1.35,1.35,0,0,0-.88.71.09.09,0,0,1-.09.06,1,1,0,0,1-.44-.12,2.08,2.08,0,0,1-.83.39,1.42,1.42,0,0,1,.06,1v0c-.18.32-.38.36-.51.33-.3-.07-.55-.55-.6-1a.7.7,0,0,1-.26-.36c-.17.44-.44,1-.76,1.69h0L28.4,42l0,0,0,0c-.37.74-.77,1.52-1.13,2.22-.45.89-.84,1.66-1.08,2.15v0c-.39.42-.73.56-1,.41a1.11,1.11,0,0,1-.43-.88.1.1,0,0,1,.1-.07V46h.09c0,.08.1.58.36.68s.52-.15.72-.37c.23-.48.6-1.2,1-2a1.24,1.24,0,0,1-1.08-.68l.17-.1s.44.76,1,.56c.32-.64.67-1.32,1-2a4.25,4.25,0,0,1-1.3-.35l.08-.18a3.2,3.2,0,0,0,1.32.33c.18-.35.35-.7.51-1A2.88,2.88,0,0,1,27,40.18a.08.08,0,0,1,0,0A2.17,2.17,0,0,1,27,38.43a1.87,1.87,0,0,1,.94-.81,2.36,2.36,0,0,1-.4-1.78A4.81,4.81,0,0,1,28,34.49a2.91,2.91,0,0,1,.22-.44h-1a.07.07,0,0,1-.06,0,.08.08,0,0,1-.05-.11,4.36,4.36,0,0,1,.58-1.1,4.66,4.66,0,0,1-4.2.18l.09-.17a4.55,4.55,0,0,0,4.29-.33A8.94,8.94,0,0,1,27.76,30a5.66,5.66,0,0,1-4.47-1l.13-.15a5.7,5.7,0,0,0,4.35.95c.05-.86.14-1.83.25-2.79-3.37-.07-3.76-1.23-3.78-1.28l.19-.06s.39,1.08,3.61,1.15c0-.27.07-.53.1-.79l0-.14h0c.05-.39.12-.87.21-1.41a3.75,3.75,0,0,1-3-1.36l.15-.13a3.59,3.59,0,0,0,2.86,1.29c.12-.72.27-1.51.45-2.31v0h0v0c-1.87-.15-2.38-1-2.4-1l.17-.09-.09.05.09-.05s.49.8,2.28.93h0a18.4,18.4,0,0,1,.69-2.34,2.92,2.92,0,0,1-2-.94l.14-.13a2.65,2.65,0,0,0,2,.86,6.82,6.82,0,0,1,.62-1.24h0l-.36-.7-.73,1.09a.08.08,0,0,1-.09,0,.1.1,0,0,1-.08-.05l-.46-.88-1.35,0v-.2l1.25,0-.39-.73a3.71,3.71,0,0,0-2.1.32l0,0h-.05l-.31.13a4.35,4.35,0,0,1-1.05.34H23.34l-1.53,0v-.19h.29c0-.05.06-.17.2-.5a.09.09,0,0,1,.09-.06h0a.1.1,0,0,1,.09.06l.19.49h.21l.21-.5a.08.08,0,0,1,.09-.06.09.09,0,0,1,.09.06l.16.49h.21l.19-.55a.1.1,0,0,1,.08-.07.12.12,0,0,1,.1.05l.29.55h.14l.2-.64a.08.08,0,0,1,.07-.07.1.1,0,0,1,.09,0l.4.47.05,0,.12-.67a.12.12,0,0,1,.07-.07.09.09,0,0,1,.1,0l.39.44h0l.19-.68a.11.11,0,0,1,.08-.07.09.09,0,0,1,.09.05l.33.46.06,0,.15-.54a.11.11,0,0,1,.09-.07.09.09,0,0,1,.09,0l.29.48a2.83,2.83,0,0,1,.65,0L27.32,15l.17-.09.72,1.39h0L29.13,18l.73-1.1a.09.09,0,0,1,.08,0A.11.11,0,0,1,30,17l.35.69L31,16.56a.07.07,0,0,1,.06,0,.06.06,0,0,1,.07,0l1,.63-.38-1.24a.1.1,0,0,1,0-.09.1.1,0,0,1,.07,0l.87-.06a1.4,1.4,0,0,0-1-.69.08.08,0,0,1-.08-.07.09.09,0,0,1,0-.1c.2-.16.76-.53,1-.69a1.68,1.68,0,0,0-1.08-.46s-.07,0-.08-.06a.11.11,0,0,1,0-.11,3.78,3.78,0,0,0,.5-.78h-.08c-.33-.06-.54-.13-.57-.13a.1.1,0,0,1-.06-.12.1.1,0,0,1,.12-.07l.49.11a3.68,3.68,0,0,0,2.47-.32l.1.17a3.61,3.61,0,0,1-2.27.39,4.56,4.56,0,0,1-.44.75,1.94,1.94,0,0,1,1.12.59.08.08,0,0,1,0,.08.1.1,0,0,1,0,.07s-.58.38-.91.62a1.58,1.58,0,0,1,1.05.88.14.14,0,0,1,0,.09.12.12,0,0,1-.08,0L32,16l.42,1.37a.11.11,0,0,1,0,.11.08.08,0,0,1-.11,0l-1.12-.71-.57,1a.07.07,0,0,1,0,.08,17.54,17.54,0,0,0,.48,6.6h0A16.08,16.08,0,0,0,32,27.11h0v0a4.11,4.11,0,0,0,.61,1c.11.13.16.13.16.13h0a6.85,6.85,0,0,1,2.26-1l0,.2c-1.91.24-6.3,3.57-7.54,5.93,1.68-1.58,6.72-4.57,9.26-4.73a.11.11,0,0,1,.09.05.09.09,0,0,1,0,.09,32.56,32.56,0,0,0-2.6,5.79c1-1.88,3.59-5.06,4.81-5.56a.26.26,0,0,1,.25-.06s.08.06.07.1a.09.09,0,0,1-.08.09l-.13,0c-.53.5-.89,4.22-.77,7a29.69,29.69,0,0,1,.85-3c.52-1.57,1.81-5.06,2.23-5.17a.08.08,0,0,1,.09,0A40.52,40.52,0,0,1,43,32.06c.33,1,1.05,3.19,1.23,4.15.28-1.59-.9-8.29-1.47-9.1a.09.09,0,0,1,0-.12.18.18,0,0,1,.15,0c.78,0,6,5.72,7.34,7.41a15.62,15.62,0,0,0-2-3.83,15.7,15.7,0,0,0-4-4.34.08.08,0,0,1,0-.07.11.11,0,0,1,0-.08c.07-.07.2-.2,2.12.46,1.11.38,2.58,1,4.13,1.6a52.24,52.24,0,0,1,6.45,3.1,30.4,30.4,0,0,0-4.63-3.43c-2.46-1.58-5.49-3.32-6.73-3.61a.1.1,0,0,1-.07-.1.09.09,0,0,1,.07-.09c3.16-.69,13.27.74,17.4,1.62-2.34-1.61-12.09-3.27-17-3.1a.09.09,0,0,1-.09-.06.09.09,0,0,1,0-.1c.73-.86,11.84-3.61,21.25-5.81-3.84.47-16.44,2.61-20,3.68a.1.1,0,0,1-.1,0A.09.09,0,0,1,47,20c.35-.59,21.43-10.45,23.83-11.57l.08.18C65,11.39,50.55,18.22,47.66,19.83c4.75-1.25,20.16-3.84,20.62-3.58a.1.1,0,0,1,0,.1.11.11,0,0,1-.07.08l-.65.16c-16,3.73-20.36,5.15-21.37,5.68a54,54,0,0,1,9.67,1c1.88.34,6.37,1.28,7.48,2.43a.1.1,0,0,1,0,.12.1.1,0,0,1-.1,0C59.62,25,49.63,23.56,46,24.08a39.88,39.88,0,0,1,6.4,3.52,38.21,38.21,0,0,1,4.53,3.33,2.24,2.24,0,0,1,.51-2.48l.13.15c-.06,0-1.32,1.16-.08,3a.12.12,0,0,1,0,.1.11.11,0,0,1-.09.05h0a11.09,11.09,0,0,0-1.44.06,3.79,3.79,0,0,0,.57,1.71,5.72,5.72,0,0,0,4.25,2.36h0c1,.28,2,.49,2.78.67,3.71.81,5.57,1.22,5.84,6.4h0c-.18,2-.41,3.84-1.25,4.27A1.14,1.14,0,0,1,67,47.06l.1-.16a.93.93,0,0,0,.94.13c.43-.21.68-.9.85-1.72a.81.81,0,0,1-.43.2,1.24,1.24,0,0,1-.86-.26l.13-.15a1,1,0,0,0,.7.22.8.8,0,0,0,.53-.4c.1-.65.17-1.37.22-2v-.06a1.55,1.55,0,0,1-1.42.56l0-.19a1.31,1.31,0,0,0,1.37-.71,13.37,13.37,0,0,0-.24-1.8c-.46.56-1.41.33-1.45.32l0-.19s1,.25,1.35-.39a4.16,4.16,0,0,0-1.29-2.28,7.46,7.46,0,0,1-1.14,1.75l-.09-.17a7.55,7.55,0,0,0,1.07-1.71,6,6,0,0,0-2-.88,3.66,3.66,0,0,1-.73,2.34l-.13-.14a3.64,3.64,0,0,0,.67-2.25c-.53-.14-1.11-.27-1.76-.41l-.41-.09a3.63,3.63,0,0,1-1.24,2.48L61.75,39a3.51,3.51,0,0,0,1.18-2.38c-.67-.14-1.4-.32-2.19-.53L60.22,36c.22.83-1.49,2.68-1.51,2.7l-.14-.14.07.07-.07-.07c.29-.31,1.8-2.1,1.41-2.61h0a7,7,0,0,1-1.92-.72,2.8,2.8,0,0,1-2.31,2.23l0-.2a2.56,2.56,0,0,0,2.16-2.13,4.24,4.24,0,0,1-2.12-3.28c-3.11.37-4.94,1.91-5.13,3.1h0s.77,1.36,1.65,1.28c1.31-.38,1.81.41,1.83.45l-.16.1s-.45-.7-1.62-.36h0a1.59,1.59,0,0,1-1.21-.56,3.53,3.53,0,0,1-2.92.93c0,.07-1.66,2.92-.64,4.7.55,1,1.79,1.46,3.69,1.46h0c.88.08,1.37.32,1.5.71.23.65-.65,1.48-1.07,1.87a1.56,1.56,0,0,1-.13.13.05.05,0,0,1,0,0v0a10.61,10.61,0,0,1-2.61,1.5,1.69,1.69,0,0,1-1.21,1Zm1.87-3.07a10.8,10.8,0,0,1,2.05.37l.09-.08c.36-.34,1.2-1.13,1-1.67-.1-.3-.53-.49-1.26-.57A2.71,2.71,0,0,1,49.65,45Zm-22.26-5a2.75,2.75,0,0,0,1.69.62c.36-.74.65-1.39.8-1.81h0a2,2,0,0,1,0-.26,3.11,3.11,0,0,1-1.53-.83,1.66,1.66,0,0,0-.9.75A1.92,1.92,0,0,0,27.15,40.05Zm3-2.09A.27.27,0,0,0,30,38c-.15.07-.17.33-.16.53,0,.69.28.86.29.87a.16.16,0,0,1,.06.08c0,.38.25.79.45.83s.22-.11.29-.23a1,1,0,0,0-.09-.9.34.34,0,0,1-.16-.07.53.53,0,0,1-.09-.63.94.94,0,0,1,.14-.26A1.32,1.32,0,0,0,30.11,38Zm13.13.88c.68,0,3.14.06,3.82.58a6.44,6.44,0,0,1,.23-1.05A9.39,9.39,0,0,1,48,36.72a4.57,4.57,0,0,1-.83-.24,3.88,3.88,0,0,1-.82,1,4.1,4.1,0,0,1-2.95,1.13A1.64,1.64,0,0,1,43.24,38.84Zm-11.77-.9a.89.89,0,0,0-.71.6c-.07.18-.06.34,0,.41s.27.14.93-.3a.87.87,0,0,1-.24-.52C31.48,38.07,31.47,38,31.47,37.94Zm.44.63a.73.73,0,0,0,.35.13A1.42,1.42,0,0,1,33,38a1,1,0,0,1-.41-.7s0,0,0-.07a.53.53,0,0,1-.19.06.61.61,0,0,1-.47-.2h0a1.47,1.47,0,0,0-.22,1,.73.73,0,0,0,.2.39h0Zm11.58-.13a4.09,4.09,0,0,0,2.71-1.09,3,3,0,0,0,1.09-2.26,3,3,0,0,0-1.86.95,2.86,2.86,0,0,1-1.18.75A11.76,11.76,0,0,1,43.49,38.44ZM28.43,34.05A4,4,0,0,0,27.84,37a2.37,2.37,0,0,0,1.79,1.44.64.64,0,0,1,.27-.6c.32-.16.78.14.94.25a.94.94,0,0,1,.64-.32c0-.38.2-.77.38-.82a.16.16,0,0,1,.19.07.38.38,0,0,0,.3.13.28.28,0,0,0,.2-.11h0a.79.79,0,0,1,.52-.79h0a1.61,1.61,0,0,0,.67-.2.9.9,0,0,1,0-.31c0-.31,0-.68,0-1.13a8.55,8.55,0,0,0-2.56,2,.11.11,0,0,1-.11,0,.11.11,0,0,1-.06-.09c0-.66,0-1.62,0-2.26,0-.16,0-.31,0-.43A14.48,14.48,0,0,1,28.43,34.05Zm4.67,2.38c-.29.08-.4.5-.34.87s.25.65.61.64a8.85,8.85,0,0,0,.54-.72,4.71,4.71,0,0,1-.1-1A1.69,1.69,0,0,1,33.1,36.43ZM36,36.35a3,3,0,0,1,2.23,1,1.77,1.77,0,0,1,0-.22c-.22-2.45,0-6.46.57-7.71a19.22,19.22,0,0,0-4.52,5.51c-.11.22-.19.4-.25.55s0,.42-.07.63a8.28,8.28,0,0,0,.06,1,2.62,2.62,0,0,1,1.78-.74Zm2.43.77v0A2.08,2.08,0,0,1,39.53,36a4.33,4.33,0,0,1,4.59.54,62.75,62.75,0,0,0-2.64-8.15,36.74,36.74,0,0,0-2.87,7.92A7.56,7.56,0,0,0,38.47,37.12Zm8.76-.82A3.51,3.51,0,0,0,51,35.68a4.45,4.45,0,0,1-.48-.66,13.41,13.41,0,0,0-3,0A2.72,2.72,0,0,1,47.23,36.3Zm-4.17-9.13c.63,1.38,1.72,7.71,1.39,9.16a.86.86,0,0,1-.07.21,2.78,2.78,0,0,0,.91-.64c.65-.63,1.39-1.33,5.12-1.08l0,0C49.58,33.53,44.09,27.72,43.06,27.17ZM31.2,33.59l.06,0a.12.12,0,0,1,0,.08v.54c0,.56,0,1.36,0,2a9.36,9.36,0,0,1,2.59-1.88.12.12,0,0,1,.1,0,.13.13,0,0,1,0,.09c0,.12,0,.24,0,.37a29.33,29.33,0,0,1,2.58-5.87c-2.65.29-7.93,3.51-9.21,4.91a17.74,17.74,0,0,0,3.79-.26Zm13.38-7.41c2.43,1.66,5.7,6.69,6,8.36.5-1.33,2.69-3,6.53-3a44.68,44.68,0,0,0-6.57-3.22A40.42,40.42,0,0,0,44.58,26.18Zm-16.66,5A6,6,0,0,0,28,32.36c.2-.25.42-.5.65-.76a1,1,0,0,1-.32-.69Zm.6-.39c0,.19.08.59.27.66l.53-.53L29,30.46ZM28,29.19c0,.66-.07,1.26-.08,1.75.23-.14.68-.43,1.2-.81a2.68,2.68,0,0,1-.6-1.14l-.48.19Zm1.16,1.16s.16.24.3.44c.29-.27.58-.53.88-.78l-.24-.39c-.33.27-.66.53-1,.75Zm-.06,0h0Zm-.41-1.49c.14.43.39,1,.58,1.09h0c.22-.17.46-.35.68-.54-.13-.39-.3-.89-.38-1.11A5.28,5.28,0,0,1,28.69,28.9Zm1.56.59.25.39c.31-.25.63-.5.95-.73l-.37-.46A9,9,0,0,1,30.25,29.49Zm-.48-1.27c.07.19.26.73.38,1.09a8.08,8.08,0,0,0,.89-.86l-.5-1A5.51,5.51,0,0,1,29.77,28.22Zm1.45.33.39.48c.32-.23.65-.45,1-.64l-.13-.12a4.42,4.42,0,0,1-.53-.85A3.59,3.59,0,0,1,31.22,28.55Zm-3.14-.27c0,.24,0,.47-.06.7l.41-.17Zm0-.31.5.76a5.27,5.27,0,0,0,.88-.53,3.23,3.23,0,0,1-.44-1.07c-.23.18-.44.32-.6.43a1.52,1.52,0,0,1-.32.16A2.11,2.11,0,0,0,28.11,28Zm2.57-.68.5,1a2.61,2.61,0,0,0,.61-1.14c-.14-.3-.28-.65-.42-1A5.82,5.82,0,0,1,30.68,27.29ZM29.21,27a3.2,3.2,0,0,0,.43,1.08,5,5,0,0,0,.95-1,2.63,2.63,0,0,1-.67-.72h0c-.24.24-.48.46-.71.65Zm-.87-1v0q-.09.78-.18,1.5a6.68,6.68,0,0,0,1-.69,4.39,4.39,0,0,1-.3-1.13A2,2,0,0,1,28.34,26Zm2.35.94h0l0,0a5.35,5.35,0,0,0,.58-1.12c-.11-.31-.21-.64-.31-1a3.57,3.57,0,0,1-.65,1.09V26h0l-.22.24,0,0c.46.62.59.67.62.67ZM29,25.54a4.76,4.76,0,0,0,.28,1.14,7.06,7.06,0,0,0,.87-.86l-.25-.45c-.14-.24-.21-.39-.26-.48A6.59,6.59,0,0,1,29,25.54Zm-.47-.77c-.06.36-.11.69-.15,1a3.47,3.47,0,0,0,.61-.46Zm1.25,0c.06.13.34.66.5.93a2.3,2.3,0,0,0,.58-1.23c-.08-.32-.16-.65-.22-1A6.47,6.47,0,0,1,29.77,24.73Zm-1.22-.2a6.38,6.38,0,0,1,.57.62,7,7,0,0,0,.71-.8c-.17-.28-.41-.69-.49-.8-.35.32-.64.53-.72.6S28.58,24.4,28.55,24.53Zm1.21.21h0Zm-.27-1.33.46.77a4.24,4.24,0,0,0,.61-1.1q-.07-.36-.12-.72A9.13,9.13,0,0,1,29.49,23.41ZM29,22.18c-.12.58-.24,1.15-.33,1.68a10,10,0,0,0,1-.95,2.14,2.14,0,0,1-.15-.86.61.61,0,0,1-.51.15Zm.75-.27a3.61,3.61,0,0,0,.1.85,7.57,7.57,0,0,0,.55-.67h0c0-.24-.06-.49-.08-.73A3.71,3.71,0,0,1,29.75,21.91Zm-.69,0s0,.08.05.09a.69.69,0,0,0,.43-.19l-.34-.49C29.15,21.54,29.11,21.73,29.06,21.93Zm.21-.84.42.62a3.58,3.58,0,0,0,.61-.62,16.2,16.2,0,0,1,0-2.87A12.45,12.45,0,0,0,29.27,21.09Zm-6.88-4.16-.08.2h.15Zm.78,0-.08.19h.14Zm.77-.1-.09.28h.24Zm.83-.15-.12.39A1.92,1.92,0,0,0,25,17Zm.76-.25-.07.36.06,0,.22-.09Zm.74-.27-.1.34.27-.09ZM27,16l-.07.25.2,0ZM32,12.8h0ZM16.82,48.07h-.21l0-.2c.33,0,.56,0,.66-.15a.5.5,0,0,0,0-.46l.19-.07a.77.77,0,0,1-.06.65A.74.74,0,0,1,16.82,48.07Zm43.1-.6-.11-.17c.29-.2.44-.39.43-.56s-.26-.32-.26-.32l.08-.17a.65.65,0,0,1,.37.48C60.45,47,60.28,47.22,59.92,47.47ZM38.37,47l0-.19a.47.47,0,0,0,.37-.21.78.78,0,0,0-.06-.6l.18-.08a1,1,0,0,1,.05.77A.64.64,0,0,1,38.37,47ZM25.81,40.36a3.77,3.77,0,0,1-2.21-3.58c-4.67-.38-7-3.11-7.36-4.75-.15-.65,0-1.14.37-1.36l.1.17c-.3.17-.41.59-.28,1.15a4,4,0,0,0,.77,1.52,3,3,0,0,0,.71-.95l.18.08a3.15,3.15,0,0,1-.77,1,7.07,7.07,0,0,0,1.86,1.57,12.15,12.15,0,0,1,.63-1.42l.17.09a11,11,0,0,0-.62,1.44,9.52,9.52,0,0,0,2.37.93,3.5,3.5,0,0,0-.12-1.89l.19-.06a3.88,3.88,0,0,1,.13,2,12.37,12.37,0,0,0,1.61.25c-1.09-1.61-.94-2.43-.93-2.47l.19,0s-.14.84,1,2.46a.07.07,0,0,1,0,.07,3.54,3.54,0,0,0,2.07,3.5ZM65.27,34.6A9.71,9.71,0,0,1,63.6,33c-1.12-1.22-2.52-2.74-3.55-2.62l0-.19c1.13-.13,2.5,1.36,3.71,2.68a9.63,9.63,0,0,0,1.63,1.56Zm-53.84-.74-.19,0c.12-.58-.65-.81-.68-.82l0-.19C11,32.91,11.56,33.26,11.43,33.86Zm61.38-6.27-.18-.07c.59-1.42.15-2.14,0-2.34a3.11,3.11,0,0,1-2.7,1c-.82-.08-1.34-.49-1.43-1.11A1.22,1.22,0,0,1,69.29,24a3,3,0,0,1,3.36,1l0,0h0S73.57,25.77,72.81,27.59ZM70.27,24a2,2,0,0,0-.89.2c-.45.21-.74.58-.7.87.09.72.82.9,1.25.95A2.8,2.8,0,0,0,72.47,25,3.24,3.24,0,0,0,70.27,24ZM40.34,26.39v-.2a1.84,1.84,0,0,0,1-.58,10.06,10.06,0,0,0,2.28-4c1.14-4.3,7.53-8.84,11.76-11.85,1.76-1.25,3.28-2.33,3.36-2.71l.19,0C58.85,7.56,57.7,8.4,55.5,10c-3.2,2.27-7.64,5.43-10.08,8.67,1.92-1,6-2.57,9.94-4.11,1.79-.69,3.49-1.35,5-2l.08.18c-1.51.61-3.2,1.27-5,2C51.26,16.33,46.94,18,45.2,19v0a8.66,8.66,0,0,0-1.38,2.75C42.12,26.31,40.41,26.39,40.34,26.39Zm-25,0c-1.08-.57-.25-2.83-.22-2.92l.19.07s-.81,2.19.12,2.67ZM75.84,24a4.59,4.59,0,0,0-1.56-1.65l-.16-.11.12-.15.15.1A4.67,4.67,0,0,1,76,23.94Zm-58.91-.5-.11,0c-.4-.08-.64-.59-.65-.61l.18-.09s.21.45.51.51a.39.39,0,0,0,.37-.13l.13.15A.69.69,0,0,1,16.93,23.54Zm-5.78-.92a.78.78,0,0,1-.27-.05l.09-.18s.48.21,1-.52l.16.11A1.14,1.14,0,0,1,11.15,22.62Zm3.09-1.37a.33.33,0,0,1-.15,0,.28.28,0,0,1-.15-.24h.2a.06.06,0,0,0,0,.06s.25.06.91-.43l.12.16A2,2,0,0,1,14.24,21.25Zm63.09-1.32-.17-.1a17.05,17.05,0,0,0,.56-3.34l.19,0A16.1,16.1,0,0,1,77.33,19.93Zm-1.91-.08-.18-.06c.31-.86,1.14-3.08,1.17-3.16l.08,0h.11S76.6,16.69,75.42,19.85ZM15.26,17l-.7-1.13a.1.1,0,0,1,0-.09.12.12,0,0,1,.06-.06l.63-.21.06.18-.51.18.63,1ZM22,14.84a.74.74,0,0,1-.32-.05l.07-.18,0,.09,0-.09s.93.31,2.81-1.18l.12.16A4.59,4.59,0,0,1,22,14.84ZM20.9,13.66l-.07-.18c.37-.15.71-.37.71-.46v0a6.84,6.84,0,0,1,.2-.85l.19,0a5.06,5.06,0,0,0-.19.82C21.72,13.31,21.1,13.58,20.9,13.66Zm1.66-.27-.11-.16s.49-.34.47-.76a3.43,3.43,0,0,0-.68-1.27l.15-.13a3.53,3.53,0,0,1,.72,1.39A1.22,1.22,0,0,1,22.56,13.39ZM33.17,12c-.1,0-1,0-1.27-.39a.37.37,0,0,1-.08-.3c.1-.63,1.33-1.06,1.48-1.11s.7-.46,1.11-.76a1.1,1.1,0,0,0-.86.24l-.13-.14a1.28,1.28,0,0,1,1.2-.25,3.73,3.73,0,0,0,.67-.58l.16.11a13.77,13.77,0,0,1-2.06,1.55s0,0,0,0c-.35.12-1.29.52-1.36,1a.19.19,0,0,0,0,.15c.19.23.88.31,1.13.32Zm-5-.12h0s-1.06-.28-1.83-.44a4.49,4.49,0,0,0-1.81.13l0-.19a4.8,4.8,0,0,1,1.9-.13c.72.15,1.67.4,1.82.44a5.73,5.73,0,0,0,1.6-.44l.12.16a5.4,5.4,0,0,1-1.71.47Zm2.54-1.09-.15-.13a2,2,0,0,0,.44-1,.08.08,0,0,0,0,.05l.14-.14C31.25,9.7,31,10.43,30.69,10.79Z"/><path d="M25.64,11.3l1.31.24S26,12.77,25.64,11.3Z"/><path d="M26.22,12.12h-.09c-.26,0-.46-.31-.58-.79a.1.1,0,0,1,0-.09.14.14,0,0,1,.09,0l1.3.24a.11.11,0,0,1,.08.07.1.1,0,0,1,0,.09S26.63,12.12,26.22,12.12Zm-.44-.7c.08.23.2.46.39.5s.44-.16.59-.31Z"/></g></svg>