<?xml version="1.0" encoding="utf-8"?>
<!-- Generator: Adobe Illustrator 19.2.1, SVG Export Plug-In . SVG Version: 6.00 Build 0)  -->
<!DOCTYPE svg PUBLIC "-//W3C//DTD SVG 1.1//EN" "http://www.w3.org/Graphics/SVG/1.1/DTD/svg11.dtd">
<svg version="1.1" id="Calque_1" xmlns="http://www.w3.org/2000/svg" xmlns:xlink="http://www.w3.org/1999/xlink" x="0px" y="0px"
	 viewBox="0 0 754 754" style="enable-background:new 0 0 754 754;" xml:space="preserve">
<style type="text/css">
	.st0{fill-rule:evenodd;clip-rule:evenodd;fill:#FFFFFF;}
	.st1{fill-rule:evenodd;clip-rule:evenodd;fill:#3E3D40;}
	.st2{fill-rule:evenodd;clip-rule:evenodd;fill:#DA4843;}
	.st3{fill-rule:evenodd;clip-rule:evenodd;fill:#2D7FBC;}
</style>
<g>
	<path class="st0" d="M630.6,620.8c-67.1,69.7-155.9,106-245.6,108.5c-1-11.9,21.9-29.5,21.9-29.5c-67,0.9-81.2-2.2-81.2-2.2
		c19.5,17,24.7,26.9,26.2,31.1c-80.7-5.3-160-37.9-222.7-98.3C19.9,525.1-7.2,366.9,49.1,235.2c-0.8,2.4-1.3,3.9-1.3,3.9
		c31.2-76.9,82.1-70.6,82.1-70.6c1.4-9.7,26.4-53.4,26.4-53.4c-41.7,30.1-65.5,52.4-76.4,63.5c11.6-17.4,24.8-34.1,39.9-49.7
		c135.9-141.1,360.4-145.4,501.5-9.6c22.4,21.6,41.4,45.5,56.9,70.9c-11.6-12.5-45-46.9-82.6-70.5c0,0,20.6,40.3,23.9,56.3
		c0,0,46.7-7.8,83.9,64.3C754.9,366.2,731.1,516.3,630.6,620.8z"/>
	<path class="st1" d="M635.2,104.8C486-38.9,248.6-34.3,104.9,114.9c-143.7,149.2-139.3,386.6,9.9,530.3
		C264,788.8,501.4,784.2,645.1,635C788.7,485.8,784.3,248.4,635.2,104.8z M630.6,620.8c-67.1,69.7-155.9,106-245.6,108.5
		c-1-11.9,21.9-29.5,21.9-29.5c-67,0.9-81.2-2.2-81.2-2.2c19.5,17,24.7,26.9,26.2,31.1c-80.7-5.3-160-37.9-222.7-98.3
		C19.9,525.1-7.2,366.9,49.1,235.2c-0.8,2.4-1.3,3.9-1.3,3.9c31.2-76.9,82.1-70.6,82.1-70.6c1.4-9.7,26.4-53.4,26.4-53.4
		c-41.7,30.1-65.5,52.4-76.4,63.5c11.6-17.4,24.8-34.1,39.9-49.7c135.9-141.1,360.4-145.4,501.5-9.6c22.4,21.6,41.4,45.5,56.9,70.9
		c-11.6-12.5-45-46.9-82.6-70.5c0,0,20.6,40.3,23.9,56.3c0,0,46.7-7.8,83.9,64.3C754.9,366.2,731.1,516.3,630.6,620.8z"/>
	<path class="st1" d="M716,479.3c0,0-9.6,36.1-32,74.4c0,0-13.5-10.4-96.2,30.3c0,0,20.3-49.2,25.1-72.2
		C612.9,511.8,671.1,561.1,716,479.3L716,479.3z"/>
	<path class="st1" d="M574,591.4c0,0-84.8,43.7-158.3,101.3c0,0-6.7-2.3-41.5-35.1c0,0,118.7-2.3,156.7-105.1
		C530.9,552.5,536.6,560.2,574,591.4L574,591.4z"/>
	<path class="st2" d="M603.9,503.1c0,0-30.7,15-68.8,35.5c0,0,36.4-94.3-56.8-171.4c0,0,60.6-33.6,68.8-35.5
		C547.1,331.7,542.5,433.4,603.9,503.1L603.9,503.1z"/>
	<path class="st3" d="M254.8,364.5c0,0-86.7,51.9-59.5,169.3c0,0-36.9-17.1-63.5-38.2c0,0,52.9-50.2,58.1-168.9
		C189.8,326.7,245,358.2,254.8,364.5L254.8,364.5z"/>
	<path class="st1" d="M146.6,575.9c0,0-21.1-50-25.1-71.5c0,0-48.1,44.8-87.4-32.5c0,0-0.4,22.5,25.9,71.8
		C60,543.7,54,523.9,146.6,575.9L146.6,575.9z"/>
	<path class="st3" d="M466.1,273.5c0,0-2.5,59.8-2.8,83.6c0,0-88.3-60.6-191.6-4.3c0,0,1.2-53.3,2.8-80
		C274.5,272.8,366.2,323.7,466.1,273.5L466.1,273.5z"/>
	<path class="st1" d="M257.8,264.5c0,0-41.4,21.7-68.7,43.4c0,0,9.3-97.7-50.1-135.9c0,0,40.8-30.7,65.4-42.3
		C204.5,129.8,168.2,207.2,257.8,264.5L257.8,264.5z"/>
	<path class="st1" d="M609.8,181.5c0,0-27.4-23.2-66.4-46.3c0,0,30.7,72.7-61.3,130.1c0,0,31,19.2,64.6,45.9
		C546.7,311.2,552.4,199.3,609.8,181.5L609.8,181.5z"/>
	<path class="st2" d="M581.1,110.4c0,0-31,5.5-42.7,10.5c0,0-30.4-71.5-146.3-83.3c0,0,23.9-10.2,38.5-10.3
		C430.7,27.4,502.3,54.6,581.1,110.4L581.1,110.4z"/>
	<path class="st3" d="M366.8,38.3c0,0-97.2-7.7-155,76.9c0,0-27.2-8.5-39.1-10.4c0,0,106.2-68.1,159.7-79.6
		C332.5,25.2,347.7,27.7,366.8,38.3L366.8,38.3z"/>
	<path class="st3" d="M385,730.3c-1-11.9,21.9-29.5,21.9-29.5c-67,0.9-81.2-2.2-81.2-2.2c19.5,17,24.7,26.9,26.2,31.1
		C362.9,730.4,373.9,730.6,385,730.3L385,730.3z"/>
	<path class="st3" d="M595.6,120.7c0,0,20.6,40.3,23.9,56.3c0,0,46.7-7.8,83.9,64.3c-7-17.2-15.4-33.9-25.2-50
		C666.6,178.8,633.1,144.3,595.6,120.7L595.6,120.7z"/>
	<path class="st2" d="M129.9,169.5c1.4-9.7,26.4-53.4,26.4-53.4c-41.7,30.1-65.5,52.4-76.4,63.5c-12.1,18.1-22.3,37.1-30.7,56.7
		c-0.8,2.4-1.3,3.9-1.3,3.9C79,163.3,129.9,169.5,129.9,169.5L129.9,169.5z"/>
	<path class="st2" d="M317.4,692.2c0,0-67.7-49.9-155.8-104.8l-2.7-1.7l42.8-38.5c0,0,3.6,9.4,8.9,18.8
		c30,52.7,80.9,86.6,143.2,90.5l5.9,0.4L317.4,692.2L317.4,692.2z"/>
</g>
</svg>
