<?xml version="1.0" encoding="utf-8"?>
<!-- Generator: Adobe Illustrator 19.2.1, SVG Export Plug-In . SVG Version: 6.00 Build 0)  -->
<!DOCTYPE svg PUBLIC "-//W3C//DTD SVG 1.1//EN" "http://www.w3.org/Graphics/SVG/1.1/DTD/svg11.dtd">
<svg version="1.1" id="Calque_1" xmlns="http://www.w3.org/2000/svg" xmlns:xlink="http://www.w3.org/1999/xlink" x="0px" y="0px"
	 viewBox="0 0 754 754" style="enable-background:new 0 0 754 754;" xml:space="preserve">
<style type="text/css">
	.st0{fill:#4D4D4D;}
	.st1{clip-path:url(#SVGID_2_);fill:#85AAD5;}
	.st2{clip-path:url(#SVGID_4_);}
	.st3{clip-path:url(#SVGID_6_);fill:#B8CDE6;}
	.st4{clip-path:url(#SVGID_4_);fill:#E7ECF5;}
</style>
<g>
	<path class="st0" d="M750,375c0,31.7-46.1,56.8-53.9,86c-8.1,30.2,19,75,3.7,101.5c-15.5,26.8-68,25.7-89.8,47.4
		c-21.8,21.8-20.6,74.3-47.4,89.8c-26.5,15.3-71.3-11.8-101.5-3.7c-29.2,7.8-54.4,53.9-86,53.9c-31.7,0-56.8-46.1-86-53.9
		c-30.2-8.1-75,19-101.5,3.7c-26.8-15.5-25.7-68-47.4-89.8c-21.8-21.8-74.3-20.6-89.8-47.4C34.9,536.1,62,491.3,53.9,461
		C46.1,431.8,0,406.6,0,375c0-31.7,46.1-56.8,53.9-86c8.1-30.2-19-75-3.7-101.5c15.5-26.9,68-25.7,89.8-47.5s20.6-74.3,47.4-89.8
		C213.9,34.9,258.7,62,289,53.9C318.2,46.1,343.4,0,375,0c31.7,0,56.8,46.1,86,53.9c30.2,8.1,75-19,101.5-3.7
		c26.8,15.5,25.7,68,47.4,89.8c21.8,21.8,74.3,20.6,89.8,47.4c15.3,26.5-11.8,71.3-3.7,101.5C703.9,318.2,750,343.3,750,375z"/>
	<g>
		<g>
			<defs>
				<path id="SVGID_1_" d="M637.2,375c0,144.8-117.4,262.2-262.2,262.2S112.8,519.8,112.8,375S230.2,112.8,375,112.8
					S637.2,230.2,637.2,375z"/>
			</defs>
			<clipPath id="SVGID_2_">
				<use xlink:href="#SVGID_1_"  style="overflow:visible;"/>
			</clipPath>
			<path class="st1" d="M759.1,375c0,32.2-52.2,57.1-60.1,86.8c-8.2,30.7,24.3,78.4,8.7,105.3c-15.8,27.3-73.4,22.9-95.6,45
				c-22.2,22.2-17.7,79.8-45,95.6c-26.9,15.6-74.5-16.9-105.3-8.7c-29.7,7.9-54.6,60.1-86.8,60.1s-57.1-52.2-86.8-60.1
				c-30.7-8.2-78.4,24.3-105.3,8.7c-27.3-15.8-22.9-73.4-45-95.6c-22.2-22.2-79.8-17.7-95.6-45c-15.6-26.9,16.9-74.5,8.7-105.3
				C43.1,432.1-9.1,407.2-9.1,375s52.2-57.1,60.1-86.8c8.2-30.7-24.3-78.4-8.7-105.3c15.8-27.3,73.4-22.9,95.6-45
				c22.2-22.2,17.7-79.8,45-95.6c26.9-15.6,74.5,16.9,105.3,8.7c29.7-7.9,54.6-60.1,86.8-60.1s57.1,52.2,86.8,60.1
				c30.7,8.2,78.4-24.3,105.3-8.7c27.3,15.8,22.9,73.4,45,95.6c22.2,22.2,79.8,17.7,95.6,45c15.6,26.9-16.9,74.5-8.7,105.3
				C707,317.9,759.1,342.8,759.1,375z"/>
		</g>
		<g>
			<defs>
				<path id="SVGID_3_" d="M637.2,375c0,144.8-117.4,262.2-262.2,262.2S112.8,519.8,112.8,375S230.2,112.8,375,112.8
					S637.2,230.2,637.2,375z"/>
			</defs>
			<clipPath id="SVGID_4_">
				<use xlink:href="#SVGID_3_"  style="overflow:visible;"/>
			</clipPath>
			<g class="st2">
				<g>
					<defs>
						<polygon id="SVGID_5_" points="-64.9,786.1 -64.9,454.3 277.4,454.3 472.6,324.5 771.6,324.5 771.6,786.1 						"/>
					</defs>
					<clipPath id="SVGID_6_">
						<use xlink:href="#SVGID_5_"  style="overflow:visible;"/>
					</clipPath>
					<path class="st3" d="M759.1,375c0,32.2-52.2,57.1-60.1,86.8c-8.2,30.7,24.3,78.4,8.7,105.3c-15.8,27.3-73.4,22.9-95.6,45
						c-22.2,22.2-17.7,79.8-45,95.6c-26.9,15.6-74.5-16.9-105.3-8.7c-29.7,7.9-54.6,60.1-86.8,60.1s-57.1-52.2-86.8-60.1
						c-30.7-8.2-78.4,24.3-105.3,8.7c-27.3-15.8-22.9-73.4-45-95.6c-22.2-22.2-79.8-17.7-95.6-45c-15.6-26.9,16.9-74.5,8.7-105.3
						C43.1,432.1-9.1,407.2-9.1,375s52.2-57.1,60.1-86.8c8.2-30.7-24.3-78.4-8.7-105.3c15.8-27.3,73.4-22.9,95.6-45
						c22.2-22.2,17.7-79.8,45-95.6c26.9-15.6,74.5,16.9,105.3,8.7c29.7-7.9,54.6-60.1,86.8-60.1s57.1,52.2,86.8,60.1
						c30.7,8.2,78.4-24.3,105.3-8.7c27.3,15.8,22.9,73.4,45,95.6c22.2,22.2,79.8,17.7,95.6,45c15.6,26.9-16.9,74.5-8.7,105.3
						C707,317.9,759.1,342.8,759.1,375z"/>
				</g>
			</g>
			<path class="st4" d="M375,655.5C220.3,655.5,94.5,529.7,94.5,375S220.3,94.5,375,94.5S655.5,220.3,655.5,375
				S529.7,655.5,375,655.5z M375,131.1c-134.5,0-243.9,109.4-243.9,243.9S240.5,618.9,375,618.9S618.9,509.5,618.9,375
				S509.5,131.1,375,131.1z"/>
		</g>
	</g>
</g>
</svg>
