<svg xmlns="http://www.w3.org/2000/svg" viewBox="0 0 528.55 525.52"><defs><style>.cls-1,.cls-10{fill:#b6a97f;}.cls-1,.cls-11,.cls-12,.cls-14,.cls-15,.cls-16,.cls-19,.cls-2,.cls-20,.cls-21,.cls-4,.cls-5,.cls-6,.cls-7,.cls-8,.cls-9{fill-rule:evenodd;}.cls-2,.cls-3{fill:#efe8df;}.cls-4{fill:#8c1b1c;}.cls-5{fill:#3576b1;}.cls-6{fill:#db4944;}.cls-19,.cls-7{fill:#fff;}.cls-8{fill:#f6d042;}.cls-9{fill:#2968a9;}.cls-11,.cls-21,.cls-22,.cls-23{fill:none;stroke-miterlimit:10;}.cls-11{stroke:#5ab33d;}.cls-12{fill:#e3e2e2;}.cls-13,.cls-15{fill:#363638;}.cls-14{fill:#c74338;}.cls-16{fill:#757575;}.cls-17{fill:#80cede;}.cls-18{fill:#daa579;}.cls-19{opacity:0.9;}.cls-20{fill:#c65044;}.cls-21,.cls-22,.cls-23{stroke:#363638;stroke-width:1.3px;}.cls-23{stroke-linecap:round;}</style></defs><title>footix-2018</title><g id="Color"><path class="cls-1" d="M183.79,359.43c10.84-1,19.84.56,27.27,3.67a4.94,4.94,0,0,1,.26-.89c.73-3,.36-7.71-.56-12.25,1.19-.72,7-3.25,10.05-3.32-.43-5.66-.9-26.58-3.56-34.18-3.24-2.62-7.2-6.19-11.42-10.39v.21c-1.53,3.63-4.88,8.7-9.38,14.53-6,11.82-10.17,26.57-12.68,41.62h0A8.34,8.34,0,0,0,183.79,359.43Z"/><path class="cls-2" d="M180.78,396.55c0,2.37.11,4.68.23,6.92-.12-2.23-.19-4.55-.22-6.93Z"/><path class="cls-2" d="M213.39,413.57h0c.12,3.39-.31,6.25-1.29,7.76-3.4-7-16.79-19.62-30.94-17.73l-.15-.11c.51,9.49,1.8,17.66,3.81,23.41A40.14,40.14,0,0,0,193,440.83c2.1-4.05,15.35-8.17,21.27-11.29S218.92,413.89,213.39,413.57Z"/><path class="cls-3" d="M318.35,384.65l0-.29c-4.59-5.1-11-11.59-6.12-18.72-2.59.84-6.07,15.8-13.16,17.22,5.87-13.77-8.71-30.18-10.33-32,1.62,4.86-9.72,23.9-11.14,23.29s-2.84-9.32-2.84-9.32c-2,2-6.85,9.44-14.69,12.85.22,9,.63,20.32.55,21.67h-.05a.31.31,0,0,0,0,.11l0,0a19.25,19.25,0,0,0-3.21.91c-12.37,4.59-7.74,22,1.31,25.11.59,12.5,10.52,22.16,24.87,24.76,13.81,2.5,16.79-8.1,20.36-13.1s6.9-4.76,6.9-4.76l.08-.1c2.29.53,4.47-1.21,5.52-3.94,1.54-4.05-1-9.29-5.36-9.41h-.15a5.71,5.71,0,0,0,0-.83,7.82,7.82,0,0,0-3.65-6l.1-.12C308.14,410,314.86,391.12,318.35,384.65Z"/><path class="cls-4" d="M325.44,378.84c0,.23,0,.46,0,.69C325.42,379.3,325.43,379.07,325.44,378.84Z"/><path class="cls-4" d="M325.48,377.83c0,.22,0,.44,0,.66C325.47,378.27,325.47,378.05,325.48,377.83Z"/><path class="cls-4" d="M325.26,380.89c-.05.34-.1.69-.16,1C325.16,381.58,325.21,381.23,325.26,380.89Z"/><path class="cls-4" d="M325.37,379.86c0,.27-.05.53-.09.79C325.32,380.39,325.35,380.13,325.37,379.86Z"/><path class="cls-4" d="M325.44,375.74l0,.75Z"/><path class="cls-4" d="M240.76,270h0l-.13,0c-1.07,25.12-9.59,42.3-16,47.21-1.3-.29-3.93-2-7.34-4.78,2.77,7.92,3.16,30.33,3.61,34.83,14.39-.76,30.24-6.59,40-16.14h0a38.2,38.2,0,0,1,1.88-6.65c4-10.42,14.49-18.52,32.6-18.38,13.16.11,28.55,8.9,31.74,21.23,2.54,9.81-3.61,22.57-3.94,29.44a27.18,27.18,0,0,0,.17,4.51c0-.25-.06-.49-.08-.73l.19.21c15,10.33,35.65-6.68,35.65-28.35C359,284.41,288.35,262.35,240.76,270Z"/><path class="cls-4" d="M325.48,377.48v0Z"/><path class="cls-4" d="M324.8,383.31c-.05.24-.11.47-.18.71C324.69,383.78,324.75,383.55,324.8,383.31Z"/><path class="cls-4" d="M324.16,385.52c-.07.22-.15.44-.23.66C324,386,324.09,385.74,324.16,385.52Z"/><path class="cls-4" d="M323.76,386.61c-.09.23-.18.45-.28.68C323.58,387.06,323.67,386.84,323.76,386.61Z"/><path class="cls-4" d="M325.07,382.05c-.05.31-.12.61-.18.92C325,382.66,325,382.36,325.07,382.05Z"/><path class="cls-4" d="M322.77,388.82c-.18.38-.38.75-.59,1.13C322.39,389.57,322.59,389.2,322.77,388.82Z"/><path class="cls-4" d="M324.51,384.43c-.07.22-.13.44-.2.66C324.38,384.87,324.44,384.65,324.51,384.43Z"/><path class="cls-4" d="M325.13,372.52c.13,1,.24,2,.3,3C325.37,374.5,325.26,373.51,325.13,372.52Z"/><path class="cls-4" d="M323.3,387.71c-.11.25-.23.5-.35.75C323.07,388.21,323.19,388,323.3,387.71Z"/><path class="cls-4" d="M259.36,349.06c-.08.44-.16.88-.26,1.32C259.2,349.94,259.28,349.5,259.36,349.06Z"/><path class="cls-4" d="M259,350.72q-.15.69-.36,1.38Q258.88,351.41,259,350.72Z"/><path class="cls-4" d="M258.58,352.4c-.14.48-.3,1-.49,1.43C258.28,353.35,258.44,352.88,258.58,352.4Z"/><path class="cls-4" d="M259.56,347.54c-.05.43-.1.85-.17,1.28C259.46,348.39,259.51,348,259.56,347.54Z"/><path class="cls-4" d="M259.81,344.44c0,.26,0,.51,0,.77C259.78,345,259.8,344.7,259.81,344.44Z"/><path class="cls-4" d="M259.72,345.83c0,.43-.06.85-.11,1.27C259.66,346.68,259.69,346.26,259.72,345.83Z"/><path class="cls-4" d="M258.08,353.87c-.19.48-.4,1-.63,1.43C257.68,354.83,257.89,354.35,258.08,353.87Z"/><path class="cls-4" d="M323.4,362.35c0,.24.07.48.11.73C323.47,362.83,323.44,362.59,323.4,362.35Z"/><path class="cls-4" d="M325,371.53c0,.31.09.63.13.94C325.08,372.16,325,371.84,325,371.53Z"/><path class="cls-4" d="M323.53,363.21c.36,2.41.88,4.82,1.29,7.29C324.41,368,323.89,365.62,323.53,363.21Z"/><path class="cls-4" d="M324.82,370.51c.06.31.11.63.15.95C324.93,371.14,324.88,370.82,324.82,370.51Z"/><path class="cls-4" d="M256.39,357.26a16.31,16.31,0,0,1-1,1.48A16.31,16.31,0,0,0,256.39,357.26Z"/><path class="cls-4" d="M323.29,361.47l.09.7Z"/><path class="cls-4" d="M257.32,355.58c-.23.47-.48.94-.76,1.41C256.84,356.52,257.09,356.05,257.32,355.58Z"/><path class="cls-1" d="M264.66,349.44c-1,8.91-4.66,23.7-12.76,30,12.76,0,20.25-11.95,22.88-14.59,0,0,1.42,8.71,2.84,9.32s12.76-18.43,11.14-23.29c1.62,1.82,16.2,18.23,10.33,32,7.09-1.42,10.57-16.38,13.16-17.22-6.95,10.09,8.84,18.89,9.93,24.31,7.13-12.77.42-22.68.93-33.16.33-6.87,6.48-19.63,3.94-29.44-3.19-12.33-18.58-21.12-31.74-21.23-18.11-.14-28.58,8-32.6,18.38-5.37,13.92.25,23.74-7.29,34.24C264,353.36,264.66,349.44,264.66,349.44Z"/><path class="cls-5" d="M205.82,302.28l0-.25c-8.7-8.65-18.48-19.93-25.34-30.95l0,0c-12.73,10.34-38.62,3.49-31.17-37.48a30.63,30.63,0,0,0,.5-4.51c-21.5,12.2-39.32,23.76-52.3,38.37C70,295.29,41.33,311.39,23.87,311.77c-25.79.57-25,11.21-7.17,13.71A57.36,57.36,0,0,0,29,326l-1.52.28C23.43,327.62,18.15,333.6,15,340c-3.79,7.66,3.93,11.44,8.76,7.3s6.42-9.63,14.07-11.85c-1.35,2.33-5.77,9.57-6.19,15.41-.64,8.93,4.73,13.66,10.33,5.6,3.49-5,12.32-24.17,31.77-21.26l.05-.06h0c-.6,55.32,28.58,90,31.93,104.46C88.53,456.24,85.13,500,101,512.67c33-18.73,40.07-67.95,24.19-79.07-2.6-31.49,4.52-41.47,4.52-41.47s-.41,27.49,38.53,60.19c-8.39,22.68-3.51,64,9.09,69.21,21.2-10.28,35.19-63.28,24.87-73.61,0,0-11.81-5-17.39-21-7.54-21.62-5.09-77.2,11.63-110.09C200.94,311,204.29,305.9,205.82,302.28Z"/><path class="cls-6" d="M183.36,275.57c-7.92-.61-14.46,17.72-9.43,25.47,2.83,4.35,9.15,5,10.46-5-2.4,10.23,1.31,14.64,5.44,13.5,6.31-1.74,7.53-16,3.83-20.4"/><path class="cls-7" d="M226.86,208.41c-3.31,0-6.4,3.15-7.79,7.5l0,.72c-1.41-5.57-4.37-9.31-8.33-9.31-5.94,0-9.69,8.43-9.69,17.34,0,9.06,3.24,16.25,8.28,16.4,3.16.1,6.43-2,8.5-6.1,1.37,4.16,2.93,6.8,6,6.9,5,.15,10-5.29,10.93-15.48S232.69,208.41,226.86,208.41Z"/><path class="cls-8" d="M234.91,225l-.08,0c0,.47-.05.93-.1,1.41-.92,10.19-5.93,15.63-10.93,15.48-3.09-.1-4.65-2.74-6-6.9-2.07,4.12-5.34,6.2-8.5,6.1s-5.6-2.94-7-7.28l-.09,0c-18.5-13.94-31.37-2.52-30.59,13.57,0,24.73,45.92,68.29,53,69.86C234.4,309.78,249,273.94,234.91,225Z"/><path class="cls-6" d="M201,224.66c0-8.91,3.75-17.34,9.69-17.34,4,0,6.92,3.74,8.33,9.31l0-.72c1.39-4.35,4.48-7.5,7.79-7.5a5.85,5.85,0,0,1,3.09.87c-6.32-22.52-16.22-61.3-30.78-84.18-19.08-30-27.13-24.69-21.39,3-18.26-23.65-36.69-12.87-17.74,16.52-21.89-14.46-30.46,1.74-11.65,17.91-16.15-8.8-28,8.12-7.23,19-12.36-5.65-24,8.66-11.38,17.9,11,8,22.61,17,19.48,34.26-7.45,41,18.44,47.82,31.17,37.48l0,0c-5.28-8.48-8.84-16.82-8.84-23.7-.78-16.09,12.09-27.51,30.59-13.57l.09,0A30.32,30.32,0,0,1,201,224.66Z"/><path class="cls-6" d="M242.09,405.66c-2.83-18.49-17.73-50-58.48-46.22h0a212.72,212.72,0,0,0-2.58,44l.15.11c14.15-1.89,27.54,10.75,30.94,17.73,2.45-3.77,1.51-15.85-3-24,4.91,3,14.15,16.41,16.22,26,3.59-10.37-2.64-30-7.73-34.52C225.87,390.38,236.81,394.53,242.09,405.66Z"/><path class="cls-9" d="M437.88,213.1c-1.15,22.42-7.75,37.5-29.12,53.7-3.61-.14-14.42-4.3-17.88-8.18-4.57-.69-21.62-5.54-14.27-37.14,3.91-16.83,11.22-30.41,23.69-30.76,10-.28,19.82,13.72,27.58,17.6C433.32,211,434.26,212.34,437.88,213.1Z"/><path class="cls-10" d="M458.13,234.22c-4.22-6.1-17.74-14.1-20.35-15.26l-.35,0c-1.9,18.13-8.42,31.44-25.4,45.23l.15.53c6.68,5.63,9.46,18,11.2,18.61.93.31,2.16-2.51,2.76-5.7v0c-.43,7,10,11.34,7.56,19.48,9-6.1,6.84-19.77,6-20.64,1.59-.58,8.57,9.74,10.17,8-4.36-7.27,4.22-12.36,2.91-17.74,4.36,3.79,11.05,3.49,11.92,5.09,1.6-5.52-3.92-13.37-8.72-14.39,5.67-3.93,19.34,6.55,19.34,5.38C475.29,258.65,463.79,242.42,458.13,234.22Z"/><path class="cls-3" d="M505.82,304.31c-1.4-4.29-11.57-10.41-14.83-15.12-2.62-3.78-3.18-7.59-7.12-13.09-4.73-6.59-14-14.82-16.54-17.15-4-1.89-8.64-3.36-11.38-1.46,4.8,1,10.32,8.87,8.72,14.39-.87-1.6-7.56-1.3-11.92-5.09,1.31,5.38-7.27,10.47-2.91,17.74-1.6,1.75-8.58-8.57-10.17-8,.64.64,2,8.27-1,14.68,1.27,1.91,5.21,7.2,8.25,8.58l.19-.1c0,3,.47,6.13.39,8.39-.15,4.07-3,10.16-3.64,16-1,9.75,9.6,13.53,15.27,5.24s3.21-14.27,7.56-18.18c4.54-4.07,7.31-1.9,10.85-1.4-.95,3.2.46,11,4.64,12.7l-.08,0c-8,6-6.1,14,2.77,14l.38-.08c0,2.54.7,4.77,2.67,5.46,5.77,2,8.11-4.27,10.42-8.34,4.09,2.68,9.3,2.21,10.52,1.36S508.29,311.87,505.82,304.31Z"/><path class="cls-11" d="M247.45,270c-1-3.43-2.27-9.6-.3-14.38,2.71-6.56,9.08-12.52,10.3-17.32,2.05-8.11-.58-13.86,3.92-19"/><path class="cls-12" d="M378.27,171.42l-.16.08h0c-8,3.52-15.46,8.95-20.1,11.89-7.32,4.63-21.25,19.36-35.24,22.32-16.47,3.49-31.2-3.54-33.15-11-2.66-10.14,5-13.52,3.17-31.9-6.49-.68-13.55,4.58-17.79,8.43l-3.2,4.67a19.41,19.41,0,0,0,7.89,1.19l1,10.39c-11.13,1.78-20.47,9.49-13.8,27.44L261,216l.35,3.36c-4.5,5.13-1.87,10.88-3.92,19-1.22,4.8-7.59,10.76-10.3,17.32-1.82,4.43-.87,10,.07,13.57C291,264.72,349.54,283.4,358,322.6l.27-.12c8.58-8.41,11.88-21.83,10-31.3,15.49-7.05,10.66-34.91,16.4-34.71l0-.05c-6.18-3.56-13.26-12.5-8-34.94,3.42-14.72,9.44-26.95,19.24-30l.06-.2C392.82,185.74,379.93,172.34,378.27,171.42Z"/><path class="cls-1" d="M454,110.49c-7.54,4.52-21.75,4.27-23.9,4,0,0,6.87-12.95,6.54-13.6s-12.82,5.39-15,8.91c3.71-7.22,7.19-13,7-20.45-.17-8.44,4.92-21.53,6-23.59,1.21-2.24-7.23,3.1-7.58,8.09-5.16-6,6-27,5.34-28.07s-8.26,5.85-11,13.26c4.48-13.43,2.24-37.54,1-38.4s-5.68,7.75-7.06,9c2.41-8.95.64-24.06-2.06-24.8C411.52,4.28,403.6,53,395.85,59c-2.06-3.1-5.16-5.34-5.85-5.17,2.41,5.51-3.73,25.82-7.16,28.68-9.55-11.84-14-12.41-14-12.41a10.27,10.27,0,0,1-4.35,6.35l-.22-.22c-8.7-15.12,1.85-34.66,6.42-40.08-3.08-.42-8.49,2.87-12.6,7.84l.14-3.93c2.05-8.87,10.61-26.29,17.6-33.88-6.11.49-12.62,5.89-16.76,10.05a34.81,34.81,0,0,1,1.06-7c-9.25,5.16-20.21,18.94-24.52,35.9-3-2-6.35-4.38-5.29-11C322.64,35,320,54.1,322.86,59.7c-1.09-.73-6.9-4.47-7.28-11.94-1.67,1.45-6.35,17.69-4.32,25.54l.5.11c-3.19,2.18-9,1.26-12.42-3.38-2.55,4.87-1.89,20.79,2.33,29.23-2.42,2.29-11.35,2.76-13.09-5.09-3.64,9.82-1.68,27.92.07,31.78-.66.36-5.09-1.75-8.5-6,.3,2.49,2.08,12.48,5.44,19.07h0a29.14,29.14,0,0,0,.7,6.8c1.24,6.23,2.74,11.89,6.22,15.18,2.61,20-5.7,23.26-2.95,33.73,1.95,7.43,16.68,14.46,33.15,11,14-3,27.92-17.69,35.24-22.32,8.07-5.11,24.74-17.76,37.66-14.8-5.65-3.23-7.8-5.92-14.8-7.26,7.8-5.92,33.36,1.08,34.16,6.19,1.89-5.92-1-13.52-5-17.56,12.06.69,31.34-4.13,33.58-10,0,0-13,.16-14.63-1.73C427.88,137.91,449.06,126.2,454,110.49Z"/><path class="cls-13" d="M340.75,164.77c-23,41.72-48.57,30.72-30.82-4a11.54,11.54,0,0,1-7.41,3.11,18.34,18.34,0,0,1-3,0c2.17,11.92-6,23.67-2.82,29.24,5.17,8.95,26.35,7.06,36.68-2.41,11.43-10.48,24.45-34.79,35.3-32.89C363.48,150,350.73,160.81,340.75,164.77Z"/><path class="cls-14" d="M315.3,154.05l0-.12a17.45,17.45,0,0,1-2.64-.59l-.06.21a9.23,9.23,0,0,1-2.7,7.25c-17.75,34.69,7.81,45.69,30.82,4C331.06,168.62,315.82,165.42,315.3,154.05Z"/><path class="cls-15" d="M302.8,129.72c-7.08,6.53-.17,23.33,13.67,24.33,7.33-8.17,11.83-19.33,10.83-21.17C325.81,130.15,307.13,125.72,302.8,129.72Z"/><path class="cls-16" d="M333,131.88c-1.32-3.5-20.29-8.87-28.37-3.15,6.26-2.1,21.37,1.71,22.7,4.15,1,1.84-3.5,13-10.83,21.17C326.63,154.88,334.47,135.88,333,131.88Z"/><path class="cls-17" d="M511.71,25.57c6.2,4.65-5.42,17.17-8.15,38.6-3.32,25.94,1,33.22-2.15,37.89-4.86,7.29-20.28,2.88-21.87-9.87-1-7.65,8.15-13.44,9.58-25.45,1.84-15.48-8.84-19.91-7.87-26.3C482.54,32,505,20.56,511.71,25.57Z"/><path class="cls-18" d="M517.66,25.24l0,.19a5.4,5.4,0,0,0-2-2.75c-9.93-7.27-35.26,5.67-39,17.36-2.3,7.25,7.45,11.17,6.92,26.58C483.21,76,475.83,81,475,92.14c-1.1,15.22,14.57,18.54,22.58,20.56,4.41,1.11,9.12,4.68,13.23,4.21,3.62-.42,6.46-1.13,6.58-3.14.11-1.79-5.93-4-7.83-8.37-3.38-7.81-3.5-25.13-1.79-39,1.57-12.67,5.39-22.3,7.87-29.43l-.15.88c.54.71,5.34,4.86,7.07,2.9S520.09,29,517.66,25.24Zm-14.1,38.93c-3.32,25.94,1,33.22-2.15,37.89-4.86,7.29-20.28,2.88-21.87-9.87-1-7.65,8.15-13.44,9.58-25.45,1.84-15.48-8.84-19.91-7.87-26.3C482.54,32,505,20.56,511.71,25.57,517.91,30.22,506.29,42.74,503.56,64.17Z"/><path class="cls-3" d="M414.3,111A14.29,14.29,0,0,1,402,118.48c4.43-6.5,1.74-8.21,2.72-13s6.61-6.36,6.61-6.36-7.47-2.58-11.39,5.87c1.1-8.69-5-12.49-5-12.49s2.08,6.74-1.59,9.92c-4.9-14.69-22.16,2.46-37.71,2.2-11.78-.19-18.91-6.79-21-12.77-12.28,0-17.95,7.48-17.95,7.48a39.5,39.5,0,0,1,.57-8c-15.28,8.2-17.41,27.29-12.58,37.37,8.13-5.61,27-.27,28.28,3.22a5.19,5.19,0,0,1,.11,2.31l.11,0a35,35,0,0,0,1.8-3.13,28.94,28.94,0,0,1,8.15,4.08c4,3.07,7.07,7.1,8.9,8a21.13,21.13,0,0,0,6.83,1.8s-4,6.06-6.16,7c5.87,1.23,14.45-8.91,22.74-6.54,6,1.71,7.58,9.38,7.58,9.38s.47-4.36,8.72-6.92c2.77-.86,13.26-7.29,15.44-14.78-4.93,3.13-12,2.66-12,2.66S418,123.22,414.3,111Z"/><path class="cls-3" d="M334.65,91.86h.05"/><path class="cls-19" d="M239.47,208.43c4.45-5.64,10.24-5.19,18.69,8l8.75-1.48c-6.67-18,2.67-25.66,13.8-27.44l-1-10.39c-12.16.6-19.58-8.9-19.88-19.73l-9.34-6.08c-1.93,23.73-18.4,30.11-23.89,26.7,0,0,7.74,5.44,11.24,13.69C239.82,196.46,239.47,208.43,239.47,208.43Z"/><path class="cls-7" d="M278,51.08a39.92,39.92,0,1,0-29.32,48.23A39.91,39.91,0,0,0,278,51.08Z"/><path class="cls-15" d="M278,51.08a39.92,39.92,0,1,0-29.32,48.23A39.91,39.91,0,0,0,278,51.08ZM248.16,97.2A37.61,37.61,0,0,1,219.9,93c.59-1.13,3.66-1.4,3.66-1.4-6.08-3.73-7.18-4.83-7.18-4.83.79,2.64.69,3.83.58,4.29a37.72,37.72,0,0,1,.9-61.59l-.35.27c7.18-5.13,11.4-1.67,11.4-1.67.68-.79,5.42-3.3,5.42-3.3a62.51,62.51,0,0,0-10.48,1.35,38.22,38.22,0,0,1,6.42-2.2,37.74,37.74,0,0,1,45.62,27.71A37.36,37.36,0,0,1,277,61.21a48.17,48.17,0,0,0-3.4-11,40.41,40.41,0,0,1-1.06,6.42s4.64,2,3.88,10.55A37.74,37.74,0,0,1,248.16,97.2Z"/><path class="cls-15" d="M264,89.26a35.63,35.63,0,0,1-7.11,4.86s-.62-1.7-10.38-2.75a64.54,64.54,0,0,0,6.37-5.07s2.42,7.75,11.12,3Z"/><path class="cls-15" d="M244.8,91.24a123.14,123.14,0,0,0-20,.09s-.47-.59-1.73-5.52c0,0,10.8,6.55,20.08-.52a37.58,37.58,0,0,0,1.65,5.95Z"/><path class="cls-20" d="M252.53,85s-3.62-.4-8.21-.73c0,0,8.64-6.4,4.65-18.64,0,0,7.36.43,8.21.73,0,0-6.2,8.87-4.65,18.64Z"/><path class="cls-5" d="M229,52.67s-10.75-.28-15,11.83a39.56,39.56,0,0,1-3.53-7.06s7.61-1.5,14.84-11.87c0,0,3.16,6,3.68,7.1Z"/><path class="cls-15" d="M207.27,65.51a57.54,57.54,0,0,1,1.82-7.86s-6.88,1.29-6-7.9c0,0-1.32,2-1.77,7.93,0,0,.59-2.13,6,7.83Z"/><path class="cls-5" d="M253.21,56.53s-3.63,5.23-5,7.35a20.28,20.28,0,0,0-17-11.3s3.15-4.72,4.81-7c0,0,5.35,9.79,17.18,11Z"/><path class="cls-15" d="M235,43.85a55.47,55.47,0,0,0-8.65,0s6.41-8.25,3.24-15.06a55.7,55.7,0,0,1,8.29-.07s-7.68,4.88-2.88,15.14Z"/><path class="cls-15" d="M271.38,56.44a56.66,56.66,0,0,0-3.33-7.94s-1.38,8.28-12.92,8.2a81,81,0,0,1,3.19,7.81s6.88-9.74,13.06-8.07Z"/><path class="cls-20" d="M272.85,48.41a31.28,31.28,0,0,0-4.43-1.48s1.33-8.15-8.41-15.82a14.49,14.49,0,0,1,4.05,1.27,80.94,80.94,0,0,1,8.79,16Z"/><path class="cls-5" d="M257.69,29.73s-8.29-6.23-18.31-1.92c0,0-2-2.31-2.92-3.16,0,0,13.42-.07,18.89,1.94a12.38,12.38,0,0,1,2.34,3.14Z"/><path class="cls-5" d="M219.9,93c.59-1.13,3.66-1.4,3.66-1.4-6.08-3.73-7.18-4.83-7.18-4.83.79,2.64.69,3.83.58,4.29.95.69,1.93,1.34,2.94,1.94Z"/><path class="cls-5" d="M273.56,50.17a40.41,40.41,0,0,1-1.06,6.42s4.64,2,3.88,10.55a36.55,36.55,0,0,0,.58-5.93,48.17,48.17,0,0,0-3.4-11Z"/><path class="cls-20" d="M228.91,28c.68-.79,5.42-3.3,5.42-3.3a62.51,62.51,0,0,0-10.48,1.35,36.39,36.39,0,0,0-6,3.35l-.35.27c7.18-5.13,11.4-1.67,11.4-1.67Z"/><path class="cls-20" d="M216,85.69s-3.25-8.35-8-18.3l-.15-.31,6-1a16.29,16.29,0,0,0-.26,2.19,18.53,18.53,0,0,0,7.72,16.29l.5.37-5.81.78Z"/><path class="cls-15" d="M201.92,201.08c-1.57-.33-1.31-2.24-.93-3.71.8-3.1,2.62-4.62,4-4.64,2.67-.06,8.3,5.82,10.26,7.8.85.86,3.74,3,2.89,3.71-1.47,1.31-4.15-1.85-5.78-3.54-1.49-1.54-5.3-5.93-7.15-5.52C203.06,195.65,203.5,201.41,201.92,201.08Z"/><path class="cls-15" d="M223.12,202.58c-.05.23-.06,1.51.44,1.85s1.51-.27,1.83-.79c.66-1,2.74-5.69,3.06-6.27,1.47-2.71,3-2.32,4.08-.43a15.45,15.45,0,0,1,1.92,5.24c.14,2.32,2.27,1.45,2.17.44-.64-5.91-2.9-7.76-3.26-8.4a3.56,3.56,0,0,0-5.86,0A85.59,85.59,0,0,0,223.12,202.58Z"/><path class="cls-15" d="M216.55,227.69c-1.93-.06-2.13-3.43-1.92-5.36s1.6-3.5,2.5-2.75C218.37,220.62,218.11,227.74,216.55,227.69Z"/><path class="cls-15" d="M231.16,226.38c-1.79-.06-2-3.18-1.78-5s1.48-3.24,2.31-2.55C232.85,219.83,232.61,226.43,231.16,226.38Z"/><path class="cls-15" d="M196.16,417.28c.33-.32,1.77-.19,2,.25.29.61-.94,1.37-1,2.69s.9,2.3.82,2.48a1.29,1.29,0,0,1-.57.69,1.72,1.72,0,0,1-1.19.07,5.25,5.25,0,0,1-1-3.56A7.06,7.06,0,0,1,196.16,417.28Z"/></g><g id="trait"><path class="cls-21" d="M124.16,220.2c-18.72-6.11-35.9-3.43-50.8,6.11-17.08,10.95-36.28,23.3-47,16.05-11.5-7.81-3.43-32.47,21-41.64"/><path class="cls-21" d="M121.1,235.86c-11.84-6.87-33.23,1.53-47.36,10.31C59,255.34,35.17,268.71,18,249.23"/><path class="cls-21" d="M247.45,270c-1-3.43-2.27-9.6-.3-14.38,2.71-6.56,9.08-12.52,10.3-17.32,2.05-8.11-.58-13.86,3.92-19"/><path class="cls-21" d="M240.76,270C288.35,262.35,359,284.41,359,332.43c0,21.67-20.66,38.68-35.65,28.35"/><path class="cls-21" d="M264.66,349.44c-1,8.91-4.66,23.7-12.76,30,12.76,0,20.25-11.95,22.88-14.59,0,0,1.42,8.71,2.84,9.32s12.76-18.43,11.14-23.29c1.62,1.82,16.2,18.23,10.33,32,7.09-1.42,10.57-16.38,13.16-17.22-6.95,10.09,8.84,18.89,9.93,24.31,7.13-12.77.42-22.68.93-33.16.33-6.87,6.48-19.63,3.94-29.44-3.19-12.33-18.58-21.12-31.74-21.23-18.11-.14-28.58,8-32.6,18.38-5.37,13.92.25,23.74-7.29,34.24C264,353.36,264.66,349.44,264.66,349.44Z"/><path class="cls-21" d="M217.19,312.29c2.83,7.76,3.22,30.46,3.67,35,14.41-.76,30.28-6.61,40-16.18"/><path class="cls-21" d="M213.39,413.57c5.53.32,6.86,12.82.88,16s-19.45,7.32-21.33,11.41"/><path class="cls-21" d="M210.82,363c2.9-5.07-1.09-21.09-4.48-25"/><path class="cls-21" d="M210.75,350c1.17-.72,7.12-3.34,10.19-3.34"/><path class="cls-21" d="M358.26,322.48C369,312,371.46,293.6,365.9,284.94"/><path class="cls-21" d="M368,291.33c15.88-6.8,10.93-35.06,16.71-34.86"/><path class="cls-21" d="M226.56,178c5.49,3.41,22-3,23.89-26.7"/><path class="cls-21" d="M239.47,208.43c4.45-5.64,10.24-5.19,18.69,8"/><path class="cls-21" d="M266.91,215c-6.67-18,2.67-25.66,13.8-27.44"/><path class="cls-21" d="M259.79,157.4c.3,10.83,7.72,20.33,19.88,19.73"/><path class="cls-21" d="M318.35,384.65c-3.49,6.47-10.21,25.39-11,27.38"/><path class="cls-21" d="M260.09,377.68c.25,10.2.74,23.4.5,21.66"/><path class="cls-21" d="M291.2,397c4.6.9,11.8,4.23,13,7.72"/><path class="cls-21" d="M276.54,430.74c5.72-1.19,12.5-.72,18.69,5.95"/><path class="cls-21" d="M272.85,417.29c.72-13.1-3.93-21.19-15.47-16.9-12.37,4.59-7.74,22,1.31,25.11.59,12.5,10.52,22.16,24.87,24.76,13.81,2.5,16.79-8.1,20.36-13.1s6.9-4.76,6.9-4.76"/><path class="cls-21" d="M277.61,415c.36-12,16.29-13.53,18.93-4.65s-7.14,10.72-11.9,8"/><path class="cls-21" d="M299.39,413.36c5.48-5.36,11.43.36,11.55,4.76.11,4.22-3.45,8.33-9.64,6.19"/><path class="cls-21" d="M264.28,424.55c1.73-.44,3.67-1.43,4.29-2.5"/><path class="cls-21" d="M307.61,429.78c3.21,4.53,7.26,2.62,8.8-1.42s-1-9.29-5.35-9.41"/><path class="cls-21" d="M437.88,213.1c-1.15,22.42-7.75,37.5-29.12,53.7-3.61-.14-14.42-4.3-17.88-8.18-4.57-.69-21.62-5.54-14.27-37.14,3.91-16.83,11.22-30.41,23.69-30.76,10-.28,19.82,13.72,27.58,17.6C433.32,211,434.26,212.34,437.88,213.1Z"/><path class="cls-21" d="M150.09,228.92C105.08,254.44,76,277,73.91,330.62c-2.3,57.93,28.39,94.07,31.83,108.94C88.53,456.24,85.13,500,101,512.67c33-18.73,40.07-67.95,24.19-79.07-2.6-31.49,4.52-41.47,4.52-41.47s-.41,27.49,38.53,60.19c-8.39,22.68-3.51,64,9.09,69.21,21.2-10.28,35.19-63.28,24.87-73.61,0,0-11.81-5-17.39-21-7.56-21.68-5.08-77.5,11.76-110.36"/><path class="cls-21" d="M183.36,275.57c-7.92-.61-14.46,17.72-9.43,25.47,2.83,4.35,9.15,5,10.46-5-2.4,10.23,1.31,14.64,5.44,13.5,6.31-1.74,7.53-16,3.83-20.4"/><path class="cls-21" d="M202.2,233.81c-18.5-13.94-31.37-2.52-30.59,13.57,0,24.73,45.92,68.29,53,69.86,9.81-7.46,24.39-43.3,10.32-92.29"/><path class="cls-21" d="M193.59,259.55c-8.64-4.71-16.14,1.77-11.3,14.23"/><path class="cls-21" d="M73.74,335.16C54.29,332.25,45.46,351.41,42,356.42c-5.6,8.06-11,3.33-10.33-5.6.42-5.84,4.84-13.08,6.19-15.41-7.65,2.22-9.24,7.71-14.07,11.85s-12.55.36-8.76-7.3c3.15-6.36,8.43-12.34,12.49-13.65"/><path class="cls-21" d="M209.28,241.06c5,.16,10.32-5.15,10.63-15.46.31-10.16-3.39-18.28-9.22-18.28S201,215.75,201,224.66C201,233.72,204.24,240.91,209.28,241.06Z"/><path class="cls-21" d="M217.68,234.68c1.39,4.33,3,7.08,6.12,7.18,5,.15,10-5.29,10.93-15.48s-2-18-7.87-18c-3.31,0-6.4,3.15-7.79,7.5"/><path class="cls-21" d="M183.61,359.44c40.75-3.77,55.65,27.73,58.48,46.22-5.28-11.13-16.22-15.28-24.52-16.79,5.09,4.53,11.32,24.15,7.73,34.52-2.07-9.62-11.31-23-16.22-26,4.53,8.11,5.47,20.19,3,24-3.4-7-16.79-19.62-30.94-17.73"/><path class="cls-21" d="M180.43,271.1c-12.73,10.34-38.62,3.49-31.17-37.48,3.13-17.22-8.51-26.22-19.48-34.26-13-9.57-.13-24.59,12.7-17.22-22.62-10.81-10.58-28.64,5.91-19.65-18.81-16.17-10.24-32.37,11.65-17.91-18.95-29.39-.52-40.17,17.74-16.52-5.74-27.65,2.31-32.95,21.39-3,14.61,23,24.52,61.91,30.84,84.39"/><path class="cls-21" d="M50.12,319c-8.51,13.62,5.87,18.51,10.12,8.05,1.09-2.68,1.84-7.36,4.49-8.86"/><path class="cls-21" d="M99.55,265.35c-28.13,29.11-57.78,46-75.68,46.42-25.79.57-25,11.21-7.17,13.71,7.91,1.12,14,.87,20.39-.74"/><path class="cls-21" d="M205.82,302.28c-7,16.52-51.91,63.2-69.75,73.94-17.26,10.39-19.38-3.35-8.52-9.22-7.11,4.52-8.51,7.46-11.72,6.83-5.09-1-6.34-6.54,5.48-13.84,0,0-16,11.58-22.47,12.27-7,.75-14.53-5-4.55-11.78,10.14-6.9,17.88-7.91,25.65-20.9.91-1.52-5.61,6.75-8.5,2.17C108.83,337.62,116,330.44,129,327c10-2.65,27.76-15.72,38.21-35.75"/><path class="cls-22" d="M412.18,264.76c6.68,5.63,9.46,18,11.2,18.61S427.6,274.79,426,271"/><path class="cls-22" d="M426.14,277.7c-.43,7,10,11.34,7.56,19.48,9-6.1,6.84-19.77,6-20.64,1.59-.58,8.57,9.74,10.17,8-4.36-7.27,4.22-12.36,2.91-17.74,4.36,3.79,11.05,3.49,11.92,5.09,1.6-5.52-3.92-13.37-8.72-14.39,5.67-3.93,19.34,6.55,19.34,5.38,0-4.22-11.5-20.45-17.16-28.65-4.22-6.1-17.74-14.1-20.35-15.26"/><path class="cls-22" d="M438.5,290.93c1,1.6,5.24,7.42,8.44,8.87"/><path class="cls-22" d="M477.62,309.54c-1.17,3.35.58,12.65,5.81,13.23"/><path class="cls-22" d="M484.89,336.44c-8.87,0-10.76-8-2.77-14"/><path class="cls-22" d="M486.19,316.23c-.72,3.49-3.19,11.34,4.66,11.63"/><path class="cls-22" d="M488.81,327.28c-3.34,2.47-5.57,12.9-.87,14.54,5.81,2,8.14-4.36,10.47-8.43"/><path class="cls-22" d="M467,258.65c2,1.86,11.93,10.56,16.87,17.45,3.94,5.5,4.5,9.31,7.12,13.09,3.26,4.71,13.43,10.83,14.83,15.12,2.47,7.56,4.29,29.68,3.06,30.53-1.89,1.31-13.38,1.75-15.42-9.16a7.46,7.46,0,0,1,1.75-5.81c-6.11-2.77-5.09-10.33-4.65-10.91.25-.33-.82.14-2,0-.91-.11-1.74-1.31-1.74-1.31s-.92.94-6.4,2c-5.09,1-8-3.64-13.67,1.45-4.35,3.91-1.89,9.89-7.56,18.18s-16.29,4.51-15.27-5.24c.61-5.83,3.49-11.92,3.64-16s-1.6-11,1.31-14.54"/><path class="cls-22" d="M511.71,25.57c6.2,4.65-5.42,17.17-8.15,38.6-3.32,25.94,1,33.22-2.15,37.89-4.86,7.29-20.28,2.88-21.87-9.87-1-7.65,8.15-13.44,9.58-25.45,1.84-15.48-8.84-19.91-7.87-26.3C482.54,32,505,20.56,511.71,25.57Z"/><path class="cls-22" d="M475,92.14c.8-11.14,8.18-16.12,8.51-25.52.53-15.41-9.22-19.33-6.92-26.58,3.73-11.69,29.06-24.63,39-17.36,7.35,5.38-4.69,18.55-7.81,43.75-1.71,13.84-1.59,31.16,1.79,39,1.9,4.39,7.94,6.58,7.83,8.37-.12,2-3,2.72-6.58,3.14-4.11.47-8.82-3.1-13.23-4.21C489.6,110.68,473.93,107.36,475,92.14Z"/><path class="cls-21" d="M395.91,191.26c-3.38-6-18.51-21.53-17.8-19.75"/><path class="cls-21" d="M292.53,160.81c2.69,20.18-5.68,23.42-2.93,33.93,1.95,7.43,16.68,14.46,33.15,11,14-3,27.92-17.69,35.24-22.32,8.07-5.11,24.74-17.76,37.66-14.8-5.65-3.23-7.8-5.92-14.8-7.26,7.8-5.92,33.36,1.08,34.16,6.19,1.89-5.92-1-13.52-5-17.56,12.06.69,31.34-4.13,33.58-10,0,0-13,.16-14.63-1.73-1-.34,20.14-12,25.1-27.76-7.54,4.52-21.75,4.27-23.9,4,0,0,6.87-12.95,6.54-13.6s-13.77,5.85-15.15,9.29c3.79-7.4,7.39-13.25,7.23-20.83-.17-8.44,4.92-21.53,6-23.59,1.21-2.24-7.23,3.1-7.58,8.09-5.16-6,6-27,5.34-28.07s-8.26,5.85-11,13.26c4.48-13.43,2.24-37.54,1-38.4s-5.68,7.75-7.06,9c2.41-8.95.64-24.06-2.06-24.8C411.52,4.28,403.6,53,395.85,59c-2.06-3.1-5.16-5.34-5.85-5.17,2.41,5.51-3.73,25.82-7.16,28.68-9.55-11.84-14-12.41-14-12.41a11,11,0,0,1-9.1,7.8"/><path class="cls-21" d="M412.56,33c-2.07,9.81-8.44,42.19-19.64,48.9,7.93-.69,14.3-9.12,14.3-9.12s-1.9,8.43-4.14,10.16c3.1,1,7.24-3.79,7.24-3.79s1,7.75-2.41,12.57"/><path class="cls-21" d="M303.3,129.55c-16.67-.5-19.27,4.8-17,16.28,2.07,10.33,4.82,19.12,16.19,18.08,9.6-.87,10.46-8.64,10.11-10.36"/><path class="cls-21" d="M299.42,163.57c2.41,12.05-6,24-2.76,29.62,5.17,8.95,26.35,7.06,36.68-2.41,11.43-10.48,24.45-34.79,35.3-32.89-5.16-7.93-17.91,2.92-27.89,6.88-9.69,3.85-24.93.65-25.45-10.72"/><path class="cls-21" d="M310.09,160.47c-18.08,35,7.58,46.15,30.66,4.3"/><path class="cls-21" d="M317.15,166.5c-4.82,7.06-2.92,11.53-2.41,12.05s2.24-7.75,7.75-11.19"/><path class="cls-21" d="M314.92,112.6c2.92-.87,13.77-1,17.39,4.82-4-1.38-15.33-1.55-21.36,3.44"/><path class="cls-21" d="M376.63,124.22c-5.33-2.93-15.66-2.5-20.33,1.66,8.87,1.38,13.67,6.5,15.17,9.34"/><path class="cls-21" d="M376.13,109.88s3.67-3.33,6.84-2c3.58,1.51,1.33,14.84,4.5,16.17"/><path class="cls-21" d="M314.8,107.38s7.5-9.16,11.5-9.33,6.5,3.83,6.5,3.83"/><path class="cls-21" d="M302.8,129.72c-7.08,6.53-.17,23.33,13.67,24.33,7.33-8.17,11.83-19.33,10.83-21.17C325.81,130.15,307.13,125.72,302.8,129.72Z"/><path class="cls-21" d="M304,129.22c7.66-6.5,27.65-.94,29,2.66,1.5,4-6.34,23-16.5,22.17"/><path class="cls-21" d="M263.32,95.82c2.78,2.78,9.95,18,10.54,21.37"/><path class="cls-21" d="M255.71,104.75c5.12,5.41,14.49,30.15,16.83,40"/><path class="cls-21" d="M285.59,139c-3.36-6.59-5.14-16.58-5.44-19.07,3.41,4.23,7.84,6.34,8.5,6-1.75-3.86-3.71-22-.07-31.78,1.74,7.85,10.67,7.38,13.09,5.09-4.22-8.44-4.88-24.36-2.33-29.23,4,5.45,11.36,5.78,13.84,2"/><path class="cls-21" d="M311.26,73.3c-2-7.85,2.65-24.09,4.32-25.54.38,7.47,6.19,11.21,7.28,11.94-2.91-5.6-.22-24.73,7.49-25.51-1.06,6.58,2.31,9,5.29,11,4.31-17,15.26-30.74,24.52-35.9a35.09,35.09,0,0,0-1.06,7"/><path class="cls-21" d="M355,20.82c1.62-2.05,11.69-13.87,20.87-14.6-8.42,9.14-19.12,32.53-18,38.1,4.14-5.14,9.7-8.56,12.84-8.13-4.57,5.42-15.12,25-6.42,40.08"/><path class="cls-21" d="M293,162.85c-10.14-1.23-21.82,12.29-21.82,12.29"/><path class="cls-22" d="M517.66,25.24c2.43,3.74,6.65,13.59,4.93,15.54s-6.53-2.19-7.07-2.9"/><path class="cls-23" d="M517.36,31.77a16.71,16.71,0,0,0,3.5,7"/><path class="cls-23" d="M504.61,104.45c1.67,2.92,3.2,5.93,12,10.92"/><path class="cls-21" d="M351.46,29.63c4.85,6.13,1.3,11.3-1.42,19.68-1.86,5.71,1.71,13.41-2.29,20.54"/><path class="cls-21" d="M325.93,82.83c.28-2,4.28-8.13,4.28-8.13s.71,4.71,3,6a17.23,17.23,0,0,1,1.72-7.7s.57,4.42,1.85,6.56"/><path class="cls-22" d="M333.19,134.21a35,35,0,0,0,1.8-3.13,28.94,28.94,0,0,1,8.15,4.08c4,3.07,7.07,7.1,8.9,8a21.13,21.13,0,0,0,6.83,1.8s-4,6.06-6.16,7c5.87,1.23,14.45-8.91,22.74-6.54,6,1.71,7.58,9.38,7.58,9.38s.47-4.36,8.72-6.92c2.77-.86,13.26-7.29,15.44-14.78-4.93,3.13-12,2.66-12,2.66S418,123.22,414.3,111A14.29,14.29,0,0,1,402,118.48c4.43-6.5,1.74-8.21,2.72-13s6.61-6.36,6.61-6.36-7.47-2.58-11.39,5.87c1.1-8.69-5-12.49-5-12.49s2.08,6.74-1.59,9.92c-4.9-14.69-22.16,2.46-37.71,2.2C340.42,104.39,333,93.49,334.18,87c1.83,2.94,8.45,2.82,8.45,2.82s-4.66-4.9-1.47-22.16c2.08,11.39,10.16,15.79,10.16,15.79a23.26,23.26,0,0,1,2.32-15.54c.59,6.31,9.05,12.59,11.63,14.44"/><path class="cls-22" d="M304.76,128.81c-4.93-10-2.84-29.28,12.51-37.52a39.5,39.5,0,0,0-.57,8s5.68-7.49,18-7.49"/></g></svg>