<svg id="front" xmlns="http://www.w3.org/2000/svg" viewBox="0 0 380 160"><defs><style>.cls-1,.cls-4{fill:#3e3d40;}.cls-1,.cls-2,.cls-3{fill-rule:evenodd;}.cls-2{fill:#da4843;}.cls-3{fill:#2d7fbc;}</style></defs><title>header</title><path class="cls-1" d="M210.81,10.39a30,30,0,1,0,.8,42.42A30,30,0,0,0,210.81,10.39Zm-.36,41.27a28.3,28.3,0,0,1-19.65,8.68c-.09-1,1.75-2.36,1.75-2.36a40.15,40.15,0,0,1-6.5-.18,7,7,0,0,1,2.1,2.49,28.35,28.35,0,0,1-24.22-39.47l-.11.32c2.5-6.15,6.57-5.65,6.57-5.65a30.45,30.45,0,0,1,2.11-4.28,47.61,47.61,0,0,0-6.11,5.08,28.35,28.35,0,0,1,43.31-4.74,28.11,28.11,0,0,1,4.55,5.67,35.88,35.88,0,0,0-6.61-5.64,30.25,30.25,0,0,1,1.92,4.5s3.73-.62,6.71,5.14A28.39,28.39,0,0,1,210.45,51.66Z"/><path class="cls-1" d="M217.28,40.34a26.9,26.9,0,0,1-2.56,6s-1.07-.83-7.7,2.42a48.26,48.26,0,0,0,2-5.78s4.66,4,8.25-2.6Z"/><path class="cls-1" d="M205.92,49.31a92.12,92.12,0,0,0-12.67,8.11s-.53-.19-3.32-2.81c0,0,9.5-.19,12.54-8.41a28.63,28.63,0,0,0,3.45,3.11Z"/><path class="cls-2" d="M208.31,42.25s-2.45,1.2-5.5,2.85c0,0,2.91-7.55-4.55-13.71,0,0,4.85-2.69,5.51-2.85,0,0-.37,8.13,4.54,13.71Z"/><path class="cls-3" d="M180.39,31.16s-6.94,4.15-4.76,13.55a30.89,30.89,0,0,1-5.09-3.06s4.23-4,4.65-13.51c0,0,4.41,2.52,5.2,3Z"/><path class="cls-1" d="M171.73,48.08a43.37,43.37,0,0,1-2-5.73s-3.85,3.59-7-2.6c0,0,0,1.8,2.07,5.75,0,0-.48-1.59,6.93,2.58Z"/><path class="cls-3" d="M197.29,23.89s-.2,4.78-.22,6.68a15.23,15.23,0,0,0-15.33-.34s.09-4.26.22-6.4a17.45,17.45,0,0,0,15.33.06Z"/><path class="cls-1" d="M180.63,23.17a41.8,41.8,0,0,0-5.5,3.47s.75-7.82-4-10.87a41.88,41.88,0,0,1,5.23-3.38s-2.91,6.19,4.27,10.78Z"/><path class="cls-1" d="M208.79,16.52a43,43,0,0,0-5.31-3.7s2.45,5.82-4.91,10.41a59.6,59.6,0,0,1,5.17,3.67s.45-8.95,5-10.38Z"/><path class="cls-2" d="M206.49,10.83a22.76,22.76,0,0,0-3.41.85S200.65,6,191.38,5a10.75,10.75,0,0,1,3.08-.83,61.19,61.19,0,0,1,12,6.64Z"/><path class="cls-3" d="M189.35,5.07A14.53,14.53,0,0,0,177,11.22s-2.18-.67-3.13-.83c0,0,8.5-5.45,12.78-6.37a9.43,9.43,0,0,1,2.75,1.05Z"/><path class="cls-3" d="M190.8,60.43c-.09-1,1.75-2.36,1.75-2.36a40.15,40.15,0,0,1-6.5-.18,6.77,6.77,0,0,1,2.1,2.49c.88,0,1.76.07,2.65,0Z"/><path class="cls-3" d="M207.64,11.66a30.74,30.74,0,0,1,1.92,4.5s3.73-.62,6.71,5.14a27.78,27.78,0,0,0-2-4,35.88,35.88,0,0,0-6.61-5.64Z"/><path class="cls-2" d="M170.39,15.57a31,31,0,0,1,2.11-4.28,47.61,47.61,0,0,0-6.11,5.08,27.75,27.75,0,0,0-2.46,4.54l-.11.31c2.5-6.15,6.57-5.65,6.57-5.65Z"/><path class="cls-2" d="M185.39,57.38s-5.42-4-12.46-8.39l-.22-.13,3.42-3.08a12.43,12.43,0,0,0,.72,1.5,13.91,13.91,0,0,0,11.45,7.23l.47,0-3.38,2.84Z"/><path class="cls-4" d="M1,98.09H6.21v24.7H21.67v4.71H1Z"/><path class="cls-4" d="M32.46,112.88v-.09a15.06,15.06,0,0,1,15.41-15.2,14.93,14.93,0,0,1,15.34,15.12v.08A15.07,15.07,0,0,1,47.79,128,14.93,14.93,0,0,1,32.46,112.88Zm25.33,0v-.09c0-5.71-4.16-10.46-10-10.46s-9.91,4.67-9.91,10.38v.08c0,5.72,4.15,10.46,10,10.46S57.79,118.59,57.79,112.88Z"/><path class="cls-4" d="M83.49,102.88H74.16V98.09H98v4.79H88.7V127.5H83.49Z"/><path class="cls-4" d="M109,112.88v-.09a15.38,15.38,0,0,1,30.75-.08v.08a15.38,15.38,0,0,1-30.75.09Zm25.33,0v-.09c0-5.71-4.16-10.46-10-10.46s-9.91,4.67-9.91,10.38v.08c0,5.72,4.16,10.46,10,10.46S134.31,118.59,134.31,112.88Z"/><path class="cls-4" d="M154.38,98.09h21.89v4.71H159.55v8h14.83v4.7H159.55v12h-5.17Z"/><path class="cls-4" d="M188.78,112.88v-.09a15.38,15.38,0,0,1,30.75-.08v.08a15.38,15.38,0,0,1-30.75.09Zm25.33,0v-.09c0-5.71-4.16-10.46-10-10.46s-9.91,4.67-9.91,10.38v.08c0,5.72,4.16,10.46,10,10.46S214.11,118.59,214.11,112.88Z"/><path class="cls-4" d="M232.88,112.88v-.09a15.38,15.38,0,0,1,30.75-.08v.08a15.38,15.38,0,0,1-30.75.09Zm25.33,0v-.09c0-5.71-4.16-10.46-10-10.46s-9.91,4.67-9.91,10.38v.08c0,5.72,4.16,10.46,10,10.46S258.21,118.59,258.21,112.88Z"/><path class="cls-4" d="M283.91,102.88h-9.33V98.09h23.86v4.79h-9.32V127.5h-5.21Z"/><path class="cls-4" d="M307.18,121.74h5.58v5.76h-5.58Z"/><path class="cls-4" d="M328.09,98.09h5.17V127.5h-5.17Z"/><path class="cls-4" d="M348.21,112.88v-.09a15.38,15.38,0,0,1,30.75-.08v.08a15.38,15.38,0,0,1-30.75.09Zm25.33,0v-.09c0-5.71-4.16-10.46-10-10.46s-9.91,4.67-9.91,10.38v.08c0,5.72,4.16,10.46,10,10.46S373.54,118.59,373.54,112.88Z"/><path class="cls-4" d="M37.73,157.54l5.08-4.48c2.14-1.92,2.92-3,2.92-4.4A2.68,2.68,0,0,0,42.91,146c-1.6,0-2.64.84-3.76,2.4L38,147.54c1.26-1.88,2.58-3,5-3a4,4,0,0,1,4.34,4v0c0,2-1.08,3.3-3.54,5.44l-3.74,3.32h7.42v1.44H37.73Z"/><path class="cls-4" d="M54,151.8v0c0-3.92,2.34-7.24,5.94-7.24s5.88,3.28,5.88,7.2v0c0,3.92-2.32,7.24-5.92,7.24S54,155.72,54,151.8Zm10.18,0v0c0-3.06-1.68-5.8-4.28-5.8s-4.26,2.68-4.26,5.76v0c0,3.06,1.68,5.8,4.3,5.8S64.17,154.86,64.17,151.8Z"/><path class="cls-4" d="M74.53,146.3l-2.64.82-.38-1.28,3.42-1.18h1.16v14.1H74.53Z"/><path class="cls-4" d="M83.15,155v0c0-1.66,1.2-2.84,2.88-3.44a3.56,3.56,0,0,1-2.4-3.22v0c0-2.16,2.22-3.7,4.78-3.7s4.78,1.54,4.78,3.7v0a3.56,3.56,0,0,1-2.4,3.22c1.66.62,2.88,1.76,2.88,3.42v0c0,2.38-2.28,4-5.26,4S83.15,157.34,83.15,155Zm8.92,0v0c0-1.56-1.62-2.66-3.66-2.66s-3.66,1.1-3.66,2.66v0c0,1.42,1.36,2.62,3.66,2.62S92.07,156.38,92.07,155Zm-.46-6.56v0c0-1.38-1.38-2.42-3.2-2.42s-3.2,1-3.2,2.42v0c0,1.52,1.42,2.56,3.2,2.56S91.61,149.92,91.61,148.4Z"/><path class="cls-4" d="M110.69,144.76h10.06v1.46h-8.48v5h7.58v1.44h-7.58v6.1h-1.58Z"/><path class="cls-4" d="M128,144.76h1.58v14H128Z"/><path class="cls-4" d="M137.63,144.76h10.06v1.46h-8.48v5h7.58v1.44h-7.58v6.1h-1.58Z"/><path class="cls-4" d="M158.33,144.66h1.48l6.38,14.1h-1.7l-1.64-3.7h-7.62l-1.66,3.7H152Zm3.9,9-3.18-7.14-3.2,7.14Z"/><path class="cls-4" d="M181.87,144.76h1.72l4,11.66,3.84-11.7h1.3l3.84,11.7,4-11.66h1.66l-5,14.1h-1.34l-3.84-11.36-3.86,11.36h-1.32Z"/><path class="cls-4" d="M207.75,151.8v0a7.14,7.14,0,1,1,14.28,0v0a7.14,7.14,0,1,1-14.28,0Zm12.64,0v0a5.57,5.57,0,0,0-5.52-5.78,5.5,5.5,0,0,0-5.48,5.74v0a5.57,5.57,0,0,0,5.52,5.78A5.5,5.5,0,0,0,220.39,151.8Z"/><path class="cls-4" d="M229.37,144.76h6a5.52,5.52,0,0,1,4,1.4,3.87,3.87,0,0,1,1.08,2.76v0c0,2.32-1.6,3.68-3.8,4.08l4.3,5.72H239L235,153.32h-4v5.44h-1.58Zm5.88,7.14c2.1,0,3.6-1.08,3.6-2.88v0c0-1.72-1.32-2.76-3.58-2.76H231v5.68Z"/><path class="cls-4" d="M247.83,144.76h1.58V157.3h7.88v1.46h-9.46Z"/><path class="cls-4" d="M264.21,144.76h4.86c4.4,0,7.44,3,7.44,7v0c0,3.94-3,7-7.44,7h-4.86Zm4.86,12.54a5.42,5.42,0,0,0,5.8-5.5v0a5.45,5.45,0,0,0-5.8-5.54h-3.28V157.3Z"/><path class="cls-4" d="M293.23,151.8v0a7.05,7.05,0,0,1,7.08-7.24,7.29,7.29,0,0,1,5.46,2.22l-1.08,1.16a6.08,6.08,0,0,0-4.4-1.92,5.49,5.49,0,0,0-5.42,5.74v0a5.52,5.52,0,0,0,5.42,5.78,6.08,6.08,0,0,0,4.52-2l1,1a7.29,7.29,0,0,1-5.6,2.46A7,7,0,0,1,293.23,151.8Z"/><path class="cls-4" d="M312.39,152.9v-8.14H314v8c0,3,1.6,4.72,4.28,4.72s4.22-1.56,4.22-4.62v-8.14h1.58v8c0,4.08-2.34,6.2-5.84,6.2S312.39,156.86,312.39,152.9Z"/><path class="cls-4" d="M331.79,144.76H337c3.16,0,5.24,1.68,5.24,4.44v0c0,3-2.52,4.58-5.5,4.58h-3.4v4.94h-1.58Zm5,7.62c2.32,0,3.84-1.24,3.84-3.08v0c0-2-1.5-3-3.76-3h-3.54v6.16Z"/></svg>