<svg id="front" xmlns="http://www.w3.org/2000/svg" viewBox="0 0 380 160"><defs><style>.cls-1{fill:#3e3d40;}.cls-2{fill:#fff;}.cls-3{fill:#8bb1dc;}.cls-4{fill:#bdd2e9;}.cls-5{fill:#3e3e3e;}</style></defs><title>header-daily</title><path class="cls-1" d="M1,98.09H6.21v24.7H21.67v4.71H1Z"/><path class="cls-1" d="M32.46,112.88v-.09a15.06,15.06,0,0,1,15.41-15.2,14.93,14.93,0,0,1,15.34,15.12v.08A15.07,15.07,0,0,1,47.79,128,14.93,14.93,0,0,1,32.46,112.88Zm25.33,0v-.09c0-5.71-4.16-10.46-10-10.46s-9.91,4.67-9.91,10.38v.08c0,5.72,4.15,10.46,10,10.46S57.79,118.59,57.79,112.88Z"/><path class="cls-1" d="M83.49,102.88H74.16V98.09H98v4.79H88.7V127.5H83.49Z"/><path class="cls-1" d="M109,112.88v-.09a15.38,15.38,0,0,1,30.75-.08v.08a15.38,15.38,0,0,1-30.75.09Zm25.33,0v-.09c0-5.71-4.16-10.46-10-10.46s-9.91,4.67-9.91,10.38v.08c0,5.72,4.16,10.46,10,10.46S134.31,118.59,134.31,112.88Z"/><path class="cls-1" d="M154.38,98.09h21.89v4.71H159.55v8h14.83v4.7H159.55v12h-5.17Z"/><path class="cls-1" d="M188.78,112.88v-.09a15.38,15.38,0,0,1,30.75-.08v.08a15.38,15.38,0,0,1-30.75.09Zm25.33,0v-.09c0-5.71-4.16-10.46-10-10.46s-9.91,4.67-9.91,10.38v.08c0,5.72,4.16,10.46,10,10.46S214.11,118.59,214.11,112.88Z"/><path class="cls-1" d="M232.88,112.88v-.09a15.38,15.38,0,0,1,30.75-.08v.08a15.38,15.38,0,0,1-30.75.09Zm25.33,0v-.09c0-5.71-4.16-10.46-10-10.46s-9.91,4.67-9.91,10.38v.08c0,5.72,4.16,10.46,10,10.46S258.21,118.59,258.21,112.88Z"/><path class="cls-1" d="M283.91,102.88h-9.33V98.09h23.86v4.79h-9.32V127.5h-5.21Z"/><path class="cls-1" d="M307.18,121.74h5.58v5.76h-5.58Z"/><path class="cls-1" d="M328.09,98.09h5.17V127.5h-5.17Z"/><path class="cls-1" d="M348.21,112.88v-.09a15.38,15.38,0,0,1,30.75-.08v.08a15.38,15.38,0,0,1-30.75.09Zm25.33,0v-.09c0-5.71-4.16-10.46-10-10.46s-9.91,4.67-9.91,10.38v.08c0,5.72,4.16,10.46,10,10.46S373.54,118.59,373.54,112.88Z"/><path class="cls-1" d="M60.83,144.8h6A5.14,5.14,0,0,1,70.45,146a3.11,3.11,0,0,1,.9,2.24v0a3.38,3.38,0,0,1-2.22,3.24c1.66.5,3,1.46,3,3.38v0c0,2.4-2,3.82-5.08,3.82H60.83Zm5.7,6.24c1.9,0,3.22-.86,3.22-2.5v0c0-1.38-1.1-2.28-3.1-2.28H62.39V151Zm.56,6.34c2.12,0,3.44-.94,3.44-2.5v0c0-1.52-1.28-2.4-3.72-2.4H62.39v4.94Z"/><path class="cls-1" d="M83.05,153.26l-5.82-8.46h1.92l4.72,7,4.76-7h1.84l-5.82,8.44v5.56h-1.6Z"/><path class="cls-1" d="M107,144.8h4.86c4.4,0,7.44,3,7.44,7v0c0,3.94-3,7-7.44,7H107Zm4.86,12.54a5.42,5.42,0,0,0,5.8-5.5v0a5.45,5.45,0,0,0-5.8-5.54h-3.28v11.08Z"/><path class="cls-1" d="M130.89,144.7h1.48l6.38,14.1h-1.7l-1.64-3.7h-7.62l-1.66,3.7h-1.62Zm3.9,9-3.18-7.14-3.2,7.14Z"/><path class="cls-1" d="M145.65,144.8h1.58v14h-1.58Z"/><path class="cls-1" d="M155.33,144.8h1.58v12.54h7.88v1.46h-9.46Z"/><path class="cls-1" d="M173.49,153.26l-5.82-8.46h1.92l4.72,7,4.76-7h1.84l-5.82,8.44v5.56h-1.6Z"/><path class="cls-1" d="M197.43,144.8h4.86c4.4,0,7.44,3,7.44,7v0c0,3.94-3,7-7.44,7h-4.86Zm4.86,12.54a5.42,5.42,0,0,0,5.8-5.5v0a5.45,5.45,0,0,0-5.8-5.54H199v11.08Z"/><path class="cls-1" d="M216.11,148.64c1-.36,1.42-.88,1.34-1.74h-.72v-2.1h1.84v1.8a2.46,2.46,0,0,1-2.22,2.74Z"/><path class="cls-1" d="M226.11,144.8h1.58v14h-1.58Z"/><path class="cls-1" d="M235.79,144.8h1.48L246.09,156V144.8h1.54v14h-1.26l-9-11.48V158.8h-1.54Z"/><path class="cls-1" d="M255.73,144.8h1.58v14h-1.58Z"/><path class="cls-1" d="M269.11,146.26h-4.7V144.8h11v1.46h-4.7V158.8h-1.6Z"/><path class="cls-1" d="M282.51,144.8h1.58v14h-1.58Z"/><path class="cls-1" d="M292.19,144.8h10.12v1.44h-8.54V151h7.64v1.44h-7.64v4.9h8.64v1.44H292.19Zm6.44-3.82,1.58.72-2.3,1.86h-1.28Z"/><path class="cls-1" d="M308.67,156.76l1-1.16a6.67,6.67,0,0,0,4.8,2c1.88,0,3.12-1,3.12-2.38v0c0-1.3-.7-2-3.64-2.66-3.22-.7-4.7-1.74-4.7-4v0c0-2.2,1.94-3.82,4.6-3.82a7.3,7.3,0,0,1,4.92,1.72l-.92,1.22a6.15,6.15,0,0,0-4-1.52c-1.82,0-3,1-3,2.26v0c0,1.32.72,2.06,3.8,2.72s4.56,1.82,4.56,4v0c0,2.4-2,4-4.78,4A8.19,8.19,0,0,1,308.67,156.76Z"/><path class="cls-2" d="M190.31,12.71A28.29,28.29,0,1,0,218.6,41,28.32,28.32,0,0,0,190.31,12.71Zm0,2.39a25.93,25.93,0,0,1,24.6,17.81L197.54,43.73l-15.23-8.27L165,46.31A25.9,25.9,0,0,1,190.31,15.1Zm0,51.8a25.93,25.93,0,0,1-24.67-18L182.4,38.37l15.23,8.26,18-11.19a25.92,25.92,0,0,1-25.3,31.46Z"/><path class="cls-3" d="M190.31,66.9a25.93,25.93,0,0,1-24.67-18L182.4,38.37l15.23,8.26,18-11.19a25.92,25.92,0,0,1-25.3,31.46Z"/><path class="cls-4" d="M190.31,15.1a25.93,25.93,0,0,1,24.6,17.81L197.54,43.73l-15.23-8.27L165,46.31A25.9,25.9,0,0,1,190.31,15.1Z"/><path class="cls-5" d="M224.58,41c0-4,3.68-8.47,2.52-12s-6.87-5.19-9.12-8.28-1.93-9-5-11.22S204.4,9.3,200.69,8.1,194,2,190,2s-7.11,4.94-10.69,6.1-9.15-.9-12.24,1.35-2.78,8.1-5,11.22S154.1,25.23,152.9,29,155.42,37,155.42,41s-3.68,8.47-2.52,12,6.87,5.19,9.12,8.28,1.93,9,5,11.22,8.53.15,12.24,1.35S186,80,190,80s7.11-4.94,10.69-6.1,9.15.9,12.24-1.35,2.78-8.1,5-11.22,7.92-4.56,9.12-8.28S224.58,45,224.58,41ZM190.31,69.29A28.29,28.29,0,1,1,218.6,41,28.32,28.32,0,0,1,190.31,69.29Z"/></svg>