<svg id="Péno_color" data-name="Péno color" xmlns="http://www.w3.org/2000/svg" viewBox="0 0 704.19 601.8"><defs><style>.cls-1,.cls-29{fill:#fff;}.cls-14,.cls-2{fill:#3e3d40;}.cls-3{fill:#f43b51;}.cls-4{fill:#4c1542;}.cls-5{fill:#fdf161;}.cls-6{fill:#4747c4;}.cls-7{fill:#3731b9;}.cls-18,.cls-19,.cls-26,.cls-28,.cls-33,.cls-8{fill:none;stroke-miterlimit:10;}.cls-26,.cls-33,.cls-8{stroke:#3e3d40;}.cls-33,.cls-8{stroke-width:1.5px;}.cls-9{fill:#e6e6e6;}.cls-10{fill:#ccc;}.cls-11,.cls-16{fill:#2d7fbc;}.cls-12{fill:#f9da39;}.cls-13,.cls-15{fill:#da4843;}.cls-14,.cls-15,.cls-16,.cls-23,.cls-29,.cls-30,.cls-33{fill-rule:evenodd;}.cls-17{fill:#435e77;}.cls-18{stroke:#bc1e1e;}.cls-19{stroke:#e0dcdc;}.cls-20{fill:#e0dcdc;}.cls-21,.cls-23{fill:#eab694;}.cls-22{fill:#395366;}.cls-24{fill:#bc9e6d;}.cls-25{fill:#857655;}.cls-26{stroke-width:2px;}.cls-27{fill:#77522a;}.cls-28{stroke:#8e6b49;}.cls-30{fill:#563617;}.cls-31{fill:#b25252;}.cls-32{fill:#a53d3d;}</style></defs><title>Podium</title><path class="cls-1" d="M628.38,310.8c-3.15-2.32-6.31-5.31-7.15-8.3,7.37-8.89,8.48-25.15-.85-38.37-10.36-14.67-28.22-11.35-34.68-4.85l-3.82-4.65c-12.67,2.83-19.5,16.33-19,26.5l0.11,0.22c10.06-1.52,19.86,1.42,25.39,6,6.33-5.67,21.06-6,17.17,7.17-3.53,12-10,19.63-17.24,24.33l0,0a30.54,30.54,0,0,1,3.73,6.46c2.3,4.24,9.12,5.47,8.64-4.77,1.44,9.76,11.47,6,9-1.09,4.43,10.38,12.8,3.66,10.49-3.63C623.85,323.91,638.89,318.55,628.38,310.8Z"/><path class="cls-2" d="M572.22,270.28c2.06,1.41,2.2,1.84,1.19,4.1a4.53,4.53,0,0,1-1.5,2.38,3.36,3.36,0,0,1-3.21.27,2.8,2.8,0,0,1-1.46-2.81,15.39,15.39,0,0,1,1.68-5.91A2.22,2.22,0,0,1,571,267a11.58,11.58,0,0,1,2.36.26c0.91,0.21,2.09.48,2.08,1.59s-1.31.89-2.06,1.19A6.12,6.12,0,0,1,572.22,270.28Z"/><path class="cls-2" d="M581.7,273a0.56,0.56,0,0,0,.11.24c2.59,1.34,3,3.26,1.07,5.45a1.79,1.79,0,0,1-1.46.68c-0.64,0-1.27-.09-1.91-0.11-2.19-.08-2.67-0.63-2.44-2.74a19.14,19.14,0,0,1,1.2-4.87c0.85-2.19,4.28-2.64,5.77-.81a1.24,1.24,0,0,1-.48,2C582.94,273.17,582.3,272.76,581.7,273Z"/><path class="cls-3" d="M589.79,297.05c-3.67,4.75-11.83,6.33-15.75,6.33a41.12,41.12,0,0,1-6.16-.53v0c-1.17,4.17-1.5,12.25-13.5,19.92C584.88,319.89,589,301.64,589.79,297.05Z"/><path class="cls-3" d="M626.7,279.8a36.31,36.31,0,0,0-6.32-15.66c-10.63-15.06-29.17-11.17-35.17-4.33-0.83-1.83-6.83-9-8.5-13-8.88-21.31,22.5-32.17,26.17-9.67,19.67-11.5,27.17,5.5,21.33,15,18.33,1.67,13.57,22.95,2.67,28Z"/><path class="cls-4" d="M651.23,445.74a25,25,0,0,0-8.54,1.5,13,13,0,0,0-4.71-3.5c-2.69-1-16.44-1.06-18.81.56-1.57,1.07-1.25,6.38,2.06,8.06-5.87,1.75-10.91,8.78-10.57,16.61l66.72,0.39C675.73,456,660.67,445.8,651.23,445.74Z"/><path class="cls-4" d="M563.38,454.47c-0.33-3.67-20.33-9.67-23-6.83-2,2.12.83,6.17,0.83,6.17l3,1.33c-24-9.67-39.7,3.71-39.53,13.71l53.19,0.39c3.67-2.83-1.49-9.11-.82-10.11S563.57,456.63,563.38,454.47Z"/><path class="cls-3" d="M544.54,430.64c-0.66,2.33,1.74,4.07,4.31,5.24L545.25,447a47.3,47.3,0,0,1,10,2.42l1.62,0.37c1.33-2.67,2.17-8.5,3.67-9.33s7-.86,8-2.67C571.21,433,546,425.54,544.54,430.64Z"/><path class="cls-3" d="M619,437.16c1.48,0.82,1.56,3.72,2.79,6.37a61,61,0,0,1,10.84-.44l1.78-.12-3.48-10.5c2.63-1.19,5.08-3,4.4-5.35-1.49-5.2-27.22,2.38-24.49,7.31C611.82,436.28,617.43,436.31,619,437.16Z"/><path class="cls-5" d="M555.06,418.88l0,0.09-3.17,10.17L564.71,433l3.33-9.33v-0.12C565.05,420.84,559.69,418.48,555.06,418.88Z"/><path class="cls-5" d="M623.59,412.17a13,13,0,0,0-13.17,4.23L616.54,429l12.33-3.5-5.17-13Z"/><path class="cls-1" d="M631.23,381.82l-0.36.82c-35.67-12.77-67.21-13.82-91.33-3.47,1.69,11.39,7.47,21.14,15.81,26.42l-3,13.88c6.5-2.5,16.33,2.83,17.83,6.83l6-14.5c6.83,3.83,20.33,4.17,29-.5l0,0,4.14,6.35c3.83-5,10.17-8.17,18.5-3.83L623.71,402C627.68,397.16,630.1,389.93,631.23,381.82Z"/><path class="cls-3" d="M569.64,325.13c-7.15,7.78-1.48,23.57,9.73,17v-0.05a7.14,7.14,0,0,0,3.66,1.13c10,0.5,15.23-11,5.3-24.44A40.65,40.65,0,0,1,569.64,325.13Z"/><path class="cls-6" d="M632,316.34c-0.44,4.12-9.15,5.37-11.79-.59,2.32,7.29-6.05,14-10.49,3.63,2.43,7.09-7.59,10.85-9,1.09,0.47,10.24-6.34,9-8.64,4.77,4.33,10.43-.69,18.4-9,18a7.14,7.14,0,0,1-3.66-1.13v0.05c-10.61,6.21-16.24-7.58-10.77-15.68L566,325.39c-22,15-29,36.34-26.41,53.78,24.12-10.35,55.66-9.3,91.33,3.47l0.33-.76c2.07-14.69-.05-32.32-4.74-43.87l-0.09-.2c3.5,1.5,14.17,12.33,14.5,19.5l0.28-.08A29.33,29.33,0,0,1,646,355.3a21.74,21.74,0,0,1,5.1-1l0.74-.21C652.68,346.4,637,320.61,632,316.34Z"/><path class="cls-1" d="M603.21,340.3a56.27,56.27,0,0,0,7.83.83,64.28,64.28,0,0,0,7.67-.83s0.83,11.33.17,12.33-6,5-7,4.83c-1.62-.2-8.1-4.74-8.17-4.83C603.22,352,603.21,340.3,603.21,340.3Z"/><path class="cls-2" d="M609.7,344.07a2.63,2.63,0,0,1,1,1.54,1.29,1.29,0,0,1-.26,1.09c-0.33.66-.34,0.72-0.22,1,0.27,0.55.85,0.59,0.85,1.81a2.07,2.07,0,0,1-.62,1.65,2.24,2.24,0,0,1-3,.16,3.16,3.16,0,0,1-1-1.79,2.08,2.08,0,0,1,.7-1.65l0.35-.42-0.24-.22a2.32,2.32,0,0,1-.62-1.19,1.3,1.3,0,0,1,.22-0.92A2,2,0,0,1,608,344,2.49,2.49,0,0,1,609.7,344.07ZM608,348.32a1.44,1.44,0,0,0-.58,1.46,1.3,1.3,0,0,0,1.56,1.12,1.34,1.34,0,0,0,.87-0.38,1.28,1.28,0,0,0,.52-1.25,1.43,1.43,0,0,0-.72-1.18A1.22,1.22,0,0,0,608,348.32Zm-0.34-2.53a0.91,0.91,0,0,0,.35.72,1,1,0,0,0,.85.41,0.79,0.79,0,0,0,.82-0.24A1.2,1.2,0,1,0,607.61,345.79Z"/><path class="cls-2" d="M615.53,344c0.08,0.13,0,4.49.15,4.73a0.33,0.33,0,0,0,.28.16,0.56,0.56,0,0,1,.52.45,0.58,0.58,0,0,1-.57.45l-0.29.06,0,0.86a4.48,4.48,0,0,1-.12,1,0.45,0.45,0,0,1-.58,0,4.2,4.2,0,0,1-.07-1V349.8l-1.45,0c-1.78-.06-2-0.15-2-0.75a4.91,4.91,0,0,1,.94-1.52,19.36,19.36,0,0,0,1.52-2.19,3.9,3.9,0,0,1,1.1-1.33A0.67,0.67,0,0,1,615.53,344Zm-0.83,1.75a6.48,6.48,0,0,0-1.3,1.7,8.36,8.36,0,0,0-.84,1.38,6,6,0,0,0,1.13.06h1.07l0-1.09C614.8,346.16,614.82,345.75,614.7,345.71Z"/><path class="cls-1" d="M675.88,386.14c-0.67-2.33-4.25-10.06-4.83-12-2.17-7.17-9-11.33-16.67-14.5h0c8,0.34,4.18-8.14-8.34-4.33-13.17,4-9.33,9.67-4.83,8.83l0.87-.4c-3.52,3.61.06,12.1-.37,14.56-0.5,2.83-1.67,4.33-4.17,8.33s4,8.17,7,4.67c1.39-1.62,3.67-8.33,7.17-7.17,4.91,1.64,2,8.83.17,13s-1.17,12.67,6,8.83a11,11,0,0,0,4.91-5.1c0.74,3.38,6.65,2.71,8.26-3.06a8.19,8.19,0,0,0,.25-1.48l0.42,0.32C677.38,397,676.58,388.58,675.88,386.14Z"/><path class="cls-5" d="M588.38,287.3c-11.17-9.17-39.83-11.83-52.75,15.75C549,296,562,303.39,574,303.39c3.92,0,12.08-1.58,15.75-6.33-0.83,4.58-4.92,22.83-35.42,25.75,8.67,5.17,41.33,5,51.17-28.33C609.44,281.27,594.71,281.64,588.38,287.3Z"/><path class="cls-7" d="M541.54,293.14l0.21,0.23a35,35,0,0,1,9.58-8,41.45,41.45,0,0,0-4.46-5c-3.67-3.67-14.08,4.42-10.17,8.33A59,59,0,0,0,541.54,293.14Z"/><path class="cls-7" d="M567.88,302.89v0l0.28,0c-6.53-1-13.32-3-20.25-2.9l0.13,0.14,15.3,14.47C566.72,309.85,567.13,305.56,567.88,302.89Z"/><path class="cls-7" d="M569.27,303l0.57,0.07Z"/><path class="cls-1" d="M536.71,288.64c-3.92-3.92,6.5-12,10.17-8.33l0.4,0.41,0.09-.09,0.68,0.55c5.14-5.88.85-8.07-3.67-7.7l-0.06-.12c6.29-8.57-5.6-9.91-3.27-15.55,1.5-3.62,7.63-.87,7.25-6.12s-9.87-8-13.62-2.5-0.87,7.62-1.25,8.12c-0.22.29-1.81,1.15-3.14,2.2-2.2-7.12-22.93-16.55-28.48-13.08-4,2.5-1.5,5.63-1.5,5.63v0.27a8.42,8.42,0,0,0-5.74,2.11c-3.14,3,3.38,7.87,6.5,9l0.16,0,0,0.1c-4.12.44-9.07,3.57-7.81,6.19,1.63,3.38,9.29,4.16,10.88,5.5S515,290.05,529,287.43l-0.1-.11,0.19,0.06c-2.48,4.6,4.6,5.13,8.57,2.24Z"/><path class="cls-8" d="M634.23,453.18c1.81-3.44,9.19-7.49,17-7.44,9.44,0.06,24.49,10.23,26.14,23.63"/><path class="cls-8" d="M623.21,331.64c10,15.17,13.17,55,.5,70.33l4.17,11.83c-8.33-4.33-14.67-1.17-18.5,3.83l-7.17-11"/><path class="cls-8" d="M566,325.39c-41.25,28.17-29.75,78.25-1.42,83.92"/><path class="cls-8" d="M555.38,405.47l-3,14c6.5-2.5,16.33,2.83,17.83,6.83l6-14.5c6.83,3.83,20.33,4.17,29-.5"/><path class="cls-8" d="M610.66,469c-0.33-7.83,4.7-14.86,10.57-16.61-3.31-1.69-3.63-7-2.06-8.06,2.38-1.62,16.13-1.56,18.81-.56a13.25,13.25,0,0,1,4.81,3.63"/><path class="cls-8" d="M539.21,379.3c24.17-10.5,55.83-9.5,91.67,3.33"/><line class="cls-8" x1="568.04" y1="423.64" x2="564.71" y2="432.97"/><line class="cls-8" x1="555.04" y1="418.97" x2="551.88" y2="429.14"/><path class="cls-8" d="M504.67,468.85c-0.17-10,15.53-23.38,39.53-13.71"/><path class="cls-8" d="M557.86,469.24c3.67-2.83-1.49-9.11-.82-10.11s6.53-2.51,6.33-4.67c-0.33-3.67-20.33-9.67-23-6.83-2,2.12.83,6.17,0.83,6.17"/><path class="cls-8" d="M556.88,449.8c1.33-2.67,2.17-8.5,3.67-9.33s7-.86,8-2.67c2.67-4.83-22.54-12.26-24-7.17-1.33,4.67,9.67,7,9.67,7"/><line class="cls-8" x1="545.21" y1="447.14" x2="548.88" y2="435.8"/><path class="cls-8" d="M621.88,443.8c-1.36-2.72-1.38-5.79-2.91-6.64s-7.15-.88-8.16-2.72c-2.72-4.93,23-12.51,24.49-7.31,1.36,4.76-9.87,7.14-9.87,7.14"/><line class="cls-8" x1="634.38" y1="442.97" x2="630.87" y2="432.4"/><line class="cls-8" x1="610.38" y1="416.3" x2="616.54" y2="428.97"/><line class="cls-8" x1="623.71" y1="412.47" x2="628.88" y2="425.47"/><path class="cls-8" d="M603.21,340.3a56.27,56.27,0,0,0,7.83.83,64.28,64.28,0,0,0,7.67-.83s0.83,11.33.17,12.33-6,5-7,4.83c-1.62-.2-8.1-4.74-8.17-4.83C603.22,352,603.21,340.3,603.21,340.3Z"/><path class="cls-8" d="M640.88,357.3c-0.33-7.17-11-18-14.5-19.5"/><path class="cls-8" d="M631.54,316c4.33,2.83,21.17,30.17,20.33,38.17"/><path class="cls-8" d="M662.71,389.8c2,4,2.33,12.33-4.83,16.17s-7.83-4.67-6-8.83,4.74-11.36-.17-13c-3.5-1.17-5.78,5.55-7.17,7.17-3,3.5-9.5-.67-7-4.67s3.67-5.5,4.17-8.33-4.33-13.67,2.5-15.83"/><path class="cls-8" d="M641.21,364.14c-4.5.83-8.34-4.82,4.83-8.83,13.67-4.17,17,6.33,5.83,4"/><path class="cls-8" d="M654.38,359.64c7.67,3.17,14.5,7.33,16.67,14.5,0.59,1.94,4.17,9.67,4.83,12s1.5,10.83-4.17,10.5"/><path class="cls-8" d="M662.71,400.47c0.33,3.83,6.67,3.33,8.33-2.67s-4.17-14-4.17-14"/><path class="cls-8" d="M567.88,302.89c-1.17,4.17-1.5,12.25-13.5,19.92,8.67,5.17,41.33,5,51.17-28.33,3.89-13.2-10.83-12.83-17.17-7.17-11.17-9.17-39.83-11.83-52.75,15.75C549,296,562,303.39,574,303.39c3.92,0,12.08-1.58,15.75-6.33-0.83,4.58-4.92,22.83-35.42,25.75"/><path class="cls-8" d="M569.71,325.05c-7.25,7.75-1.58,23.67,9.67,17.08"/><path class="cls-8" d="M578.79,323.39c-3.67,3.5-5.75,19.33,4.25,19.83s15.25-11.08,5.25-24.5"/><line class="cls-8" x1="548.04" y1="300.14" x2="563.38" y2="314.64"/><path class="cls-8" d="M541.54,293.14a59,59,0,0,1-4.83-4.5c-3.92-3.92,6.5-12,10.17-8.33a34.1,34.1,0,0,1,4.67,5.33"/><path class="cls-8" d="M562.88,281.14c-0.5-10.17,6.33-23.67,19-26.5"/><path class="cls-8" d="M619.54,304.3c8.83-8.33,10.83-26,.83-40.17-10.63-15.06-29.17-11.17-35.17-4.33-0.83-1.83-6.83-9-8.5-13-8.88-21.31,22.5-32.17,26.17-9.67,19.67-11.5,27.17,5.5,21.33,15,18.33,1.67,13.57,22.95,2.67,28"/><path class="cls-8" d="M591.71,324.47c1.83,4.83,9.5,6.83,9-4,1.5,10.17,12.33,5.67,8.67-2,4.5,12.17,14,4.17,10.5-3.67,2.83,9.5,19.4,4,8.5-4-3.17-2.33-6.33-5.33-7.17-8.33"/><path class="cls-8" d="M569.54,262.47c2.83-1.67,6.17-.67,7.33,1.33"/><path class="cls-8" d="M583.71,264.64c11.83-4.5,21.33,12.67,3.67,18.33"/><path class="cls-8" d="M540,274.68c4.88-2.62,14.88-1.37,8,6.5"/><path class="cls-8" d="M537.79,289.55c-4.5,3.38-13.25,2.25-7-4.37"/><path class="cls-8" d="M544.17,273.55c6.63-8.75-5.48-10.06-3.12-15.75,1.5-3.62,7.63-.87,7.25-6.12s-9.87-8-13.62-2.5-0.87,7.62-1.25,8.12-4.75,2.63-5,4.63,2.25,5.75,1.25,7.5-3.12,5.63-3.12,5.63"/><path class="cls-8" d="M530.29,259.55c-2.12-7.12-22.94-16.6-28.5-13.12-4,2.5-1.5,5.63-1.5,5.63"/><path class="cls-8" d="M516.42,258.93c-4.37-4.37-16.5-9.62-21.87-4.5-3.14,3,3.38,7.87,6.5,9"/><path class="cls-8" d="M510.54,266.8c-3.75-2-4.37-3.37-8.37-3.37-4.25,0-10.11,3.43-8.75,6.25,1.63,3.38,9.29,4.16,10.88,5.5S515,290.05,529,287.43"/><path class="cls-9" d="M422,27.8c-10.41-15.26-20.71-24.92-24.15-24-3.08.82-4.92,5.15-4.81,9.13l0.07,0.1a1.8,1.8,0,0,0-.21,0c-2.69.74-4,3.14-4,6.56l28.55,41.85c2.29,1,6.34.23,7.57-1.33a1.77,1.77,0,0,0,.18-0.35l0.12,0.18c2.65,1.24,8.84.89,10.22-.91C437.69,56.22,432.39,43.06,422,27.8Z"/><path class="cls-10" d="M402.76,49.55c6.44,8.27,12.45,13.41,14.46,12,2.46-1.68-1.38-11.58-9.26-23.14s-16.83-20.39-19.29-18.72c-2,1.36.52,8.67,5.75,17.54"/><path class="cls-9" d="M401.4,51L401,50.65l2.3-1.57c6.26-4.27-2-16.27-8.22-12l-2.23,1.52,0-.17-3.22-4.72a5,5,0,0,0-6.94-1.31l-16.2,11.05-0.07.07a21.84,21.84,0,0,0-7.38-3.6c-21-5.54-60.72,35.82-64.11,45.92-1.43,4.26.28,9.37-1.1,11.16L271.16,113l-3.28,2c-0.59.36-2-1.31-3.92-.59s-1.9,3.21-2.49,3.21-2.26-2-4-2.14-5.94,2.85-8,2.85-1.43-.83-2.49-1.19-0.59,0-1.9.12-2.73-2.73-3.92-2.61-0.24.48-1.54,2.14l0.18,0.31c-2.46-1.82-4.64-2.66-6-1.61a3.9,3.9,0,0,0-1.66,2.35,2.59,2.59,0,0,0-1.31.38c-4.75,3,3.44,19.24,7.6,25.65,4.8,7.41,15.32,21.38,19.59,19a2,2,0,0,0,.68-0.62l0,0a4.17,4.17,0,0,0,3.07-1.18c0.92-.74,1.26-2.29,1.17-4.34l0,0.06c2.07-.58,3.52.27,4.28-0.71s0.3-2.58,1.12-3.67,0.86-.48,1.15-1.61-0.75-1,.36-2.82,5.91-3.85,6.79-5.48,0.08-4.16.41-4.68,2.84,0.61,4.34-.86c2-2,1.77-5.47,2.4-5.81s22.22-6,22.22-6l11.64-.48c10.81,3.41,70.1-22.33,70.13-44.68a23.11,23.11,0,0,0-1-6.31l0.19,0,16.2-11a5,5,0,0,0,1.31-6.95ZM383.24,37.3a2.56,2.56,0,0,1,3.55.67l2.06,3,0.14,0.2-11.19,7.63L378,49.15a16.34,16.34,0,0,0-7.68-3l0,0Zm1.84,31.46,0.46,0.6-0.05,0-0.1.09Zm13.81-8.51L386,69.06a16.63,16.63,0,0,0,0-8.17l11.19-7.63,0.26,0.32,2.12,3.11A2.56,2.56,0,0,1,398.89,60.25Z"/><path class="cls-11" d="M434.36,402.34l-0.27-.16c-12.58-18.33-12.22-63.25-10.42-75.11l0-.15c11.69-1.21,22.77-6.3,28.79-18.54,11.14-22.64,9-61.8-14-78.69l0.48-.09-0.66.11c-15.49,2.34-18.25-14.86-30.5-17-6.81-1.2-12.41,4.48-23.34,4.48-6.34,0-16.45-2.35-19.07-11.2-0.69,4-2.44,7.51-5.42,7.87-4.83.57-6-3.1-5.06-8.74-0.6,1.68-3,6.67-7.59,4-4-2.29-1.43-10.74,3.42-15a60.7,60.7,0,0,1-24.8-19.8c2.82-3.89,7.73-7.33,13.47-10.23l-0.22-.35c-8.83-5.19-22.07-21.76-22.69-26.79s1.46-9.59,1.16-12.23-4.1-15.72-13-14.71a13.75,13.75,0,0,0-4.32,1.21c-0.54-2.55-3.53-12.66-7.35-15.11-4.69-3-8.38.07-8.24,2.77h0c-4.37.73-6.76,3.59-6.31,6.48,0.08,0.52.2,1,.31,1.57l-0.38-.68c-7.19-1.8-8.43,1.8-7.19,6.21,1.06,3.78,5.77,9.65,7.9,11.77s6.48,1.88,7-4.25l-0.15-.26,0.08,0.08c2.82,2.32,6.5-.15,6.94-0.75l0.25-.1c0,0.13-.08.24-0.09,0.28-0.93,4.34,3.35,5.49,5.73,2.86,1.47-1.63,2.4-3,4.41-3s5.19,2.86,4.34,4.49a6.47,6.47,0,0,1-1.18,1.45l-0.29.18s-21.59,5.71-22.22,6-0.37,3.81-2.4,5.81c-1.49,1.47-4,.34-4.34.86a5.08,5.08,0,0,0,0,1.84l0.14,0.38c0.82,1.54,2.79,4.76,6.45,3.55l0.32,0s23.86,43.75,43.14,80.73C346.28,261,334.25,350,307.82,404a46.05,46.05,0,0,0-17.34.92c-8.75,2.46-21.86,18.24-8.74,21.52L345,426.57c-5.24-13.36,8.65-67,32.21-67.57,22.78-.52,15.19,56.31,14.67,67.31l64.51,0.31C457.75,418,450.36,403.43,434.36,402.34Z"/><path class="cls-1" d="M385.59,261.45a34.57,34.57,0,0,1,9-3.12c1.14-.18,2.6-2.54,2.45-3.78a0.82,0.82,0,0,0-.75-0.77,0.55,0.55,0,0,0-.59.58c-0.05.44,0.08,1.06-.64,1a1.15,1.15,0,0,1-1-1.17,1.78,1.78,0,0,1,1.18-2.06,2.88,2.88,0,0,1,3.17.9,2.39,2.39,0,0,1,.28,3.19c-0.23.4-.47,0.79-0.83,1.39,1.63,0.39,3-.12,4.43-0.29,0.6-.07.58-0.57,0.5-1.09-0.37-2.31-.06-2.89,1.52-3.09,2.06-.26,4,1,4.14,2.72,0.08,0.8-.3,1.9,1.17,1.71a1.08,1.08,0,0,0,1-.86c0.1-.46.08-0.94,0.15-1.4a0.74,0.74,0,0,1,.55-0.68,0.82,0.82,0,0,1,.93.52,2.74,2.74,0,0,1,.34,1.11c0,0.91-.38,1.94,1,2.21s1.23-1.07,1.69-1.76a2,2,0,0,1,1.58-1.15c0.16,1-.64,2-0.15,3,2.56-.63,3.47-0.18,4.32,2.24a3.68,3.68,0,0,0,1.13,1.45c2.95,2.8-6.76-.6-9.15-1.35a25.38,25.38,0,0,0-11-.84c-2.68.35-5.39,0.42-8.06,1-1.94.4-10.53,2.47-8.33,0.37Zm20-6.84c-0.6,0-.71.46-0.72,0.91,0,0.62-.5,1.48.56,1.71a0.94,0.94,0,0,0,1.33-.51A2.25,2.25,0,0,0,405.6,254.61Z"/><path class="cls-1" d="M359.56,259c0.85,0.08,1.69.15,2.54,0.25a0.75,0.75,0,0,1,.7.53,0.61,0.61,0,0,1-.42.74c-2.09.58-4.2,1.24-6.37,0.67a2.75,2.75,0,0,1-2.07-2.32,12.4,12.4,0,0,1-.35-3.73c0.31-2.25.55-4.51,0.68-6.78,0.09-1.64.44-1.81,2-1.15a6.37,6.37,0,0,0,2.75.28c1.16,0,2.32-.08,3.49-0.08a0.61,0.61,0,0,1,.7.48,0.67,0.67,0,0,1-.47.72,8.61,8.61,0,0,1-1.33.4c-1,.19-2,0.32-3,0.49a2.29,2.29,0,0,0-1.87,3.05,0.75,0.75,0,0,0,.87.57,5.56,5.56,0,0,1,2.08.06,0.74,0.74,0,0,1,.6.62,0.69,0.69,0,0,1-.54.69c-0.67.19-1.36,0.29-2,.46-1.29.33-1.49,0.79-1.36,2.5a1.5,1.5,0,0,0,1.76,1.66c0.54,0,1.09,0,1.63,0V259Z"/><path class="cls-1" d="M374.71,257.88c0,0.3,0,.61,0,0.91,0,0.64,0,1.33-.78,1.47a1.22,1.22,0,0,1-1.25-.88,7.06,7.06,0,0,1-.25-5.24c0.52-1.52,4.24-2.38,5.55-1.47s1.74,2.62.57,3.72c-1,.89-0.61,1.41.08,2.08a13.65,13.65,0,0,1,.95,1,0.92,0.92,0,0,1,.17,1.26,0.79,0.79,0,0,1-1.22,0,18.92,18.92,0,0,1-1.85-1.41,17.85,17.85,0,0,1-1.44-1.79Zm0.39-1.72c0.85,0,2.06-1.08,1.92-1.71a0.73,0.73,0,0,0-.9-0.52,1.45,1.45,0,0,0-1.69,1.46A0.67,0.67,0,0,0,375.1,256.17Z"/><path class="cls-1" d="M385.63,261.41a3.43,3.43,0,0,1-3.59-1.62,3.24,3.24,0,0,1-.17-3.72,3.29,3.29,0,0,1,3.8-1.55,5.3,5.3,0,0,1,2.78,1.59,2.52,2.52,0,0,1,.68,2.15,1.14,1.14,0,0,1-1,1.12,0.94,0.94,0,0,1-.93-0.87,2.38,2.38,0,0,0-1-1.73,1.94,1.94,0,0,0-2.54.11,2.15,2.15,0,0,0,.4,2.57,3.87,3.87,0,0,0,1,.6,1.24,1.24,0,0,1,.59,1.39Z"/><path class="cls-1" d="M370.63,257.4c0.13,1.65-1.11,2.15-2,2.8a1.9,1.9,0,0,1-2.53-.45,5.48,5.48,0,0,1-2-3.6c0-.71,0-1.51.84-1.7s1.08,0.49,1.33,1.07,0.36,1.2.6,1.77A1,1,0,0,0,368,258a1.11,1.11,0,0,0,.89-0.94c0.21-.56-0.19-1.71.9-1.5C370.6,255.76,370.56,256.79,370.63,257.4Z"/><path class="cls-12" d="M390.62,173.16c4.94,10.58,1.29,18.95-4.94,23.46-7.47,5.4-40.36,4.14-59.79-22.31,9.31-12.88,41.51-20.81,50.82-20.47"/><path class="cls-1" d="M404.29,157.18c-1.28-2-3.65-3-6.41-3l0.22-.15a5.73,5.73,0,0,0-.44-3.83c-2-3.82-8.28-4.48-14.11-1.49s-9,8.52-7,12.33c1.08,2.11,3.5,3.26,6.44,3.36l0.21-.14a7.09,7.09,0,0,0,.41,6.34c2.51,3.88,9.19,4,14.91.32S406.8,161.06,404.29,157.18Z"/><path class="cls-13" d="M471.91,159.47c-15.41-10.3-59.21-15.64-73.59-8.85l-0.31.52a6,6,0,0,1,.07,2.89l-0.22.15c2.77,0,5.13,1,6.41,3,2.51,3.88-.08,10-5.8,13.74a16.15,16.15,0,0,1-7.68,2.66c4.65,10.38,1,18.59-5.12,23a7.62,7.62,0,0,1-.83.51l-0.28.14c-0.23.12-.47,0.23-0.72,0.34l-0.33.13c-0.27.1-.54,0.2-0.84,0.3l-0.34.1-1,.27-0.29.07q-0.6.13-1.24,0.24l-0.19,0c-7,1.15-17.85.2-28.9-4.63-4.85,4.3-7.39,12.75-3.42,15,4.6,2.64,7-2.34,7.59-4-0.92,5.63.23,9.31,5.06,8.74,3-.36,4.74-3.83,5.42-7.87,2.62,8.85,12.73,11.2,19.07,11.2,10.93,0,16.53-5.68,23.34-4.48,12.42,2.18,15.08,19.84,31.16,16.9,10.19-1.86,6.11-8.46,3.43-13.15,9.11,12.51,33.91,16.2,15.2-9.16,12.57,9.55,29.66-2.29,3.45-17.59,21.69,13,17.55-13.53,3.14-16.77C471.06,174.4,485.3,168.42,471.91,159.47Z"/><circle class="cls-2" cx="389.3" cy="163.77" r="1.66"/><circle class="cls-2" cx="382" cy="155.92" r="1.66"/><path class="cls-2" d="M404.88,155a1.24,1.24,0,0,1-.41-0.53c-0.87-2.25.31-3,2.44-3s7.23,4,4.49,10.06c-0.48,1.06-1,1.2-1.12,0s0.86-3.14-.93-4.79a3.2,3.2,0,0,0-2.66-.92,1.63,1.63,0,0,1-1.21-.32Z"/><path class="cls-2" d="M398.73,146.75a1.63,1.63,0,0,0,.82.42c2.27,0.38,2.81-.92,2.41-3s-5.28-6.37-10.71-2.58c-1,.67-1,1.17.21,1.1s2.93-1.42,4.88,0a3.21,3.21,0,0,1,1.38,2.39,1.85,1.85,0,0,0,.6,1.24Z"/><ellipse class="cls-1" cx="403.28" cy="283.49" rx="28.79" ry="28.78" transform="translate(-77.18 393.76) rotate(-48.03)"/><path class="cls-14" d="M422.53,262.09a28.79,28.79,0,1,0,2.14,40.65A28.78,28.78,0,0,0,422.53,262.09Zm1,39.59a27.14,27.14,0,0,1-18.56,9c-0.11-.91,1.61-2.32,1.61-2.32a38,38,0,0,1-6.24,0,6.45,6.45,0,0,1,2.09,2.32,27.2,27.2,0,0,1-24.51-37.05l-0.09.3c2.19-6,6.11-5.63,6.11-5.63a29.38,29.38,0,0,1,1.88-4.17,45.24,45.24,0,0,0-5.69,5.07,27.22,27.22,0,0,1,45.92-.67,34.81,34.81,0,0,0-6.52-5.19,29.21,29.21,0,0,1,2,4.25s3.56-.72,6.6,4.71A27.23,27.23,0,0,1,423.53,301.68Z"/><path class="cls-14" d="M429.71,290.52a25.77,25.77,0,0,1-2.26,5.79s-1.06-.76-7.3,2.58a46.9,46.9,0,0,0,1.74-5.6s4.59,3.63,7.82-2.76h0Z"/><path class="cls-14" d="M419.11,299.5a88.21,88.21,0,0,0-11.88,8.19s-0.52-.16-3.27-2.59c0,0,9.1-.49,11.75-8.47a27.59,27.59,0,0,0,3.41,2.87h0Z"/><path class="cls-15" d="M421.17,292.65s-2.31,1.23-5.19,2.9c0,0,2.55-7.33-4.81-13,0,0,4.56-2.73,5.19-2.9,0,0-.09,7.81,4.81,13h0Z"/><path class="cls-16" d="M394,282.92s-6.52,4.21-4.12,13.14a28.78,28.78,0,0,1-5-2.77s3.93-4,4-13.11c0,0,4.31,2.27,5.08,2.73h0Z"/><path class="cls-14" d="M386.28,299.43a42,42,0,0,1-2.11-5.42s-3.57,3.57-6.79-2.27c0,0,0,1.72,2.17,5.44,0,0-.51-1.51,6.73,2.25h0Z"/><path class="cls-16" d="M410,275.39s0,4.59,0,6.42a14.62,14.62,0,0,0-14.71.17s-0.05-4.09,0-6.14a16.73,16.73,0,0,0,14.7-.45h0Z"/><path class="cls-14" d="M394,275.25a40,40,0,0,0-5.15,3.51s0.46-7.52-4.19-10.29a40.36,40.36,0,0,1,4.91-3.42s-2.59,6,4.44,10.2h0Z"/><path class="cls-14" d="M420.79,268a40.93,40.93,0,0,0-5.21-3.38s2.55,5.49-4.36,10.14a58.72,58.72,0,0,1,5.07,3.35s0.14-8.6,4.5-10.12h0Z"/><path class="cls-15" d="M418.4,262.58a22,22,0,0,0-3.24.92s-2.52-5.4-11.44-6a10.38,10.38,0,0,1,2.93-.89,58.25,58.25,0,0,1,11.76,6h0Z"/><path class="cls-16" d="M401.77,257.61a14,14,0,0,0-11.69,6.31s-2.11-.58-3-0.7c0,0,8-5.5,12-6.53a9,9,0,0,1,2.67.92h0Z"/><path class="cls-16" d="M405,310.64c-0.11-.91,1.61-2.32,1.61-2.32a38,38,0,0,1-6.24,0,6.45,6.45,0,0,1,2.09,2.32q1.27,0,2.54,0h0Z"/><path class="cls-16" d="M419.53,263.34a29.21,29.21,0,0,1,2,4.25s3.56-.72,6.6,4.71a27,27,0,0,0-2.07-3.77,34.81,34.81,0,0,0-6.52-5.19h0Z"/><path class="cls-15" d="M383.94,268.3a29.38,29.38,0,0,1,1.88-4.17,45.24,45.24,0,0,0-5.69,5.07,27,27,0,0,0-2.21,4.43l-0.09.3c2.19-6,6.11-5.63,6.11-5.63h0Z"/><path class="cls-15" d="M399.69,307.9s-5.33-3.65-12.22-7.63l-0.21-.12,3.18-3.07a12.07,12.07,0,0,0,.73,1.42,13.38,13.38,0,0,0,11.22,6.56h0.45l-3.15,2.83h0Z"/><path class="cls-11" d="M430.48,295.73l-3,.91c-4.13,2.25-8.3-7.19-11.64-5-3.63,2.38,1.52,8.42-.63,11.64-2,3-14.39-2.26-21.52-8.14-6-5-10.07-1.1-6.4,5.28,0.19,0.32.39,0.64,0.61,1l-0.09,0h-0.11c-11.86-1.57-9.17,10.16,2.39,13.46l6.82,4.16,13.66-1.14,0-1.67L429.19,312Z"/><path class="cls-10" d="M230.83,118.24c4.37-2.73,14.8,9.8,19.24,16.27,5.7,8.31,12.22,26,8,28.38s-14.79-11.59-19.59-19C234.28,137.48,226.08,121.21,230.83,118.24Z"/><path class="cls-8" d="M281.74,426.44c-13.12-3.28,0-19.06,8.74-21.52,10.66-3,26-.55,31.43,3.55"/><path class="cls-8" d="M345,426.57c-5.24-13.36,8.65-67,32.21-67.57,22.78-.52,15.19,56.31,14.67,67.31"/><path class="cls-8" d="M307.79,404c26.45-54,38.5-143,19.38-179.66-19.28-37-43.14-80.73-43.14-80.73"/><path class="cls-8" d="M230.83,118.24c4.37-2.73,14.8,9.8,19.24,16.27,5.7,8.31,12.22,26,8,28.38s-14.79-11.59-19.59-19C234.28,137.48,226.08,121.21,230.83,118.24Z"/><path class="cls-8" d="M258.74,162.3a4.17,4.17,0,0,0,3.07-1.18c3.8-3.05-2.26-20.07-8-28.38-4.44-6.47-16-20.37-20.05-17.23a3.86,3.86,0,0,0-1.66,2.38"/><path class="cls-8" d="M252.09,121.45c6.89,1.78,15.32,16.15,15.2,24.11"/><path class="cls-8" d="M265.51,119.07c3.68,0.83,9.86,10.93,8.91,15.68"/><path class="cls-8" d="M239.62,116.82c1.31-1.66.36-2,1.54-2.14s2.61,2.73,3.92,2.61,0.83-.48,1.9-0.12,0.48,1.19,2.49,1.19,6.18-3,8-2.85,3.44,2.14,4,2.14,0.59-2.49,2.49-3.21,3.33,1,3.92.59l3.28-2"/><path class="cls-8" d="M263,156.84c2.07-.58,3.52.27,4.28-0.71s0.3-2.58,1.12-3.67,0.86-.48,1.15-1.61-0.75-1,.36-2.82,5.91-3.85,6.79-5.48,0.08-4.16.41-4.68,2.84,0.61,4.34-.86c2-2,1.77-5.47,2.4-5.81s22.22-6,22.22-6"/><path class="cls-8" d="M277.27,140.09c1,1.78,3.44,5.82,8.31,2.61"/><path class="cls-8" d="M456.37,426.62c1.8-11.14-11.14-32.34-38.45-21.2"/><path class="cls-8" d="M434.09,402.18c-12.58-18.33-12.22-63.25-10.42-75.11"/><path class="cls-8" d="M438.43,229.7c23,16.89,25.12,56,14,78.69-13.21,26.85-50.75,19.3-65.7,11.82-3.5-1.75-2.19-7,2.41-5.63,2,0.57,11.73,4.71,17.48,2.41"/><path class="cls-8" d="M390.62,173.16c4.94,10.58,1.29,18.95-4.94,23.46-7.47,5.4-40.36,4.14-59.79-22.31,9.31-12.88,41.51-20.81,50.82-20.47"/><path class="cls-8" d="M361.76,197.65c9.31,0.11,18.63-4.14,20-14.6"/><path class="cls-8" d="M398.33,150.62c14.37-6.78,58.17-1.45,73.59,8.85,13.39,8.95-.86,14.92-7.78,13.47,14.41,3.24,18.55,29.77-3.14,16.77,26.21,15.3,9.12,27.14-3.45,17.59,18.71,25.36-6.09,21.67-15.2,9.16,2.68,4.69,6.76,11.28-3.43,13.15-16.08,2.94-18.74-14.72-31.16-16.9-6.81-1.2-12.41,4.48-23.34,4.48-6.44,0-16.79-2.41-19.2-11.61"/><path class="cls-8" d="M350.84,194c-4.94,4.25-7.58,12.87-3.56,15.18,4.6,2.64,7-2.34,7.59-4-0.92,5.63.23,9.31,5.06,8.74s6.44-9.31,5.52-15.41"/><ellipse class="cls-8" cx="393.93" cy="163.88" rx="12.34" ry="8.38" transform="translate(-25.8 240.47) rotate(-32.93)"/><path class="cls-8" d="M383,164.4c-2.93-.1-5.35-1.24-6.44-3.36-2-3.82,1.18-9.34,7-12.33s12.15-2.33,14.11,1.49a5.73,5.73,0,0,1,.44,3.83"/><path class="cls-8" d="M339.14,163.73c-8.83-5.19-22.07-21.76-22.69-26.79s1.46-9.59,1.16-12.23-4.1-15.72-13-14.71a14.05,14.05,0,0,0-11.54,9.21c-0.93,4.34,3.35,5.49,5.73,2.86,1.47-1.63,2.4-3,4.41-3s5.19,2.86,4.34,4.49-4,3.48-4.57,5.57,0.39,6.81,1.78,8.13"/><path class="cls-8" d="M278.33,106.23c-7.19-1.8-8.43,1.8-7.19,6.21,1.06,3.78,5.77,9.65,7.9,11.77s6.48,1.88,7-4.25"/><path class="cls-8" d="M295,116.12c-4.2-2.95-10.08-14.87-10.29-17.16-0.24-2.72,3.49-5.92,8.24-2.87,4.12,2.65,7.27,14.21,7.43,15.57"/><path class="cls-8" d="M284.7,98.86c-4.37.73-6.76,3.59-6.31,6.48,0.87,5.46,3.56,11.12,7.59,14.44,2.82,2.32,6.5-.15,6.94-0.75"/><path class="cls-8" d="M390.06,314.85c-11.6-3.31-14.27-15.1-2.28-13.45"/><path class="cls-8" d="M402.69,309.53c-4.61.84-12.42-3.89-15.43-9.11-3.67-6.38.38-10.24,6.4-5.28,7.13,5.88,19.52,11.14,21.52,8.14,2.15-3.22-3-9.27.63-11.64,3.34-2.19,7.51,7.26,11.64,5"/><path class="cls-8" d="M338.55,71.95a1.3,1.3,0,0,1,.69.44,8.41,8.41,0,0,1,2.67,3.47,6.5,6.5,0,0,0,2.48,3,4.19,4.19,0,0,1,1.42,1.51,5.57,5.57,0,0,0,1.09,1.51c2.43,2.07,2.31,5,2.79,7.78"/><path class="cls-8" d="M326.79,74.05a15.35,15.35,0,0,0,2.57,2,3.2,3.2,0,0,1,1.53,2.72,3.06,3.06,0,0,0,.8,2.12c2.73,3,4.79,6.54,7.7,9.42,1.35,1.33,1.82,3.26,2.31,5a7.06,7.06,0,0,0,2.72,3.88"/><ellipse class="cls-8" cx="359.79" cy="70.11" rx="9.17" ry="8.05" transform="translate(23.07 214.96) rotate(-34.3)"/><path class="cls-8" d="M317.72,124.69c10.81,3.41,70.1-22.33,70.13-44.68,0-7.45-4.46-15.44-9.35-22.61-5.43-8-11-15.29-19.5-17.52-21-5.54-60.72,35.82-64.11,45.92-1.43,4.26.28,9.37-1.1,11.16"/><path class="cls-8" d="M366.45,43.41l16.2-11.05a5,5,0,0,1,6.94,1.31l3.22,4.72"/><path class="cls-8" d="M387.08,73.65l16.2-11a5,5,0,0,0,1.31-6.95L401.4,51"/><path class="cls-8" d="M369.83,46.44l13.41-9.15a2.56,2.56,0,0,1,3.55.67l2.06,3"/><path class="cls-8" d="M385.49,69.39l13.4-9.15a2.56,2.56,0,0,0,.67-3.56l-2.12-3.11"/><path class="cls-8" d="M377.81,48.82L395.09,37c6.2-4.23,14.48,7.77,8.22,12L385.55,61.19"/><path class="cls-8" d="M386,69.07c2.71-10.22-5.53-21.85-15.64-22.92"/><path class="cls-8" d="M402.76,49.55c6.44,8.27,12.45,13.41,14.46,12,2.46-1.68-1.38-11.58-9.26-23.14s-16.83-20.39-19.29-18.72c-2,1.36.52,8.67,5.75,17.54"/><path class="cls-8" d="M417.43,61.45c2.29,1,6.34.23,7.57-1.33,1.92-2.45-2.53-13.72-11.4-26.72S395.87,12.21,392.87,13c-2.69.74-4,3.14-4,6.56"/><path class="cls-8" d="M425.3,59.95c2.65,1.24,8.84.89,10.22-.91,2.17-2.82-3.13-16-13.54-31.24s-20.71-24.92-24.15-24c-3.08.82-4.92,5.15-4.81,9.13"/><path class="cls-17" d="M106.15,528.77c-6-1.31-16.64-9.32-18.5-14.71-2-5.88,1.24-8.63,3.73-10.77l-0.14-.62c-1.31-.83-7.53-4.49-12.84-4.35-7,.18-22.58,7.39-29.48,14.29,1.59-.41,6.28,3.11,8.42,8.42a8.54,8.54,0,0,1-1.45,9Z"/><path class="cls-18" d="M56.24,507c4.69,0.9,9.6,4.69,10.7,7s1.45,4.76,2.21,6.35,2.42,3.45.62,8.7"/><path class="cls-19" d="M72.39,499.5c3.18,3.24,5.25,7,5.73,9.67s0.24,6.7.83,9.25,2.69,6.49,2.83,10.42"/><path class="cls-18" d="M82.89,498.53c-0.28,4.14-.83,10.61.07,13s2.85,8.09,4.13,10c1.45,2.21,6.9,5,7.17,7.3"/><path class="cls-20" d="M22.41,547.69c-5.75,1-1.39,16.91.84,23.3a1.35,1.35,0,0,0-1.6.63A18,18,0,0,1,20.38,574l-0.25-.14c-1.24.14-1.86-2.9-2.76-3.8-2.07-2.07-4.69-1.52-4.56,3v0.14c-0.2-.39-0.4-0.78-0.61-1.18-2.41-4.47-4.9-.48-4.83,2.28l0,0.1C5.62,571.62,2,571.63,3,576.67c2,9.61,18.47,9.89,22.76,9.55,2.64-.21.87,0.49,6.29-4.08l1.09-33.55C30.42,550.72,24.62,550.86,22.41,547.69Z"/><path class="cls-21" d="M55.89,530a8.54,8.54,0,0,0,1.45-9,17.8,17.8,0,0,0-3.24-5.17l-0.35-.14c-3.31.69-25.75,7.87-28,11.46-2,3.28-.21,8.42-0.28,11.87a14,14,0,0,1-2.89,8.89c2.34,2.89,7.87,2.71,10.55.63v0.11h0.13l0.53-18.51,25.53,0,0.1-.21Z"/><path class="cls-22" d="M49.82,516.82c1.86-.57,3.27-1,3.93-1.1l0.34,0.14c-1.72-1.91-3.55-3.11-4.66-3.25H48.92c-0.83,1.59-.35,2.83.76,4.07Z"/><path class="cls-23" d="M99.26,513.61a51.81,51.81,0,0,1-7.19-11.17l-0.82.28,0.13,0.57c-2.49,2.14-5.76,4.89-3.73,10.77,1.86,5.39,12.5,13.39,18.5,14.71l-20.55.51,0.23,1.84h59l0.26-1.93C120.16,528.38,112.66,529.65,99.26,513.61Z"/><path class="cls-8" d="M32.09,582.13c-5.42,4.57-3.65,3.87-6.29,4.08-4.29.35-20.73,0.07-22.76-9.55-1.11-5.26,2.91-5,4.5-1.87,1.44,2.88,9.41,7.4,14.11-3.18,0.79-1.78,4.5.55,4.5,0.55"/><path class="cls-8" d="M7.36,574.33c-0.07-2.76,2.43-6.75,4.83-2.28,1.45,2.69,2.49,5.32,3.31,6.08"/><path class="cls-8" d="M12.81,573.09c-0.14-4.56,2.48-5.11,4.56-3,0.9,0.9,1.52,3.94,2.76,3.8"/><path class="cls-8" d="M23.31,571.16c-2.21-6.28-6.7-22.51-.9-23.47,2.21,3.18,8,3,10.77.9"/><path class="cls-8" d="M22.62,548a14,14,0,0,0,2.9-8.91c0.07-3.45-1.74-8.6.28-11.87,2.21-3.59,24.65-10.77,28-11.46"/><path class="cls-8" d="M49.68,516.69c-1.1-1.24-1.59-2.49-.76-4.07,1.59-.41,6.28,3.11,8.42,8.42a8.54,8.54,0,0,1-1.45,9"/><path class="cls-8" d="M106.15,528.77c-6-1.31-16.64-9.32-18.5-14.71-2-5.88,1.24-8.63,3.73-10.77l-0.14-.62c-1.31-.83-7.53-4.49-12.84-4.35-7,.18-22.58,7.39-29.48,14.29"/><polygon class="cls-24" points="700.47 469.56 477.59 469.56 477.47 469.57 477.47 426.56 254.59 426.56 254.59 529.49 254.47 529.56 31.59 529.56 31.59 603.38 477.11 602.28 477.47 602.72 477.47 602.27 700.47 601.72 700.47 469.56"/><path class="cls-25" d="M142.73,593.25c-5.39.43-10.21-1.71-15-3.55-2.31-.88-3.92-3-5.49-4.9a14.36,14.36,0,0,0-1.79-2.23,1.19,1.19,0,0,1-.13-1.88,4.67,4.67,0,0,1,1.81-1.53c2.91-1.2,5.71-2.21,8.86-.32,2.45,1.47,5.29,2.2,8,3.09a11.31,11.31,0,0,0,8.18-.45,15.16,15.16,0,0,0,6.18-5.16,2.69,2.69,0,0,0-.67-4,10.21,10.21,0,0,0-4-2.05A21.92,21.92,0,0,1,145,569c-2.92-1.11-3.86-3.36-3.89-6.22,0-.48,0-1,0-1.44,0.14-2.32.15-2.25,2.38-2.75a23.39,23.39,0,0,0,6.71-2.49c1.43-.83,1.43-1.6,0-2.49a10.63,10.63,0,0,0-6.11-1.85,50.41,50.41,0,0,0-5.49.45,11,11,0,0,0-7.59,4.54c-1,1.34-1,1.34-2.32.23-1.7-1.45-3.41-2.9-5.07-4.39a15.15,15.15,0,0,1-1.81-1.92c-1.59-2-1.14-3.66,1.32-4.34,3.46-1,7-1.8,10.46-2.62a49.13,49.13,0,0,1,10.47-1.12A25.37,25.37,0,0,1,155.33,545c5.22,2.46,8.24,7.9,5.1,13.7a14.39,14.39,0,0,1-3.78,4.87c-1.85,1.41-1.79,1.61.16,2.74a14.44,14.44,0,0,1,4.66,3.65c3.33,4.42,3.52,8.88.43,13.47-0.93,1.39-1.85,2.75-2.91,4.06-3.49,4.34-8.23,5.5-13.4,5.76C144.65,593.29,143.69,593.25,142.73,593.25Z"/><path class="cls-25" d="M595,554.81h6.47c2.17,0,3.13.59,3.75,2.59a16.64,16.64,0,0,1,1,6.12c-0.15,2.07-.49,4.12-0.46,6.2a1.74,1.74,0,0,1-1.85,2,9.82,9.82,0,0,1-1.19.14c-6.31-.55-12.6,0-18.9.19-4.56.15-9.09-.55-13.65-0.54-1.44,0-2.87.11-4.31,0.07-2.37-.06-2.91-0.7-2.61-3.05a1.52,1.52,0,0,0-.48-1.5c-1.32-1.07-1-2.4-.7-3.74a20.2,20.2,0,0,1,4.38-9.42,68.47,68.47,0,0,0,4-6.25c3-4.59,6.06-9.2,9.5-13.51a20.35,20.35,0,0,0,3-6.48c0.68-2-.37-3.82-1.78-5.16a12.87,12.87,0,0,0-3.65-2.26c-2.44-1.09-4.46-.48-6.18,1.6s-2.94,4.14-2.26,7a3.94,3.94,0,0,0,1.79,2.93,8,8,0,0,1,1.18.82,1,1,0,0,1,.46,1.24,1.1,1.1,0,0,1-1.2.62c-1.85-.39-3.67.12-5.49,0.09-2.39,0-4.77-.34-7.17-0.26-1.28,0-1.85-.69-2.09-2.07a3.4,3.4,0,0,0-.19-0.92c-1.64-3.31-1.15-6.73-.36-10.08a64.57,64.57,0,0,1,2.53-8,11.59,11.59,0,0,1,7.79-7.5,31.61,31.61,0,0,1,9.19-1.34,54.43,54.43,0,0,1,12.13,1.27,14.68,14.68,0,0,1,9.33,7,21.64,21.64,0,0,1,2.73,15.72,30.6,30.6,0,0,1-4.4,10.82l-8.55,13.56c-0.17.27-.37,0.52-0.54,0.79-0.5.76-.28,1.23,0.61,1.27,1.44,0.07,2.88.1,4.31,0.12,1.28,0,2.56,0,3.84,0v-0.11Z"/><path class="cls-25" d="M348.66,555.27m0,0.08c-2.68-.69-2.8-0.71-2.38,1.94a23.69,23.69,0,0,1,0,8.09,9.89,9.89,0,0,0,.09,3.34,7.08,7.08,0,0,0,1.82,3.83c0.43,0.47.75,0.88,1.35,0.43a1.41,1.41,0,0,1,2.08.08c0.76,0.67,1.83.49,2.78,0.42a42.39,42.39,0,0,0,4.28-.5c1.55-.29,2.93-2.18,4.06-0.67,0.2,0.27,1.38-.5,1.75-0.5l25.5,0.5c3,0.56,5.44,1.42,8.25.35a3.87,3.87,0,0,0,2.06-1.77,6.19,6.19,0,0,0,1-4.24,14.54,14.54,0,0,1,.32-4.52,13.8,13.8,0,0,0-.06-7.12c-0.67-2.08-1.62-2.64-3.78-2.19a38.89,38.89,0,0,1-7.4.61c-1.65,0-1.93-.24-2.2-1.88a16,16,0,0,1-.3-4.29,18.38,18.38,0,0,0,0-4.79,65.49,65.49,0,0,1-.15-15.55c0.39-5,.22-10.06.91-15.06a25.15,25.15,0,0,0,.42-4c-0.17-6.32.41-12.61,0.76-18.91,0.23-4,.23-8,0.51-12,0.24-3.41-.16-6.87-0.25-10.3a17.57,17.57,0,0,1,.19-5c0.41-1.58,0-2.18-1.6-2.43a9.29,9.29,0,0,0-1.91,0c-2.63.15-5.26,0.46-7.89,0.45-3.42,0-6.86.22-10.27-.36-1-.17-1.89-0.18-2.53-1a1,1,0,0,0-1-.57c-0.51.07-2.06,2.64-1.94,3.21a12.35,12.35,0,0,1-1.94,10c-0.67,1-1.31,2-2,3a31.34,31.34,0,0,1-7.76,7.74,16.69,16.69,0,0,1-4.24,2.16,0.91,0.91,0,0,0-.71.86,0.93,0.93,0,0,0,.74.84l-0.67.84c-0.8.17-.75,0.91-0.79,1.55-0.1,1.59-.11,3.19-0.25,4.78-0.27,3-.38,6-0.45,9.05,0,1.7.89,2.35,2.65,2.12a14.53,14.53,0,0,1,3.8-.4c2.61,0.37,4.42-1,6.23-2.42,2.15-1.64,4.45-3,6.82-4.51a2.14,2.14,0,0,1,.44,1.83c-0.6,7.24-.76,14.51-1.78,21.71a100,100,0,0,0-1.11,12.15c-0.07,3.82-.39,7.65-0.81,11.47-0.26,2.37,1.22,5,1.28,7.43l-2.25,2.5c-2.94.17-7-.24-9.89-0.06a1.7,1.7,0,0,0-1.46.71Z"/><polyline class="cls-26" points="254.59 602.38 254.59 426.56 477.47 426.56 477.47 602.72"/><polyline class="cls-26" points="477.59 469.56 700.47 469.56 700.47 601.72"/><polyline class="cls-26" points="31.59 603.38 31.59 529.56 254.47 529.56"/><path class="cls-2" d="M420.6,478.58a4.86,4.86,0,0,0-.63-2,1.23,1.23,0,0,0-1.44-1c-3.2,0-6.88-3.39-7.56-6.56-0.17-.78-0.3-1.57-0.42-2.36s-0.38-1.5.39-2a2.52,2.52,0,0,1,2.73-.1,10.1,10.1,0,0,1,4.55,5.06c0.45,1.18.88,2.38,1.39,3.79A15.84,15.84,0,0,0,422,471c1.09-1,1.64-1,2.64,0,1.64,1.73,2.55,3.67,1.49,6.09-0.64,1.45-1,3-2.49,4-0.7.45-.21,1,0.16,1.4s0.82,0.25,1.17-.16c0.79-.9,1.54-1.85,2.4-2.67a2.52,2.52,0,0,1,4.16.7c0.87,1.73,1.11,3.49-.2,5.19-1.12,1.46-2.17,3-3.23,4.46a3.66,3.66,0,0,0-.66,1.25,1.43,1.43,0,0,0,.6,1.47c0.4,0.28.7-.18,1-0.35,2.57-1.35,4.59-.07,4.51,2.87-0.07,2.73-2.81,6.32-5.53,7.21-0.67.22-1.51,0.19-1.5,1.2a1.2,1.2,0,0,0,.41,1.28,1,1,0,0,0,1-.38,6.61,6.61,0,0,1,.78-0.55c1.8-1,3.31-.25,3.7,1.81a6.2,6.2,0,0,1-1.14,4.78,11,11,0,0,1-6.4,4.23c1.81-2.92,4.93-4.44,4.86-8.12-1.71.53-2.37,1.82-3.34,2.68-2.59,2.3-3.73,2.06-4.85-1.28a32.75,32.75,0,0,0-1.83-3.9,13.7,13.7,0,0,1-1.3-3.59c-0.34-1.93-.09-2.34,1.84-2.86l1-.28c0-1.29-.9-2.1-1.53-3a6.52,6.52,0,0,1-1.19-4.05c0-1.91.54-2.49,2.47-2.87a1.23,1.23,0,0,0,1.13-.53c-0.15-.91-1.12-1.18-1.74-1.7-1-.88-2.2-1.59-3.25-2.45a5.17,5.17,0,0,1-2.31-3.75c-0.1-1.87.59-2.54,2.43-2a27.18,27.18,0,0,1,3.3,1.4c0.48,0.37.89,1,1.63,0.56,2-1.21,2.5-4.83,1.06-6.92-1.62,1.58-1.72,1.81-1.7,4.1C421.62,477.2,421.92,478.24,420.6,478.58Zm5.61,17-0.1-.51c-0.47-2.45-2.43-3.79-4.09-5.31-0.65-.6-1.56,0-1.71.9a5.46,5.46,0,0,0,.12,1.89c0.34,1.85,1.7,3,2.81,4.35,0.44,0.52.91,1.29,1.75,0.81A2.28,2.28,0,0,0,426.22,495.58Zm-13.6-29.41c-0.36,4,.67,5.6,4.58,6.94C416.21,470.38,415.6,467.6,412.62,466.17Zm13,22.85c1.35-1.81,2.53-3.37,3.7-4.94a2.41,2.41,0,0,0,.49-1.55c0-.55,0-1.21-0.67-1.37a1.1,1.1,0,0,0-1.08.77c-0.78,1.37-1.6,2.72-2.28,4.14A3.23,3.23,0,0,0,425.58,489Zm-1.85,17.85c1-4.13,0-6.44-3.23-7.11-0.3.78,0.27,1.36,0.46,2a4.5,4.5,0,0,0,1.71,2.18C423.44,504.57,422.4,506,423.73,506.86Zm2.36-6.08a10.78,10.78,0,0,0,4.5-3.72,3.15,3.15,0,0,0,.61-1.78,0.89,0.89,0,0,0-.41-1,0.75,0.75,0,0,0-.92.54,37.93,37.93,0,0,1-3.6,5.3A1.93,1.93,0,0,0,426.09,500.78ZM421,483.33a6.18,6.18,0,0,0-3-4,0.79,0.79,0,0,0-1.07-.09,0.8,0.8,0,0,0,.14,1.07A10.79,10.79,0,0,0,421,483.33Z"/><path class="cls-2" d="M425.25,529.44a19.32,19.32,0,0,0-3.58,2.24,8.66,8.66,0,0,1-3.92,1.69,1.36,1.36,0,0,1-1.86-1,32.55,32.55,0,0,1-1.41-7c-0.07-2.66,1-3.65,3.63-3.35l2.11,0.25a1.83,1.83,0,0,0-.4-2,20.44,20.44,0,0,1-2.34-5.23,3.73,3.73,0,0,1,.59-3.41,2.54,2.54,0,0,1,4.56.54,8.89,8.89,0,0,1,.51,3.53c0,0.64,0,1.28,0,1.91,0.07,0.87.5,1.09,1.29,0.67,1.4-.76,2.83-1.46,4.22-2.24a2.07,2.07,0,0,1,2.45-.06,2.17,2.17,0,0,1,.68,2.37c-0.53,3.66-4.05,6.79-7.07,6.71a1.19,1.19,0,0,1-1-.45c1.14-2.13,4.18-2.74,4.83-5.34a1.16,1.16,0,0,0-1.44.21c-1.3.78-2.56,1.63-3.84,2.44-1.66,1.05-1.65,1-1,2.94a5.91,5.91,0,0,1,.22.93c0.35,2,.35,2,2.29,1.11a6.44,6.44,0,0,1,2.73-.82,1.6,1.6,0,0,1,1.76,2.16c-0.63,2.92-5,6.72-7.94,6.87a0.7,0.7,0,0,1-.79-0.37,0.74,0.74,0,0,1,.29-0.84c0.64-.59,1.3-1.17,2-1.73A8,8,0,0,0,425.25,529.44Zm-6.65,2a11.86,11.86,0,0,0,1-5.82,1.51,1.51,0,0,0-1.71-1.34c-1,0-1.08.74-1.09,1.51A9.77,9.77,0,0,0,418.6,531.44Zm1.58-15.81c0.18-2.24.16-2.33-.37-2.19A2.33,2.33,0,0,0,420.17,515.63Z"/><path class="cls-2" d="M335.18,532.34c-1.12.93-1.11,2.36-1.21,3.62-0.11,1.47-.1,2.83-1.66,3.61a2.48,2.48,0,0,0-.86,1.13c-0.29.58,0,1,.61,0.89,1.41-.34,2.75-0.79,4.12.2,0.4,0.29.67-.25,0.87-0.58a17.26,17.26,0,0,1,1.36-2.24c1.15-1.37,2.77-1,3.26.74a10.45,10.45,0,0,1-.33,5.2c-0.24,1.08-1.18.82-1.95,0.4-0.39-.21-0.79-0.29-1,0.18a0.76,0.76,0,0,0,.44,1,15,15,0,0,0,4.18,1.74,16,16,0,0,1,5,1.73,11.37,11.37,0,0,1,1.21.76,1,1,0,0,1,.51,1.22,1.05,1.05,0,0,1-1.44.44,3,3,0,0,1-.89-0.34,15.5,15.5,0,0,0-5.18-1.75,8.18,8.18,0,0,1-4.86-2.35,4,4,0,0,0-1.91-.95,20.05,20.05,0,0,1-3.85-1.91,1.36,1.36,0,0,1-1-1.23c0.32-2.06-1.17-2.76-2.54-3.56-1.62-1-3-2-3.39-4.07-0.18-1-1-1.82.05-2.84s2.24-1.84,3.82-1.45a9.26,9.26,0,0,1,1.75.76,2,2,0,0,0,1.33.49,7.23,7.23,0,0,0,1.13-2c0.87-1.43,2.34-2.26,3.52-1.92a3.6,3.6,0,0,1,2.24,3.36,7.17,7.17,0,0,1-1.33,4.74c-0.43.64-.88,1.56-1.85,1.06s-0.38-1.26-.15-1.91a9,9,0,0,0,.61-3A0.91,0.91,0,0,0,335.18,532.34Zm-5.37,7a7.13,7.13,0,0,0-1.17-4.6,1,1,0,1,0-1.92.77A5.5,5.5,0,0,0,329.81,539.3Zm4.24,3.57a0.84,0.84,0,0,0-.91.63c-0.09.87,0.65,1,1.25,1.13,0.38,0.09.89,0.08,0.86-.49A1.35,1.35,0,0,0,334.05,542.87Z"/><path class="cls-2" d="M325.32,492c-1.1-.08-1.24.84-1.51,1.53a29.87,29.87,0,0,1-1.59,3.48c-0.31.58-.61,1.18-1.4,1.07a1.55,1.55,0,0,1-1.22-1.34c-0.29-1.16-.48-2.35-0.73-3.52-0.13-.62-0.28-1.25-0.48-1.86-0.31-1-.74-1.84-2-1.58a2.23,2.23,0,0,0-1.69,2.54,12.42,12.42,0,0,0,3.3,6.53c0.22,0.22.55,0.33,0.79,0.53a0.59,0.59,0,0,1,.25.82,0.93,0.93,0,0,1-.82.39,2.74,2.74,0,0,1-1.91-.87,12.05,12.05,0,0,1-3.6-6.9c-0.52-3.15,1.56-5.35,4.45-5a4.43,4.43,0,0,1,3.07,2.08c0.29,0.38.44,0.85,0.69,1.26,0.67,1.09,1,1.15,1.72.19,0.87-1.12,1.84-2.18,1.48-3.86-0.26-1.23.67-2.26,1-3.4,0.25-.86.46-1.56-0.84-1.66-0.83-.06-0.95-0.73-0.89-1.43a5.47,5.47,0,0,1,3.79-4.23c2-.41,3.1.64,2.71,2.66a17.51,17.51,0,0,1-1.72,4.45c-0.46.93-.85,1.9-1.33,2.82-0.63,1.22-1,2.24.6,3.13a2.44,2.44,0,0,1,.89,2.59,15.12,15.12,0,0,1-3.16,6.64,1.41,1.41,0,0,1-.54.47c-0.63.25-1.28,1-2,.3s0-1.19.26-1.74c0.77-1.58,1.59-3.13,2.35-4.72A1.17,1.17,0,0,0,325.32,492Z"/><path class="cls-2" d="M322.82,512.07a2.51,2.51,0,0,0,.84,1.65,1,1,0,0,1,.05,1.3,0.92,0.92,0,0,1-1.3.17c-1.44-1.29-3.47-2-4.07-4.15-0.37-1.37-1.37-2.51-1.77-3.91a3.48,3.48,0,0,1,1.93-4.56,4.24,4.24,0,0,1,5,1,8.26,8.26,0,0,0,1.45,1.87c0.79-.08,1.16-0.82,1.82-1.09a1.91,1.91,0,0,1,2.89,1.71,5.76,5.76,0,0,1-.19,1.89c-0.63,2.3-1.32,4.59-2,6.89a3.31,3.31,0,0,1-1.75,2.16c-0.78.38-1.32,0-1.13-.81,0.35-1.63.84-3.24,1.23-4.86,0.21-.9.73-1.74,0.46-2.8-0.6,1.81-1.44,3.32-3.52,3.59a15.41,15.41,0,0,1-.74-4.23,13.77,13.77,0,0,0-.48-2.58,1.77,1.77,0,0,0-2.33-1.11,1.55,1.55,0,0,0-1.18,2C319,508.67,320,511.16,322.82,512.07Z"/><path class="cls-2" d="M413.36,537.51a5.42,5.42,0,0,0-1.32,3.83c0,0.4,0,.8-0.06,1.2-0.11.82,0.34,2.1-.78,2.24-1.27.16-1.27-1.22-1.42-2.09a10.34,10.34,0,0,1,.83-6.08c1-2.31,3-2.65,4.64-.72a35.55,35.55,0,0,1,2.26,3.3l2.76-1.92a6.31,6.31,0,0,1,3.32-1.24c1.74-.09,2.65,1,2.06,2.56a15.32,15.32,0,0,1-5.09,6.83,3.12,3.12,0,0,1-1.31.54c-0.61.11-1.38,0.25-1.71-.45s0.31-1,.73-1.35a20.17,20.17,0,0,0,3.55-3.88,1.67,1.67,0,0,0,.43-1.49c-3.07,1.52-5.28,4-8.4,6.24C414,542.21,415.94,539.73,413.36,537.51Z"/><path class="cls-2" d="M326.44,521.81a16.44,16.44,0,0,1,2.53-2.35,3,3,0,0,1,3.37-.05,2.57,2.57,0,0,1,1.24,2.88,7,7,0,0,1-3.8,5.48,0.75,0.75,0,0,1-1.07,0,0.84,0.84,0,0,1,0-.91c0.56-1.05,1.18-2.08,1.72-3.15,0.37-.75,1.18-1.86.3-2.32s-1.29.85-1.68,1.56a11.08,11.08,0,0,0-.92,3.69,1.5,1.5,0,0,1-1.25,1.53c-1,.13-1.1-0.68-1.36-1.35-0.74-1.92-1.09-4-2.85-5.42-0.4-.31-0.71-1.08-1.35-0.55s-0.12,1.06.1,1.54a30.21,30.21,0,0,0,2.87,4.39c0.58,0.86,1.21,1.68,1.82,2.53a0.53,0.53,0,0,1,0,.65,0.68,0.68,0,0,1-.86.17,1.2,1.2,0,0,1-.4-0.26,27.13,27.13,0,0,1-5.59-7.41,2.67,2.67,0,0,1,.72-3.26,2.62,2.62,0,0,1,3.12-.2C324.46,519.61,325.31,520.8,326.44,521.81Z"/><path class="cls-2" d="M321.28,470.26c1.18-3.88,3-7.31,6.62-9.52,1.22-.76,2.53-0.29,3.65.29a2.59,2.59,0,0,1,1.26,3.48,7.67,7.67,0,0,1-1.12,2.11c-1.49,2.08-2.95,4.18-4.44,6.25a5.48,5.48,0,0,1-1.12,1.24,2.66,2.66,0,0,1-4.28-1.21A7.76,7.76,0,0,1,321.28,470.26Zm3.25,2.31c1.26-2.61,3-4.39,4.31-6.43A17.14,17.14,0,0,0,330,464a0.85,0.85,0,0,0-.37-1.23,0.88,0.88,0,0,0-1.07.29A18.23,18.23,0,0,0,324.5,469,4.6,4.6,0,0,0,324.53,472.56Z"/><path class="cls-2" d="M322.17,480.93c0.61,2.17-.92,3.79-1.48,5.65a0.68,0.68,0,0,1-1.19.18c-2-2.15-4-4.41-3.86-7.62a3.26,3.26,0,0,1,5.1-2.78,2.68,2.68,0,0,1,1.2,2C322,479.19,322.1,480.06,322.17,480.93Zm-2.42,2.65c-0.12-1.49-.24-3-0.38-4.48a0.67,0.67,0,0,0-.5-0.73,0.73,0.73,0,0,0-.82.68A4.57,4.57,0,0,0,319.75,483.58Z"/><path class="cls-2" d="M412.45,545.66a0.77,0.77,0,0,1,1,.66,2.29,2.29,0,0,1-.62,2,17.56,17.56,0,0,1-3.6,3.45,29.41,29.41,0,0,0-3.33,2.69,1.94,1.94,0,0,1-1.68.71c-1.13-.13-1.53-0.89-0.83-1.79a6.9,6.9,0,0,1,1.69-1.66,38.31,38.31,0,0,0,6.42-5.29A2.38,2.38,0,0,1,412.45,545.66Z"/><path class="cls-2" d="M142.73,593.25c-5.39.43-10.21-1.71-15-3.55-2.31-.88-3.92-3-5.49-4.9a14.36,14.36,0,0,0-1.79-2.23,1.19,1.19,0,0,1-.13-1.88,4.67,4.67,0,0,1,1.81-1.53c2.91-1.2,5.71-2.21,8.86-.32,2.45,1.47,5.29,2.2,8,3.09a11.31,11.31,0,0,0,8.18-.45,15.16,15.16,0,0,0,6.18-5.16,2.69,2.69,0,0,0-.67-4,10.21,10.21,0,0,0-4-2.05A21.92,21.92,0,0,1,145,569c-2.92-1.11-3.86-3.36-3.89-6.22,0-.48,0-1,0-1.44,0.14-2.32.15-2.25,2.38-2.75a23.39,23.39,0,0,0,6.71-2.49c1.43-.83,1.43-1.6,0-2.49a10.63,10.63,0,0,0-6.11-1.85,50.41,50.41,0,0,0-5.49.45,11,11,0,0,0-7.59,4.54c-1,1.34-1,1.34-2.32.23-1.7-1.45-3.41-2.9-5.07-4.39a15.15,15.15,0,0,1-1.81-1.92c-1.59-2-1.14-3.66,1.32-4.34,3.46-1,7-1.8,10.46-2.62a49.13,49.13,0,0,1,10.47-1.12A25.37,25.37,0,0,1,155.33,545c5.22,2.46,8.24,7.9,5.1,13.7a14.39,14.39,0,0,1-3.78,4.87c-1.85,1.41-1.79,1.61.16,2.74a14.44,14.44,0,0,1,4.66,3.65c3.33,4.42,3.52,8.88.43,13.47-0.93,1.39-1.85,2.75-2.91,4.06-3.49,4.34-8.23,5.5-13.4,5.76C144.65,593.29,143.69,593.25,142.73,593.25Zm-0.56-2.47a32.87,32.87,0,0,0,6.43-.49,12,12,0,0,0,6.8-3.27,42,42,0,0,0,4.23-5.17c2.13-2.81,2.18-5.73,1.18-8.85a4.33,4.33,0,0,0-1.92-2.66c-2-1.11-3.89-2.58-6.28-2.85a3.79,3.79,0,0,1-2.75-1.71c-1.14-1.55-1-2,.74-2.79,2.5-1.18,5-2.22,6.78-4.67,3.14-4.38,1.75-9.86-3.82-11.3-2-.52-4-1-6.05-1.49a9.8,9.8,0,0,0-3.34-.19c-2.46.26-4.92,0.58-7.38,0.83-3.92.4-7.65,1.62-11.43,2.63-1.51.4-1.59,0.81-.48,1.88s2.38,2.14,3.51,3.27c0.7,0.69,1.23.83,2,0,2.62-2.75,6-3.85,9.65-4.34A16.58,16.58,0,0,1,152,552.12c3,2.07,2.92,4.65-.2,6.61a2.88,2.88,0,0,1-.86.42c-2.11.47-3.93,1.83-6.16,1.91-0.92,0-1.14.65-1.22,1.46-0.26,2.68.55,4,3.22,4.75a18.87,18.87,0,0,1,6.71,3c3.34,2.52,4.19,6.41.76,9.59-0.7.65-1.38,1.34-2.12,1.94-3.38,2.72-7,3.79-11.39,2.47a80.44,80.44,0,0,1-9.71-3.41c-2.4-1.08-4.69-.51-7,0.3-0.8.28-1.29,0.93-.58,1.64,1.53,1.51,2.68,3.56,4.68,4.41C132.58,589.18,137.09,591.15,142.17,590.78Z"/><path class="cls-2" d="M595,554.81h6.47c2.17,0,3.13.59,3.75,2.59a16.64,16.64,0,0,1,1,6.12c-0.15,2.07-.49,4.12-0.46,6.2a1.74,1.74,0,0,1-1.85,2,9.82,9.82,0,0,1-1.19.14c-6.31-.55-12.6,0-18.9.19-4.56.15-9.09-.55-13.65-0.54-1.44,0-2.87.11-4.31,0.07-2.37-.06-2.91-0.7-2.61-3.05a1.52,1.52,0,0,0-.48-1.5c-1.32-1.07-1-2.4-.7-3.74a20.2,20.2,0,0,1,4.38-9.42,68.47,68.47,0,0,0,4-6.25c3-4.59,6.06-9.2,9.5-13.51a20.35,20.35,0,0,0,3-6.48c0.68-2-.37-3.82-1.78-5.16a12.87,12.87,0,0,0-3.65-2.26c-2.44-1.09-4.46-.48-6.18,1.6s-2.94,4.14-2.26,7a3.94,3.94,0,0,0,1.79,2.93,8,8,0,0,1,1.18.82,1,1,0,0,1,.46,1.24,1.1,1.1,0,0,1-1.2.62c-1.85-.39-3.67.12-5.49,0.09-2.39,0-4.77-.34-7.17-0.26-1.28,0-1.85-.69-2.09-2.07a3.4,3.4,0,0,0-.19-0.92c-1.64-3.31-1.15-6.73-.36-10.08a64.57,64.57,0,0,1,2.53-8,11.59,11.59,0,0,1,7.79-7.5,31.61,31.61,0,0,1,9.19-1.34,54.43,54.43,0,0,1,12.13,1.27,14.68,14.68,0,0,1,9.33,7,21.64,21.64,0,0,1,2.73,15.72,30.6,30.6,0,0,1-4.4,10.82l-8.55,13.56c-0.17.27-.37,0.52-0.54,0.79-0.5.76-.28,1.23,0.61,1.27,1.44,0.07,2.88.1,4.31,0.12,1.28,0,2.56,0,3.84,0v-0.11Zm-3.14,3.48H589c-1.67,0-3.36.13-5,0-2.32-.21-2.92-1.27-2.14-3.4a7.94,7.94,0,0,1,.92-1.94c3.61-5,6.47-10.46,9.82-15.61a30.27,30.27,0,0,0,3.88-9.76,18.7,18.7,0,0,0,.15-9.27c-0.71-2.62-1.43-5.3-3.91-6.93a23.88,23.88,0,0,0-11.33-3.47,44.72,44.72,0,0,0-9.29-.08c-4.61.57-8.79,1.77-10.93,6.52a23.85,23.85,0,0,0-1.06,2.66c-0.81,2.59-1.06,5.32-1.93,7.91a7.11,7.11,0,0,0,0,4c0.5,1.95,1,2.36,3,2.4,1.44,0,2.88,0,4.32,0,1.62-.05,1.69-0.12,1.38-1.64a22.32,22.32,0,0,1-.37-4.05,4.71,4.71,0,0,1,.73-3.2c0.94-1.19,1.88-2.38,2.87-3.53a6.42,6.42,0,0,1,7.4-1.91c4.7,1.54,7,5.27,8.56,9.65a3.69,3.69,0,0,1,0,2.37,24.5,24.5,0,0,1-3,6.52c-2.11,2.9-4.39,5.66-6.31,8.71s-4.22,6.19-6.31,9.29a21.18,21.18,0,0,1-1.88,3c-2.39,2.52-3.14,5.69-3.42,9-0.2,2.29.54,3.07,2.86,3.06a44.39,44.39,0,0,1,5.74-.08,97.44,97.44,0,0,0,14.36.28c3.91-.08,7.83-0.27,11.74-0.23,2.84,0,2.83.16,3.22-2.78a5.51,5.51,0,0,1,.25-1.17,7.45,7.45,0,0,0-.13-4.93c-0.57-1.85-.73-2.09-2.69-1.82C597.6,558.26,594.72,558,591.85,558.3Z"/><path class="cls-2" d="M348.66,555.27a28.27,28.27,0,0,1,.67,10.46,10,10,0,0,0,0,3.82,1.58,1.58,0,0,0,2,1.49c10-1.31,20.1-.81,30.17-0.66a61,61,0,0,1,8.37.18,3.06,3.06,0,0,0,1.42-.13,19.86,19.86,0,0,1,6.09-1.21,1.1,1.1,0,0,0,1.23-1.37,29.27,29.27,0,0,1,.71-9.51c0.46-2.09-.59-3-2.73-2.56a50.89,50.89,0,0,1-7.64.48,4.13,4.13,0,0,1-3.38-2,1.2,1.2,0,0,1-.34-0.59c0.07-7.17-.82-14.3-0.66-21.48,0.12-5.43.7-10.84,0.58-16.28-0.07-3,.78-6,0.89-9.05,0.27-7.18.8-14.35,0.93-21.54,0.1-5.58.86-11.15,0.42-16.74-0.15-1.91-.22-3.83-0.29-5.74,0-1-.42-1.52-1.48-1.31-5.69,1.08-11.49.28-17.2,1-1.13.13-1.63,0-1.64,1.7a13.72,13.72,0,0,1-2.48,7.62,69.5,69.5,0,0,1-5.6,7.47,21.67,21.67,0,0,1-8.7,6.18,3.88,3.88,0,0,1-2.81,0,0.93,0.93,0,0,1-.74-0.84,0.91,0.91,0,0,1,.71-0.86,16.69,16.69,0,0,0,4.24-2.16,31.34,31.34,0,0,0,7.76-7.74c0.69-1,1.34-2,2-3a12.35,12.35,0,0,0,1.94-10c-0.13-.57,1.43-3.14,1.94-3.21a1,1,0,0,1,1,.57c0.65,0.86,1.56.87,2.53,1,3.42,0.58,6.85.35,10.27,0.36,2.63,0,5.26-.3,7.89-0.45a9.29,9.29,0,0,1,1.91,0c1.61,0.24,2,.85,1.6,2.43a17.57,17.57,0,0,0-.19,5c0.09,3.44.49,6.89,0.25,10.3-0.28,4-.28,8-0.51,12-0.36,6.3-.93,12.59-0.76,18.91a25.15,25.15,0,0,1-.42,4c-0.69,5-.51,10-0.91,15.06a65.49,65.49,0,0,0,.15,15.55,18.38,18.38,0,0,1,0,4.79,16,16,0,0,0,.3,4.29c0.27,1.64.55,1.9,2.2,1.88a38.89,38.89,0,0,0,7.4-.61c2.16-.45,3.1.11,3.78,2.19a13.8,13.8,0,0,1,.06,7.12,14.54,14.54,0,0,0-.32,4.52,6.19,6.19,0,0,1-1,4.24,3.87,3.87,0,0,1-2.06,1.77,15.51,15.51,0,0,1-8.64.75c-2.06-.39-4.13,0-6.2,0a1.43,1.43,0,0,0-1.43,1.1c-0.41,2-1.8,3.35-3.27,4.59-1,.82-0.71,1.51.06,2.17,2,1.69,3.29,3.91,4.89,5.89a11.8,11.8,0,0,1,1.52,3,0.71,0.71,0,0,1-.06.88,1,1,0,0,1-1.12.15,4.25,4.25,0,0,1-1.86-2.12,31.68,31.68,0,0,0-5.55-6.87,1.78,1.78,0,0,0-2.72-.09,9.51,9.51,0,0,0-3,3.71,32.79,32.79,0,0,0-2.3,6.55c-0.19,1-.31,2.2-1.77,2.11-1-.06-1.45-1.07-1.05-2.67,1-4.21,2.37-8.29,5.65-11.42,1.25-1.19,1.17-1.26-.18-2.35-2.18-1.78-4.32-3.6-7.37-3.63a1.52,1.52,0,0,1-1.09-.43c-1.12-1.5-2.57-1.27-4.12-1a42.39,42.39,0,0,1-4.28.5c-0.95.08-2,.25-2.78-0.42a1.41,1.41,0,0,0-2.08-.08c-0.59.45-.91,0-1.35-0.43a7.08,7.08,0,0,1-1.82-3.83,9.89,9.89,0,0,1-.09-3.34,23.69,23.69,0,0,0,0-8.09c-0.42-2.65-.3-2.67,2.38-2ZM368.84,573a14.53,14.53,0,0,0,5.88,4.49,1.41,1.41,0,0,0,1.15,0,11.38,11.38,0,0,0,3.8-2.83c0.6-.78.34-1.34-0.66-1.37-2.19-.07-4.38,0-6.57-0.28C371.33,572.94,370.18,572.36,368.84,573Z"/><path class="cls-2" d="M364.52,496.46c-2.37,1.48-4.67,2.87-6.82,4.51-1.81,1.38-3.63,2.79-6.23,2.42a14.53,14.53,0,0,0-3.8.4c-1.76.23-2.69-.42-2.65-2.12,0.07-3,.19-6,0.45-9.05,0.14-1.6.15-3.19,0.25-4.78,0-.64,0-1.39.79-1.55a1.76,1.76,0,0,1,1.8.94,3.62,3.62,0,0,1,.38,2.32c-0.13,2.79-.09,5.59-0.36,8.38-0.26,2.59.22,2.93,2.83,2.47,2.34-.41,4.28-1.72,6.24-2.94,1.48-.93,2.86-2,4.28-3.06a8,8,0,0,0,2.8-4.08c0.28-.83.58-1.66,0.93-2.46a1.2,1.2,0,0,1,1.44-1,1.73,1.73,0,0,1,1.54,1.31,9.11,9.11,0,0,1,.11,1.67,61.55,61.55,0,0,1-.24,6.46c-1,7.76-.67,15.63-1.84,23.38-0.41,2.76-.73,5.53-1.2,8.28a20.2,20.2,0,0,0-.06,3.1c-0.09,4.4-.68,8.75-1,13.12-0.12,1.75,0,3.51,0,5.27a12.46,12.46,0,0,1,0,1.44c-0.1.8-.21,1.65-1.25,1.78s-1.65-.65-1.68-1.91a53.84,53.84,0,0,1,.06-7.18c0.42-3.82.74-7.65,0.81-11.47A100,100,0,0,1,363.19,520c1-7.2,1.18-14.48,1.78-21.71A2.14,2.14,0,0,0,364.52,496.46Z"/><path class="cls-2" d="M348.69,555.32a1.59,1.59,0,0,1,1.71-1.83c2.94-.18,5.87-0.4,8.8-0.57a3.28,3.28,0,0,1,2.48.62,1,1,0,0,1,.56,1,1,1,0,0,1-.85.73c-1.49.2-3,.46-4.48,0.53-2.77.14-5.56,0.57-8.26-.51Z"/><path class="cls-23" d="M187.75,456.57c6.48,1.43,11.52,3,17.74,1.25l-1.63-.71c-30-40.5-59.61-36.51-69.37-26.46-1.29-6.44,2.6-11.08,7.45-14.27l-0.9-.11c-7.68-7.55-20.14-1.86-31.58,8l-0.18.25c-0.72,2.82-2.78,5.73-5.45,8.65l-0.26-.23c-4.23-8.25-13.36-8.42-17.5-4.66s-4.73,11.56,4.47,17l0.33,0.2c-3.42,3.28-6.27,6.45-7.37,9.39-3.85,10.25,3,14,3.13,21.08,0.28,14.81,3.46,26.7,12.62,37.67,14.05,16.82,21.6,14.61,49.59,15.71,20.64,0.81,27.39-2.18,30.89-5.53l0.06,0.12c5,3.56,12.78,4.32,16.67.16,3.49-3.73,3.07-8.8-4.23-11.62l-0.09-.09,1.4-1.06,0.64-.5,0.5-.4,0.56-.45,0.6-.5,0.45-.37,1-.84,0.27-.25,0.7-.65,0.31-.31,0.6-.62,0.26-.28c0.27-.29.52-0.59,0.75-0.88a51.73,51.73,0,0,0,8.71-17.18c0.06-.21.11-0.44,0.17-0.67l0-.2,0.13-.59,0-.18q0.08-.39.15-0.81l0-.19,0.13-.71,0-.26,0.13-.79,0-.13,0.19-1.14,0.13-.78,0.05-.32,0.18-1,0-.12,0.16-.91,0.06-.31,0.16-.84,0-.24q0.1-.52.22-1l0.06-.25,0.19-.81,0.07-.3c0.08-.34.17-0.68,0.26-1h0c0.09-.33.19-0.66,0.29-1l0.09-.28q0.12-.38.25-0.75l0.08-.24q0.17-.46.35-0.91l0,0,0.1-.33C198.2,468.73,189.34,461.34,187.75,456.57Z"/><path class="cls-27" d="M222.5,421.39c-2.37-4.73-5.47-15.41-1.76-23.14-4.85,1.42-6.65,6.17-7.31,9.36l-0.17-.37c-8.81-7.52-21.6-11.82-27.95-15.69-5.42-3.31-10.64-10.75-14.51-21.93a32.12,32.12,0,0,0,1.76,18.82c-9.46.06-24.07-19.39-30.77-37.39-3.91,16.19-4,33.44,3.4,46.62H144.9c-16.24-2.42-31.42,9.88-39.89,30.7,12.53-12.25,27.34-20.65,36-12.11l0.9,0.11c-4.84,3.19-8.73,7.83-7.45,14.27,9.77-10,39.37-14,69.37,26.46l1.63,0.71c-6.21,1.76-11.26.18-17.74-1.25,1.59,4.77,10.45,12.16,25,14.34l-0.1.33c-2.2,5.3-2.74,13.1-3.76,16.84a51.73,51.73,0,0,1-8.71,17.18,38.72,38.72,0,0,1-6.61,6c8.34,0.53,33-13.08,40.43-38.6C241.49,446.81,227.24,430.86,222.5,421.39Z"/><path class="cls-28" d="M183.4,396.9a37.16,37.16,0,0,0,7.63,6.62c2.54,1.53,9.16,2.21,13.23,5.77"/><path class="cls-28" d="M156.25,384.18c6.62,19,29.48,25.26,41.23,29.69s24.26,15.44,27,19.85"/><path class="cls-28" d="M154.9,399.28c5.43,13.06,28,23.24,40.89,27.65,10.17,3.48,21.38,11.37,26.47,16.29,3.37,3.26,13.91,16.8,13.91,16.8"/><path class="cls-28" d="M182.33,429.26c3.67,1.7,11,8.61,21.32,14,5.66,3,10.8,3.79,15,8.72,5,6,6,14.1,9,18.29"/><path class="cls-28" d="M229.11,484.72c-5.72,0-13.36-5.59-13.36-5.59"/><path class="cls-28" d="M222.43,493.57c-4.09-.14-10.63-6.27-10.63-6.27"/><path class="cls-29" d="M108.27,457.92c16.41-20.35,34.53-6.17,15.1,12.87Z"/><path class="cls-29" d="M171.06,505.77c18.16-18.81,1.84-35-14.64-13.39Z"/><path class="cls-30" d="M125.05,448c-6.06,3.12-2.7,13.7,6.12,11.18C133.13,452.82,130.17,448.41,125.05,448Z"/><path class="cls-14" d="M127.09,448.42c-3.36,2.52-1,9,4.51,8.92C132.36,452.83,130.46,449.56,127.09,448.42Z"/><path class="cls-30" d="M166.13,483.61l0.3,0.25c-1.7,8.63,10.33,10.41,12.13,3.75l0.17-.12C177.49,482.51,172.44,480.36,166.13,483.61Z"/><path class="cls-14" d="M177.82,485.59l-0.26-.7c-1.85-2.62-5.3-3.63-9.5-2.13V483C169,488.58,176.14,489.62,177.82,485.59Z"/><path class="cls-27" d="M130.59,435.51s2,7.42,1.95,7.14c-3.25-2.32-10.3-.37-10.3-0.37A15.94,15.94,0,0,1,130.59,435.51Z"/><path class="cls-27" d="M191.68,486.07s-7.67.67-7.37,0.66c3.31,2.24,3.94,9.52,3.94,9.52A15.94,15.94,0,0,0,191.68,486.07Z"/><path class="cls-31" d="M134.67,517.18c3.38-.63,5.06-5.7,1.9-10.87s-18.45-18.77-23.72-20.55-11.82,1.13-10.84,9,12,19.57,18.44,20.32"/><path class="cls-1" d="M103.36,499.08l0,0c3,6.47,10,13.63,15.29,15.55l0-.07C115.41,506.76,105.32,497.35,103.36,499.08Z"/><path class="cls-1" d="M136.57,506.31c-3.17-5.17-18.45-18.77-23.72-20.55a9.23,9.23,0,0,0-6.21.05c1,3.47,14.11,12.13,20.21,17.56a126.37,126.37,0,0,1,10.84,10.91l0.14,0C138.6,512.18,138.38,509.27,136.57,506.31Z"/><path class="cls-32" d="M135.48,519.49c-0.42-1.3-1.22-3.21-1.78-4.68-1.49-3.85-7.82-3-6.41.78-0.31-.67-0.61-1.32-0.83-1.82-1.32-3-7.16-1.57-5.35,2.7a37.68,37.68,0,0,0,2.55,5.16C127.21,527.44,137.91,527,135.48,519.49Zm-7.43-2.3,1.16,2.4S128.67,518.5,128,517.19Z"/><polygon class="cls-17" points="206.95 493.52 206.95 493.52 206.95 493.52 206.95 493.52"/><path class="cls-17" d="M212,503.39c-7.42,5.44-14.63,8.15-18.44,7.91l-1.4,1.06,0.09,0.08c7.3,2.82,7.72,7.88,4.23,11.62-0.18.19-.37,0.36-0.56,0.53a14.78,14.78,0,0,0,5.13,7.12c0.24,0.16.22-.09,0.22-0.09,7-9.77,20.52-11.08,28.34.81C230.23,517.16,215.93,506.17,212,503.39Z"/><path class="cls-19" d="M198.72,516.71c3.32-1,3.51-2.93,10.93-4.88s10.74-.39,11.32-0.39"/><path class="cls-18" d="M197,527.83c4.1-3.51,5.27-8.79,16.2-10.54s11.71,2.15,13.67,2.15"/><path class="cls-22" d="M229.59,532.26c0,0.06,0,.12,0,0.18-7.82-11.89-21.34-10.59-28.34-.81a0.11,0.11,0,0,1-.18.11c0.22,0.15.44,0.29,0.65,0.4a22,22,0,0,0,5.72,1.77l17.74,0.59a38.85,38.85,0,0,0,4.57-1.61Z"/><path class="cls-22" d="M200.9,531.62h0l0.06,0Z"/><path class="cls-20" d="M230.46,569.53c-1.63-2.3-5.86-5.09-6-11.56l-0.11-.09a5.1,5.1,0,0,0,1.75-.6c0.26-.17.43-7.16-0.69-6.73a24.85,24.85,0,0,1-17.39.26c-2.66-.89-0.55,5.86-1.5,8s-6.54,9.81-6.54,13.36,4.63,7.07,7.49-.43c-0.49,3.55-.77,10.82-0.81,12.07-0.18,5.32,7.14,6.61,7.46.53,0-.12,0-0.63,0-1.29,0.63,5.57,7.61,8.29,6.77-1.65,0.29,7.7,6.48,7.8,7,2.48l0.32,0.54C235.55,588.85,235,576,230.46,569.53Z"/><path class="cls-21" d="M224.53,527a15.6,15.6,0,0,0-18.56-.09c2.92,9.27,1.95,17.9,2,23.87a24.85,24.85,0,0,0,16.88-.07l0.08-.18c0.33-12.7.4-20.88-.41-23.48v0Z"/><path class="cls-2" d="M131.44,483.76a0.9,0.9,0,0,1-1-.85,1.06,1.06,0,0,1,1-1.35,0.84,0.84,0,0,1,.8,1A1,1,0,0,1,131.44,483.76Z"/><path class="cls-2" d="M135,486.39a1.18,1.18,0,0,1-1.17-1,0.63,0.63,0,0,1,.66-0.79,1.13,1.13,0,0,1,1.18,1.22A0.66,0.66,0,0,1,135,486.39Z"/><path class="cls-8" d="M109.28,424.53c-2.56,10.11-22.39,21.31-25.78,30.33-3.85,10.25,3,14,3.13,21.08,0.28,14.81,3.46,26.7,12.62,37.67,14.05,16.82,21.6,14.61,49.59,15.71s30.44-4.79,33.88-9.08,13.38-9.82,17.43-15a51.73,51.73,0,0,0,8.71-17.18c1.47-5.4,2-19.27,7.86-21.85"/><path class="cls-8" d="M213,471c-14.67-2.14-23.61-9.59-25.21-14.38,8.4,1.85,14.38,4,23.64-1.28"/><path class="cls-8" d="M204.41,457.85c-30.19-41.3-60.1-37.31-69.93-27.2-3-15,21.91-20.19,21.91-20.19"/><path class="cls-8" d="M141,416.27c-8.69-8.54-23.5-.14-36,12.11,8.47-20.83,23.65-33.12,39.89-30.7"/><path class="cls-33" d="M103.57,432.95c-4.23-8.25-13.36-8.42-17.5-4.66s-4.73,11.56,4.47,17"/><path class="cls-33" d="M94.06,442.44c-12.8-5.73,1.56-17.2,6.53-6.18"/><path class="cls-33" d="M192.23,512.45c7.3,2.82,7.72,7.88,4.23,11.62-3.89,4.16-11.7,3.4-16.67-.16"/><path class="cls-33" d="M182.72,520.24c5.86,5.66,13.07-1.56,5.77-5"/><path class="cls-33" d="M162.59,413.86c-23.92-11.67-26.68-38.44-20.8-62.81,6.72,18.07,21.43,37.6,30.88,37.39"/><path class="cls-8" d="M173.81,391a31.5,31.5,0,0,1-3-21.39c3.87,11.18,9.09,18.62,14.51,21.93,6.34,3.87,19.13,8.17,27.95,15.69"/><path class="cls-8" d="M193.16,511.28c8,1,33.28-12.67,40.81-38.57s-6.73-41.85-11.47-51.33c-2.37-4.73-5.47-15.41-1.76-23.14-7.52,2.21-7.7,12.4-7.7,12.4"/><path class="cls-33" d="M108.27,457.92c16.41-20.35,34.53-6.17,15.1,12.87Z"/><path class="cls-33" d="M171.06,505.77c18.16-18.81,1.84-35-14.64-13.39Z"/><path class="cls-33" d="M127.24,448.3c-3.62,2.45-1.17,9.26,4.47,9.05"/><path class="cls-33" d="M125.11,448c-6.18,3.09-2.77,13.84,6.18,11.18"/><path class="cls-33" d="M177.82,485.59c-1.68,4-8.85,3-9.76-2.58"/><path class="cls-33" d="M178.56,487.61c-1.8,6.67-13.83,4.88-12.13-3.75"/><path class="cls-33" d="M126.5,477.58c3.73,1.92,13.42-.64,13.42-0.64s0.64,8.84,2.56,11.39"/><path class="cls-33" d="M155.78,465.12c-0.75,2.56-8.17,15.44-11.61,15.44-2.24,0-4.26-3.62-4.26-3.62"/><path class="cls-8" d="M195.86,524.51c1.64,4.36,4.09,6.68,5.86,7.63a22,22,0,0,0,5.72,1.77"/><path class="cls-8" d="M214.23,578.57s-0.12,5.38-.14,5.8c-0.32,6.09-7.64,4.79-7.46-.53,0-1.25.32-8.51,0.81-12.07-2.86,7.5-7.49,4-7.49.43s5.59-11.17,6.54-13.36-1.16-8.93,1.5-8a24.85,24.85,0,0,0,17.39-.26c1.12-.43.95,6.55,0.69,6.73-1.89,1.26-8.8.95-9.06,0.86"/><path class="cls-8" d="M201.24,531.63c7-9.77,20.52-11.08,28.34.81,0.65-15.47-14-26.55-17.75-29.15"/><path class="cls-8" d="M208,550.81c-0.06-6,.91-14.62-2-23.9"/><path class="cls-8" d="M224.94,550.55c0.33-12.7.4-20.88-.41-23.48"/><path class="cls-8" d="M129.2,519.58s-1.9-3.9-2.74-5.82c-1.32-3-7.16-1.57-5.35,2.7a37.68,37.68,0,0,0,2.55,5.16c3.55,5.82,14.25,5.39,11.81-2.13-0.42-1.3-1.22-3.21-1.78-4.68-1.5-3.88-7.91-3-6.38.86"/><path class="cls-8" d="M134.67,517.18c3.38-.63,5.06-5.7,1.9-10.87s-18.45-18.77-23.72-20.55-11.82,1.13-10.84,9,12,19.57,18.44,20.32"/><path class="cls-8" d="M103.36,499.08c2-1.73,12,7.68,15.28,15.51"/><path class="cls-8" d="M106.6,485.68c0.75,3.39,14.08,12.19,20.25,17.69a126.37,126.37,0,0,1,10.84,10.91"/><path class="cls-8" d="M224.43,558c0.17,6.47,4.41,9.26,6,11.56,4.57,6.47,5.09,19.32-2.24,14.92"/><path class="cls-8" d="M226.58,577.81c5,10.82-5.32,13.6-5.69,3.62,0.9,10.65-7.16,6.78-6.81.44"/><path class="cls-8" d="M225.17,534.5a38.85,38.85,0,0,0,4.57-1.61"/></svg>