<svg id="Final" xmlns="http://www.w3.org/2000/svg" viewBox="0 0 543.82 396.63"><defs><style>.cls-1{fill:#2d7fbc;}.cls-1,.cls-10,.cls-11,.cls-12,.cls-13,.cls-14,.cls-15,.cls-16,.cls-17,.cls-19,.cls-2,.cls-21,.cls-22,.cls-23,.cls-3,.cls-4,.cls-5,.cls-6,.cls-7,.cls-8,.cls-9{fill-rule:evenodd;}.cls-2{fill:#eab694;}.cls-3{fill:#e0dcdc;}.cls-4{fill:#da4843;}.cls-5{fill:#f9da39;}.cls-18,.cls-6{fill:#fff;}.cls-7{fill:#a31d22;}.cls-8{fill:#890c15;}.cls-9{fill:#bc1e1e;}.cls-10{fill:#a7b9c4;}.cls-11{fill:#435e77;}.cls-12{fill:#77522a;}.cls-13,.cls-20{fill:#3e3d40;}.cls-14{fill:#00c9ff;}.cls-15{fill:#b25252;}.cls-16{fill:#8e6b49;}.cls-17{fill:#395366;}.cls-19,.cls-21,.cls-23{fill:none;stroke-width:1.5px;}.cls-19,.cls-21,.cls-22,.cls-23{stroke:#3e3d40;}.cls-19,.cls-21,.cls-22{stroke-miterlimit:10;}.cls-21{stroke-linecap:round;}.cls-22{fill:#80ced0;}.cls-23{stroke-linejoin:round;}</style></defs><title>Super_victor</title><path class="cls-1" d="M274.19,177.71c-22.75,4.55-30.94,29.73-30.94,29.73-20.16-5.64-49.46-4.15-67.42-1.51l-0.26,0c-5.42-13,5.14-35.14,8.29-41.22l0-.3c7.33-4.66,13.92-10.63,17.23-17,5.82-11.22,3.95-22.65-1.45-29.5l-29-13.34L116,102.79,78.1,115.58c-1.92,2.61-8.91,7.78-18.48,12.2-17.53,8.09-42.07,17.29-48.24,29.4-1.23,2.42-3.94,10-1.16,10.46,1.23,0.21,4.93-2.42,9.29-5.44-2.29,5-6,16.67-1.8,17.4s7.72-11.48,12.19-13.29h0c-1,4.54-.89,8.66,1.22,9.17,3.76,0.9,7.91-7.43,11.39-12,8.46-11.11,35.34-9.28,46.88-1.25h0a132.14,132.14,0,0,0-3.6,16.26c-2.8,1.46-5.66,3-8.55,4.64q-0.83.48-1.63,1h0c-3.05-.17-8.42-0.63-10.07-0.63s-7.31.13-7.31,2.42,4.18,3.87,10,3.82l0.71-.54c-11.79,10.82-15,25-10.75,25,3.93,0,5.49-8.22,13.83-10.63l0-.12c-2.06,6.23-1.46,13,.25,13,1.91,0,6.15-9.54,11.34-9.65l0-.15c-0.26,5.07,1,9.89,2.34,11.43,0.07,0.36.13,0.72,0.2,1.08a75.85,75.85,0,0,0,5.22,16.37h0C48.13,253.22,54.1,289.28,54.1,289.28c4.76-13,27.44-26.53,27.44-26.53a35.22,35.22,0,0,0-8.42,27.63c2.93-10.43,22.14-18.48,22.14-18.48-4.94,5.12-1.1,21-1.1,21-1.1-2.38,14.47-24.87,22.7-28h0a35.4,35.4,0,0,0,9.83,3.82,40.63,40.63,0,0,0,12.32.55h0c5.16,3.75,7.2,5.63,5.93,8.2-3.22,6.51-52.94,18-48.07,61,34,7.89,48.9-30.92,51.88-32,3.37-1.18,39.13-18.58,39.14-32.32,0-10.12-8.46-16.24-8.47-16.24,7-2.35,14.31-4.7,22-6.62,20-5,50-4.16,66.12-12C281.3,232.52,286.62,186.81,274.19,177.71Z" transform="translate(-8.25 -1.71)"/><path class="cls-2" d="M240.34,206.69c1,0.23,2,.48,2.91.74a54.17,54.17,0,0,1,13.6-20.73l-21.58,3.83c0.5,1.88,4.05,13.08,5.06,16Z" transform="translate(-8.25 -1.71)"/><path class="cls-3" d="M308,241.09c-4.36-6.63-15.68-6.34-21.79-5.59l-0.15.2c0.68-8.86-5-19.38-6.1-21.26-2,11.52-6.42,21.9-12.44,24.85-6.27,3.07-14.66,4.82-23.76,6.11,0.75,1.63,4.57,11.15,5.4,13.22-8.62,3.51-19.3,8.91-24.76,14.8,5.6,5.27,14.82,27.34,15.48,31.63,4.64-2.22,13.41-4.9,19.87-6.73,5.22,7,15.13,10.32,28.69,9.61q1-.05,2.15-0.16l0.09-.1C310.87,296.37,317.39,255.38,308,241.09Z" transform="translate(-8.25 -1.71)"/><path class="cls-4" d="M183.52,53.18c-4.68-3.32-9.16-6.42-13.14-9.33-16.44-12-48.23-38-70.82-41.06S74.18,18.61,86.93,23.65c-7.44-3.72-15.66,2.7-17.41,11.29-1.59,7.84,5.18,11.69,13.42,12-6.11,2-13.93,6.73-13.82,14,0.1,6.38,5.18,7.84,16.34,5.71C69.66,72,63.64,83.12,68.25,91c3.18,5.4,11.38,2.46,20.15-1.39-2.92,4.12-17,27-5.85,31.76s20.08-13.71,34.57-13,17.92,13.61,32.13,15,22.41-4.54,25.87-12l0.73,0.35c-11.33-5.34-21.47-14-27.26-26.63-4.4-10,12.48-18.73,13.15-19l22.67-13.17" transform="translate(-8.25 -1.71)"/><path class="cls-4" d="M177.59,112.46c-4.52,4.74-8,20.67.49,21.53,4.64,0.48,5.85-6.17,5.85-6.17s0.87,8.8,6.55,7.14c4.87-1.42,7.66-11.24,3.15-17" transform="translate(-8.25 -1.71)"/><path class="cls-4" d="M181.44,58.88" transform="translate(-8.25 -1.71)"/><path class="cls-5" d="M170.38,43.85c21.66,15.81,57.8,37.3,61.92,67.68-12.22,13-66.7,10.72-83.71-26.49-4.4-10,12.48-18.73,13.15-19" transform="translate(-8.25 -1.71)"/><path class="cls-6" d="M189.39,58.15c-1.27-7.62-9.69-14.09-14.74-15.09-4.9-1-8.42,1-8.26,3.36h0c-3.37-1.47-7.72-1.79-9.43,2.32-2.31,5.55.65,14.27,7.13,19.31,6.16,4.79,14.39,3.49,15.51-3.84h0C183.11,66.9,190.63,65.54,189.39,58.15Z" transform="translate(-8.25 -1.71)"/><path class="cls-7" d="M345.69,289.82c-4.57,2.28-38.49,17.12-57.24,18.1-11.31.59-20.08-1.63-25.71-6.45-8.92,7.79-37,34.64-41.5,49.18,13.54-11.53,53-4.76,55.79,13.16,0,0-7.52,16.8-2.63,33.72,14.17-1.25,22.31-24.82,24.82-45,2.58-20.8,17.15-37.32,29-44.38,10.91-6.52,17-9.65,17-9.65l0.07-.22A41,41,0,0,1,345.69,289.82Z" transform="translate(-8.25 -1.71)"/><path class="cls-8" d="M313.63,320.82c-14.92,7.27-36,36.73-36.73,42.37h0c0,0.21.1,0.41,0.14,0.61,0,0-7.52,16.8-2.63,33.72,14.17-1.25,22.31-24.82,24.82-45,1.55-12.49,7.42-23.43,14.42-31.71h0Z" transform="translate(-8.25 -1.71)"/><path class="cls-3" d="M174.3,350.31c-5.58-5-3.41-13.84-.75-19.67C176.61,324,185,318,193.14,316.56a24.89,24.89,0,0,0,9.5,7.83c6.17,2.83,13.25,4.5,14.17,4.33,0.83,1.5,4,10-3,15.58C207.45,349.38,181,356.34,174.3,350.31Z" transform="translate(-8.25 -1.71)"/><path class="cls-9" d="M203.75,295.83l-0.17.17c-4.1,2.47-10.44,15.65-10.44,20.57a24.9,24.9,0,0,0,9.5,7.83c6.17,2.83,13.25,4.5,14.17,4.33,2.27,0.67,8.88-10.36,11.52-14.47l0,0C224.58,314.05,210.27,313.23,203.75,295.83Z" transform="translate(-8.25 -1.71)"/><path class="cls-2" d="M239.53,303.55c-1.86-6.47-10-25.32-15.13-30.14-11.79,2.27-20.83,19.34-20.83,22,6.81,18.87,22.68,18.71,25.32,18.87s5.67-8.39,5.67-10.28h0a3.45,3.45,0,0,1-1.72-.42l1.72,0.42A14.69,14.69,0,0,0,239.53,303.55Z" transform="translate(-8.25 -1.71)"/><path class="cls-9" d="M254.82,188.68a39.67,39.67,0,0,1,9.71-7.48l0-.45c-1.27-2.41-4.4-11.87-5.66-14.4-1,4.31-21.27,8.86-28.24,4.31A188.89,188.89,0,0,1,234.51,190C238.42,191.29,246.62,190.69,254.82,188.68Z" transform="translate(-8.25 -1.71)"/><path class="cls-3" d="M230.58,170.65c-0.76-.5-4.94-17.6-4.43-19-0.76-7,35.84-28,49-24.44,3.42,4.81,2.79,18.24-4.94,25.2-4,3.58-10.11,8.47-11.4,13.93C257.81,170.65,237.55,175.21,230.58,170.65Z" transform="translate(-8.25 -1.71)"/><path class="cls-10" d="M275.16,127.22c-13.17-3.55-49.77,17.48-49,24.44,13.8,2.28,49.64-14.44,49.13-24.19v0C275.25,127.38,275.21,127.29,275.16,127.22Z" transform="translate(-8.25 -1.71)"/><path class="cls-11" d="M367.21,233.53c-1.45-3.46-10.59-25.86-17.17-30.21-2.23,8-22.29,14.83-28.31,9.36,3,6,10.37,15.72,12.48,18.39-2.34.11-9.81,8-9.81,8l0.22-.27a121.09,121.09,0,0,0-17.28,1v0.38a9.75,9.75,0,0,1,.64.83c5.8,8.82,5.53,27.8-.26,43.7h0c-0.2.54-.4,1.08-0.61,1.61l-0.17.43c-0.21.52-.42,1-0.64,1.54l-0.13.3q-0.69,1.56-1.45,3.06l-0.11.21c-0.21.41-.43,0.82-0.66,1.23l-0.4.72q-0.32.56-.64,1.1l-0.5.82c-0.21.33-.41,0.66-0.62,1q-0.53.81-1.09,1.58l-0.55.73c-0.25.33-.5,0.66-0.76,1l-0.57.69c-0.28.34-.57,0.66-0.87,1l-0.51.56c-0.46.48-.92,1-1.4,1.4l-0.33.3q-0.59.54-1.2,1l-0.52.41q-0.56.44-1.14,0.84l-0.5.35c-0.55.37-1.1,0.71-1.67,1l-0.09.09c19.08-1.9,50.69-15.73,55.09-17.93,0,0-2.77,15.17,5.38,26.91C362.16,320.15,378,315.91,384,304c0,0-2.94-17.12-14.51-21.69,4.67-8.49,4.17-14.3,4-15.69-3.63-3.29-6.73-6.62-8.36-10.28-1.94-4.37-.2-14.26,2.17-22.56Z" transform="translate(-8.25 -1.71)"/><path class="cls-3" d="M366.65,235.93h0c0.19-.72.38-1.43,0.58-2.13l-0.05-.26c-0.35-.83-1.14-2.76-2.23-5.26l-0.13.11c-1.35,3.6-3.15,4.95-1.91,7.31Z" transform="translate(-8.25 -1.71)"/><path class="cls-9" d="M381.83,297.75a39.71,39.71,0,0,1-14.54,9.65,76.93,76.93,0,0,1-19.05,4.26l-0.63-2a76.93,76.93,0,0,0,19.05-4.26,39.71,39.71,0,0,0,14.54-9.65Z" transform="translate(-8.25 -1.71)"/><path class="cls-9" d="M356.64,212c-3.37,6.75-21.26,11.92-29,10.46L326,220.18c7.76,1.46,25.65-3.71,29-10.46Z" transform="translate(-8.25 -1.71)"/><path class="cls-3" d="M363.5,225.69c-3.6,4.95-23.65,5.51-29.61,5.18L333,229.4c6,0.34,25.76-1.57,29.36-6.52Z" transform="translate(-8.25 -1.71)"/><path class="cls-3" d="M334.18,231.3c1.57,1.24,6.19,6.19,6.75,11.14s0.15,15.46,1.69,21.15c1.12,4.16,3.71,10.12,3.6,14.29s-2.06,12.27-2.63,12.84l1.91,0.11c0.56-.56,2.59-9.22,2.7-13.39s-2.47-10.12-3.6-14.29c-1.54-5.69-1.12-16.2-1.69-21.15s-5.17-9.9-6.75-11.14Z" transform="translate(-8.25 -1.71)"/><path class="cls-9" d="M332.45,295.32c5.29-7-2-52.42-9.45-56.58l2.14,0.11c7.42,4.16,15.3,48.37,10,55.35Z" transform="translate(-8.25 -1.71)"/><path class="cls-3" d="M305.9,304.43c26.1-23.29,19.12-62.32,9.67-65.13l2.14-.34c9.45,2.81,18.79,41.06-7.31,64.35Z" transform="translate(-8.25 -1.71)"/><path class="cls-9" d="M369.5,282.32c-21.19-10.17-12.3-36.6-11-53.59l1.91-1c-1.35,17-8.55,44.66,10.35,52.87Z" transform="translate(-8.25 -1.71)"/><path class="cls-3" d="M346,289.44c5.84,1.46,20.37-.83,25-6.53l1.18,1.18c-4.38,6.19-21.06,9-26.69,7.16Z" transform="translate(-8.25 -1.71)"/><path class="cls-2" d="M357.88,343.26c-0.5-2.48,16.88-21.36,18.13-30.39a30.61,30.61,0,0,1-24.94,3.86L351,316.6c-1.57,4-4.92,22.06-6.14,23.77s-12.91,8.52-14.67,9.9-4.14.63-6.14,3.64,9.4,2.13,11.78,1.5c2.76,1.38,2.51,11.91,2.51,11.91-2.38,1.88-5.41,12.07-5.41,12.07,1.16,1.16,2.7.66,4.33-.65l0.2,0.62c1.93,1.93,4.95-.72,7.66-4.19l0.48,0.3c3.38,0.75,9.78-7.27,11-9.53s-1-12.16-1.76-14.17S358.33,345.47,357.88,343.26Z" transform="translate(-8.25 -1.71)"/><path class="cls-3" d="M370.13,280.7l0.19,0c3.6-7.26,3.37-12.29,3.16-13.88-6.56-.24-11.22-1.55-10,1S372.38,276.54,370.13,280.7Z" transform="translate(-8.25 -1.71)"/><path class="cls-2" d="M495.56,245.3c-1.94-6.16-6.59-14.15-11.61-21.73h0l-1.3-1.94-0.09-.13-1.27-1.86,0-.07c-5.09-7.38-10.14-13.93-12.79-17.39l-0.13-.17-0.38-.49-0.33-.43-0.19-.25-0.41-.55c-3.75-5.06-4.24-10.93-3.42-11.09s8.93,1.66,16.47,6.39l-0.7-5a56.37,56.37,0,0,1-1.08-6.69c-35.92-19.49-53-2.85-62.79.37-9.23,3-25.69,2.09-35.65,13.18-8.63,9.61-4.74,17.25-8.64,25.34-3.28,6.81-9.12,26.84-6.11,33.61,3.59,8.09,14.38,14.56,22.28,22.64,6.66,6.82,7.88,17,16.2,21.1s16.14,0.49,19.24.33h0.35l-3.62.66c0,13,10.47,19.74,17.94,17.94,7.27-1.76,14.3-11.51,8.21-22.55,5.57-3.07,11.62-7.43,15.6-12.35,3.42-4.24,16.47-8.64,16.47-9.62s-1.3-14.51,3.1-16.14c3.22-1.19,6.88,6,8.61,9.94,0,0,.59,4.07,2.22,2.07C495.31,265.92,499.37,257.42,495.56,245.3Z" transform="translate(-8.25 -1.71)"/><path class="cls-6" d="M430.44,257.77c4.2-3.13,20.11-7.55,24,1.75,3.05,7.25-10.07,18.23-22.43,19.38C434.62,275.52,436.54,262.88,430.44,257.77Z" transform="translate(-8.25 -1.71)"/><path class="cls-6" d="M419.51,221.14c4.94,0.27,19.77-4.57,18-13.95-1.39-7.3-17.45-9.08-27.77-3.51C413.51,205,421.64,213.93,419.51,221.14Z" transform="translate(-8.25 -1.71)"/><path class="cls-12" d="M464.05,254.55c0.48-.48,8.35-0.71,8.58-0.38,0.53,0.79-.21,10.65-11.95,14.4A15.37,15.37,0,0,0,464.05,254.55Z" transform="translate(-8.25 -1.71)"/><path class="cls-12" d="M448.52,200.38c0.68,0.11,7.21-4.28,7.2-4.68,0-1-6.36-8.54-18.09-4.77A15.37,15.37,0,0,1,448.52,200.38Z" transform="translate(-8.25 -1.71)"/><path class="cls-13" d="M434.09,264.59c6.89,0.23,12.68-6.24,6.43-10.38-4.27.62-8.27,2.21-10.08,3.57A11.66,11.66,0,0,1,434.09,264.59Z" transform="translate(-8.25 -1.71)"/><path class="cls-13" d="M421.83,200.46a29.26,29.26,0,0,0-12.11,3.22c1.8,0.63,4.59,3,6.78,6h0.09C423.69,210.17,428.5,204.64,421.83,200.46Z" transform="translate(-8.25 -1.71)"/><path class="cls-14" d="M431.86,281.8c3,6.91-7.94,10.08-3.57,13.6C432.87,299.08,441.56,290.16,431.86,281.8Z" transform="translate(-8.25 -1.71)"/><path class="cls-6" d="M387.5,217.81c7.36,3.9,22.63,51.05,17.61,63.43-3.46-10.14-23.92-17.4-27-26.31C384.85,246.75,388.17,223.39,387.5,217.81Z" transform="translate(-8.25 -1.71)"/><path class="cls-15" d="M405.11,281.24a20.8,20.8,0,0,0,1-8c-2-4.91-14.28-35.28-20-40.3a96,96,0,0,1-2.52,10.45c5.73,5.52,12.73,25.55,13.76,28.53C400.94,274.83,404,277.87,405.11,281.24Z" transform="translate(-8.25 -1.71)"/><path class="cls-12" d="M491.71,270.35h0c0.2-.25.4-0.51,0.6-0.78l0.17-.23,0.47-.67,0.16-.24c0.2-.31.4-0.62,0.59-1l0.09-.16q0.25-.43.48-0.88l0.16-.32q0.22-.44.44-0.91L495,265q0.26-.58.49-1.2l0.11-.31q0.18-.49.34-1l0.12-.38c0.13-.43.25-0.87,0.36-1.33v0c0.11-.47.2-0.95,0.29-1.44,0-.14,0-0.28.07-0.42q0.09-.58.16-1.18c0-.14,0-0.27,0-0.41,0-.52.08-1.05,0.1-1.6,0-.09,0-0.19,0-0.29q0-.69,0-1.41,0-.25,0-0.51,0-.72-0.11-1.45c0-.11,0-0.23,0-0.34-0.07-.6-0.15-1.21-0.26-1.83,0-.16-0.06-0.32-0.09-0.48q-0.14-.73-0.31-1.49c0-.19-0.09-0.37-0.13-0.56-0.17-.66-0.35-1.32-0.56-2-0.13-.42-0.28-0.85-0.44-1.29l-0.16-.44c-0.11-.3-0.22-0.6-0.34-0.9l-0.22-.53-0.36-.85-0.25-.57-0.39-.86-0.27-.58-0.45-.91-0.27-.56-0.63-1.22-0.41-.77-0.5-.93-0.43-.78-0.41-.73-0.49-.85-0.38-.66-0.54-.91-0.34-.57-0.6-1-0.24-.39c-1.1-1.78-2.24-3.57-3.41-5.33l-0.05-.08h0v0c-4.34-6.55-8.94-12.77-12.33-17.23l-0.08-.1-0.63-.83-0.14-.18-0.55-.72-0.18-.24-1-1.28-0.07-.09-0.55-.72-0.1-.13-0.09-.12-0.31-.4-0.29-.38-0.22-.28-0.4-.54c-3.75-5.06-4.24-10.93-3.42-11.09s8.93,1.66,16.47,6.39l-0.7-5a56.37,56.37,0,0,1-1.08-6.69c-28.65-15.54-45.33-8.11-55.86-2.83h0c1.1-3.21,7.34-5.14,9.24-6.1s5.79-3.6,8.09-4.26,6.1-.91,14.22-2.29c4.31-.73,6.42-3.12,10.27-5,5.42-2.57,11.76-.71,14.5,3.44l0.09,0.11c2.49-14.91,10.8-31,30.59-40.38,0,0-12.4,20.19,2.29,57.67v0.06l1.14,2.77c-0.4-1-.77-1.89-1.14-2.83,0.54-10.58,16.79-20,16.79-20s-10.93,19.73,1.63,52l-1.3,2.94c4.89-4.57,5.87-19.24,4.57-23.48,5.54,8.15,10.27,33.59,2,42.56,0,0,13.7-7.66,15.66-3.91-9.78,3.42-28.4,49.32-31.15,57.24-1.46,4.22-32.44,17.3-72.4,9.1,0-.16-0.09-0.31-0.14-0.47l-11.77.5c6.2-1.47,19-8.26,25.77-16.63,3.42-4.24,16.47-8.64,16.47-9.62s-1.3-14.51,3.1-16.14,9.87,13,9.87,13" transform="translate(-8.25 -1.71)"/><path class="cls-16" d="M505.87,165.26c-9.4,41.82,12,52.75,21.37,64.11,5.08,6.13-2.8,22.68,6.67,28.14l1.85-2.68c-9.47-5.46,0-20.4-6.69-28.09-9.68-11.13-28.87-17.28-21.74-55.85Z" transform="translate(-8.25 -1.71)"/><path class="cls-16" d="M491.4,139.89a50.6,50.6,0,0,0-4.72,6.25c-6.06,27.36,0,53.08,8,69.16,9,18,18.74,39.49,18.55,80.16l3.84-1.34c0.19-40.67-9.4-63.88-18.42-81.91C490.31,195.51,484.14,168.42,491.4,139.89Z" transform="translate(-8.25 -1.71)"/><path class="cls-16" d="M493.5,301.69c4.61-8.2-4.84-19.54,1.32-36.16l-0.12,0-0.25.53-0.16.32q-0.24.45-.48,0.88l-0.09.16c-0.19.33-.39,0.65-0.59,1l-0.16.24-0.47.67-0.17.23c-0.2.27-.4,0.53-0.6,0.78h0l-1,1-0.21-.54c-3.23,13.95,3.79,23.89.26,31.3Q492.18,301.92,493.5,301.69Z" transform="translate(-8.25 -1.71)"/><path class="cls-16" d="M473.76,276.71c-1.13.52-2.41,1.11-3.72,1.74-3.86,9.8-2,18.47-3.56,24.7,1,0.05,2,.1,3,0.13C471.41,296.73,469,287.34,473.76,276.71Z" transform="translate(-8.25 -1.71)"/><path class="cls-2" d="M347.92,206.83l-0.21-.6c-0.51-.51-7-9.21-7-9.21l0.22-.13a21.88,21.88,0,0,0,2.81-4.1c2.14-4.09,3.13-11.95,6.47-13.1,2.45-.89,6.38,1,8.28.7,1.69-.25,4.34-2.62,3.75-4.19a2.63,2.63,0,0,0-3.69-1.31s-4.46,1.16-4.53-1.92,3.77-9.23,5.42-11c2.49-2.63-1-6.22-3.22-3.88-2.86,2.95-5.64,1.1-3.66-1.76,2.2-3.18-2.61-5.27-3.88-2.42-1.17,2.63-4.76,2.27-4.61,0,0.29-4.54-6.14-5.25-6.07-1,0.07,4.61-2.89,7-3.44,3.66-0.51-3.15-5.47-2.33-4.61,1.76,0.67,3.17-1.36,6.74-.44,10.17,1,3.73,1.85,3.54,1.33,4.81-0.22.53-11.63,10.71-13.64,17.22-1.94,6.28,4.54,8.76,9.55,24C333.47,215.23,343.45,211.65,347.92,206.83Z" transform="translate(-8.25 -1.71)"/><path class="cls-17" d="M347.92,206.83a18.47,18.47,0,0,1-3.36,2.77h0c2.77-1.83,4.84-4,5.48-6.28,0.11-2.49-4-4.56-7.34-3.65,2,2.6,4.68,6.23,5,6.55Z" transform="translate(-8.25 -1.71)"/><path class="cls-17" d="M331.77,214.4h0a21.12,21.12,0,0,1-5,.18A21,21,0,0,0,331.77,214.4Z" transform="translate(-8.25 -1.71)"/><path class="cls-17" d="M325.73,214.43q0.49,0.09,1,.14a63.58,63.58,0,0,0-3-7.45c-1.93,1.32-2.83,3.8-2.05,5.56Z" transform="translate(-8.25 -1.71)"/><ellipse class="cls-18" cx="415.23" cy="74.6" rx="36.94" ry="36.92" transform="translate(-14.1 98.88) rotate(-13.72)"/><path class="cls-13" d="M451.12,65.84A36.94,36.94,0,1,0,424,110.47,36.93,36.93,0,0,0,451.12,65.84Zm-27.58,42.67a34.82,34.82,0,0,1-26.15-3.92c0.54-1,3.38-1.3,3.38-1.3-5.62-3.45-6.64-4.47-6.64-4.47,0.73,2.44.64,3.54,0.53,4a34.9,34.9,0,0,1,.83-57l-0.32.25c6.64-4.75,10.55-1.55,10.55-1.55,0.62-.73,5-3.05,5-3.05a58,58,0,0,0-9.7,1.25,34.93,34.93,0,0,1,49.15,32.5A44.66,44.66,0,0,0,447,65a37.48,37.48,0,0,1-1,5.94s4.29,1.82,3.59,9.77A34.93,34.93,0,0,1,423.53,108.51Z" transform="translate(-8.25 -1.71)"/><path class="cls-13" d="M438.15,101.16a33.07,33.07,0,0,1-6.58,4.5s-0.57-1.57-9.6-2.55a60.18,60.18,0,0,0,5.89-4.68s2.24,7.17,10.29,2.73h0Z" transform="translate(-8.25 -1.71)"/><path class="cls-13" d="M420.43,103a113.18,113.18,0,0,0-18.51.08s-0.43-.54-1.6-5.11c0,0,10,6.06,18.57-.48a35.4,35.4,0,0,0,1.53,5.51h0Z" transform="translate(-8.25 -1.71)"/><path class="cls-4" d="M427.57,97.24s-3.34-.37-7.6-0.67c0,0,8-5.93,4.31-17.25,0,0,6.81.4,7.6,0.67,0,0-5.74,8.21-4.31,17.25h0Z" transform="translate(-8.25 -1.71)"/><path class="cls-1" d="M405.84,67.31S395.9,67.05,392,78.25a36.92,36.92,0,0,1-3.27-6.53s7-1.38,13.73-11c0,0,2.92,5.53,3.41,6.57h0Z" transform="translate(-8.25 -1.71)"/><path class="cls-13" d="M385.7,79.19a53.84,53.84,0,0,1,1.68-7.27s-6.37,1.19-5.55-7.31c0,0-1.22,1.85-1.64,7.34,0,0,.55-2,5.5,7.25h0Z" transform="translate(-8.25 -1.71)"/><path class="cls-1" d="M428.21,70.88s-3.36,4.84-4.64,6.81a18.75,18.75,0,0,0-15.71-10.46s2.91-4.37,4.45-6.5a21.47,21.47,0,0,0,15.9,10.15h0Z" transform="translate(-8.25 -1.71)"/><path class="cls-13" d="M411.36,59.15a51.38,51.38,0,0,0-8,0s5.93-7.64,3-13.94a51.78,51.78,0,0,1,7.67-.07s-7.1,4.52-2.67,14h0Z" transform="translate(-8.25 -1.71)"/><path class="cls-13" d="M445,70.8a52.52,52.52,0,0,0-3.08-7.35s-1.28,7.66-12,7.59a75.34,75.34,0,0,1,3,7.22s6.37-9,12.09-7.46h0Z" transform="translate(-8.25 -1.71)"/><path class="cls-4" d="M446.38,63.37a28.18,28.18,0,0,0-4.1-1.37s1.24-7.55-7.78-14.64a13.32,13.32,0,0,1,3.74,1.18,74.74,74.74,0,0,1,8.14,14.83h0Z" transform="translate(-8.25 -1.71)"/><path class="cls-1" d="M432.35,46.08s-7.68-5.76-16.95-1.77c0,0-1.81-2.14-2.7-2.93,0,0,12.42-.07,17.48,1.79a11.55,11.55,0,0,1,2.17,2.9h0Z" transform="translate(-8.25 -1.71)"/><path class="cls-1" d="M397.39,104.59c0.54-1,3.38-1.3,3.38-1.3-5.62-3.45-6.64-4.47-6.64-4.47,0.73,2.44.64,3.54,0.53,4q1.32,1,2.72,1.8h0Z" transform="translate(-8.25 -1.71)"/><path class="cls-1" d="M447,65a37.48,37.48,0,0,1-1,5.94s4.29,1.82,3.59,9.77a34.7,34.7,0,0,0,.54-5.49A44.66,44.66,0,0,0,447,65h0Z" transform="translate(-8.25 -1.71)"/><path class="cls-4" d="M405.73,44.51c0.62-.73,5-3.05,5-3.05a58,58,0,0,0-9.7,1.25,34.66,34.66,0,0,0-5.54,3.09l-0.32.25c6.64-4.75,10.55-1.55,10.55-1.55h0Z" transform="translate(-8.25 -1.71)"/><path class="cls-4" d="M393.77,97.86s-3-7.72-7.43-16.93l-0.14-.28,5.59-.95a15.48,15.48,0,0,0-.25,2,17.16,17.16,0,0,0,7.14,15.07l0.47,0.34-5.38.72h0Z" transform="translate(-8.25 -1.71)"/><path class="cls-19" d="M85.82,178.25c3.4-21.62,12.88-46.27,33.07-70" transform="translate(-8.25 -1.71)"/><path class="cls-19" d="M161,209.25c7.89-3.64,54-9.71,82.2-1.82,0,0,8.19-25.18,30.94-29.73,12.44,9.1,7.11,54.81-6.67,61.57-16.08,7.89-46.14,7-66.12,12-30.33,7.58-54.9,21.63-74.69,17.4-17.05-3.64-35.39-24.11-40.55-50.19" transform="translate(-8.25 -1.71)"/><path class="cls-19" d="M274.19,177.71c-10,13.35-17,39.69-11.53,55.79" transform="translate(-8.25 -1.71)"/><path class="cls-19" d="M175.57,206c-6.33-15.21,9.14-42.82,9.14-42.82" transform="translate(-8.25 -1.71)"/><path class="cls-19" d="M139,269.28c5.16,3.75,7.2,5.63,5.93,8.2-3.22,6.51-52.94,18-48.07,61,34,7.89,48.9-30.92,51.88-32,3.37-1.18,39.13-18.58,39.14-32.32,0-10.12-8.47-16.24-8.47-16.24" transform="translate(-8.25 -1.71)"/><path class="cls-19" d="M116.87,264.91c-8.23,3.15-23.8,25.64-22.7,28,0,0-3.84-15.92,1.1-21,0,0-19.21,8-22.14,18.48a35.22,35.22,0,0,1,8.42-27.63S58.85,276.29,54.1,289.28c0,0-6-36.06,37.38-53.82" transform="translate(-8.25 -1.71)"/><path class="cls-19" d="M189.35,57.36c19.29,14,39.9,31.67,42.95,54.17-12.22,13-66.7,10.72-83.71-26.49-4.4-10,12.48-18.73,13.15-19" transform="translate(-8.25 -1.71)"/><path class="cls-19" d="M175.12,111.32c-3.45,7.49-11.65,13.45-25.87,12s-17.65-14.32-32.13-15-23.41,17.78-34.57,13,2.92-27.64,5.85-31.76c-8.77,3.85-17,6.79-20.15,1.39C63.64,83.12,69.66,72,85.47,66.57c-11.16,2.13-16.25.67-16.34-5.71-0.11-7.22,7.71-12,13.82-14-8.24-.27-15-4.12-13.42-12,1.75-8.6,10-15,17.41-11.29C74.18,18.61,77-.26,99.56,2.79c22,3,52.95,27.87,69.73,40.26" transform="translate(-8.25 -1.71)"/><path class="cls-19" d="M199.67,117.93c5.4,6.86,7.27,18.28,1.45,29.5S179.3,168.63,167,172.36s-49.85,14-65.33,25.67c-13,9.78-11.56,18.34-14.42,20.36C85,220,81.36,206.94,85.71,198.67" transform="translate(-8.25 -1.71)"/><path class="cls-19" d="M83.69,206.73c-5.19.11-9.43,9.65-11.34,9.65-2.54,0-2.65-15,4.88-20.89" transform="translate(-8.25 -1.71)"/><path class="cls-19" d="M72.06,203.53c-8.33,2.41-9.9,10.63-13.83,10.63-5.09,0,.56-20.52,19-31s35.3-16.8,46.43-22.42,33.93-18,38.07-38.4" transform="translate(-8.25 -1.71)"/><path class="cls-19" d="M68.27,189.71c-5.86,0-10-1.53-10-3.82s5.65-2.42,7.31-2.42,7,0.46,10.07.63" transform="translate(-8.25 -1.71)"/><path class="cls-19" d="M89.38,162.23c-11.54-8-38.42-9.87-46.88,1.25-3.48,4.57-7.63,12.91-11.39,12-4.47-1.07.24-18.47,4.47-21.49-7.13,0-22.59,14.13-25.37,13.65s-0.07-8,1.16-10.46c6.17-12.11,30.71-21.31,48.24-29.4,9.57-4.42,16.56-9.59,18.48-12.2" transform="translate(-8.25 -1.71)"/><path class="cls-19" d="M19.5,162.21c-2.29,5-6,16.67-1.8,17.4s7.72-11.48,12.19-13.29" transform="translate(-8.25 -1.71)"/><path class="cls-19" d="M177.59,112.46c-4.52,4.74-8,20.67.49,21.53,4.64,0.48,5.85-6.17,5.85-6.17s0.87,8.8,6.55,7.14c4.87-1.42,7.66-11.24,3.15-17" transform="translate(-8.25 -1.71)"/><path class="cls-19" d="M186.79,115.76C176,107.42,164,92.21,175.16,86.9" transform="translate(-8.25 -1.71)"/><path class="cls-19" d="M179.73,63c-0.35,8.39-9.15,10.08-15.64,5S154.65,54.29,157,48.74s9.41-3,12.44-.51S180,56.09,179.73,63Z" transform="translate(-8.25 -1.71)"/><path class="cls-19" d="M179.61,64.22c3.51,2.67,11,1.32,9.78-6.08-1.27-7.62-9.69-14.09-14.74-15.09-4.9-1-8.42,1-8.26,3.36" transform="translate(-8.25 -1.71)"/><circle class="cls-20" cx="165.87" cy="63.38" r="1.64"/><circle class="cls-20" cx="175.58" cy="59.38" r="1.64"/><path class="cls-13" d="M147.84,39.09c-0.47,4.61,17,5.77,16.69,3.92s-4.36-3.32-6.82-4.07C154.55,38,148.13,36.16,147.84,39.09Z" transform="translate(-8.25 -1.71)"/><path class="cls-13" d="M172.09,31.29c3.54,3.06-5.52,12.6-6.64,11.1s0.11-4.54,1-6.3C167.49,33.82,169.84,29.34,172.09,31.29Z" transform="translate(-8.25 -1.71)"/><path class="cls-21" d="M273.7,187.3a3.09,3.09,0,1,1-.77,6.07" transform="translate(-8.25 -1.71)"/><path class="cls-21" d="M269.4,223.9c1.89,0.43,3.17,1.88,2.85,3.24s-2.09,2.1-4,1.67" transform="translate(-8.25 -1.71)"/><path class="cls-21" d="M273,207.17c1.94,0.26,3.35,1.66,3.15,3.13s-1.93,2.45-3.86,2.19" transform="translate(-8.25 -1.71)"/><path class="cls-13" d="M290.24,201.59c-0.35-.71,1.25-0.58,1.29-0.85s-0.62-1.16-.31-1.29c0.89,0.13,10.42-1.51,11.22-1.34a2,2,0,0,1,1.38,1.78c-5.61.4-10.56,2.09-12.25,2C290.77,201.81,290.37,201.86,290.24,201.59Z" transform="translate(-8.25 -1.71)"/><path class="cls-13" d="M285.14,209c0.28-.84,25.33-4.92,26.83-4.33s0.46,0.92.46,0.92a1.36,1.36,0,0,0-.5,1.13c0.21,0.46-7.84.63-11.87,1.42-5.33,1-13.79,2.67-14.08,2.54A2.48,2.48,0,0,1,285.14,209Z" transform="translate(-8.25 -1.71)"/><path class="cls-13" d="M384.08,165.16c0-.32,2.34.2,2.34,0.46s-1,6-3.05,7.07-1.27,1.22-2.34,1.37-6.71-.31-6.61-0.81,1.68-.51,1.83-0.66-0.86-1.07-.81-1.42,0.25-1.17.66-1,4.68,1.32,5.9.31A7.59,7.59,0,0,0,384.08,165.16Z" transform="translate(-8.25 -1.71)"/><path class="cls-13" d="M387.28,168.26c0.06-.39,2-1,3.31-0.61s2.59,2.24,2.24,2.29a4.71,4.71,0,0,0-2.37.52c-0.78.57-.63,2.76-0.49,3.43,0.41,2,5,3.69,4.79,4a1.82,1.82,0,0,1-1.07.71c-0.31,0-5.34-.56-5.54-1.68S386.47,173.3,387.28,168.26Z" transform="translate(-8.25 -1.71)"/><path class="cls-13" d="M380.67,185.91c0.73,0.49,1.48-.25,1.73-1s0.56-3.66,3.1-3.76,3.56,1.78,3.92,1.42,0.86-2.7.31-3-3-2.39-6.05-.36S379.25,184.95,380.67,185.91Z" transform="translate(-8.25 -1.71)"/><path class="cls-13" d="M374.06,177.27c0.16-.39.76-1.93,3.1-1.12s3.15,3.61,2.75,4.22a19.37,19.37,0,0,0-1.48,3.15c-0.15.56-.25,1.27-0.86,1a1,1,0,0,1-.51-1.17c0.05-.36-0.56-0.31-0.2-1.17s1.27-2.85.41-3.15-2.54,2-3.36,1.83-0.51-1.07-.81-1.27-2-.36-1.58-0.61S373.8,177.88,374.06,177.27Z" transform="translate(-8.25 -1.71)"/><path class="cls-13" d="M387.1,152.22c1.06-2.25,11.54-21,12.6-20.78,0.82,0.14.87,1.12,1.19,1.06s1.29,0.15.69,0.44c-1.31.62-11.74,20.12-12.17,22-0.12.56-1.5-.12-1.44-0.75a1.51,1.51,0,0,0-.19-1.37A3.7,3.7,0,0,1,387.1,152.22Z" transform="translate(-8.25 -1.71)"/><path class="cls-13" d="M398.88,151.09c-1,0-1.8-1.8-1.28-2.79s15.86-24.86,16.56-24.92,2.38,0.12,2.21.29a0.88,0.88,0,0,0,.35,1c0.29,0.12-15,22.83-15.45,24.23-0.64.52-.17-0.58-0.64-0.41S399.81,151.09,398.88,151.09Z" transform="translate(-8.25 -1.71)"/><path class="cls-19" d="M260.15,254.8c-6.59,1.65-27.34,9.55-35.74,18.61,5.6,5.27,14.82,27.34,15.48,31.63,7.91-3.79,27.84-8.89,27.84-8.89" transform="translate(-8.25 -1.71)"/><path class="cls-19" d="M239.53,303.55c-2.5.75-6.28,0.49-6.69,0" transform="translate(-8.25 -1.71)"/><path class="cls-19" d="M234.56,304c0,1.89-3,10.45-5.67,10.28s-18.5,0-25.32-18.87c0-2.63,9-19.7,20.83-22" transform="translate(-8.25 -1.71)"/><path class="cls-19" d="M193.14,316.56c0-4.92,6.34-18.1,10.44-20.57" transform="translate(-8.25 -1.71)"/><path class="cls-19" d="M228.32,314.26c-2.63,4.11-9.25,15.14-11.52,14.47" transform="translate(-8.25 -1.71)"/><path class="cls-19" d="M174.3,350.31c-5.58-5-3.41-13.84-.75-19.67C176.61,324,185,318,193.14,316.56a24.89,24.89,0,0,0,9.5,7.83c6.17,2.83,13.25,4.5,14.17,4.33,0.83,1.5,4,10-3,15.58C207.45,349.38,181,356.34,174.3,350.31Z" transform="translate(-8.25 -1.71)"/><path class="cls-19" d="M259.75,298.3c5.22,7,15.14,10.33,28.7,9.62,18.75-1,52.67-15.82,57.24-18.1,0,0-2.77,15.17,5.38,26.91C362.16,320.15,378,315.91,384,304c0,0-2.94-17.12-14.51-21.69,5.38-9.78,3.9-16,3.9-16" transform="translate(-8.25 -1.71)"/><path class="cls-19" d="M263,301.26c-8.65,7.52-37.23,34.72-41.74,49.39,13.54-11.53,53-4.76,55.79,13.16,0,0-7.52,16.8-2.63,33.72,14.17-1.25,22.31-24.82,24.82-45,2.58-20.8,17.15-37.32,29-44.38,10.91-6.52,17-9.65,17-9.65" transform="translate(-8.25 -1.71)"/><path class="cls-19" d="M277,363.82c0.75-5.64,21.69-35.73,36.61-43" transform="translate(-8.25 -1.71)"/><path class="cls-19" d="M290.69,307.66c20.18-11.28,26.7-52.28,17.3-66.57-6-9.13-25.2-5.14-25.82-4.89" transform="translate(-8.25 -1.71)"/><path class="cls-19" d="M286.05,235.7c0.75-9.78-6.27-21.56-6.27-21.56" transform="translate(-8.25 -1.71)"/><path class="cls-19" d="M240.32,206.49c-1-2.88-4.55-14.08-5.06-16" transform="translate(-8.25 -1.71)"/><path class="cls-19" d="M243.68,245.23c0.63,1.25,5.64,13.79,5.64,13.79" transform="translate(-8.25 -1.71)"/><path class="cls-19" d="M230.58,170.65A188.89,188.89,0,0,1,234.51,190c3.93,1.27,12.18.66,20.41-1.37" transform="translate(-8.25 -1.71)"/><path class="cls-19" d="M230.58,170.65c-0.76-.5-4.94-17.6-4.43-19-0.76-7,35.84-28,49-24.44,3.42,4.81,2.79,18.24-4.94,25.2-4,3.58-10.11,8.47-11.4,13.93C257.81,170.65,237.55,175.21,230.58,170.65Z" transform="translate(-8.25 -1.71)"/><path class="cls-19" d="M226.15,151.66c13.8,2.28,49.64-14.44,49.13-24.19" transform="translate(-8.25 -1.71)"/><path class="cls-19" d="M264.49,180.75c-1.27-2.41-4.4-11.87-5.66-14.4" transform="translate(-8.25 -1.71)"/><path class="cls-22" d="M252.08,141.52c-1.09-1.18-.52-3.94,1.33-4.1s2.8,1.43,2.62,3.47Z" transform="translate(-8.25 -1.71)"/><path class="cls-22" d="M237,148.5c-1.13-1.14-.67-3.92,1.18-4.15s2.85,1.33,2.74,3.37Z" transform="translate(-8.25 -1.71)"/><path class="cls-22" d="M230.65,146.56c-1.08-1.18-.51-3.94,1.34-4.1s2.79,1.44,2.61,3.48Z" transform="translate(-8.25 -1.71)"/><path class="cls-22" d="M246.79,136.84c-1.12-1.14-.64-3.92,1.2-4.14s2.84,1.35,2.72,3.39Z" transform="translate(-8.25 -1.71)"/><path class="cls-22" d="M265.36,134.28c-1-1.23-.31-4,1.55-4s2.71,1.58,2.43,3.61Z" transform="translate(-8.25 -1.71)"/><path class="cls-22" d="M261.83,129.71c-1-1.23-.31-4,1.55-4s2.71,1.58,2.43,3.61Z" transform="translate(-8.25 -1.71)"/><path class="cls-23" d="M367.21,233.53c-1.45-3.46-10.59-25.86-17.17-30.21-2.23,8-22.29,14.83-28.31,9.36,3,6,10.37,15.72,12.48,18.39-2.34.11-9.81,8-9.81,8" transform="translate(-8.25 -1.71)"/><path class="cls-19" d="M307.35,239.89c3.57-.67,21.4-2,25.08,0" transform="translate(-8.25 -1.71)"/><path class="cls-19" d="M376.06,312.54c-0.88,8.9-18.68,28.21-18.18,30.71,0.44,2.22-3.76,6.52-3,8.52s3,11.91,1.76,14.17-7.65,10.28-11,9.53" transform="translate(-8.25 -1.71)"/><path class="cls-19" d="M351,366.07c-1.38,2.51-9.65,17.17-13.54,13.29" transform="translate(-8.25 -1.71)"/><path class="cls-19" d="M346.46,366.11c-1.38,2.51-9.65,17.17-13.54,13.29,0,0,3-10.19,5.41-12.07,0,0,.25-10.53-2.51-11.91-2.38.63-13.79,1.5-11.78-1.5s4.39-2.26,6.14-3.64,13.41-8.15,14.67-9.9,4.76-20.81,6.27-24.07" transform="translate(-8.25 -1.71)"/><path class="cls-19" d="M490.75,271.35s-5.47-14.64-9.87-13-3.1,15.17-3.1,16.14-13,5.38-16.47,9.62c-6.77,8.38-19.57,15.17-25.77,16.63-4.12,1-10.6-.44-12.72-0.33-3.1.16-10.93,3.75-19.24-.33S394,285.81,387.38,279c-7.91-8.09-18.69-14.56-22.28-22.64-3-6.77,2.83-26.8,6.11-33.61,3.9-8.09,0-15.73,8.64-25.34,10-11.09,26.42-10.13,35.65-13.18,9.76-3.22,26.92-19.91,63-.28" transform="translate(-8.25 -1.71)"/><path class="cls-19" d="M364.85,228.39c-1.35,3.6-3.15,4.95-1.91,7.31l3.71,0.22" transform="translate(-8.25 -1.71)"/><path class="cls-19" d="M373.62,266.86c-6.64-.22-11.36-1.57-10.12,1s8.89,8.66,6.64,12.82" transform="translate(-8.25 -1.71)"/><circle class="cls-20" cx="361.14" cy="268.03" r="1.5"/><path class="cls-19" d="M487.89,273.84c2.12-1,13.21-10.93,7.66-28.54-4.68-14.87-25.17-40.47-28.54-45-3.75-5.06-4.24-10.93-3.42-11.09s9.65,1.81,17.45,7c-5.71-14.68-7-52.84,28.38-69.63,0,0-13,21.2,3.42,60.5" transform="translate(-8.25 -1.71)"/><path class="cls-19" d="M528.82,219.21c4.89-4.57,5.87-19.24,4.57-23.48,5.54,8.15,10.27,33.59,2,42.56,0,0,13.7-7.66,15.66-3.91-9.78,3.42-28.4,49.32-31.15,57.24-1.47,4.24-32.78,17.45-73.06,9" transform="translate(-8.25 -1.71)"/><path class="cls-19" d="M445.65,296.34c6.2,11.09-.86,20.91-8.15,22.67-7.47,1.8-17.94-4.89-17.94-17.94" transform="translate(-8.25 -1.71)"/><path class="cls-19" d="M426.41,305.15c3.13,4.93,6.91,6.87,10.27,5.69,2.8-1,4.08-3.73,4.74-8" transform="translate(-8.25 -1.71)"/><path class="cls-19" d="M478.74,166.86c-2.74-4.15-9.09-6-14.5-3.44-3.85,1.83-6,4.22-10.27,5-8.11,1.38-11.91,1.63-14.22,2.29s-6.19,3.3-8.09,4.26-8.14,2.89-9.24,6.1" transform="translate(-8.25 -1.71)"/><path class="cls-19" d="M420.54,248.57c0.23,0.69,8.51,26.44,7.59,28.28" transform="translate(-8.25 -1.71)"/><path class="cls-19" d="M397.09,198.23c5.54,2.4,15.17,23.45,15.86,25.29" transform="translate(-8.25 -1.71)"/><path class="cls-19" d="M406,231c1,0.08,9.38,1.53,9.61,2.06s-2.59,10.15-2.9,10.6" transform="translate(-8.25 -1.71)"/><path class="cls-19" d="M434.48,230.16c-3.43,2.21-14.8,10.15-17.16,8.24-1.83-1.91-1.68-5.34-1.68-5.34" transform="translate(-8.25 -1.71)"/><path class="cls-13" d="M404.28,232.07c0,0.38-.08,2.44-0.08,2.44s1.68,1.6,2.21,1.45,2.52-.53,2.52-0.53l-0.31-.84,0.38-.76s-1.07-.08-1.53-0.08A20.43,20.43,0,0,1,404.28,232.07Z" transform="translate(-8.25 -1.71)"/><path class="cls-13" d="M407.1,239.69c0.08-.23.38-1,0.38-1l1.83-1.22,0.31,6.18h-0.76s-0.15.08-.23-0.53a12.21,12.21,0,0,1-.08-1.3Z" transform="translate(-8.25 -1.71)"/><path class="cls-19" d="M430.44,257.77c4.2-3.13,20.11-7.55,24,1.75,3.05,7.25-10.07,18.23-22.43,19.38C434.62,275.52,436.54,262.88,430.44,257.77Z" transform="translate(-8.25 -1.71)"/><path class="cls-19" d="M433.8,264.58c7.13,0.44,13.25-6.37,6.44-10.56" transform="translate(-8.25 -1.71)"/><path class="cls-19" d="M419.51,221.14c4.94,0.27,19.77-4.57,18-13.95-1.39-7.3-17.45-9.08-27.77-3.51C413.51,205,421.64,213.93,419.51,221.14Z" transform="translate(-8.25 -1.71)"/><path class="cls-19" d="M416.6,209.73c7.13,0.44,12-5.15,5.14-9.34" transform="translate(-8.25 -1.71)"/><path class="cls-19" d="M387.5,217.81c7.36,3.9,22.63,51.05,17.61,63.43-3.46-10.14-23.92-17.4-27-26.31C384.85,246.75,388.17,223.39,387.5,217.81Z" transform="translate(-8.25 -1.71)"/><path class="cls-19" d="M386.07,232.95c6.24,5.46,20.29,41,20.29,41" transform="translate(-8.25 -1.71)"/><path class="cls-19" d="M383.23,243.09c6.24,5.46,14.21,29.22,14.21,29.22" transform="translate(-8.25 -1.71)"/><path class="cls-19" d="M431.86,281.8c3,6.91-7.94,10.08-3.57,13.6C432.87,299.08,441.56,290.16,431.86,281.8Z" transform="translate(-8.25 -1.71)"/><path class="cls-19" d="M511.7,184.31c0.49-10.6,16.8-20.06,16.8-20.06s-10.93,19.73,1.63,52" transform="translate(-8.25 -1.71)"/><path class="cls-19" d="M342.42,199.75c3.34-1.11,7.73,1,7.62,3.57" transform="translate(-8.25 -1.71)"/><path class="cls-19" d="M323.84,207.08c-2,1.31-2.89,3.82-2.11,5.61" transform="translate(-8.25 -1.71)"/><path class="cls-19" d="M332.15,203a21.61,21.61,0,0,0,11.59-10.2c2.14-4.09,3.13-11.95,6.47-13.1,2.45-.89,6.38,1,8.28.7,1.69-.25,4.34-2.62,3.75-4.19a2.63,2.63,0,0,0-3.69-1.31s-4.46,1.16-4.53-1.92,3.77-9.23,5.42-11c2.49-2.63-1-6.22-3.22-3.88-2.86,2.95-5.64,1.1-3.66-1.76,2.2-3.18-2.61-5.27-3.88-2.42-1.17,2.63-4.76,2.27-4.61,0,0.29-4.54-6.14-5.25-6.07-1,0.07,4.61-2.89,7-3.44,3.66-0.51-3.15-5.47-2.33-4.61,1.76,0.67,3.17-1.36,6.74-.44,10.17,1,3.73,1.85,3.54,1.33,4.81-0.22.53-11.63,10.71-13.64,17.22-1.94,6.29,4.54,8.77,9.56,24" transform="translate(-8.25 -1.71)"/><path class="cls-19" d="M347.71,206.23c-0.51-.51-7-9.21-7-9.21" transform="translate(-8.25 -1.71)"/><path class="cls-3" d="M349.44,244.45c1,1.26,5.77,7.05,9.8,9a7.2,7.2,0,0,1,.31,1.46s-3.35-.9-4.6-1.22c-8.62-3.08-16.46-4.46-26.63-1.72l-0.24-2.12a84,84,0,0,1,15.39-.29,51.93,51.93,0,0,1,11.12,2.57,2.58,2.58,0,0,0-.1-0.74s-4.54-3.67-5-5C349.44,246.19,349.44,244.45,349.44,244.45Z" transform="translate(-8.25 -1.71)"/><path class="cls-3" d="M356.9,262.06c-0.22.12-.73,0.75-0.46,0.89s3.9,0.69,1.12,4.57c-1.43,2-6,1.22-5.63-3.54a2.76,2.76,0,0,0-.53-0.85s-1.13,8.07-9.47,7.75-12.53-7.43-10.12-13.31a1.33,1.33,0,0,0-.55-0.37s-4.51,9.95,2.94,15,16.78,2.73,17.49-3.49c1.39,1.56,6.55,4.52,8.5-.67S356.9,262.06,356.9,262.06Z" transform="translate(-8.25 -1.71)"/><path class="cls-13" d="M247.61,277.49c0.75,0.37,4.25,2,6.58,2.08a3.73,3.73,0,0,1,.47.62s-1.38.41-2,.54c-4.71.45-9.08,1.43-13.24,4.95l-0.58-.94a43.46,43.46,0,0,1,7.15-3.52,26.87,26.87,0,0,1,5.77-1.24,1.34,1.34,0,0,0-.21-0.32s-2.93-.72-3.43-1.22C248,278.3,247.61,277.49,247.61,277.49Z" transform="translate(-8.25 -1.71)"/><path class="cls-13" d="M253,284.3c-0.08.09-.21,0.46-0.06,0.48s1.88-.32,1.25,1.89c-0.32,1.14-2.53,1.53-3.12-.69a1.33,1.33,0,0,0-.38-0.3,4.35,4.35,0,0,1-3,5c-3.83,1.21-6.88-1.34-6.74-4.39a0.64,0.64,0,0,0-.31-0.08s-0.43,5.23,3.76,6.32,8-1.48,7.36-4.41c0.88,0.48,3.7,1,3.74-1.68A2,2,0,0,0,253,284.3Z" transform="translate(-8.25 -1.71)"/></svg>