<svg id="Boutons" xmlns="http://www.w3.org/2000/svg" viewBox="0 0 360 282"><defs><style>.cls-1,.cls-6{fill:#3e3d40;}.cls-1,.cls-2,.cls-3,.cls-4,.cls-5{fill-rule:evenodd;}.cls-2{fill:#da4843;}.cls-3{fill:#2d7fbc;}.cls-4,.cls-7{fill:#818182;}.cls-5,.cls-8{fill:#2d7ebc;}.cls-9{fill:#00ff72;}.cls-10{fill:#4d4d4d;}.cls-11{fill:#4dff9d;}.cls-12{fill:#fff;}.cls-13{fill:#8bb1dc;}.cls-14{fill:#bdd2e9;}.cls-15{fill:#3e3e3e;}</style></defs><title>uiux_btns</title><path class="cls-1" d="M29.8,171.75a17,17,0,1,0,.44,24A17,17,0,0,0,29.8,171.75Zm-.21,23.39a16,16,0,0,1-11.14,4.92c-.05-.54,1-1.34,1-1.34a23,23,0,0,1-3.69-.1A3.86,3.86,0,0,1,17,200,16.05,16.05,0,0,1,3.23,177.67l-.06.17c1.41-3.48,3.72-3.2,3.72-3.2a17.07,17.07,0,0,1,1.19-2.42,25.9,25.9,0,0,0-3.46,2.88,16.76,16.76,0,0,1,1.81-2.26,16.09,16.09,0,0,1,25.31,2.78A20.65,20.65,0,0,0,28,172.43,16.79,16.79,0,0,1,29.08,175s2.12-.35,3.81,2.91A16.09,16.09,0,0,1,29.59,195.14Z"/><path class="cls-1" d="M33.46,188.68A15.41,15.41,0,0,1,32,192.05s-.61-.47-4.36,1.38a27.84,27.84,0,0,0,1.14-3.28s2.63,2.24,4.67-1.47Z"/><path class="cls-1" d="M27,193.76a52.89,52.89,0,0,0-7.18,4.6,10.44,10.44,0,0,1-1.88-1.6s5.38-.1,7.11-4.76A16.31,16.31,0,0,0,27,193.76Z"/><path class="cls-2" d="M28.38,189.76s-1.39.68-3.12,1.61a7,7,0,0,0-2.58-7.77s2.75-1.52,3.12-1.61c0,0-.21,4.61,2.58,7.77Z"/><path class="cls-3" d="M12.55,183.48a6.94,6.94,0,0,0-2.7,7.67A16.67,16.67,0,0,1,7,189.42s2.4-2.27,2.64-7.66c0,0,2.5,1.43,2.94,1.72Z"/><path class="cls-1" d="M7.65,193.06a24.16,24.16,0,0,1-1.14-3.24s-2.18,2-4-1.47a7.87,7.87,0,0,0,1.17,3.25s-.27-.9,3.93,1.46Z"/><path class="cls-3" d="M22.13,179.35s-.11,2.72-.13,3.79a8.64,8.64,0,0,0-8.68-.19s0-2.42.13-3.63a9.85,9.85,0,0,0,8.68,0Z"/><path class="cls-1" d="M12.69,179a23.3,23.3,0,0,0-3.12,2s.43-4.44-2.26-6.16a24.31,24.31,0,0,1,3-1.92s-1.65,3.51,2.42,6.11Z"/><path class="cls-1" d="M28.65,175.18a25.44,25.44,0,0,0-3-2.1s1.39,3.3-2.78,5.9a34.55,34.55,0,0,1,2.92,2.08s.26-5.07,2.87-5.88Z"/><path class="cls-2" d="M27.35,172a13.26,13.26,0,0,0-1.94.48s-1.38-3.24-6.63-3.78a6.09,6.09,0,0,1,1.75-.46A34.33,34.33,0,0,1,27.35,172Z"/><path class="cls-3" d="M17.63,168.69a8.24,8.24,0,0,0-7,3.49,17.36,17.36,0,0,0-1.77-.47s4.82-3.09,7.24-3.61a5.32,5.32,0,0,1,1.56.59Z"/><path class="cls-3" d="M18.45,200.06c-.05-.54,1-1.34,1-1.34a23,23,0,0,1-3.69-.1A3.86,3.86,0,0,1,17,200a12.52,12.52,0,0,0,1.5,0Z"/><path class="cls-3" d="M28,172.43A16.79,16.79,0,0,1,29.08,175s2.12-.35,3.81,2.91a15.6,15.6,0,0,0-1.15-2.27A20.65,20.65,0,0,0,28,172.43Z"/><path class="cls-2" d="M6.89,174.64a17.07,17.07,0,0,1,1.19-2.42,25.9,25.9,0,0,0-3.46,2.88,15.6,15.6,0,0,0-1.39,2.57l-.06.17c1.41-3.48,3.72-3.2,3.72-3.2Z"/><path class="cls-2" d="M15.39,198.33s-3.07-2.26-7.07-4.75l-.12-.07,1.94-1.75a7.52,7.52,0,0,0,.41.85,7.88,7.88,0,0,0,6.49,4.1l.26,0-1.91,1.6Z"/><path class="cls-4" d="M29.8,211.75a17,17,0,1,0,.44,24A17,17,0,0,0,29.8,211.75Zm-.21,23.39a16,16,0,0,1-11.14,4.92c-.05-.54,1-1.34,1-1.34a23,23,0,0,1-3.69-.1A3.86,3.86,0,0,1,17,240,16.05,16.05,0,0,1,3.23,217.67l-.06.17c1.41-3.48,3.72-3.2,3.72-3.2a17.07,17.07,0,0,1,1.19-2.42,25.9,25.9,0,0,0-3.46,2.88,16.76,16.76,0,0,1,1.81-2.26,16.09,16.09,0,0,1,25.31,2.78A20.65,20.65,0,0,0,28,212.43,16.79,16.79,0,0,1,29.08,215s2.12-.35,3.81,2.91A16.09,16.09,0,0,1,29.59,235.14Z"/><path class="cls-4" d="M33.46,228.68A15.41,15.41,0,0,1,32,232.05s-.61-.47-4.36,1.38a27.84,27.84,0,0,0,1.14-3.28s2.63,2.24,4.67-1.47Z"/><path class="cls-4" d="M27,233.76a52.89,52.89,0,0,0-7.18,4.6,10.44,10.44,0,0,1-1.88-1.6s5.38-.1,7.11-4.76A16.31,16.31,0,0,0,27,233.76Z"/><path class="cls-4" d="M28.38,229.76s-1.39.68-3.12,1.61a7,7,0,0,0-2.58-7.77s2.75-1.52,3.12-1.61c0,0-.21,4.61,2.58,7.77Z"/><path class="cls-4" d="M12.55,223.48a6.94,6.94,0,0,0-2.7,7.67A16.67,16.67,0,0,1,7,229.42s2.4-2.27,2.64-7.66c0,0,2.5,1.43,2.94,1.72Z"/><path class="cls-4" d="M7.65,233.06a24.16,24.16,0,0,1-1.14-3.24s-2.18,2-4-1.47a7.87,7.87,0,0,0,1.17,3.25s-.27-.9,3.93,1.46Z"/><path class="cls-4" d="M22.13,219.35s-.11,2.72-.13,3.79a8.64,8.64,0,0,0-8.68-.19s0-2.42.13-3.63a9.85,9.85,0,0,0,8.68,0Z"/><path class="cls-4" d="M12.69,219a23.3,23.3,0,0,0-3.12,2s.43-4.44-2.26-6.16a24.31,24.31,0,0,1,3-1.92s-1.65,3.51,2.42,6.11Z"/><path class="cls-4" d="M28.65,215.18a25.44,25.44,0,0,0-3-2.1s1.39,3.3-2.78,5.9a34.55,34.55,0,0,1,2.92,2.08s.26-5.07,2.87-5.88Z"/><path class="cls-4" d="M27.35,212a13.26,13.26,0,0,0-1.94.48s-1.38-3.24-6.63-3.78a6.09,6.09,0,0,1,1.75-.46A34.33,34.33,0,0,1,27.35,212Z"/><path class="cls-4" d="M17.63,208.69a8.24,8.24,0,0,0-7,3.49,17.36,17.36,0,0,0-1.77-.47s4.82-3.09,7.24-3.61a5.32,5.32,0,0,1,1.56.59Z"/><path class="cls-4" d="M18.45,240.06c-.05-.54,1-1.34,1-1.34a23,23,0,0,1-3.69-.1A3.86,3.86,0,0,1,17,240a12.52,12.52,0,0,0,1.5,0Z"/><path class="cls-4" d="M28,212.43A16.79,16.79,0,0,1,29.08,215s2.12-.35,3.81,2.91a15.6,15.6,0,0,0-1.15-2.27A20.65,20.65,0,0,0,28,212.43Z"/><path class="cls-4" d="M6.89,214.64a17.07,17.07,0,0,1,1.19-2.42,25.9,25.9,0,0,0-3.46,2.88,15.6,15.6,0,0,0-1.39,2.57l-.06.17c1.41-3.48,3.72-3.2,3.72-3.2Z"/><path class="cls-4" d="M15.39,238.33s-3.07-2.26-7.07-4.75l-.12-.07,1.94-1.75a7.52,7.52,0,0,0,.41.85,7.88,7.88,0,0,0,6.49,4.1l.26,0-1.91,1.6Z"/><path class="cls-5" d="M29.8,251.75a17,17,0,1,0,.44,24A17,17,0,0,0,29.8,251.75Zm-.21,23.39a16,16,0,0,1-11.14,4.92c-.05-.54,1-1.34,1-1.34a23,23,0,0,1-3.69-.1A3.86,3.86,0,0,1,17,280,16.05,16.05,0,0,1,3.23,257.67l-.06.17c1.41-3.48,3.72-3.2,3.72-3.2a17.07,17.07,0,0,1,1.19-2.42,25.9,25.9,0,0,0-3.46,2.88,16.76,16.76,0,0,1,1.81-2.26,16.09,16.09,0,0,1,25.31,2.78A20.65,20.65,0,0,0,28,252.43,16.79,16.79,0,0,1,29.08,255s2.12-.35,3.81,2.91A16.09,16.09,0,0,1,29.59,275.14Z"/><path class="cls-5" d="M33.46,268.68A15.41,15.41,0,0,1,32,272.05s-.61-.47-4.36,1.38a27.84,27.84,0,0,0,1.14-3.28s2.63,2.24,4.67-1.47Z"/><path class="cls-5" d="M27,273.76a52.89,52.89,0,0,0-7.18,4.6,10.44,10.44,0,0,1-1.88-1.6s5.38-.1,7.11-4.76A16.31,16.31,0,0,0,27,273.76Z"/><path class="cls-5" d="M28.38,269.76s-1.39.68-3.12,1.61a7,7,0,0,0-2.58-7.77s2.75-1.52,3.12-1.61c0,0-.21,4.61,2.58,7.77Z"/><path class="cls-5" d="M12.55,263.48a6.94,6.94,0,0,0-2.7,7.67A16.67,16.67,0,0,1,7,269.42s2.4-2.27,2.64-7.66c0,0,2.5,1.43,2.94,1.72Z"/><path class="cls-5" d="M7.65,273.06a24.16,24.16,0,0,1-1.14-3.24s-2.18,2-4-1.47a7.87,7.87,0,0,0,1.17,3.25s-.27-.9,3.93,1.46Z"/><path class="cls-5" d="M22.13,259.35s-.11,2.72-.13,3.79a8.64,8.64,0,0,0-8.68-.19s0-2.42.13-3.63a9.85,9.85,0,0,0,8.68,0Z"/><path class="cls-5" d="M12.69,259a23.3,23.3,0,0,0-3.12,2s.43-4.44-2.26-6.16a24.31,24.31,0,0,1,3-1.92s-1.65,3.51,2.42,6.11Z"/><path class="cls-5" d="M28.65,255.18a25.44,25.44,0,0,0-3-2.1s1.39,3.3-2.78,5.9a34.55,34.55,0,0,1,2.92,2.08s.26-5.07,2.87-5.88Z"/><path class="cls-5" d="M27.35,252a13.26,13.26,0,0,0-1.94.48s-1.38-3.24-6.63-3.78a6.09,6.09,0,0,1,1.75-.46A34.33,34.33,0,0,1,27.35,252Z"/><path class="cls-5" d="M17.63,248.69a8.24,8.24,0,0,0-7,3.49,17.36,17.36,0,0,0-1.77-.47s4.82-3.09,7.24-3.61a5.32,5.32,0,0,1,1.56.59Z"/><path class="cls-5" d="M18.45,280.06c-.05-.54,1-1.34,1-1.34a23,23,0,0,1-3.69-.1A3.86,3.86,0,0,1,17,280a12.52,12.52,0,0,0,1.5,0Z"/><path class="cls-5" d="M28,252.43A16.79,16.79,0,0,1,29.08,255s2.12-.35,3.81,2.91a15.6,15.6,0,0,0-1.15-2.27A20.65,20.65,0,0,0,28,252.43Z"/><path class="cls-5" d="M6.89,254.64a17.07,17.07,0,0,1,1.19-2.42,25.9,25.9,0,0,0-3.46,2.88,15.6,15.6,0,0,0-1.39,2.57l-.06.17c1.41-3.48,3.72-3.2,3.72-3.2Z"/><path class="cls-5" d="M15.39,278.33s-3.07-2.26-7.07-4.75l-.12-.07,1.94-1.75a7.52,7.52,0,0,0,.41.85,7.88,7.88,0,0,0,6.49,4.1l.26,0-1.91,1.6Z"/><circle class="cls-6" cx="13" cy="88" r="2"/><circle class="cls-6" cx="7" cy="88" r="2"/><circle class="cls-6" cx="19" cy="88" r="2"/><circle class="cls-7" cx="13" cy="118" r="2"/><circle class="cls-7" cx="7" cy="118" r="2"/><circle class="cls-7" cx="19" cy="118" r="2"/><circle class="cls-8" cx="13" cy="148" r="2"/><circle class="cls-8" cx="7" cy="148" r="2"/><circle class="cls-8" cx="19" cy="148" r="2"/><path class="cls-6" d="M132.6,78.72a2.49,2.49,0,0,1,1.78-.72,2.52,2.52,0,0,1,1.78.72,2.39,2.39,0,0,1,0,3.48,2.44,2.44,0,0,1-1.77.72h0a2.44,2.44,0,0,1-1.79-.72,2.37,2.37,0,0,1-.74-1.74A2.32,2.32,0,0,1,132.6,78.72Z"/><path class="cls-6" d="M137.86,94c-1.26,2.65-3.11,4-5.46,4h0a3.43,3.43,0,0,1-2.2-.61,2.21,2.21,0,0,1-.77-1.83,9.22,9.22,0,0,1,.52-2.34l1.57-5a3.08,3.08,0,0,0,.17-.69c0-.09,0-.11,0-.11s0,0-.11,0c-.31,0-.93.53-1.59,1.77l-.06.11H128l.14-.29c1.28-2.72,3.16-4.15,5.57-4.14a3,3,0,0,1,2,.63,2.17,2.17,0,0,1,.75,1.76A8.76,8.76,0,0,1,136,89.7l-1.53,4.55a6.15,6.15,0,0,0-.32,1.16.23.23,0,0,0,0,.1.32.32,0,0,0,.13,0,1.61,1.61,0,0,0,.83-.59,6,6,0,0,0,.89-1.18l0-.11h2Z"/><path class="cls-7" d="M132.6,108.72a2.49,2.49,0,0,1,1.78-.72,2.52,2.52,0,0,1,1.78.72,2.39,2.39,0,0,1,0,3.48,2.44,2.44,0,0,1-1.77.72h0a2.44,2.44,0,0,1-1.79-.72,2.37,2.37,0,0,1-.74-1.74A2.32,2.32,0,0,1,132.6,108.72Z"/><path class="cls-7" d="M137.86,124c-1.26,2.65-3.11,4-5.46,4h0a3.43,3.43,0,0,1-2.2-.61,2.21,2.21,0,0,1-.77-1.83,9.22,9.22,0,0,1,.52-2.34l1.57-5a3.08,3.08,0,0,0,.17-.69c0-.09,0-.11,0-.11s0,0-.11,0c-.31,0-.93.53-1.59,1.77l-.06.11H128l.14-.29c1.28-2.72,3.16-4.15,5.57-4.14a3,3,0,0,1,2,.63,2.17,2.17,0,0,1,.75,1.76,8.76,8.76,0,0,1-.54,2.44l-1.53,4.55a6.15,6.15,0,0,0-.32,1.16.23.23,0,0,0,0,.1.32.32,0,0,0,.13,0,1.61,1.61,0,0,0,.83-.59,6,6,0,0,0,.89-1.18l0-.11h2Z"/><path class="cls-8" d="M132.6,138.72a2.49,2.49,0,0,1,1.78-.72,2.52,2.52,0,0,1,1.78.72,2.39,2.39,0,0,1,0,3.48,2.44,2.44,0,0,1-1.77.72h0a2.44,2.44,0,0,1-1.79-.72,2.37,2.37,0,0,1-.74-1.74A2.32,2.32,0,0,1,132.6,138.72Z"/><path class="cls-8" d="M137.86,154c-1.26,2.65-3.11,4-5.46,4h0a3.43,3.43,0,0,1-2.2-.61,2.21,2.21,0,0,1-.77-1.83,9.22,9.22,0,0,1,.52-2.34l1.57-5a3.08,3.08,0,0,0,.17-.69c0-.09,0-.11,0-.11s0,0-.11,0c-.31,0-.93.53-1.59,1.77l-.06.11H128l.14-.29c1.28-2.72,3.16-4.15,5.57-4.14a3,3,0,0,1,2,.63,2.17,2.17,0,0,1,.75,1.76,8.76,8.76,0,0,1-.54,2.44l-1.53,4.55a6.15,6.15,0,0,0-.32,1.16.23.23,0,0,0,0,.1.32.32,0,0,0,.13,0,1.61,1.61,0,0,0,.83-.59,6,6,0,0,0,.89-1.18l0-.11h2Z"/><circle class="cls-7" cx="6" cy="10" r="1"/><circle class="cls-7" cx="10" cy="10" r="1"/><circle class="cls-7" cx="14" cy="10" r="1"/><path class="cls-6" d="M198.82,88a5.86,5.86,0,1,1-3.54-5.33l-1.82,1.94,5.45-.18-.47-5.14L196.84,81A8,8,0,1,0,201,88Z"/><path class="cls-7" d="M198.82,118a5.86,5.86,0,1,1-3.54-5.33l-1.82,1.94,5.45-.18-.47-5.14-1.6,1.71a8,8,0,1,0,4.16,7Z"/><path class="cls-8" d="M198.82,148a5.86,5.86,0,1,1-3.54-5.33l-1.82,1.94,5.45-.18-.47-5.14-1.6,1.71a8,8,0,1,0,4.16,7Z"/><circle class="cls-7" cx="6" cy="34" r="1"/><circle class="cls-7" cx="10" cy="34" r="1"/><circle class="cls-7" cx="14" cy="34" r="1"/><circle class="cls-7" cx="6" cy="58" r="1"/><circle class="cls-7" cx="10" cy="58" r="1"/><circle class="cls-7" cx="14" cy="58" r="1"/><path class="cls-6" d="M26,6.13h1.34v6.5h4v1.24H26Z"/><path class="cls-6" d="M34.15,10v0a3.94,3.94,0,0,1,4-4,3.9,3.9,0,0,1,4,4v0a4,4,0,1,1-8,0Zm6.58,0v0a2.64,2.64,0,0,0-2.6-2.75A2.6,2.6,0,0,0,35.56,10v0a2.63,2.63,0,0,0,2.59,2.75A2.6,2.6,0,0,0,40.73,10Z"/><path class="cls-6" d="M47.4,7.39H45V6.13h6.19V7.39H48.75v6.48H47.4Z"/><path class="cls-6" d="M54,10v0a3.94,3.94,0,0,1,4-4,3.9,3.9,0,0,1,4,4v0a4,4,0,1,1-8,0Zm6.58,0v0A2.64,2.64,0,0,0,58,7.25,2.6,2.6,0,0,0,55.42,10v0A2.63,2.63,0,0,0,58,12.75,2.6,2.6,0,0,0,60.59,10Z"/><path class="cls-6" d="M65.8,6.13h5.68V7.37H67.14V9.48H71v1.24H67.14v3.15H65.8Z"/><path class="cls-6" d="M74.72,10v0a3.94,3.94,0,0,1,4-4,3.9,3.9,0,0,1,4,4v0a4,4,0,1,1-8,0Zm6.58,0v0a2.64,2.64,0,0,0-2.6-2.75A2.6,2.6,0,0,0,76.13,10v0a2.63,2.63,0,0,0,2.59,2.75A2.6,2.6,0,0,0,81.3,10Z"/><path class="cls-6" d="M86.17,10v0a4,4,0,0,1,8,0v0a3.94,3.94,0,0,1-4,4A3.9,3.9,0,0,1,86.17,10Zm6.57,0v0a2.63,2.63,0,0,0-2.59-2.75A2.6,2.6,0,0,0,87.57,10v0a2.64,2.64,0,0,0,2.6,2.75A2.6,2.6,0,0,0,92.74,10Z"/><path class="cls-6" d="M99.41,7.39H97V6.13h6.19V7.39h-2.42v6.48H99.41Z"/><path class="cls-7" d="M26,30.13h1.34v6.5h4v1.24H26Z"/><path class="cls-7" d="M34.15,34v0a3.94,3.94,0,0,1,4-4,3.9,3.9,0,0,1,4,4v0a4,4,0,1,1-8,0Zm6.58,0v0a2.64,2.64,0,0,0-2.6-2.75A2.6,2.6,0,0,0,35.56,34v0a2.63,2.63,0,0,0,2.59,2.75A2.6,2.6,0,0,0,40.73,34Z"/><path class="cls-7" d="M47.4,31.39H45V30.13h6.19v1.26H48.75v6.48H47.4Z"/><path class="cls-7" d="M54,34v0a3.94,3.94,0,0,1,4-4,3.9,3.9,0,0,1,4,4v0a4,4,0,1,1-8,0Zm6.58,0v0A2.64,2.64,0,0,0,58,31.25,2.6,2.6,0,0,0,55.42,34v0A2.63,2.63,0,0,0,58,36.75,2.6,2.6,0,0,0,60.59,34Z"/><path class="cls-7" d="M65.8,30.13h5.68v1.24H67.14v2.11H71v1.24H67.14v3.15H65.8Z"/><path class="cls-7" d="M74.72,34v0a3.94,3.94,0,0,1,4-4,3.9,3.9,0,0,1,4,4v0a4,4,0,1,1-8,0Zm6.58,0v0a2.64,2.64,0,0,0-2.6-2.75A2.6,2.6,0,0,0,76.13,34v0a2.63,2.63,0,0,0,2.59,2.75A2.6,2.6,0,0,0,81.3,34Z"/><path class="cls-7" d="M86.17,34v0a4,4,0,0,1,8,0v0a3.94,3.94,0,0,1-4,4A3.9,3.9,0,0,1,86.17,34Zm6.57,0v0a2.63,2.63,0,0,0-2.59-2.75A2.6,2.6,0,0,0,87.57,34v0a2.64,2.64,0,0,0,2.6,2.75A2.6,2.6,0,0,0,92.74,34Z"/><path class="cls-7" d="M99.41,31.39H97V30.13h6.19v1.26h-2.42v6.48H99.41Z"/><path class="cls-8" d="M26,54.13h1.34v6.5h4v1.24H26Z"/><path class="cls-8" d="M34.15,58v0a3.94,3.94,0,0,1,4-4,3.9,3.9,0,0,1,4,4v0a4,4,0,1,1-8,0Zm6.58,0v0a2.64,2.64,0,0,0-2.6-2.75A2.6,2.6,0,0,0,35.56,58v0a2.63,2.63,0,0,0,2.59,2.75A2.6,2.6,0,0,0,40.73,58Z"/><path class="cls-8" d="M47.4,55.39H45V54.13h6.19v1.26H48.75v6.48H47.4Z"/><path class="cls-8" d="M54,58v0a3.94,3.94,0,0,1,4-4,3.9,3.9,0,0,1,4,4v0a4,4,0,1,1-8,0Zm6.58,0v0A2.64,2.64,0,0,0,58,55.25,2.6,2.6,0,0,0,55.42,58v0A2.63,2.63,0,0,0,58,60.75,2.6,2.6,0,0,0,60.59,58Z"/><path class="cls-8" d="M65.8,54.13h5.68v1.24H67.14v2.11H71v1.24H67.14v3.15H65.8Z"/><path class="cls-8" d="M74.72,58v0a3.94,3.94,0,0,1,4-4,3.9,3.9,0,0,1,4,4v0a4,4,0,1,1-8,0Zm6.58,0v0a2.64,2.64,0,0,0-2.6-2.75A2.6,2.6,0,0,0,76.13,58v0a2.63,2.63,0,0,0,2.59,2.75A2.6,2.6,0,0,0,81.3,58Z"/><path class="cls-8" d="M86.17,58v0a4,4,0,0,1,8,0v0a3.94,3.94,0,0,1-4,4A3.9,3.9,0,0,1,86.17,58Zm6.57,0v0a2.63,2.63,0,0,0-2.59-2.75A2.6,2.6,0,0,0,87.57,58v0a2.64,2.64,0,0,0,2.6,2.75A2.6,2.6,0,0,0,92.74,58Z"/><path class="cls-8" d="M99.41,55.39H97V54.13h6.19v1.26h-2.42v6.48H99.41Z"/><path class="cls-6" d="M63,79v1a7.57,7.57,0,0,0,.66,3.59,3.92,3.92,0,0,0,1.68,1.63,7.31,7.31,0,0,1,1.16.62,1.83,1.83,0,0,1,.5,1.28,1,1,0,0,0,1.14.86,1,1,0,0,0,.33-.1C69.57,90.91,71.2,93,73,93s3.43-2.08,4.53-5.12a1,1,0,0,0,1.36-.43.92.92,0,0,0,.11-.33,1.83,1.83,0,0,1,.5-1.28,7.31,7.31,0,0,1,1.16-.62,3.92,3.92,0,0,0,1.68-1.63A7.57,7.57,0,0,0,83,80V79H63Zm2.16,2h1.93a29.74,29.74,0,0,0,.38,3.06,8.69,8.69,0,0,0-1.19-.62,1.63,1.63,0,0,1-.84-.78A7.89,7.89,0,0,1,65.16,81Zm13.75,0h1.93a7.89,7.89,0,0,1-.28,1.66,1.63,1.63,0,0,1-.84.78,9.93,9.93,0,0,0-1.16.62A29.8,29.8,0,0,0,78.91,81ZM71,93.31c.4,1.9-3,1.59-3,3.69H78c0-2.1-3.4-1.79-3-3.69a3.24,3.24,0,0,1-4,0Z"/><path class="cls-7" d="M63,109v1a7.57,7.57,0,0,0,.66,3.59,3.92,3.92,0,0,0,1.68,1.63,7.31,7.31,0,0,1,1.16.62,1.83,1.83,0,0,1,.5,1.28,1,1,0,0,0,1.14.86,1,1,0,0,0,.33-.1c1.1,3,2.73,5.12,4.53,5.12s3.43-2.08,4.53-5.12a1,1,0,0,0,1.36-.43.92.92,0,0,0,.11-.33,1.83,1.83,0,0,1,.5-1.28,7.31,7.31,0,0,1,1.16-.62,3.92,3.92,0,0,0,1.68-1.63A7.57,7.57,0,0,0,83,110v-1H63Zm2.16,2h1.93a29.74,29.74,0,0,0,.38,3.06,8.69,8.69,0,0,0-1.19-.62,1.63,1.63,0,0,1-.84-.78A7.89,7.89,0,0,1,65.16,111Zm13.75,0h1.93a7.89,7.89,0,0,1-.28,1.66,1.63,1.63,0,0,1-.84.78,9.93,9.93,0,0,0-1.16.62A29.8,29.8,0,0,0,78.91,111ZM71,123.31c.4,1.9-3,1.59-3,3.69H78c0-2.1-3.4-1.79-3-3.69a3.24,3.24,0,0,1-4,0Z"/><path class="cls-8" d="M63,139v1a7.57,7.57,0,0,0,.66,3.59,3.92,3.92,0,0,0,1.68,1.63,7.31,7.31,0,0,1,1.16.62,1.83,1.83,0,0,1,.5,1.28,1,1,0,0,0,1.14.86,1,1,0,0,0,.33-.1c1.1,3,2.73,5.12,4.53,5.12s3.43-2.08,4.53-5.12a1,1,0,0,0,1.36-.43.92.92,0,0,0,.11-.33,1.83,1.83,0,0,1,.5-1.28,7.31,7.31,0,0,1,1.16-.62,3.92,3.92,0,0,0,1.68-1.63A7.57,7.57,0,0,0,83,140v-1H63Zm2.16,2h1.93a29.74,29.74,0,0,0,.38,3.06,8.69,8.69,0,0,0-1.19-.62,1.63,1.63,0,0,1-.84-.78A7.89,7.89,0,0,1,65.16,141Zm13.75,0h1.93a7.89,7.89,0,0,1-.28,1.66,1.63,1.63,0,0,1-.84.78,9.93,9.93,0,0,0-1.16.62A29.8,29.8,0,0,0,78.91,141ZM71,153.31c.4,1.9-3,1.59-3,3.69H78c0-2.1-3.4-1.79-3-3.69a3.24,3.24,0,0,1-4,0Z"/><path class="cls-6" d="M53.94,85.36s-1.18-2.19-2.19-4.09a4.42,4.42,0,0,0-2.57-2l-3.44-.85a.57.57,0,0,0-.65.3A2.56,2.56,0,0,1,43,80.16a2.54,2.54,0,0,1-2.08-1.43.59.59,0,0,0-.46-.32.68.68,0,0,0-.2,0l-3.49.92a5,5,0,0,0-2.5,1.94c-1.12,1.84-2.19,3.7-2.2,3.72a.55.55,0,0,0,.24.79l3.39,1.59a1.26,1.26,0,0,0,.24,0V97a.57.57,0,0,0,.57.56h13a.55.55,0,0,0,.56-.56V87.76s.3,0,.43,0l3.21-1.59A.57.57,0,0,0,54,85.8.56.56,0,0,0,53.94,85.36Zm-9.06,5.57a1.89,1.89,0,0,1-.36.74,1.72,1.72,0,0,1-.72.51,3.87,3.87,0,0,1-1.25.23A1.92,1.92,0,0,1,41,91.85a2.86,2.86,0,0,1-.52-1.77v.18h1.42a3.78,3.78,0,0,0,.18.91c.11.22.33.27.61.27a1,1,0,0,0,.44-.13c.12-.06.08-.18.14-.3a.92.92,0,0,0,0-.42v-.44c0-.17.08-.34,0-.46a.74.74,0,0,0-.06-.38c-.05-.12-.14-.12-.26-.17s-.26,0-.48,0h-.35V88h.35a.8.8,0,0,0,.4-.15c.11-.06.17-.18.28-.29a2.21,2.21,0,0,0,.16-.4,1.07,1.07,0,0,0,.06-.46,1.14,1.14,0,0,0-.16-.72.57.57,0,0,0-.51-.23.86.86,0,0,0-.39.1c-.12.06-.09.17-.15.23a1,1,0,0,0,0,.41v.38h-1.5a2.14,2.14,0,0,1,.56-1.57,2.23,2.23,0,0,1,1.57-.53,2.38,2.38,0,0,1,1.53.45,1.68,1.68,0,0,1,.57,1.47,2,2,0,0,1-.29,1.08,1.38,1.38,0,0,1-.84.57,1.45,1.45,0,0,1,1,.56A2.42,2.42,0,0,1,45,90.08Z"/><path class="cls-7" d="M53.94,115.36s-1.18-2.19-2.19-4.09a4.42,4.42,0,0,0-2.57-2l-3.44-.85a.57.57,0,0,0-.65.3A2.56,2.56,0,0,1,43,110.16a2.54,2.54,0,0,1-2.08-1.43.59.59,0,0,0-.46-.32.68.68,0,0,0-.2,0l-3.49.92a5,5,0,0,0-2.5,1.94c-1.12,1.84-2.19,3.7-2.2,3.72a.55.55,0,0,0,.24.79l3.39,1.59a1.26,1.26,0,0,0,.24,0V127a.57.57,0,0,0,.57.56h13a.55.55,0,0,0,.56-.56v-9.27s.3,0,.43,0l3.21-1.59a.57.57,0,0,0,.28-.33A.56.56,0,0,0,53.94,115.36Zm-9.06,5.57a1.89,1.89,0,0,1-.36.74,1.72,1.72,0,0,1-.72.51,3.87,3.87,0,0,1-1.25.23,1.92,1.92,0,0,1-1.57-.56,2.86,2.86,0,0,1-.52-1.77v.18h1.42a3.78,3.78,0,0,0,.18.91c.11.22.33.27.61.27a1,1,0,0,0,.44-.13c.12-.06.08-.18.14-.3a.92.92,0,0,0,0-.42v-.44c0-.17.08-.34,0-.46a.74.74,0,0,0-.06-.38c-.05-.12-.14-.12-.26-.17s-.26,0-.48,0h-.35V118h.35a.8.8,0,0,0,.4-.15c.11-.06.17-.18.28-.29a2.21,2.21,0,0,0,.16-.4,1.07,1.07,0,0,0,.06-.46,1.14,1.14,0,0,0-.16-.72.57.57,0,0,0-.51-.23.86.86,0,0,0-.39.1c-.12.06-.09.17-.15.23a1,1,0,0,0,0,.41v.38h-1.5a2.14,2.14,0,0,1,.56-1.57,2.23,2.23,0,0,1,1.57-.53,2.38,2.38,0,0,1,1.53.45,1.68,1.68,0,0,1,.57,1.47,2,2,0,0,1-.29,1.08,1.38,1.38,0,0,1-.84.57,1.45,1.45,0,0,1,1,.56,2.42,2.42,0,0,1,.28,1.18Z"/><path class="cls-8" d="M53.94,145.36s-1.18-2.19-2.19-4.09a4.42,4.42,0,0,0-2.57-2l-3.44-.85a.57.57,0,0,0-.65.3A2.56,2.56,0,0,1,43,140.16a2.54,2.54,0,0,1-2.08-1.43.59.59,0,0,0-.46-.32.68.68,0,0,0-.2,0l-3.49.92a5,5,0,0,0-2.5,1.94c-1.12,1.84-2.19,3.7-2.2,3.72a.55.55,0,0,0,.24.79l3.39,1.59a1.26,1.26,0,0,0,.24.05V157a.57.57,0,0,0,.57.56h13a.55.55,0,0,0,.56-.56v-9.27s.3,0,.43,0l3.21-1.59a.57.57,0,0,0,.28-.33A.56.56,0,0,0,53.94,145.36Zm-9.06,5.57a1.89,1.89,0,0,1-.36.74,1.72,1.72,0,0,1-.72.51,3.87,3.87,0,0,1-1.25.23,1.92,1.92,0,0,1-1.57-.56,2.86,2.86,0,0,1-.52-1.77v.18h1.42a3.78,3.78,0,0,0,.18.91c.11.22.33.27.61.27a1,1,0,0,0,.44-.13c.12-.06.08-.18.14-.3a.92.92,0,0,0,0-.42v-.44c0-.17.08-.34,0-.46a.74.74,0,0,0-.06-.38c-.05-.12-.14-.12-.26-.17s-.26,0-.48,0h-.35V148h.35a.8.8,0,0,0,.4-.15c.11-.06.17-.18.28-.29a2.21,2.21,0,0,0,.16-.4,1.07,1.07,0,0,0,.06-.46,1.14,1.14,0,0,0-.16-.72.57.57,0,0,0-.51-.23.86.86,0,0,0-.39.1c-.12.06-.09.17-.15.23a1,1,0,0,0,0,.41v.38h-1.5a2.14,2.14,0,0,1,.56-1.57,2.23,2.23,0,0,1,1.57-.53,2.38,2.38,0,0,1,1.53.45,1.68,1.68,0,0,1,.57,1.47,2,2,0,0,1-.29,1.08,1.38,1.38,0,0,1-.84.57,1.45,1.45,0,0,1,1,.56,2.42,2.42,0,0,1,.28,1.18Z"/><path class="cls-6" d="M154.5,97c.24-3.54,5.53-3.42,6.32-5.52.06-.71,0-1.2,0-1.85a3.62,3.62,0,0,1-1-2.17c-.25,0-.66-.27-.78-1.25a.92.92,0,0,1,.35-.92C158.52,82,159,79.07,163,79a2.28,2.28,0,0,1,2,.78c2.89.4,2,4.27,1.6,5.52a.9.9,0,0,1,.35.91c-.12,1-.53,1.24-.78,1.26a3.68,3.68,0,0,1-1,2.17,16.39,16.39,0,0,0,0,1.84c.78,2.1,6,2,6.29,5.52Z"/><path class="cls-7" d="M154.5,127c.24-3.54,5.53-3.42,6.32-5.52.06-.71,0-1.2,0-1.85a3.62,3.62,0,0,1-1-2.17c-.25,0-.66-.27-.78-1.25a.92.92,0,0,1,.35-.92c-.87-3.32-.39-6.22,3.57-6.29a2.28,2.28,0,0,1,2,.78c2.89.4,2,4.27,1.6,5.52a.9.9,0,0,1,.35.91c-.12,1-.53,1.24-.78,1.26a3.68,3.68,0,0,1-1,2.17,16.39,16.39,0,0,0,0,1.84c.78,2.1,6,2,6.29,5.52Z"/><path class="cls-8" d="M154.5,157c.24-3.54,5.53-3.42,6.32-5.52.06-.71,0-1.2,0-1.85a3.62,3.62,0,0,1-1-2.17c-.25,0-.66-.27-.78-1.25a.92.92,0,0,1,.35-.92c-.87-3.32-.39-6.22,3.57-6.29a2.28,2.28,0,0,1,2,.78c2.89.4,2,4.27,1.6,5.52a.9.9,0,0,1,.35.91c-.12,1-.53,1.24-.78,1.26a3.68,3.68,0,0,1-1,2.17,16.39,16.39,0,0,0,0,1.84c.78,2.1,6,2,6.29,5.52Z"/><path class="cls-6" d="M103,77.48c-6.07,0-11,4.29-11,9.56a9.23,9.23,0,0,0,4.28,7.58A7.22,7.22,0,0,1,95,97.77l-.53.75h.94a7,7,0,0,0,4.93-2.2,12.83,12.83,0,0,0,2.7.29c6.07,0,11-4.29,11-9.57S109.07,77.48,103,77.48Z"/><path class="cls-7" d="M103,107.48c-6.07,0-11,4.29-11,9.56a9.23,9.23,0,0,0,4.28,7.58A7.22,7.22,0,0,1,95,127.77l-.53.75h.94a7,7,0,0,0,4.93-2.2,12.83,12.83,0,0,0,2.7.29c6.07,0,11-4.29,11-9.57S109.07,107.48,103,107.48Z"/><path class="cls-8" d="M103,137.48c-6.07,0-11,4.29-11,9.56a9.23,9.23,0,0,0,4.28,7.58A7.22,7.22,0,0,1,95,157.77l-.53.75h.94a7,7,0,0,0,4.93-2.2,12.83,12.83,0,0,0,2.7.29c6.07,0,11-4.29,11-9.57S109.07,137.48,103,137.48Z"/><polygon points="224.71 78.03 222.97 76.29 211.29 88 222.97 99.71 224.71 97.97 214.77 88 224.71 78.03"/><path class="cls-6" d="M256,83.15l-4.3,1.36,1.89,4.13-4-2-1.7,4.26L246.57,87,243,90.61l-10,10a1.43,1.43,0,0,1-1,.39,1.28,1.28,0,0,1-.92-.39l-.66-.66A1.28,1.28,0,0,1,230,99a1.43,1.43,0,0,1,.39-1l9.26-9.34,4.51-4.38-4.08-1.62,4.35-1.45-1.8-4.12,4,2.06L248.28,75l1.45,4.3,4.12-1.89-2.15,4Zm-8.07,1.1a.31.31,0,0,0,0-.44l-.74-.74a.29.29,0,0,0-.13-.09H247a.34.34,0,0,0-.26.09l-5.66,5.65,1.19,1.19ZM247,94l1.54.52-1.54.66-.44,1.36-.52-1.36-1.54-.66,1.54-.52.52-1.45Zm6.49,2.72,2.24.87-2.24.92-.92,2.15-.88-2.15-2.15-.92,2.15-.87.88-2.28Z"/><path class="cls-7" d="M256,113.15l-4.3,1.36,1.89,4.13-4-2-1.7,4.26L246.57,117l-3.59,3.6-10,10a1.43,1.43,0,0,1-1,.39,1.28,1.28,0,0,1-.92-.39l-.66-.66A1.28,1.28,0,0,1,230,129a1.43,1.43,0,0,1,.39-1l9.26-9.34,4.51-4.38-4.08-1.62,4.35-1.45-1.8-4.12,4,2.06,1.62-4.21,1.45,4.3,4.12-1.89-2.15,4Zm-8.07,1.1a.31.31,0,0,0,0-.44l-.74-.74a.29.29,0,0,0-.13-.09H247a.34.34,0,0,0-.26.09l-5.66,5.65,1.19,1.19ZM247,124l1.54.52-1.54.66-.44,1.36-.52-1.36-1.54-.66,1.54-.52.52-1.45Zm6.49,2.72,2.24.87-2.24.92-.92,2.15-.88-2.15-2.15-.92,2.15-.87.88-2.28Z"/><polygon class="cls-7" points="224.71 108.03 222.97 106.29 211.29 118 222.97 129.71 224.71 127.97 214.77 118 224.71 108.03"/><polygon class="cls-8" points="224.71 138.03 222.97 136.29 211.29 148 222.97 159.71 224.71 157.97 214.77 148 224.71 138.03"/><path class="cls-6" d="M42.74,180.23h1.32v6.33h4v1.21H42.74Z"/><path class="cls-6" d="M50.79,184v0a3.95,3.95,0,0,1,7.89,0v0a3.95,3.95,0,0,1-7.89,0Zm6.5,0v0a2.59,2.59,0,0,0-2.56-2.68A2.55,2.55,0,0,0,52.18,184v0a2.59,2.59,0,0,0,2.57,2.68A2.55,2.55,0,0,0,57.29,184Z"/><path class="cls-6" d="M63.88,181.46H61.49v-1.23h6.12v1.23H65.22v6.31H63.88Z"/><path class="cls-6" d="M70.42,184v0a3.94,3.94,0,0,1,7.88,0v0a3.87,3.87,0,0,1-4,3.9A3.83,3.83,0,0,1,70.42,184Zm6.49,0v0a2.58,2.58,0,0,0-2.56-2.68A2.54,2.54,0,0,0,71.81,184v0a2.58,2.58,0,0,0,2.56,2.68A2.54,2.54,0,0,0,76.91,184Z"/><path class="cls-6" d="M82.06,180.23h5.61v1.21H83.38v2.05h3.81v1.21H83.38v3.07H82.06Z"/><path class="cls-6" d="M90.88,184v0a3.87,3.87,0,0,1,4-3.9A3.83,3.83,0,0,1,98.76,184v0a3.94,3.94,0,0,1-7.88,0Zm6.49,0v0a2.58,2.58,0,0,0-2.56-2.68A2.54,2.54,0,0,0,92.27,184v0a2.59,2.59,0,0,0,2.56,2.68A2.54,2.54,0,0,0,97.37,184Z"/><path class="cls-6" d="M102.19,184v0a3.94,3.94,0,0,1,7.88,0v0a3.87,3.87,0,0,1-3.95,3.9A3.83,3.83,0,0,1,102.19,184Zm6.49,0v0a2.58,2.58,0,0,0-2.56-2.68,2.54,2.54,0,0,0-2.54,2.66v0a2.58,2.58,0,0,0,2.56,2.68A2.54,2.54,0,0,0,108.68,184Z"/><path class="cls-6" d="M115.27,181.46h-2.39v-1.23H119v1.23h-2.39v6.31h-1.34Z"/><path class="cls-8" d="M42.74,260.23h1.32v6.33h4v1.21H42.74Z"/><path class="cls-8" d="M50.79,264v0a3.95,3.95,0,0,1,7.89,0v0a3.95,3.95,0,0,1-7.89,0Zm6.5,0v0a2.59,2.59,0,0,0-2.56-2.68A2.55,2.55,0,0,0,52.18,264v0a2.59,2.59,0,0,0,2.57,2.68A2.55,2.55,0,0,0,57.29,264Z"/><path class="cls-8" d="M63.88,261.46H61.49v-1.23h6.12v1.23H65.22v6.31H63.88Z"/><path class="cls-8" d="M70.42,264v0a3.94,3.94,0,0,1,7.88,0v0a3.87,3.87,0,0,1-4,3.9A3.83,3.83,0,0,1,70.42,264Zm6.49,0v0a2.58,2.58,0,0,0-2.56-2.68A2.54,2.54,0,0,0,71.81,264v0a2.58,2.58,0,0,0,2.56,2.68A2.54,2.54,0,0,0,76.91,264Z"/><path class="cls-8" d="M82.06,260.23h5.61v1.21H83.38v2.05h3.81v1.21H83.38v3.07H82.06Z"/><path class="cls-8" d="M90.88,264v0a3.87,3.87,0,0,1,4-3.9A3.83,3.83,0,0,1,98.76,264v0a3.94,3.94,0,0,1-7.88,0Zm6.49,0v0a2.58,2.58,0,0,0-2.56-2.68A2.54,2.54,0,0,0,92.27,264v0a2.59,2.59,0,0,0,2.56,2.68A2.54,2.54,0,0,0,97.37,264Z"/><path class="cls-8" d="M102.19,264v0a3.94,3.94,0,0,1,7.88,0v0a3.87,3.87,0,0,1-3.95,3.9A3.83,3.83,0,0,1,102.19,264Zm6.49,0v0a2.58,2.58,0,0,0-2.56-2.68,2.54,2.54,0,0,0-2.54,2.66v0a2.58,2.58,0,0,0,2.56,2.68A2.54,2.54,0,0,0,108.68,264Z"/><path class="cls-8" d="M115.27,261.46h-2.39v-1.23H119v1.23h-2.39v6.31h-1.34Z"/><path class="cls-7" d="M42.74,220.23h1.32v6.33h4v1.21H42.74Z"/><path class="cls-7" d="M50.79,224v0a3.95,3.95,0,0,1,7.89,0v0a3.95,3.95,0,0,1-7.89,0Zm6.5,0v0a2.59,2.59,0,0,0-2.56-2.68A2.55,2.55,0,0,0,52.18,224v0a2.59,2.59,0,0,0,2.57,2.68A2.55,2.55,0,0,0,57.29,224Z"/><path class="cls-7" d="M63.88,221.46H61.49v-1.23h6.12v1.23H65.22v6.31H63.88Z"/><path class="cls-7" d="M70.42,224v0a3.94,3.94,0,0,1,7.88,0v0a3.87,3.87,0,0,1-4,3.9A3.83,3.83,0,0,1,70.42,224Zm6.49,0v0a2.58,2.58,0,0,0-2.56-2.68A2.54,2.54,0,0,0,71.81,224v0a2.58,2.58,0,0,0,2.56,2.68A2.54,2.54,0,0,0,76.91,224Z"/><path class="cls-7" d="M82.06,220.23h5.61v1.21H83.38v2.05h3.81v1.21H83.38v3.07H82.06Z"/><path class="cls-7" d="M90.88,224v0a3.87,3.87,0,0,1,4-3.9A3.83,3.83,0,0,1,98.76,224v0a3.94,3.94,0,0,1-7.88,0Zm6.49,0v0a2.58,2.58,0,0,0-2.56-2.68A2.54,2.54,0,0,0,92.27,224v0a2.59,2.59,0,0,0,2.56,2.68A2.54,2.54,0,0,0,97.37,224Z"/><path class="cls-7" d="M102.19,224v0a3.94,3.94,0,0,1,7.88,0v0a3.87,3.87,0,0,1-3.95,3.9A3.83,3.83,0,0,1,102.19,224Zm6.49,0v0a2.58,2.58,0,0,0-2.56-2.68,2.54,2.54,0,0,0-2.54,2.66v0a2.58,2.58,0,0,0,2.56,2.68A2.54,2.54,0,0,0,108.68,224Z"/><path class="cls-7" d="M115.27,221.46h-2.39v-1.23H119v1.23h-2.39v6.31h-1.34Z"/><path class="cls-6" d="M252.74,180.23h1.32v6.33h4v1.21h-5.29Z"/><path class="cls-6" d="M260.79,184v0a3.95,3.95,0,0,1,7.89,0v0a3.95,3.95,0,0,1-7.89,0Zm6.5,0v0a2.59,2.59,0,0,0-2.56-2.68,2.55,2.55,0,0,0-2.55,2.66v0a2.59,2.59,0,0,0,2.57,2.68A2.55,2.55,0,0,0,267.29,184Z"/><path class="cls-6" d="M273.88,181.46h-2.39v-1.23h6.12v1.23h-2.39v6.31h-1.34Z"/><path class="cls-6" d="M280.42,184v0a3.94,3.94,0,0,1,7.88,0v0a3.87,3.87,0,0,1-3.95,3.9A3.83,3.83,0,0,1,280.42,184Zm6.49,0v0a2.58,2.58,0,0,0-2.56-2.68,2.54,2.54,0,0,0-2.54,2.66v0a2.58,2.58,0,0,0,2.56,2.68A2.54,2.54,0,0,0,286.91,184Z"/><path class="cls-6" d="M292.06,180.23h5.61v1.21h-4.29v2.05h3.81v1.21h-3.81v3.07h-1.32Z"/><path class="cls-6" d="M300.88,184v0a3.87,3.87,0,0,1,3.95-3.9,3.83,3.83,0,0,1,3.93,3.88v0a3.94,3.94,0,0,1-7.88,0Zm6.49,0v0a2.58,2.58,0,0,0-2.56-2.68,2.54,2.54,0,0,0-2.54,2.66v0a2.59,2.59,0,0,0,2.56,2.68A2.54,2.54,0,0,0,307.37,184Z"/><path class="cls-6" d="M312.19,184v0a3.94,3.94,0,0,1,7.88,0v0a3.87,3.87,0,0,1-3.95,3.9A3.83,3.83,0,0,1,312.19,184Zm6.49,0v0a2.58,2.58,0,0,0-2.56-2.68,2.54,2.54,0,0,0-2.54,2.66v0a2.58,2.58,0,0,0,2.56,2.68A2.54,2.54,0,0,0,318.68,184Z"/><path class="cls-6" d="M325.27,181.46h-2.39v-1.23H329v1.23h-2.39v6.31h-1.34Z"/><path class="cls-8" d="M252.74,260.23h1.32v6.33h4v1.21h-5.29Z"/><path class="cls-8" d="M260.79,264v0a3.95,3.95,0,0,1,7.89,0v0a3.95,3.95,0,0,1-7.89,0Zm6.5,0v0a2.59,2.59,0,0,0-2.56-2.68,2.55,2.55,0,0,0-2.55,2.66v0a2.59,2.59,0,0,0,2.57,2.68A2.55,2.55,0,0,0,267.29,264Z"/><path class="cls-8" d="M273.88,261.46h-2.39v-1.23h6.12v1.23h-2.39v6.31h-1.34Z"/><path class="cls-8" d="M280.42,264v0a3.94,3.94,0,0,1,7.88,0v0a3.87,3.87,0,0,1-3.95,3.9A3.83,3.83,0,0,1,280.42,264Zm6.49,0v0a2.58,2.58,0,0,0-2.56-2.68,2.54,2.54,0,0,0-2.54,2.66v0a2.58,2.58,0,0,0,2.56,2.68A2.54,2.54,0,0,0,286.91,264Z"/><path class="cls-8" d="M292.06,260.23h5.61v1.21h-4.29v2.05h3.81v1.21h-3.81v3.07h-1.32Z"/><path class="cls-8" d="M300.88,264v0a3.87,3.87,0,0,1,3.95-3.9,3.83,3.83,0,0,1,3.93,3.88v0a3.94,3.94,0,0,1-7.88,0Zm6.49,0v0a2.58,2.58,0,0,0-2.56-2.68,2.54,2.54,0,0,0-2.54,2.66v0a2.59,2.59,0,0,0,2.56,2.68A2.54,2.54,0,0,0,307.37,264Z"/><path class="cls-8" d="M312.19,264v0a3.94,3.94,0,0,1,7.88,0v0a3.87,3.87,0,0,1-3.95,3.9A3.83,3.83,0,0,1,312.19,264Zm6.49,0v0a2.58,2.58,0,0,0-2.56-2.68,2.54,2.54,0,0,0-2.54,2.66v0a2.58,2.58,0,0,0,2.56,2.68A2.54,2.54,0,0,0,318.68,264Z"/><path class="cls-8" d="M325.27,261.46h-2.39v-1.23H329v1.23h-2.39v6.31h-1.34Z"/><path class="cls-7" d="M252.74,220.23h1.32v6.33h4v1.21h-5.29Z"/><path class="cls-7" d="M260.79,224v0a3.95,3.95,0,0,1,7.89,0v0a3.95,3.95,0,0,1-7.89,0Zm6.5,0v0a2.59,2.59,0,0,0-2.56-2.68,2.55,2.55,0,0,0-2.55,2.66v0a2.59,2.59,0,0,0,2.57,2.68A2.55,2.55,0,0,0,267.29,224Z"/><path class="cls-7" d="M273.88,221.46h-2.39v-1.23h6.12v1.23h-2.39v6.31h-1.34Z"/><path class="cls-7" d="M280.42,224v0a3.94,3.94,0,0,1,7.88,0v0a3.87,3.87,0,0,1-3.95,3.9A3.83,3.83,0,0,1,280.42,224Zm6.49,0v0a2.58,2.58,0,0,0-2.56-2.68,2.54,2.54,0,0,0-2.54,2.66v0a2.58,2.58,0,0,0,2.56,2.68A2.54,2.54,0,0,0,286.91,224Z"/><path class="cls-7" d="M292.06,220.23h5.61v1.21h-4.29v2.05h3.81v1.21h-3.81v3.07h-1.32Z"/><path class="cls-7" d="M300.88,224v0a3.87,3.87,0,0,1,3.95-3.9,3.83,3.83,0,0,1,3.93,3.88v0a3.94,3.94,0,0,1-7.88,0Zm6.49,0v0a2.58,2.58,0,0,0-2.56-2.68,2.54,2.54,0,0,0-2.54,2.66v0a2.59,2.59,0,0,0,2.56,2.68A2.54,2.54,0,0,0,307.37,224Z"/><path class="cls-7" d="M312.19,224v0a3.94,3.94,0,0,1,7.88,0v0a3.87,3.87,0,0,1-3.95,3.9A3.83,3.83,0,0,1,312.19,224Zm6.49,0v0a2.58,2.58,0,0,0-2.56-2.68,2.54,2.54,0,0,0-2.54,2.66v0a2.58,2.58,0,0,0,2.56,2.68A2.54,2.54,0,0,0,318.68,224Z"/><path class="cls-7" d="M325.27,221.46h-2.39v-1.23H329v1.23h-2.39v6.31h-1.34Z"/><path d="M135.06,181.74a4.27,4.27,0,0,1-3-1.14,4.06,4.06,0,0,1-1.29-2.94l2.92-.14a1.49,1.49,0,0,0,.41,1,1.35,1.35,0,0,0,1,.47Zm.41-2.71a1.34,1.34,0,0,0,1.4-1.47c0-.68-.46-1.2-1.38-1.55l-1.67-.62a4.1,4.1,0,0,1-2.21-1.6,4.4,4.4,0,0,1-.71-2.43,3.86,3.86,0,0,1,1.23-2.94,4.08,4.08,0,0,1,2.93-1.16V170a1.34,1.34,0,0,0-.85.37,1.24,1.24,0,0,0-.37,1q0,1,1.26,1.47l2,.73a3.75,3.75,0,0,1,2.77,3.94,4,4,0,0,1-1.3,3,4.39,4.39,0,0,1-3.12,1.24Zm1.2-7.55a1.6,1.6,0,0,0-.34-1.07,1.14,1.14,0,0,0-.86-.44v-2.71a4,4,0,0,1,2.87,1.11,4.12,4.12,0,0,1,1.25,2.91Z"/><path d="M140.9,170.18v-2.72h8.87v2.72Zm3,11.36v-11h2.92v11Z"/><path d="M153.21,179.81l-.4,1.73h-2.94l2.53-10.88a1.59,1.59,0,0,1,1.38.75,6.89,6.89,0,0,1,.86,2.15l-.91,3.9h1.77l.53,2.35Zm3.62,1.73L155,173.27c-.46-2-1.28-3-2.46-3l.65-2.82h3.34l3.28,14.08Z"/><path d="M159.86,170.18v-2.72h8.88v2.72Zm3,11.36v-11h2.92v11Z"/><path d="M170.75,181.54V167.46h2.91v14.08Z"/><path d="M180.6,181.74a4.2,4.2,0,0,1-3-1.22,4,4,0,0,1-1.27-3v-6a4,4,0,0,1,1.27-3,4.21,4.21,0,0,1,3-1.23V170a1.29,1.29,0,0,0-1,.45,1.51,1.51,0,0,0-.4,1.06v6a1.53,1.53,0,0,0,.4,1.07,1.31,1.31,0,0,0,1,.44Zm4.73-4.22a4,4,0,0,1-1.26,3,4.24,4.24,0,0,1-3.06,1.22V179a1.31,1.31,0,0,0,1-.44,1.54,1.54,0,0,0,.41-1.07v-6a1.51,1.51,0,0,0-.41-1.06,1.29,1.29,0,0,0-1-.45v-2.71a4.25,4.25,0,0,1,3.06,1.23,4,4,0,0,1,1.26,3Z"/><path d="M193.68,181.54l-3.52-9.35c-.47-1.28-1.21-1.91-2.21-1.91v-2.82h3.32l3.52,9.36c.48,1.27,1.22,1.91,2.21,1.91v2.81Zm-5.73,0V170.68a1.48,1.48,0,0,1,1.08.43,4,4,0,0,1,.83,1.42l1,2.68v6.33Zm9.05-3.22a1.47,1.47,0,0,1-1.09-.44,4.13,4.13,0,0,1-.82-1.45l-1-2.63v-6.34H197Z"/><path d="M131.44,200.54V186.46h2.92v14.08Zm3.32-11.37v-2.71h5.64v2.71Zm0,5.44v-2.72h3.64v2.72Z"/><path class="cls-9" d="M146.33,200.74a4.28,4.28,0,0,1-3.06-1.22,4,4,0,0,1-1.27-3v-6a4,4,0,0,1,1.27-3,4.24,4.24,0,0,1,3.06-1.22V189a1.33,1.33,0,0,0-1,.44,1.55,1.55,0,0,0-.4,1.07v6a1.51,1.51,0,0,0,.4,1.06,1.31,1.31,0,0,0,1,.45Zm4.73-4.22a4,4,0,0,1-1.27,3,4.27,4.27,0,0,1-3.06,1.22V198a1.31,1.31,0,0,0,1-.45,1.51,1.51,0,0,0,.4-1.06v-6a1.55,1.55,0,0,0-.4-1.07,1.33,1.33,0,0,0-1-.44v-2.71a4.23,4.23,0,0,1,3.06,1.22,4,4,0,0,1,1.27,3Z"/><path class="cls-9" d="M157.8,200.74a4.25,4.25,0,0,1-3.06-1.22,4,4,0,0,1-1.27-3v-6a4,4,0,0,1,1.27-3,4.21,4.21,0,0,1,3.06-1.22V189a1.32,1.32,0,0,0-1,.44,1.55,1.55,0,0,0-.4,1.07v6a1.51,1.51,0,0,0,.4,1.06,1.29,1.29,0,0,0,1,.45Zm4.72-4.22a4,4,0,0,1-1.26,3,4.28,4.28,0,0,1-3.06,1.22V198a1.27,1.27,0,0,0,1-.45,1.51,1.51,0,0,0,.41-1.06v-6a1.56,1.56,0,0,0-.41-1.07,1.3,1.3,0,0,0-1-.44v-2.71a4.24,4.24,0,0,1,3.06,1.22,4,4,0,0,1,1.26,3Z"/><path class="cls-9" d="M164,189.17v-2.71h8.87v2.71Zm3,11.37v-11h2.91v11Z"/><path class="cls-10" d="M135.06,221.74a4.27,4.27,0,0,1-3-1.14,4.06,4.06,0,0,1-1.29-2.94l2.92-.14a1.49,1.49,0,0,0,.41,1,1.35,1.35,0,0,0,1,.47Zm.41-2.71a1.34,1.34,0,0,0,1.4-1.47c0-.68-.46-1.2-1.38-1.55l-1.67-.62a4.1,4.1,0,0,1-2.21-1.6,4.4,4.4,0,0,1-.71-2.43,3.86,3.86,0,0,1,1.23-2.94,4.08,4.08,0,0,1,2.93-1.16V210a1.34,1.34,0,0,0-.85.37,1.24,1.24,0,0,0-.37,1q0,1,1.26,1.47l2,.73a3.75,3.75,0,0,1,2.77,3.94,4,4,0,0,1-1.3,3,4.39,4.39,0,0,1-3.12,1.24Zm1.2-7.55a1.6,1.6,0,0,0-.34-1.07,1.14,1.14,0,0,0-.86-.44v-2.71a4,4,0,0,1,2.87,1.11,4.12,4.12,0,0,1,1.25,2.91Z"/><path class="cls-10" d="M140.9,210.18v-2.72h8.87v2.72Zm3,11.36v-11h2.92v11Z"/><path class="cls-10" d="M153.21,219.81l-.4,1.73h-2.94l2.53-10.88a1.59,1.59,0,0,1,1.38.75,6.89,6.89,0,0,1,.86,2.15l-.91,3.9h1.77l.53,2.35Zm3.62,1.73L155,213.27c-.46-2-1.28-3-2.46-3l.65-2.82h3.34l3.28,14.08Z"/><path class="cls-10" d="M159.86,210.18v-2.72h8.88v2.72Zm3,11.36v-11h2.92v11Z"/><path class="cls-10" d="M170.75,221.54V207.46h2.91v14.08Z"/><path class="cls-10" d="M180.6,221.74a4.2,4.2,0,0,1-3-1.22,4,4,0,0,1-1.27-3v-6a4,4,0,0,1,1.27-3,4.21,4.21,0,0,1,3-1.23V210a1.29,1.29,0,0,0-1,.45,1.51,1.51,0,0,0-.4,1.06v6a1.53,1.53,0,0,0,.4,1.07,1.31,1.31,0,0,0,1,.44Zm4.73-4.22a4,4,0,0,1-1.26,3,4.24,4.24,0,0,1-3.06,1.22V219a1.31,1.31,0,0,0,1-.44,1.54,1.54,0,0,0,.41-1.07v-6a1.51,1.51,0,0,0-.41-1.06,1.29,1.29,0,0,0-1-.45v-2.71a4.25,4.25,0,0,1,3.06,1.23,4,4,0,0,1,1.26,3Z"/><path class="cls-10" d="M193.68,221.54l-3.52-9.35c-.47-1.28-1.21-1.91-2.21-1.91v-2.82h3.32l3.52,9.36c.48,1.27,1.22,1.91,2.21,1.91v2.81Zm-5.73,0V210.68a1.48,1.48,0,0,1,1.08.43,4,4,0,0,1,.83,1.42l1,2.68v6.33Zm9.05-3.22a1.47,1.47,0,0,1-1.09-.44,4.13,4.13,0,0,1-.82-1.45l-1-2.63v-6.34H197Z"/><path class="cls-10" d="M131.44,240.54V226.46h2.92v14.08Zm3.32-11.37v-2.71h5.64v2.71Zm0,5.44v-2.72h3.64v2.72Z"/><path class="cls-11" d="M146.33,240.74a4.28,4.28,0,0,1-3.06-1.22,4,4,0,0,1-1.27-3v-6a4,4,0,0,1,1.27-3,4.24,4.24,0,0,1,3.06-1.22V229a1.33,1.33,0,0,0-1,.44,1.55,1.55,0,0,0-.4,1.07v6a1.51,1.51,0,0,0,.4,1.06,1.31,1.31,0,0,0,1,.45Zm4.73-4.22a4,4,0,0,1-1.27,3,4.27,4.27,0,0,1-3.06,1.22V238a1.31,1.31,0,0,0,1-.45,1.51,1.51,0,0,0,.4-1.06v-6a1.55,1.55,0,0,0-.4-1.07,1.33,1.33,0,0,0-1-.44v-2.71a4.23,4.23,0,0,1,3.06,1.22,4,4,0,0,1,1.27,3Z"/><path class="cls-11" d="M157.8,240.74a4.25,4.25,0,0,1-3.06-1.22,4,4,0,0,1-1.27-3v-6a4,4,0,0,1,1.27-3,4.21,4.21,0,0,1,3.06-1.22V229a1.32,1.32,0,0,0-1,.44,1.55,1.55,0,0,0-.4,1.07v6a1.51,1.51,0,0,0,.4,1.06,1.29,1.29,0,0,0,1,.45Zm4.72-4.22a4,4,0,0,1-1.26,3,4.28,4.28,0,0,1-3.06,1.22V238a1.27,1.27,0,0,0,1-.45,1.51,1.51,0,0,0,.41-1.06v-6a1.56,1.56,0,0,0-.41-1.07,1.3,1.3,0,0,0-1-.44v-2.71a4.24,4.24,0,0,1,3.06,1.22,4,4,0,0,1,1.26,3Z"/><path class="cls-11" d="M164,229.17v-2.71h8.87v2.71Zm3,11.37v-11h2.91v11Z"/><path class="cls-10" d="M135.06,261.74a4.27,4.27,0,0,1-3-1.14,4.06,4.06,0,0,1-1.29-2.94l2.92-.14a1.49,1.49,0,0,0,.41,1,1.35,1.35,0,0,0,1,.47Zm.41-2.71a1.34,1.34,0,0,0,1.4-1.47c0-.68-.46-1.2-1.38-1.55l-1.67-.62a4.1,4.1,0,0,1-2.21-1.6,4.4,4.4,0,0,1-.71-2.43,3.86,3.86,0,0,1,1.23-2.94,4.08,4.08,0,0,1,2.93-1.16V250a1.34,1.34,0,0,0-.85.37,1.24,1.24,0,0,0-.37,1q0,1,1.26,1.47l2,.73a3.75,3.75,0,0,1,2.77,3.94,4,4,0,0,1-1.3,3,4.39,4.39,0,0,1-3.12,1.24Zm1.2-7.55a1.6,1.6,0,0,0-.34-1.07,1.14,1.14,0,0,0-.86-.44v-2.71a4,4,0,0,1,2.87,1.11,4.12,4.12,0,0,1,1.25,2.91Z"/><path class="cls-10" d="M140.9,250.18v-2.72h8.87v2.72Zm3,11.36v-11h2.92v11Z"/><path class="cls-10" d="M153.21,259.81l-.4,1.73h-2.94l2.53-10.88a1.59,1.59,0,0,1,1.38.75,6.89,6.89,0,0,1,.86,2.15l-.91,3.9h1.77l.53,2.35Zm3.62,1.73L155,253.27c-.46-2-1.28-3-2.46-3l.65-2.82h3.34l3.28,14.08Z"/><path class="cls-10" d="M159.86,250.18v-2.72h8.88v2.72Zm3,11.36v-11h2.92v11Z"/><path class="cls-10" d="M170.75,261.54V247.46h2.91v14.08Z"/><path class="cls-10" d="M180.6,261.74a4.2,4.2,0,0,1-3-1.22,4,4,0,0,1-1.27-3v-6a4,4,0,0,1,1.27-3,4.21,4.21,0,0,1,3-1.23V250a1.29,1.29,0,0,0-1,.45,1.51,1.51,0,0,0-.4,1.06v6a1.53,1.53,0,0,0,.4,1.07,1.31,1.31,0,0,0,1,.44Zm4.73-4.22a4,4,0,0,1-1.26,3,4.24,4.24,0,0,1-3.06,1.22V259a1.31,1.31,0,0,0,1-.44,1.54,1.54,0,0,0,.41-1.07v-6a1.51,1.51,0,0,0-.41-1.06,1.29,1.29,0,0,0-1-.45v-2.71a4.25,4.25,0,0,1,3.06,1.23,4,4,0,0,1,1.26,3Z"/><path class="cls-10" d="M193.68,261.54l-3.52-9.35c-.47-1.28-1.21-1.91-2.21-1.91v-2.82h3.32l3.52,9.36c.48,1.27,1.22,1.91,2.21,1.91v2.81Zm-5.73,0V250.68a1.48,1.48,0,0,1,1.08.43,4,4,0,0,1,.83,1.42l1,2.68v6.33Zm9.05-3.22a1.47,1.47,0,0,1-1.09-.44,4.13,4.13,0,0,1-.82-1.45l-1-2.63v-6.34H197Z"/><path class="cls-10" d="M131.44,280.54V266.46h2.92v14.08Zm3.32-11.37v-2.71h5.64v2.71Zm0,5.44v-2.72h3.64v2.72Z"/><path class="cls-11" d="M146.33,280.74a4.28,4.28,0,0,1-3.06-1.22,4,4,0,0,1-1.27-3v-6a4,4,0,0,1,1.27-3,4.24,4.24,0,0,1,3.06-1.22V269a1.33,1.33,0,0,0-1,.44,1.55,1.55,0,0,0-.4,1.07v6a1.51,1.51,0,0,0,.4,1.06,1.31,1.31,0,0,0,1,.45Zm4.73-4.22a4,4,0,0,1-1.27,3,4.27,4.27,0,0,1-3.06,1.22V278a1.31,1.31,0,0,0,1-.45,1.51,1.51,0,0,0,.4-1.06v-6a1.55,1.55,0,0,0-.4-1.07,1.33,1.33,0,0,0-1-.44v-2.71a4.23,4.23,0,0,1,3.06,1.22,4,4,0,0,1,1.27,3Z"/><path class="cls-11" d="M157.8,280.74a4.25,4.25,0,0,1-3.06-1.22,4,4,0,0,1-1.27-3v-6a4,4,0,0,1,1.27-3,4.21,4.21,0,0,1,3.06-1.22V269a1.32,1.32,0,0,0-1,.44,1.55,1.55,0,0,0-.4,1.07v6a1.51,1.51,0,0,0,.4,1.06,1.29,1.29,0,0,0,1,.45Zm4.72-4.22a4,4,0,0,1-1.26,3,4.28,4.28,0,0,1-3.06,1.22V278a1.27,1.27,0,0,0,1-.45,1.51,1.51,0,0,0,.41-1.06v-6a1.56,1.56,0,0,0-.41-1.07,1.3,1.3,0,0,0-1-.44v-2.71a4.24,4.24,0,0,1,3.06,1.22,4,4,0,0,1,1.26,3Z"/><path class="cls-11" d="M164,269.17v-2.71h8.87v2.71Zm3,11.37v-11h2.91v11Z"/><path class="cls-12" d="M228.14,171.67A12.33,12.33,0,1,0,240.47,184,12.34,12.34,0,0,0,228.14,171.67Zm0,1a11.31,11.31,0,0,1,10.72,7.77l-7.57,4.71-6.64-3.6-7.56,4.73a11.14,11.14,0,0,1-.24-2.32A11.3,11.3,0,0,1,228.14,172.71Zm0,22.58a11.32,11.32,0,0,1-10.76-7.86l7.31-4.57,6.64,3.6,7.83-4.88a11.26,11.26,0,0,1-11,13.71Z"/><path class="cls-13" d="M228.14,195.29a11.32,11.32,0,0,1-10.76-7.86l7.31-4.57,6.64,3.6,7.83-4.88a11.26,11.26,0,0,1-11,13.71Z"/><path class="cls-14" d="M228.14,172.71a11.31,11.31,0,0,1,10.72,7.77l-7.57,4.71-6.64-3.6-7.56,4.73a11.14,11.14,0,0,1-.24-2.32A11.3,11.3,0,0,1,228.14,172.71Z"/><path class="cls-15" d="M243.08,184c0-1.73,1.6-3.69,1.09-5.25s-3-2.26-4-3.61-.85-3.9-2.21-4.89-3.71-.07-5.33-.59S229.73,167,228,167s-3.1,2.15-4.66,2.66-4-.39-5.33.59-1.22,3.53-2.21,4.89-3.45,2-4,3.61,1.09,3.52,1.09,5.25-1.6,3.69-1.09,5.25,3,2.26,4,3.61.85,3.9,2.21,4.89,3.71.07,5.33.59S226.27,201,228,201s3.1-2.15,4.66-2.66,4,.39,5.33-.59,1.22-3.53,2.21-4.89,3.45-2,4-3.61S243.08,185.73,243.08,184Zm-14.94,12.33A12.33,12.33,0,1,1,240.47,184,12.34,12.34,0,0,1,228.14,196.33Z"/><path class="cls-12" d="M228.14,211.67A12.33,12.33,0,1,0,240.47,224,12.34,12.34,0,0,0,228.14,211.67Zm0,1a11.31,11.31,0,0,1,10.72,7.77l-7.57,4.71-6.64-3.6-7.56,4.73a11.14,11.14,0,0,1-.24-2.32A11.3,11.3,0,0,1,228.14,212.71Zm0,22.58a11.32,11.32,0,0,1-10.76-7.86l7.31-4.57,6.64,3.6,7.83-4.88a11.26,11.26,0,0,1-11,13.71Z"/><path class="cls-13" d="M228.14,235.29a11.32,11.32,0,0,1-10.76-7.86l7.31-4.57,6.64,3.6,7.83-4.88a11.26,11.26,0,0,1-11,13.71Z"/><path class="cls-14" d="M228.14,212.71a11.31,11.31,0,0,1,10.72,7.77l-7.57,4.71-6.64-3.6-7.56,4.73a11.14,11.14,0,0,1-.24-2.32A11.3,11.3,0,0,1,228.14,212.71Z"/><path class="cls-15" d="M243.08,224c0-1.73,1.6-3.69,1.09-5.25s-3-2.26-4-3.61-.85-3.9-2.21-4.89-3.71-.07-5.33-.59S229.73,207,228,207s-3.1,2.15-4.66,2.66-4-.39-5.33.59-1.22,3.53-2.21,4.89-3.45,2-4,3.61,1.09,3.52,1.09,5.25-1.6,3.69-1.09,5.25,3,2.26,4,3.61.85,3.9,2.21,4.89,3.71.07,5.33.59S226.27,241,228,241s3.1-2.15,4.66-2.66,4,.39,5.33-.59,1.22-3.53,2.21-4.89,3.45-2,4-3.61S243.08,225.73,243.08,224Zm-14.94,12.33A12.33,12.33,0,1,1,240.47,224,12.34,12.34,0,0,1,228.14,236.33Z"/><path class="cls-12" d="M228.14,251.67A12.33,12.33,0,1,0,240.47,264,12.34,12.34,0,0,0,228.14,251.67Zm0,1a11.31,11.31,0,0,1,10.72,7.77l-7.57,4.71-6.64-3.6-7.56,4.73a11.14,11.14,0,0,1-.24-2.32A11.3,11.3,0,0,1,228.14,252.71Zm0,22.58a11.32,11.32,0,0,1-10.76-7.86l7.31-4.57,6.64,3.6,7.83-4.88a11.26,11.26,0,0,1-11,13.71Z"/><path class="cls-13" d="M228.14,275.29a11.32,11.32,0,0,1-10.76-7.86l7.31-4.57,6.64,3.6,7.83-4.88a11.26,11.26,0,0,1-11,13.71Z"/><path class="cls-14" d="M228.14,252.71a11.31,11.31,0,0,1,10.72,7.77l-7.57,4.71-6.64-3.6-7.56,4.73a11.14,11.14,0,0,1-.24-2.32A11.3,11.3,0,0,1,228.14,252.71Z"/><path class="cls-15" d="M243.08,264c0-1.73,1.6-3.69,1.09-5.25s-3-2.26-4-3.61-.85-3.9-2.21-4.89-3.71-.07-5.33-.59S229.73,247,228,247s-3.1,2.15-4.66,2.66-4-.39-5.33.59-1.22,3.53-2.21,4.89-3.45,2-4,3.61,1.09,3.52,1.09,5.25-1.6,3.69-1.09,5.25,3,2.26,4,3.61.85,3.9,2.21,4.89,3.71.07,5.33.59S226.27,281,228,281s3.1-2.15,4.66-2.66,4,.39,5.33-.59,1.22-3.53,2.21-4.89,3.45-2,4-3.61S243.08,265.73,243.08,264Zm-14.94,12.33A12.33,12.33,0,1,1,240.47,264,12.34,12.34,0,0,1,228.14,276.33Z"/><path class="cls-8" d="M256,143.15l-4.3,1.36,1.89,4.13-4-2-1.7,4.26L246.57,147l-3.59,3.6-10,10a1.43,1.43,0,0,1-1,.39,1.28,1.28,0,0,1-.92-.39l-.66-.66A1.28,1.28,0,0,1,230,159a1.43,1.43,0,0,1,.39-1l9.26-9.34,4.51-4.38-4.08-1.62,4.35-1.45-1.8-4.12,4,2.06,1.62-4.21,1.45,4.3,4.12-1.89-2.15,4Zm-8.07,1.1a.31.31,0,0,0,0-.44l-.74-.74a.29.29,0,0,0-.13-.09H247a.34.34,0,0,0-.26.09l-5.66,5.65,1.19,1.19ZM247,154l1.54.52-1.54.66-.44,1.36-.52-1.36-1.54-.66,1.54-.52.52-1.45Zm6.49,2.72,2.24.87-2.24.92-.92,2.15-.88-2.15-2.15-.92,2.15-.87.88-2.28Z"/></svg>