<svg id="Boutons" xmlns="http://www.w3.org/2000/svg" xmlns:xlink="http://www.w3.org/1999/xlink" viewBox="0 0 256 390"><defs><style>.cls-1,.cls-2{fill:#3e3d40;}.cls-2,.cls-3,.cls-33,.cls-4,.cls-5,.cls-54,.cls-6,.cls-7{fill-rule:evenodd;}.cls-3{fill:#da4843;}.cls-4{fill:#2d7fbc;}.cls-11,.cls-5{fill:#fff;}.cls-6{fill:#f9da39;}.cls-7{fill:#201d1e;}.cls-8{fill:#e5e5e5;}.cls-9{fill:#2d7ebc;}.cls-10{fill:#c1293d;}.cls-12{fill:#41a62a;}.cls-13{fill:url(#linear-gradient);}.cls-14{fill:url(#linear-gradient-2);}.cls-15{fill:url(#radial-gradient);}.cls-16{fill:url(#linear-gradient-3);}.cls-17{fill:url(#linear-gradient-4);}.cls-18{fill:url(#linear-gradient-5);}.cls-19{fill:url(#linear-gradient-6);}.cls-20{fill:url(#linear-gradient-7);}.cls-21{fill:url(#linear-gradient-8);}.cls-22{fill:url(#linear-gradient-9);}.cls-23{fill:url(#linear-gradient-10);}.cls-24{fill:url(#linear-gradient-11);}.cls-25{fill:url(#linear-gradient-12);}.cls-26{fill:url(#linear-gradient-13);}.cls-27{fill:url(#linear-gradient-14);}.cls-28{fill:url(#radial-gradient-2);}.cls-29{fill:url(#linear-gradient-15);}.cls-30{fill:url(#linear-gradient-16);}.cls-31{fill:url(#linear-gradient-17);}.cls-32{fill:url(#linear-gradient-18);}.cls-33{fill:url(#GradientFill_1);}.cls-34{fill:url(#linear-gradient-19);}.cls-35{fill:url(#linear-gradient-20);}.cls-36{fill:url(#radial-gradient-3);}.cls-37{fill:url(#linear-gradient-21);}.cls-38{fill:url(#linear-gradient-22);}.cls-39{fill:url(#linear-gradient-23);}.cls-40{fill:url(#linear-gradient-24);}.cls-41{fill:url(#linear-gradient-25);}.cls-42{fill:url(#linear-gradient-26);}.cls-43{fill:url(#linear-gradient-27);}.cls-44{fill:url(#linear-gradient-28);}.cls-45{fill:url(#linear-gradient-29);}.cls-46{fill:url(#linear-gradient-30);}.cls-47{fill:url(#linear-gradient-31);}.cls-48{fill:url(#linear-gradient-32);}.cls-49{fill:url(#radial-gradient-4);}.cls-50{fill:url(#linear-gradient-33);}.cls-51{fill:url(#linear-gradient-34);}.cls-52{fill:url(#linear-gradient-35);}.cls-53{fill:url(#linear-gradient-36);}.cls-54{fill:url(#GradientFill_1-2);}.cls-55{fill:url(#Dégradé_sans_nom_7);}.cls-56{fill:url(#Dégradé_sans_nom_7-2);}.cls-57{fill:#00349a;}.cls-58{fill:#dd333c;}</style><linearGradient id="linear-gradient" x1="-64.07" y1="-459.17" x2="-64.07" y2="-463.39" gradientTransform="matrix(1, 0, 0, -1, 91, -397.5)" gradientUnits="userSpaceOnUse"><stop offset="0.01" stop-color="#6a83a4"/><stop offset="0.47" stop-color="#a4b2cb"/><stop offset="0.82" stop-color="#c7d2e5"/><stop offset="0.99" stop-color="#d4deef"/></linearGradient><linearGradient id="linear-gradient-2" x1="-55.93" y1="-459.19" x2="-55.93" y2="-463.39" xlink:href="#linear-gradient"/><radialGradient id="radial-gradient" cx="-64.17" cy="-455.97" r="12.68" gradientTransform="matrix(1, 0, 0, -1, 91.3, -396.94)" gradientUnits="userSpaceOnUse"><stop offset="0.35" stop-color="#d4deef"/><stop offset="0.67" stop-color="#a3b1cb"/><stop offset="1" stop-color="#6a83a4"/></radialGradient><linearGradient id="linear-gradient-3" x1="-51.05" y1="-463.18" x2="-54.57" y2="-441.37" gradientTransform="matrix(1, 0, 0, -1, 91, -397.5)" gradientUnits="userSpaceOnUse"><stop offset="0.01" stop-color="#6a859c"/><stop offset="0.99" stop-color="#d0dbeb"/></linearGradient><linearGradient id="linear-gradient-4" x1="-56.06" y1="-458.88" x2="-55.74" y2="-461.53" gradientTransform="matrix(1, 0, 0, -1, 91, -397.5)" gradientUnits="userSpaceOnUse"><stop offset="0.01" stop-color="#6a859c"/><stop offset="0.03" stop-color="#7089a0"/><stop offset="0.13" stop-color="#8ea1b6"/><stop offset="0.25" stop-color="#a7b6c9"/><stop offset="0.38" stop-color="#b9c6d8"/><stop offset="0.52" stop-color="#c6d2e2"/><stop offset="0.7" stop-color="#cdd9e9"/><stop offset="0.99" stop-color="#d0dbeb"/></linearGradient><linearGradient id="linear-gradient-5" x1="-75.51" y1="-477.85" x2="-55.11" y2="-458.51" gradientTransform="matrix(1, 0, 0, -1, 91, -397.5)" gradientUnits="userSpaceOnUse"><stop offset="0.01" stop-color="#6a859c"/><stop offset="0.3" stop-color="#6d879e"/><stop offset="0.47" stop-color="#758da4"/><stop offset="0.62" stop-color="#8398ae"/><stop offset="0.75" stop-color="#96a8bc"/><stop offset="0.87" stop-color="#afbdd0"/><stop offset="0.98" stop-color="#ccd8e8"/><stop offset="0.99" stop-color="#d0dbeb"/></linearGradient><linearGradient id="linear-gradient-6" x1="-65.19" y1="-458.35" x2="-56.99" y2="-465.78" xlink:href="#linear-gradient-4"/><linearGradient id="linear-gradient-7" x1="-63.55" y1="-457.63" x2="-64.93" y2="-465.01" gradientTransform="matrix(1, 0, 0, -1, 91, -397.5)" gradientUnits="userSpaceOnUse"><stop offset="0.01" stop-color="#6a859c"/><stop offset="0.45" stop-color="#9fafc3"/><stop offset="0.81" stop-color="#c2cfdf"/><stop offset="0.99" stop-color="#d0dbeb"/></linearGradient><linearGradient id="linear-gradient-8" x1="-69" y1="-456.48" x2="-66.74" y2="-456.48" gradientTransform="matrix(1, 0, 0, -1, 91, -397.5)" gradientUnits="userSpaceOnUse"><stop offset="0.01" stop-color="#a2c0df"/><stop offset="0.25" stop-color="#a4c1df"/><stop offset="0.39" stop-color="#acc6e2"/><stop offset="0.51" stop-color="#bacee5"/><stop offset="0.61" stop-color="#cdd9ea"/><stop offset="0.63" stop-color="#d0dbeb"/></linearGradient><linearGradient id="linear-gradient-9" x1="-66.78" y1="-449.63" x2="-63.14" y2="-453.45" gradientTransform="matrix(1, 0, 0, -1, 91, -397.5)" gradientUnits="userSpaceOnUse"><stop offset="0.01" stop-color="#b3c9df"/><stop offset="0.28" stop-color="#b5cbe0"/><stop offset="0.45" stop-color="#bdcfe3"/><stop offset="0.58" stop-color="#cad7e8"/><stop offset="0.63" stop-color="#d0dbeb"/></linearGradient><linearGradient id="linear-gradient-10" x1="-62.11" y1="-454.37" x2="-60.3" y2="-456.49" gradientTransform="matrix(1, 0, 0, -1, 91, -397.5)" gradientUnits="userSpaceOnUse"><stop offset="0.01" stop-color="#6a859c"/><stop offset="0.11" stop-color="#768da4"/><stop offset="0.71" stop-color="#b7c4d6"/><stop offset="0.99" stop-color="#d0dbeb"/></linearGradient><linearGradient id="linear-gradient-11" x1="-58.48" y1="-455.15" x2="-60.85" y2="-457.42" xlink:href="#linear-gradient-4"/><linearGradient id="linear-gradient-12" x1="-57.89" y1="-452.06" x2="-53.21" y2="-452.06" xlink:href="#linear-gradient-4"/><linearGradient id="linear-gradient-13" x1="-58.81" y1="-455.27" x2="-61.22" y2="-455.27" gradientTransform="matrix(1, 0, 0, -1, 91, -397.5)" gradientUnits="userSpaceOnUse"><stop offset="0" stop-color="#f19a80"/><stop offset="0.15" stop-color="#ee8d71"/><stop offset="0.44" stop-color="#e46c4f"/><stop offset="0.83" stop-color="#d73226"/><stop offset="1" stop-color="#d10019"/></linearGradient><linearGradient id="linear-gradient-14" x1="-58.13" y1="-450.09" x2="-59.56" y2="-452.53" gradientTransform="matrix(1, 0, 0, -1, 91, -397.5)" gradientUnits="userSpaceOnUse"><stop offset="0" stop-color="#e42726"/><stop offset="0.63" stop-color="#e42724"/><stop offset="1" stop-color="#c81b1d"/></linearGradient><radialGradient id="radial-gradient-2" cx="-64.16" cy="-455.23" r="8.02" gradientTransform="matrix(1, 0, 0, -1, 91.3, -396.94)" gradientUnits="userSpaceOnUse"><stop offset="0.05" stop-color="#f6b5a3"/><stop offset="0.8" stop-color="#e53b1f"/><stop offset="1" stop-color="#d1001f"/></radialGradient><linearGradient id="linear-gradient-15" x1="-57.93" y1="-457.36" x2="-62.51" y2="-455.92" gradientTransform="matrix(1, 0, 0, -1, 91, -397.5)" gradientUnits="userSpaceOnUse"><stop offset="0" stop-color="#fff"/><stop offset="0.08" stop-color="#fef5f0"/><stop offset="0.22" stop-color="#fbd9c9"/><stop offset="0.41" stop-color="#f4a88c"/><stop offset="0.65" stop-color="#e95d41"/><stop offset="0.77" stop-color="#e42724"/><stop offset="1" stop-color="#c81b1d"/></linearGradient><linearGradient id="linear-gradient-16" x1="-52.01" y1="-440.43" x2="-66.34" y2="-469.38" xlink:href="#linear-gradient-15"/><linearGradient id="linear-gradient-17" x1="-61.23" y1="-449.78" x2="-43.74" y2="-449.94" gradientTransform="matrix(1, 0, 0, -1, 91, -397.5)" gradientUnits="userSpaceOnUse"><stop offset="0" stop-color="#e42726"/><stop offset="0.77" stop-color="#e42724"/><stop offset="1" stop-color="#c81b1d"/></linearGradient><linearGradient id="linear-gradient-18" x1="-58.13" y1="-449.74" x2="-60.65" y2="-453.81" xlink:href="#linear-gradient-15"/><linearGradient id="GradientFill_1" x1="66" y1="59" x2="83.97" y2="59" gradientUnits="userSpaceOnUse"><stop offset="0"/><stop offset="0.34" stop-color="#1d032f"/><stop offset="1" stop-color="#5a0a92"/></linearGradient><linearGradient id="linear-gradient-19" x1="-54.43" y1="-493.06" x2="-54.43" y2="-498.69" xlink:href="#linear-gradient"/><linearGradient id="linear-gradient-20" x1="-43.57" y1="-493.09" x2="-43.57" y2="-498.69" xlink:href="#linear-gradient"/><radialGradient id="radial-gradient-3" cx="-54.51" cy="-488.49" r="16.91" xlink:href="#radial-gradient"/><linearGradient id="linear-gradient-21" x1="-37.07" y1="-498.41" x2="-41.76" y2="-469.33" xlink:href="#linear-gradient-3"/><linearGradient id="linear-gradient-22" x1="-43.75" y1="-492.68" x2="-43.31" y2="-496.2" xlink:href="#linear-gradient-4"/><linearGradient id="linear-gradient-23" x1="-69.67" y1="-517.97" x2="-42.49" y2="-492.17" xlink:href="#linear-gradient-5"/><linearGradient id="linear-gradient-24" x1="-55.92" y1="-491.97" x2="-44.99" y2="-501.87" xlink:href="#linear-gradient-4"/><linearGradient id="linear-gradient-25" x1="-53.73" y1="-491.01" x2="-55.58" y2="-500.85" xlink:href="#linear-gradient-7"/><linearGradient id="linear-gradient-26" x1="-61" y1="-489.47" x2="-57.99" y2="-489.47" xlink:href="#linear-gradient-8"/><linearGradient id="linear-gradient-27" x1="-58.05" y1="-480.34" x2="-53.19" y2="-485.43" xlink:href="#linear-gradient-9"/><linearGradient id="linear-gradient-28" x1="-51.81" y1="-486.66" x2="-49.4" y2="-489.49" xlink:href="#linear-gradient-10"/><linearGradient id="linear-gradient-29" x1="-46.97" y1="-487.7" x2="-50.14" y2="-490.73" xlink:href="#linear-gradient-4"/><linearGradient id="linear-gradient-30" x1="-46.18" y1="-483.58" x2="-39.95" y2="-483.58" xlink:href="#linear-gradient-4"/><linearGradient id="linear-gradient-31" x1="-47.41" y1="-487.85" x2="-50.63" y2="-487.85" xlink:href="#linear-gradient-13"/><linearGradient id="linear-gradient-32" x1="-46.51" y1="-480.96" x2="-48.42" y2="-484.21" xlink:href="#linear-gradient-14"/><radialGradient id="radial-gradient-4" cx="-54.5" cy="-487.5" r="10.69" xlink:href="#radial-gradient-2"/><linearGradient id="linear-gradient-33" x1="-46.24" y1="-490.64" x2="-52.34" y2="-488.72" xlink:href="#linear-gradient-15"/><linearGradient id="linear-gradient-34" x1="-38.34" y1="-468.07" x2="-57.46" y2="-506.67" xlink:href="#linear-gradient-15"/><linearGradient id="linear-gradient-35" x1="-50.64" y1="-480.54" x2="-27.32" y2="-480.75" xlink:href="#linear-gradient-17"/><linearGradient id="linear-gradient-36" x1="-46.51" y1="-480.48" x2="-49.87" y2="-485.91" xlink:href="#linear-gradient-15"/><linearGradient id="GradientFill_1-2" x1="90" y1="92" x2="113.97" y2="92" xlink:href="#GradientFill_1"/><linearGradient id="Dégradé_sans_nom_7" x1="615.26" y1="-363.81" x2="624.52" y2="-363.73" gradientTransform="matrix(2.55, 0, 0, -2.47, -1506.9, -807.21)" gradientUnits="userSpaceOnUse"><stop offset="0"/><stop offset="0.28" stop-color="#5c5c5a"/><stop offset="0.4" stop-color="#737371"/><stop offset="0.5" stop-color="#5e5e5c"/><stop offset="0.69" stop-color="#3c3c3c"/><stop offset="1"/></linearGradient><linearGradient id="Dégradé_sans_nom_7-2" x1="608.95" y1="-350.54" x2="615.89" y2="-350.48" xlink:href="#Dégradé_sans_nom_7"/></defs><title>uiux_icons</title><path class="cls-1" d="M50,294A46,46,0,1,1,4,340a46.06,46.06,0,0,1,46-46m0-2a48,48,0,1,0,48,48,48,48,0,0,0-48-48Z"/><path class="cls-2" d="M57.31,333a1.26,1.26,0,0,1-.11-2.52,1.26,1.26,0,1,1,.11,2.52Z"/><path class="cls-2" d="M57.54,339.47c-.14.59-.7-.22-1.48,0s-1,.63-1.34,1.55a2.09,2.09,0,0,1,.46-2.08c.69-.76,2.62-.52,2.36.57Z"/><path class="cls-2" d="M17.86,343.29c-1.9,2.17-3.7,4.16-3.78,7.39.05,2.23.64,2.65,1.94,3.49,2.43,1.32,5.46-.1,7.55-1.73a9.64,9.64,0,0,0-1.36,3.06c-.25,1.88-.23,3.86,1.52,4.81,2.19.83,3.69-.61,4.53-.21-.94,3,.37,4.09,2.18,5a5,5,0,0,0,4.33-.18C37,363.39,39,359,40.86,358.41s4.12.45,6.53.94a20,20,0,0,0,7,.13,13.65,13.65,0,0,0,4-2c1.07-.82,2-2.26,2.17-1.85s2.78,4.1,5.37,3.47a4.45,4.45,0,0,0,2.92-2.32s2.45,1.95,4.34.88,1.7-4.37,1.7-4.37a7.51,7.51,0,0,0-2.09-4.53,80.42,80.42,0,0,0,17-10.18c2.55-2.19,4.12-3.4,2.44-6.1-3.68-5.69-18.5-10.65-25.17-12.11a11.75,11.75,0,0,0-10.43-1.84c-.62-.05-.36,0-.9-.1-.39-1.25-1.45-3.89-3-3.88-1.26.1-2.53,2-2.4,3.46-11.5-.58-29.85,2.44-38.24,8.14-1.92,1.31-3.79,2.51-4,4.38s1.89,2.9,5.8,2.83c.2,0,.63,0,1,0-2.36,2.16-5.17,3.67-7,7.39-.56,1.43-1.55,4,0,5.38C10.56,348.3,15.78,344.79,17.86,343.29Zm55.61,11.93a2.24,2.24,0,0,1-3,1.31c-1.06-.55-1.24-1.66-1.72-1.61s-1.36,2.92-3,2.92c-1.43,0-2.48-.58-3.31-2.61a5.65,5.65,0,0,1,.08-4.18,30.48,30.48,0,0,0,9.24-1.91C72.9,350.55,74.05,353.05,73.47,355.22Zm17.69-22.13c1.18,2-.2,3-1.67,4.08-5.76,4-11,7.48-18.07,9.9-5.11.23-13.4-.07-15.09-7.17-1.23,5.64,7.06,8.85,11.39,8.4-5.16,1.53-13.36,2.29-17.35-2.14a7.3,7.3,0,0,1-.1-9.29,6.34,6.34,0,0,1,2.82-2.45c8.46,2.17,12.75-.41,12-4,5.39-.46,5.43-4.72,3.42-7.62C76.52,324.39,88.44,328.82,91.16,333.09Zm-43.32-9.4c4.21-2,9.73-.62,13.42,2.17,4.15,3.24,2.82,5.6,1.26,6.8-3.15,2.07-7.33,1-10.55-.31C48.33,330.75,44.39,325.55,47.84,323.69Zm14.83-4.3c3,.71,8,4.86,5.18,8.59a3.19,3.19,0,0,1-3.23,1.08c1.91-.3,1-3.05-.86-2.05-1.78-2.8-5.48-4.92-9.57-5.55C56.42,318.46,59.48,318.69,62.67,319.39Zm-8.85-3c.62.12.77,1.17.85,1.9-.67-.05-1.56-.13-2.23-.17A7.12,7.12,0,0,1,53.82,316.35ZM20.55,330.71c-5.65,1-10.57,1-10.89-.64-.12-.93,2-2.31,3-2.88,9.37-5,19.23-6.64,30-7a2.12,2.12,0,0,0-.06,2.56c.57.75,2,2.31,2.29,2.17s-.6-1.6-.57-2.42c.23-2.55,3.68.15,2.64-2.44a45.33,45.33,0,0,1,6.82.2,5,5,0,0,0-.71,1.21c-4.81,0-6.43,1-7.68,3-1.35,2.55.84,6.94,5.88,9a9.39,9.39,0,0,0-4.21,8.87,9.18,9.18,0,0,0,4.51,7,18.17,18.17,0,0,0,8.87,1.79c.66,2.93-2.39,5.15-3.58,5.88-3.6,2.39-8.78,1.45-12.55.26-1.48-.42-2.78-.95-4.25-.18-3.2,1.9-5.1,8.48-9.32,6.21-2.15-1.18-1.79-3.08-1.25-3.62,1.29-1.05.91-1.7-.5-1.41-1,.16-1.63.75-3.63.44a2.71,2.71,0,0,1-1.73-1.91c-.19-3.45,1.49-6,3.73-8.14.91-.79.06-.92-1-.38-2.7,1.34-4.92,3.57-7.88,4.14-1.44.21-2.34-.37-2.53-2.4-.13-3.11,4.38-8.63,6.29-10.92-6,2.88-12.11,7.4-13.47,5C6.79,339.67,17.76,331.78,20.55,330.71Z"/><path class="cls-1" d="M87.74,227.91h2.52V240h7.55v2.3H87.74Z"/><path class="cls-1" d="M103.08,235.13v0a7.51,7.51,0,0,1,15,0v0a7.51,7.51,0,0,1-15,0Zm12.38,0v0a4.93,4.93,0,0,0-4.89-5.11,4.85,4.85,0,0,0-4.84,5.07v0a4.92,4.92,0,0,0,4.88,5.11A4.86,4.86,0,0,0,115.46,235.13Z"/><path class="cls-1" d="M128,230.25h-4.56v-2.34h11.66v2.34h-4.56v12H128Z"/><path class="cls-1" d="M140.46,235.13v0a7.51,7.51,0,0,1,15,0v0a7.51,7.51,0,0,1-15,0Zm12.37,0v0A4.92,4.92,0,0,0,148,230a4.85,4.85,0,0,0-4.84,5.07v0A4.92,4.92,0,0,0,148,240.2,4.85,4.85,0,0,0,152.83,235.13Z"/><path class="cls-1" d="M162.63,227.91h10.69v2.3h-8.16v3.92h7.24v2.29h-7.24v5.85h-2.53Z"/><path class="cls-1" d="M179.44,235.13v0a7.51,7.51,0,0,1,15,0v0a7.51,7.51,0,0,1-15,0Zm12.37,0v0a4.92,4.92,0,0,0-4.89-5.11,4.85,4.85,0,0,0-4.84,5.07v0A4.92,4.92,0,0,0,187,240.2,4.85,4.85,0,0,0,191.81,235.13Z"/><path class="cls-1" d="M201,235.13v0a7.51,7.51,0,0,1,15,0v0a7.51,7.51,0,0,1-15,0Zm12.38,0v0a4.92,4.92,0,0,0-4.89-5.11,4.85,4.85,0,0,0-4.84,5.07v0a4.92,4.92,0,0,0,4.88,5.11A4.86,4.86,0,0,0,213.35,235.13Z"/><path class="cls-1" d="M225.9,230.25h-4.55v-2.34H233v2.34h-4.56v12H225.9Z"/><path class="cls-2" d="M61.69,211.74a32.29,32.29,0,1,0,.85,45.65A32.28,32.28,0,0,0,61.69,211.74Zm-.4,44.42a30.39,30.39,0,0,1-21.15,9.34C40.05,264.48,42,263,42,263a42.75,42.75,0,0,1-7-.19,7.19,7.19,0,0,1,2.25,2.68A30.51,30.51,0,0,1,11.23,223l-.11.34c2.68-6.62,7.06-6.08,7.06-6.08a33.37,33.37,0,0,1,2.27-4.6,49.73,49.73,0,0,0-6.57,5.46,30.07,30.07,0,0,1,3.43-4.28,30.53,30.53,0,0,1,48.07,5.28A38.61,38.61,0,0,0,58.27,213a32.69,32.69,0,0,1,2.06,4.85s4-.67,7.23,5.53A30.55,30.55,0,0,1,61.29,256.16Z"/><path class="cls-2" d="M68.64,244a28.73,28.73,0,0,1-2.75,6.41s-1.16-.9-8.28,2.6a51.94,51.94,0,0,0,2.16-6.21s5,4.24,8.87-2.8Z"/><path class="cls-2" d="M56.42,253.63a99.38,99.38,0,0,0-13.64,8.73s-.57-.2-3.57-3c0,0,10.22-.2,13.49-9a31.11,31.11,0,0,0,3.72,3.35Z"/><path class="cls-3" d="M59,246s-2.65,1.29-5.93,3.05c0,0,3.13-8.12-4.89-14.75,0,0,5.21-2.89,5.92-3.06,0,0-.39,8.75,4.9,14.76Z"/><path class="cls-4" d="M28.94,234.1s-7.47,4.47-5.12,14.57a31.74,31.74,0,0,1-5.47-3.29s4.55-4.32,5-14.54c0,0,4.75,2.72,5.6,3.26Z"/><path class="cls-2" d="M19.62,252.3a47.56,47.56,0,0,1-2.16-6.16s-4.14,3.86-7.52-2.8c0,0,0,1.94,2.22,6.19,0,0-.51-1.71,7.46,2.77Z"/><path class="cls-4" d="M47.13,226.27s-.22,5.15-.24,7.19a16.4,16.4,0,0,0-16.5-.37s.1-4.58.25-6.88a18.79,18.79,0,0,0,16.49.06Z"/><path class="cls-2" d="M29.2,225.49a45.83,45.83,0,0,0-5.92,3.74s.81-8.41-4.3-11.7a45,45,0,0,1,5.63-3.64s-3.13,6.67,4.59,11.6Z"/><path class="cls-2" d="M59.5,218.34a45.83,45.83,0,0,0-5.71-4s2.64,6.26-5.28,11.2a64.43,64.43,0,0,1,5.56,3.95s.49-9.63,5.43-11.17Z"/><path class="cls-3" d="M57,212.22a24.44,24.44,0,0,0-3.67.91S50.74,207,40.77,206a11.63,11.63,0,0,1,3.31-.89,65.29,65.29,0,0,1,13,7.15Z"/><path class="cls-4" d="M38.58,206a15.63,15.63,0,0,0-13.34,6.62s-2.34-.73-3.37-.9c0,0,9.15-5.86,13.75-6.85a9.9,9.9,0,0,1,3,1.13Z"/><path class="cls-4" d="M40.14,265.59c-.09-1,1.89-2.54,1.89-2.54a42.75,42.75,0,0,1-7-.19,7.19,7.19,0,0,1,2.25,2.68c1,.06,1.9.08,2.85,0Z"/><path class="cls-4" d="M58.27,213.11A32.69,32.69,0,0,1,60.33,218s4-.67,7.23,5.53a30.57,30.57,0,0,0-2.18-4.31,38.61,38.61,0,0,0-7.11-6.07Z"/><path class="cls-3" d="M18.18,217.32a32.8,32.8,0,0,1,2.27-4.6,49.73,49.73,0,0,0-6.57,5.46,30.43,30.43,0,0,0-2.65,4.88l-.11.34c2.68-6.62,7.06-6.08,7.06-6.08Z"/><path class="cls-3" d="M34.32,262.31s-5.83-4.3-13.41-9l-.23-.15,3.68-3.31a13,13,0,0,0,.77,1.61,15,15,0,0,0,12.33,7.79l.5,0-3.64,3.05Z"/><path class="cls-2" d="M30.55,124.46l-.92.07c0-.3.1-.73.35-.78a2.85,2.85,0,0,1,.57.71Zm-2.49,51.91h.06l.56.46a4.42,4.42,0,0,0,.7-.08c.15-.22.22-.34.38-.6l0,0c.5-.13,1.22-.41,1.71-.56a1.23,1.23,0,0,0,.95-.95c.47-2.67-2.46-7.83-.69-8,1.54-.11,4.9,3.88,6.09,7.83.31.94.74,1.23,2.08,1.37.17.26.25.38.41.59a3.4,3.4,0,0,0,.7,0c.26-.23.28-.24.54-.49a21.48,21.48,0,0,0,2.62.25,4.74,4.74,0,0,0,.37.55,5.14,5.14,0,0,0,.76,0,5.83,5.83,0,0,0,.5-.5,22.6,22.6,0,0,0,2.85,0c.22.23.29.32.47.49a4.46,4.46,0,0,0,.76-.07c.11-.16.19-.31.38-.61a11,11,0,0,0,1.56-.62c.59-.34.91-.74.38-1.52-2-3.53-4.82-5.28-10.11-5.5a20.82,20.82,0,0,1-1.46-3.31c1.26-.07,1.93.6,3.07,1.87a4.33,4.33,0,0,0-.79-4.25,9.72,9.72,0,0,1,4.41,4.67c1.07-2.84-.32-5.41-2.65-7.06,1.81.05,4.94,2.27,6.35,3.68C51,160.81,50,158.51,48,157.45c.26-.24-8.79-12.25-8.39-13.63a1.45,1.45,0,0,0,.9-2c.34-.17,1,.43,1.86.09.72-.4.73-1.21.63-2a4,4,0,0,0-.56-1.26c.86.67,2.11,1.26,3.11.71a1.34,1.34,0,0,0,.8-1.43,4.62,4.62,0,0,0-1.56-3.05c.86.62,3,2.07,4.12,1.14.62-.58.22-1.62,0-2.22-.76-1.53-1.92-2.15-2.89-3,.13,0,.31,0,.4,0,1.61,0,2.44-.44,2.38-1.16s-.85-1.27-1.64-1.81c-3.46-2.35-11-3.6-15.76-3.36a1.4,1.4,0,0,0-1-1.42c-.62,0-1.06,1.08-1.22,1.6l-.37,0a4.84,4.84,0,0,0-4.3.76c-2.74.6-8.85,2.64-10.37,5-.69,1.11,0,1.61,1,2.51a33.39,33.39,0,0,0,7,4.2,3,3,0,0,0-.86,1.86,9.88,9.88,0,0,0-3.27,5.94c-.45,2.48-.54,4.67,1.23,9.66a87.25,87.25,0,0,0,6.77,14.37c-4.1-.14-7.25,1.33-8.63,4.59a1.5,1.5,0,0,0,.26,1.91,6.14,6.14,0,0,0,1.64.65l.11,0a6.39,6.39,0,0,1,.3.61,6.16,6.16,0,0,0,.76.08c.19-.17.25-.26.47-.49l.24,0c.58.06,2.07.11,2.73.13a5.29,5.29,0,0,0,.47.52,4.48,4.48,0,0,0,.75,0,5.32,5.32,0,0,0,.4-.52h0c.75,0,1.54-.05,2.47-.1Z"/><path class="cls-2" d="M6.73,140c.68.92,1.73,1.76,2.35,2.75-.35.3-.63.57-.62,1a1.11,1.11,0,0,0,.24.79c-1.23.79-1,2.35-.62,3.59C9.15,151.5,12.7,153.53,16,154a9.05,9.05,0,0,0,3.12-.27c.17-.05.21-.18.36-.27a15,15,0,0,1-.83-8.91c.06,0-.33-.6-.31-.64a2,2,0,0,1-2.85.11c-.71-.75.33-2.17-1.25-2.31a1.61,1.61,0,0,0-1.32.7c-1.29-1.55-2.94-3.69-5.12-3.7-.64,0-1.41.63-1,1.36Z"/><path class="cls-4" d="M8.69,141.47a8.54,8.54,0,0,1,.76,1.18,3.31,3.31,0,0,1,3.05,1.58,1.84,1.84,0,0,1,.17,2.14.93.93,0,0,1-.57.4,1.29,1.29,0,0,1-.7,1.26c-1.07.43-1.73-.44-2.28-.92-.17-.16-.37-.55,0-.37s.66.38,1.07.61a.92.92,0,0,0,.88,0,.87.87,0,0,0,.33-.76,2.37,2.37,0,0,0-1.53-1.73,1.32,1.32,0,0,0-1.13.22c-.58.44-.49,1.16-.39,1.83.48,2.88,3.34,5,6,5.8a9.51,9.51,0,0,0,4.5.16,16.64,16.64,0,0,1-.7-7.85,2.57,2.57,0,0,1-2.74-.18,2,2,0,0,1-.71-1.51c0-.4.42-1-.13-1.26a.84.84,0,0,0-.94.34,2.05,2.05,0,0,0-.38,1.88c.18.53.7.87,1,1.28a3,3,0,0,0-.63,1.65,1.62,1.62,0,0,0,.62,1.19c-.13.21-.26,0-.4-.05a2.22,2.22,0,0,1-.75-1.59,1.73,1.73,0,0,1,.6-1.33A3.27,3.27,0,0,1,12.55,144a1.78,1.78,0,0,1,0-1.07c-1.38-1.23-2.7-3.17-4.48-3.81-.54-.16-1.12.08-1,.43.25.67,1.11,1.26,1.61,1.91Z"/><path class="cls-4" d="M9.82,144.26c1.07,0,1.81,1.09,2.1,2,.28.06.39-.34.39-.58a2.91,2.91,0,0,0-1.94-2.48,1,1,0,0,0-1.11.14A1,1,0,0,0,9,144.38a3.73,3.73,0,0,1,.87-.12Z"/><path class="cls-5" d="M24.2,128.54a1.28,1.28,0,0,0,1.33.44c-.79-.12-.43-1.25.36-.84a5.74,5.74,0,0,1,3.94-2.29c-.92-1.23-2.18-1.14-3.49-.85s-3.29,2-2.14,3.54Z"/><path class="cls-3" d="M30,125.36a2.38,2.38,0,0,1,.29.5c2,0,2.64.44,3.16,1.25.56,1-.35,2.86-2.42,3.71a3.87,3.87,0,0,1,1.73,3.66,3.77,3.77,0,0,1-1.86,2.87,7.58,7.58,0,0,1-3.65.74c-.27,1.2,1,2.12,1.47,2.42,1.49,1,3.62.6,5.18.11a2.18,2.18,0,0,1,1.75-.08c1.31.79,2.1,3.5,3.84,2.56.89-.48.74-1.27.51-1.49-.53-.43-.37-.7.21-.58a3.16,3.16,0,0,0,1.5.18,1.12,1.12,0,0,0,.71-.79,4.19,4.19,0,0,0-1.54-3.35c-.37-.33,0-.38.4-.16,1.11.56,2,1.47,3.24,1.71.6.09,1-.15,1-1,.05-1.28-1.81-3.56-2.6-4.5,2.46,1.18,5,3.05,5.56,2.05.83-1.82-3.69-5.07-4.85-5.52,2.33.42,4.36.41,4.49-.26,0-.38-.82-1-1.25-1.19a27.33,27.33,0,0,0-12.34-2.88.9.9,0,0,1,0,1.06c-.24.31-.83,1-.94.89s.25-.65.23-1c-.09-1.06-1.51.06-1.09-1a18.56,18.56,0,0,0-2.8.08Z"/><path class="cls-6" d="M14.6,130.65c-.49.84.08,1.23.68,1.68a30.12,30.12,0,0,0,7.45,4.08c2.1.09,5.52,0,6.22-3,.5,2.33-2.91,3.65-4.7,3.47,2.13.63,5.51.94,7.16-.89a3,3,0,0,0,0-3.83,2.57,2.57,0,0,0-1.17-1c-3.48.89-5.25-.18-4.92-1.66-2.22-.19-2.24-1.95-1.41-3.14-3.32.66-8.23,2.49-9.35,4.25Z"/><path class="cls-5" d="M26.4,130.47c1.29.85,3,.42,4.35-.13,1.5-.66,3.12-2.8,1.7-3.57a5.63,5.63,0,0,0-5.53.9c-1.71,1.33-1.17,2.3-.52,2.8Z"/><path class="cls-2" d="M28.54,130.61a.52.52,0,0,0,.05-1,.52.52,0,1,0-.05,1Z"/><path class="cls-3" d="M22.6,137.26a3.05,3.05,0,0,0-.71,2.51.93.93,0,0,0,1.23.54c.43-.23.5-.69.7-.67s.56,1.21,1.26,1.21,1-.24,1.36-1.08a2.38,2.38,0,0,0,0-1.72,12.89,12.89,0,0,1-3.81-.79Z"/><path class="cls-3" d="M40.38,164.44a3.21,3.21,0,0,1,3,1.82C44,165,42.49,163,41.56,162a6.62,6.62,0,0,1,5.62,4.55c.73-2.83-2.27-5.4-4.52-6.7,3.36-.18,5,.25,7.83,3.15a8.43,8.43,0,0,0-2.91-5.27,6.05,6.05,0,0,1-8.35-1.62,18.91,18.91,0,0,0,1.15,8.29Z"/><path class="cls-4" d="M44.65,176.33l.16.26a3.32,3.32,0,0,0,.35,0,2.61,2.61,0,0,1,.23-.25,5.78,5.78,0,0,1-.74,0Z"/><path class="cls-4" d="M40.44,176c.08.12.09.21.14.29a1.72,1.72,0,0,0,.32,0l.22-.27a4.88,4.88,0,0,1-.68,0Z"/><path class="cls-4" d="M49.13,176.34a1,1,0,0,0,.23.27c.09,0,.18,0,.32,0a1,1,0,0,0,.18-.31,6.64,6.64,0,0,1-.73.07Z"/><path class="cls-2" d="M28.45,133.28c.06.24.29-.09.61,0s.43.26.55.64a.84.84,0,0,0-.19-.86c-.28-.31-1.08-.21-1,.24Z"/><path class="cls-4" d="M19,148.09c.42,5.73,3,11.14,5.07,15.9,1,2.2,2.25,4.35,2.74,5.24a14.11,14.11,0,0,0-7.12,2.25,6,6,0,0,0-2.11,3.1c0,.47,2.08.8,3.07.89,3.52.24,7.32.44,11.06-.94.7-.3-.72-3.44-1.11-4.9s-.78-3.65.72-3.84c2.67-.19,5.27,3.61,6.68,7.64.61,1.34-.24,1.64,2,1.61,3.77.27,7.86.8,11.82-.18.24-.08-.08-.67-.24-.92-2.28-3-5-4.29-9.87-5.19-.09-.18-.26-.43-.31-.57-1.8-2.94-4.25-9.91-3.19-13.6a7.66,7.66,0,0,1-.62-3.21,32.34,32.34,0,0,1,.1-5.21,7.68,7.68,0,0,1,.64-2.13c-2.07.05-2.23-3-3.25-3-1.88,0-3.29,1.13-5.18.84a4.19,4.19,0,0,1-2.95-2.08c-.34,1.16-.85,1.92-2,1.82-.87-.12-1-1.4-1.75-.7a1.34,1.34,0,0,1-1.88-1c-2.07,2.16-2.44,5.05-2.33,8.24Z"/><path class="cls-4" d="M29.27,176.28a2.21,2.21,0,0,0-.13.29l-.32,0-.23-.25a6.21,6.21,0,0,0,.68-.07Z"/><path class="cls-4" d="M20.53,176.29a.93.93,0,0,1-.22.27c-.1,0-.19,0-.33,0a1.16,1.16,0,0,1-.18-.32,7.24,7.24,0,0,0,.73.09Z"/><path class="cls-4" d="M25.12,176.52l-.17.25a2,2,0,0,1-.35,0c-.07-.1-.14-.16-.22-.26a4.57,4.57,0,0,0,.74,0Z"/><path class="cls-7" d="M50.63,142.24a7.56,7.56,0,1,1-10.7-.2,7.59,7.59,0,0,1,10.7.2Z"/><path class="cls-5" d="M46.17,154a8.91,8.91,0,0,1-1.63,0s.46.35.44.59a7.14,7.14,0,0,1-6.42-9.86c.75-1.45,1.69-1.3,1.69-1.3a8,8,0,0,1,.48-1.13,9.07,9.07,0,0,0-1.66,1.42,7.31,7.31,0,0,1,1.14-1.43,7.17,7.17,0,0,1,10.12.19,7.54,7.54,0,0,1,.8,1,11.13,11.13,0,0,0-1.54-1.28,7.08,7.08,0,0,1,.53,1.07s1-.12,1.66,1.43l0-.08a7.14,7.14,0,0,1-6.1,10,1.79,1.79,0,0,1,.52-.63Z"/><path class="cls-2" d="M38.3,149.57a7,7,0,0,0,.65,1.5s.27-.21,1.94.61a12.82,12.82,0,0,1-.51-1.45s-1.17,1-2.08-.66Z"/><path class="cls-2" d="M41.17,151.83a22.48,22.48,0,0,1,3.19,2,5,5,0,0,0,.84-.71A3.57,3.57,0,0,1,42,151.05a8.73,8.73,0,0,1-.87.78Z"/><path class="cls-3" d="M40.56,150.05s.62.3,1.39.72a3.15,3.15,0,0,1,1.15-3.46s-1.23-.67-1.39-.71a5.43,5.43,0,0,1-1.15,3.45Z"/><path class="cls-4" d="M47.6,147.26a3.07,3.07,0,0,1,1.2,3.41,6.93,6.93,0,0,0,1.28-.77,5.14,5.14,0,0,1-1.17-3.41s-1.11.64-1.31.77Z"/><path class="cls-7" d="M49.79,151.52a11.31,11.31,0,0,0,.5-1.44s1,.9,1.76-.66a3.5,3.5,0,0,1-.52,1.45s.12-.4-1.74.65Z"/><path class="cls-4" d="M43.34,145.42s0,1.21.06,1.69a3.82,3.82,0,0,1,3.86-.09s0-1.07,0-1.61a4.42,4.42,0,0,1-3.87,0Z"/><path class="cls-2" d="M47.54,145.24a10.46,10.46,0,0,1,1.39.88s-.19-2,1-2.74a11.65,11.65,0,0,0-1.32-.86,2.16,2.16,0,0,1-1.08,2.72Z"/><path class="cls-2" d="M40.44,143.57a11.7,11.7,0,0,1,1.34-.94s-.62,1.47,1.24,2.63a13.17,13.17,0,0,0-1.3.92s-.12-2.25-1.28-2.61Z"/><path class="cls-3" d="M41,142.13a5.87,5.87,0,0,1,.86.21,3.43,3.43,0,0,1,2.95-1.68,2.71,2.71,0,0,0-.77-.2,15.37,15.37,0,0,0-3,1.67Z"/><path class="cls-4" d="M45.34,140.68a3.66,3.66,0,0,1,3.13,1.55s.55-.17.79-.21A15.35,15.35,0,0,0,46,140.41a2.34,2.34,0,0,0-.7.27Z"/><path class="cls-4" d="M45,154.63c0-.24-.44-.59-.44-.59a8.91,8.91,0,0,0,1.63,0,1.79,1.79,0,0,0-.52.63,5,5,0,0,1-.67,0Z"/><path class="cls-4" d="M40.73,142.34a8,8,0,0,0-.48,1.13s-.94-.15-1.69,1.3a6.83,6.83,0,0,1,.51-1,9.07,9.07,0,0,1,1.66-1.42Z"/><path class="cls-3" d="M50.12,143.32a7.08,7.08,0,0,0-.53-1.07,11.13,11.13,0,0,1,1.54,1.28,6.65,6.65,0,0,1,.62,1.14l0,.08c-.63-1.55-1.66-1.43-1.66-1.43Z"/><path class="cls-3" d="M46.34,153.87s1.37-1,3.14-2.12l.06,0-.86-.78s-.08.19-.18.38a3.52,3.52,0,0,1-2.89,1.82h-.12l.85.72Z"/><path class="cls-2" d="M39.39,156.41c1.74,2,4.06,3.45,6.75,2.88a8.31,8.31,0,0,0,5.42-5.36c.21-.61,1.65-.45,1.8-1.3.11-.7-.94-1.47-1.24-1.48-.19-.77-.2-1.78-1.07-2.08-.34-.11-.75-.15-.88.22-.36.89-.62,1.66-1.1,2.73a7.78,7.78,0,0,1-.83,1.43c.1-1,.64-2.67-.56-3.26-.25-.13-.93-.14-1.09.22-.59,1.32-.76,2.23-1.3,3.43-.83,1.82-.15-.63-.36-1-.1-.62-.24-1.5-1-1.74-.51-.16-.69.05-.83.32-.37.86-.45,1.55-.9,2.53a2.08,2.08,0,0,0-1.31-.17,8.6,8.6,0,0,1-3.12-5.68c0-.66-.09-1.25-.12-1.88-.76,1-.55,2.19-.74,3.38a11.33,11.33,0,0,0,2.45,6.77Z"/><path class="cls-4" d="M42.45,157.72a5.24,5.24,0,0,0,5.29,0,8.44,8.44,0,0,0,3.69-7.2c0-.37-.11-.93-.46-1.09a.41.41,0,0,0-.58.33,12.26,12.26,0,0,1-2.46,5c-.35.41-.5.85-.8,1.17a24.51,24.51,0,0,1,.61-2.66c.19-1.11.53-2.25-.35-2.68-.33-.11-.56.1-.69.52-.5,1.72-.88,3.77-2.6,4.8-.18.09-.29,0-.23-.09.55-1.29,1-3.7.18-4.33-.18-.12-.39-.13-.49.12-.39,1.22-.64,2.88-2.12,3.3,0-.22.28-.34.3-.47a1.56,1.56,0,0,0-1.5.32c-.18.23-.11-.21,0-.32a2.91,2.91,0,0,1,.65-.66,7.53,7.53,0,0,1-3.28-6.66,10.42,10.42,0,0,0,.82,6.62,11.34,11.34,0,0,0,4,3.95Z"/><path class="cls-4" d="M51.83,153c.25-.09,1.58-.14,1-1a1.64,1.64,0,0,0-.71-.62,11.33,11.33,0,0,1-.26,1.61Z"/><path class="cls-1" d="M8,21a4.68,4.68,0,0,0-4.67,4.67c0,4.11,4.27,9,4.45,9.23A.32.32,0,0,0,8,35a.35.35,0,0,0,.22-.1c.18-.21,4.45-5.2,4.45-9.23A4.68,4.68,0,0,0,8,21Zm0,3.21A1.75,1.75,0,1,1,6.25,26,1.75,1.75,0,0,1,8,24.21Z"/><path class="cls-8" d="M35,31.92c0-.86,7.83-1.78,9-9.5v11C41.06,34,35,32.74,35,31.92Z"/><path class="cls-9" d="M29,31.92c0-.86-7.83-1.78-9-9.5v11C22.94,34,29,32.74,29,31.92Z"/><rect class="cls-10" width="24" height="10"/><path class="cls-11" d="M2,2H3.43V6.51H5.92V8H2Z"/><path class="cls-11" d="M7.66,2H9.09V8H7.66Z"/><path class="cls-11" d="M10.72,2h1.6l1.17,3.77L14.66,2h1.56L14.14,8H12.81Z"/><path class="cls-11" d="M17.82,2H22V3.4H19.24v.91h2.47v1.3H19.24v.94H22V8H17.82Z"/><rect class="cls-12" x="30" width="32" height="10"/><path class="cls-11" d="M32,2h1.51l2.4,3.17V2h1.6V8H36.09L33.6,4.71V8H32Z"/><path class="cls-11" d="M40.21,2H44.9V3.41H41.81v.91h2.8V5.63h-2.8v1H45V8H40.21Z"/><path class="cls-11" d="M49,5,47.1,2H49l1,1.69L51,2h1.82L50.93,4.93l2,3.07H51.07L50,6.19,48.83,8H47Z"/><path class="cls-11" d="M56.63,3.46H54.88V2H60V3.46H58.25V8H56.63Z"/><path class="cls-1" d="M58,21a7,7,0,1,0,7,7A7,7,0,0,0,58,21Zm0,.7a6.24,6.24,0,0,1,1.06.1v1.44a4.74,4.74,0,0,0-2.12,0V21.8A6.24,6.24,0,0,1,58,21.7Zm0,2.17A4.13,4.13,0,1,1,53.87,28,4.13,4.13,0,0,1,58,23.87Zm-4.83.1,1.24.73a5,5,0,0,0-1.07,1.85l-1.25-.72A6.29,6.29,0,0,1,53.17,24Zm9.66,0a6.29,6.29,0,0,1,1.08,1.86l-1.25.72a5,5,0,0,0-1.07-1.85Zm-9.49,5.48a5,5,0,0,0,1.07,1.85L53.17,32a6.29,6.29,0,0,1-1.08-1.86Zm9.32,0,1.25.72A6.29,6.29,0,0,1,62.83,32l-1.24-.73A5,5,0,0,0,62.66,29.45Zm-5.72,3.31a4.74,4.74,0,0,0,2.12,0V34.2a5.67,5.67,0,0,1-2.12,0Z"/><g id="m6"><g id="M"><polygon class="cls-13" points="26.87 65.84 27.35 62.01 27.03 61.67 26.51 65.84 26.87 65.84"/><polygon class="cls-14" points="35.13 65.84 34.66 62.02 34.97 61.69 35.49 65.84 35.13 65.84"/><polygon class="cls-15" points="24.24 52.18 22.03 65.84 26.52 65.84 27.03 61.67 31 65.84 34.98 61.67 35.49 65.84 39.97 65.84 37.77 52.18 31 59.19 24.24 52.18"/><polygon class="cls-16" points="39.94 65.84 40 65.84 37.79 52.12 37.75 52.24 39.94 65.84"/><polygon class="cls-17" points="35.46 65.84 35.52 65.84 35 61.61 34.95 61.74 35.46 65.84"/><polygon class="cls-18" points="31 65.8 31 65.88 34.95 61.74 35 61.61 31 65.8"/><polygon class="cls-19" points="27.05 61.74 31 65.88 31 65.8 27.01 61.61 27.05 61.74"/><polygon class="cls-20" points="26.49 65.84 26.55 65.84 27.05 61.74 27.01 61.61 26.49 65.84"/><path class="cls-21" d="M24.26,52.24l0-.12L22,65.84h.06Z"/><polygon class="cls-22" points="28.68 56.82 28.72 56.78 24.22 52.12 24.26 52.24 28.68 56.82"/><polygon class="cls-23" points="31 59.23 31 59.15 28.72 56.78 28.68 56.82 31 59.23"/><polygon class="cls-24" points="33.16 57 33.12 56.96 31 59.15 31 59.23 33.16 57"/><polygon class="cls-25" points="33.12 56.96 33.16 57 37.75 52.24 37.79 52.12 33.12 56.96"/></g><g id="SIX"><path class="cls-26" d="M29.74,57.85l.32.33a1.44,1.44,0,0,1,1.88,0l.32-.33A1.86,1.86,0,0,0,29.74,57.85Z"/><path class="cls-27" d="M32.91,52.27V53s-.66,1-1.26,2.09h0c-.24,0-.51,0-.5,0C31.46,54.48,32.5,52.8,32.91,52.27Z"/><path class="cls-28" d="M31.1,55.06c.62-1.05,1.27-2.1,1.75-2.77H30a19.81,19.81,0,0,0-3.06,5.85,4.21,4.21,0,1,0,4.16-3.08Zm-.1,6a1.86,1.86,0,1,1,1.87-1.85A1.86,1.86,0,0,1,31,61.06Z"/><path class="cls-29" d="M29.1,59.21A1.9,1.9,0,1,0,31,57.32,1.9,1.9,0,0,0,29.1,59.21Zm.06,0A1.84,1.84,0,1,1,31,61,1.84,1.84,0,0,1,29.16,59.21Z"/><path class="cls-30" d="M30,52.27a20.05,20.05,0,0,0-3.07,5.86,4.32,4.32,0,0,0-.14,1.08A4.23,4.23,0,1,0,31.16,55H31.1l0,.05h.05a4.12,4.12,0,1,1-4.27,4.12A3.88,3.88,0,0,1,27,58.14a19.34,19.34,0,0,1,3-5.82h0Z"/><polygon class="cls-31" points="32.8 52.32 32.91 52.27 29.99 52.27 30.02 52.32 32.8 52.32"/><path class="cls-32" d="M32.8,52.32c-.44.63-1.07,1.62-1.72,2.73l0,0,.1-.05c.65-1.12,1.31-2.16,1.75-2.78Z"/></g></g><path class="cls-33" d="M77.34,62.45c0,.5.33.6.54.53s.29-.43.29-.87V59.59a4.52,4.52,0,0,1,.07-1.18.61.61,0,0,1,.65-.43c.28,0,.43.33.55.57s.26.51.39.77,1.42,2.84,1.57,3a1.33,1.33,0,0,0,2.12.18,2,2,0,0,0,.41-.74A10.25,10.25,0,0,0,84,60.05V57.34a.41.41,0,0,0-.82-.05c0,.15,0,2.44,0,2.7A4.36,4.36,0,0,1,83,61.63a.58.58,0,0,1-1,.06l-.56-1.09c-.43-.88-1-1.88-1.4-2.76-.74-1.54-2.76-1.1-2.75,1,0,1.2,0,2.41,0,3.6Zm-1,.52a.32.32,0,0,0,.27,0A.49.49,0,0,0,77,62.5V57.77a1.09,1.09,0,0,0-.1-.67.37.37,0,0,0-.47-.15c-.38.15-.28.71-.28,1.25v3.93c0,.36,0,.7.29.84Zm-5-3.09V60c0,2,2,3.25,3.29,2a2.09,2.09,0,0,0,.41-.52c.05-.09.11-.24.2-.27s.23.07.23.21-.25.52-.31.61a2.29,2.29,0,0,1-1.77,1A2.76,2.76,0,0,1,71,60c0-1.68,1-3.06,2.45-3.06s2.38,1.36,2.38,3c0,.16,0,.29-.18.29H73.1a.23.23,0,0,1,.05-.45h2.33a2.49,2.49,0,0,0-.21-.93,2,2,0,0,0-1.86-1.4,2.36,2.36,0,0,0-2,2.49Zm-3,2.64A2.33,2.33,0,0,1,66.36,60c0-1.37.89-2.59,2-2.59h.15c1.06,0,2,1.17,2,2.61a2.36,2.36,0,0,1-2,2.53ZM66,60.18a3.58,3.58,0,0,0,.25,1.18A2.39,2.39,0,0,0,68.5,63a2.85,2.85,0,0,0,2.32-3.05c0-1.62-1.07-3-2.36-3a2,2,0,0,0-1.32.43,3.45,3.45,0,0,0-.63.69l-.16.26c0-.28,0-.7,0-1v-2c0-.49-.35-.36-.35-.08Z"/><g id="m6-2" data-name="m6"><g id="M-2" data-name="M"><polygon class="cls-34" points="36.49 101.12 37.13 96.01 36.71 95.56 36.02 101.12 36.49 101.12"/><polygon class="cls-35" points="47.51 101.12 46.88 96.02 47.29 95.59 47.98 101.12 47.51 101.12"/><polygon class="cls-36" points="32.98 82.91 30.04 101.12 36.02 101.12 36.71 95.56 42 101.12 47.3 95.56 47.98 101.12 53.96 101.12 51.02 82.91 42 92.25 32.98 82.91"/><polygon class="cls-37" points="53.92 101.12 54 101.12 51.05 82.82 51 82.99 53.92 101.12"/><polygon class="cls-38" points="47.94 101.12 48.02 101.12 47.33 95.48 47.27 95.65 47.94 101.12"/><polygon class="cls-39" points="42 101.07 42 101.18 47.27 95.65 47.33 95.48 42 101.07"/><polygon class="cls-40" points="36.73 95.65 42 101.18 42 101.06 36.68 95.48 36.73 95.65"/><polygon class="cls-41" points="35.98 101.12 36.06 101.12 36.73 95.65 36.68 95.48 35.98 101.12"/><path class="cls-42" d="M33,83l0-.17-3,18.3h.08Z"/><polygon class="cls-43" points="38.9 89.1 38.96 89.04 32.96 82.82 33.01 82.99 38.9 89.1"/><polygon class="cls-44" points="42 92.31 42 92.2 38.96 89.04 38.9 89.1 42 92.31"/><polygon class="cls-45" points="44.87 89.33 44.82 89.28 42 92.2 42 92.31 44.87 89.33"/><polygon class="cls-46" points="44.82 89.28 44.87 89.33 51 82.99 51.05 82.82 44.82 89.28"/></g><g id="SIX-2" data-name="SIX"><path class="cls-47" d="M40.32,90.47l.42.43a2,2,0,0,1,2.52,0l.42-.43A2.47,2.47,0,0,0,40.32,90.47Z"/><path class="cls-48" d="M44.55,83v1s-.88,1.33-1.68,2.78h0l-.68,0C42.62,86,44,83.73,44.55,83Z"/><path class="cls-49" d="M42.14,86.75c.82-1.4,1.69-2.8,2.33-3.69h-3.8a26.11,26.11,0,0,0-4.08,7.79,5.61,5.61,0,1,0,5.55-4.1Zm-.14,8a2.48,2.48,0,1,1,2.5-2.48A2.49,2.49,0,0,1,42,94.75Z"/><path class="cls-50" d="M39.47,92.27A2.54,2.54,0,1,0,42,89.76,2.52,2.52,0,0,0,39.47,92.27Zm.08,0A2.46,2.46,0,1,1,42,94.71,2.44,2.44,0,0,1,39.55,92.27Z"/><path class="cls-51" d="M40.66,83c-1.63,2.27-3.56,5.52-4.1,7.82a5.79,5.79,0,0,0-.19,1.43,5.65,5.65,0,1,0,5.84-5.55h-.07l-.06.07h.07a5.49,5.49,0,1,1-5.7,5.48,5.21,5.21,0,0,1,.19-1.41A25.52,25.52,0,0,1,40.7,83.1h0Z"/><polygon class="cls-52" points="44.4 83.1 44.55 83.02 40.66 83.02 40.7 83.1 44.4 83.1"/><path class="cls-53" d="M44.4,83.1c-.59.83-1.42,2.15-2.29,3.63l0,.06.13-.07c.88-1.49,1.75-2.88,2.34-3.7Z"/></g></g><path class="cls-54" d="M105.11,96.32c0,.62.44.75.73.65s.39-.53.39-1.09V92.73a5.33,5.33,0,0,1,.08-1.46.85.85,0,0,1,.88-.55c.38,0,.57.41.73.71s.35.65.52,1,1.9,3.54,2.09,3.82a1.86,1.86,0,0,0,2.83.22,2.41,2.41,0,0,0,.54-.93,12.31,12.31,0,0,0,.09-2.2V89.92a.56.56,0,0,0-1.1-.06c0,.18,0,3.06,0,3.38a5.06,5.06,0,0,1-.16,2.05.8.8,0,0,1-1.32.07L110.65,94c-.57-1.1-1.31-2.35-1.87-3.45-1-1.93-3.67-1.38-3.67,1.27,0,1.49,0,3,0,4.5Zm-1.26.64a.47.47,0,0,0,.37,0,.57.57,0,0,0,.37-.58V90.46c0-.34,0-.62-.12-.83a.52.52,0,0,0-.64-.19c-.49.18-.36.89-.36,1.57v4.91c0,.45-.06.87.38,1ZM97.2,93.11v.17c0,2.55,2.66,4.06,4.39,2.46a2.79,2.79,0,0,0,.54-.65c.08-.12.16-.3.27-.34s.31.08.31.26-.34.66-.42.77A3.16,3.16,0,0,1,99.93,97a3.52,3.52,0,0,1-3.21-3.74c0-2.11,1.37-3.83,3.27-3.83a3.53,3.53,0,0,1,3.16,3.7c0,.2,0,.36-.22.36H99.47a.29.29,0,0,1,.06-.57h3.11a2.87,2.87,0,0,0-.28-1.16A2.68,2.68,0,0,0,99.87,90a3,3,0,0,0-2.67,3.12Zm-4,3.29a3,3,0,0,1-2.78-3.19c0-1.71,1.2-3.24,2.64-3.24h.2c1.41,0,2.62,1.47,2.62,3.27a3,3,0,0,1-2.68,3.16ZM90,93.48A4.23,4.23,0,0,0,90.33,95a3.16,3.16,0,0,0,3,2,3.6,3.6,0,0,0,3.08-3.81c0-2-1.42-3.74-3.14-3.74a2.79,2.79,0,0,0-1.77.55,3.89,3.89,0,0,0-.82.85c-.08.12-.14.22-.22.33,0-.35,0-.87,0-1.24V87.41c0-.61-.47-.45-.47-.1Z"/><path id="path7116" d="M84,88.86l-.46.06c-1.2.13-2.41.28-3.62.45s-2.42.33-3.63.53-2.42.41-3.64.65l-1.82.39c-.61.13-1.22.27-1.82.42l-1.83.47c-.61.16-1.22.34-1.83.52s-1.22.37-1.83.57l-1.83.64c-.56.2-1.13.42-1.69.64v2H84V88.86Z"/><path id="rect7109" class="cls-55" d="M60,87.76v6.47c.56-.22,1.13-.44,1.69-.64s1.22-.43,1.83-.63,1.22-.4,1.83-.58l1.83-.52L69,91.39c.6-.15,1.21-.29,1.82-.42l1.82-.38c1.22-.24,2.43-.46,3.64-.66s2.42-.37,3.63-.53L83.54,89l.46,0V87.76Z"/><path id="path7097" class="cls-11" d="M78.76,94.93a3,3,0,0,1-1.91-1.68,2,2,0,0,1-.25-1.16,2.61,2.61,0,0,1,.55-1.79,3.17,3.17,0,0,1,3.94-1c1,.45,1.36,1.12,1,1.62s-.7.36-1.31-.11a1.67,1.67,0,0,0-2.46.52,1.61,1.61,0,0,0,2.5,1.93l.29-.24.31.21c.16.11.43.31.59.44l.28.23-.32.33a3.25,3.25,0,0,1-3.16.73Z"/><path id="rect7083" class="cls-11" d="M62.58,88.92a.77.77,0,1,0,0,1.54h1.56v4.68h1.61V90.46h1.7a.77.77,0,1,0,0-1.54H62.58Z"/><path id="rect7087" class="cls-11" d="M69.44,89a.74.74,0,0,0-.45.15l-.1.09a.64.64,0,0,0-.24.67v5.26h1.6V91.83l1.42,1.61a.82.82,0,0,0,1.18,0l1.42-1.61v3.31h1.6V89.88a.65.65,0,0,0-.23-.67l-.11-.09a.73.73,0,0,0-1,.09l-2.27,2.58L70,89.21A.72.72,0,0,0,69.44,89Z"/><path id="path7116-2" data-name="path7116" d="M62,56.65l-.34,0c-.91.1-1.81.21-2.72.33s-1.81.26-2.72.41-1.82.31-2.73.49l-1.37.28-1.37.32-1.36.35L48,59.26l-1.37.43c-.46.15-.92.31-1.37.48s-.85.31-1.27.48v1.53H62V56.65Z"/><path id="rect7109-2" data-name="rect7109" class="cls-56" d="M44,55.82v4.85l1.27-.48,1.37-.47c.46-.15.92-.3,1.37-.43l1.38-.39c.45-.13.91-.24,1.36-.36l1.37-.31,1.37-.29c.91-.18,1.82-.34,2.73-.49s1.81-.28,2.72-.4l2.72-.34.34,0v-.85Z"/><path id="path7097-2" data-name="path7097" class="cls-11" d="M58.07,61.19a2.23,2.23,0,0,1-1.43-1.26,1.52,1.52,0,0,1-.19-.86,2,2,0,0,1,.41-1.35,2.38,2.38,0,0,1,3-.77c.73.34,1,.84.72,1.22s-.52.27-1-.09a1.25,1.25,0,0,0-1.84.4,1.19,1.19,0,0,0,.47,1.57,1.21,1.21,0,0,0,1.4-.13l.22-.18.22.16a4.71,4.71,0,0,1,.45.33l.21.17-.24.25a2.86,2.86,0,0,1-.64.43,2.46,2.46,0,0,1-1.73.11Z"/><path id="rect7083-2" data-name="rect7083" class="cls-11" d="M45.93,56.69a.58.58,0,0,0-.59.58.57.57,0,0,0,.59.57h1.18v3.51h1.2V57.84h1.28a.57.57,0,0,0,.59-.57.58.58,0,0,0-.59-.58H45.93Z"/><path id="rect7087-2" data-name="rect7087" class="cls-11" d="M51.08,56.72a.54.54,0,0,0-.34.12l-.08.06a.49.49,0,0,0-.17.51v3.94h1.2V58.87l1.06,1.21a.55.55,0,0,0,.45.18.54.54,0,0,0,.44-.18l1.06-1.21v2.48h1.21V57.41a.51.51,0,0,0-.18-.51l-.08-.06a.56.56,0,0,0-.76.07L53.2,58.84l-1.7-1.93A.57.57,0,0,0,51.08,56.72Z"/><g id="_ffffffff" data-name="#ffffffff"><path class="cls-11" d="M1.41,56.81H5.52c0,.51,0,1,0,1.53H4.42c0,1,0,1.92,0,2.88h-2c0-1,0-1.92,0-2.88h-1C1.4,57.83,1.41,57.32,1.41,56.81Z"/><path class="cls-11" d="M8,61.23c0-1.48,0-2.95,0-4.43h3.78v1.1H10v.77h1.3v1.19H10v1.36H8Z"/><path class="cls-11" d="M14.08,57.33l2.13-.53v4.43H14.08Z"/></g><g id="_001a65ff" data-name="#001a65ff"><path class="cls-57" d="M0,55.82H9c0,.33,0,.66,0,1H8c0,1.48,0,3,0,4.43H9v1H0V55.82m1.41,1c0,.51,0,1,0,1.52h1c0,1,0,1.92,0,2.88h2c0-1,0-1.92,0-2.88h1.1c0-.51,0-1,0-1.53Z"/></g><g id="_d4000cff" data-name="#d4000cff"><path class="cls-58" d="M9,55.82h9c0,.34,0,.68,0,1v5.34H9v-1h1V59.87h1.3V58.68H10v-.77h1.78v-1.1H9c0-.33,0-.66,0-1m5.07,1.51v3.9h2.13V56.8Z"/></g><g id="_ffffffff-2" data-name="#ffffffff"><path class="cls-11" d="M1.87,89.07c1.83,0,3.67,0,5.5,0,0,.68,0,1.36,0,2-.48,0-1,0-1.46,0V95H3.27V91.12H1.88C1.87,90.43,1.88,89.75,1.87,89.07Z"/><path class="cls-11" d="M10.66,95c0-2,0-3.93,0-5.9h5.05v1.46H13.33v1h1.73c0,.53,0,1.06,0,1.58H13.33V95H10.66Z"/><path class="cls-11" d="M18.77,89.77l2.84-.7V95H18.77Z"/></g><g id="_001a65ff-2" data-name="#001a65ff"><path class="cls-57" d="M0,87.76H12c0,.44,0,.88,0,1.32H10.66c0,2,0,3.93,0,5.9H12v1.27H0V87.76m1.87,1.31c0,.68,0,1.36,0,2H3.27V95H5.9V91.12c.49,0,1,0,1.46,0,0-.68,0-1.36,0-2C5.54,89.08,3.7,89.08,1.87,89.07Z"/></g><g id="_d4000cff-2" data-name="#d4000cff"><path class="cls-58" d="M12,87.76H24c0,.46,0,.91,0,1.36v7.12H12V95h1.32V93.16h1.74c0-.52,0-1,0-1.58H13.33v-1h2.38V89.08H12c0-.44,0-.88,0-1.32m6.76,2V95h2.84v-5.9Z"/></g></svg>