<svg id="Boutons" xmlns="http://www.w3.org/2000/svg" viewBox="0 0 360 282"><defs><style>.cls-1,.cls-4{fill:#3e3d40;}.cls-2,.cls-7{fill:#818182;}.cls-3,.cls-8{fill:#2d7ebc;}.cls-4,.cls-5,.cls-6,.cls-7,.cls-8{fill-rule:evenodd;}.cls-5{fill:#da4843;}.cls-6{fill:#2d7fbc;}</style></defs><title>uiux_btns</title><path class="cls-1" d="M43.51,180.22h1.33v6.35h4v1.21H43.51Z"/><path class="cls-1" d="M51.59,184v0a4,4,0,0,1,7.91,0v0a4,4,0,0,1-7.91,0Zm6.52,0v0a2.59,2.59,0,0,0-2.57-2.69A2.55,2.55,0,0,0,53,184v0a2.59,2.59,0,0,0,2.57,2.69A2.56,2.56,0,0,0,58.11,184Z"/><path class="cls-1" d="M64.72,181.45h-2.4v-1.23h6.13v1.23H66.06v6.33H64.72Z"/><path class="cls-1" d="M71.27,184v0a3.88,3.88,0,0,1,4-3.91A3.84,3.84,0,0,1,79.18,184v0a4,4,0,0,1-7.91,0Zm6.52,0v0a2.59,2.59,0,0,0-2.57-2.69A2.55,2.55,0,0,0,72.67,184v0a2.59,2.59,0,0,0,2.57,2.69A2.56,2.56,0,0,0,77.79,184Z"/><path class="cls-1" d="M83,180.22h5.63v1.21h-4.3v2.06h3.81v1.21H84.28v3.08H83Z"/><path class="cls-1" d="M91.8,184v0a4,4,0,0,1,7.9,0v0a4,4,0,0,1-7.9,0Zm6.51,0v0a2.59,2.59,0,0,0-2.57-2.69A2.56,2.56,0,0,0,93.19,184v0a2.59,2.59,0,0,0,2.57,2.69A2.56,2.56,0,0,0,98.31,184Z"/><path class="cls-1" d="M103.14,184v0a4,4,0,0,1,7.91,0v0a3.88,3.88,0,0,1-4,3.91A3.84,3.84,0,0,1,103.14,184Zm6.51,0v0a2.59,2.59,0,0,0-2.57-2.69,2.56,2.56,0,0,0-2.55,2.67v0a2.59,2.59,0,0,0,2.57,2.69A2.56,2.56,0,0,0,109.65,184Z"/><path class="cls-1" d="M116.26,181.45h-2.4v-1.23H120v1.23h-2.4v6.33h-1.34Z"/><path class="cls-2" d="M43.51,220.22h1.33v6.35h4v1.21H43.51Z"/><path class="cls-2" d="M51.59,224v0a4,4,0,0,1,7.91,0v0a4,4,0,0,1-7.91,0Zm6.52,0v0a2.59,2.59,0,0,0-2.57-2.69A2.55,2.55,0,0,0,53,224v0a2.59,2.59,0,0,0,2.57,2.69A2.56,2.56,0,0,0,58.11,224Z"/><path class="cls-2" d="M64.72,221.45h-2.4v-1.23h6.13v1.23H66.06v6.33H64.72Z"/><path class="cls-2" d="M71.27,224v0a3.88,3.88,0,0,1,4-3.91A3.84,3.84,0,0,1,79.18,224v0a4,4,0,0,1-7.91,0Zm6.52,0v0a2.59,2.59,0,0,0-2.57-2.69A2.55,2.55,0,0,0,72.67,224v0a2.59,2.59,0,0,0,2.57,2.69A2.56,2.56,0,0,0,77.79,224Z"/><path class="cls-2" d="M83,220.22h5.63v1.21h-4.3v2.06h3.81v1.21H84.28v3.08H83Z"/><path class="cls-2" d="M91.8,224v0a4,4,0,0,1,7.9,0v0a4,4,0,0,1-7.9,0Zm6.51,0v0a2.59,2.59,0,0,0-2.57-2.69A2.56,2.56,0,0,0,93.19,224v0a2.59,2.59,0,0,0,2.57,2.69A2.56,2.56,0,0,0,98.31,224Z"/><path class="cls-2" d="M103.14,224v0a4,4,0,0,1,7.91,0v0a3.88,3.88,0,0,1-4,3.91A3.84,3.84,0,0,1,103.14,224Zm6.51,0v0a2.59,2.59,0,0,0-2.57-2.69,2.56,2.56,0,0,0-2.55,2.67v0a2.59,2.59,0,0,0,2.57,2.69A2.56,2.56,0,0,0,109.65,224Z"/><path class="cls-2" d="M116.26,221.45h-2.4v-1.23H120v1.23h-2.4v6.33h-1.34Z"/><path class="cls-3" d="M43.51,260.22h1.33v6.35h4v1.21H43.51Z"/><path class="cls-3" d="M51.59,264v0a4,4,0,0,1,7.91,0v0a4,4,0,0,1-7.91,0Zm6.52,0v0a2.59,2.59,0,0,0-2.57-2.69A2.55,2.55,0,0,0,53,264v0a2.59,2.59,0,0,0,2.57,2.69A2.56,2.56,0,0,0,58.11,264Z"/><path class="cls-3" d="M64.72,261.45h-2.4v-1.23h6.13v1.23H66.06v6.33H64.72Z"/><path class="cls-3" d="M71.27,264v0a3.88,3.88,0,0,1,4-3.91A3.84,3.84,0,0,1,79.18,264v0a4,4,0,0,1-7.91,0Zm6.52,0v0a2.59,2.59,0,0,0-2.57-2.69A2.55,2.55,0,0,0,72.67,264v0a2.59,2.59,0,0,0,2.57,2.69A2.56,2.56,0,0,0,77.79,264Z"/><path class="cls-3" d="M83,260.22h5.63v1.21h-4.3v2.06h3.81v1.21H84.28v3.08H83Z"/><path class="cls-3" d="M91.8,264v0a4,4,0,0,1,7.9,0v0a4,4,0,0,1-7.9,0Zm6.51,0v0a2.59,2.59,0,0,0-2.57-2.69A2.56,2.56,0,0,0,93.19,264v0a2.59,2.59,0,0,0,2.57,2.69A2.56,2.56,0,0,0,98.31,264Z"/><path class="cls-3" d="M103.14,264v0a4,4,0,0,1,7.91,0v0a3.88,3.88,0,0,1-4,3.91A3.84,3.84,0,0,1,103.14,264Zm6.51,0v0a2.59,2.59,0,0,0-2.57-2.69,2.56,2.56,0,0,0-2.55,2.67v0a2.59,2.59,0,0,0,2.57,2.69A2.56,2.56,0,0,0,109.65,264Z"/><path class="cls-3" d="M116.26,261.45h-2.4v-1.23H120v1.23h-2.4v6.33h-1.34Z"/><path class="cls-4" d="M29.8,171.75a17,17,0,1,0,.44,24A17,17,0,0,0,29.8,171.75Zm-.21,23.39a16,16,0,0,1-11.14,4.92c-.05-.54,1-1.34,1-1.34a23,23,0,0,1-3.69-.1A3.86,3.86,0,0,1,17,200,16.05,16.05,0,0,1,3.23,177.67l-.06.17c1.41-3.48,3.72-3.2,3.72-3.2a17.07,17.07,0,0,1,1.19-2.42,25.9,25.9,0,0,0-3.46,2.88,16.76,16.76,0,0,1,1.81-2.26,16.09,16.09,0,0,1,25.31,2.78A20.65,20.65,0,0,0,28,172.43,16.79,16.79,0,0,1,29.08,175s2.12-.35,3.81,2.91A16.09,16.09,0,0,1,29.59,195.14Z"/><path class="cls-4" d="M33.46,188.68A15.41,15.41,0,0,1,32,192.05s-.61-.47-4.36,1.38a27.84,27.84,0,0,0,1.14-3.28s2.63,2.24,4.67-1.47Z"/><path class="cls-4" d="M27,193.76a52.89,52.89,0,0,0-7.18,4.6,10.44,10.44,0,0,1-1.88-1.6s5.38-.1,7.11-4.76A16.31,16.31,0,0,0,27,193.76Z"/><path class="cls-5" d="M28.38,189.76s-1.39.68-3.12,1.61a7,7,0,0,0-2.58-7.77s2.75-1.52,3.12-1.61c0,0-.21,4.61,2.58,7.77Z"/><path class="cls-6" d="M12.55,183.48a6.94,6.94,0,0,0-2.7,7.67A16.67,16.67,0,0,1,7,189.42s2.4-2.27,2.64-7.66c0,0,2.5,1.43,2.94,1.72Z"/><path class="cls-4" d="M7.65,193.06a24.16,24.16,0,0,1-1.14-3.24s-2.18,2-4-1.47a7.87,7.87,0,0,0,1.17,3.25s-.27-.9,3.93,1.46Z"/><path class="cls-6" d="M22.13,179.35s-.11,2.72-.13,3.79a8.64,8.64,0,0,0-8.68-.19s0-2.42.13-3.63a9.85,9.85,0,0,0,8.68,0Z"/><path class="cls-4" d="M12.69,179a23.3,23.3,0,0,0-3.12,2s.43-4.44-2.26-6.16a24.31,24.31,0,0,1,3-1.92s-1.65,3.51,2.42,6.11Z"/><path class="cls-4" d="M28.65,175.18a25.44,25.44,0,0,0-3-2.1s1.39,3.3-2.78,5.9a34.55,34.55,0,0,1,2.92,2.08s.26-5.07,2.87-5.88Z"/><path class="cls-5" d="M27.35,172a13.26,13.26,0,0,0-1.94.48s-1.38-3.24-6.63-3.78a6.09,6.09,0,0,1,1.75-.46A34.33,34.33,0,0,1,27.35,172Z"/><path class="cls-6" d="M17.63,168.69a8.24,8.24,0,0,0-7,3.49,17.36,17.36,0,0,0-1.77-.47s4.82-3.09,7.24-3.61a5.32,5.32,0,0,1,1.56.59Z"/><path class="cls-6" d="M18.45,200.06c-.05-.54,1-1.34,1-1.34a23,23,0,0,1-3.69-.1A3.86,3.86,0,0,1,17,200a12.52,12.52,0,0,0,1.5,0Z"/><path class="cls-6" d="M28,172.43A16.79,16.79,0,0,1,29.08,175s2.12-.35,3.81,2.91a15.6,15.6,0,0,0-1.15-2.27A20.65,20.65,0,0,0,28,172.43Z"/><path class="cls-5" d="M6.89,174.64a17.07,17.07,0,0,1,1.19-2.42,25.9,25.9,0,0,0-3.46,2.88,15.6,15.6,0,0,0-1.39,2.57l-.06.17c1.41-3.48,3.72-3.2,3.72-3.2Z"/><path class="cls-5" d="M15.39,198.33s-3.07-2.26-7.07-4.75l-.12-.07,1.94-1.75a7.52,7.52,0,0,0,.41.85,7.88,7.88,0,0,0,6.49,4.1l.26,0-1.91,1.6Z"/><path class="cls-7" d="M29.8,211.75a17,17,0,1,0,.44,24A17,17,0,0,0,29.8,211.75Zm-.21,23.39a16,16,0,0,1-11.14,4.92c-.05-.54,1-1.34,1-1.34a23,23,0,0,1-3.69-.1A3.86,3.86,0,0,1,17,240,16.05,16.05,0,0,1,3.23,217.67l-.06.17c1.41-3.48,3.72-3.2,3.72-3.2a17.07,17.07,0,0,1,1.19-2.42,25.9,25.9,0,0,0-3.46,2.88,16.76,16.76,0,0,1,1.81-2.26,16.09,16.09,0,0,1,25.31,2.78A20.65,20.65,0,0,0,28,212.43,16.79,16.79,0,0,1,29.08,215s2.12-.35,3.81,2.91A16.09,16.09,0,0,1,29.59,235.14Z"/><path class="cls-7" d="M33.46,228.68A15.41,15.41,0,0,1,32,232.05s-.61-.47-4.36,1.38a27.84,27.84,0,0,0,1.14-3.28s2.63,2.24,4.67-1.47Z"/><path class="cls-7" d="M27,233.76a52.89,52.89,0,0,0-7.18,4.6,10.44,10.44,0,0,1-1.88-1.6s5.38-.1,7.11-4.76A16.31,16.31,0,0,0,27,233.76Z"/><path class="cls-7" d="M28.38,229.76s-1.39.68-3.12,1.61a7,7,0,0,0-2.58-7.77s2.75-1.52,3.12-1.61c0,0-.21,4.61,2.58,7.77Z"/><path class="cls-7" d="M12.55,223.48a6.94,6.94,0,0,0-2.7,7.67A16.67,16.67,0,0,1,7,229.42s2.4-2.27,2.64-7.66c0,0,2.5,1.43,2.94,1.72Z"/><path class="cls-7" d="M7.65,233.06a24.16,24.16,0,0,1-1.14-3.24s-2.18,2-4-1.47a7.87,7.87,0,0,0,1.17,3.25s-.27-.9,3.93,1.46Z"/><path class="cls-7" d="M22.13,219.35s-.11,2.72-.13,3.79a8.64,8.64,0,0,0-8.68-.19s0-2.42.13-3.63a9.85,9.85,0,0,0,8.68,0Z"/><path class="cls-7" d="M12.69,219a23.3,23.3,0,0,0-3.12,2s.43-4.44-2.26-6.16a24.31,24.31,0,0,1,3-1.92s-1.65,3.51,2.42,6.11Z"/><path class="cls-7" d="M28.65,215.18a25.44,25.44,0,0,0-3-2.1s1.39,3.3-2.78,5.9a34.55,34.55,0,0,1,2.92,2.08s.26-5.07,2.87-5.88Z"/><path class="cls-7" d="M27.35,212a13.26,13.26,0,0,0-1.94.48s-1.38-3.24-6.63-3.78a6.09,6.09,0,0,1,1.75-.46A34.33,34.33,0,0,1,27.35,212Z"/><path class="cls-7" d="M17.63,208.69a8.24,8.24,0,0,0-7,3.49,17.36,17.36,0,0,0-1.77-.47s4.82-3.09,7.24-3.61a5.32,5.32,0,0,1,1.56.59Z"/><path class="cls-7" d="M18.45,240.06c-.05-.54,1-1.34,1-1.34a23,23,0,0,1-3.69-.1A3.86,3.86,0,0,1,17,240a12.52,12.52,0,0,0,1.5,0Z"/><path class="cls-7" d="M28,212.43A16.79,16.79,0,0,1,29.08,215s2.12-.35,3.81,2.91a15.6,15.6,0,0,0-1.15-2.27A20.65,20.65,0,0,0,28,212.43Z"/><path class="cls-7" d="M6.89,214.64a17.07,17.07,0,0,1,1.19-2.42,25.9,25.9,0,0,0-3.46,2.88,15.6,15.6,0,0,0-1.39,2.57l-.06.17c1.41-3.48,3.72-3.2,3.72-3.2Z"/><path class="cls-7" d="M15.39,238.33s-3.07-2.26-7.07-4.75l-.12-.07,1.94-1.75a7.52,7.52,0,0,0,.41.85,7.88,7.88,0,0,0,6.49,4.1l.26,0-1.91,1.6Z"/><path class="cls-8" d="M29.8,251.75a17,17,0,1,0,.44,24A17,17,0,0,0,29.8,251.75Zm-.21,23.39a16,16,0,0,1-11.14,4.92c-.05-.54,1-1.34,1-1.34a23,23,0,0,1-3.69-.1A3.86,3.86,0,0,1,17,280,16.05,16.05,0,0,1,3.23,257.67l-.06.17c1.41-3.48,3.72-3.2,3.72-3.2a17.07,17.07,0,0,1,1.19-2.42,25.9,25.9,0,0,0-3.46,2.88,16.76,16.76,0,0,1,1.81-2.26,16.09,16.09,0,0,1,25.31,2.78A20.65,20.65,0,0,0,28,252.43,16.79,16.79,0,0,1,29.08,255s2.12-.35,3.81,2.91A16.09,16.09,0,0,1,29.59,275.14Z"/><path class="cls-8" d="M33.46,268.68A15.41,15.41,0,0,1,32,272.05s-.61-.47-4.36,1.38a27.84,27.84,0,0,0,1.14-3.28s2.63,2.24,4.67-1.47Z"/><path class="cls-8" d="M27,273.76a52.89,52.89,0,0,0-7.18,4.6,10.44,10.44,0,0,1-1.88-1.6s5.38-.1,7.11-4.76A16.31,16.31,0,0,0,27,273.76Z"/><path class="cls-8" d="M28.38,269.76s-1.39.68-3.12,1.61a7,7,0,0,0-2.58-7.77s2.75-1.52,3.12-1.61c0,0-.21,4.61,2.58,7.77Z"/><path class="cls-8" d="M12.55,263.48a6.94,6.94,0,0,0-2.7,7.67A16.67,16.67,0,0,1,7,269.42s2.4-2.27,2.64-7.66c0,0,2.5,1.43,2.94,1.72Z"/><path class="cls-8" d="M7.65,273.06a24.16,24.16,0,0,1-1.14-3.24s-2.18,2-4-1.47a7.87,7.87,0,0,0,1.17,3.25s-.27-.9,3.93,1.46Z"/><path class="cls-8" d="M22.13,259.35s-.11,2.72-.13,3.79a8.64,8.64,0,0,0-8.68-.19s0-2.42.13-3.63a9.85,9.85,0,0,0,8.68,0Z"/><path class="cls-8" d="M12.69,259a23.3,23.3,0,0,0-3.12,2s.43-4.44-2.26-6.16a24.31,24.31,0,0,1,3-1.92s-1.65,3.51,2.42,6.11Z"/><path class="cls-8" d="M28.65,255.18a25.44,25.44,0,0,0-3-2.1s1.39,3.3-2.78,5.9a34.55,34.55,0,0,1,2.92,2.08s.26-5.07,2.87-5.88Z"/><path class="cls-8" d="M27.35,252a13.26,13.26,0,0,0-1.94.48s-1.38-3.24-6.63-3.78a6.09,6.09,0,0,1,1.75-.46A34.33,34.33,0,0,1,27.35,252Z"/><path class="cls-8" d="M17.63,248.69a8.24,8.24,0,0,0-7,3.49,17.36,17.36,0,0,0-1.77-.47s4.82-3.09,7.24-3.61a5.32,5.32,0,0,1,1.56.59Z"/><path class="cls-8" d="M18.45,280.06c-.05-.54,1-1.34,1-1.34a23,23,0,0,1-3.69-.1A3.86,3.86,0,0,1,17,280a12.52,12.52,0,0,0,1.5,0Z"/><path class="cls-8" d="M28,252.43A16.79,16.79,0,0,1,29.08,255s2.12-.35,3.81,2.91a15.6,15.6,0,0,0-1.15-2.27A20.65,20.65,0,0,0,28,252.43Z"/><path class="cls-8" d="M6.89,254.64a17.07,17.07,0,0,1,1.19-2.42,25.9,25.9,0,0,0-3.46,2.88,15.6,15.6,0,0,0-1.39,2.57l-.06.17c1.41-3.48,3.72-3.2,3.72-3.2Z"/><path class="cls-8" d="M15.39,278.33s-3.07-2.26-7.07-4.75l-.12-.07,1.94-1.75a7.52,7.52,0,0,0,.41.85,7.88,7.88,0,0,0,6.49,4.1l.26,0-1.91,1.6Z"/><circle class="cls-1" cx="13" cy="88" r="2"/><circle class="cls-1" cx="7" cy="88" r="2"/><circle class="cls-1" cx="19" cy="88" r="2"/><circle class="cls-2" cx="13" cy="118" r="2"/><circle class="cls-2" cx="7" cy="118" r="2"/><circle class="cls-2" cx="19" cy="118" r="2"/><circle class="cls-3" cx="13" cy="148" r="2"/><circle class="cls-3" cx="7" cy="148" r="2"/><circle class="cls-3" cx="19" cy="148" r="2"/><path class="cls-1" d="M132.6,78.72a2.49,2.49,0,0,1,1.78-.72,2.52,2.52,0,0,1,1.78.72,2.39,2.39,0,0,1,0,3.48,2.44,2.44,0,0,1-1.77.72h0a2.44,2.44,0,0,1-1.79-.72,2.37,2.37,0,0,1-.74-1.74A2.32,2.32,0,0,1,132.6,78.72Z"/><path class="cls-1" d="M137.86,94c-1.26,2.65-3.11,4-5.46,4h0a3.43,3.43,0,0,1-2.2-.61,2.21,2.21,0,0,1-.77-1.83,9.22,9.22,0,0,1,.52-2.34l1.57-5a3.08,3.08,0,0,0,.17-.69c0-.09,0-.11,0-.11s0,0-.11,0c-.31,0-.93.53-1.59,1.77l-.06.11H128l.14-.29c1.28-2.72,3.16-4.15,5.57-4.14a3,3,0,0,1,2,.63,2.17,2.17,0,0,1,.75,1.76A8.76,8.76,0,0,1,136,89.7l-1.53,4.55a6.15,6.15,0,0,0-.32,1.16.23.23,0,0,0,0,.1.32.32,0,0,0,.13,0,1.61,1.61,0,0,0,.83-.59,6,6,0,0,0,.89-1.18l0-.11h2Z"/><path class="cls-2" d="M132.6,108.72a2.49,2.49,0,0,1,1.78-.72,2.52,2.52,0,0,1,1.78.72,2.39,2.39,0,0,1,0,3.48,2.44,2.44,0,0,1-1.77.72h0a2.44,2.44,0,0,1-1.79-.72,2.37,2.37,0,0,1-.74-1.74A2.32,2.32,0,0,1,132.6,108.72Z"/><path class="cls-2" d="M137.86,124c-1.26,2.65-3.11,4-5.46,4h0a3.43,3.43,0,0,1-2.2-.61,2.21,2.21,0,0,1-.77-1.83,9.22,9.22,0,0,1,.52-2.34l1.57-5a3.08,3.08,0,0,0,.17-.69c0-.09,0-.11,0-.11s0,0-.11,0c-.31,0-.93.53-1.59,1.77l-.06.11H128l.14-.29c1.28-2.72,3.16-4.15,5.57-4.14a3,3,0,0,1,2,.63,2.17,2.17,0,0,1,.75,1.76,8.76,8.76,0,0,1-.54,2.44l-1.53,4.55a6.15,6.15,0,0,0-.32,1.16.23.23,0,0,0,0,.1.32.32,0,0,0,.13,0,1.61,1.61,0,0,0,.83-.59,6,6,0,0,0,.89-1.18l0-.11h2Z"/><path class="cls-3" d="M132.6,138.72a2.49,2.49,0,0,1,1.78-.72,2.52,2.52,0,0,1,1.78.72,2.39,2.39,0,0,1,0,3.48,2.44,2.44,0,0,1-1.77.72h0a2.44,2.44,0,0,1-1.79-.72,2.37,2.37,0,0,1-.74-1.74A2.32,2.32,0,0,1,132.6,138.72Z"/><path class="cls-3" d="M137.86,154c-1.26,2.65-3.11,4-5.46,4h0a3.43,3.43,0,0,1-2.2-.61,2.21,2.21,0,0,1-.77-1.83,9.22,9.22,0,0,1,.52-2.34l1.57-5a3.08,3.08,0,0,0,.17-.69c0-.09,0-.11,0-.11s0,0-.11,0c-.31,0-.93.53-1.59,1.77l-.06.11H128l.14-.29c1.28-2.72,3.16-4.15,5.57-4.14a3,3,0,0,1,2,.63,2.17,2.17,0,0,1,.75,1.76,8.76,8.76,0,0,1-.54,2.44l-1.53,4.55a6.15,6.15,0,0,0-.32,1.16.23.23,0,0,0,0,.1.32.32,0,0,0,.13,0,1.61,1.61,0,0,0,.83-.59,6,6,0,0,0,.89-1.18l0-.11h2Z"/><circle class="cls-2" cx="6" cy="10" r="1"/><circle class="cls-2" cx="10" cy="10" r="1"/><circle class="cls-2" cx="14" cy="10" r="1"/><path class="cls-1" d="M198.82,88a5.86,5.86,0,1,1-3.54-5.33l-1.82,1.94,5.45-.18-.47-5.14L196.84,81A8,8,0,1,0,201,88Z"/><path class="cls-2" d="M198.82,118a5.86,5.86,0,1,1-3.54-5.33l-1.82,1.94,5.45-.18-.47-5.14-1.6,1.71a8,8,0,1,0,4.16,7Z"/><path class="cls-3" d="M198.82,148a5.86,5.86,0,1,1-3.54-5.33l-1.82,1.94,5.45-.18-.47-5.14-1.6,1.71a8,8,0,1,0,4.16,7Z"/><circle class="cls-2" cx="6" cy="34" r="1"/><circle class="cls-2" cx="10" cy="34" r="1"/><circle class="cls-2" cx="14" cy="34" r="1"/><circle class="cls-2" cx="6" cy="58" r="1"/><circle class="cls-2" cx="10" cy="58" r="1"/><circle class="cls-2" cx="14" cy="58" r="1"/><path class="cls-1" d="M51,6.13h1.34v6.5h4v1.24H51Z"/><path class="cls-1" d="M59.15,10v0a3.94,3.94,0,0,1,4-4,3.9,3.9,0,0,1,4,4v0a4,4,0,1,1-8,0Zm6.58,0v0a2.64,2.64,0,0,0-2.6-2.75A2.6,2.6,0,0,0,60.56,10v0a2.63,2.63,0,0,0,2.59,2.75A2.6,2.6,0,0,0,65.73,10Z"/><path class="cls-1" d="M72.4,7.39H70V6.13h6.19V7.39H73.75v6.48H72.4Z"/><path class="cls-1" d="M79,10v0a3.94,3.94,0,0,1,4-4,3.9,3.9,0,0,1,4,4v0a4,4,0,0,1-8,0Zm6.58,0v0A2.64,2.64,0,0,0,83,7.25,2.6,2.6,0,0,0,80.42,10v0A2.63,2.63,0,0,0,83,12.75,2.6,2.6,0,0,0,85.59,10Z"/><path class="cls-1" d="M90.8,6.13h5.68V7.37H92.14V9.48H96v1.24H92.14v3.15H90.8Z"/><path class="cls-1" d="M99.72,10v0a3.94,3.94,0,0,1,4-4,3.9,3.9,0,0,1,4,4v0a4,4,0,1,1-8,0Zm6.58,0v0a2.64,2.64,0,0,0-2.6-2.75A2.6,2.6,0,0,0,101.13,10v0a2.63,2.63,0,0,0,2.59,2.75A2.6,2.6,0,0,0,106.3,10Z"/><path class="cls-1" d="M111.17,10v0a4,4,0,0,1,8,0v0a3.94,3.94,0,0,1-4,4A3.9,3.9,0,0,1,111.17,10Zm6.57,0v0a2.63,2.63,0,0,0-2.59-2.75A2.6,2.6,0,0,0,112.57,10v0a2.64,2.64,0,0,0,2.6,2.75A2.6,2.6,0,0,0,117.74,10Z"/><path class="cls-1" d="M124.41,7.39H122V6.13h6.19V7.39h-2.42v6.48h-1.35Z"/><path class="cls-2" d="M51,30.13h1.34v6.5h4v1.24H51Z"/><path class="cls-2" d="M59.15,34v0a3.94,3.94,0,0,1,4-4,3.9,3.9,0,0,1,4,4v0a4,4,0,1,1-8,0Zm6.58,0v0a2.64,2.64,0,0,0-2.6-2.75A2.6,2.6,0,0,0,60.56,34v0a2.63,2.63,0,0,0,2.59,2.75A2.6,2.6,0,0,0,65.73,34Z"/><path class="cls-2" d="M72.4,31.39H70V30.13h6.19v1.26H73.75v6.48H72.4Z"/><path class="cls-2" d="M79,34v0a3.94,3.94,0,0,1,4-4,3.9,3.9,0,0,1,4,4v0a4,4,0,0,1-8,0Zm6.58,0v0A2.64,2.64,0,0,0,83,31.25,2.6,2.6,0,0,0,80.42,34v0A2.63,2.63,0,0,0,83,36.75,2.6,2.6,0,0,0,85.59,34Z"/><path class="cls-2" d="M90.8,30.13h5.68v1.24H92.14v2.11H96v1.24H92.14v3.15H90.8Z"/><path class="cls-2" d="M99.72,34v0a3.94,3.94,0,0,1,4-4,3.9,3.9,0,0,1,4,4v0a4,4,0,1,1-8,0Zm6.58,0v0a2.64,2.64,0,0,0-2.6-2.75A2.6,2.6,0,0,0,101.13,34v0a2.63,2.63,0,0,0,2.59,2.75A2.6,2.6,0,0,0,106.3,34Z"/><path class="cls-2" d="M111.17,34v0a4,4,0,0,1,8,0v0a3.94,3.94,0,0,1-4,4A3.9,3.9,0,0,1,111.17,34Zm6.57,0v0a2.63,2.63,0,0,0-2.59-2.75A2.6,2.6,0,0,0,112.57,34v0a2.64,2.64,0,0,0,2.6,2.75A2.6,2.6,0,0,0,117.74,34Z"/><path class="cls-2" d="M124.41,31.39H122V30.13h6.19v1.26h-2.42v6.48h-1.35Z"/><path class="cls-3" d="M51,54.13h1.34v6.5h4v1.24H51Z"/><path class="cls-3" d="M59.15,58v0a3.94,3.94,0,0,1,4-4,3.9,3.9,0,0,1,4,4v0a4,4,0,1,1-8,0Zm6.58,0v0a2.64,2.64,0,0,0-2.6-2.75A2.6,2.6,0,0,0,60.56,58v0a2.63,2.63,0,0,0,2.59,2.75A2.6,2.6,0,0,0,65.73,58Z"/><path class="cls-3" d="M72.4,55.39H70V54.13h6.19v1.26H73.75v6.48H72.4Z"/><path class="cls-3" d="M79,58v0a3.94,3.94,0,0,1,4-4,3.9,3.9,0,0,1,4,4v0a4,4,0,0,1-8,0Zm6.58,0v0A2.64,2.64,0,0,0,83,55.25,2.6,2.6,0,0,0,80.42,58v0A2.63,2.63,0,0,0,83,60.75,2.6,2.6,0,0,0,85.59,58Z"/><path class="cls-3" d="M90.8,54.13h5.68v1.24H92.14v2.11H96v1.24H92.14v3.15H90.8Z"/><path class="cls-3" d="M99.72,58v0a3.94,3.94,0,0,1,4-4,3.9,3.9,0,0,1,4,4v0a4,4,0,1,1-8,0Zm6.58,0v0a2.64,2.64,0,0,0-2.6-2.75A2.6,2.6,0,0,0,101.13,58v0a2.63,2.63,0,0,0,2.59,2.75A2.6,2.6,0,0,0,106.3,58Z"/><path class="cls-3" d="M111.17,58v0a4,4,0,0,1,8,0v0a3.94,3.94,0,0,1-4,4A3.9,3.9,0,0,1,111.17,58Zm6.57,0v0a2.63,2.63,0,0,0-2.59-2.75A2.6,2.6,0,0,0,112.57,58v0a2.64,2.64,0,0,0,2.6,2.75A2.6,2.6,0,0,0,117.74,58Z"/><path class="cls-3" d="M124.41,55.39H122V54.13h6.19v1.26h-2.42v6.48h-1.35Z"/><path class="cls-1" d="M63,79v1a7.57,7.57,0,0,0,.66,3.59,3.92,3.92,0,0,0,1.68,1.63,7.31,7.31,0,0,1,1.16.62,1.83,1.83,0,0,1,.5,1.28,1,1,0,0,0,1.14.86,1,1,0,0,0,.33-.1C69.57,90.91,71.2,93,73,93s3.43-2.08,4.53-5.12a1,1,0,0,0,1.36-.43.92.92,0,0,0,.11-.33,1.83,1.83,0,0,1,.5-1.28,7.31,7.31,0,0,1,1.16-.62,3.92,3.92,0,0,0,1.68-1.63A7.57,7.57,0,0,0,83,80V79H63Zm2.16,2h1.93a29.74,29.74,0,0,0,.38,3.06,8.69,8.69,0,0,0-1.19-.62,1.63,1.63,0,0,1-.84-.78A7.89,7.89,0,0,1,65.16,81Zm13.75,0h1.93a7.89,7.89,0,0,1-.28,1.66,1.63,1.63,0,0,1-.84.78,9.93,9.93,0,0,0-1.16.62A29.8,29.8,0,0,0,78.91,81ZM71,93.31c.4,1.9-3,1.59-3,3.69H78c0-2.1-3.4-1.79-3-3.69a3.24,3.24,0,0,1-4,0Z"/><path class="cls-2" d="M63,109v1a7.57,7.57,0,0,0,.66,3.59,3.92,3.92,0,0,0,1.68,1.63,7.31,7.31,0,0,1,1.16.62,1.83,1.83,0,0,1,.5,1.28,1,1,0,0,0,1.14.86,1,1,0,0,0,.33-.1c1.1,3,2.73,5.12,4.53,5.12s3.43-2.08,4.53-5.12a1,1,0,0,0,1.36-.43.92.92,0,0,0,.11-.33,1.83,1.83,0,0,1,.5-1.28,7.31,7.31,0,0,1,1.16-.62,3.92,3.92,0,0,0,1.68-1.63A7.57,7.57,0,0,0,83,110v-1H63Zm2.16,2h1.93a29.74,29.74,0,0,0,.38,3.06,8.69,8.69,0,0,0-1.19-.62,1.63,1.63,0,0,1-.84-.78A7.89,7.89,0,0,1,65.16,111Zm13.75,0h1.93a7.89,7.89,0,0,1-.28,1.66,1.63,1.63,0,0,1-.84.78,9.93,9.93,0,0,0-1.16.62A29.8,29.8,0,0,0,78.91,111ZM71,123.31c.4,1.9-3,1.59-3,3.69H78c0-2.1-3.4-1.79-3-3.69a3.24,3.24,0,0,1-4,0Z"/><path class="cls-3" d="M63,139v1a7.57,7.57,0,0,0,.66,3.59,3.92,3.92,0,0,0,1.68,1.63,7.31,7.31,0,0,1,1.16.62,1.83,1.83,0,0,1,.5,1.28,1,1,0,0,0,1.14.86,1,1,0,0,0,.33-.1c1.1,3,2.73,5.12,4.53,5.12s3.43-2.08,4.53-5.12a1,1,0,0,0,1.36-.43.92.92,0,0,0,.11-.33,1.83,1.83,0,0,1,.5-1.28,7.31,7.31,0,0,1,1.16-.62,3.92,3.92,0,0,0,1.68-1.63A7.57,7.57,0,0,0,83,140v-1H63Zm2.16,2h1.93a29.74,29.74,0,0,0,.38,3.06,8.69,8.69,0,0,0-1.19-.62,1.63,1.63,0,0,1-.84-.78A7.89,7.89,0,0,1,65.16,141Zm13.75,0h1.93a7.89,7.89,0,0,1-.28,1.66,1.63,1.63,0,0,1-.84.78,9.93,9.93,0,0,0-1.16.62A29.8,29.8,0,0,0,78.91,141ZM71,153.31c.4,1.9-3,1.59-3,3.69H78c0-2.1-3.4-1.79-3-3.69a3.24,3.24,0,0,1-4,0Z"/><path class="cls-1" d="M53.94,85.36s-1.18-2.19-2.19-4.09a4.42,4.42,0,0,0-2.57-2l-3.44-.85a.57.57,0,0,0-.65.3A2.56,2.56,0,0,1,43,80.16a2.54,2.54,0,0,1-2.08-1.43.59.59,0,0,0-.46-.32.68.68,0,0,0-.2,0l-3.49.92a5,5,0,0,0-2.5,1.94c-1.12,1.84-2.19,3.7-2.2,3.72a.55.55,0,0,0,.24.79l3.39,1.59a1.26,1.26,0,0,0,.24,0V97a.57.57,0,0,0,.57.56h13a.55.55,0,0,0,.56-.56V87.76s.3,0,.43,0l3.21-1.59A.57.57,0,0,0,54,85.8.56.56,0,0,0,53.94,85.36Zm-9.06,5.57a1.89,1.89,0,0,1-.36.74,1.72,1.72,0,0,1-.72.51,3.87,3.87,0,0,1-1.25.23A1.92,1.92,0,0,1,41,91.85a2.86,2.86,0,0,1-.52-1.77v.18h1.42a3.78,3.78,0,0,0,.18.91c.11.22.33.27.61.27a1,1,0,0,0,.44-.13c.12-.06.08-.18.14-.3a.92.92,0,0,0,0-.42v-.44c0-.17.08-.34,0-.46a.74.74,0,0,0-.06-.38c-.05-.12-.14-.12-.26-.17s-.26,0-.48,0h-.35V88h.35a.8.8,0,0,0,.4-.15c.11-.06.17-.18.28-.29a2.21,2.21,0,0,0,.16-.4,1.07,1.07,0,0,0,.06-.46,1.14,1.14,0,0,0-.16-.72.57.57,0,0,0-.51-.23.86.86,0,0,0-.39.1c-.12.06-.09.17-.15.23a1,1,0,0,0,0,.41v.38h-1.5a2.14,2.14,0,0,1,.56-1.57,2.23,2.23,0,0,1,1.57-.53,2.38,2.38,0,0,1,1.53.45,1.68,1.68,0,0,1,.57,1.47,2,2,0,0,1-.29,1.08,1.38,1.38,0,0,1-.84.57,1.45,1.45,0,0,1,1,.56A2.42,2.42,0,0,1,45,90.08Z"/><path class="cls-2" d="M53.94,115.36s-1.18-2.19-2.19-4.09a4.42,4.42,0,0,0-2.57-2l-3.44-.85a.57.57,0,0,0-.65.3A2.56,2.56,0,0,1,43,110.16a2.54,2.54,0,0,1-2.08-1.43.59.59,0,0,0-.46-.32.68.68,0,0,0-.2,0l-3.49.92a5,5,0,0,0-2.5,1.94c-1.12,1.84-2.19,3.7-2.2,3.72a.55.55,0,0,0,.24.79l3.39,1.59a1.26,1.26,0,0,0,.24,0V127a.57.57,0,0,0,.57.56h13a.55.55,0,0,0,.56-.56v-9.27s.3,0,.43,0l3.21-1.59a.57.57,0,0,0,.28-.33A.56.56,0,0,0,53.94,115.36Zm-9.06,5.57a1.89,1.89,0,0,1-.36.74,1.72,1.72,0,0,1-.72.51,3.87,3.87,0,0,1-1.25.23,1.92,1.92,0,0,1-1.57-.56,2.86,2.86,0,0,1-.52-1.77v.18h1.42a3.78,3.78,0,0,0,.18.91c.11.22.33.27.61.27a1,1,0,0,0,.44-.13c.12-.06.08-.18.14-.3a.92.92,0,0,0,0-.42v-.44c0-.17.08-.34,0-.46a.74.74,0,0,0-.06-.38c-.05-.12-.14-.12-.26-.17s-.26,0-.48,0h-.35V118h.35a.8.8,0,0,0,.4-.15c.11-.06.17-.18.28-.29a2.21,2.21,0,0,0,.16-.4,1.07,1.07,0,0,0,.06-.46,1.14,1.14,0,0,0-.16-.72.57.57,0,0,0-.51-.23.86.86,0,0,0-.39.1c-.12.06-.09.17-.15.23a1,1,0,0,0,0,.41v.38h-1.5a2.14,2.14,0,0,1,.56-1.57,2.23,2.23,0,0,1,1.57-.53,2.38,2.38,0,0,1,1.53.45,1.68,1.68,0,0,1,.57,1.47,2,2,0,0,1-.29,1.08,1.38,1.38,0,0,1-.84.57,1.45,1.45,0,0,1,1,.56,2.42,2.42,0,0,1,.28,1.18Z"/><path class="cls-3" d="M53.94,145.36s-1.18-2.19-2.19-4.09a4.42,4.42,0,0,0-2.57-2l-3.44-.85a.57.57,0,0,0-.65.3A2.56,2.56,0,0,1,43,140.16a2.54,2.54,0,0,1-2.08-1.43.59.59,0,0,0-.46-.32.68.68,0,0,0-.2,0l-3.49.92a5,5,0,0,0-2.5,1.94c-1.12,1.84-2.19,3.7-2.2,3.72a.55.55,0,0,0,.24.79l3.39,1.59a1.26,1.26,0,0,0,.24.05V157a.57.57,0,0,0,.57.56h13a.55.55,0,0,0,.56-.56v-9.27s.3,0,.43,0l3.21-1.59a.57.57,0,0,0,.28-.33A.56.56,0,0,0,53.94,145.36Zm-9.06,5.57a1.89,1.89,0,0,1-.36.74,1.72,1.72,0,0,1-.72.51,3.87,3.87,0,0,1-1.25.23,1.92,1.92,0,0,1-1.57-.56,2.86,2.86,0,0,1-.52-1.77v.18h1.42a3.78,3.78,0,0,0,.18.91c.11.22.33.27.61.27a1,1,0,0,0,.44-.13c.12-.06.08-.18.14-.3a.92.92,0,0,0,0-.42v-.44c0-.17.08-.34,0-.46a.74.74,0,0,0-.06-.38c-.05-.12-.14-.12-.26-.17s-.26,0-.48,0h-.35V148h.35a.8.8,0,0,0,.4-.15c.11-.06.17-.18.28-.29a2.21,2.21,0,0,0,.16-.4,1.07,1.07,0,0,0,.06-.46,1.14,1.14,0,0,0-.16-.72.57.57,0,0,0-.51-.23.86.86,0,0,0-.39.1c-.12.06-.09.17-.15.23a1,1,0,0,0,0,.41v.38h-1.5a2.14,2.14,0,0,1,.56-1.57,2.23,2.23,0,0,1,1.57-.53,2.38,2.38,0,0,1,1.53.45,1.68,1.68,0,0,1,.57,1.47,2,2,0,0,1-.29,1.08,1.38,1.38,0,0,1-.84.57,1.45,1.45,0,0,1,1,.56,2.42,2.42,0,0,1,.28,1.18Z"/><path class="cls-1" d="M32.37,3.75a.59.59,0,0,0-.3.16l-5.71,5.7L26,10l.36.37,5.71,5.7a.53.53,0,0,0,.82-.66l-.08-.08L28,10.51H43.47A.52.52,0,0,0,44,10a.54.54,0,0,0-.52-.54H28l4.81-4.81a.53.53,0,0,0,0-.74A.52.52,0,0,0,32.37,3.75Z"/><path class="cls-2" d="M32.37,27.75a.59.59,0,0,0-.3.16l-5.71,5.7L26,34l.36.37,5.71,5.7a.53.53,0,0,0,.82-.66l-.08-.08L28,34.51H43.47A.52.52,0,0,0,44,34a.54.54,0,0,0-.52-.54H28l4.81-4.81a.53.53,0,0,0,0-.74A.52.52,0,0,0,32.37,27.75Z"/><path class="cls-3" d="M32.37,51.75a.59.59,0,0,0-.3.16l-5.71,5.7L26,58l.36.37,5.71,5.7a.53.53,0,0,0,.82-.66l-.08-.08L28,58.51H43.47A.52.52,0,0,0,44,58a.54.54,0,0,0-.52-.54H28l4.81-4.81a.53.53,0,0,0,0-.74A.52.52,0,0,0,32.37,51.75Z"/><path class="cls-1" d="M154.5,97c.24-3.54,5.53-3.42,6.32-5.52.06-.71,0-1.2,0-1.85a3.62,3.62,0,0,1-1-2.17c-.25,0-.66-.27-.78-1.25a.92.92,0,0,1,.35-.92C158.52,82,159,79.07,163,79a2.28,2.28,0,0,1,2,.78c2.89.4,2,4.27,1.6,5.52a.9.9,0,0,1,.35.91c-.12,1-.53,1.24-.78,1.26a3.68,3.68,0,0,1-1,2.17,16.39,16.39,0,0,0,0,1.84c.78,2.1,6,2,6.29,5.52Z"/><path class="cls-2" d="M154.5,127c.24-3.54,5.53-3.42,6.32-5.52.06-.71,0-1.2,0-1.85a3.62,3.62,0,0,1-1-2.17c-.25,0-.66-.27-.78-1.25a.92.92,0,0,1,.35-.92c-.87-3.32-.39-6.22,3.57-6.29a2.28,2.28,0,0,1,2,.78c2.89.4,2,4.27,1.6,5.52a.9.9,0,0,1,.35.91c-.12,1-.53,1.24-.78,1.26a3.68,3.68,0,0,1-1,2.17,16.39,16.39,0,0,0,0,1.84c.78,2.1,6,2,6.29,5.52Z"/><path class="cls-3" d="M154.5,157c.24-3.54,5.53-3.42,6.32-5.52.06-.71,0-1.2,0-1.85a3.62,3.62,0,0,1-1-2.17c-.25,0-.66-.27-.78-1.25a.92.92,0,0,1,.35-.92c-.87-3.32-.39-6.22,3.57-6.29a2.28,2.28,0,0,1,2,.78c2.89.4,2,4.27,1.6,5.52a.9.9,0,0,1,.35.91c-.12,1-.53,1.24-.78,1.26a3.68,3.68,0,0,1-1,2.17,16.39,16.39,0,0,0,0,1.84c.78,2.1,6,2,6.29,5.52Z"/><path class="cls-1" d="M103,77.48c-6.07,0-11,4.29-11,9.56a9.23,9.23,0,0,0,4.28,7.58A7.22,7.22,0,0,1,95,97.77l-.53.75h.94a7,7,0,0,0,4.93-2.2,12.83,12.83,0,0,0,2.7.29c6.07,0,11-4.29,11-9.57S109.07,77.48,103,77.48Z"/><path class="cls-2" d="M103,107.48c-6.07,0-11,4.29-11,9.56a9.23,9.23,0,0,0,4.28,7.58A7.22,7.22,0,0,1,95,127.77l-.53.75h.94a7,7,0,0,0,4.93-2.2,12.83,12.83,0,0,0,2.7.29c6.07,0,11-4.29,11-9.57S109.07,107.48,103,107.48Z"/><path class="cls-3" d="M103,137.48c-6.07,0-11,4.29-11,9.56a9.23,9.23,0,0,0,4.28,7.58A7.22,7.22,0,0,1,95,157.77l-.53.75h.94a7,7,0,0,0,4.93-2.2,12.83,12.83,0,0,0,2.7.29c6.07,0,11-4.29,11-9.57S109.07,137.48,103,137.48Z"/><polygon points="224.71 78.03 222.97 76.29 211.29 88 222.97 99.71 224.71 97.97 214.77 88 224.71 78.03"/><polygon class="cls-2" points="224.71 108.03 222.97 106.29 211.29 118 222.97 129.71 224.71 127.97 214.77 118 224.71 108.03"/><polygon class="cls-3" points="224.71 138.03 222.97 136.29 211.29 148 222.97 159.71 224.71 157.97 214.77 148 224.71 138.03"/><path class="cls-4" d="M252,78.63A13,13,0,1,0,252.36,97,13,13,0,0,0,252,78.63Zm-.16,17.89a12.22,12.22,0,0,1-8.51,3.76c0-.41.76-1,.76-1a17.08,17.08,0,0,1-2.82-.08,3,3,0,0,1,.91,1.08,12.3,12.3,0,0,1-10.5-17.1.93.93,0,0,0,0,.13c1.08-2.66,2.84-2.45,2.84-2.45a13.76,13.76,0,0,1,.92-1.85,20.89,20.89,0,0,0-2.65,2.2,12.29,12.29,0,0,1,18.77-2,12.68,12.68,0,0,1,2,2.45,15.87,15.87,0,0,0-2.86-2.44,12.86,12.86,0,0,1,.82,1.95s1.62-.27,2.91,2.23A12.28,12.28,0,0,1,251.86,96.52Z"/><path class="cls-4" d="M254.82,91.58a11.53,11.53,0,0,1-1.11,2.58s-.46-.36-3.33,1a22.37,22.37,0,0,0,.87-2.5s2,1.71,3.57-1.13Z"/><path class="cls-4" d="M249.9,95.47A39.26,39.26,0,0,0,244.41,99,7.69,7.69,0,0,1,243,97.76s4.11-.08,5.43-3.64a12.33,12.33,0,0,0,1.5,1.35Z"/><path class="cls-4" d="M250.94,92.41s-1.07.52-2.39,1.23a5.39,5.39,0,0,0-2-5.94s2.1-1.17,2.39-1.23a9.35,9.35,0,0,0,2,5.94Z"/><path class="cls-4" d="M238.83,87.6a5.31,5.31,0,0,0-2.06,5.87,12.41,12.41,0,0,1-2.2-1.33s1.83-1.73,2-5.85c0,0,1.91,1.09,2.25,1.31Z"/><path class="cls-4" d="M235.08,94.93a18.93,18.93,0,0,1-.87-2.48s-1.67,1.56-3-1.13a6.09,6.09,0,0,0,.9,2.49s-.21-.68,3,1.12Z"/><path class="cls-4" d="M246.16,84.45s-.09,2.07-.1,2.89a6.59,6.59,0,0,0-6.64-.14s0-1.85.1-2.78a7.54,7.54,0,0,0,6.64,0Z"/><path class="cls-4" d="M238.94,84.14a17.81,17.81,0,0,0-2.38,1.5s.32-3.39-1.74-4.71a18.39,18.39,0,0,1,2.27-1.46s-1.26,2.68,1.85,4.67Z"/><path class="cls-4" d="M251.14,81.26a18.29,18.29,0,0,0-2.3-1.61s1.06,2.52-2.13,4.51A26.75,26.75,0,0,1,249,85.75s.2-3.87,2.19-4.49Z"/><path class="cls-4" d="M250.15,78.79a9.56,9.56,0,0,0-1.48.37s-1.06-2.48-5.07-2.89a4.89,4.89,0,0,1,1.33-.36,26.77,26.77,0,0,1,5.22,2.88Z"/><path class="cls-4" d="M242.72,76.29A6.34,6.34,0,0,0,237.34,79s-.94-.29-1.35-.36c0,0,3.68-2.36,5.54-2.76a4.25,4.25,0,0,1,1.19.45Z"/><path class="cls-4" d="M243.35,100.28c0-.41.76-1,.76-1a17.08,17.08,0,0,1-2.82-.08,3,3,0,0,1,.91,1.08,11,11,0,0,0,1.15,0Z"/><path class="cls-4" d="M250.65,79.15a12.86,12.86,0,0,1,.82,1.95s1.62-.27,2.91,2.23a11.77,11.77,0,0,0-.87-1.74,15.87,15.87,0,0,0-2.86-2.44Z"/><path class="cls-4" d="M234.5,80.84a13.76,13.76,0,0,1,.92-1.85,20.89,20.89,0,0,0-2.65,2.2,12.16,12.16,0,0,0-1.07,2,.93.93,0,0,0,0,.13c1.08-2.66,2.84-2.45,2.84-2.45Z"/><path class="cls-4" d="M241,99s-2.35-1.73-5.4-3.63l-.09-.06L237,93.93a6.1,6.1,0,0,0,5.27,3.79h.21L241,99Z"/><path class="cls-7" d="M252,108.63a13,13,0,1,0,.34,18.39A13,13,0,0,0,252,108.63Zm-.16,17.89a12.22,12.22,0,0,1-8.51,3.76c0-.41.76-1,.76-1a17.08,17.08,0,0,1-2.82-.08,3,3,0,0,1,.91,1.08,12.3,12.3,0,0,1-10.5-17.1.93.93,0,0,0,0,.13c1.08-2.66,2.84-2.45,2.84-2.45a13.76,13.76,0,0,1,.92-1.85,20.89,20.89,0,0,0-2.65,2.2,12.29,12.29,0,0,1,18.77-2,12.68,12.68,0,0,1,2,2.45,15.87,15.87,0,0,0-2.86-2.44,12.86,12.86,0,0,1,.82,1.95s1.62-.27,2.91,2.23A12.28,12.28,0,0,1,251.86,126.52Z"/><path class="cls-7" d="M254.82,121.58a11.53,11.53,0,0,1-1.11,2.58s-.46-.36-3.33,1a22.37,22.37,0,0,0,.87-2.5s2,1.71,3.57-1.13Z"/><path class="cls-7" d="M249.9,125.47a39.26,39.26,0,0,0-5.49,3.51,7.69,7.69,0,0,1-1.44-1.22s4.11-.08,5.43-3.64a12.33,12.33,0,0,0,1.5,1.35Z"/><path class="cls-7" d="M250.94,122.41s-1.07.52-2.39,1.23a5.39,5.39,0,0,0-2-5.94s2.1-1.17,2.39-1.23a9.35,9.35,0,0,0,2,5.94Z"/><path class="cls-7" d="M238.83,117.6a5.31,5.31,0,0,0-2.06,5.87,12.41,12.41,0,0,1-2.2-1.33s1.83-1.73,2-5.85c0,0,1.91,1.09,2.25,1.31Z"/><path class="cls-7" d="M235.08,124.93a18.93,18.93,0,0,1-.87-2.48s-1.67,1.56-3-1.13a6.09,6.09,0,0,0,.9,2.49s-.21-.68,3,1.12Z"/><path class="cls-7" d="M246.16,114.45s-.09,2.07-.1,2.89a6.59,6.59,0,0,0-6.64-.14s0-1.85.1-2.78a7.54,7.54,0,0,0,6.64,0Z"/><path class="cls-7" d="M238.94,114.14a17.81,17.81,0,0,0-2.38,1.5s.32-3.39-1.74-4.71a18.39,18.39,0,0,1,2.27-1.46s-1.26,2.68,1.85,4.67Z"/><path class="cls-7" d="M251.14,111.26a18.29,18.29,0,0,0-2.3-1.61s1.06,2.52-2.13,4.51a26.75,26.75,0,0,1,2.24,1.59s.2-3.87,2.19-4.49Z"/><path class="cls-7" d="M250.15,108.79a9.56,9.56,0,0,0-1.48.37s-1.06-2.48-5.07-2.89a4.89,4.89,0,0,1,1.33-.36,26.77,26.77,0,0,1,5.22,2.88Z"/><path class="cls-7" d="M242.72,106.29a6.34,6.34,0,0,0-5.38,2.67s-.94-.29-1.35-.36c0,0,3.68-2.36,5.54-2.76a4.25,4.25,0,0,1,1.19.45Z"/><path class="cls-7" d="M243.35,130.28c0-.41.76-1,.76-1a17.08,17.08,0,0,1-2.82-.08,3,3,0,0,1,.91,1.08,11,11,0,0,0,1.15,0Z"/><path class="cls-7" d="M250.65,109.15a12.86,12.86,0,0,1,.82,1.95s1.62-.27,2.91,2.23a11.77,11.77,0,0,0-.87-1.74,15.87,15.87,0,0,0-2.86-2.44Z"/><path class="cls-7" d="M234.5,110.84a13.76,13.76,0,0,1,.92-1.85,20.89,20.89,0,0,0-2.65,2.2,12.16,12.16,0,0,0-1.07,2,.93.93,0,0,0,0,.13c1.08-2.66,2.84-2.45,2.84-2.45Z"/><path class="cls-7" d="M241,129s-2.35-1.73-5.4-3.63l-.09-.06,1.48-1.34a6.1,6.1,0,0,0,5.27,3.79h.21L241,129Z"/><path class="cls-8" d="M252,138.63a13,13,0,1,0,.34,18.39A13,13,0,0,0,252,138.63Zm-.16,17.89a12.22,12.22,0,0,1-8.51,3.76c0-.41.76-1,.76-1a17.08,17.08,0,0,1-2.82-.08,3,3,0,0,1,.91,1.08,12.3,12.3,0,0,1-10.5-17.1.93.93,0,0,0,0,.13c1.08-2.66,2.84-2.45,2.84-2.45a13.76,13.76,0,0,1,.92-1.85,20.89,20.89,0,0,0-2.65,2.2,12.29,12.29,0,0,1,18.77-2.05,12.68,12.68,0,0,1,2,2.45,15.87,15.87,0,0,0-2.86-2.44,12.86,12.86,0,0,1,.82,1.95s1.62-.27,2.91,2.23A12.28,12.28,0,0,1,251.86,156.52Z"/><path class="cls-8" d="M254.82,151.58a11.53,11.53,0,0,1-1.11,2.58s-.46-.36-3.33,1.05a22.37,22.37,0,0,0,.87-2.5s2,1.71,3.57-1.13Z"/><path class="cls-8" d="M249.9,155.47a39.26,39.26,0,0,0-5.49,3.51,7.69,7.69,0,0,1-1.44-1.22s4.11-.08,5.43-3.64a12.33,12.33,0,0,0,1.5,1.35Z"/><path class="cls-8" d="M250.94,152.41s-1.07.52-2.39,1.23a5.39,5.39,0,0,0-2-5.94s2.1-1.17,2.39-1.23a9.35,9.35,0,0,0,2,5.94Z"/><path class="cls-8" d="M238.83,147.6a5.31,5.31,0,0,0-2.06,5.87,12.41,12.41,0,0,1-2.2-1.33s1.83-1.73,2-5.85c0,0,1.91,1.09,2.25,1.31Z"/><path class="cls-8" d="M235.08,154.93a18.93,18.93,0,0,1-.87-2.48s-1.67,1.56-3-1.13a6.09,6.09,0,0,0,.9,2.49s-.21-.68,3,1.12Z"/><path class="cls-8" d="M246.16,144.45s-.09,2.07-.1,2.89a6.59,6.59,0,0,0-6.64-.14s0-1.85.1-2.78a7.54,7.54,0,0,0,6.64,0Z"/><path class="cls-8" d="M238.94,144.14a17.81,17.81,0,0,0-2.38,1.5s.32-3.39-1.74-4.71a18.39,18.39,0,0,1,2.27-1.46s-1.26,2.68,1.85,4.67Z"/><path class="cls-8" d="M251.14,141.26a18.29,18.29,0,0,0-2.3-1.61s1.06,2.52-2.13,4.51a26.75,26.75,0,0,1,2.24,1.59s.2-3.87,2.19-4.49Z"/><path class="cls-8" d="M250.15,138.79a9.56,9.56,0,0,0-1.48.37s-1.06-2.48-5.07-2.89a4.89,4.89,0,0,1,1.33-.36,26.77,26.77,0,0,1,5.22,2.88Z"/><path class="cls-8" d="M242.72,136.29a6.34,6.34,0,0,0-5.38,2.67s-.94-.29-1.35-.36c0,0,3.68-2.36,5.54-2.76a4.25,4.25,0,0,1,1.19.45Z"/><path class="cls-8" d="M243.35,160.28c0-.41.76-1,.76-1a17.08,17.08,0,0,1-2.82-.08,3,3,0,0,1,.91,1.08,11,11,0,0,0,1.15,0Z"/><path class="cls-8" d="M250.65,139.15a12.86,12.86,0,0,1,.82,1.95s1.62-.27,2.91,2.23a11.77,11.77,0,0,0-.87-1.74,15.87,15.87,0,0,0-2.86-2.44Z"/><path class="cls-8" d="M234.5,140.84a13.76,13.76,0,0,1,.92-1.85,20.89,20.89,0,0,0-2.65,2.2,12.16,12.16,0,0,0-1.07,2,.93.93,0,0,0,0,.13c1.08-2.66,2.84-2.45,2.84-2.45Z"/><path class="cls-8" d="M241,159s-2.35-1.73-5.4-3.63l-.09-.06,1.48-1.34a6.1,6.1,0,0,0,5.27,3.79h.21L241,159Z"/><path class="cls-1" d="M261,85.1h1V90h3v.93h-4Z"/><path class="cls-1" d="M267.13,88v0a3,3,0,0,1,6,0v0a3,3,0,0,1-6,0Zm4.94,0v0a1.95,1.95,0,1,0-3.89,0v0a1.95,1.95,0,1,0,3.89,0Z"/><path class="cls-1" d="M277.08,86h-1.82V85.1h4.65V86h-1.82V90.9h-1Z"/><path class="cls-1" d="M282.05,88v0a3,3,0,0,1,3-3,2.93,2.93,0,0,1,3,3v0a3,3,0,0,1-3,3A2.93,2.93,0,0,1,282.05,88ZM287,88v0A2,2,0,0,0,285,85.94a1.94,1.94,0,0,0-1.93,2v0a2,2,0,0,0,1.95,2.06A1.94,1.94,0,0,0,287,88Z"/><path class="cls-1" d="M290.9,85.1h4.27V86h-3.26v1.58h2.89v.93h-2.89V90.9h-1Z"/><path class="cls-1" d="M297.61,88v0a3,3,0,0,1,3-3,2.93,2.93,0,0,1,3,3v0a3,3,0,0,1-3,3A2.93,2.93,0,0,1,297.61,88Zm4.94,0v0a2,2,0,0,0-1.95-2.06,1.94,1.94,0,0,0-1.93,2v0a2,2,0,0,0,1.95,2.06A1.94,1.94,0,0,0,302.55,88Z"/><path class="cls-1" d="M306.21,88v0a3,3,0,0,1,3-3,2.93,2.93,0,0,1,3,3v0a3,3,0,0,1-3,3A2.93,2.93,0,0,1,306.21,88Zm4.94,0v0a2,2,0,0,0-1.95-2.06,1.94,1.94,0,0,0-1.93,2v0a2,2,0,0,0,2,2.06A1.94,1.94,0,0,0,311.15,88Z"/><path class="cls-1" d="M316.17,86h-1.82V85.1H319V86h-1.82V90.9h-1Z"/><path class="cls-1" d="M261,115.1h1V120h3v.93h-4Z"/><path class="cls-1" d="M267.13,118v0a3,3,0,0,1,6,0v0a3,3,0,0,1-6,0Zm4.94,0v0a1.95,1.95,0,1,0-3.89,0v0a1.95,1.95,0,1,0,3.89,0Z"/><path class="cls-1" d="M277.08,116h-1.82v-.94h4.65V116h-1.82v4.86h-1Z"/><path class="cls-1" d="M282.05,118v0a3,3,0,0,1,3-3,2.93,2.93,0,0,1,3,3v0a3,3,0,0,1-3,3A2.93,2.93,0,0,1,282.05,118Zm4.94,0v0a2,2,0,0,0-1.95-2.06,1.94,1.94,0,0,0-1.93,2v0a2,2,0,0,0,1.95,2.06A1.94,1.94,0,0,0,287,118Z"/><path class="cls-1" d="M290.9,115.1h4.27V116h-3.26v1.58h2.89v.93h-2.89v2.36h-1Z"/><path class="cls-1" d="M297.61,118v0a3,3,0,0,1,3-3,2.93,2.93,0,0,1,3,3v0a3,3,0,0,1-3,3A2.93,2.93,0,0,1,297.61,118Zm4.94,0v0a2,2,0,0,0-1.95-2.06,1.94,1.94,0,0,0-1.93,2v0a2,2,0,0,0,1.95,2.06A1.94,1.94,0,0,0,302.55,118Z"/><path class="cls-1" d="M306.21,118v0a3,3,0,0,1,3-3,2.93,2.93,0,0,1,3,3v0a3,3,0,0,1-3,3A2.93,2.93,0,0,1,306.21,118Zm4.94,0v0a2,2,0,0,0-1.95-2.06,1.94,1.94,0,0,0-1.93,2v0a2,2,0,0,0,2,2.06A1.94,1.94,0,0,0,311.15,118Z"/><path class="cls-1" d="M316.17,116h-1.82v-.94H319V116h-1.82v4.86h-1Z"/><path class="cls-1" d="M261,145.1h1V150h3v.93h-4Z"/><path class="cls-1" d="M267.13,148v0a3,3,0,0,1,6,0v0a3,3,0,0,1-6,0Zm4.94,0v0a1.95,1.95,0,1,0-3.89,0v0a1.95,1.95,0,1,0,3.89,0Z"/><path class="cls-1" d="M277.08,146h-1.82v-.94h4.65V146h-1.82v4.86h-1Z"/><path class="cls-1" d="M282.05,148v0a3,3,0,0,1,3-3,2.93,2.93,0,0,1,3,3v0a3,3,0,0,1-3,3A2.93,2.93,0,0,1,282.05,148Zm4.94,0v0a2,2,0,0,0-1.95-2.06,1.94,1.94,0,0,0-1.93,2v0a2,2,0,0,0,1.95,2.06A1.94,1.94,0,0,0,287,148Z"/><path class="cls-1" d="M290.9,145.1h4.27V146h-3.26v1.58h2.89v.93h-2.89v2.36h-1Z"/><path class="cls-1" d="M297.61,148v0a3,3,0,0,1,3-3,2.93,2.93,0,0,1,3,3v0a3,3,0,0,1-3,3A2.93,2.93,0,0,1,297.61,148Zm4.94,0v0a2,2,0,0,0-1.95-2.06,1.94,1.94,0,0,0-1.93,2v0a2,2,0,0,0,1.95,2.06A1.94,1.94,0,0,0,302.55,148Z"/><path class="cls-1" d="M306.21,148v0a3,3,0,0,1,3-3,2.93,2.93,0,0,1,3,3v0a3,3,0,0,1-3,3A2.93,2.93,0,0,1,306.21,148Zm4.94,0v0a2,2,0,0,0-1.95-2.06,1.94,1.94,0,0,0-1.93,2v0a2,2,0,0,0,2,2.06A1.94,1.94,0,0,0,311.15,148Z"/><path class="cls-1" d="M316.17,146h-1.82v-.94H319V146h-1.82v4.86h-1Z"/></svg>